<svg xmlns="http://www.w3.org/2000/svg" xmlns:xlink="http://www.w3.org/1999/xlink" width="1920" zoomAndPan="magnify" viewBox="0 0 1440 1439.999935" height="1920" preserveAspectRatio="xMidYMid meet" version="1.0"><path fill="#e3ebff" d="M 1160.355469 940.691406 C 1155.28125 1002.765625 1116.171875 1058.214844 1066.738281 1096.101562 C 1017.304688 1133.988281 958.105469 1156.671875 896.984375 1173.175781 C 909.550781 1186.632812 921.984375 1200.582031 930.234375 1217.042969 C 938.488281 1233.507812 942.21875 1252.992188 936.613281 1270.53125 C 930.917969 1288.355469 916.191406 1302.214844 899.492188 1310.65625 C 882.792969 1319.097656 864.132812 1322.757812 845.652344 1325.667969 C 793.398438 1333.882812 740.316406 1336.800781 687.480469 1334.363281 C 634.210938 1331.90625 579.6875 1323.492188 533.667969 1296.546875 C 487.648438 1269.601562 451.488281 1220.992188 451.597656 1167.664062 C 451.660156 1136.8125 463.394531 1105.171875 453.914062 1075.8125 C 447.46875 1055.839844 432.148438 1040.261719 418.835938 1024.039062 C 380.472656 977.28125 355.910156 919.339844 348.128906 865.160156 C 323.589844 846.46875 292.238281 839.753906 264.242188 826.804688 C 221.402344 806.988281 171.824219 700.636719 155.140625 656.035156 C 115.382812 572.890625 96.453125 479.878906 98.753906 389.65625 C 77.234375 380.164062 57.015625 366.394531 43.644531 347.046875 C 30.273438 327.695312 24.5625 302.226562 32.292969 280.015625 C 42.757812 249.960938 73.636719 232.859375 98.8125 215.851562 C 153.15625 195.617188 208.5625 178.230469 262.703125 163.179688 C 314.875 147.5 367.046875 131.816406 419.535156 120.40625 C 479.917969 88.851562 546.558594 67.753906 614.65625 65.628906 C 682.75 63.5 752.351562 81.183594 807.5625 121.101562 C 822.980469 132.246094 837.617188 145.582031 845.371094 162.957031 C 853.125 180.328125 852.570312 202.46875 839.875 216.636719 C 827.753906 230.167969 806.308594 235.375 799.617188 252.261719 C 792.96875 269.039062 804.6875 286.765625 812.3125 303.121094 C 828.375 337.566406 826.765625 377.605469 820.429688 415.078125 C 814.089844 452.554688 803.34375 489.503906 802.140625 527.492188 C 801.59375 544.734375 803 562.265625 798.886719 579.019531 C 790.765625 612.09375 762.332031 637.5625 753.246094 676.339844 C 896.609375 742.054688 1031.382812 826.484375 1160.355469 940.691406 Z M 1160.355469 940.691406 " fill-opacity="1" fill-rule="nonzero"/><path fill="#ffffff" d="M 499.832031 724.441406 C 430.839844 719.457031 373.859375 663.765625 346.695312 600.152344 C 319.535156 536.539062 316.484375 465.621094 312.300781 400.117188 C 322.804688 303.070312 337.285156 198.707031 404.570312 127.992188 C 476.785156 52.097656 600.265625 35.992188 694.863281 81.007812 C 789.460938 126.023438 853.171875 224.570312 867.398438 328.363281 C 881.621094 432.15625 849.882812 539.238281 790.667969 628.472656 C 688.808594 635.355469 589.136719 671.941406 499.832031 724.441406 Z M 499.832031 724.441406 " fill-opacity="1" fill-rule="nonzero"/><path fill="#ffffff" d="M 751.5625 631.882812 C 865.753906 612.980469 985.046875 625.925781 1092.527344 668.878906 C 1126.972656 682.644531 1160.679688 699.742188 1188 724.832031 C 1215.316406 749.925781 1235.886719 783.851562 1239.160156 820.800781 C 1243.25 866.953125 1219.683594 912.5 1185.398438 943.664062 C 1151.113281 974.824219 1107.195312 993.359375 1062.8125 1006.65625 C 965.371094 1035.839844 860.421875 1042.15625 761.332031 1019.175781 C 662.246094 996.191406 566.902344 952.527344 500.984375 875.058594 C 480.960938 851.523438 465.082031 812.714844 470.910156 782.371094 C 476.261719 754.496094 500.503906 734.546875 524.441406 719.296875 C 596.492188 673.394531 680.351562 643.667969 751.5625 631.882812 Z M 751.5625 631.882812 " fill-opacity="1" fill-rule="nonzero"/><path fill="#552d2d" d="M 868.335938 1038.246094 C 819.402344 1038.25 773.910156 1033.234375 731.066406 1023.191406 C 632.804688 1000.167969 549.144531 949.058594 495.496094 879.277344 C 479.6875 858.714844 445.328125 805.703125 467.613281 757.695312 C 480.804688 729.285156 509.53125 716.417969 537.3125 703.976562 C 544.308594 700.84375 551.542969 697.601562 558.261719 694.207031 C 683.101562 631.101562 809.257812 605.699219 933.257812 618.714844 C 1049.539062 630.917969 1125.894531 673.046875 1153.328125 690.597656 C 1204.171875 723.117188 1234.15625 758.398438 1245 798.445312 C 1262.644531 863.59375 1224.660156 928.203125 1179.191406 963.335938 C 1128.292969 1002.664062 1064.476562 1017.164062 1008.761719 1026.15625 C 958.839844 1034.214844 912.203125 1038.246094 868.335938 1038.246094 Z M 869.140625 629.769531 C 782.070312 629.769531 678.605469 648.882812 564.507812 706.5625 C 557.503906 710.101562 550.113281 713.410156 542.96875 716.609375 C 516.339844 728.539062 491.183594 739.804688 480.171875 763.523438 C 461.074219 804.664062 492.199219 852.277344 506.472656 870.839844 C 558.179688 938.09375 639.0625 987.417969 734.222656 1009.714844 C 813.683594 1028.332031 902.761719 1029.242188 1006.558594 1012.488281 C 1060.550781 1003.773438 1122.285156 989.816406 1170.730469 952.382812 C 1212.558594 920.066406 1247.613281 861.050781 1231.636719 802.066406 C 1221.734375 765.488281 1193.679688 732.839844 1145.863281 702.257812 C 1129.234375 691.617188 1025.722656 629.769531 869.140625 629.769531 Z M 869.140625 629.769531 " fill-opacity="1" fill-rule="nonzero"/><path fill="#552d2d" d="M 866.601562 892.085938 C 805.078125 892.085938 743.429688 877.492188 689.367188 848.894531 C 674.421875 840.992188 658.3125 830.5625 652.171875 813.148438 C 641.742188 783.621094 664.910156 751.683594 693.328125 737.867188 C 814.820312 678.789062 922.398438 682.476562 1013.082031 748.84375 C 1013.085938 748.84375 1013.085938 748.84375 1013.085938 748.84375 L 1014.058594 749.558594 C 1030.902344 761.878906 1049.988281 775.84375 1053.339844 798.195312 C 1055.882812 815.128906 1048.300781 834.09375 1033.558594 847.691406 C 1020.21875 859.996094 1003.277344 866.882812 988.464844 871.996094 C 949.496094 885.449219 908.070312 892.085938 866.601562 892.085938 Z M 855.183594 710.125 C 806.519531 710.125 754.488281 723.519531 699.382812 750.316406 C 676.921875 761.238281 657.480469 786.601562 665.222656 808.539062 C 669.78125 821.460938 683.257812 830.003906 695.839844 836.65625 C 783.015625 882.773438 890.722656 891.089844 983.949219 858.910156 C 997.40625 854.265625 1012.710938 848.089844 1024.167969 837.515625 C 1035.585938 826.988281 1041.515625 812.707031 1039.652344 800.246094 C 1037.15625 783.605469 1021.257812 771.976562 1005.886719 760.730469 L 1004.90625 760.015625 C 959.464844 726.761719 909.417969 710.125 855.183594 710.125 Z M 855.183594 710.125 " fill-opacity="1" fill-rule="nonzero"/><path fill="#552d2d" d="M 999.957031 858.503906 C 998.246094 858.503906 996.539062 857.875 995.199219 856.609375 C 924.828125 789.941406 780.53125 783.566406 686.410156 842.972656 C 683.183594 845.011719 678.902344 844.050781 676.863281 840.8125 C 674.820312 837.582031 675.785156 833.308594 679.019531 831.265625 C 766.894531 775.804688 922.269531 768.449219 1004.714844 846.558594 C 1007.496094 849.1875 1007.613281 853.566406 1004.984375 856.34375 C 1003.621094 857.777344 1001.789062 858.503906 999.957031 858.503906 Z M 999.957031 858.503906 " fill-opacity="1" fill-rule="nonzero"/><path fill="#552d2d" d="M 828.039062 1187.296875 C 776.582031 1187.296875 725.125 1177.828125 677.09375 1158.875 C 673.539062 1157.472656 671.796875 1153.453125 673.199219 1149.898438 C 674.605469 1146.34375 678.613281 1144.59375 682.179688 1146 C 776.238281 1183.117188 883.925781 1182.589844 977.636719 1144.542969 C 1068.21875 1107.761719 1125.34375 1051.082031 1168.648438 955.015625 C 1170.222656 951.53125 1174.3125 949.988281 1177.804688 951.550781 C 1181.289062 953.121094 1182.839844 957.222656 1181.269531 960.707031 C 1136.964844 1058.984375 1075.765625 1119.636719 982.839844 1157.371094 C 933.71875 1177.3125 880.878906 1187.296875 828.039062 1187.296875 Z M 828.039062 1187.296875 " fill-opacity="1" fill-rule="nonzero"/><path fill="#552d2d" d="M 732.378906 1349.496094 C 641.910156 1349.496094 529.957031 1330.078125 471.25 1249.324219 C 436.4375 1201.429688 428.074219 1138.335938 449.949219 1088.582031 C 453.523438 1080.460938 450.695312 1070.582031 443.070312 1064.558594 C 385.796875 1019.3125 347.453125 946.96875 340.503906 871.039062 C 339.867188 864.074219 334.175781 858.460938 326.671875 857.390625 C 296.445312 853.089844 265.582031 837.746094 239.769531 814.179688 C 208.554688 785.683594 187.597656 749.238281 172.824219 720.671875 C 124.503906 627.230469 94.714844 506.421875 91.089844 389.222656 C 90.972656 385.402344 93.972656 382.210938 97.796875 382.089844 C 101.601562 381.96875 104.808594 384.972656 104.929688 388.792969 C 108.488281 503.996094 137.71875 622.644531 185.121094 714.3125 C 199.367188 741.855469 219.507812 776.9375 249.105469 803.957031 C 272.878906 825.664062 301.121094 839.773438 328.625 843.6875 C 342.511719 845.664062 353.0625 856.394531 354.285156 869.78125 C 360.902344 942.003906 397.300781 1010.757812 451.65625 1053.699219 C 464.222656 1063.628906 468.730469 1080.265625 462.625 1094.15625 C 442.691406 1139.484375 450.472656 1197.199219 482.449219 1241.183594 C 579.976562 1375.339844 843.746094 1329.25 864.066406 1321.167969 C 889.429688 1311.089844 932.433594 1286.054688 932.75 1256.160156 C 933.066406 1226.113281 915.46875 1196.425781 888.957031 1182.289062 C 885.582031 1180.492188 884.308594 1176.296875 886.105469 1172.925781 C 887.902344 1169.554688 892.097656 1168.269531 895.472656 1170.074219 C 926.417969 1186.578125 946.964844 1221.230469 946.59375 1256.304688 C 946.222656 1291.113281 904.660156 1319.933594 869.183594 1334.03125 C 859.550781 1337.863281 802.394531 1349.496094 732.378906 1349.496094 Z M 732.378906 1349.496094 " fill-opacity="1" fill-rule="nonzero"/><path fill="#552d2d" d="M 221.941406 415.390625 C 205.605469 415.390625 188.96875 413.964844 172.546875 412.074219 C 143.058594 408.675781 111.921875 404.203125 83.972656 390.355469 C 52.453125 374.734375 30.34375 348.25 24.84375 319.5 C 17.984375 283.675781 36.511719 243.648438 72.050781 217.519531 C 103.273438 194.5625 142.171875 184.273438 176.492188 175.195312 C 212.863281 165.574219 257.191406 152.003906 300.0625 138.875 C 343.058594 125.714844 387.523438 112.101562 424.148438 102.410156 C 427.855469 101.421875 431.628906 103.636719 432.609375 107.332031 C 433.585938 111.027344 431.382812 114.816406 427.6875 115.792969 C 391.316406 125.414062 346.988281 138.988281 304.117188 152.113281 C 261.121094 165.277344 216.660156 178.890625 180.035156 188.578125 C 145.285156 197.769531 109.355469 207.273438 80.25 228.671875 C 54.636719 247.503906 31.773438 282.089844 38.4375 316.898438 C 43.132812 341.417969 62.453125 364.242188 90.117188 377.949219 C 116.074219 390.808594 145.851562 395.066406 174.128906 398.320312 C 218.539062 403.433594 264.433594 405.097656 299.136719 382.75 C 302.351562 380.6875 306.632812 381.609375 308.703125 384.820312 C 310.773438 388.035156 309.847656 392.320312 306.632812 394.390625 C 281.6875 410.453125 252.335938 415.390625 221.941406 415.390625 Z M 221.941406 415.390625 " fill-opacity="1" fill-rule="nonzero"/><path fill="#552d2d" d="M 833.449219 231.449219 C 832.078125 231.449219 830.695312 231.046875 829.484375 230.199219 C 826.355469 228.007812 825.59375 223.691406 827.785156 220.558594 L 830.621094 216.539062 C 840.953125 201.945312 849.105469 190.421875 846.792969 174.113281 C 843.679688 152.179688 820.890625 137.503906 801.382812 127.171875 C 779.226562 115.4375 744.882812 100.570312 720.132812 90.574219 C 716.585938 89.140625 714.875 85.105469 716.304688 81.5625 C 717.734375 78.019531 721.773438 76.304688 725.316406 77.738281 C 750.386719 87.867188 785.238281 102.957031 807.863281 114.9375 C 830.269531 126.808594 856.503906 144.042969 860.5 172.167969 C 863.589844 193.925781 853.0625 208.792969 841.921875 224.535156 L 839.125 228.5 C 837.777344 230.421875 835.632812 231.449219 833.449219 231.449219 Z M 833.449219 231.449219 " fill-opacity="1" fill-rule="nonzero"/><path fill="#552d2d" d="M 503.101562 727.910156 C 458.8125 727.914062 410.265625 701.835938 384.722656 672.507812 C 352.59375 635.621094 336.996094 587.738281 326.996094 550.140625 C 302.414062 457.757812 297.929688 372.429688 313.667969 296.535156 C 332.257812 206.84375 381.1875 129.070312 447.910156 83.15625 C 522.996094 31.492188 620.007812 22.15625 695.078125 59.363281 C 738.226562 80.753906 777.449219 118.570312 811.648438 171.769531 C 859.097656 245.574219 884.023438 325.859375 883.742188 403.945312 C 883.4375 487.871094 847.34375 575.753906 789.542969 633.304688 C 786.832031 636 782.453125 635.992188 779.753906 633.28125 C 777.058594 630.574219 777.066406 626.191406 779.777344 623.492188 C 835.074219 568.4375 869.605469 484.289062 869.898438 403.894531 C 870.171875 328.488281 846.003906 250.808594 800.003906 179.253906 C 767.175781 128.191406 729.804688 92.027344 688.925781 71.765625 C 618.28125 36.75 526.761719 45.703125 455.757812 94.558594 C 391.945312 138.472656 345.09375 213.113281 327.21875 299.34375 C 311.929688 373.113281 316.351562 456.296875 340.371094 546.582031 C 349.988281 582.730469 364.90625 628.679688 395.160156 663.417969 C 421.214844 693.328125 476.03125 720.671875 519.171875 712.648438 C 522.921875 711.945312 526.542969 714.429688 527.242188 718.1875 C 527.9375 721.945312 525.457031 725.558594 521.699219 726.257812 C 515.640625 727.382812 509.414062 727.910156 503.101562 727.910156 Z M 503.101562 727.910156 " fill-opacity="1" fill-rule="nonzero"/><path fill="#fffcf6" d="M 1192.003906 546.859375 C 1214.5 562.667969 1237.816406 577.707031 1257.125 597.28125 C 1276.4375 616.851562 1291.722656 641.832031 1293.839844 669.246094 C 1295.957031 696.660156 1282.453125 726.234375 1257.398438 737.554688 C 1295.308594 779.898438 1333.222656 822.246094 1371.136719 864.589844 C 1379.847656 874.316406 1388.65625 884.1875 1394.617188 895.800781 C 1400.578125 907.417969 1403.472656 921.175781 1399.683594 933.671875 C 1394.074219 952.179688 1375.40625 963.710938 1356.855469 969.171875 C 1321.703125 979.523438 1282.074219 973.433594 1251.652344 953.011719 C 1232.003906 939.824219 1216.550781 921.414062 1201.375 903.261719 C 1165.558594 918.15625 1129.394531 926.359375 1092.816406 929.144531 C 1096.347656 953.480469 1084.429688 978.347656 1065.453125 992.566406 C 1046.476562 1006.789062 1021.730469 1011.535156 998.046875 1010.375 C 974.359375 1009.210938 951.320312 1002.617188 928.527344 996.070312 C 854.136719 976.511719 785.40625 936.386719 735 879.027344 C 684.59375 821.667969 653.316406 746.820312 652.453125 670.464844 C 651.59375 594.105469 682.242188 517.039062 742.082031 462.238281 C 870.195312 442.742188 1002.03125 448.019531 1128.171875 477.695312 C 1155.574219 484.140625 1183.355469 492.027344 1192.003906 546.859375 Z M 1192.003906 546.859375 " fill-opacity="1" fill-rule="nonzero"/><path fill="#fffcf6" d="M 1289.804688 474.96875 C 1246.75 554.101562 1205.828125 560.753906 1181.070312 578.234375 C 1131.898438 612.949219 1176.964844 1080.988281 833.234375 991.691406 C 611 950.613281 513.804688 890.929688 450.558594 801.425781 C 412.800781 747.996094 329.253906 614.007812 451.449219 348.421875 C 472.75 303.824219 558.753906 174.597656 596.046875 140.195312 C 579.855469 113.28125 580.203125 77.269531 596.90625 50.667969 C 613.613281 24.070312 645.898438 8.121094 677.175781 11.015625 C 708.449219 13.914062 730.597656 40.527344 742.136719 69.742188 C 769.4375 61.082031 804.5 57.203125 833.011719 54.507812 C 898.019531 43.550781 965.011719 50.585938 990.601562 58.4375 C 1077.152344 84.984375 1087.558594 62.652344 1190.460938 232.496094 C 1263.609375 353.230469 1292.8125 392.464844 1289.804688 474.96875 Z M 1289.804688 474.96875 " fill-opacity="1" fill-rule="nonzero"/><path fill="#fffcf6" d="M 1108.707031 111.390625 C 1118.992188 90.757812 1117.304688 64.660156 1104.449219 45.519531 C 1091.59375 26.382812 1068.066406 14.957031 1045.074219 16.679688 C 1022.085938 18.40625 1000.527344 33.214844 990.671875 54.054688 C 1031.417969 67.996094 1070.46875 86.902344 1108.707031 111.390625 Z M 1108.707031 111.390625 " fill-opacity="1" fill-rule="nonzero"/><path fill="#f09a61" d="M 1255.070312 335.285156 C 1257.542969 356.292969 1239.320312 375.355469 1219.191406 379.910156 C 1199.058594 384.464844 1178.144531 377.925781 1159.246094 369.464844 C 1140.351562 361.007812 1122.027344 350.464844 1101.796875 346.394531 C 1056.488281 337.28125 1011.816406 361.910156 972.425781 386.632812 C 933.035156 411.359375 890.367188 438.097656 844.402344 433.625 C 807.070312 429.988281 774.875 406.257812 739.765625 392.734375 C 681.042969 370.109375 284.96875 490.761719 584.175781 914.882812 C 190.703125 694.484375 487.375 231.679688 606.417969 138.378906 C 582.046875 122.03125 572.160156 87.886719 582.324219 60.359375 C 592.488281 32.828125 620.796875 13.601562 650.117188 12.378906 C 679.4375 11.15625 708.414062 27.035156 724.859375 51.339844 C 728.953125 57.386719 732.648438 64.21875 739.058594 67.726562 C 747.167969 72.164062 757.125 70.003906 766.148438 68.011719 C 839.503906 51.792969 915.515625 54.03125 991.570312 55.902344 C 990.078125 42.671875 1000.175781 30.695312 1011.660156 23.964844 C 1036.355469 9.492188 1070.183594 12.75 1091.660156 31.675781 C 1113.136719 50.597656 1120.628906 83.746094 1109.507812 109.511719 C 1166.710938 179.816406 1196.445312 269.285156 1255.070312 335.285156 Z M 1255.070312 335.285156 " fill-opacity="1" fill-rule="nonzero"/><path fill="#552d2d" d="M 895.570312 357.691406 C 884.210938 364.867188 872.222656 372.757812 866.878906 385.085938 C 865.015625 389.386719 864.121094 394.527344 866.339844 398.660156 C 868.664062 402.976562 873.90625 405.070312 878.808594 404.976562 C 883.710938 404.886719 888.378906 402.996094 892.886719 401.066406 C 902.726562 396.839844 912.445312 392.257812 921.554688 386.628906 C 926.8125 383.378906 931.984375 379.65625 935.347656 374.472656 C 938.714844 369.289062 939.953125 362.339844 937.054688 356.882812 C 933.878906 350.898438 926.519531 348.128906 919.757812 348.449219 C 912.992188 348.769531 906.25 350.945312 895.570312 357.691406 Z M 895.570312 357.691406 " fill-opacity="1" fill-rule="nonzero"/><path fill="#552d2d" d="M 1199.964844 316.070312 C 1212.003906 322.035156 1224.742188 328.644531 1231.332031 340.355469 C 1233.628906 344.441406 1235.050781 349.464844 1233.269531 353.800781 C 1231.402344 358.335938 1226.402344 360.957031 1221.519531 361.375 C 1216.632812 361.789062 1211.792969 360.394531 1207.113281 358.933594 C 1196.886719 355.75 1186.75 352.195312 1177.105469 347.535156 C 1171.542969 344.847656 1166.011719 341.679688 1162.128906 336.871094 C 1158.25 332.0625 1156.296875 325.277344 1158.617188 319.546875 C 1161.160156 313.269531 1168.191406 309.753906 1174.953125 309.375 C 1181.714844 308.992188 1188.648438 310.464844 1199.964844 316.070312 Z M 1199.964844 316.070312 " fill-opacity="1" fill-rule="nonzero"/><path fill="#f8c7d0" d="M 639.511719 54.90625 C 668.203125 56.835938 695.460938 73.800781 709.859375 98.6875 C 714.273438 106.3125 717.5 115.917969 713.417969 123.722656 C 709.589844 131.039062 700.691406 134.070312 692.488281 135.003906 C 669.527344 137.621094 645.539062 128.363281 630.289062 111.003906 C 622.476562 102.109375 616.773438 90.582031 617.828125 78.792969 C 618.878906 67.003906 628.292969 54.148438 639.511719 54.90625 Z M 639.511719 54.90625 " fill-opacity="1" fill-rule="nonzero"/><path fill="#f8c7d0" d="M 860.566406 437.949219 C 860.566406 439.160156 860.507812 440.371094 860.386719 441.578125 C 860.269531 442.78125 860.089844 443.980469 859.855469 445.167969 C 859.617188 446.359375 859.324219 447.535156 858.972656 448.695312 C 858.621094 449.855469 858.210938 450.996094 857.75 452.113281 C 857.285156 453.234375 856.765625 454.328125 856.195312 455.398438 C 855.625 456.46875 855 457.507812 854.328125 458.515625 C 853.652344 459.523438 852.933594 460.496094 852.164062 461.433594 C 851.394531 462.371094 850.582031 463.265625 849.722656 464.125 C 848.867188 464.980469 847.96875 465.792969 847.03125 466.5625 C 846.09375 467.332031 845.121094 468.054688 844.113281 468.726562 C 843.105469 469.402344 842.066406 470.023438 840.996094 470.597656 C 839.929688 471.167969 838.832031 471.683594 837.714844 472.148438 C 836.59375 472.613281 835.453125 473.019531 834.292969 473.371094 C 833.132812 473.726562 831.957031 474.019531 830.769531 474.253906 C 829.578125 474.492188 828.382812 474.667969 827.175781 474.789062 C 825.96875 474.90625 824.757812 474.96875 823.546875 474.96875 C 822.335938 474.96875 821.125 474.90625 819.917969 474.789062 C 818.710938 474.667969 817.515625 474.492188 816.324219 474.253906 C 815.136719 474.019531 813.960938 473.726562 812.800781 473.371094 C 811.640625 473.019531 810.5 472.613281 809.378906 472.148438 C 808.261719 471.683594 807.164062 471.167969 806.097656 470.597656 C 805.027344 470.023438 803.988281 469.402344 802.980469 468.726562 C 801.972656 468.054688 801 467.332031 800.0625 466.5625 C 799.125 465.792969 798.226562 464.980469 797.371094 464.125 C 796.511719 463.265625 795.699219 462.371094 794.929688 461.433594 C 794.160156 460.496094 793.441406 459.523438 792.765625 458.515625 C 792.09375 457.507812 791.472656 456.46875 790.898438 455.398438 C 790.328125 454.328125 789.808594 453.234375 789.347656 452.113281 C 788.882812 450.996094 788.472656 449.855469 788.121094 448.695312 C 787.769531 447.535156 787.476562 446.359375 787.238281 445.167969 C 787.003906 443.980469 786.824219 442.78125 786.707031 441.578125 C 786.585938 440.371094 786.527344 439.160156 786.527344 437.949219 C 786.527344 436.734375 786.585938 435.527344 786.707031 434.320312 C 786.824219 433.113281 787.003906 431.914062 787.238281 430.726562 C 787.476562 429.535156 787.769531 428.363281 788.121094 427.203125 C 788.472656 426.042969 788.882812 424.902344 789.347656 423.78125 C 789.808594 422.660156 790.328125 421.566406 790.898438 420.496094 C 791.472656 419.425781 792.09375 418.390625 792.765625 417.382812 C 793.441406 416.371094 794.160156 415.398438 794.929688 414.464844 C 795.699219 413.527344 796.511719 412.628906 797.371094 411.769531 C 798.226562 410.914062 799.125 410.101562 800.0625 409.332031 C 801 408.5625 801.972656 407.839844 802.980469 407.167969 C 803.988281 406.492188 805.027344 405.871094 806.097656 405.300781 C 807.164062 404.726562 808.261719 404.210938 809.378906 403.746094 C 810.5 403.28125 811.640625 402.875 812.800781 402.523438 C 813.960938 402.171875 815.136719 401.875 816.324219 401.640625 C 817.515625 401.402344 818.710938 401.226562 819.917969 401.105469 C 821.125 400.988281 822.335938 400.929688 823.546875 400.929688 C 824.757812 400.929688 825.96875 400.988281 827.175781 401.105469 C 828.382812 401.226562 829.578125 401.402344 830.769531 401.640625 C 831.957031 401.875 833.132812 402.171875 834.292969 402.523438 C 835.453125 402.875 836.59375 403.28125 837.714844 403.746094 C 838.832031 404.210938 839.929688 404.726562 840.996094 405.300781 C 842.066406 405.871094 843.105469 406.492188 844.113281 407.167969 C 845.121094 407.839844 846.09375 408.5625 847.03125 409.332031 C 847.96875 410.101562 848.867188 410.914062 849.722656 411.769531 C 850.582031 412.628906 851.394531 413.527344 852.164062 414.464844 C 852.933594 415.398438 853.652344 416.371094 854.328125 417.382812 C 855 418.390625 855.625 419.425781 856.195312 420.496094 C 856.765625 421.566406 857.285156 422.660156 857.75 423.78125 C 858.210938 424.902344 858.621094 426.042969 858.972656 427.203125 C 859.324219 428.363281 859.617188 429.535156 859.855469 430.726562 C 860.089844 431.914062 860.269531 433.113281 860.386719 434.320312 C 860.507812 435.527344 860.566406 436.734375 860.566406 437.949219 Z M 860.566406 437.949219 " fill-opacity="1" fill-rule="nonzero"/><path fill="#f8c7d0" d="M 1096.339844 345.003906 C 1085.570312 338.558594 1072.628906 335.804688 1060.167969 337.3125 C 1047.707031 338.820312 1035.796875 344.578125 1026.875 353.40625 C 1033.109375 360.164062 1039.453125 367.015625 1047.308594 371.800781 C 1055.160156 376.585938 1064.863281 379.117188 1073.679688 376.507812 C 1086.367188 372.75 1093.769531 359.9375 1096.339844 345.003906 Z M 1096.339844 345.003906 " fill-opacity="1" fill-rule="nonzero"/><path fill="#ffbd91" d="M 865.71875 143.039062 C 863.722656 143.039062 861.742188 142.183594 860.375 140.523438 C 847.84375 125.332031 833.222656 112.417969 816.917969 102.140625 C 813.683594 100.105469 812.714844 95.828125 814.753906 92.597656 C 816.789062 89.359375 821.0625 88.390625 824.300781 90.429688 C 841.851562 101.496094 857.582031 115.386719 871.054688 131.714844 C 873.488281 134.664062 873.066406 139.027344 870.117188 141.457031 C 868.828125 142.523438 867.269531 143.039062 865.71875 143.039062 Z M 865.71875 143.039062 " fill-opacity="1" fill-rule="nonzero"/><path fill="#ffbd91" d="M 948.082031 118.847656 C 946.667969 118.847656 945.242188 118.414062 944.007812 117.515625 L 910.734375 93.222656 C 907.648438 90.96875 906.972656 86.636719 909.226562 83.546875 C 911.480469 80.460938 915.808594 79.785156 918.898438 82.042969 L 952.171875 106.335938 C 955.257812 108.589844 955.933594 112.921875 953.679688 116.007812 C 952.324219 117.863281 950.21875 118.847656 948.082031 118.847656 Z M 948.082031 118.847656 " fill-opacity="1" fill-rule="nonzero"/><path fill="#ffbd91" d="M 936.019531 205.429688 C 933.949219 205.429688 931.90625 204.507812 930.539062 202.746094 L 908.554688 174.320312 C 906.214844 171.296875 906.769531 166.949219 909.792969 164.613281 C 912.816406 162.273438 917.167969 162.828125 919.503906 165.851562 L 941.488281 194.273438 C 943.828125 197.296875 943.273438 201.644531 940.25 203.984375 C 938.988281 204.960938 937.5 205.429688 936.019531 205.429688 Z M 936.019531 205.429688 " fill-opacity="1" fill-rule="nonzero"/><path fill="#ffbd91" d="M 1041.582031 159.882812 C 1039.167969 159.882812 1036.824219 158.617188 1035.550781 156.367188 C 1028.59375 144.078125 1019.472656 134.070312 1008.441406 126.625 C 1005.273438 124.488281 1004.4375 120.183594 1006.574219 117.015625 C 1008.714844 113.847656 1013.011719 113.011719 1016.1875 115.148438 C 1029.007812 123.804688 1039.578125 135.378906 1047.597656 149.546875 C 1049.480469 152.875 1048.308594 157.097656 1044.984375 158.984375 C 1043.90625 159.589844 1042.738281 159.882812 1041.582031 159.882812 Z M 1041.582031 159.882812 " fill-opacity="1" fill-rule="nonzero"/><path fill="#ffbd91" d="M 1003.550781 242.910156 C 1000.308594 242.910156 997.414062 240.625 996.765625 237.320312 C 993.625 221.328125 987.738281 207.363281 979.265625 195.820312 C 977.003906 192.738281 977.664062 188.40625 980.746094 186.144531 C 983.828125 183.878906 988.164062 184.546875 990.421875 187.628906 C 1000.109375 200.828125 1006.8125 216.648438 1010.351562 234.65625 C 1011.085938 238.40625 1008.644531 242.042969 1004.890625 242.78125 C 1004.4375 242.871094 1003.992188 242.910156 1003.550781 242.910156 Z M 1003.550781 242.910156 " fill-opacity="1" fill-rule="nonzero"/><path fill="#ffbd91" d="M 1373.394531 867.621094 C 1324.339844 879.894531 1281 913.433594 1256.8125 957.835938 C 1282.679688 969.078125 1311.519531 973.386719 1339.542969 970.199219 C 1352.5 968.726562 1365.519531 965.578125 1376.601562 958.703125 C 1387.683594 951.828125 1396.667969 940.824219 1398.917969 927.976562 C 1402.730469 906.1875 1387.324219 886.175781 1373.394531 867.621094 Z M 1373.394531 867.621094 " fill-opacity="1" fill-rule="nonzero"/><path fill="#552d2d" d="M 1107.578125 120.851562 C 1106.660156 120.851562 1105.726562 120.667969 1104.828125 120.277344 C 1101.320312 118.757812 1099.710938 114.679688 1101.234375 111.175781 C 1112.195312 85.894531 1108.277344 60.019531 1090.738281 41.953125 C 1073.128906 23.804688 1046.738281 18.058594 1023.523438 27.316406 C 1008.390625 33.351562 997.132812 44.152344 990.054688 59.414062 C 988.441406 62.882812 984.308594 64.390625 980.867188 62.78125 C 977.394531 61.175781 975.886719 57.0625 977.496094 53.589844 C 986.109375 35.011719 999.871094 21.847656 1018.394531 14.457031 C 1046.847656 3.121094 1079.136719 10.125 1100.675781 32.3125 C 1122.25 54.542969 1127.207031 86.082031 1113.933594 116.683594 C 1112.800781 119.292969 1110.253906 120.851562 1107.578125 120.851562 Z M 1107.578125 120.851562 " fill-opacity="1" fill-rule="nonzero"/><path fill="#552d2d" d="M 683.710938 180.5 C 683.339844 180.5 682.960938 180.46875 682.582031 180.40625 C 648.699219 174.863281 621.6875 163.269531 602.304688 145.949219 C 577.707031 123.96875 566.03125 91.585938 572.566406 63.453125 C 578.894531 36.183594 602.605469 13.207031 631.5625 6.273438 C 657.972656 -0.0390625 687.980469 6.53125 711.882812 23.84375 C 732.910156 39.082031 749.699219 62.789062 759.160156 90.601562 C 760.390625 94.21875 758.453125 98.152344 754.835938 99.382812 C 751.207031 100.617188 747.285156 98.675781 746.054688 95.058594 C 737.511719 69.933594 722.492188 48.625 703.757812 35.054688 C 683.082031 20.074219 657.292969 14.351562 634.785156 19.738281 C 610.808594 25.476562 591.226562 44.300781 586.050781 66.582031 C 580.644531 89.863281 590.648438 116.964844 611.53125 135.628906 C 628.917969 151.164062 653.574219 161.632812 684.820312 166.746094 C 688.59375 167.363281 691.152344 170.921875 690.53125 174.691406 C 689.976562 178.085938 687.042969 180.5 683.710938 180.5 Z M 683.710938 180.5 " fill-opacity="1" fill-rule="nonzero"/><path fill="#552d2d" d="M 717.089844 118.503906 C 714.25 118.503906 711.585938 116.742188 710.574219 113.914062 C 699.664062 83.460938 668.339844 61.441406 635.996094 61.441406 C 635.863281 61.441406 635.71875 61.429688 635.597656 61.445312 C 631.789062 61.445312 628.695312 58.367188 628.675781 54.558594 C 628.652344 50.734375 631.734375 47.621094 635.5625 47.601562 C 635.703125 47.601562 635.847656 47.597656 635.988281 47.597656 C 673.988281 47.597656 710.785156 73.464844 723.605469 109.246094 C 724.894531 112.84375 723.023438 116.804688 719.425781 118.09375 C 718.65625 118.371094 717.863281 118.503906 717.089844 118.503906 Z M 717.089844 118.503906 " fill-opacity="1" fill-rule="nonzero"/><path fill="#552d2d" d="M 1188.152344 575.683594 C 1185.28125 575.683594 1182.597656 573.882812 1181.609375 571.011719 C 1180.363281 567.398438 1182.289062 563.460938 1185.898438 562.214844 C 1238.296875 544.179688 1277 500.71875 1282.214844 454.0625 C 1285.402344 425.507812 1277.085938 393.398438 1257.5 358.636719 C 1248.402344 342.484375 1237.660156 326.800781 1227.269531 311.636719 C 1218.308594 298.550781 1209.039062 285.023438 1200.738281 271.085938 C 1191.523438 255.625 1183.289062 239.320312 1175.324219 223.554688 C 1160.734375 194.667969 1145.652344 164.796875 1124.464844 140.332031 C 1084.664062 94.367188 1021.222656 65.308594 945.828125 58.507812 C 880.472656 52.613281 814.328125 63.84375 750.367188 74.703125 L 743.292969 75.898438 C 739.5 76.546875 735.953125 74 735.3125 70.234375 C 734.675781 66.464844 737.210938 62.890625 740.980469 62.253906 L 748.046875 61.054688 C 812.882812 50.046875 879.933594 38.664062 947.074219 44.722656 C 1026.050781 51.84375 1092.765625 82.582031 1134.925781 131.269531 C 1157.238281 157.027344 1172.710938 187.675781 1187.679688 217.3125 C 1195.539062 232.867188 1203.664062 248.953125 1212.625 264.003906 C 1220.710938 277.5625 1229.847656 290.90625 1238.691406 303.8125 C 1249.25 319.222656 1260.167969 335.164062 1269.558594 351.839844 C 1290.601562 389.1875 1299.488281 424.097656 1295.96875 455.597656 C 1290.175781 507.460938 1247.753906 555.566406 1190.410156 575.304688 C 1189.660156 575.5625 1188.902344 575.683594 1188.152344 575.683594 Z M 1188.152344 575.683594 " fill-opacity="1" fill-rule="nonzero"/><path fill="#552d2d" d="M 1068.265625 383.492188 C 1054.480469 383.492188 1039.667969 374.726562 1026.597656 365.707031 C 1023.449219 363.535156 1022.660156 359.226562 1024.828125 356.078125 C 1027 352.933594 1031.3125 352.144531 1034.457031 354.3125 C 1046.679688 362.746094 1062.058594 372.050781 1072.453125 369.097656 C 1076.261719 368.019531 1080.011719 365.027344 1083.015625 360.671875 C 1086.101562 356.210938 1088.257812 350.714844 1090.34375 345.40625 C 1091.734375 341.847656 1095.746094 340.085938 1099.3125 341.488281 C 1102.871094 342.886719 1104.625 346.902344 1103.226562 350.460938 C 1100.855469 356.507812 1098.402344 362.761719 1094.410156 368.539062 C 1090.992188 373.488281 1085.0625 379.917969 1076.222656 382.417969 C 1073.621094 383.152344 1070.960938 383.492188 1068.265625 383.492188 Z M 1068.265625 383.492188 " fill-opacity="1" fill-rule="nonzero"/><path fill="#552d2d" d="M 1058.675781 423.757812 C 1056.84375 423.757812 1055.015625 423.035156 1053.65625 421.601562 C 1051.023438 418.828125 1051.140625 414.449219 1053.910156 411.816406 C 1061.382812 404.71875 1064.699219 392.945312 1063.757812 376.824219 C 1063.539062 373.007812 1066.453125 369.730469 1070.269531 369.511719 C 1074.117188 369.277344 1077.359375 372.203125 1077.582031 376.019531 C 1078.765625 396.398438 1074.007812 411.820312 1063.441406 421.855469 C 1062.101562 423.128906 1060.390625 423.757812 1058.675781 423.757812 Z M 1058.675781 423.757812 " fill-opacity="1" fill-rule="nonzero"/><path fill="#fffcf6" d="M 1296.734375 672.542969 C 1299.933594 661.894531 1292.839844 650.207031 1283.035156 644.960938 C 1273.226562 639.714844 1261.511719 639.582031 1250.445312 640.6875 C 1233.285156 642.398438 1216.398438 646.792969 1200.582031 653.660156 C 1186.925781 659.589844 1173.714844 667.679688 1164.996094 679.746094 C 1156.277344 691.8125 1152.824219 708.464844 1159.230469 721.902344 C 1165.472656 735.003906 1179.625 742.671875 1193.78125 745.867188 C 1218.082031 751.351562 1244.671875 745.671875 1264.609375 730.738281 C 1284.546875 715.804688 1291.160156 691.078125 1296.734375 672.542969 Z M 1296.734375 672.542969 " fill-opacity="1" fill-rule="nonzero"/><path fill="#ffbd91" d="M 1188.035156 656.515625 C 1214.496094 679.082031 1233.640625 710.089844 1241.964844 743.855469 C 1223.757812 747.484375 1204.773438 747.167969 1186.703125 742.925781 C 1174.589844 740.082031 1161.75 734.46875 1156.671875 723.113281 C 1153.066406 715.054688 1154.148438 705.714844 1156.117188 697.113281 C 1158.289062 687.613281 1161.558594 678.152344 1167.539062 670.460938 C 1173.519531 662.765625 1182.566406 657.019531 1188.035156 656.515625 Z M 1188.035156 656.515625 " fill-opacity="1" fill-rule="nonzero"/><path fill="#552d2d" d="M 1207.664062 754.246094 C 1180.851562 754.25 1161.164062 745.5625 1152.121094 729.691406 C 1140.570312 709.429688 1149.925781 684.351562 1165.136719 670.054688 C 1180.292969 655.808594 1200.390625 649.378906 1218.125 643.707031 C 1221.75 642.539062 1225.660156 644.546875 1226.828125 648.1875 C 1227.992188 651.832031 1225.984375 655.726562 1222.34375 656.890625 C 1206.007812 662.117188 1187.492188 668.039062 1174.617188 680.140625 C 1163.632812 690.46875 1156.226562 708.941406 1164.144531 722.835938 C 1173.097656 738.539062 1196.183594 740.613281 1209.261719 740.394531 C 1235.339844 740.023438 1255.40625 733.53125 1268.894531 721.101562 C 1285.851562 705.476562 1292.71875 677.871094 1285.972656 652.410156 C 1278.429688 623.945312 1257.617188 603.222656 1241.480469 590.855469 C 1228.84375 581.167969 1217.785156 574.984375 1202.960938 567.578125 C 1199.539062 565.867188 1198.152344 561.710938 1199.863281 558.292969 C 1201.570312 554.875 1205.71875 553.480469 1209.144531 555.195312 C 1224.328125 562.777344 1236.441406 569.550781 1249.902344 579.867188 C 1267.75 593.550781 1290.8125 616.625 1299.355469 648.863281 C 1307.5 679.625 1299.226562 711.976562 1278.277344 731.28125 C 1262.203125 746.09375 1239.046875 753.816406 1209.457031 754.234375 C 1208.859375 754.246094 1208.257812 754.246094 1207.664062 754.246094 Z M 1207.664062 754.246094 " fill-opacity="1" fill-rule="nonzero"/><path fill="#fffcf6" d="M 965.726562 817.269531 C 965.726562 817.269531 803.828125 833.527344 819.847656 989.164062 C 819.847656 989.164062 974.386719 1021.695312 1052.195312 1000.597656 C 1130.003906 979.503906 1061.039062 886.578125 1061.039062 886.578125 Z M 965.726562 817.269531 " fill-opacity="1" fill-rule="nonzero"/><path fill="#ffbd91" d="M 1032.269531 866.648438 C 987.980469 895.445312 957.527344 944.59375 951.457031 997.070312 C 977.238281 1003.933594 1004.09375 1009.988281 1030.410156 1005.597656 C 1056.726562 1001.207031 1082.578125 983.972656 1089.4375 958.1875 C 1094.792969 938.058594 1087.675781 916.09375 1074.765625 899.75 C 1061.859375 883.40625 1043.777344 871.941406 1032.269531 866.648438 Z M 1032.269531 866.648438 " fill-opacity="1" fill-rule="nonzero"/><path fill="#552d2d" d="M 1008.699219 1013.835938 C 1003.257812 1013.835938 997.832031 1013.675781 992.515625 1013.457031 C 819.535156 1006.335938 680.75 975.078125 580.03125 920.542969 C 491.507812 872.617188 431.824219 806.671875 402.648438 724.542969 C 359.507812 603.109375 391.914062 474.328125 426.695312 387.679688 C 466.320312 288.957031 530.753906 192.4375 594.839844 135.792969 C 597.703125 133.257812 602.078125 133.53125 604.609375 136.394531 C 607.140625 139.257812 606.871094 143.632812 604.007812 146.164062 C 482.035156 253.976562 344.789062 520.328125 415.695312 719.910156 C 476.066406 889.839844 675.722656 986.566406 993.082031 999.621094 C 1021.605469 1000.800781 1053.445312 1000.335938 1070.367188 979.847656 C 1091.480469 954.296875 1077.472656 912.058594 1052.390625 887.582031 C 1038.773438 874.296875 1022.945312 864.019531 1006.191406 853.136719 C 990.910156 843.214844 975.105469 832.953125 961.300781 820.265625 C 958.484375 817.675781 958.304688 813.296875 960.886719 810.484375 C 963.476562 807.675781 967.851562 807.484375 970.667969 810.070312 C 983.621094 821.976562 998.925781 831.914062 1013.730469 841.527344 C 1030.3125 852.296875 1047.460938 863.433594 1062.054688 877.671875 C 1092.179688 907.066406 1107.515625 956.621094 1081.039062 988.667969 C 1063.578125 1009.804688 1035.871094 1013.835938 1008.699219 1013.835938 Z M 1008.699219 1013.835938 " fill-opacity="1" fill-rule="nonzero"/><path fill="#552d2d" d="M 1324.183594 980.863281 C 1277.726562 980.867188 1230.898438 957.09375 1205.363281 916.769531 C 1204.171875 914.890625 1201.625 914.214844 1199.308594 915.171875 C 1166.140625 928.785156 1125.367188 936.058594 1087.507812 935.144531 C 1083.6875 935.054688 1080.664062 931.878906 1080.757812 928.058594 C 1080.851562 924.238281 1084.183594 921.222656 1087.847656 921.304688 C 1123.847656 922.210938 1162.597656 915.277344 1194.050781 902.363281 C 1202.589844 898.855469 1212.269531 901.800781 1217.0625 909.363281 C 1247.953125 958.15625 1313.429688 980.058594 1366.117188 959.21875 C 1374.320312 955.972656 1381.117188 951.132812 1385.773438 945.222656 C 1402.339844 924.203125 1390.023438 900.917969 1374.246094 878.890625 C 1339.273438 830.0625 1291.066406 779.984375 1252.972656 741.808594 C 1250.273438 739.101562 1250.277344 734.71875 1252.984375 732.019531 C 1255.695312 729.320312 1260.078125 729.324219 1262.773438 732.03125 C 1301.234375 770.578125 1349.945312 821.1875 1385.5 870.832031 C 1397.324219 887.34375 1421.9375 921.703125 1396.644531 953.789062 C 1390.476562 961.621094 1381.679688 967.945312 1371.207031 972.089844 C 1356.171875 978.039062 1340.195312 980.863281 1324.183594 980.863281 Z M 1324.183594 980.863281 " fill-opacity="1" fill-rule="nonzero"/><path fill="#fffcf6" d="M 847.984375 639.023438 C 839.496094 676.367188 844.109375 716.558594 860.835938 751.011719 C 863.777344 757.066406 867.460938 763.316406 873.5625 766.15625 C 879.847656 769.082031 887.21875 767.710938 893.925781 765.964844 C 914.085938 760.714844 933.488281 752.539062 951.324219 741.773438 C 961.777344 735.460938 971.855469 728.109375 979.191406 718.347656 C 986.527344 708.585938 990.890625 696.097656 988.859375 684.054688 C 986.546875 670.332031 976.238281 658.964844 964.0625 652.226562 C 951.886719 645.484375 937.945312 642.738281 924.183594 640.679688 C 898.078125 636.777344 871.648438 635.023438 847.984375 639.023438 Z M 847.984375 639.023438 " fill-opacity="1" fill-rule="nonzero"/><path fill="#ffbd91" d="M 905.640625 635.019531 C 884.3125 670.847656 888.925781 720.226562 916.527344 751.484375 C 933.695312 745.546875 951.273438 739.382812 965.238281 727.765625 C 979.199219 716.148438 988.988281 697.71875 985.269531 679.941406 C 981.988281 664.261719 968.867188 652.101562 954.171875 645.726562 C 939.476562 639.347656 923.210938 637.816406 905.640625 635.019531 Z M 905.640625 635.019531 " fill-opacity="1" fill-rule="nonzero"/><path fill="#552d2d" d="M 863.617188 774.226562 C 860.207031 774.230469 857.234375 771.703125 856.769531 768.222656 C 856.261719 764.4375 858.921875 760.953125 862.710938 760.445312 C 890.265625 756.753906 916.890625 748.667969 941.851562 736.417969 C 951.371094 731.742188 963.382812 725.132812 971.84375 715.421875 C 979.96875 706.089844 983.765625 694.617188 982 684.726562 C 980.371094 675.621094 973.953125 666.871094 964.386719 660.722656 C 954.382812 654.289062 942.261719 651.296875 932.824219 649.40625 C 902.964844 643.425781 871.375 643.347656 841.480469 649.167969 C 837.691406 649.898438 834.09375 647.449219 833.363281 643.699219 C 832.628906 639.949219 835.082031 636.3125 838.832031 635.582031 C 870.480469 629.410156 903.921875 629.496094 935.542969 635.832031 C 946.175781 637.960938 959.917969 641.390625 971.875 649.078125 C 984.664062 657.300781 993.320312 669.40625 995.625 682.289062 C 998.125 696.265625 993.136719 712.050781 982.28125 724.511719 C 972.195312 736.089844 958.636719 743.597656 947.949219 748.84375 C 921.648438 761.753906 893.585938 770.273438 864.546875 774.167969 C 864.238281 774.207031 863.925781 774.226562 863.617188 774.226562 Z M 863.617188 774.226562 " fill-opacity="1" fill-rule="nonzero"/><path fill="#ffffff" d="M 474.035156 1018.949219 C 451.050781 1020.320312 427.679688 1021.765625 406.058594 1029.695312 C 384.4375 1037.621094 364.429688 1053.113281 356.675781 1074.796875 C 353.175781 1084.582031 352.316406 1095.09375 351.699219 1105.46875 C 350.601562 1123.980469 350.1875 1142.53125 352.332031 1159.476562 C 326.035156 1164.890625 300.425781 1173.644531 276.316406 1185.464844 C 265.527344 1190.757812 254.855469 1196.796875 246.597656 1205.527344 C 238.339844 1214.257812 232.699219 1226.09375 233.890625 1241.761719 C 232.488281 1304.316406 241.773438 1367.097656 261.707031 1426.769531 C 262.320312 1431.660156 268.480469 1434.128906 273.242188 1432.851562 C 278 1431.578125 281.636719 1427.855469 285.226562 1424.480469 C 308.378906 1402.742188 339.882812 1390.132812 370.902344 1389.457031 C 388.273438 1383.949219 407.007812 1386.257812 425.152344 1387.957031 C 446.515625 1389.964844 467.96875 1391.050781 489.429688 1391.21875 C 508.46875 1391.367188 527.652344 1390.773438 546.246094 1386.660156 C 564.835938 1382.542969 582.933594 1374.710938 597.890625 1360.671875 C 614.875 1330.765625 615.589844 1294.664062 615.867188 1260.269531 C 616.269531 1210.1875 616.671875 1160.105469 614.820312 1110.34375 C 621.71875 1099.273438 619.652344 1084.363281 612.816406 1073.257812 C 605.976562 1062.148438 595.148438 1054.148438 584.210938 1047.046875 C 552.535156 1026.480469 515.351562 1016.488281 474.035156 1018.949219 Z M 474.035156 1018.949219 " fill-opacity="1" fill-rule="nonzero"/><path fill="#ebdddd" d="M 485.8125 1054.6875 C 487.871094 1054.808594 489.921875 1054.988281 491.964844 1055.222656 C 494.003906 1055.457031 496.027344 1055.746094 498.03125 1056.09375 C 500.039062 1056.4375 502.015625 1056.832031 503.964844 1057.285156 C 505.914062 1057.734375 507.824219 1058.234375 509.699219 1058.785156 C 511.574219 1059.335938 513.40625 1059.9375 515.1875 1060.585938 C 516.96875 1061.234375 518.699219 1061.925781 520.371094 1062.664062 C 522.042969 1063.402344 523.652344 1064.179688 525.199219 1065 C 526.746094 1065.824219 528.226562 1066.679688 529.632812 1067.578125 C 531.039062 1068.472656 532.367188 1069.402344 533.621094 1070.363281 C 534.871094 1071.324219 536.042969 1072.316406 537.128906 1073.335938 C 538.214844 1074.355469 539.210938 1075.398438 540.121094 1076.464844 C 541.03125 1077.53125 541.847656 1078.613281 542.574219 1079.71875 C 543.296875 1080.820312 543.925781 1081.9375 544.457031 1083.070312 C 544.988281 1084.199219 545.421875 1085.335938 545.753906 1086.480469 C 546.089844 1087.628906 546.324219 1088.773438 546.457031 1089.925781 C 546.589844 1091.074219 546.621094 1092.222656 546.554688 1093.363281 C 546.484375 1094.507812 546.316406 1095.640625 546.046875 1096.769531 C 545.777344 1097.894531 545.40625 1099.003906 544.9375 1100.101562 C 544.46875 1101.199219 543.902344 1102.277344 543.242188 1103.335938 C 542.578125 1104.394531 541.820312 1105.425781 540.96875 1106.4375 C 540.117188 1107.445312 539.179688 1108.425781 538.148438 1109.375 C 537.117188 1110.324219 536 1111.242188 534.800781 1112.121094 C 533.601562 1113.003906 532.320312 1113.847656 530.960938 1114.652344 C 529.605469 1115.460938 528.171875 1116.222656 526.667969 1116.945312 C 525.164062 1117.664062 523.597656 1118.339844 521.960938 1118.96875 C 520.328125 1119.601562 518.636719 1120.179688 516.886719 1120.714844 C 515.136719 1121.246094 513.339844 1121.726562 511.492188 1122.15625 C 509.644531 1122.585938 507.757812 1122.964844 505.828125 1123.289062 C 503.902344 1123.609375 501.945312 1123.878906 499.953125 1124.09375 C 497.964844 1124.308594 495.957031 1124.464844 493.921875 1124.566406 C 491.890625 1124.667969 489.847656 1124.714844 487.792969 1124.703125 C 485.738281 1124.691406 483.683594 1124.625 481.625 1124.5 C 479.566406 1124.378906 477.515625 1124.199219 475.476562 1123.964844 C 473.433594 1123.730469 471.410156 1123.4375 469.40625 1123.09375 C 467.402344 1122.75 465.425781 1122.355469 463.476562 1121.902344 C 461.527344 1121.453125 459.613281 1120.953125 457.738281 1120.402344 C 455.863281 1119.851562 454.035156 1119.25 452.253906 1118.601562 C 450.46875 1117.953125 448.742188 1117.261719 447.070312 1116.523438 C 445.394531 1115.785156 443.785156 1115.007812 442.238281 1114.1875 C 440.691406 1113.363281 439.214844 1112.507812 437.808594 1111.609375 C 436.402344 1110.714844 435.070312 1109.785156 433.820312 1108.824219 C 432.566406 1107.863281 431.398438 1106.871094 430.308594 1105.851562 C 429.222656 1104.832031 428.226562 1103.789062 427.316406 1102.722656 C 426.40625 1101.65625 425.589844 1100.574219 424.867188 1099.46875 C 424.140625 1098.367188 423.515625 1097.25 422.984375 1096.117188 C 422.449219 1094.988281 422.019531 1093.851562 421.683594 1092.707031 C 421.347656 1091.558594 421.117188 1090.414062 420.980469 1089.261719 C 420.847656 1088.113281 420.816406 1086.964844 420.886719 1085.824219 C 420.953125 1084.679688 421.121094 1083.546875 421.394531 1082.417969 C 421.664062 1081.292969 422.03125 1080.183594 422.5 1079.085938 C 422.96875 1077.988281 423.535156 1076.910156 424.199219 1075.851562 C 424.863281 1074.792969 425.617188 1073.761719 426.46875 1072.75 C 427.320312 1071.742188 428.261719 1070.761719 429.292969 1069.8125 C 430.324219 1068.863281 431.4375 1067.945312 432.636719 1067.066406 C 433.839844 1066.183594 435.117188 1065.339844 436.476562 1064.535156 C 437.835938 1063.726562 439.265625 1062.964844 440.769531 1062.242188 C 442.273438 1061.523438 443.84375 1060.847656 445.476562 1060.21875 C 447.109375 1059.585938 448.804688 1059.007812 450.550781 1058.472656 C 452.300781 1057.941406 454.097656 1057.460938 455.945312 1057.03125 C 457.792969 1056.601562 459.679688 1056.222656 461.609375 1055.898438 C 463.535156 1055.578125 465.496094 1055.308594 467.484375 1055.09375 C 469.472656 1054.878906 471.484375 1054.722656 473.515625 1054.621094 C 475.546875 1054.519531 477.589844 1054.472656 479.644531 1054.484375 C 481.699219 1054.496094 483.757812 1054.5625 485.8125 1054.6875 Z M 485.8125 1054.6875 " fill-opacity="1" fill-rule="nonzero"/><path fill="#552d2d" d="M 488.46875 1131.609375 C 486.066406 1131.609375 483.644531 1131.535156 481.207031 1131.390625 C 442.101562 1129.042969 412.570312 1108.835938 413.972656 1085.386719 C 414.691406 1073.441406 423.144531 1062.996094 437.773438 1055.980469 C 451.085938 1049.601562 468.304688 1046.695312 486.226562 1047.753906 C 525.335938 1050.101562 554.867188 1070.304688 553.460938 1093.753906 C 552.742188 1105.699219 544.289062 1116.144531 529.660156 1123.160156 C 518.160156 1128.675781 503.75 1131.609375 488.46875 1131.609375 Z M 478.898438 1061.375 C 465.703125 1061.375 453.410156 1063.832031 443.757812 1068.460938 C 434.007812 1073.140625 428.1875 1079.609375 427.789062 1086.214844 C 426.996094 1099.457031 449.078125 1115.59375 482.039062 1117.570312 C 497.644531 1118.511719 512.453125 1116.0625 523.675781 1110.679688 C 533.425781 1106.003906 539.246094 1099.53125 539.644531 1092.925781 C 540.4375 1079.683594 518.355469 1063.550781 485.398438 1061.574219 C 483.214844 1061.441406 481.042969 1061.375 478.898438 1061.375 Z M 478.898438 1061.375 " fill-opacity="1" fill-rule="nonzero"/><path fill="#ebdddd" d="M 435.515625 1153.148438 C 405.027344 1143.296875 377.265625 1125.097656 358.199219 1099.492188 C 355.128906 1119.9375 353.871094 1140.988281 354.609375 1162.722656 C 369.058594 1164.574219 383.539062 1166.269531 398.066406 1167.757812 C 409.210938 1159.824219 422.523438 1154.554688 435.515625 1153.148438 Z M 435.515625 1153.148438 " fill-opacity="1" fill-rule="nonzero"/><path fill="#552d2d" d="M 498.410156 1166.609375 C 493.230469 1166.609375 487.980469 1166.453125 482.644531 1166.132812 C 446.417969 1163.957031 412.703125 1154.375 387.710938 1139.152344 C 361.375 1123.109375 347.570312 1102.546875 348.847656 1081.257812 C 351.425781 1038.320312 414.214844 1008.335938 491.839844 1012.988281 C 528.066406 1015.160156 561.78125 1024.742188 586.773438 1039.964844 C 613.109375 1056.011719 626.914062 1076.574219 625.636719 1097.863281 C 623.238281 1137.847656 568.585938 1166.609375 498.410156 1166.609375 Z M 476.824219 1026.378906 C 415.445312 1026.378906 364.5625 1050.472656 362.664062 1082.085938 C 361.710938 1098.011719 373.160156 1114.082031 394.914062 1127.332031 C 418.011719 1141.398438 449.460938 1150.273438 483.476562 1152.3125 C 550.972656 1156.378906 609.777344 1131.050781 611.820312 1097.035156 C 612.773438 1081.105469 601.324219 1065.039062 579.570312 1051.789062 C 556.476562 1037.71875 525.023438 1028.84375 491.007812 1026.804688 C 486.234375 1026.519531 481.496094 1026.378906 476.824219 1026.378906 Z M 476.824219 1026.378906 " fill-opacity="1" fill-rule="nonzero"/><path fill="#552d2d" d="M 351.046875 1167.460938 C 350.878906 1167.460938 350.714844 1167.457031 350.546875 1167.445312 C 346.734375 1167.171875 343.863281 1163.863281 344.132812 1160.050781 C 344.804688 1150.683594 345.484375 1138.285156 346.207031 1125.164062 C 347.027344 1110.324219 347.898438 1094.5625 348.851562 1081.179688 C 349.125 1077.367188 352.453125 1074.488281 356.25 1074.765625 C 360.0625 1075.039062 362.929688 1078.351562 362.660156 1082.164062 C 361.710938 1095.480469 360.847656 1111.160156 360.03125 1125.925781 C 359.300781 1139.128906 358.617188 1151.605469 357.941406 1161.03125 C 357.683594 1164.679688 354.644531 1167.460938 351.046875 1167.460938 Z M 351.046875 1167.460938 " fill-opacity="1" fill-rule="nonzero"/><path fill="#552d2d" d="M 270.167969 1439.960938 C 269.542969 1439.960938 268.910156 1439.925781 268.273438 1439.851562 C 262.84375 1439.234375 258.136719 1435.960938 255.675781 1431.097656 C 241.484375 1403.023438 227.824219 1311.53125 225.84375 1231.316406 C 225.628906 1222.503906 228.78125 1214.128906 234.71875 1207.730469 C 258.597656 1182.03125 293.058594 1162.925781 324.660156 1157.871094 C 354.292969 1153.132812 423.476562 1152.492188 487.242188 1152.492188 C 491.066406 1152.492188 494.164062 1155.589844 494.164062 1159.414062 C 494.164062 1163.238281 491.066406 1166.335938 487.242188 1166.335938 C 427.714844 1166.335938 355.6875 1166.925781 326.84375 1171.542969 C 298.148438 1176.132812 266.734375 1193.609375 244.863281 1217.152344 C 241.445312 1220.832031 239.558594 1225.871094 239.683594 1230.976562 C 241.585938 1308.148438 254.832031 1398.742188 268.03125 1424.851562 C 268.488281 1425.761719 269.269531 1426.035156 269.84375 1426.101562 C 270.296875 1426.148438 271.441406 1426.15625 272.332031 1425.082031 C 297.761719 1394.613281 338.410156 1384.433594 368.035156 1381.261719 C 376.246094 1380.378906 391.140625 1381.300781 409.992188 1382.464844 C 464.296875 1385.8125 555.171875 1391.417969 590.367188 1359.355469 C 599.585938 1350.953125 604.261719 1340.589844 604.667969 1327.671875 C 604.753906 1325.859375 612.714844 1157.007812 611.523438 1100.234375 C 611.445312 1096.410156 614.476562 1093.246094 618.296875 1093.167969 C 622.148438 1093.09375 625.285156 1096.121094 625.367188 1099.941406 C 626.566406 1157.183594 618.582031 1326.511719 618.5 1328.214844 C 617.984375 1344.726562 611.65625 1358.6875 599.6875 1369.589844 C 560.171875 1405.59375 469.28125 1399.988281 409.140625 1396.277344 C 391.652344 1395.199219 376.550781 1394.265625 369.507812 1395.027344 C 342.421875 1397.925781 305.421875 1407.035156 282.957031 1433.949219 C 279.753906 1437.792969 275.078125 1439.960938 270.167969 1439.960938 Z M 270.167969 1439.960938 " fill-opacity="1" fill-rule="nonzero"/></svg>