<svg xmlns="http://www.w3.org/2000/svg" xmlns:xlink="http://www.w3.org/1999/xlink" width="1920" zoomAndPan="magnify" viewBox="0 0 1440 1439.999935" height="1920" preserveAspectRatio="xMidYMid meet" version="1.0"><path fill="#928c88" d="M 1375.648438 1066.894531 C 1375.402344 1066.460938 1375.085938 1066.078125 1374.828125 1065.652344 L 1376.929688 1065.675781 C 1376.042969 986.269531 1372.542969 896.078125 1368.445312 803.148438 C 1368.449219 803.152344 1368.449219 803.15625 1368.449219 803.15625 C 1396.332031 770.898438 1424.175781 721.203125 1432.964844 678.898438 C 1433.90625 674.363281 1430.4375 670.101562 1425.804688 670.140625 C 1403.476562 670.332031 1384.433594 669.332031 1362.550781 672.699219 C 1362.128906 663.324219 1361.710938 653.957031 1361.296875 644.609375 C 1361.289062 644.457031 1361.144531 644.378906 1361.007812 644.339844 C 1361.097656 644.316406 1361.1875 644.292969 1361.28125 644.273438 C 1344.109375 597.183594 1228.050781 591.4375 1195.894531 591.671875 C 1093.132812 592.425781 1044.628906 622.71875 1032.621094 644.402344 C 1033.34375 644.695312 1034.089844 644.929688 1034.816406 645.21875 C 1033.613281 656.789062 1032.410156 668.085938 1031.207031 679.222656 C 1030.460938 678.691406 1029.832031 678.050781 1029.050781 677.554688 C 999.898438 672.34375 967.96875 671.972656 937.015625 679.574219 C 917.621094 684.335938 818.945312 717.476562 912.679688 875.65625 C 934.890625 913.132812 971.125 958.894531 999.972656 991.539062 C 999.984375 991.53125 999.988281 991.523438 999.996094 991.515625 C 998.574219 1014.457031 997.453125 1037.636719 996.753906 1061.441406 L 998.058594 1061.457031 C 997.394531 1061.996094 996.71875 1062.488281 996.058594 1063.042969 C 985.992188 1071.503906 978.914062 1084.121094 977.328125 1098.917969 C 976.875 1103.15625 980.316406 1106.859375 984.578125 1106.96875 C 1092.425781 1109.742188 1310.105469 1110.335938 1387.574219 1109.808594 C 1391.835938 1109.78125 1395.347656 1106.144531 1394.972656 1101.902344 C 1393.671875 1087.074219 1386.828125 1074.328125 1375.648438 1066.894531 Z M 1004.484375 930.839844 C 985.789062 909.660156 963.523438 879.835938 949.132812 855.519531 C 888.390625 752.898438 952.332031 731.398438 964.902344 728.308594 C 983.945312 723.628906 1003.6875 722.652344 1026.308594 723.847656 C 1017.964844 798.679688 1010.132812 864.96875 1004.5 930.839844 C 1004.492188 930.839844 1004.488281 930.839844 1004.484375 930.839844 Z M 1004.484375 930.839844 " fill-opacity="1" fill-rule="nonzero"/><path fill="#c2cff0" d="M 1139.957031 758.855469 C 1133.945312 812.46875 1135.679688 855.472656 1135.855469 916.851562 C 1135.910156 937.261719 1134.792969 960.382812 1149.53125 974.515625 C 1165.664062 989.980469 1213.734375 995.285156 1233.417969 978.210938 C 1240.953125 971.675781 1242.921875 960.910156 1244.4375 951.050781 C 1252.78125 896.769531 1252.761719 845.367188 1250.085938 790.511719 C 1249.339844 775.207031 1249.109375 762.53125 1242.0625 748.921875 C 1232.167969 729.816406 1209.695312 719.089844 1188.1875 719.792969 C 1166.679688 720.492188 1143.949219 723.21875 1139.957031 758.855469 Z M 1139.957031 758.855469 " fill-opacity="1" fill-rule="nonzero"/><path fill="#e6edff" d="M 1138.511719 954.355469 C 1140.363281 961.671875 1143.542969 968.34375 1148.910156 973.78125 L 1208.097656 720.738281 C 1203.503906 719.082031 1198.9375 718.371094 1194.082031 717.933594 Z M 1138.511719 954.355469 " fill-opacity="1" fill-rule="nonzero"/><path fill="#e6edff" d="M 1160.214844 981.398438 C 1169.074219 985.503906 1180.566406 988.085938 1192.179688 988.640625 L 1246.070312 759.339844 C 1244.824219 754.679688 1243.21875 750.136719 1240.984375 745.828125 C 1236.363281 736.898438 1227.710938 732.175781 1219.226562 726.796875 Z M 1160.214844 981.398438 " fill-opacity="1" fill-rule="nonzero"/><path fill="#552d2d" d="M 1376.929688 1072.027344 C 1376.902344 1072.027344 1376.882812 1072.027344 1376.859375 1072.027344 L 996.683594 1067.792969 C 994.980469 1067.773438 993.351562 1067.070312 992.171875 1065.839844 C 990.988281 1064.609375 990.351562 1062.957031 990.402344 1061.253906 C 993.398438 959.5 1003.667969 868.285156 1015.5625 762.667969 C 1019.820312 724.839844 1024.222656 685.722656 1028.640625 643.191406 C 1028.96875 640.027344 1031.878906 637.320312 1035.058594 637.222656 C 1108.753906 634.886719 1164.292969 635.839844 1223.105469 636.847656 C 1264.929688 637.5625 1308.183594 638.308594 1360.890625 637.921875 C 1360.90625 637.921875 1360.917969 637.921875 1360.933594 637.921875 C 1364.320312 637.921875 1367.476562 640.90625 1367.640625 644.292969 C 1368.78125 669.972656 1369.957031 695.753906 1371.128906 721.503906 C 1376.542969 840.257812 1382.140625 963.054688 1383.285156 1065.601562 C 1383.300781 1067.3125 1382.632812 1068.957031 1381.421875 1070.164062 C 1380.230469 1071.359375 1378.613281 1072.027344 1376.929688 1072.027344 Z M 1003.308594 1055.160156 L 1370.496094 1059.25 C 1369.199219 958.246094 1363.730469 838.230469 1358.433594 722.085938 C 1357.347656 698.261719 1356.261719 674.410156 1355.207031 650.664062 C 1304.953125 650.964844 1263.265625 650.242188 1222.882812 649.546875 C 1165.660156 648.570312 1111.523438 647.640625 1040.734375 649.757812 C 1036.496094 690.324219 1032.277344 727.796875 1028.191406 764.089844 C 1016.582031 867.175781 1006.523438 956.511719 1003.308594 1055.160156 Z M 1003.308594 1055.160156 " fill-opacity="1" fill-rule="nonzero"/><path fill="#552d2d" d="M 1368.445312 809.507812 C 1366.976562 809.507812 1365.496094 809 1364.292969 807.964844 C 1361.636719 805.667969 1361.347656 801.660156 1363.640625 799.003906 C 1388.460938 770.285156 1417.597656 721.613281 1426.742188 677.605469 C 1426.816406 677.242188 1426.679688 676.976562 1426.550781 676.816406 C 1426.375 676.601562 1426.144531 676.507812 1425.863281 676.492188 C 1415.425781 676.578125 1405.703125 676.398438 1396.394531 676.226562 C 1384.671875 676.007812 1373.597656 675.800781 1362.640625 676.175781 C 1359.011719 676.277344 1356.1875 673.546875 1356.070312 670.042969 C 1355.953125 666.539062 1358.699219 663.597656 1362.207031 663.476562 C 1373.507812 663.09375 1384.742188 663.304688 1396.636719 663.523438 C 1405.828125 663.695312 1415.4375 663.878906 1425.753906 663.789062 C 1429.640625 663.804688 1433.753906 665.5625 1436.375 668.757812 C 1439.003906 671.960938 1440.027344 676.132812 1439.183594 680.191406 C 1429.578125 726.425781 1399.152344 777.351562 1373.257812 807.308594 C 1372 808.761719 1370.226562 809.507812 1368.445312 809.507812 Z M 1368.445312 809.507812 " fill-opacity="1" fill-rule="nonzero"/><path fill="#552d2d" d="M 1319.902344 1116.34375 C 1219.570312 1116.34375 1068.308594 1115.476562 984.414062 1113.320312 C 980.546875 1113.21875 976.863281 1111.488281 974.304688 1108.566406 C 971.8125 1105.71875 970.613281 1101.957031 971.011719 1098.242188 C 972.714844 1082.34375 980.152344 1068.113281 991.96875 1058.179688 C 994.660156 1055.921875 998.667969 1056.269531 1000.921875 1058.949219 C 1003.179688 1061.636719 1002.835938 1065.644531 1000.148438 1067.902344 C 990.859375 1075.714844 985 1086.96875 983.648438 1099.59375 C 983.625 1099.804688 983.699219 1100.007812 983.871094 1100.199219 C 983.976562 1100.324219 984.273438 1100.605469 984.742188 1100.617188 C 1091.121094 1103.351562 1305.988281 1104.007812 1387.527344 1103.457031 C 1387.996094 1103.453125 1388.300781 1103.175781 1388.410156 1103.054688 C 1388.582031 1102.867188 1388.660156 1102.664062 1388.640625 1102.460938 C 1387.527344 1089.808594 1381.882812 1078.441406 1372.746094 1070.457031 C 1370.105469 1068.148438 1369.835938 1064.132812 1372.144531 1061.492188 C 1374.453125 1058.855469 1378.464844 1058.582031 1381.113281 1060.890625 C 1392.730469 1071.046875 1399.902344 1085.414062 1401.300781 1101.34375 C 1401.632812 1105.0625 1400.359375 1108.804688 1397.8125 1111.605469 C 1395.199219 1114.476562 1391.480469 1116.136719 1387.613281 1116.160156 C 1370.289062 1116.28125 1346.941406 1116.34375 1319.902344 1116.34375 Z M 1319.902344 1116.34375 " fill-opacity="1" fill-rule="nonzero"/><path fill="#552d2d" d="M 1361.28125 650.625 C 1358.6875 650.625 1356.25 649.027344 1355.3125 646.449219 C 1340.515625 605.871094 1235.292969 597.75 1195.941406 598.023438 C 1098.105469 598.742188 1049.535156 627.253906 1040.757812 646.246094 C 1039.28125 649.429688 1035.507812 650.820312 1032.324219 649.347656 C 1029.136719 647.875 1027.746094 644.101562 1029.21875 640.917969 C 1041.769531 613.757812 1098.160156 586.035156 1195.847656 585.320312 C 1201.953125 585.285156 1346.382812 584.871094 1367.25 642.097656 C 1368.457031 645.390625 1366.753906 649.039062 1363.457031 650.242188 C 1362.738281 650.503906 1362.003906 650.625 1361.28125 650.625 Z M 1361.28125 650.625 " fill-opacity="1" fill-rule="nonzero"/><path fill="#552d2d" d="M 999.976562 997.890625 C 998.21875 997.890625 996.46875 997.164062 995.210938 995.742188 C 967.695312 964.609375 930.125 917.5625 907.214844 878.898438 C 868.871094 814.1875 857.53125 762.074219 873.523438 724.007812 C 888.898438 687.402344 924.847656 676.023438 935.5 673.40625 C 963.601562 666.507812 994.34375 665.3125 1032.285156 669.652344 C 1035.773438 670.050781 1038.273438 673.199219 1037.878906 676.6875 C 1037.476562 680.171875 1034.339844 682.6875 1030.839844 682.273438 C 994.453125 678.113281 965.121094 679.214844 938.535156 685.746094 C 929.339844 688.003906 898.320312 697.789062 885.238281 728.925781 C 870.890625 763.082031 881.964844 811.359375 918.148438 872.417969 C 940.609375 910.324219 977.605469 956.632812 1004.738281 987.332031 C 1007.0625 989.960938 1006.8125 993.976562 1004.183594 996.300781 C 1002.976562 997.367188 1001.472656 997.890625 999.976562 997.890625 Z M 999.976562 997.890625 " fill-opacity="1" fill-rule="nonzero"/><path fill="#552d2d" d="M 1004.488281 937.191406 C 1002.726562 937.191406 1000.972656 936.464844 999.722656 935.042969 C 979.628906 912.289062 957.628906 882.34375 943.664062 858.757812 C 918.429688 816.121094 911.039062 781.632812 921.707031 756.246094 C 932.078125 731.558594 956.226562 723.902344 963.382812 722.140625 C 983.464844 717.203125 1004.851562 715.980469 1026.925781 718.511719 C 1030.410156 718.910156 1032.914062 722.058594 1032.515625 725.542969 C 1032.113281 729.03125 1028.980469 731.554688 1025.476562 731.132812 C 1004.902344 728.78125 985.035156 729.902344 966.417969 734.480469 C 960.722656 735.878906 941.5 741.945312 933.421875 761.167969 C 924.527344 782.339844 931.851562 813.847656 954.605469 852.285156 C 968.191406 875.242188 989.644531 904.429688 1009.246094 926.636719 C 1011.570312 929.265625 1011.320312 933.28125 1008.6875 935.601562 C 1007.480469 936.667969 1005.980469 937.191406 1004.488281 937.191406 Z M 1004.488281 937.191406 " fill-opacity="1" fill-rule="nonzero"/><path fill="#552d2d" d="M 1196.1875 1002.992188 C 1175.988281 1002.992188 1155.128906 996.992188 1144.707031 987 C 1129.027344 971.96875 1129.050781 949.144531 1129.074219 929.011719 L 1129.074219 924.769531 C 1129.042969 913.792969 1128.960938 903.398438 1128.882812 893.433594 C 1128.523438 847.066406 1128.242188 810.441406 1133.214844 766.050781 C 1136.789062 734.191406 1155.070312 717.496094 1187.554688 716.4375 C 1211.574219 715.722656 1235.148438 729.464844 1246.203125 750.808594 C 1253.84375 765.558594 1255.238281 782.261719 1256.011719 798.101562 C 1258.292969 844.890625 1259.398438 900.703125 1250.292969 959.917969 C 1248.90625 968.921875 1246.820312 982.53125 1237.15625 990.910156 C 1227.5 999.289062 1212.046875 1002.992188 1196.1875 1002.992188 Z M 1145.84375 767.464844 C 1140.957031 811.101562 1141.238281 847.390625 1141.59375 893.335938 C 1141.671875 903.324219 1141.753906 913.734375 1141.785156 924.734375 L 1141.785156 929.023438 C 1141.765625 947.476562 1141.742188 966.554688 1153.507812 977.832031 C 1167.824219 991.5625 1212.214844 995.722656 1228.828125 981.3125 C 1234.496094 976.402344 1236.273438 967.476562 1237.730469 957.988281 C 1246.664062 899.886719 1245.570312 844.875 1243.316406 798.722656 C 1242.613281 784.28125 1241.382812 769.132812 1234.917969 756.648438 C 1226.210938 739.832031 1206.8125 728.460938 1187.96875 729.136719 C 1161.714844 729.992188 1148.722656 741.8125 1145.84375 767.464844 Z M 1145.84375 767.464844 " fill-opacity="1" fill-rule="nonzero"/><path fill="#552d2d" d="M 1179.265625 795.761719 C 1179.15625 795.761719 1179.046875 795.757812 1178.9375 795.753906 L 1137.902344 793.671875 C 1134.394531 793.492188 1131.699219 790.507812 1131.878906 787.003906 C 1132.054688 783.5 1135.023438 780.824219 1138.546875 780.980469 L 1179.582031 783.0625 C 1183.089844 783.242188 1185.785156 786.226562 1185.605469 789.730469 C 1185.433594 793.125 1182.625 795.761719 1179.265625 795.761719 Z M 1179.265625 795.761719 " fill-opacity="1" fill-rule="nonzero"/><path fill="#552d2d" d="M 1156.945312 837.53125 C 1156.84375 837.53125 1156.75 837.53125 1156.648438 837.527344 C 1152.859375 837.355469 1149.425781 837.21875 1145.992188 837.085938 C 1142.476562 836.949219 1138.964844 836.8125 1135.089844 836.636719 C 1131.585938 836.472656 1128.871094 833.503906 1129.035156 830 C 1129.195312 826.492188 1132.160156 823.78125 1135.671875 823.941406 C 1139.519531 824.117188 1143 824.253906 1146.488281 824.390625 C 1149.945312 824.523438 1153.410156 824.660156 1157.226562 824.832031 C 1160.734375 824.992188 1163.445312 827.964844 1163.285156 831.46875 C 1163.132812 834.875 1160.320312 837.53125 1156.945312 837.53125 Z M 1156.945312 837.53125 " fill-opacity="1" fill-rule="nonzero"/><path fill="#552d2d" d="M 1157.851562 884.441406 C 1157.59375 884.441406 1157.339844 884.425781 1157.082031 884.394531 C 1153.890625 884.011719 1150.316406 883.902344 1146.535156 883.789062 C 1142.636719 883.671875 1138.601562 883.550781 1134.847656 883.097656 C 1131.363281 882.675781 1128.878906 879.511719 1129.300781 876.03125 C 1129.714844 872.546875 1132.898438 870.054688 1136.367188 870.484375 C 1139.558594 870.867188 1143.132812 870.972656 1146.914062 871.089844 C 1150.816406 871.207031 1154.847656 871.328125 1158.601562 871.777344 C 1162.085938 872.199219 1164.570312 875.363281 1164.148438 878.847656 C 1163.761719 882.070312 1161.019531 884.441406 1157.851562 884.441406 Z M 1157.851562 884.441406 " fill-opacity="1" fill-rule="nonzero"/><path fill="#552d2d" d="M 1180.269531 927.089844 C 1180.214844 927.089844 1180.167969 927.089844 1180.113281 927.085938 L 1136.121094 926.03125 C 1132.613281 925.949219 1129.835938 923.035156 1129.921875 919.527344 C 1130.003906 916.019531 1133 913.25 1136.425781 913.328125 L 1180.417969 914.386719 C 1183.925781 914.46875 1186.703125 917.382812 1186.617188 920.886719 C 1186.535156 924.34375 1183.707031 927.089844 1180.269531 927.089844 Z M 1180.269531 927.089844 " fill-opacity="1" fill-rule="nonzero"/><path fill="#552d2d" d="M 1138.609375 968.304688 C 1135.191406 968.304688 1132.367188 965.585938 1132.261719 962.148438 C 1132.152344 958.640625 1134.90625 955.710938 1138.414062 955.601562 L 1155.328125 955.074219 C 1158.847656 955.003906 1161.769531 957.722656 1161.878906 961.226562 C 1161.984375 964.734375 1159.230469 967.664062 1155.726562 967.773438 L 1138.8125 968.300781 C 1138.742188 968.300781 1138.675781 968.304688 1138.609375 968.304688 Z M 1138.609375 968.304688 " fill-opacity="1" fill-rule="nonzero"/><path fill="#fffcf6" d="M 1067.875 894.570312 C 1026.503906 929.066406 996.257812 937.765625 972.679688 941.453125 C 1005.726562 962.417969 1032.289062 992.210938 1050.144531 1028.992188 C 1012.78125 1080.890625 925.785156 1071.9375 886.003906 1121.992188 C 880.285156 1129.234375 875.265625 1137.8125 866.75 1141.371094 C 854.039062 1146.644531 840.3125 1138.320312 827.414062 1133.554688 C 798.6875 1122.882812 766.789062 1129.742188 736.667969 1135.398438 C 629.335938 1155.535156 518.703125 1158.078125 410.542969 1142.957031 C 332.316406 1116.722656 254.15625 1110.113281 178.40625 1120.976562 C 169 1122.3125 159.152344 1123.898438 150.128906 1120.914062 C 138.183594 1116.847656 130.300781 1105.792969 123.25 1095.3125 C 112.636719 1079.496094 101.894531 1063.550781 95.035156 1045.761719 C 88.171875 1028.039062 85.4375 1008.027344 91.21875 989.859375 C 95.734375 975.566406 105.136719 963.433594 114.414062 951.679688 C 120.707031 943.613281 127.25 935.480469 134.113281 927.667969 C 199.949219 824.117188 315.289062 578.207031 339.945312 546.382812 C 381.949219 492.003906 415.246094 473.832031 450.832031 447.089844 C 484.195312 416.152344 542.277344 392.582031 585.871094 375.6875 C 581.042969 347.289062 593.496094 316.605469 616.816406 299.519531 C 640.078125 282.367188 673.183594 279.632812 699.046875 292.59375 C 724.847656 305.550781 735.078125 335.15625 735.140625 363.996094 C 761.449219 365.773438 792.652344 374.796875 818.007812 382.039062 C 877.425781 394.488281 932.519531 423.011719 951.835938 438.324219 C 1017.101562 490.035156 1033.558594 474.46875 1064.507812 654.058594 C 1086.492188 781.746094 1098.3125 825.070312 1067.875 894.570312 Z M 1067.875 894.570312 " fill-opacity="1" fill-rule="nonzero"/><path fill="#fffcf6" d="M 157.152344 885.148438 C 131.742188 931.324219 101.636719 974.914062 67.457031 1015.03125 C 66.234375 988.992188 54.964844 963.546875 36.496094 945.140625 C 75.6875 924.5 114.878906 903.859375 157.152344 885.148438 Z M 157.152344 885.148438 " fill-opacity="1" fill-rule="nonzero"/><path fill="#ffbd91" d="M 57.847656 934.738281 C 73.082031 948.859375 82.429688 969.007812 83.308594 989.628906 C 71.023438 1007.632812 69.328125 1019.585938 57.042969 1037.585938 C 55.605469 1039.699219 55.984375 1055.164062 53.492188 1055.816406 C 50.84375 1056.515625 35.488281 1048 33.203125 1046.5 C 13.605469 1033.621094 5.46875 1007.425781 10.800781 984.773438 C 16.132812 962.117188 33.132812 943.277344 57.847656 934.738281 Z M 57.847656 934.738281 " fill-opacity="1" fill-rule="nonzero"/><path fill="#ffbd91" d="M 1043.5 1013.332031 C 1020.8125 1021.175781 999.414062 1033.050781 981.734375 1049.148438 C 975.773438 1054.574219 970.171875 1060.5625 966.429688 1067.667969 C 962.683594 1074.777344 960.921875 1083.144531 962.878906 1090.917969 C 964.84375 1098.71875 970.464844 1105.363281 977.449219 1109.480469 C 984.4375 1113.59375 992.6875 1115.320312 1000.820312 1115.332031 C 1024.824219 1115.359375 1048.046875 1099.539062 1056.570312 1077.355469 C 1065.09375 1055.171875 1058.347656 1028.101562 1043.5 1013.332031 Z M 1043.5 1013.332031 " fill-opacity="1" fill-rule="nonzero"/><path fill="#fffcf6" d="M 1035.253906 523.171875 C 1051.039062 509.003906 1058.398438 486.140625 1053.828125 465.476562 C 1049.261719 444.816406 1032.941406 427.15625 1012.640625 420.910156 C 992.339844 414.667969 968.855469 420.082031 953.367188 434.574219 C 983.613281 460.160156 1010.722656 489.421875 1035.253906 523.171875 Z M 1035.253906 523.171875 " fill-opacity="1" fill-rule="nonzero"/><path fill="#f09a61" d="M 1085.230469 763.5625 C 1080.265625 782.335938 1058.203125 792.503906 1039.402344 789.636719 C 1020.601562 786.769531 1004.867188 774.164062 991.515625 760.59375 C 978.164062 747.027344 966.007812 731.867188 950.03125 721.601562 C 914.246094 698.605469 867.625 704.648438 825.496094 712.546875 C 783.367188 720.445312 737.753906 728.964844 699.839844 709.710938 C 669.046875 694.074219 649.445312 662.996094 623.898438 639.65625 C 581.167969 600.621094 371.539062 513.082031 151.941406 890.003906 C 320.53125 477.296875 461.78125 417.359375 595.359375 377.621094 C 579.976562 355.472656 583.015625 322.988281 601.023438 302.886719 C 619.03125 282.78125 649.796875 275.855469 675.355469 284.65625 C 700.914062 293.453125 720.40625 316.742188 726.3125 343.027344 C 727.785156 349.570312 728.648438 356.640625 732.960938 361.789062 C 738.417969 368.300781 747.683594 369.800781 756.097656 371.128906 C 824.484375 381.898438 888.921875 409.324219 953.515625 436.453125 C 956.703125 424.652344 969.402344 417.808594 981.523438 415.914062 C 1007.589844 411.84375 1035.5 425.980469 1047.535156 449.355469 C 1059.566406 472.730469 1054.808594 503.5625 1036.574219 521.839844 C 1061.910156 601.097656 1057.226562 687.503906 1085.230469 763.5625 Z M 1085.230469 763.5625 " fill-opacity="1" fill-rule="nonzero"/><path fill="#552d2d" d="M 769.347656 662.023438 C 757.183594 664.339844 744.238281 667.058594 735.496094 675.792969 C 732.445312 678.84375 729.941406 682.933594 730.453125 687.207031 C 730.988281 691.675781 734.78125 695.222656 739.015625 696.792969 C 743.25 698.359375 747.890625 698.3125 752.410156 698.175781 C 762.273438 697.871094 772.15625 697.21875 781.867188 695.464844 C 787.472656 694.457031 793.164062 693.011719 797.800781 689.714844 C 802.4375 686.414062 805.84375 680.894531 805.199219 675.257812 C 804.496094 669.082031 799.117188 664.246094 793.210938 662.25 C 787.300781 660.25 780.78125 659.847656 769.347656 662.023438 Z M 769.347656 662.023438 " fill-opacity="1" fill-rule="nonzero"/><path fill="#552d2d" d="M 1044.453125 728.652344 C 1052.765625 737.785156 1061.460938 747.710938 1063.160156 759.925781 C 1063.753906 764.1875 1063.277344 768.953125 1060.285156 772.0625 C 1057.15625 775.308594 1051.984375 775.871094 1047.652344 774.585938 C 1043.324219 773.300781 1039.644531 770.484375 1036.121094 767.667969 C 1028.425781 761.515625 1020.929688 755.074219 1014.234375 747.855469 C 1010.367188 743.691406 1006.695312 739.128906 1004.988281 733.71875 C 1003.28125 728.308594 1003.898438 721.855469 1007.820312 717.742188 C 1012.117188 713.234375 1019.335938 712.589844 1025.261719 714.535156 C 1031.191406 716.480469 1036.640625 720.0625 1044.453125 728.652344 Z M 1044.453125 728.652344 " fill-opacity="1" fill-rule="nonzero"/><path fill="#f8c7d0" d="M 651.910156 317.421875 C 675.867188 328.703125 693.519531 352.34375 697.472656 378.4375 C 698.683594 386.429688 698.210938 395.722656 692.074219 401.019531 C 686.324219 405.984375 677.667969 405.582031 670.316406 403.628906 C 649.742188 398.15625 632.292969 382.195312 625.070312 362.246094 C 621.371094 352.027344 620.371094 340.265625 625.25 330.546875 C 630.132812 320.832031 642.542969 313.011719 651.910156 317.421875 Z M 651.910156 317.421875 " fill-opacity="1" fill-rule="nonzero"/><path fill="#f8c7d0" d="M 714.546875 704.527344 C 714.605469 705.636719 714.613281 706.75 714.5625 707.863281 C 714.515625 708.972656 714.410156 710.078125 714.25 711.179688 C 714.09375 712.28125 713.882812 713.375 713.613281 714.457031 C 713.347656 715.535156 713.03125 716.601562 712.660156 717.652344 C 712.289062 718.699219 711.867188 719.730469 711.394531 720.738281 C 710.921875 721.746094 710.398438 722.730469 709.828125 723.6875 C 709.261719 724.644531 708.644531 725.574219 707.984375 726.46875 C 707.324219 727.367188 706.617188 728.230469 705.871094 729.058594 C 705.125 729.886719 704.339844 730.675781 703.515625 731.429688 C 702.691406 732.179688 701.832031 732.890625 700.941406 733.558594 C 700.046875 734.226562 699.121094 734.847656 698.164062 735.425781 C 697.210938 736.003906 696.226562 736.53125 695.21875 737.015625 C 694.210938 737.496094 693.183594 737.925781 692.132812 738.304688 C 691.082031 738.6875 690.015625 739.015625 688.933594 739.292969 C 687.851562 739.566406 686.757812 739.789062 685.652344 739.960938 C 684.550781 740.128906 683.4375 740.246094 682.324219 740.304688 C 681.207031 740.367188 680.089844 740.371094 678.976562 740.324219 C 677.859375 740.273438 676.746094 740.171875 675.640625 740.015625 C 674.535156 739.855469 673.441406 739.644531 672.355469 739.382812 C 671.269531 739.117188 670.199219 738.800781 669.144531 738.429688 C 668.089844 738.0625 667.058594 737.640625 666.046875 737.171875 C 665.035156 736.703125 664.046875 736.183594 663.085938 735.617188 C 662.125 735.050781 661.191406 734.4375 660.292969 733.777344 C 659.390625 733.121094 658.523438 732.421875 657.691406 731.679688 C 656.859375 730.933594 656.066406 730.152344 655.3125 729.332031 C 654.558594 728.511719 653.847656 727.65625 653.175781 726.765625 C 652.507812 725.878906 651.882812 724.957031 651.300781 724.003906 C 650.722656 723.054688 650.191406 722.078125 649.710938 721.074219 C 649.226562 720.070312 648.792969 719.046875 648.414062 718 C 648.03125 716.953125 647.699219 715.890625 647.425781 714.816406 C 647.148438 713.738281 646.925781 712.648438 646.753906 711.546875 C 646.585938 710.449219 646.46875 709.34375 646.410156 708.230469 C 646.347656 707.121094 646.34375 706.007812 646.394531 704.898438 C 646.441406 703.785156 646.546875 702.679688 646.703125 701.578125 C 646.863281 700.476562 647.074219 699.382812 647.339844 698.304688 C 647.605469 697.222656 647.925781 696.15625 648.296875 695.109375 C 648.667969 694.058594 649.089844 693.027344 649.5625 692.019531 C 650.035156 691.011719 650.554688 690.027344 651.125 689.070312 C 651.695312 688.113281 652.3125 687.1875 652.972656 686.289062 C 653.632812 685.390625 654.335938 684.527344 655.082031 683.699219 C 655.828125 682.871094 656.613281 682.082031 657.4375 681.328125 C 658.261719 680.578125 659.121094 679.867188 660.015625 679.199219 C 660.910156 678.53125 661.835938 677.910156 662.789062 677.332031 C 663.746094 676.753906 664.726562 676.226562 665.734375 675.746094 C 666.742188 675.265625 667.773438 674.832031 668.824219 674.453125 C 669.871094 674.070312 670.9375 673.742188 672.019531 673.46875 C 673.105469 673.191406 674.199219 672.96875 675.300781 672.800781 C 676.40625 672.628906 677.515625 672.515625 678.632812 672.453125 C 679.75 672.394531 680.863281 672.386719 681.980469 672.4375 C 683.097656 672.484375 684.207031 672.585938 685.3125 672.746094 C 686.421875 672.902344 687.515625 673.113281 688.601562 673.378906 C 689.6875 673.640625 690.757812 673.957031 691.808594 674.328125 C 692.863281 674.695312 693.898438 675.117188 694.910156 675.585938 C 695.921875 676.058594 696.910156 676.574219 697.871094 677.144531 C 698.832031 677.710938 699.761719 678.320312 700.664062 678.980469 C 701.566406 679.636719 702.429688 680.339844 703.261719 681.082031 C 704.09375 681.824219 704.886719 682.605469 705.640625 683.425781 C 706.398438 684.246094 707.109375 685.101562 707.777344 685.992188 C 708.449219 686.882812 709.074219 687.800781 709.652344 688.753906 C 710.234375 689.707031 710.765625 690.683594 711.246094 691.6875 C 711.730469 692.6875 712.160156 693.714844 712.542969 694.757812 C 712.925781 695.804688 713.253906 696.867188 713.53125 697.945312 C 713.808594 699.023438 714.03125 700.113281 714.203125 701.210938 C 714.371094 702.3125 714.484375 703.417969 714.546875 704.527344 Z M 714.546875 704.527344 " fill-opacity="1" fill-rule="nonzero"/><path fill="#f8c7d0" d="M 945.816406 718.582031 C 938.753906 709.460938 928.585938 702.765625 917.390625 699.871094 C 906.191406 696.976562 894.035156 697.894531 883.402344 702.441406 C 886.472656 710.308594 889.601562 718.289062 894.722656 725.011719 C 899.84375 731.734375 907.308594 737.15625 915.753906 737.886719 C 927.902344 738.933594 938.574219 730.476562 945.816406 718.582031 Z M 945.816406 718.582031 " fill-opacity="1" fill-rule="nonzero"/><path fill="#ffbd91" d="M 818.507812 469.085938 C 815.832031 469.085938 813.34375 467.382812 812.464844 464.703125 C 806.847656 447.519531 798.664062 431.582031 788.152344 417.332031 C 786.066406 414.511719 786.667969 410.53125 789.492188 408.449219 C 792.316406 406.363281 796.300781 406.96875 798.378906 409.792969 C 809.699219 425.132812 818.503906 442.28125 824.546875 460.757812 C 825.636719 464.089844 823.820312 467.679688 820.484375 468.769531 C 819.824219 468.980469 819.160156 469.085938 818.507812 469.085938 Z M 818.507812 469.085938 " fill-opacity="1" fill-rule="nonzero"/><path fill="#ffbd91" d="M 897.324219 476.070312 C 895.226562 476.070312 893.171875 475.027344 891.960938 473.125 L 871.621094 441.203125 C 869.738281 438.242188 870.609375 434.316406 873.570312 432.433594 C 876.535156 430.546875 880.457031 431.421875 882.34375 434.378906 L 902.679688 466.300781 C 904.566406 469.261719 903.691406 473.1875 900.734375 475.074219 C 899.675781 475.746094 898.492188 476.070312 897.324219 476.070312 Z M 897.324219 476.070312 " fill-opacity="1" fill-rule="nonzero"/><path fill="#ffbd91" d="M 857.742188 545.976562 C 854.992188 545.976562 852.457031 544.179688 851.644531 541.40625 L 842.382812 509.75 C 841.398438 506.382812 843.328125 502.851562 846.699219 501.867188 C 850.082031 500.878906 853.601562 502.816406 854.582031 506.179688 L 863.84375 537.839844 C 864.828125 541.207031 862.898438 544.734375 859.53125 545.71875 C 858.933594 545.894531 858.332031 545.976562 857.742188 545.976562 Z M 857.742188 545.976562 " fill-opacity="1" fill-rule="nonzero"/><path fill="#ffbd91" d="M 963.644531 542.5 C 960.53125 542.5 957.808594 540.210938 957.359375 537.039062 C 955.542969 524.207031 951.097656 512.597656 944.152344 502.539062 C 942.15625 499.652344 942.882812 495.695312 945.769531 493.703125 C 948.660156 491.707031 952.617188 492.433594 954.609375 495.320312 C 962.6875 507.019531 967.847656 520.453125 969.945312 535.257812 C 970.4375 538.730469 968.019531 541.945312 964.542969 542.4375 C 964.242188 542.480469 963.941406 542.5 963.644531 542.5 Z M 963.644531 542.5 " fill-opacity="1" fill-rule="nonzero"/><path fill="#ffbd91" d="M 903.035156 600.667969 C 902.65625 600.667969 902.269531 600.632812 901.878906 600.5625 C 898.429688 599.925781 896.144531 596.617188 896.78125 593.164062 C 899.480469 578.449219 899.140625 564.550781 895.769531 551.847656 C 894.871094 548.457031 896.894531 544.976562 900.285156 544.078125 C 903.695312 543.175781 907.15625 545.203125 908.058594 548.589844 C 911.914062 563.117188 912.320312 578.886719 909.277344 595.457031 C 908.714844 598.519531 906.046875 600.667969 903.035156 600.667969 Z M 903.035156 600.667969 " fill-opacity="1" fill-rule="nonzero"/><path fill="#552d2d" d="M 53.492188 1062.171875 C 52.625 1062.171875 51.746094 1061.992188 50.898438 1061.617188 C 25.964844 1050.476562 10.480469 1035.4375 4.871094 1016.917969 C 0.00390625 1000.832031 3.179688 982.15625 13.578125 965.671875 C 29.269531 940.808594 55.277344 925.820312 76.183594 915.539062 L 87.320312 910.109375 C 108.941406 899.605469 135.851562 886.535156 153.511719 874.195312 C 156.390625 872.183594 160.347656 872.886719 162.363281 875.761719 C 164.371094 878.636719 163.667969 882.597656 160.792969 884.609375 C 142.3125 897.523438 114.898438 910.839844 92.875 921.535156 L 81.792969 926.941406 C 62.390625 936.484375 38.320312 950.28125 24.328125 972.453125 C 20.335938 978.773438 11.640625 995.40625 17.035156 1013.234375 C 21.527344 1028.074219 34.664062 1040.449219 56.089844 1050.019531 C 59.289062 1051.449219 60.726562 1055.207031 59.296875 1058.410156 C 58.242188 1060.773438 55.921875 1062.171875 53.492188 1062.171875 Z M 53.492188 1062.171875 " fill-opacity="1" fill-rule="nonzero"/><path fill="#552d2d" d="M 1012.136719 1123.226562 C 997.542969 1123.226562 984.109375 1116.863281 971.035156 1110.667969 C 968.546875 1109.488281 966.054688 1108.308594 963.558594 1107.175781 C 960.367188 1105.726562 958.953125 1101.960938 960.402344 1098.765625 C 961.847656 1095.570312 965.609375 1094.15625 968.816406 1095.605469 C 971.375 1096.769531 973.925781 1097.976562 976.480469 1099.1875 C 991.289062 1106.203125 1005.277344 1112.832031 1019.714844 1109.71875 C 1035.027344 1106.414062 1046.703125 1093.800781 1050.1875 1076.804688 C 1057.945312 1038.929688 1026.714844 990.914062 966.652344 948.363281 C 963.785156 946.335938 963.109375 942.367188 965.140625 939.507812 C 967.164062 936.644531 971.136719 935.964844 974 937.996094 C 1066.683594 1003.65625 1066.863281 1058.722656 1062.636719 1079.351562 C 1058.128906 1101.359375 1042.710938 1117.753906 1022.398438 1122.136719 C 1018.910156 1122.890625 1015.492188 1123.226562 1012.136719 1123.226562 Z M 1012.136719 1123.226562 " fill-opacity="1" fill-rule="nonzero"/><path fill="#552d2d" d="M 1033.433594 531.316406 C 1031.808594 531.316406 1030.179688 530.699219 1028.9375 529.453125 C 1026.457031 526.972656 1026.457031 522.949219 1028.941406 520.46875 C 1046.839844 502.597656 1052.222656 479.21875 1043.347656 457.941406 C 1034.382812 436.453125 1013.921875 422.609375 990.570312 422.761719 C 975.542969 422.835938 962.230469 428.285156 951.003906 438.953125 C 948.46875 441.371094 944.441406 441.273438 942.023438 438.726562 C 939.601562 436.183594 939.707031 432.164062 942.25 429.746094 C 955.898438 416.773438 972.136719 410.148438 990.507812 410.058594 C 1018.527344 409.957031 1044.125 426.789062 1055.078125 453.050781 C 1066.003906 479.253906 1059.59375 507.816406 1037.925781 529.460938 C 1036.6875 530.699219 1035.058594 531.316406 1033.433594 531.316406 Z M 1033.433594 531.316406 " fill-opacity="1" fill-rule="nonzero"/><path fill="#552d2d" d="M 649.761719 439.984375 C 648.660156 439.984375 647.542969 439.695312 646.53125 439.09375 C 619.34375 422.984375 600.089844 404.015625 589.304688 382.714844 C 575.621094 355.671875 576.539062 324.085938 591.636719 302.238281 C 606.261719 281.082031 634.3125 269.410156 661.496094 273.214844 C 686.253906 276.679688 709.777344 292.363281 724.429688 315.175781 C 737.328125 335.253906 743.730469 361.148438 742.457031 388.082031 C 742.289062 391.589844 739.347656 394.335938 735.808594 394.128906 C 732.304688 393.964844 729.597656 390.988281 729.761719 387.484375 C 730.914062 363.160156 725.222656 339.917969 713.738281 322.039062 C 701.058594 302.304688 680.871094 288.753906 659.734375 285.796875 C 637.238281 282.648438 614.0625 292.15625 602.09375 309.460938 C 589.605469 327.53125 589.035156 354.03125 600.648438 376.976562 C 610.320312 396.089844 627.933594 413.308594 653.007812 428.164062 C 656.027344 429.953125 657.027344 433.847656 655.234375 436.867188 C 654.046875 438.871094 651.933594 439.984375 649.761719 439.984375 Z M 649.761719 439.984375 " fill-opacity="1" fill-rule="nonzero"/><path fill="#552d2d" d="M 699.324219 398.230469 C 699.257812 398.230469 699.191406 398.230469 699.125 398.226562 C 695.617188 398.117188 692.863281 395.1875 692.96875 391.679688 C 693.894531 361.894531 674.304688 332.46875 646.394531 321.710938 C 643.121094 320.449219 641.488281 316.769531 642.753906 313.496094 C 644.015625 310.222656 647.707031 308.59375 650.96875 309.855469 C 683.75 322.496094 706.757812 357.074219 705.671875 392.074219 C 705.566406 395.515625 702.742188 398.230469 699.324219 398.230469 Z M 699.324219 398.230469 " fill-opacity="1" fill-rule="nonzero"/><path fill="#552d2d" d="M 955.683594 947.035156 C 953.390625 947.035156 951.097656 946.984375 948.789062 946.886719 C 945.28125 946.734375 942.558594 943.773438 942.710938 940.269531 C 942.863281 936.761719 945.835938 934.035156 949.332031 934.195312 C 1000.308594 936.386719 1048.238281 912.242188 1068.457031 874.125 C 1080.824219 850.808594 1084.527344 820.59375 1079.464844 784.324219 C 1077.113281 767.488281 1073.191406 750.492188 1069.402344 734.0625 C 1066.125 719.867188 1062.742188 705.191406 1060.320312 690.484375 C 1057.640625 674.1875 1056.078125 657.496094 1054.566406 641.351562 C 1051.804688 611.78125 1048.945312 581.203125 1039.027344 553.191406 C 1020.398438 500.566406 975.792969 454.445312 913.425781 423.332031 C 859.363281 396.355469 798.839844 383.742188 740.3125 371.542969 L 733.84375 370.195312 C 730.410156 369.480469 728.207031 366.113281 728.921875 362.679688 C 729.640625 359.246094 733.007812 357.054688 736.445312 357.757812 L 742.90625 359.105469 C 802.226562 371.46875 863.566406 384.253906 919.105469 411.964844 C 984.429688 444.554688 1031.277344 493.207031 1051.011719 548.953125 C 1061.453125 578.449219 1064.382812 609.828125 1067.222656 640.171875 C 1068.710938 656.09375 1070.25 672.5625 1072.863281 688.421875 C 1075.21875 702.730469 1078.554688 717.207031 1081.785156 731.207031 C 1085.636719 747.90625 1089.621094 765.175781 1092.050781 782.566406 C 1097.492188 821.542969 1093.332031 854.351562 1079.683594 880.078125 C 1058.148438 920.679688 1008.90625 947.03125 955.683594 947.035156 Z M 955.683594 947.035156 " fill-opacity="1" fill-rule="nonzero"/><path fill="#552d2d" d="M 918.46875 743.914062 C 917.640625 743.914062 916.800781 743.871094 915.945312 743.789062 C 900.824219 742.300781 888.804688 727.320312 879.042969 712.863281 C 877.078125 709.957031 877.847656 706.007812 880.753906 704.042969 C 883.660156 702.082031 887.613281 702.847656 889.574219 705.753906 C 897.214844 717.0625 907.253906 730.167969 917.195312 731.144531 C 920.792969 731.496094 925.070312 730.203125 929.128906 727.484375 C 933.269531 724.714844 936.8125 720.917969 940.566406 716.898438 C 942.964844 714.328125 946.992188 714.199219 949.546875 716.589844 C 952.113281 718.980469 952.253906 723.003906 949.859375 725.566406 C 945.777344 729.9375 941.5625 734.457031 936.203125 738.042969 C 932.066406 740.808594 925.796875 743.914062 918.46875 743.914062 Z M 918.46875 743.914062 " fill-opacity="1" fill-rule="nonzero"/><path fill="#552d2d" d="M 889.28125 773.652344 C 886.761719 773.652344 884.382812 772.152344 883.382812 769.675781 C 882.070312 766.425781 883.640625 762.722656 886.898438 761.410156 C 895.707031 757.855469 902.527344 748.90625 907.167969 734.816406 C 908.261719 731.484375 911.851562 729.667969 915.191406 730.765625 C 918.523438 731.863281 920.335938 735.457031 919.238281 738.789062 C 913.375 756.597656 904.09375 768.167969 891.65625 773.1875 C 890.878906 773.503906 890.070312 773.652344 889.28125 773.652344 Z M 889.28125 773.652344 " fill-opacity="1" fill-rule="nonzero"/><path fill="#e6edff" d="M 925.253906 1089.425781 C 939.632812 1109.480469 964.875 1120.855469 989.527344 1119.566406 C 999.613281 1127.691406 1006.707031 1134.859375 1014.8125 1139.945312 C 1022.917969 1145.03125 1032.042969 1148.238281 1041.148438 1151.171875 C 1066.257812 1159.257812 1092.121094 1165.636719 1118.472656 1166.839844 C 1144.820312 1168.046875 1171.796875 1163.871094 1195.246094 1151.800781 C 1218.699219 1139.730469 1238.347656 1119.292969 1246.621094 1094.253906 C 1253.125 1065.8125 1256.953125 1038.78125 1258.421875 1011.621094 C 1259.007812 1000.792969 1259.160156 989.589844 1255.121094 979.523438 C 1250.371094 967.699219 1240.351562 958.789062 1229.78125 951.667969 C 1208.542969 937.355469 1183.679688 928.472656 1156.691406 931.464844 C 1103.8125 924.75 1048.953125 934.527344 1001.65625 959.097656 C 996.375 961.839844 991.09375 964.835938 987.058594 969.203125 C 983.019531 973.570312 980.347656 979.566406 981.945312 987.8125 C 957.550781 984.050781 931.765625 997.644531 920.066406 1019.375 C 908.371094 1041.101562 910.871094 1069.371094 925.253906 1089.425781 Z M 943.574219 1040.90625 C 945.113281 1036.269531 947.496094 1031.820312 951.066406 1028.480469 C 956.832031 1023.085938 965.242188 1021.117188 973.09375 1021.988281 C 980.945312 1022.855469 989.71875 1024.144531 993.914062 1028.4375 C 1001.730469 1036.433594 1005.566406 1048.246094 1003.574219 1059.246094 C 1001.585938 1070.25 993.6875 1080.085938 983.238281 1084.074219 C 972.789062 1088.058594 960.148438 1085.882812 951.871094 1078.363281 C 941.855469 1069.265625 939.308594 1053.742188 943.574219 1040.90625 Z M 943.574219 1040.90625 " fill-opacity="1" fill-rule="nonzero"/><path fill="#f2cfac" d="M 1224.605469 984.25 C 1224.625 984.765625 1224.597656 985.285156 1224.53125 985.804688 C 1224.464844 986.324219 1224.355469 986.84375 1224.207031 987.367188 C 1224.054688 987.886719 1223.863281 988.40625 1223.628906 988.929688 C 1223.390625 989.449219 1223.117188 989.96875 1222.796875 990.488281 C 1222.480469 991.007812 1222.121094 991.523438 1221.71875 992.039062 C 1221.316406 992.554688 1220.875 993.070312 1220.394531 993.582031 C 1219.910156 994.09375 1219.390625 994.605469 1218.824219 995.113281 C 1218.261719 995.621094 1217.660156 996.125 1217.019531 996.625 C 1216.375 997.125 1215.695312 997.621094 1214.976562 998.113281 C 1214.257812 998.609375 1213.5 999.097656 1212.703125 999.582031 C 1211.90625 1000.066406 1211.074219 1000.542969 1210.207031 1001.019531 C 1209.335938 1001.492188 1208.429688 1001.960938 1207.488281 1002.425781 C 1206.546875 1002.886719 1205.570312 1003.34375 1204.5625 1003.796875 C 1203.550781 1004.246094 1202.507812 1004.691406 1201.429688 1005.128906 C 1200.351562 1005.566406 1199.238281 1005.996094 1198.097656 1006.421875 C 1196.957031 1006.84375 1195.78125 1007.257812 1194.578125 1007.667969 C 1193.375 1008.074219 1192.140625 1008.476562 1190.875 1008.867188 C 1189.613281 1009.257812 1188.320312 1009.640625 1187.003906 1010.015625 C 1185.683594 1010.386719 1184.339844 1010.753906 1182.96875 1011.109375 C 1181.59375 1011.464844 1180.199219 1011.8125 1178.777344 1012.148438 C 1177.355469 1012.484375 1175.914062 1012.8125 1174.445312 1013.128906 C 1172.980469 1013.445312 1171.492188 1013.753906 1169.980469 1014.050781 C 1168.472656 1014.34375 1166.945312 1014.632812 1165.394531 1014.90625 C 1163.847656 1015.179688 1162.28125 1015.445312 1160.699219 1015.699219 C 1159.117188 1015.949219 1157.515625 1016.191406 1155.902344 1016.421875 C 1154.289062 1016.652344 1152.660156 1016.871094 1151.019531 1017.078125 C 1149.375 1017.285156 1147.722656 1017.480469 1146.058594 1017.664062 C 1144.394531 1017.847656 1142.71875 1018.019531 1141.035156 1018.175781 C 1139.351562 1018.335938 1137.65625 1018.484375 1135.957031 1018.617188 C 1134.257812 1018.753906 1132.554688 1018.875 1130.84375 1018.984375 C 1129.132812 1019.09375 1127.417969 1019.191406 1125.699219 1019.277344 C 1123.980469 1019.359375 1122.261719 1019.433594 1120.539062 1019.492188 C 1118.820312 1019.550781 1117.097656 1019.597656 1115.378906 1019.632812 C 1113.660156 1019.667969 1111.941406 1019.6875 1110.226562 1019.695312 C 1108.511719 1019.703125 1106.804688 1019.699219 1105.097656 1019.683594 C 1103.394531 1019.664062 1101.695312 1019.636719 1100.003906 1019.59375 C 1098.3125 1019.550781 1096.628906 1019.496094 1094.957031 1019.425781 C 1093.28125 1019.359375 1091.621094 1019.277344 1089.96875 1019.183594 C 1088.316406 1019.089844 1086.675781 1018.984375 1085.050781 1018.867188 C 1083.421875 1018.75 1081.8125 1018.617188 1080.214844 1018.476562 C 1078.617188 1018.332031 1077.039062 1018.175781 1075.476562 1018.007812 C 1073.910156 1017.839844 1072.367188 1017.660156 1070.839844 1017.46875 C 1069.3125 1017.277344 1067.808594 1017.074219 1066.324219 1016.859375 C 1064.835938 1016.644531 1063.375 1016.417969 1061.933594 1016.179688 C 1060.492188 1015.941406 1059.074219 1015.695312 1057.683594 1015.433594 C 1056.289062 1015.171875 1054.921875 1014.902344 1053.582031 1014.617188 C 1052.238281 1014.335938 1050.925781 1014.042969 1049.636719 1013.738281 C 1048.351562 1013.4375 1047.09375 1013.125 1045.863281 1012.800781 C 1044.632812 1012.476562 1043.433594 1012.140625 1042.265625 1011.796875 C 1041.097656 1011.453125 1039.960938 1011.101562 1038.855469 1010.738281 C 1037.746094 1010.378906 1036.675781 1010.007812 1035.636719 1009.625 C 1034.597656 1009.246094 1033.589844 1008.855469 1032.621094 1008.460938 C 1031.648438 1008.0625 1030.714844 1007.65625 1029.8125 1007.246094 C 1028.914062 1006.832031 1028.050781 1006.410156 1027.222656 1005.980469 C 1026.394531 1005.554688 1025.605469 1005.117188 1024.855469 1004.675781 C 1024.101562 1004.234375 1023.390625 1003.785156 1022.714844 1003.328125 C 1022.039062 1002.875 1021.402344 1002.414062 1020.804688 1001.945312 C 1020.210938 1001.480469 1019.652344 1001.007812 1019.136719 1000.527344 C 1018.621094 1000.050781 1018.144531 999.566406 1017.707031 999.082031 C 1017.273438 998.59375 1016.878906 998.101562 1016.523438 997.605469 C 1016.171875 997.109375 1015.859375 996.609375 1015.589844 996.105469 C 1015.320312 995.605469 1015.089844 995.097656 1014.90625 994.589844 C 1014.71875 994.078125 1014.574219 993.570312 1014.472656 993.054688 C 1014.371094 992.539062 1014.308594 992.023438 1014.292969 991.507812 C 1014.273438 990.992188 1014.296875 990.472656 1014.363281 989.953125 C 1014.429688 989.433594 1014.539062 988.914062 1014.691406 988.390625 C 1014.839844 987.871094 1015.035156 987.351562 1015.269531 986.828125 C 1015.503906 986.308594 1015.78125 985.789062 1016.097656 985.269531 C 1016.417969 984.75 1016.777344 984.234375 1017.175781 983.71875 C 1017.578125 983.199219 1018.019531 982.6875 1018.503906 982.175781 C 1018.984375 981.660156 1019.507812 981.152344 1020.070312 980.644531 C 1020.632812 980.136719 1021.234375 979.632812 1021.878906 979.132812 C 1022.519531 978.632812 1023.199219 978.136719 1023.921875 977.640625 C 1024.640625 977.148438 1025.398438 976.660156 1026.195312 976.175781 C 1026.988281 975.691406 1027.820312 975.210938 1028.691406 974.738281 C 1029.558594 974.265625 1030.464844 973.796875 1031.40625 973.332031 C 1032.347656 972.867188 1033.324219 972.410156 1034.335938 971.960938 C 1035.347656 971.511719 1036.390625 971.066406 1037.46875 970.628906 C 1038.546875 970.191406 1039.65625 969.761719 1040.800781 969.335938 C 1041.941406 968.914062 1043.113281 968.5 1044.320312 968.089844 C 1045.523438 967.683594 1046.757812 967.28125 1048.019531 966.890625 C 1049.285156 966.5 1050.574219 966.117188 1051.894531 965.742188 C 1053.210938 965.367188 1054.558594 965.003906 1055.929688 964.648438 C 1057.300781 964.292969 1058.699219 963.945312 1060.117188 963.609375 C 1061.539062 963.273438 1062.984375 962.945312 1064.449219 962.628906 C 1065.917969 962.3125 1067.40625 962.003906 1068.914062 961.707031 C 1070.425781 961.410156 1071.953125 961.125 1073.5 960.851562 C 1075.050781 960.578125 1076.613281 960.3125 1078.199219 960.058594 C 1079.78125 959.808594 1081.378906 959.566406 1082.996094 959.335938 C 1084.609375 959.105469 1086.238281 958.886719 1087.878906 958.679688 C 1089.519531 958.472656 1091.171875 958.277344 1092.839844 958.09375 C 1094.503906 957.910156 1096.179688 957.738281 1097.863281 957.582031 C 1099.546875 957.421875 1101.238281 957.273438 1102.9375 957.140625 C 1104.636719 957.003906 1106.34375 956.882812 1108.054688 956.773438 C 1109.765625 956.664062 1111.480469 956.566406 1113.199219 956.480469 C 1114.917969 956.394531 1116.636719 956.324219 1118.355469 956.265625 C 1120.078125 956.207031 1121.796875 956.160156 1123.519531 956.125 C 1125.238281 956.089844 1126.953125 956.070312 1128.667969 956.0625 C 1130.382812 956.054688 1132.09375 956.058594 1133.796875 956.074219 C 1135.503906 956.089844 1137.203125 956.121094 1138.894531 956.164062 C 1140.585938 956.207031 1142.265625 956.261719 1143.941406 956.332031 C 1145.613281 956.398438 1147.277344 956.480469 1148.929688 956.574219 C 1150.582031 956.664062 1152.21875 956.773438 1153.847656 956.890625 C 1155.472656 957.007812 1157.085938 957.140625 1158.679688 957.28125 C 1160.277344 957.425781 1161.859375 957.582031 1163.421875 957.75 C 1164.984375 957.914062 1166.53125 958.09375 1168.054688 958.285156 C 1169.582031 958.480469 1171.089844 958.683594 1172.574219 958.898438 C 1174.058594 959.113281 1175.523438 959.339844 1176.960938 959.578125 C 1178.402344 959.816406 1179.820312 960.0625 1181.214844 960.324219 C 1182.605469 960.585938 1183.972656 960.855469 1185.316406 961.140625 C 1186.65625 961.421875 1187.972656 961.714844 1189.257812 962.015625 C 1190.546875 962.320312 1191.804688 962.632812 1193.035156 962.957031 C 1194.261719 963.28125 1195.460938 963.617188 1196.632812 963.960938 C 1197.800781 964.304688 1198.9375 964.65625 1200.042969 965.019531 C 1201.148438 965.378906 1202.222656 965.75 1203.261719 966.132812 C 1204.300781 966.511719 1205.304688 966.902344 1206.277344 967.296875 C 1207.246094 967.695312 1208.183594 968.101562 1209.082031 968.511719 C 1209.984375 968.925781 1210.847656 969.347656 1211.675781 969.777344 C 1212.5 970.203125 1213.289062 970.640625 1214.042969 971.082031 C 1214.792969 971.523438 1215.507812 971.972656 1216.183594 972.429688 C 1216.859375 972.882812 1217.492188 973.34375 1218.089844 973.8125 C 1218.6875 974.277344 1219.242188 974.75 1219.761719 975.230469 C 1220.277344 975.707031 1220.753906 976.191406 1221.1875 976.675781 C 1221.625 977.164062 1222.019531 977.65625 1222.371094 978.152344 C 1222.726562 978.648438 1223.035156 979.148438 1223.308594 979.648438 C 1223.578125 980.152344 1223.804688 980.660156 1223.992188 981.167969 C 1224.179688 981.679688 1224.324219 982.1875 1224.425781 982.703125 C 1224.527344 983.21875 1224.585938 983.734375 1224.605469 984.25 Z M 1224.605469 984.25 " fill-opacity="1" fill-rule="nonzero"/><path fill="#552d2d" d="M 1108.492188 1026.089844 C 1084.402344 1026.089844 1061.957031 1023.601562 1044.277344 1018.90625 C 1020.9375 1012.707031 1008.386719 1003.238281 1007.980469 991.523438 C 1007.578125 979.8125 1019.441406 969.5 1042.300781 961.703125 C 1045.625 960.570312 1049.238281 962.347656 1050.367188 965.664062 C 1051.503906 968.984375 1049.726562 972.59375 1046.402344 973.730469 C 1028.433594 979.859375 1020.539062 986.863281 1020.683594 991.085938 C 1020.828125 995.308594 1029.191406 1001.753906 1047.542969 1006.628906 C 1067.027344 1011.804688 1092.90625 1014.136719 1120.371094 1013.179688 C 1180.6875 1011.09375 1218.652344 994.660156 1218.292969 984.257812 C 1218.199219 981.527344 1214.308594 977.066406 1203.671875 972.730469 C 1200.421875 971.40625 1198.863281 967.699219 1200.1875 964.453125 C 1201.507812 961.203125 1205.210938 959.636719 1208.46875 960.964844 C 1223.101562 966.929688 1230.679688 974.621094 1230.996094 983.824219 C 1231.863281 1008.902344 1176.222656 1023.960938 1120.8125 1025.878906 C 1116.667969 1026.019531 1112.554688 1026.089844 1108.492188 1026.089844 Z M 1108.492188 1026.089844 " fill-opacity="1" fill-rule="nonzero"/><path fill="#552d2d" d="M 1122.550781 1169.707031 C 1112.949219 1169.707031 1102.894531 1169.167969 1092.359375 1168.101562 C 1067.335938 1165.5625 1047.839844 1160.867188 1031.007812 1153.316406 C 1015.898438 1146.539062 995.195312 1133.757812 982.347656 1111.351562 C 980.605469 1108.308594 981.65625 1104.425781 984.703125 1102.679688 C 987.75 1100.933594 991.628906 1101.988281 993.375 1105.03125 C 1004.523438 1124.476562 1022.820312 1135.714844 1036.210938 1141.722656 C 1051.765625 1148.699219 1070.015625 1153.066406 1093.640625 1155.460938 C 1133.390625 1159.492188 1165.636719 1155.625 1192.203125 1143.644531 C 1194.0625 1142.800781 1195.914062 1141.90625 1197.738281 1140.960938 C 1230.074219 1124.1875 1250.667969 1090.023438 1251.476562 1051.800781 C 1251.9375 1030.277344 1252.714844 1009.574219 1253.472656 989.546875 C 1250.167969 955.117188 1190.230469 930.144531 1116.621094 932.722656 C 1044.636719 935.210938 984.726562 963.578125 985.804688 994.671875 C 985.925781 998.175781 983.179688 1001.117188 979.671875 1001.242188 C 976.09375 1001.261719 973.222656 998.617188 973.101562 995.109375 C 971.746094 955.824219 1034.589844 922.84375 1116.179688 920.023438 C 1198.214844 917.226562 1262.636719 946.78125 1266.167969 988.847656 C 1266.191406 989.105469 1266.195312 989.363281 1266.1875 989.621094 C 1265.425781 1009.722656 1264.640625 1030.511719 1264.1875 1052.070312 C 1263.273438 1094.945312 1240.054688 1133.324219 1203.589844 1152.238281 C 1201.5625 1153.289062 1199.507812 1154.285156 1197.429688 1155.222656 C 1175.953125 1164.910156 1151.269531 1169.707031 1122.550781 1169.707031 Z M 1122.550781 1169.707031 " fill-opacity="1" fill-rule="nonzero"/><path fill="#552d2d" d="M 976.003906 1092.351562 C 975.929688 1092.351562 975.859375 1092.351562 975.789062 1092.351562 C 968.679688 1092.304688 961.445312 1089.984375 954.863281 1085.644531 C 941.203125 1076.625 933.53125 1060.28125 935.765625 1044.972656 C 936.984375 1036.617188 941.410156 1028.929688 948.222656 1023.316406 C 964.140625 1010.203125 988.738281 1012.546875 1001.929688 1028.421875 C 1003.746094 1030.605469 1005.339844 1032.964844 1006.660156 1035.429688 C 1012.878906 1047.015625 1013.179688 1061.246094 1007.441406 1072.5625 C 1001.425781 1084.421875 988.8125 1092.351562 976.003906 1092.351562 Z M 956.300781 1033.121094 C 951.867188 1036.777344 949.117188 1041.507812 948.34375 1046.808594 C 946.828125 1057.175781 952.390625 1068.785156 961.867188 1075.039062 C 966.386719 1078.023438 971.234375 1079.617188 975.875 1079.648438 C 984.28125 1079.496094 992.183594 1074.546875 996.101562 1066.816406 C 999.933594 1059.261719 999.679688 1049.300781 995.457031 1041.429688 C 994.539062 1039.714844 993.429688 1038.074219 992.160156 1036.546875 C 983.339844 1025.941406 966.925781 1024.375 956.300781 1033.121094 Z M 956.300781 1033.121094 " fill-opacity="1" fill-rule="nonzero"/><path fill="#552d2d" d="M 996.941406 1127.277344 C 996.828125 1127.277344 996.71875 1127.273438 996.605469 1127.269531 C 969.28125 1125.855469 935.085938 1114.769531 920.277344 1093.195312 C 904.6875 1070.480469 902.277344 1040.496094 914.140625 1016.808594 C 926.605469 991.917969 954.039062 976.5625 980.804688 979.394531 C 984.289062 979.769531 986.820312 982.898438 986.445312 986.386719 C 986.066406 989.875 982.984375 992.394531 979.449219 992.03125 C 958.210938 989.746094 935.480469 1002.566406 925.503906 1022.492188 C 915.832031 1041.8125 917.945312 1067.335938 930.757812 1086.003906 C 943.042969 1103.910156 973.847656 1113.367188 997.261719 1114.578125 C 1000.765625 1114.761719 1003.464844 1117.75 1003.28125 1121.253906 C 1003.105469 1124.644531 1000.296875 1127.277344 996.941406 1127.277344 Z M 996.941406 1127.277344 " fill-opacity="1" fill-rule="nonzero"/><path fill="#fffcf6" d="M 858.910156 977.789062 C 858.910156 977.789062 275.429688 894.402344 102.425781 967.757812 C 102.425781 967.757812 10.269531 1054.417969 76.875 1114.996094 C 76.875 1114.996094 105.367188 1144.109375 211.789062 1118.273438 C 211.789062 1118.273438 270.1875 1106.945312 485.441406 1149.0625 C 485.441406 1149.0625 655.152344 1161.25 740.21875 1130.894531 C 740.21875 1130.894531 794.664062 1109.050781 885.332031 1152.664062 C 885.332031 1152.664062 950.550781 1170.125 961.023438 1120.777344 C 971.496094 1071.425781 956.28125 1048.953125 942.421875 1033.480469 C 928.5625 1018.003906 880.050781 982.890625 858.910156 977.789062 Z M 858.910156 977.789062 " fill-opacity="1" fill-rule="nonzero"/><path fill="#ffbd91" d="M 179.226562 1126.25 C 166.121094 1069.726562 136.734375 1016.980469 95.414062 975.816406 C 69.324219 991.308594 51.699219 1020.277344 51.039062 1050.359375 C 50.375 1080.441406 67.121094 1110.523438 93.648438 1125.273438 C 120.179688 1140.023438 155.4375 1138.320312 179.226562 1126.25 Z M 179.226562 1126.25 " fill-opacity="1" fill-rule="nonzero"/><path fill="#ffbd91" d="M 946.117188 1037.589844 C 922.707031 1045.828125 900.296875 1057.667969 882.234375 1074.535156 C 864.171875 1091.40625 850.652344 1113.589844 846.761719 1137.851562 C 865.980469 1149.070312 887.964844 1157.910156 910.117188 1155.195312 C 935.25 1152.117188 957.480469 1133.09375 964.734375 1109.105469 C 971.992188 1085.117188 964.207031 1057.472656 946.117188 1037.589844 Z M 946.117188 1037.589844 " fill-opacity="1" fill-rule="nonzero"/><path fill="#552d2d" d="M 909.46875 1161.953125 C 890.21875 1161.953125 870.9375 1154.535156 852.097656 1147.285156 C 840.640625 1142.878906 828.796875 1138.320312 817.371094 1135.65625 C 782.777344 1127.578125 746.210938 1135.707031 710.855469 1143.570312 L 706.675781 1144.496094 C 612.601562 1165.347656 530.847656 1158.804688 500.074219 1156.34375 C 495.796875 1156 492.578125 1155.738281 490.527344 1155.660156 C 452.050781 1154.160156 413.242188 1146.359375 375.714844 1138.816406 C 322.105469 1128.042969 266.671875 1116.898438 212.683594 1124.558594 C 203.21875 1125.90625 193.585938 1127.863281 184.265625 1129.757812 C 168.691406 1132.925781 152.585938 1136.203125 136.195312 1136.886719 C 104.199219 1138.222656 76.960938 1128.0625 61.519531 1109.019531 C 39.230469 1081.523438 45.699219 1042.582031 58.011719 1017.59375 C 67.785156 997.761719 82.039062 980.695312 95.824219 964.191406 C 101.183594 957.769531 106.730469 951.132812 111.875 944.480469 C 137.449219 911.421875 160.023438 859.246094 181.851562 808.792969 C 192.421875 784.355469 202.40625 761.28125 212.507812 740.847656 C 229.261719 706.964844 310.0625 572.390625 331.761719 546.195312 C 396.453125 468.101562 482.097656 409.332031 586.316406 371.519531 C 589.621094 370.324219 593.261719 372.023438 594.457031 375.324219 C 595.652344 378.621094 593.949219 382.265625 590.652344 383.460938 C 488.589844 420.492188 404.777344 477.96875 341.550781 554.296875 C 320.851562 579.285156 240.042969 713.832031 223.902344 746.480469 C 213.945312 766.621094 204.019531 789.554688 193.519531 813.835938 C 171.375 865.011719 148.480469 917.933594 121.929688 952.253906 C 116.636719 959.09375 111.015625 965.824219 105.578125 972.335938 C 91.660156 988.996094 78.515625 1004.738281 69.410156 1023.207031 C 58.757812 1044.832031 52.886719 1078.1875 71.394531 1101.019531 C 84.273438 1116.910156 107.726562 1125.328125 135.667969 1124.191406 C 151.042969 1123.550781 166.644531 1120.378906 181.734375 1117.308594 C 191.234375 1115.378906 201.058594 1113.378906 210.898438 1111.980469 C 267.015625 1104.011719 323.550781 1115.371094 378.21875 1126.359375 C 415.257812 1133.804688 453.558594 1141.503906 491.023438 1142.964844 C 493.183594 1143.046875 496.578125 1143.316406 501.085938 1143.675781 C 531.339844 1146.101562 611.707031 1152.527344 703.925781 1132.089844 L 708.097656 1131.164062 C 744.84375 1122.996094 782.832031 1114.546875 820.261719 1123.28125 C 832.542969 1126.148438 844.804688 1130.867188 856.664062 1135.429688 C 882.535156 1145.382812 906.964844 1154.785156 929.75 1145.339844 C 945.933594 1138.632812 953.28125 1124.746094 956.59375 1114.277344 C 962.957031 1094.164062 959.769531 1069.652344 948.464844 1051.835938 C 927.367188 1018.574219 887.023438 1000.152344 854.609375 985.351562 C 851.414062 983.894531 850.007812 980.125 851.46875 976.933594 C 852.925781 973.738281 856.691406 972.335938 859.890625 973.792969 C 893.835938 989.292969 936.082031 1008.585938 959.199219 1045.03125 C 972.628906 1066.203125 976.273438 1094.207031 968.710938 1118.109375 C 962.878906 1136.542969 950.769531 1150.382812 934.617188 1157.078125 C 926.269531 1160.539062 917.875 1161.953125 909.46875 1161.953125 Z M 909.46875 1161.953125 " fill-opacity="1" fill-rule="nonzero"/></svg>