<svg xmlns="http://www.w3.org/2000/svg" xmlns:xlink="http://www.w3.org/1999/xlink" width="1920" zoomAndPan="magnify" viewBox="0 0 1440 1439.999935" height="1920" preserveAspectRatio="xMidYMid meet" version="1.0"><path fill="#a1b2de" d="M 1170.085938 506.804688 C 1142.128906 439.066406 1103.128906 372.050781 1040.769531 333.542969 C 918.132812 257.808594 523.035156 257.167969 399.359375 333.542969 C 337 372.050781 298 439.066406 270.042969 506.804688 C 232.253906 598.386719 209.925781 697.257812 213.355469 796.273438 C 215.480469 857.582031 233.125 926.667969 287.347656 955.375 C 322.699219 974.085938 365.074219 970.859375 405.015625 968.703125 C 473.675781 965 542.394531 965.964844 611.078125 969.25 C 611.058594 974.511719 610.996094 979.640625 610.996094 984.957031 C 647.324219 981.886719 683.683594 978.828125 720.0625 976.089844 C 756.445312 978.828125 792.808594 981.886719 829.132812 984.957031 C 829.132812 979.640625 829.070312 974.511719 829.050781 969.25 C 897.738281 965.964844 966.453125 965 1035.117188 968.703125 C 1075.058594 970.859375 1117.429688 974.085938 1152.78125 955.375 C 1207.007812 926.667969 1224.652344 857.582031 1226.773438 796.273438 C 1230.199219 697.257812 1207.878906 598.386719 1170.085938 506.804688 Z M 1170.085938 506.804688 " fill-opacity="1" fill-rule="nonzero"/><path fill="#e48214" d="M 269.433594 1237.804688 L 229.25 1414.175781 C 228.492188 1417.511719 231.027344 1420.691406 234.449219 1420.691406 L 291.914062 1420.691406 C 296.109375 1420.691406 299.851562 1418.0625 301.273438 1414.117188 L 361.910156 1245.933594 Z M 269.433594 1237.804688 " fill-opacity="1" fill-rule="nonzero"/><path fill="#e48214" d="M 1170.695312 1237.804688 L 1210.878906 1414.175781 C 1211.636719 1417.511719 1209.101562 1420.691406 1205.679688 1420.691406 L 1148.214844 1420.691406 C 1144.019531 1420.691406 1140.277344 1418.0625 1138.855469 1414.117188 L 1078.21875 1245.933594 Z M 1170.695312 1237.804688 " fill-opacity="1" fill-rule="nonzero"/><path fill="#db3249" d="M 179.394531 632.730469 C 180.773438 617.082031 182.15625 601.4375 183.441406 586.234375 C 185.488281 562.070312 200.886719 543.195312 220.289062 540.699219 C 293.691406 531.246094 367.640625 527.039062 442.25 527.1875 C 461.84375 527.226562 478.882812 544.242188 482.605469 568.207031 C 500.613281 684.011719 525.089844 798.125 552.867188 908.960938 C 496.6875 922.980469 437.710938 875.101562 383 896.285156 C 357.375 906.203125 335.332031 930.679688 308.554688 932.808594 C 281.925781 934.925781 256.949219 913.464844 241.960938 885.964844 C 226.96875 858.464844 220.097656 825.53125 213.480469 793.328125 C 200.964844 732.398438 175.851562 672.839844 179.394531 632.730469 Z M 179.394531 632.730469 " fill-opacity="1" fill-rule="nonzero"/><path fill="#f94159" d="M 482.609375 568.203125 C 478.882812 544.242188 461.84375 527.226562 442.25 527.1875 C 369 527.039062 296.402344 531.160156 224.316406 540.253906 C 257.996094 587.089844 288.089844 736.675781 327.921875 778.339844 C 384.34375 837.363281 468.769531 830.253906 530.714844 816.429688 C 512.101562 734.964844 495.644531 652.039062 482.609375 568.203125 Z M 482.609375 568.203125 " fill-opacity="1" fill-rule="nonzero"/><path fill="#8093c2" d="M 1426.359375 666.964844 C 1419.152344 625.96875 1395.917969 585.488281 1357.949219 568.402344 C 1308.535156 546.164062 1247.261719 570.828125 1214.40625 613.910156 C 1181.550781 656.996094 1172.246094 713.730469 1172.574219 767.90625 C 1172.902344 822.085938 1181.765625 876.019531 1174.113281 945.117188 C 1024.230469 994.753906 868.296875 1025.941406 720.0625 1040.753906 C 571.832031 1025.941406 415.902344 994.753906 266.015625 945.117188 C 258.367188 876.019531 267.226562 822.085938 267.554688 767.90625 C 267.882812 713.730469 258.578125 656.996094 225.722656 613.910156 C 192.867188 570.828125 131.59375 546.164062 82.179688 568.402344 C 44.210938 585.488281 20.976562 625.96875 13.773438 666.964844 C 6.566406 707.96875 12.902344 750.003906 19.496094 791.109375 C 38.226562 907.921875 59.046875 1024.542969 88.59375 1139.097656 C 95.414062 1165.523438 103.089844 1192.632812 120.082031 1213.992188 C 152.136719 1254.277344 208.433594 1264.335938 259.699219 1269.144531 C 382.769531 1280.675781 1022.417969 1283.960938 1180.433594 1269.144531 C 1231.695312 1264.335938 1287.992188 1254.277344 1320.046875 1213.992188 C 1337.039062 1192.632812 1344.71875 1165.523438 1351.535156 1139.097656 C 1381.085938 1024.542969 1401.902344 907.921875 1420.636719 791.109375 C 1427.226562 750.003906 1433.5625 707.96875 1426.359375 666.964844 Z M 1426.359375 666.964844 " fill-opacity="1" fill-rule="nonzero"/><path fill="#bfcef5" d="M 186.222656 1169.273438 L 186.222656 873.792969 C 186.222656 869.875 189.398438 866.703125 193.316406 866.703125 L 1247.160156 866.703125 C 1251.078125 866.703125 1254.253906 869.875 1254.253906 873.792969 L 1254.253906 1169.273438 C 1254.253906 1173.191406 1251.078125 1176.367188 1247.160156 1176.367188 L 193.316406 1176.367188 C 189.398438 1176.367188 186.222656 1173.191406 186.222656 1169.273438 Z M 186.222656 1169.273438 " fill-opacity="1" fill-rule="nonzero"/><path fill="#a1b2de" d="M 1357.949219 568.402344 C 1354.121094 566.683594 1350.207031 565.335938 1346.257812 564.164062 C 1286.984375 596.683594 1248.59375 661.054688 1252.296875 727.628906 C 1254.78125 772.359375 1273.828125 814.394531 1288.316406 856.957031 C 1308.324219 915.738281 1316.320312 968.820312 1324.320312 1050.277344 C 1330.375 1111.882812 1335.328125 1156.398438 1280.492188 1188.503906 C 1183.679688 1245.179688 288.746094 1245.96875 190.601562 1188.503906 C 135.761719 1156.398438 126.945312 1101.152344 120.402344 1039.601562 C 113.863281 978.050781 125.523438 915.738281 145.539062 856.957031 C 160.023438 814.394531 179.066406 772.359375 181.550781 727.628906 C 185.207031 661.925781 147.890625 598.324219 89.9375 565.410156 C 87.328125 566.304688 84.726562 567.253906 82.179688 568.402344 C 44.210938 585.488281 20.976562 625.96875 13.773438 666.964844 C 6.566406 707.96875 12.902344 750.003906 19.492188 791.109375 C 38.226562 907.921875 59.042969 1024.542969 88.59375 1139.097656 C 95.414062 1165.523438 103.089844 1192.632812 120.082031 1213.992188 C 152.136719 1254.277344 208.433594 1264.335938 259.695312 1269.144531 C 382.769531 1280.675781 1022.417969 1283.960938 1180.433594 1269.144531 C 1231.695312 1264.335938 1287.992188 1254.277344 1320.046875 1213.992188 C 1337.039062 1192.632812 1344.71875 1165.523438 1351.535156 1139.097656 C 1381.085938 1024.542969 1401.902344 907.921875 1420.632812 791.109375 C 1427.226562 750.003906 1433.5625 707.96875 1426.359375 666.964844 C 1419.152344 625.96875 1395.917969 585.488281 1357.949219 568.402344 Z M 1357.949219 568.402344 " fill-opacity="1" fill-rule="nonzero"/><path fill="#fa697c" d="M 479.726562 624.796875 C 476.34375 608.875 473.875 592.820312 469.511719 577.136719 C 465.148438 561.457031 453.425781 545.492188 437.148438 545.113281 C 424.394531 544.8125 413.070312 554.695312 408.140625 566.460938 C 403.214844 578.226562 403.511719 591.492188 404.902344 604.171875 C 411.628906 665.5 441.527344 721.527344 470.925781 775.773438 C 474.777344 782.882812 480.4375 791.035156 488.5 790.382812 C 497.269531 789.667969 501.269531 779.3125 503.300781 770.757812 C 506.289062 758.179688 492.917969 686.851562 479.726562 624.796875 Z M 479.726562 624.796875 " fill-opacity="1" fill-rule="nonzero"/><path fill="#552d2d" d="M 1208.382812 630.214844 C 1205.570312 630.214844 1203.019531 628.296875 1202.332031 625.441406 C 1193.074219 586.96875 1180.285156 547.851562 1164.328125 509.179688 C 1129.5625 424.929688 1089.257812 370.804688 1037.496094 338.839844 C 915.863281 263.722656 524.265625 263.722656 402.632812 338.839844 C 350.871094 370.800781 310.570312 424.929688 275.800781 509.179688 C 273.484375 514.792969 271.875 519.925781 270.167969 525.363281 C 268.867188 529.511719 267.546875 533.71875 265.882812 538.246094 C 264.695312 541.476562 261.109375 543.125 257.890625 541.945312 C 254.660156 540.757812 253.007812 537.179688 254.191406 533.953125 C 255.78125 529.625 257.042969 525.601562 258.285156 521.636719 C 259.996094 516.183594 261.765625 510.546875 264.289062 504.429688 C 300.109375 417.636719 341.988281 361.652344 396.085938 328.242188 C 520.226562 251.582031 919.902344 251.582031 1044.042969 328.242188 C 1098.144531 361.652344 1140.023438 417.636719 1175.839844 504.429688 C 1192.042969 543.699219 1205.03125 583.429688 1214.441406 622.53125 C 1215.246094 625.871094 1213.1875 629.234375 1209.84375 630.039062 C 1209.355469 630.15625 1208.863281 630.214844 1208.382812 630.214844 Z M 1208.382812 630.214844 " fill-opacity="1" fill-rule="nonzero"/><path fill="#552d2d" d="M 291.914062 1426.914062 L 234.449219 1426.914062 C 230.914062 1426.914062 227.621094 1425.332031 225.414062 1422.566406 C 223.207031 1419.800781 222.394531 1416.238281 223.179688 1412.792969 L 256.019531 1268.65625 C 256.78125 1265.304688 260.128906 1263.21875 263.472656 1263.96875 C 266.828125 1264.734375 268.925781 1268.070312 268.164062 1271.425781 L 235.570312 1414.464844 L 291.917969 1414.464844 C 293.480469 1414.464844 294.886719 1413.476562 295.417969 1412.003906 L 345.804688 1272.234375 C 346.972656 1269 350.554688 1267.324219 353.777344 1268.488281 C 357.015625 1269.65625 358.691406 1273.222656 357.523438 1276.457031 L 307.132812 1416.226562 C 304.828125 1422.621094 298.710938 1426.914062 291.914062 1426.914062 Z M 291.914062 1426.914062 " fill-opacity="1" fill-rule="nonzero"/><path fill="#552d2d" d="M 1205.679688 1426.914062 L 1148.210938 1426.914062 C 1141.414062 1426.914062 1135.296875 1422.621094 1132.996094 1416.226562 L 1082.640625 1276.558594 C 1081.476562 1273.324219 1083.152344 1269.753906 1086.390625 1268.589844 C 1089.613281 1267.421875 1093.191406 1269.097656 1094.359375 1272.335938 L 1144.714844 1412.007812 C 1145.246094 1413.476562 1146.648438 1414.464844 1148.210938 1414.464844 L 1204.554688 1414.464844 L 1171.945312 1271.316406 C 1171.179688 1267.964844 1173.28125 1264.628906 1176.632812 1263.863281 C 1179.980469 1263.109375 1183.324219 1265.199219 1184.089844 1268.550781 L 1216.949219 1412.792969 C 1217.734375 1416.238281 1216.917969 1419.800781 1214.714844 1422.566406 C 1212.511719 1425.332031 1209.214844 1426.914062 1205.679688 1426.914062 Z M 1204.804688 1415.558594 L 1204.871094 1415.558594 Z M 1204.804688 1415.558594 " fill-opacity="1" fill-rule="nonzero"/><path fill="#552d2d" d="M 542.164062 871.632812 C 539.351562 871.632812 536.800781 869.714844 536.113281 866.859375 C 510.667969 761.085938 491.15625 663.707031 476.453125 569.160156 C 473.238281 548.480469 458.851562 533.449219 442.238281 533.414062 C 365.839844 533.179688 291.613281 537.789062 221.085938 546.875 C 206.730469 548.722656 194.859375 561.347656 190.839844 579.035156 C 190.082031 582.390625 186.765625 584.496094 183.386719 583.730469 C 180.035156 582.96875 177.933594 579.632812 178.695312 576.28125 C 183.882812 553.4375 199.898438 537.046875 219.492188 534.523438 C 290.558594 525.371094 365.546875 520.765625 442.261719 520.960938 C 465.042969 521.007812 484.597656 540.476562 488.761719 567.25 C 503.410156 661.457031 522.859375 758.507812 548.222656 863.949219 C 549.027344 867.292969 546.96875 870.652344 543.625 871.457031 C 543.136719 871.578125 542.644531 871.632812 542.164062 871.632812 Z M 542.164062 871.632812 " fill-opacity="1" fill-rule="nonzero"/><path fill="#552d2d" d="M 735.375 1285.335938 C 532.304688 1285.339844 326.921875 1281.695312 259.117188 1275.339844 C 206.65625 1270.421875 148.53125 1259.746094 115.207031 1217.867188 C 97.824219 1196.011719 89.847656 1168.875 82.566406 1140.652344 C 51.535156 1020.371094 30.160156 896.957031 13.347656 792.09375 C 7.109375 753.207031 0.0390625 709.125 7.640625 665.886719 C 16.089844 617.773438 43 579.207031 79.621094 562.726562 C 135.203125 537.71875 198.914062 568.492188 230.675781 610.132812 C 259.679688 648.175781 274.1875 701.273438 273.78125 767.945312 C 273.671875 785.835938 272.660156 802.515625 271.585938 820.171875 C 270.710938 834.574219 269.804688 849.46875 269.382812 865.566406 C 269.296875 869.003906 266.296875 871.703125 263 871.628906 C 259.558594 871.539062 256.84375 868.679688 256.9375 865.242188 C 257.359375 848.925781 258.273438 833.925781 259.15625 819.417969 C 260.214844 801.933594 261.21875 785.417969 261.328125 767.871094 C 261.710938 704.015625 248.070312 653.484375 220.769531 617.683594 C 191.917969 579.851562 134.425781 551.707031 84.734375 574.082031 C 51.878906 588.867188 27.644531 623.992188 19.90625 668.042969 C 12.667969 709.21875 19.5625 752.203125 25.640625 790.125 C 42.414062 894.703125 63.726562 1017.757812 94.625 1137.542969 C 101.558594 1164.410156 109.09375 1190.175781 124.957031 1210.113281 C 155.371094 1248.339844 210.429688 1258.269531 260.277344 1262.945312 C 390.183594 1275.117188 1026.625 1277.3125 1179.851562 1262.945312 C 1229.699219 1258.269531 1284.761719 1248.339844 1315.175781 1210.113281 C 1331.039062 1190.175781 1338.570312 1164.410156 1345.503906 1137.542969 C 1376.410156 1017.738281 1397.71875 894.691406 1414.484375 790.125 C 1420.566406 752.203125 1427.460938 709.21875 1420.222656 668.042969 C 1412.480469 623.992188 1388.246094 588.863281 1355.394531 574.082031 C 1305.691406 551.707031 1248.207031 579.851562 1219.363281 617.683594 C 1192.058594 653.484375 1178.414062 704.015625 1178.800781 767.871094 C 1178.910156 785.554688 1179.921875 803.039062 1181 821.550781 C 1181.824219 835.773438 1182.679688 850.476562 1183.125 865.722656 C 1183.226562 869.15625 1180.523438 872.027344 1177.082031 872.125 C 1173.664062 872.265625 1170.777344 869.523438 1170.675781 866.085938 C 1170.234375 851.023438 1169.386719 836.40625 1168.566406 822.273438 C 1167.480469 803.59375 1166.457031 785.953125 1166.347656 767.945312 C 1165.941406 701.273438 1180.445312 648.175781 1209.453125 610.136719 C 1241.21875 568.488281 1304.9375 537.71875 1360.507812 562.726562 C 1397.125 579.203125 1424.035156 617.769531 1432.488281 665.890625 C 1440.089844 709.125 1433.019531 753.207031 1426.78125 792.097656 C 1409.96875 896.945312 1388.601562 1020.351562 1357.5625 1140.652344 C 1350.285156 1168.875 1342.308594 1196.011719 1324.921875 1217.867188 C 1291.597656 1259.746094 1233.476562 1270.421875 1181.011719 1275.339844 C 1107.375 1282.246094 922.351562 1285.335938 735.375 1285.335938 Z M 735.375 1285.335938 " fill-opacity="1" fill-rule="nonzero"/><path fill="#552d2d" d="M 1220.121094 1182.59375 L 220.351562 1182.59375 C 198.097656 1182.59375 179.992188 1164.492188 179.992188 1142.242188 L 179.992188 900.828125 C 179.992188 878.578125 198.097656 860.476562 220.351562 860.476562 L 1220.121094 860.476562 C 1242.375 860.476562 1260.480469 878.578125 1260.480469 900.828125 L 1260.480469 1142.242188 C 1260.480469 1164.492188 1242.375 1182.59375 1220.121094 1182.59375 Z M 220.351562 872.929688 C 204.96875 872.929688 192.449219 885.445312 192.449219 900.828125 L 192.449219 1142.242188 C 192.449219 1157.625 204.96875 1170.140625 220.351562 1170.140625 L 1220.121094 1170.140625 C 1235.507812 1170.140625 1248.027344 1157.625 1248.027344 1142.242188 L 1248.027344 900.828125 C 1248.027344 885.445312 1235.507812 872.929688 1220.121094 872.929688 Z M 220.351562 872.929688 " fill-opacity="1" fill-rule="nonzero"/><path fill="#fffcf6" d="M 251.191406 537.332031 C 201.644531 606.113281 191.996094 668.167969 208.3125 739.945312 C 246.277344 906.996094 407.777344 927.175781 453.765625 933.683594 C 537.925781 945.589844 624.257812 951.304688 707.6875 935.332031 C 791.117188 919.359375 872.027344 879.773438 923.433594 814.59375 C 974.839844 749.414062 988.910156 663.15625 942.859375 574.519531 C 943.160156 549.71875 924.917969 527.703125 902.960938 516.160156 C 881.007812 504.613281 855.738281 501.507812 831.105469 498.589844 C 790.4375 493.773438 749.632812 488.953125 708.6875 489.492188 C 634.199219 490.472656 560.5 509.34375 492.589844 539.960938 C 461.542969 553.960938 427.898438 570.835938 395.058594 561.804688 C 371.941406 555.449219 354.171875 537.300781 333.027344 526.003906 C 311.882812 514.707031 273.671875 506.121094 251.191406 537.332031 Z M 251.191406 537.332031 " fill-opacity="1" fill-rule="nonzero"/><path fill="#f09a61" d="M 944.3125 580.484375 C 931.015625 586.765625 917.714844 593.050781 903.8125 599.527344 C 927.019531 620.035156 932.023438 654.277344 930.519531 685.207031 C 926.515625 767.378906 885.5 847.046875 820.941406 898.058594 C 878.71875 874.5 926.316406 827.054688 950.054688 769.363281 C 973.792969 711.667969 973.363281 644.46875 944.3125 580.484375 Z M 944.3125 580.484375 " fill-opacity="1" fill-rule="nonzero"/><path fill="#f09a61" d="M 284.203125 578.6875 C 243.660156 628.734375 231.699219 699.105469 248.265625 761.34375 C 264.828125 823.582031 308.117188 877.191406 362.679688 911.425781 C 290.59375 886.925781 231.992188 825.914062 210.433594 752.910156 C 188.875 679.902344 204.929688 596.851562 252.148438 537.136719 C 257.835938 555.332031 269.386719 571.640625 284.203125 578.6875 Z M 284.203125 578.6875 " fill-opacity="1" fill-rule="nonzero"/><path fill="#f09a61" d="M 894.667969 602.050781 C 941.34375 587.640625 984.238281 546.703125 993.355469 493.316406 C 999.289062 458.574219 990.6875 422.832031 977.5 391.082031 C 964.308594 359.328125 946.589844 330.265625 932.710938 298.894531 C 912.40625 253 900.191406 201.96875 872.984375 160.929688 C 836.203125 105.453125 775.664062 74.894531 714.507812 64.308594 C 653.355469 53.722656 574.757812 53.722656 513.605469 64.308594 C 452.449219 74.890625 391.910156 105.453125 355.132812 160.929688 C 327.921875 201.96875 315.707031 253 295.402344 298.894531 C 281.523438 330.265625 263.808594 359.328125 250.617188 391.082031 C 237.425781 422.832031 228.824219 458.574219 234.757812 493.316406 C 243.875 546.703125 286.769531 587.640625 338.410156 606.863281 C 518.492188 639.738281 704.589844 660.726562 894.667969 602.050781 Z M 894.667969 602.050781 " fill-opacity="1" fill-rule="nonzero"/><path fill="#fffcf6" d="M 977.753906 483.949219 C 962.710938 454.167969 924.027344 443.972656 889.859375 443.4375 C 855.691406 442.898438 820.242188 448.496094 788.191406 436.988281 C 754.019531 424.722656 722.957031 393.152344 693.113281 372.839844 C 609.851562 316.179688 573.816406 331.210938 524.773438 371.828125 C 497.121094 394.726562 473.714844 424.722656 439.542969 436.988281 C 407.492188 448.496094 372.042969 442.902344 337.875 443.4375 C 303.707031 443.972656 265.023438 454.167969 249.980469 483.949219 C 237.199219 509.257812 246.808594 541.078125 266.289062 561.984375 C 285.769531 582.886719 311.691406 613.585938 338.957031 623.285156 C 426.019531 654.257812 521.351562 648.582031 613.867188 642.652344 C 706.382812 648.582031 800.160156 635.578125 887.21875 604.609375 C 914.488281 594.910156 941.964844 582.886719 961.445312 561.984375 C 980.925781 541.078125 990.535156 509.257812 977.753906 483.949219 Z M 977.753906 483.949219 " fill-opacity="1" fill-rule="nonzero"/><path fill="#f8c7d0" d="M 642.449219 343.597656 C 632.78125 335.160156 620.261719 330.046875 607.449219 329.304688 C 594.632812 328.558594 578.277344 332.023438 570.921875 344.035156 C 575.96875 351.964844 581.21875 355.425781 588.253906 361.664062 C 595.285156 367.902344 604.585938 372.207031 613.933594 371.179688 C 627.378906 369.703125 637.152344 358.15625 642.449219 343.597656 Z M 642.449219 343.597656 " fill-opacity="1" fill-rule="nonzero"/><path fill="#f8c7d0" d="M 376.824219 432.078125 C 376.824219 433.046875 376.777344 434.011719 376.683594 434.972656 C 376.589844 435.933594 376.445312 436.890625 376.257812 437.839844 C 376.070312 438.789062 375.835938 439.726562 375.554688 440.648438 C 375.273438 441.574219 374.945312 442.484375 374.578125 443.378906 C 374.207031 444.273438 373.792969 445.144531 373.335938 446 C 372.882812 446.851562 372.382812 447.679688 371.847656 448.484375 C 371.308594 449.289062 370.734375 450.066406 370.121094 450.8125 C 369.507812 451.558594 368.859375 452.277344 368.171875 452.960938 C 367.488281 453.644531 366.773438 454.292969 366.027344 454.90625 C 365.277344 455.519531 364.503906 456.09375 363.699219 456.632812 C 362.894531 457.167969 362.066406 457.667969 361.210938 458.121094 C 360.359375 458.578125 359.484375 458.992188 358.589844 459.363281 C 357.699219 459.730469 356.789062 460.058594 355.863281 460.335938 C 354.9375 460.617188 354 460.851562 353.050781 461.042969 C 352.101562 461.230469 351.144531 461.371094 350.183594 461.46875 C 349.21875 461.5625 348.253906 461.609375 347.289062 461.609375 C 346.320312 461.609375 345.355469 461.5625 344.390625 461.46875 C 343.429688 461.371094 342.472656 461.230469 341.523438 461.042969 C 340.578125 460.851562 339.640625 460.617188 338.714844 460.335938 C 337.789062 460.058594 336.878906 459.730469 335.984375 459.359375 C 335.089844 458.992188 334.214844 458.578125 333.363281 458.121094 C 332.511719 457.667969 331.683594 457.167969 330.878906 456.632812 C 330.074219 456.09375 329.296875 455.519531 328.550781 454.90625 C 327.800781 454.292969 327.085938 453.644531 326.402344 452.960938 C 325.71875 452.277344 325.066406 451.558594 324.453125 450.8125 C 323.839844 450.066406 323.265625 449.289062 322.726562 448.484375 C 322.191406 447.679688 321.695312 446.851562 321.238281 446 C 320.78125 445.144531 320.367188 444.273438 320 443.378906 C 319.628906 442.484375 319.300781 441.574219 319.023438 440.648438 C 318.742188 439.726562 318.507812 438.789062 318.316406 437.839844 C 318.128906 436.890625 317.988281 435.933594 317.890625 434.972656 C 317.796875 434.011719 317.75 433.046875 317.75 432.078125 C 317.75 431.109375 317.796875 430.144531 317.890625 429.183594 C 317.988281 428.21875 318.128906 427.265625 318.316406 426.316406 C 318.507812 425.367188 318.742188 424.429688 319.023438 423.503906 C 319.300781 422.578125 319.628906 421.671875 320 420.777344 C 320.367188 419.882812 320.78125 419.007812 321.238281 418.15625 C 321.695312 417.304688 322.191406 416.476562 322.726562 415.671875 C 323.265625 414.867188 323.839844 414.089844 324.453125 413.34375 C 325.066406 412.59375 325.71875 411.878906 326.402344 411.195312 C 327.085938 410.511719 327.800781 409.863281 328.550781 409.25 C 329.296875 408.636719 330.074219 408.058594 330.878906 407.523438 C 331.683594 406.984375 332.511719 406.488281 333.363281 406.035156 C 334.214844 405.578125 335.089844 405.164062 335.984375 404.792969 C 336.878906 404.425781 337.789062 404.097656 338.714844 403.816406 C 339.640625 403.535156 340.578125 403.300781 341.523438 403.113281 C 342.472656 402.925781 343.429688 402.785156 344.390625 402.6875 C 345.355469 402.59375 346.320312 402.546875 347.289062 402.546875 C 348.253906 402.546875 349.21875 402.59375 350.183594 402.6875 C 351.144531 402.785156 352.101562 402.925781 353.050781 403.113281 C 354 403.300781 354.9375 403.535156 355.863281 403.816406 C 356.789062 404.097656 357.699219 404.425781 358.589844 404.792969 C 359.484375 405.164062 360.359375 405.578125 361.210938 406.035156 C 362.066406 406.488281 362.894531 406.984375 363.699219 407.523438 C 364.503906 408.058594 365.277344 408.636719 366.027344 409.25 C 366.773438 409.863281 367.488281 410.511719 368.171875 411.195312 C 368.859375 411.878906 369.507812 412.59375 370.121094 413.34375 C 370.734375 414.089844 371.308594 414.867188 371.847656 415.671875 C 372.382812 416.476562 372.882812 417.304688 373.335938 418.15625 C 373.792969 419.007812 374.207031 419.882812 374.578125 420.777344 C 374.945312 421.671875 375.273438 422.578125 375.554688 423.503906 C 375.835938 424.429688 376.070312 425.367188 376.257812 426.316406 C 376.445312 427.265625 376.589844 428.21875 376.683594 429.183594 C 376.777344 430.144531 376.824219 431.109375 376.824219 432.078125 Z M 376.824219 432.078125 " fill-opacity="1" fill-rule="nonzero"/><path fill="#f8c7d0" d="M 902.96875 432.078125 C 902.96875 433.046875 902.917969 434.011719 902.824219 434.972656 C 902.730469 435.933594 902.589844 436.890625 902.398438 437.839844 C 902.210938 438.789062 901.976562 439.726562 901.695312 440.648438 C 901.414062 441.574219 901.089844 442.484375 900.71875 443.378906 C 900.347656 444.273438 899.933594 445.144531 899.480469 446 C 899.023438 446.851562 898.527344 447.679688 897.988281 448.484375 C 897.453125 449.289062 896.875 450.066406 896.261719 450.8125 C 895.648438 451.558594 895 452.277344 894.316406 452.960938 C 893.632812 453.644531 892.914062 454.292969 892.167969 454.90625 C 891.417969 455.519531 890.644531 456.09375 889.839844 456.632812 C 889.035156 457.167969 888.207031 457.667969 887.351562 458.121094 C 886.5 458.578125 885.625 458.992188 884.734375 459.363281 C 883.839844 459.730469 882.929688 460.058594 882.003906 460.335938 C 881.078125 460.617188 880.140625 460.851562 879.191406 461.042969 C 878.242188 461.230469 877.285156 461.371094 876.324219 461.46875 C 875.363281 461.5625 874.398438 461.609375 873.429688 461.609375 C 872.460938 461.609375 871.496094 461.5625 870.535156 461.46875 C 869.570312 461.371094 868.617188 461.230469 867.667969 461.042969 C 866.71875 460.851562 865.78125 460.617188 864.855469 460.335938 C 863.929688 460.058594 863.019531 459.730469 862.125 459.359375 C 861.230469 458.992188 860.359375 458.578125 859.503906 458.121094 C 858.652344 457.667969 857.824219 457.167969 857.019531 456.632812 C 856.214844 456.09375 855.4375 455.519531 854.691406 454.90625 C 853.941406 454.292969 853.226562 453.644531 852.542969 452.960938 C 851.859375 452.277344 851.210938 451.558594 850.597656 450.8125 C 849.984375 450.066406 849.40625 449.289062 848.871094 448.484375 C 848.332031 447.679688 847.835938 446.851562 847.378906 446 C 846.921875 445.144531 846.511719 444.273438 846.140625 443.378906 C 845.769531 442.484375 845.445312 441.574219 845.164062 440.648438 C 844.882812 439.726562 844.648438 438.789062 844.457031 437.839844 C 844.269531 436.890625 844.128906 435.933594 844.035156 434.972656 C 843.9375 434.011719 843.890625 433.046875 843.890625 432.078125 C 843.890625 431.109375 843.9375 430.144531 844.035156 429.183594 C 844.128906 428.21875 844.269531 427.265625 844.457031 426.316406 C 844.648438 425.367188 844.882812 424.429688 845.164062 423.503906 C 845.445312 422.578125 845.769531 421.671875 846.140625 420.777344 C 846.511719 419.882812 846.921875 419.007812 847.378906 418.15625 C 847.835938 417.304688 848.332031 416.476562 848.871094 415.671875 C 849.40625 414.867188 849.984375 414.089844 850.597656 413.34375 C 851.210938 412.59375 851.859375 411.878906 852.542969 411.195312 C 853.226562 410.511719 853.941406 409.863281 854.691406 409.25 C 855.4375 408.636719 856.214844 408.058594 857.019531 407.523438 C 857.824219 406.984375 858.652344 406.488281 859.503906 406.035156 C 860.359375 405.578125 861.230469 405.164062 862.125 404.792969 C 863.019531 404.425781 863.929688 404.097656 864.855469 403.816406 C 865.78125 403.535156 866.71875 403.300781 867.667969 403.113281 C 868.617188 402.925781 869.570312 402.785156 870.535156 402.6875 C 871.496094 402.59375 872.460938 402.546875 873.429688 402.546875 C 874.398438 402.546875 875.363281 402.59375 876.324219 402.6875 C 877.285156 402.785156 878.242188 402.925781 879.191406 403.113281 C 880.140625 403.300781 881.078125 403.535156 882.003906 403.816406 C 882.929688 404.097656 883.839844 404.425781 884.734375 404.792969 C 885.625 405.164062 886.5 405.578125 887.351562 406.035156 C 888.207031 406.488281 889.035156 406.984375 889.839844 407.523438 C 890.644531 408.058594 891.417969 408.636719 892.167969 409.25 C 892.914062 409.863281 893.632812 410.511719 894.316406 411.195312 C 895 411.878906 895.648438 412.59375 896.261719 413.34375 C 896.875 414.089844 897.453125 414.867188 897.988281 415.671875 C 898.527344 416.476562 899.023438 417.304688 899.480469 418.15625 C 899.933594 419.007812 900.347656 419.882812 900.71875 420.777344 C 901.089844 421.671875 901.414062 422.578125 901.695312 423.503906 C 901.976562 424.429688 902.210938 425.367188 902.398438 426.316406 C 902.589844 427.265625 902.730469 428.21875 902.824219 429.183594 C 902.917969 430.144531 902.96875 431.109375 902.96875 432.078125 Z M 902.96875 432.078125 " fill-opacity="1" fill-rule="nonzero"/><path fill="#552d2d" d="M 438.0625 353.21875 C 426.117188 358.195312 413.457031 363.746094 406.390625 374.585938 C 403.921875 378.371094 402.242188 383.109375 403.683594 387.386719 C 405.191406 391.859375 409.832031 394.695312 414.5 395.402344 C 419.167969 396.105469 423.910156 395.066406 428.5 393.960938 C 438.527344 391.542969 448.496094 388.761719 458.058594 384.890625 C 463.574219 382.652344 469.089844 379.957031 473.121094 375.578125 C 477.152344 371.199219 479.453125 364.804688 477.585938 359.152344 C 475.535156 352.960938 468.996094 349.140625 462.523438 348.351562 C 456.046875 347.5625 449.292969 348.539062 438.0625 353.21875 Z M 438.0625 353.21875 " fill-opacity="1" fill-rule="nonzero"/><path fill="#552d2d" d="M 793.289062 353.222656 C 805.136719 358.429688 817.6875 364.226562 824.542969 375.199219 C 826.933594 379.03125 828.523438 383.800781 827 388.050781 C 825.40625 392.496094 820.710938 395.238281 816.027344 395.855469 C 811.347656 396.46875 806.628906 395.339844 802.058594 394.144531 C 792.078125 391.53125 782.167969 388.558594 772.683594 384.5 C 767.210938 382.160156 761.75 379.355469 757.800781 374.902344 C 753.855469 370.445312 751.679688 364.007812 753.65625 358.394531 C 755.824219 352.242188 762.4375 348.550781 768.925781 347.882812 C 775.414062 347.21875 782.152344 348.328125 793.289062 353.222656 Z M 793.289062 353.222656 " fill-opacity="1" fill-rule="nonzero"/><path fill="#f09a61" d="M 789.878906 99.941406 C 796.511719 77.246094 809.128906 55.921875 827.65625 41.230469 C 846.183594 26.539062 870.886719 19.035156 894.101562 23.53125 C 917.320312 28.027344 938.214844 45.382812 944.5625 68.160156 C 951.371094 92.605469 940.886719 119.617188 922.710938 137.332031 C 904.539062 155.050781 879.824219 164.625 854.769531 171.132812 C 826.664062 164.789062 802.523438 143.121094 789.878906 99.941406 Z M 789.878906 99.941406 " fill-opacity="1" fill-rule="nonzero"/><path fill="#f8c7d0" d="M 890.050781 61.429688 C 864.335938 64.289062 840.503906 80.601562 828.53125 103.53125 C 824.867188 110.554688 822.339844 119.316406 826.316406 126.171875 C 830.042969 132.597656 838.160156 134.96875 845.570312 135.488281 C 866.308594 136.941406 887.511719 127.679688 900.539062 111.484375 C 907.210938 103.183594 911.886719 92.601562 910.476562 82.046875 C 909.070312 71.492188 900.105469 60.3125 890.050781 61.429688 Z M 890.050781 61.429688 " fill-opacity="1" fill-rule="nonzero"/><path fill="#f09a61" d="M 438.234375 99.941406 C 431.601562 77.246094 418.984375 55.921875 400.457031 41.230469 C 381.929688 26.539062 357.226562 19.035156 334.011719 23.53125 C 310.792969 28.027344 289.898438 45.382812 283.554688 68.160156 C 276.742188 92.605469 287.230469 119.617188 305.402344 137.332031 C 323.574219 155.050781 348.289062 164.625 373.347656 171.132812 C 401.453125 164.789062 425.59375 143.121094 438.234375 99.941406 Z M 438.234375 99.941406 " fill-opacity="1" fill-rule="nonzero"/><path fill="#f8c7d0" d="M 338.0625 61.429688 C 363.777344 64.289062 387.613281 80.601562 399.582031 103.53125 C 403.25 110.554688 405.773438 119.316406 401.796875 126.171875 C 398.070312 132.597656 389.953125 134.96875 382.542969 135.488281 C 361.804688 136.941406 340.601562 127.679688 327.574219 111.484375 C 320.902344 103.183594 316.226562 92.601562 317.636719 82.046875 C 319.046875 71.492188 328.011719 60.3125 338.0625 61.429688 Z M 338.0625 61.429688 " fill-opacity="1" fill-rule="nonzero"/><path fill="#ffbd91" d="M 537.945312 145.613281 C 535.335938 145.613281 532.90625 143.964844 532.035156 141.355469 C 527.414062 127.503906 520.5625 114.933594 511.660156 104 C 509.492188 101.332031 509.894531 97.410156 512.5625 95.242188 C 515.226562 93.070312 519.152344 93.472656 521.324219 96.140625 C 531.171875 108.246094 538.753906 122.132812 543.851562 137.414062 C 544.941406 140.675781 543.179688 144.203125 539.914062 145.289062 C 539.261719 145.511719 538.597656 145.613281 537.945312 145.613281 Z M 537.945312 145.613281 " fill-opacity="1" fill-rule="nonzero"/><path fill="#ffbd91" d="M 614.054688 127.316406 C 611.503906 127.316406 609.105469 125.734375 608.195312 123.191406 L 595.679688 88.304688 C 594.519531 85.070312 596.203125 81.503906 599.441406 80.34375 C 602.683594 79.1875 606.246094 80.867188 607.40625 84.105469 L 619.917969 118.988281 C 621.082031 122.222656 619.394531 125.789062 616.15625 126.949219 C 615.464844 127.199219 614.753906 127.316406 614.054688 127.316406 Z M 614.054688 127.316406 " fill-opacity="1" fill-rule="nonzero"/><path fill="#ffbd91" d="M 575.328125 170.902344 C 572.058594 170.902344 569.316406 168.355469 569.117188 165.046875 L 567.1875 132.785156 C 566.980469 129.351562 569.59375 126.40625 573.027344 126.199219 C 576.511719 125.972656 579.414062 128.609375 579.617188 132.039062 L 581.546875 164.304688 C 581.753906 167.734375 579.140625 170.683594 575.707031 170.890625 C 575.578125 170.898438 575.453125 170.902344 575.328125 170.902344 Z M 575.328125 170.902344 " fill-opacity="1" fill-rule="nonzero"/><path fill="#ffbd91" d="M 666.613281 173.691406 C 663.242188 173.691406 660.472656 171.003906 660.390625 167.621094 C 660.078125 154.914062 657.078125 143.109375 651.480469 132.535156 C 649.871094 129.496094 651.03125 125.726562 654.070312 124.117188 C 657.113281 122.503906 660.882812 123.667969 662.488281 126.707031 C 669 139.003906 672.480469 152.664062 672.839844 167.3125 C 672.925781 170.75 670.207031 173.605469 666.765625 173.691406 C 666.714844 173.691406 666.664062 173.691406 666.613281 173.691406 Z M 666.613281 173.691406 " fill-opacity="1" fill-rule="nonzero"/><path fill="#ffbd91" d="M 695.035156 129.050781 C 694.964844 129.050781 694.890625 129.046875 694.816406 129.046875 C 691.378906 128.925781 688.691406 126.042969 688.808594 122.605469 C 689.253906 109.910156 686.960938 97.949219 681.996094 87.054688 C 680.570312 83.925781 681.953125 80.230469 685.082031 78.804688 C 688.203125 77.382812 691.902344 78.761719 693.332031 81.890625 C 699.101562 94.554688 701.769531 108.398438 701.257812 123.039062 C 701.140625 126.402344 698.375 129.050781 695.035156 129.050781 Z M 695.035156 129.050781 " fill-opacity="1" fill-rule="nonzero"/><path fill="#ffbd91" d="M 617.082031 227.324219 C 616.800781 227.324219 616.511719 227.304688 616.226562 227.265625 C 612.820312 226.796875 610.433594 223.65625 610.902344 220.25 C 612.894531 205.722656 611.957031 192.125 608.113281 179.832031 C 607.085938 176.550781 608.914062 173.058594 612.199219 172.03125 C 615.46875 171.003906 618.976562 172.832031 620 176.117188 C 624.394531 190.167969 625.484375 205.585938 623.242188 221.941406 C 622.8125 225.0625 620.144531 227.324219 617.082031 227.324219 Z M 617.082031 227.324219 " fill-opacity="1" fill-rule="nonzero"/><path fill="#552d2d" d="M 666.914062 947.679688 C 663.785156 947.679688 661.085938 945.324219 660.734375 942.140625 C 660.355469 938.722656 662.816406 935.644531 666.234375 935.265625 C 679.9375 933.742188 693.492188 931.707031 706.519531 929.214844 C 796.589844 911.96875 871.886719 869.894531 918.542969 810.738281 C 972.40625 742.445312 979.296875 658.375 937.445312 580.085938 C 935.824219 577.050781 936.96875 573.277344 940.003906 571.65625 C 943.042969 570.035156 946.8125 571.1875 948.429688 574.214844 C 992.71875 657.070312 985.390625 746.089844 928.320312 818.449219 C 879.8125 879.957031 801.875 923.636719 708.859375 941.445312 C 695.511719 944 681.636719 946.082031 667.609375 947.640625 C 667.375 947.667969 667.144531 947.679688 666.914062 947.679688 Z M 666.914062 947.679688 " fill-opacity="1" fill-rule="nonzero"/><path fill="#552d2d" d="M 591.46875 951.34375 C 591.453125 951.34375 591.4375 951.34375 591.421875 951.34375 C 565.65625 951.140625 538.863281 949.628906 509.507812 946.726562 C 506.085938 946.390625 503.589844 943.339844 503.925781 939.921875 C 504.261719 936.5 507.296875 933.996094 510.738281 934.335938 C 539.707031 937.199219 566.136719 938.691406 591.519531 938.890625 C 594.957031 938.917969 597.726562 941.726562 597.699219 945.164062 C 597.671875 948.585938 594.886719 951.34375 591.46875 951.34375 Z M 591.46875 951.34375 " fill-opacity="1" fill-rule="nonzero"/><path fill="#552d2d" d="M 421.703125 934.796875 C 421.320312 934.796875 420.925781 934.757812 420.53125 934.683594 C 301.296875 911.914062 225.8125 845.050781 202.238281 741.324219 C 184.714844 664.203125 198.253906 600.171875 246.136719 533.695312 C 248.144531 530.90625 252.039062 530.269531 254.832031 532.28125 C 257.621094 534.289062 258.253906 538.179688 256.246094 540.972656 C 210.011719 605.152344 197.492188 664.242188 214.382812 738.566406 C 236.777344 837.097656 308.871094 900.683594 422.867188 922.453125 C 426.246094 923.097656 428.460938 926.359375 427.816406 929.734375 C 427.246094 932.71875 424.636719 934.796875 421.703125 934.796875 Z M 421.703125 934.796875 " fill-opacity="1" fill-rule="nonzero"/><path fill="#fffcf6" d="M 379.496094 844.355469 C 379.496094 844.355469 425.964844 984.214844 485.84375 958.773438 C 545.722656 933.332031 513.066406 853.914062 513.066406 853.914062 C 513.066406 853.914062 505.710938 805.675781 379.496094 844.355469 Z M 379.496094 844.355469 " fill-opacity="1" fill-rule="nonzero"/><path fill="#ffbd91" d="M 517.292969 914.871094 C 491.371094 888.953125 438.128906 893.6875 419.339844 921.957031 C 426.269531 935.96875 434.195312 950.976562 449.007812 958.027344 C 463.488281 964.921875 481.984375 962.15625 495.101562 953.234375 C 508.222656 944.3125 516.328125 930.097656 517.292969 914.871094 Z M 517.292969 914.871094 " fill-opacity="1" fill-rule="nonzero"/><path fill="#552d2d" d="M 469.136719 968.789062 C 465.007812 968.789062 460.816406 968.1875 456.640625 966.875 C 443.632812 962.789062 434.386719 952.863281 426.332031 942.75 C 403.164062 913.652344 384.765625 881.625 371.652344 847.5625 C 370.414062 844.351562 372.015625 840.75 375.226562 839.515625 C 378.4375 838.28125 382.039062 839.878906 383.273438 843.089844 C 395.933594 875.964844 413.699219 906.886719 436.074219 934.996094 C 442.429688 942.972656 450.070312 951.757812 460.375 954.996094 C 477.003906 960.214844 495.457031 949.023438 503.710938 935.183594 C 512.933594 919.726562 513.753906 900.378906 514.472656 883.308594 C 514.617188 879.871094 517.652344 877.164062 520.957031 877.351562 C 524.394531 877.492188 527.0625 880.398438 526.914062 883.832031 C 526.132812 902.378906 525.242188 923.402344 514.410156 941.5625 C 505.71875 956.132812 488.089844 968.789062 469.136719 968.789062 Z M 469.136719 968.789062 " fill-opacity="1" fill-rule="nonzero"/><path fill="#fffcf6" d="M 579.183594 880.683594 C 579.183594 880.683594 573.597656 967.882812 634.71875 961.894531 C 634.71875 961.894531 678.851562 957.453125 718.789062 844.0625 C 718.789062 844.0625 593.816406 789.792969 579.183594 880.683594 Z M 579.183594 880.683594 " fill-opacity="1" fill-rule="nonzero"/><path fill="#ffbd91" d="M 687.734375 912.683594 C 637.558594 881.664062 584.480469 907.425781 580.414062 915.320312 C 577.5 920.980469 580.253906 927.6875 583.59375 933.148438 C 589.410156 942.660156 597.246094 951.371094 607.453125 956.882812 C 617.660156 962.398438 630.4375 964.398438 641.539062 960.640625 C 654.445312 956.269531 663.136719 945.160156 669.914062 934.101562 C 676.691406 923.042969 682.65625 911.109375 687.734375 912.683594 Z M 687.734375 912.683594 " fill-opacity="1" fill-rule="nonzero"/><path fill="#552d2d" d="M 629.011719 968.789062 C 610.058594 968.789062 592.429688 956.132812 583.738281 941.5625 C 572.90625 923.40625 572.015625 902.382812 571.226562 883.835938 C 571.082031 880.398438 573.75 877.496094 577.183594 877.347656 C 580.738281 877.210938 583.527344 879.871094 583.671875 883.304688 C 584.394531 900.378906 585.214844 919.730469 594.433594 935.183594 C 602.691406 949.023438 621.140625 960.222656 637.773438 954.996094 C 648.074219 951.757812 655.71875 942.972656 662.070312 934.996094 C 684.449219 906.886719 702.214844 875.964844 714.875 843.089844 C 716.109375 839.878906 719.722656 838.28125 722.921875 839.515625 C 726.128906 840.75 727.734375 844.351562 726.496094 847.5625 C 713.378906 881.625 694.984375 913.652344 671.8125 942.75 C 663.761719 952.863281 654.515625 962.789062 641.507812 966.875 C 637.332031 968.1875 633.140625 968.789062 629.011719 968.789062 Z M 629.011719 968.789062 " fill-opacity="1" fill-rule="nonzero"/><path fill="#552d2d" d="M 612.667969 376.875 C 597.15625 376.875 582.011719 363.988281 569.113281 351.175781 C 566.675781 348.753906 566.664062 344.808594 569.085938 342.371094 C 571.519531 339.933594 575.457031 339.921875 577.898438 342.34375 C 588.792969 353.175781 602.777344 365.5 614.125 364.351562 C 618.347656 363.9375 622.851562 361.519531 626.804688 357.542969 C 630.785156 353.542969 633.976562 348.367188 637.066406 343.359375 C 638.871094 340.433594 642.707031 339.523438 645.632812 341.328125 C 648.5625 343.132812 649.472656 346.96875 647.664062 349.894531 C 644.207031 355.503906 640.632812 361.300781 635.636719 366.324219 C 631.398438 370.585938 624.433594 375.851562 615.339844 376.742188 C 614.449219 376.832031 613.554688 376.875 612.667969 376.875 Z M 612.667969 376.875 " fill-opacity="1" fill-rule="nonzero"/><path fill="#552d2d" d="M 610.164062 416.136719 C 610.0625 416.136719 609.964844 416.132812 609.867188 416.128906 C 606.429688 415.964844 603.777344 413.050781 603.9375 409.617188 C 604.175781 404.539062 604.195312 399.441406 604.214844 393.867188 C 604.242188 387.085938 604.269531 379.394531 604.699219 370.253906 C 604.863281 366.820312 607.882812 364.140625 611.214844 364.328125 C 614.648438 364.492188 617.304688 367.40625 617.140625 370.839844 C 616.726562 379.710938 616.695312 387.257812 616.671875 393.914062 C 616.648438 399.675781 616.625 404.953125 616.378906 410.199219 C 616.222656 413.535156 613.464844 416.136719 610.164062 416.136719 Z M 610.164062 416.136719 " fill-opacity="1" fill-rule="nonzero"/><path fill="#552d2d" d="M 894.667969 608.277344 C 892.007812 608.277344 889.546875 606.5625 888.71875 603.886719 C 887.703125 600.601562 889.546875 597.117188 892.832031 596.101562 C 933.109375 583.664062 977.914062 546.738281 987.214844 492.269531 C 992.160156 463.324219 986.957031 430.082031 971.75 393.46875 C 964.71875 376.546875 956.1875 360.015625 947.933594 344.027344 C 940.824219 330.25 933.472656 316 927.015625 301.414062 C 919.859375 285.238281 913.636719 268.257812 907.613281 251.835938 C 897.15625 223.324219 886.34375 193.84375 870.585938 168.695312 C 868.757812 165.78125 869.640625 161.941406 872.554688 160.113281 C 875.472656 158.289062 879.316406 159.171875 881.136719 162.085938 C 897.589844 188.332031 908.628906 218.4375 919.304688 247.550781 C 925.257812 263.785156 931.414062 280.570312 938.40625 296.375 C 944.710938 310.621094 951.976562 324.703125 959.003906 338.316406 C 967.371094 354.53125 976.023438 371.296875 983.25 388.691406 C 999.375 427.511719 1004.839844 463.066406 999.496094 494.367188 C 990.671875 546.039062 949.285156 591.707031 896.507812 608 C 895.894531 608.1875 895.273438 608.277344 894.667969 608.277344 Z M 894.667969 608.277344 " fill-opacity="1" fill-rule="nonzero"/><path fill="#552d2d" d="M 436.238281 96.003906 C 433.972656 96.003906 431.789062 94.765625 430.691406 92.617188 C 429.121094 89.554688 430.328125 85.804688 433.386719 84.234375 C 457.535156 71.851562 484.167969 63.082031 512.542969 58.171875 C 574.207031 47.5 653.90625 47.5 715.570312 58.171875 C 743.832031 63.066406 770.367188 71.785156 794.441406 84.089844 C 797.5 85.652344 798.714844 89.402344 797.152344 92.464844 C 795.582031 95.523438 791.832031 96.742188 788.773438 95.175781 C 765.8125 83.441406 740.46875 75.121094 713.449219 70.441406 C 653.066406 59.988281 575.046875 59.988281 514.664062 70.441406 C 487.53125 75.136719 462.097656 83.507812 439.074219 95.316406 C 438.164062 95.78125 437.191406 96.003906 436.238281 96.003906 Z M 436.238281 96.003906 " fill-opacity="1" fill-rule="nonzero"/><path fill="#552d2d" d="M 333.449219 608.277344 C 332.839844 608.277344 332.21875 608.1875 331.609375 608 C 278.835938 591.707031 237.445312 546.042969 228.617188 494.367188 C 223.273438 463.066406 228.738281 427.511719 244.867188 388.691406 C 252.09375 371.289062 260.75 354.519531 269.121094 338.300781 C 276.144531 324.691406 283.40625 310.617188 289.707031 296.375 C 296.699219 280.574219 302.851562 263.792969 308.804688 247.566406 C 319.492188 218.417969 330.546875 188.277344 347.027344 162.007812 C 348.855469 159.097656 352.703125 158.214844 355.609375 160.042969 C 358.523438 161.867188 359.40625 165.710938 357.578125 168.625 C 341.789062 193.789062 330.964844 223.304688 320.496094 251.851562 C 314.476562 268.269531 308.253906 285.242188 301.097656 301.410156 C 294.648438 315.996094 287.296875 330.238281 280.1875 344.011719 C 271.9375 360.003906 263.398438 376.542969 256.367188 393.46875 C 241.15625 430.082031 235.953125 463.324219 240.894531 492.269531 C 250.199219 546.738281 295.003906 583.667969 335.28125 596.101562 C 338.570312 597.117188 340.410156 600.601562 339.394531 603.886719 C 338.570312 606.558594 336.105469 608.277344 333.449219 608.277344 Z M 333.449219 608.277344 " fill-opacity="1" fill-rule="nonzero"/><path fill="#552d2d" d="M 854.96875 176.035156 C 852.082031 176.035156 849.496094 174.015625 848.878906 171.078125 C 848.179688 167.710938 850.335938 164.414062 853.707031 163.710938 C 881.59375 157.894531 903.34375 147.519531 918.363281 132.875 C 936.40625 115.289062 944.332031 90.542969 938.5625 69.828125 C 933.039062 50.007812 914.699219 33.859375 892.921875 29.640625 C 872.464844 25.683594 849.515625 31.839844 831.527344 46.109375 C 815.222656 59.035156 802.554688 78.777344 795.855469 101.6875 C 794.890625 104.988281 791.449219 106.882812 788.128906 105.917969 C 784.832031 104.953125 782.9375 101.496094 783.902344 98.195312 C 791.316406 72.832031 805.480469 50.867188 823.785156 36.351562 C 844.585938 19.855469 871.332031 12.777344 895.289062 17.417969 C 921.589844 22.511719 943.800781 42.230469 950.5625 66.488281 C 957.535156 91.519531 948.308594 121.078125 927.058594 141.792969 C 910.316406 158.113281 886.492188 169.589844 856.246094 175.902344 C 855.820312 175.992188 855.394531 176.035156 854.96875 176.035156 Z M 854.96875 176.035156 " fill-opacity="1" fill-rule="nonzero"/><path fill="#552d2d" d="M 822.542969 121.628906 C 821.929688 121.628906 821.308594 121.539062 820.695312 121.347656 C 817.410156 120.332031 815.574219 116.84375 816.589844 113.558594 C 826.75 80.777344 859.015625 56.03125 893.3125 54.710938 C 896.90625 54.609375 899.644531 57.261719 899.777344 60.695312 C 899.910156 64.128906 897.230469 67.023438 893.792969 67.15625 C 864.597656 68.277344 837.132812 89.34375 828.488281 117.242188 C 827.660156 119.914062 825.199219 121.628906 822.542969 121.628906 Z M 822.542969 121.628906 " fill-opacity="1" fill-rule="nonzero"/><path fill="#552d2d" d="M 373.140625 176.035156 C 372.71875 176.035156 372.292969 175.992188 371.863281 175.902344 C 341.621094 169.589844 317.796875 158.117188 301.054688 141.792969 C 279.804688 121.078125 270.582031 91.519531 277.554688 66.488281 C 284.3125 42.230469 306.527344 22.511719 332.828125 17.417969 C 356.800781 12.769531 383.527344 19.855469 404.332031 36.351562 C 422.636719 50.871094 436.800781 72.832031 444.210938 98.195312 C 445.175781 101.496094 443.28125 104.953125 439.980469 105.917969 C 436.683594 106.886719 433.21875 104.988281 432.257812 101.6875 C 425.5625 78.777344 412.894531 59.039062 396.589844 46.109375 C 378.59375 31.839844 355.644531 25.683594 335.195312 29.640625 C 313.417969 33.859375 295.074219 50.007812 289.554688 69.828125 C 283.78125 90.542969 291.710938 115.292969 309.75 132.875 C 324.769531 147.519531 346.523438 157.894531 374.40625 163.710938 C 377.777344 164.417969 379.933594 167.714844 379.234375 171.082031 C 378.617188 174.015625 376.027344 176.035156 373.140625 176.035156 Z M 373.140625 176.035156 " fill-opacity="1" fill-rule="nonzero"/><path fill="#552d2d" d="M 405.570312 121.628906 C 402.914062 121.628906 400.453125 119.914062 399.625 117.242188 C 390.980469 89.34375 363.515625 68.277344 334.320312 67.15625 C 330.886719 67.023438 328.207031 64.128906 328.339844 60.695312 C 328.472656 57.261719 331.339844 54.613281 334.800781 54.710938 C 369.097656 56.03125 401.363281 80.777344 411.523438 113.558594 C 412.539062 116.84375 410.703125 120.332031 407.417969 121.347656 C 406.800781 121.539062 406.183594 121.628906 405.570312 121.628906 Z M 405.570312 121.628906 " fill-opacity="1" fill-rule="nonzero"/><path fill="#fdfefc" d="M 964.390625 879.824219 C 956.160156 879.96875 948.882812 875.457031 946.777344 868.910156 L 884.144531 673.925781 C 880.769531 663.417969 890.40625 653.128906 903.621094 653.128906 L 1181.363281 653.753906 C 1194.582031 653.753906 1204.21875 664.042969 1200.84375 674.550781 L 1138.207031 869.539062 C 1136.105469 876.082031 1128.828125 880.59375 1120.59375 880.453125 Z M 964.390625 879.824219 " fill-opacity="1" fill-rule="nonzero"/><path fill="#f2cfac" d="M 1194.851562 650.316406 C 1202.65625 640.6875 1208.152344 628.164062 1205.910156 615.929688 C 1204.195312 606.578125 1196.710938 598.148438 1187.523438 595.09375 C 1183.53125 593.769531 1180.851562 589.835938 1181.84375 585.714844 C 1184.355469 575.296875 1181.964844 563.632812 1175.105469 555.390625 C 1167.433594 546.171875 1154.621094 541.78125 1141.8125 542.277344 C 1138.847656 542.394531 1136.152344 540.460938 1135.289062 537.597656 C 1123.628906 498.980469 1048.421875 496.917969 1034.417969 552.832031 C 1033.804688 555.277344 1030.609375 555.675781 1029.382812 553.480469 C 1025.132812 545.878906 1019.507812 539.066406 1012.347656 534.242188 C 1002.984375 527.9375 990.792969 525.398438 980.171875 529.160156 C 970.765625 532.492188 963.171875 541.261719 961.125 554.238281 C 960.820312 556.160156 958.515625 556.910156 957.082031 555.609375 C 947.660156 547.050781 932.804688 544.746094 921.480469 550.703125 C 910.753906 556.339844 904.226562 568.847656 906.664062 583.46875 C 907.390625 587.828125 905.300781 592.359375 901.082031 593.554688 C 890.953125 596.433594 882.265625 604.667969 879.402344 614.957031 C 875.785156 627.929688 884.480469 646.261719 894.175781 656.050781 C 996.871094 660.773438 1099.871094 658.789062 1194.851562 650.316406 Z M 1194.851562 650.316406 " fill-opacity="1" fill-rule="nonzero"/><path fill="#552d2d" d="M 895.960938 659.355469 C 894.871094 659.355469 893.769531 659.070312 892.769531 658.472656 C 878.4375 649.902344 869.203125 628.363281 873.398438 613.285156 C 876.773438 601.1875 886.972656 591.09375 899.378906 587.566406 C 900.324219 587.300781 900.730469 585.761719 900.519531 584.492188 C 897.746094 567.847656 904.832031 552.421875 918.582031 545.191406 C 930.3125 539.023438 945.0625 539.996094 956.347656 547.230469 C 959.816406 535.730469 967.652344 526.988281 978.09375 523.292969 C 990.0625 519.054688 1004.160156 521.222656 1015.828125 529.078125 C 1021.421875 532.847656 1026.394531 537.800781 1030.675781 543.855469 C 1041.40625 514.921875 1067.988281 503.882812 1088.730469 503.386719 C 1114.039062 502.765625 1135.214844 515.804688 1141.25 535.796875 C 1157.019531 535.476562 1171.390625 541.191406 1179.894531 551.40625 C 1187.847656 560.960938 1190.914062 574.667969 1187.898438 587.171875 C 1187.695312 588.023438 1188.5625 588.878906 1189.488281 589.1875 C 1200.855469 592.960938 1209.917969 603.257812 1212.035156 614.804688 C 1215.179688 631.988281 1205.648438 646.886719 1199.6875 654.234375 C 1197.519531 656.90625 1193.605469 657.316406 1190.929688 655.148438 C 1188.257812 652.984375 1187.847656 649.0625 1190.011719 646.390625 C 1197.863281 636.710938 1201.425781 626.015625 1199.78125 617.050781 C 1198.480469 609.953125 1192.632812 603.351562 1185.5625 601.003906 C 1178.273438 598.582031 1174.074219 591.382812 1175.792969 584.253906 C 1177.902344 575.5 1175.804688 565.964844 1170.320312 559.371094 C 1164.277344 552.113281 1153.75 548.035156 1142.050781 548.5 C 1136.421875 548.722656 1131.015625 544.988281 1129.328125 539.398438 C 1124.25 522.574219 1105.417969 515.398438 1089.027344 515.832031 C 1070.097656 516.285156 1047.394531 526.640625 1040.457031 554.34375 C 1039.554688 557.949219 1036.609375 560.585938 1032.957031 561.070312 C 1029.320312 561.535156 1025.761719 559.761719 1023.945312 556.511719 C 1019.808594 549.117188 1014.738281 543.359375 1008.867188 539.40625 C 1000.582031 533.824219 990.382812 532.148438 982.253906 535.027344 C 974.316406 537.839844 968.851562 545.195312 967.273438 555.207031 C 966.78125 558.34375 964.613281 560.945312 961.628906 561.992188 C 958.617188 563.046875 955.269531 562.375 952.894531 560.21875 C 945.222656 553.246094 933.230469 551.5625 924.378906 556.210938 C 915.472656 560.898438 910.929688 571.191406 912.804688 582.441406 C 914.097656 590.203125 909.789062 597.554688 902.785156 599.546875 C 894.457031 601.910156 887.628906 608.617188 885.398438 616.628906 C 882.6875 626.363281 889.632812 642.085938 899.160156 647.785156 C 902.113281 649.550781 903.074219 653.371094 901.308594 656.324219 C 900.144531 658.273438 898.078125 659.355469 895.960938 659.355469 Z M 895.960938 659.355469 " fill-opacity="1" fill-rule="nonzero"/><path fill="#f94159" d="M 1024.484375 655.203125 L 1026.792969 877.914062 L 1002.964844 879.980469 L 989.960938 651.933594 Z M 1024.484375 655.203125 " fill-opacity="1" fill-rule="nonzero"/><path fill="#f94159" d="M 955.433594 653.386719 L 986.511719 879.980469 L 972.050781 879.855469 L 916.613281 656.972656 Z M 955.433594 653.386719 " fill-opacity="1" fill-rule="nonzero"/><path fill="#f94159" d="M 1060.9375 656.765625 L 1050.148438 880.457031 L 1069.210938 882.996094 L 1095.464844 653.496094 Z M 1060.9375 656.765625 " fill-opacity="1" fill-rule="nonzero"/><path fill="#f94159" d="M 1121.507812 653.386719 L 1090.429688 879.980469 L 1109.132812 879.980469 L 1159.707031 653.128906 Z M 1121.507812 653.386719 " fill-opacity="1" fill-rule="nonzero"/><path fill="#552d2d" d="M 1120.972656 886.679688 C 1120.8125 886.679688 1120.652344 886.679688 1120.492188 886.675781 L 964.425781 886.050781 C 953.652344 886.171875 943.785156 879.957031 940.847656 870.816406 L 878.214844 675.832031 C 876.21875 669.617188 877.34375 662.945312 881.296875 657.523438 C 886.148438 650.871094 894.492188 646.902344 903.621094 646.902344 L 1181.378906 647.527344 C 1190.492188 647.527344 1198.839844 651.5 1203.691406 658.152344 C 1207.640625 663.574219 1208.765625 670.246094 1206.769531 676.457031 L 1144.136719 871.4375 C 1141.238281 880.464844 1131.753906 886.679688 1120.972656 886.679688 Z M 964.390625 873.597656 C 964.398438 873.597656 964.40625 873.597656 964.414062 873.597656 L 1120.621094 874.226562 C 1125.980469 874.304688 1131.019531 871.546875 1132.277344 867.632812 L 1194.910156 672.648438 C 1195.90625 669.554688 1194.761719 667.046875 1193.625 665.488281 C 1191.148438 662.089844 1186.449219 659.980469 1181.363281 659.980469 L 903.605469 659.355469 C 898.535156 659.355469 893.835938 661.464844 891.363281 664.859375 C 890.222656 666.417969 889.078125 668.925781 890.074219 672.023438 L 952.707031 867.007812 C 953.964844 870.917969 958.652344 873.714844 964.285156 873.601562 C 964.320312 873.597656 964.355469 873.597656 964.390625 873.597656 Z M 964.390625 873.597656 " fill-opacity="1" fill-rule="nonzero"/></svg>