<svg xmlns="http://www.w3.org/2000/svg" xmlns:xlink="http://www.w3.org/1999/xlink" width="1920" zoomAndPan="magnify" viewBox="0 0 1440 1439.999935" height="1920" preserveAspectRatio="xMidYMid meet" version="1.0"><path fill="#fffcf6" d="M 602.878906 923.136719 C 602.796875 963.46875 606.476562 1003.8125 613.832031 1043.296875 C 591.566406 1056.585938 568.878906 1070.234375 551.550781 1090.785156 C 534.226562 1111.335938 522.898438 1140.382812 528.308594 1168 C 533.71875 1195.617188 559.789062 1218.289062 584.117188 1210.820312 C 592.171875 1237.632812 620.589844 1249.574219 645.828125 1250.164062 C 695.765625 1251.324219 741.921875 1222.714844 786.363281 1194.921875 C 782.261719 1201.941406 778.160156 1208.960938 774.058594 1215.980469 C 809.402344 1220.761719 845.320312 1220.1875 882.621094 1212.382812 C 946.46875 1222.074219 1011.308594 1223.558594 1074.589844 1216.554688 C 1086.9375 1237.753906 1108.132812 1250.972656 1130.101562 1256.851562 C 1152.070312 1262.726562 1174.988281 1262.003906 1197.527344 1260.375 C 1231.570312 1257.914062 1265.78125 1253.398438 1298.175781 1241.398438 C 1330.566406 1229.402344 1361.257812 1209.464844 1383.121094 1180.109375 C 1401.894531 1154.898438 1413.476562 1123.707031 1420.007812 1091.691406 C 1435.292969 1016.792969 1423.351562 936.082031 1390.496094 868.648438 C 1357.640625 801.214844 1304.644531 747.074219 1242.546875 712.578125 C 1124.09375 682.019531 999.671875 672.503906 881.035156 702.171875 C 762.398438 731.839844 603.140625 792.0625 602.878906 923.136719 Z M 602.878906 923.136719 " fill-opacity="1" fill-rule="nonzero"/><path fill="#ffbd91" d="M 561.042969 1079.714844 C 576.160156 1088.617188 590.007812 1100.230469 601.894531 1113.972656 C 583.316406 1143.289062 576.421875 1181.558594 583.402344 1216.660156 C 568.667969 1220.425781 552.628906 1213.765625 542.257812 1201.441406 C 531.890625 1189.121094 526.914062 1171.832031 526.980469 1154.894531 C 527.046875 1137.957031 531.832031 1121.351562 538.898438 1106.378906 C 546.628906 1089.988281 556.113281 1076.8125 561.042969 1079.714844 Z M 561.042969 1079.714844 " fill-opacity="1" fill-rule="nonzero"/><path fill="#f09a61" d="M 1307.683594 836.058594 C 1347.300781 901.996094 1386.976562 982.953125 1392.078125 1059.714844 C 1395.09375 1105.136719 1387.398438 1151.230469 1369.792969 1193.207031 C 1415.285156 1146.152344 1434.484375 1077.574219 1429.855469 1012.28125 C 1425.230469 946.988281 1383.382812 861.203125 1347.84375 806.238281 C 1325.621094 825 1320.628906 832.617188 1307.683594 836.058594 Z M 1307.683594 836.058594 " fill-opacity="1" fill-rule="nonzero"/><path fill="#fffcf6" d="M 1249.152344 331.28125 C 1263.582031 310.191406 1265.699219 281.277344 1254.5 258.3125 C 1243.296875 235.34375 1219.210938 219.214844 1193.714844 217.613281 C 1168.214844 216.007812 1142.300781 228.988281 1128.308594 250.367188 C 1170.917969 271.875 1210.902344 298.578125 1249.152344 331.28125 Z M 1249.152344 331.28125 " fill-opacity="1" fill-rule="nonzero"/><path fill="#fffcf6" d="M 1392.628906 758.03125 C 1333.332031 838.367188 1287.402344 839.441406 1257.566406 854.867188 C 1198.3125 885.503906 782.355469 1296.195312 555.019531 993.304688 C 424.5 827.085938 459.132812 629.847656 480.980469 580.851562 C 514.726562 505.167969 524.6875 457.652344 558.753906 416.21875 C 588.914062 370.488281 635.867188 316.996094 682.039062 284.898438 C 668.359375 252.882812 663.238281 208.097656 685.621094 181.433594 C 708.003906 154.769531 744.980469 146.980469 778.871094 154.921875 C 812.757812 162.859375 846.921875 200.542969 855.140625 234.375 C 886.425781 229.023438 923.476562 225.492188 955.183594 226.875 C 1028.207031 224.734375 1100.671875 242.65625 1127.566406 255.167969 C 1218.53125 297.488281 1233.351562 274.550781 1320.46875 476.6875 C 1382.398438 620.382812 1408.484375 667.902344 1392.628906 758.03125 Z M 1392.628906 758.03125 " fill-opacity="1" fill-rule="nonzero"/><path fill="#f09a61" d="M 1375.75 599.378906 C 1375.269531 622.820312 1352.371094 640.980469 1329.578125 642.917969 C 1306.789062 644.855469 1284.824219 634.492188 1265.371094 622.328125 C 1245.917969 610.167969 1227.40625 595.800781 1205.820312 588.253906 C 1157.46875 571.355469 1104.691406 591.597656 1057.6875 612.75 C 1010.6875 633.902344 959.789062 656.773438 910.011719 644.863281 C 869.585938 635.191406 832.046875 612.292969 801.375 584.046875 C 727.492188 515.996094 339.550781 595.113281 575.988281 1017.496094 C 312.222656 722.511719 548.835938 368.8125 693.695312 284.484375 C 669.433594 262.824219 663.773438 223.835938 679.117188 195.15625 C 694.460938 166.476562 728.460938 149.667969 760.832031 152.789062 C 793.203125 155.910156 822.589844 177.75 836.949219 206.9375 C 840.523438 214.203125 843.539062 222.265625 850.039062 227.089844 C 858.265625 233.195312 869.523438 232.34375 879.734375 231.527344 C 962.71875 224.882812 1045.816406 238.902344 1129.015625 252.53125 C 1129.390625 237.777344 1142.292969 226.164062 1155.925781 220.523438 C 1185.234375 208.390625 1221.871094 217.117188 1242.566406 241.164062 C 1263.261719 265.207031 1266.445312 302.742188 1250.316406 329.339844 C 1302.410156 415.238281 1321.441406 517.992188 1375.75 599.378906 Z M 1375.75 599.378906 " fill-opacity="1" fill-rule="nonzero"/><path fill="#552d2d" d="M 977.730469 569.277344 C 964.171875 575.429688 949.808594 582.265625 942.070312 594.988281 C 939.367188 599.429688 937.601562 604.941406 939.414062 609.8125 C 941.304688 614.90625 946.742188 618 952.136719 618.648438 C 957.53125 619.292969 962.945312 617.929688 968.183594 616.492188 C 979.628906 613.351562 990.992188 609.800781 1001.851562 605.003906 C 1008.117188 602.238281 1014.359375 598.9375 1018.839844 593.757812 C 1023.324219 588.578125 1025.742188 581.136719 1023.390625 574.703125 C 1020.8125 567.652344 1013.15625 563.488281 1005.683594 562.808594 C 998.210938 562.132812 990.476562 563.496094 977.730469 569.277344 Z M 977.730469 569.277344 " fill-opacity="1" fill-rule="nonzero"/><path fill="#552d2d" d="M 1318.1875 569.898438 C 1330.492188 578.277344 1343.472656 587.476562 1348.921875 601.335938 C 1350.824219 606.171875 1351.621094 611.902344 1349.003906 616.394531 C 1346.269531 621.089844 1340.378906 623.207031 1334.957031 622.921875 C 1329.53125 622.632812 1324.429688 620.363281 1319.511719 618.050781 C 1308.773438 612.996094 1298.183594 607.550781 1288.308594 600.96875 C 1282.609375 597.167969 1277.023438 592.847656 1273.492188 586.976562 C 1269.964844 581.105469 1268.855469 573.363281 1272.273438 567.425781 C 1276.015625 560.921875 1284.273438 558.128906 1291.75 558.738281 C 1299.230469 559.351562 1306.617188 562.019531 1318.1875 569.898438 Z M 1318.1875 569.898438 " fill-opacity="1" fill-rule="nonzero"/><path fill="#f8c7d0" d="M 742.722656 197.867188 C 773.921875 204.351562 801.257812 227.125 813.28125 256.644531 C 816.964844 265.683594 819.046875 276.726562 813.378906 284.671875 C 808.0625 292.125 797.835938 294.09375 788.6875 293.875 C 763.085938 293.253906 738.160156 279.4375 724.0625 258.058594 C 716.839844 247.105469 712.335938 233.578125 715.285156 220.792969 C 718.234375 208.011719 730.523438 195.332031 742.722656 197.867188 Z M 742.722656 197.867188 " fill-opacity="1" fill-rule="nonzero"/><path fill="#f8c7d0" d="M 927.484375 646.4375 C 927.484375 647.78125 927.417969 649.121094 927.289062 650.460938 C 927.15625 651.796875 926.957031 653.125 926.695312 654.441406 C 926.433594 655.761719 926.109375 657.0625 925.71875 658.347656 C 925.328125 659.636719 924.875 660.898438 924.363281 662.140625 C 923.847656 663.382812 923.273438 664.59375 922.640625 665.78125 C 922.007812 666.964844 921.316406 668.117188 920.570312 669.234375 C 919.824219 670.351562 919.027344 671.429688 918.171875 672.46875 C 917.320312 673.507812 916.417969 674.503906 915.46875 675.453125 C 914.519531 676.402344 913.523438 677.304688 912.488281 678.15625 C 911.449219 679.011719 910.371094 679.808594 909.253906 680.554688 C 908.136719 681.304688 906.984375 681.992188 905.800781 682.625 C 904.613281 683.261719 903.402344 683.832031 902.160156 684.347656 C 900.917969 684.863281 899.65625 685.316406 898.371094 685.703125 C 897.085938 686.09375 895.78125 686.421875 894.464844 686.683594 C 893.148438 686.945312 891.820312 687.140625 890.484375 687.273438 C 889.144531 687.40625 887.804688 687.472656 886.460938 687.472656 C 885.117188 687.472656 883.777344 687.40625 882.441406 687.273438 C 881.101562 687.140625 879.777344 686.945312 878.457031 686.683594 C 877.140625 686.421875 875.839844 686.09375 874.550781 685.703125 C 873.265625 685.316406 872.003906 684.863281 870.761719 684.347656 C 869.519531 683.832031 868.308594 683.261719 867.121094 682.625 C 865.9375 681.992188 864.785156 681.304688 863.667969 680.554688 C 862.550781 679.808594 861.476562 679.011719 860.4375 678.15625 C 859.398438 677.304688 858.402344 676.402344 857.453125 675.453125 C 856.503906 674.503906 855.601562 673.507812 854.75 672.46875 C 853.898438 671.429688 853.097656 670.351562 852.351562 669.234375 C 851.605469 668.117188 850.914062 666.964844 850.28125 665.78125 C 849.648438 664.59375 849.074219 663.382812 848.558594 662.140625 C 848.046875 660.898438 847.59375 659.636719 847.203125 658.347656 C 846.8125 657.0625 846.488281 655.761719 846.226562 654.441406 C 845.964844 653.125 845.765625 651.796875 845.636719 650.460938 C 845.503906 649.121094 845.4375 647.78125 845.4375 646.4375 C 845.4375 645.09375 845.503906 643.753906 845.636719 642.414062 C 845.765625 641.078125 845.964844 639.75 846.226562 638.433594 C 846.488281 637.113281 846.8125 635.8125 847.203125 634.527344 C 847.59375 633.238281 848.046875 631.976562 848.558594 630.734375 C 849.074219 629.492188 849.648438 628.277344 850.28125 627.09375 C 850.914062 625.910156 851.605469 624.757812 852.351562 623.640625 C 853.097656 622.523438 853.898438 621.445312 854.75 620.40625 C 855.601562 619.367188 856.503906 618.371094 857.453125 617.421875 C 858.402344 616.472656 859.398438 615.570312 860.4375 614.71875 C 861.476562 613.863281 862.550781 613.066406 863.667969 612.316406 C 864.785156 611.570312 865.9375 610.882812 867.121094 610.246094 C 868.308594 609.613281 869.519531 609.039062 870.761719 608.527344 C 872.003906 608.011719 873.265625 607.558594 874.550781 607.167969 C 875.839844 606.78125 877.140625 606.453125 878.457031 606.191406 C 879.777344 605.929688 881.101562 605.730469 882.441406 605.601562 C 883.777344 605.46875 885.117188 605.402344 886.460938 605.402344 C 887.804688 605.402344 889.144531 605.46875 890.480469 605.601562 C 891.820312 605.730469 893.148438 605.929688 894.464844 606.191406 C 895.78125 606.453125 897.085938 606.78125 898.371094 607.167969 C 899.65625 607.558594 900.917969 608.011719 902.160156 608.527344 C 903.402344 609.039062 904.613281 609.613281 905.800781 610.246094 C 906.984375 610.882812 908.136719 611.570312 909.253906 612.316406 C 910.371094 613.066406 911.449219 613.863281 912.488281 614.71875 C 913.523438 615.570312 914.519531 616.472656 915.46875 617.421875 C 916.417969 618.371094 917.320312 619.367188 918.171875 620.40625 C 919.027344 621.445312 919.824219 622.523438 920.570312 623.640625 C 921.316406 624.757812 922.007812 625.910156 922.640625 627.09375 C 923.273438 628.277344 923.847656 629.492188 924.363281 630.734375 C 924.875 631.976562 925.328125 633.238281 925.71875 634.527344 C 926.109375 635.8125 926.433594 637.113281 926.695312 638.433594 C 926.957031 639.75 927.15625 641.078125 927.289062 642.414062 C 927.417969 643.753906 927.484375 645.09375 927.484375 646.4375 Z M 927.484375 646.4375 " fill-opacity="1" fill-rule="nonzero"/><path fill="#f8c7d0" d="M 1200.039062 585.898438 C 1189.195312 577.179688 1175.414062 572.191406 1161.503906 571.949219 C 1147.59375 571.710938 1133.648438 576.21875 1122.507812 584.554688 C 1128.324219 592.921875 1134.25 601.410156 1142.140625 607.859375 C 1150.035156 614.308594 1160.296875 618.5625 1170.371094 617.039062 C 1184.871094 614.84375 1194.945312 601.902344 1200.039062 585.898438 Z M 1200.039062 585.898438 " fill-opacity="1" fill-rule="nonzero"/><path fill="#ffbd91" d="M 978.671875 329.132812 C 976.097656 329.132812 973.582031 327.835938 972.132812 325.480469 C 960.6875 306.894531 946.601562 290.488281 930.269531 276.722656 C 927.027344 273.996094 926.617188 269.15625 929.347656 265.914062 C 932.078125 262.671875 936.910156 262.257812 940.15625 264.992188 C 957.734375 279.808594 972.886719 297.453125 985.195312 317.433594 C 987.417969 321.042969 986.292969 325.769531 982.6875 327.988281 C 981.429688 328.761719 980.042969 329.132812 978.671875 329.132812 Z M 978.671875 329.132812 " fill-opacity="1" fill-rule="nonzero"/><path fill="#ffbd91" d="M 1072.761719 315.101562 C 1070.839844 315.101562 1068.921875 314.386719 1067.433594 312.945312 L 1034.605469 281.207031 C 1031.558594 278.261719 1031.476562 273.40625 1034.417969 270.359375 C 1037.363281 267.3125 1042.21875 267.226562 1045.265625 270.175781 L 1078.09375 301.914062 C 1081.140625 304.859375 1081.222656 309.714844 1078.273438 312.761719 C 1076.773438 314.316406 1074.769531 315.101562 1072.761719 315.101562 Z M 1072.761719 315.101562 " fill-opacity="1" fill-rule="nonzero"/><path fill="#ffbd91" d="M 1046.34375 408.328125 C 1043.683594 408.328125 1041.101562 406.941406 1039.679688 404.46875 L 1019.875 369.921875 C 1017.773438 366.246094 1019.042969 361.558594 1022.714844 359.449219 C 1026.390625 357.335938 1031.074219 358.613281 1033.1875 362.289062 L 1052.992188 396.839844 C 1055.097656 400.515625 1053.828125 405.203125 1050.148438 407.3125 C 1048.945312 408 1047.636719 408.328125 1046.34375 408.328125 Z M 1046.34375 408.328125 " fill-opacity="1" fill-rule="nonzero"/><path fill="#ffbd91" d="M 1169.140625 374.378906 C 1166.085938 374.378906 1163.203125 372.542969 1162.007812 369.53125 C 1156.242188 354.980469 1147.753906 342.605469 1136.777344 332.75 C 1133.621094 329.917969 1133.359375 325.070312 1136.191406 321.914062 C 1139.011719 318.765625 1143.867188 318.496094 1147.023438 321.332031 C 1159.785156 332.78125 1169.621094 347.097656 1176.269531 363.878906 C 1177.832031 367.816406 1175.902344 372.277344 1171.964844 373.835938 C 1171.039062 374.203125 1170.082031 374.378906 1169.140625 374.378906 Z M 1169.140625 374.378906 " fill-opacity="1" fill-rule="nonzero"/><path fill="#ffbd91" d="M 1114.769531 459.753906 C 1110.730469 459.753906 1107.351562 456.597656 1107.117188 452.515625 C 1106.101562 434.476562 1101.765625 418.25 1094.21875 404.285156 C 1092.207031 400.558594 1093.59375 395.902344 1097.320312 393.890625 C 1101.042969 391.871094 1105.703125 393.257812 1107.714844 396.988281 C 1116.34375 412.953125 1121.292969 431.34375 1122.433594 451.652344 C 1122.671875 455.882812 1119.4375 459.507812 1115.207031 459.742188 C 1115.0625 459.75 1114.914062 459.753906 1114.769531 459.753906 Z M 1114.769531 459.753906 " fill-opacity="1" fill-rule="nonzero"/><path fill="#552d2d" d="M 600.71875 1121.089844 C 598.082031 1121.089844 595.511719 1119.726562 594.089844 1117.285156 C 586.453125 1104.210938 573.808594 1094.0625 559.394531 1089.445312 C 555.359375 1088.152344 553.136719 1083.832031 554.429688 1079.796875 C 555.722656 1075.765625 560.03125 1073.539062 564.074219 1074.832031 C 582.046875 1080.589844 597.816406 1093.242188 607.332031 1109.546875 C 609.46875 1113.207031 608.238281 1117.902344 604.578125 1120.039062 C 603.363281 1120.75 602.03125 1121.089844 600.71875 1121.089844 Z M 600.71875 1121.089844 " fill-opacity="1" fill-rule="nonzero"/><path fill="#fffcf6" d="M 1210.386719 966.273438 C 1210.386719 966.273438 1045.492188 1056.28125 1068.417969 1196.816406 C 1068.417969 1196.816406 1087.96875 1296.976562 1254.898438 1250.105469 C 1421.832031 1203.238281 1350.804688 1131.46875 1350.804688 1131.46875 C 1350.804688 1131.46875 1310.621094 968.179688 1210.386719 966.273438 Z M 1210.386719 966.273438 " fill-opacity="1" fill-rule="nonzero"/><path fill="#ffbd91" d="M 1117.917969 1050.554688 C 1181.308594 1087.828125 1228.34375 1158.292969 1242.351562 1236.972656 C 1242.972656 1240.472656 1243.519531 1244.203125 1242.351562 1247.519531 C 1239.953125 1254.347656 1232.050781 1255.824219 1225.511719 1256.109375 C 1197.609375 1257.328125 1169.609375 1255.816406 1141.941406 1251.589844 C 1127.449219 1249.375 1112.882812 1246.363281 1099.523438 1239.691406 C 1086.160156 1233.023438 1073.972656 1222.355469 1067.167969 1207.84375 C 1055.167969 1182.257812 1062.046875 1150.535156 1073.765625 1124.785156 C 1086.9375 1095.847656 1105.921875 1070.253906 1117.917969 1050.554688 Z M 1117.917969 1050.554688 " fill-opacity="1" fill-rule="nonzero"/><path fill="#552d2d" d="M 1165.910156 1265.171875 C 1133.492188 1265.171875 1099.65625 1259.910156 1077.777344 1233.464844 C 1050.339844 1200.300781 1055.121094 1150.277344 1068.746094 1114.527344 C 1095.5625 1044.167969 1155.726562 996.371094 1204.066406 957.96875 C 1207.382812 955.332031 1212.203125 955.882812 1214.84375 959.207031 C 1217.476562 962.523438 1216.925781 967.351562 1213.609375 969.984375 C 1166.734375 1007.222656 1108.398438 1053.566406 1083.085938 1119.992188 C 1071.550781 1150.253906 1066.335938 1195.566406 1089.597656 1223.683594 C 1110.121094 1248.492188 1144.410156 1250.789062 1178.363281 1249.589844 C 1214.863281 1248.292969 1253.738281 1245.417969 1290.699219 1233.269531 C 1318.199219 1224.234375 1356.648438 1205.664062 1383.664062 1168.519531 C 1413.402344 1127.640625 1420.992188 1076.234375 1422.125 1040.308594 C 1424.511719 964.769531 1397.488281 886.4375 1346.03125 819.734375 C 1343.445312 816.378906 1344.0625 811.5625 1347.417969 808.972656 C 1350.765625 806.386719 1355.589844 807.003906 1358.175781 810.363281 C 1411.800781 879.871094 1439.957031 961.707031 1437.457031 1040.789062 C 1436.257812 1078.871094 1428.101562 1133.507812 1396.070312 1177.546875 C 1372.777344 1209.566406 1338 1233.875 1295.488281 1247.847656 C 1256.710938 1260.59375 1216.539062 1263.585938 1178.910156 1264.921875 C 1174.625 1265.078125 1170.277344 1265.171875 1165.910156 1265.171875 Z M 1165.910156 1265.171875 " fill-opacity="1" fill-rule="nonzero"/><path fill="#552d2d" d="M 584.4375 1224.128906 C 556.964844 1224.132812 527.523438 1199.171875 521.863281 1169.765625 C 516.542969 1142.148438 525.246094 1110.949219 545.128906 1086.300781 C 564.988281 1061.683594 583.039062 1049.171875 607.4375 1043.109375 C 611.523438 1042.078125 615.707031 1044.589844 616.734375 1048.707031 C 617.75 1052.820312 615.246094 1056.980469 611.136719 1058 C 586.78125 1064.054688 571.90625 1077.542969 557.066406 1095.933594 C 540.234375 1116.796875 532.519531 1143.976562 536.925781 1166.859375 C 541.398438 1190.070312 567.21875 1211.144531 587.878906 1208.582031 C 592.101562 1208.078125 595.910156 1211.058594 596.425781 1215.265625 C 596.9375 1219.46875 593.945312 1223.296875 589.746094 1223.8125 C 587.988281 1224.027344 586.214844 1224.128906 584.4375 1224.128906 Z M 584.4375 1224.128906 " fill-opacity="1" fill-rule="nonzero"/><path fill="#552d2d" d="M 1078.847656 1229.582031 C 1078.8125 1229.582031 1078.773438 1229.582031 1078.734375 1229.582031 C 1027.625 1228.871094 973.238281 1227.796875 918.851562 1226.722656 C 864.496094 1225.652344 810.136719 1224.582031 759.050781 1223.867188 C 754.820312 1223.808594 751.429688 1220.328125 751.488281 1216.089844 C 751.550781 1211.851562 754.988281 1208.484375 759.269531 1208.523438 C 810.378906 1209.234375 864.765625 1210.308594 919.152344 1211.382812 C 973.511719 1212.453125 1027.867188 1213.523438 1078.953125 1214.238281 C 1083.183594 1214.296875 1086.574219 1217.777344 1086.515625 1222.015625 C 1086.457031 1226.21875 1083.03125 1229.582031 1078.847656 1229.582031 Z M 1078.847656 1229.582031 " fill-opacity="1" fill-rule="nonzero"/><path fill="#552d2d" d="M 1247.527344 341.570312 C 1246.167969 341.570312 1244.792969 341.207031 1243.546875 340.449219 C 1239.925781 338.246094 1238.78125 333.523438 1240.984375 329.90625 C 1256.863281 303.820312 1256.492188 274.808594 1239.996094 252.304688 C 1223.414062 229.699219 1195.339844 219.382812 1168.4375 226.011719 C 1150.910156 230.332031 1136.90625 240.476562 1126.816406 256.15625 C 1124.527344 259.722656 1119.773438 260.75 1116.21875 258.457031 C 1112.65625 256.164062 1111.628906 251.417969 1113.917969 247.851562 C 1126.199219 228.765625 1143.308594 216.40625 1164.769531 211.109375 C 1197.730469 202.988281 1232.101562 215.59375 1252.363281 243.230469 C 1272.667969 270.921875 1273.308594 306.304688 1254.085938 337.886719 C 1252.640625 340.257812 1250.113281 341.566406 1247.527344 341.570312 Z M 1247.527344 341.570312 " fill-opacity="1" fill-rule="nonzero"/><path fill="#552d2d" d="M 643.277344 1086.984375 C 641.578125 1086.984375 639.867188 1086.425781 638.441406 1085.269531 C 506.351562 977.882812 440.644531 842.230469 448.429688 692.984375 C 458.105469 507.324219 575.996094 348.679688 681.429688 279.847656 C 684.976562 277.53125 689.730469 278.527344 692.046875 282.078125 C 694.359375 285.628906 693.363281 290.382812 689.8125 292.695312 C 587.523438 359.476562 473.148438 513.472656 463.746094 693.785156 C 456.230469 837.9375 519.984375 969.191406 648.121094 1073.359375 C 651.40625 1076.03125 651.90625 1080.863281 649.234375 1084.152344 C 647.71875 1086.015625 645.507812 1086.984375 643.277344 1086.984375 Z M 643.277344 1086.984375 " fill-opacity="1" fill-rule="nonzero"/><path fill="#552d2d" d="M 773.183594 342.5625 C 772.429688 342.5625 771.664062 342.453125 770.914062 342.21875 C 734.5625 330.972656 706.675781 314.136719 688.035156 292.171875 C 664.375 264.292969 656.484375 226.964844 667.9375 197.0625 C 679.03125 168.085938 708.554688 146.46875 741.394531 143.265625 C 771.367188 140.359375 803.285156 152.128906 826.882812 174.773438 C 847.648438 194.703125 862.472656 223.289062 868.625 255.265625 C 869.425781 259.425781 866.703125 263.449219 862.542969 264.25 C 858.355469 265.058594 854.363281 262.324219 853.5625 258.164062 C 848.003906 229.28125 834.757812 203.597656 816.261719 185.847656 C 795.84375 166.253906 768.351562 156.046875 742.886719 158.539062 C 715.691406 161.1875 691.328125 178.878906 682.257812 202.550781 C 672.789062 227.296875 679.640625 258.574219 699.726562 282.238281 C 716.449219 301.945312 741.925781 317.191406 775.445312 327.558594 C 779.492188 328.808594 781.757812 333.105469 780.507812 337.15625 C 779.488281 340.449219 776.457031 342.5625 773.183594 342.5625 Z M 773.183594 342.5625 " fill-opacity="1" fill-rule="nonzero"/><path fill="#552d2d" d="M 819.25 279.570312 C 815.695312 279.570312 812.507812 277.085938 811.746094 273.46875 C 804.375 238.238281 773.136719 209.214844 737.46875 204.457031 C 733.269531 203.894531 730.316406 200.039062 730.878906 195.835938 C 731.4375 191.636719 735.335938 188.695312 739.496094 189.246094 C 781.402344 194.839844 818.101562 228.9375 826.765625 270.328125 C 827.628906 274.472656 824.972656 278.539062 820.828125 279.40625 C 820.296875 279.515625 819.769531 279.570312 819.25 279.570312 Z M 819.25 279.570312 " fill-opacity="1" fill-rule="nonzero"/><path fill="#552d2d" d="M 1215.011719 864.726562 C 1210.773438 864.726562 1207.339844 861.289062 1207.339844 857.050781 C 1207.339844 852.816406 1210.773438 849.378906 1215.011719 849.378906 C 1299.355469 849.378906 1373.597656 788.53125 1387.472656 733.925781 C 1395.320312 703.0625 1391.082031 666.542969 1374.871094 625.386719 C 1367.34375 606.28125 1357.9375 587.4375 1348.847656 569.210938 C 1340.996094 553.476562 1332.875 537.203125 1325.875 520.628906 C 1318.117188 502.246094 1311.554688 483.089844 1305.210938 464.5625 C 1293.59375 430.628906 1281.578125 395.539062 1262.042969 365.457031 C 1225.34375 308.929688 1160.128906 267.371094 1078.410156 248.433594 C 1007.554688 232.019531 933.238281 234.289062 861.335938 236.472656 L 853.445312 236.714844 C 849.242188 236.816406 845.671875 233.511719 845.546875 229.273438 C 845.417969 225.039062 848.75 221.503906 852.980469 221.375 L 860.867188 221.136719 C 933.730469 218.910156 1009.070312 216.617188 1081.871094 233.488281 C 1167.480469 253.324219 1236.035156 297.222656 1274.910156 357.097656 C 1295.476562 388.773438 1307.800781 424.773438 1319.722656 459.589844 C 1325.984375 477.867188 1332.457031 496.769531 1340.011719 514.65625 C 1346.820312 530.789062 1354.828125 546.839844 1362.570312 562.359375 C 1371.816406 580.878906 1381.371094 600.03125 1389.140625 619.761719 C 1406.554688 663.976562 1410.996094 703.660156 1402.34375 737.703125 C 1386.75 799.046875 1307.757812 864.726562 1215.011719 864.726562 Z M 1215.011719 864.726562 " fill-opacity="1" fill-rule="nonzero"/><path fill="#552d2d" d="M 1168.003906 624.207031 C 1151.304688 624.207031 1134.636719 611.121094 1120.339844 598.015625 C 1117.214844 595.15625 1117 590.300781 1119.863281 587.175781 C 1122.722656 584.054688 1127.574219 583.839844 1130.699219 586.703125 C 1142.828125 597.816406 1158.246094 610.375 1170.152344 608.71875 C 1174.496094 608.113281 1179.066406 605.398438 1183.039062 601.070312 C 1187.109375 596.628906 1190.304688 590.933594 1193.394531 585.425781 C 1195.46875 581.734375 1200.136719 580.414062 1203.835938 582.492188 C 1207.53125 584.5625 1208.84375 589.242188 1206.769531 592.9375 C 1203.417969 598.914062 1199.617188 605.683594 1194.34375 611.441406 C 1189.832031 616.363281 1182.339844 622.515625 1172.265625 623.917969 C 1170.847656 624.113281 1169.421875 624.207031 1168.003906 624.207031 Z M 1168.003906 624.207031 " fill-opacity="1" fill-rule="nonzero"/><path fill="#552d2d" d="M 1147.777344 666.710938 C 1145.386719 666.710938 1143.03125 665.597656 1141.53125 663.507812 C 1139.066406 660.0625 1139.859375 655.269531 1143.300781 652.800781 C 1152.585938 646.144531 1158.011719 633.722656 1159.433594 615.875 C 1159.773438 611.65625 1163.402344 608.507812 1167.691406 608.835938 C 1171.914062 609.175781 1175.0625 612.871094 1174.730469 617.097656 C 1172.929688 639.65625 1165.359375 655.863281 1152.234375 665.273438 C 1150.882812 666.242188 1149.324219 666.710938 1147.777344 666.710938 Z M 1147.777344 666.710938 " fill-opacity="1" fill-rule="nonzero"/><path fill="#fecb01" d="M 647.816406 835.175781 L 693.730469 667.050781 L 726.144531 558.785156 L 742.507812 465.363281 L 744.707031 451.292969 L 733.398438 437.675781 L 691.90625 433.238281 L 626.835938 423.964844 L 635.367188 336.203125 L 605.515625 328.542969 L 513.84375 330.582031 L 526.882812 243.339844 L 502.085938 241.570312 L 444.316406 231.695312 L 379.972656 227.300781 L 367.882812 239.980469 L 367.355469 309.070312 L 271.953125 305.824219 L 255.683594 249.472656 L 234.164062 254.203125 L 189.164062 264.21875 L 150.265625 275.429688 L 110.296875 278.214844 L 100.023438 290.332031 L 147.46875 424.128906 L 57.0625 450.195312 L 30.609375 459.503906 L 28.789062 477.964844 L 76.195312 560.175781 L 26.539062 581.339844 L 8.71875 591.894531 L 19.453125 619.339844 L 124.335938 797.980469 L 165.296875 879.191406 L 250.410156 948.875 L 362.039062 957.949219 L 457.523438 954.511719 L 568.535156 905.664062 Z M 647.816406 835.175781 " fill-opacity="1" fill-rule="nonzero"/><path fill="#552d2d" d="M 382.671875 873.300781 C 378.519531 873.300781 375.109375 869.988281 375.007812 865.816406 L 359.789062 243.199219 C 359.613281 236.148438 362.539062 229.421875 367.808594 224.742188 C 373.070312 220.074219 380.101562 217.972656 387.039062 218.976562 C 425.859375 224.582031 467.671875 229.882812 510.363281 230.71875 C 517.074219 230.851562 523.449219 233.824219 527.855469 238.878906 C 532.257812 243.933594 534.332031 250.660156 533.546875 257.328125 C 530.78125 280.835938 528.199219 305.722656 525.609375 330.625 L 525.523438 331.464844 C 525.085938 335.675781 521.386719 338.738281 517.101562 338.304688 C 512.886719 337.863281 509.828125 334.09375 510.265625 329.878906 L 510.351562 329.039062 C 512.945312 304.066406 515.535156 279.109375 518.3125 255.53125 C 518.597656 253.117188 517.878906 250.785156 516.289062 248.960938 C 514.699219 247.140625 512.492188 246.109375 510.0625 246.058594 C 466.421875 245.207031 422.273438 239.566406 384.84375 234.164062 C 382.332031 233.800781 379.898438 234.527344 377.992188 236.21875 C 376.109375 237.890625 375.058594 240.300781 375.121094 242.828125 L 390.339844 865.441406 C 390.445312 869.675781 387.097656 873.195312 382.859375 873.296875 C 382.796875 873.300781 382.734375 873.300781 382.671875 873.300781 Z M 382.671875 873.300781 " fill-opacity="1" fill-rule="nonzero"/><path fill="#552d2d" d="M 313.71875 852.707031 C 309.738281 852.707031 306.375 849.636719 306.078125 845.605469 C 292.996094 669.992188 267.957031 493.597656 231.660156 321.320312 C 230.457031 315.597656 231.890625 309.742188 235.601562 305.253906 C 239.292969 300.78125 244.597656 298.234375 250.546875 298.378906 C 257.410156 298.496094 264.453125 298.648438 271.636719 298.800781 C 302.023438 299.453125 333.425781 300.128906 365.332031 298.824219 C 369.535156 298.675781 373.136719 301.945312 373.308594 306.179688 C 373.480469 310.414062 370.191406 313.984375 365.957031 314.160156 C 333.570312 315.476562 300.488281 314.769531 271.308594 314.140625 C 264.144531 313.988281 257.121094 313.839844 250.277344 313.71875 C 248.953125 313.65625 247.84375 314.523438 247.429688 315.023438 C 247.007812 315.535156 246.347656 316.621094 246.671875 318.15625 C 283.109375 491.097656 308.242188 668.175781 321.371094 844.464844 C 321.6875 848.691406 318.519531 852.371094 314.292969 852.6875 C 314.097656 852.699219 313.90625 852.707031 313.71875 852.707031 Z M 313.71875 852.707031 " fill-opacity="1" fill-rule="nonzero"/><path fill="#552d2d" d="M 262.789062 809.425781 C 259.375 809.425781 256.261719 807.132812 255.367188 803.671875 C 211.050781 632.226562 156.667969 461.382812 93.742188 295.882812 C 91.746094 290.628906 92.195312 284.828125 94.976562 279.964844 C 97.753906 275.109375 102.511719 271.789062 108.03125 270.855469 C 155.980469 262.714844 199.121094 254.960938 241.515625 242.441406 C 246.875 240.855469 252.5 241.460938 257.382812 244.125 C 262.226562 246.777344 265.75 251.167969 267.296875 256.488281 C 271.800781 271.996094 275.9375 288.300781 279.9375 304.066406 C 280.984375 308.171875 278.503906 312.367188 274.398438 313.410156 C 270.292969 314.472656 266.121094 311.984375 265.082031 307.882812 L 265.070312 307.839844 C 261.101562 292.199219 257 276.027344 252.5625 260.769531 C 252.164062 259.394531 251.261719 258.265625 250.023438 257.585938 C 248.753906 256.894531 247.273438 256.738281 245.859375 257.160156 C 202.652344 269.914062 159.039062 277.757812 110.597656 285.980469 C 109.257812 286.207031 108.578125 287.082031 108.292969 287.585938 C 108.003906 288.09375 107.585938 289.136719 108.078125 290.429688 C 171.207031 456.453125 225.761719 627.839844 270.21875 799.832031 C 271.28125 803.933594 268.816406 808.121094 264.714844 809.179688 C 264.070312 809.347656 263.421875 809.425781 262.789062 809.425781 Z M 262.789062 809.425781 " fill-opacity="1" fill-rule="nonzero"/><path fill="#552d2d" d="M 201.675781 807.09375 C 198.851562 807.09375 196.136719 805.527344 194.792969 802.828125 C 135.578125 683.421875 78.851562 576.421875 21.367188 475.710938 C 18.679688 470.992188 18.253906 465.382812 20.203125 460.316406 C 22.15625 455.253906 26.230469 451.375 31.386719 449.679688 C 69.078125 437.308594 102.0625 427.960938 146.296875 415.996094 C 150.386719 414.882812 154.597656 417.3125 155.707031 421.402344 C 156.8125 425.492188 154.390625 429.703125 150.304688 430.808594 C 106.316406 442.707031 73.539062 451.996094 36.171875 464.261719 C 35.128906 464.601562 34.691406 465.390625 34.523438 465.828125 C 34.347656 466.269531 34.148438 467.148438 34.695312 468.105469 C 92.320312 569.074219 149.1875 676.335938 208.539062 796.007812 C 210.421875 799.804688 208.871094 804.410156 205.074219 806.292969 C 203.980469 806.835938 202.816406 807.09375 201.675781 807.09375 Z M 201.675781 807.09375 " fill-opacity="1" fill-rule="nonzero"/><path fill="#fd4734" d="M 635.28125 1220.222656 C 661.210938 1094.976562 664.839844 949.453125 673.4375 818.488281 C 674.199219 806.855469 664.925781 797.027344 653.273438 797.183594 C 591.472656 798.007812 533.628906 799.40625 475.785156 800.808594 C 459.308594 842.417969 419.40625 869.089844 378.210938 869.207031 C 337.019531 869.324219 296.964844 842.878906 280.878906 804.945312 C 228.960938 797.175781 123.054688 798.15625 71.761719 800.707031 C 66.335938 800.976562 62.089844 805.5 62.199219 810.929688 C 64.960938 946.792969 78.164062 1082.597656 101.28125 1223.382812 C 103.5 1236.882812 114.042969 1247.445312 127.488281 1249.957031 C 281.40625 1278.695312 448.886719 1286.367188 608.9375 1247.496094 C 622.257812 1244.261719 632.5 1233.648438 635.28125 1220.222656 Z M 635.28125 1220.222656 " fill-opacity="1" fill-rule="nonzero"/><path fill="#552d2d" d="M 129.191406 807.070312 C 126.566406 807.070312 124.015625 805.726562 122.582031 803.304688 L 3.40625 601.929688 C 0.628906 597.226562 0.0898438 591.582031 1.921875 586.433594 C 3.773438 581.261719 7.796875 577.207031 12.960938 575.316406 C 35.484375 567.070312 56.78125 561.386719 78.054688 557.949219 C 82.273438 557.269531 86.171875 560.121094 86.855469 564.300781 C 87.527344 568.484375 84.683594 572.421875 80.503906 573.097656 C 60.199219 576.378906 39.832031 581.816406 18.234375 589.726562 C 17.039062 590.164062 16.550781 591.085938 16.371094 591.597656 C 16.195312 592.09375 15.992188 593.074219 16.609375 594.117188 L 135.78125 795.488281 C 137.941406 799.132812 136.738281 803.839844 133.089844 806 C 131.863281 806.722656 130.519531 807.070312 129.191406 807.070312 Z M 129.191406 807.070312 " fill-opacity="1" fill-rule="nonzero"/><path fill="#552d2d" d="M 375.148438 1281.785156 C 295.992188 1281.785156 212.808594 1273.691406 126.082031 1257.5 C 109.4375 1254.394531 96.429688 1241.183594 93.710938 1224.625 C 70.074219 1080.671875 57.257812 945.402344 54.527344 811.085938 C 54.335938 801.449219 61.738281 793.523438 71.378906 793.042969 C 126.425781 790.308594 231.429688 789.789062 282.015625 797.359375 C 284.65625 797.753906 286.898438 799.492188 287.9375 801.953125 C 302.828125 837.0625 339.8125 861.535156 377.941406 861.535156 C 378.027344 861.535156 378.109375 861.535156 378.191406 861.535156 C 417.292969 861.421875 453.648438 835.882812 468.652344 797.984375 C 469.789062 795.121094 472.523438 793.214844 475.597656 793.136719 C 532.414062 791.765625 591.164062 790.339844 653.171875 789.511719 C 660.839844 789.496094 668.269531 792.542969 673.550781 798.109375 C 678.847656 803.691406 681.59375 811.300781 681.089844 818.992188 C 679.386719 844.910156 677.882812 871.402344 676.355469 898.195312 C 670.136719 1007.621094 663.699219 1120.792969 642.789062 1221.777344 C 639.429688 1238.019531 626.847656 1251.042969 610.742188 1254.949219 C 537.097656 1272.835938 458.351562 1281.785156 375.148438 1281.785156 Z M 155.761719 806.527344 C 124.386719 806.527344 94.21875 807.273438 72.140625 808.371094 C 70.863281 808.433594 69.84375 809.511719 69.871094 810.777344 C 72.582031 944.355469 85.332031 1078.914062 108.847656 1222.136719 C 110.523438 1232.339844 118.578125 1240.488281 128.898438 1242.417969 C 304.632812 1275.222656 465.527344 1274.425781 607.125 1240.039062 C 617.5 1237.523438 625.601562 1229.132812 627.769531 1218.667969 C 648.445312 1118.785156 654.851562 1006.199219 661.042969 897.324219 C 662.566406 870.484375 664.074219 843.949219 665.78125 817.984375 C 666.007812 814.5 664.816406 811.191406 662.425781 808.671875 C 660.042969 806.160156 656.972656 804.695312 653.375 804.855469 C 593.25 805.65625 536.15625 807.023438 480.921875 808.359375 C 462.546875 849.421875 421.898438 876.753906 378.234375 876.878906 C 378.144531 876.878906 378.039062 876.878906 377.945312 876.878906 C 335.296875 876.882812 293.890625 850.421875 275.621094 811.953125 C 245.886719 807.984375 199.644531 806.527344 155.761719 806.527344 Z M 155.761719 806.527344 " fill-opacity="1" fill-rule="nonzero"/><path fill="#552d2d" d="M 412.9375 868.878906 C 412.714844 868.878906 412.488281 868.867188 412.261719 868.847656 C 408.039062 868.476562 404.921875 864.753906 405.292969 860.535156 C 420.628906 685.734375 441.40625 512.550781 467.042969 345.789062 C 468.6875 335.066406 477.351562 326.917969 488.109375 325.980469 C 538.308594 321.601562 583.351562 321.324219 625.796875 325.121094 C 630.769531 325.566406 635.242188 327.964844 638.386719 331.871094 C 641.511719 335.753906 642.945312 340.8125 642.324219 345.746094 C 623.257812 497.054688 596.769531 649.273438 563.601562 798.160156 C 562.683594 802.296875 558.585938 804.910156 554.449219 803.980469 C 550.3125 803.058594 547.707031 798.957031 548.628906 794.820312 C 581.691406 646.402344 608.09375 494.664062 627.101562 343.824219 C 627.246094 342.695312 626.746094 341.878906 626.441406 341.496094 C 626.144531 341.128906 625.488281 340.5 624.433594 340.40625 C 582.878906 336.683594 538.722656 336.96875 489.441406 341.265625 C 485.808594 341.582031 482.765625 344.464844 482.203125 348.117188 C 456.621094 514.554688 435.882812 687.40625 420.570312 861.875 C 420.222656 865.867188 416.871094 868.878906 412.9375 868.878906 Z M 412.9375 868.878906 " fill-opacity="1" fill-rule="nonzero"/><path fill="#552d2d" d="M 656.621094 803.328125 C 655.820312 803.328125 655.003906 803.199219 654.199219 802.929688 C 650.179688 801.59375 648.007812 797.25 649.34375 793.230469 C 686.191406 682.488281 715.007812 568.035156 734.992188 453.046875 C 735.332031 451.082031 734.507812 449.648438 733.988281 448.96875 C 733.070312 447.777344 731.742188 447.046875 730.234375 446.910156 C 692.21875 443.5 651.925781 437.097656 622.457031 429.789062 C 618.347656 428.769531 615.839844 424.609375 616.859375 420.496094 C 617.878906 416.378906 622.039062 413.878906 626.152344 414.894531 C 654.902344 422.027344 694.324219 428.28125 731.605469 431.628906 C 737.347656 432.140625 742.652344 435.054688 746.15625 439.625 C 749.648438 444.175781 751.089844 450.023438 750.105469 455.675781 C 729.988281 571.414062 700.984375 686.613281 663.898438 798.074219 C 662.828125 801.292969 659.835938 803.328125 656.621094 803.328125 Z M 656.621094 803.328125 " fill-opacity="1" fill-rule="nonzero"/><path fill="#ffffff" d="M 428.269531 1006.429688 C 365.796875 996.164062 301.316406 1011.773438 247.675781 1050.15625 C 234.503906 1059.582031 221.128906 1071.726562 217 1089.90625 C 212.941406 1107.785156 219.175781 1127.796875 229.710938 1141.632812 C 240.246094 1155.464844 254.488281 1164.039062 268.824219 1170.65625 C 343.148438 1204.953125 426.609375 1193.214844 498.4375 1156.359375 C 510.191406 1150.328125 521.863281 1143.535156 531.539062 1133.425781 C 541.214844 1123.316406 548.816406 1109.476562 550.414062 1093.789062 C 552.71875 1071.132812 541.914062 1048.183594 526.8125 1034.289062 C 511.714844 1020.394531 492.964844 1014.226562 474.511719 1010.871094 C 456.058594 1007.515625 437.308594 1007.917969 428.269531 1006.429688 Z M 428.269531 1006.429688 " fill-opacity="1" fill-rule="nonzero"/><path fill="#552d2d" d="M 370.261719 1196.132812 C 282.265625 1196.132812 213.691406 1159.375 210.160156 1107.785156 C 206.34375 1051.945312 280.421875 1002.933594 378.796875 996.207031 C 477.207031 989.480469 557.234375 1027.945312 561.050781 1083.785156 C 562.933594 1111.265625 545.808594 1138.027344 512.832031 1159.136719 C 481.261719 1179.351562 438.496094 1192.21875 392.414062 1195.367188 C 384.921875 1195.878906 377.515625 1196.132812 370.261719 1196.132812 Z M 225.464844 1106.738281 C 228.589844 1152.421875 304.566406 1185.988281 391.367188 1180.058594 C 434.925781 1177.082031 475.125 1165.0625 504.5625 1146.214844 C 532.597656 1128.261719 547.226562 1106.464844 545.75 1084.835938 C 542.621094 1039.152344 466.632812 1005.597656 379.847656 1011.511719 C 293.042969 1017.449219 222.34375 1061.058594 225.464844 1106.738281 Z M 225.464844 1106.738281 " fill-opacity="1" fill-rule="nonzero"/><path fill="#fffcf6" d="M 677.425781 1055.03125 C 677.425781 1055.03125 530.085938 1129.460938 596.828125 1228.511719 C 596.828125 1228.511719 659.535156 1299.835938 791.734375 1190.550781 C 791.734375 1190.550781 820.109375 1043.480469 677.425781 1055.03125 Z M 677.425781 1055.03125 " fill-opacity="1" fill-rule="nonzero"/><path fill="#ffbd91" d="M 611.363281 1102.03125 C 656.246094 1124.800781 691.023438 1171.21875 703.277344 1224.707031 C 704.085938 1228.234375 704.796875 1231.984375 703.863281 1235.472656 C 701.738281 1243.40625 692.867188 1245.683594 685.523438 1246.609375 C 666.070312 1249.066406 646.15625 1251.5 627.097656 1246.492188 C 608.035156 1241.480469 589.660156 1227.496094 583.632812 1206.617188 C 580.132812 1194.484375 581.070312 1181.265625 583.523438 1168.816406 C 588.632812 1142.894531 600.261719 1118.628906 611.363281 1102.03125 Z M 611.363281 1102.03125 " fill-opacity="1" fill-rule="nonzero"/><path fill="#552d2d" d="M 649.960938 1257.796875 C 626.652344 1257.800781 608.066406 1250.945312 594.480469 1237.300781 C 576.386719 1219.125 568.765625 1188.347656 575.066406 1158.890625 C 581.65625 1128.089844 600.675781 1105.296875 615.476562 1091.59375 C 634.015625 1074.4375 655.332031 1062.144531 675.941406 1050.257812 C 679.601562 1048.140625 684.300781 1049.398438 686.414062 1053.070312 C 688.53125 1056.742188 687.273438 1061.433594 683.601562 1063.550781 C 663.722656 1075.015625 643.167969 1086.867188 625.898438 1102.855469 C 612.726562 1115.050781 595.816406 1135.226562 590.070312 1162.097656 C 584.910156 1186.234375 591.046875 1212.105469 605.351562 1226.472656 C 620.359375 1241.546875 644.183594 1245.980469 676.195312 1239.652344 C 715.769531 1231.820312 754.082031 1213.964844 786.984375 1188.011719 C 790.304688 1185.386719 795.132812 1185.957031 797.753906 1189.285156 C 800.375 1192.609375 799.808594 1197.433594 796.480469 1200.058594 C 761.683594 1227.507812 721.121094 1246.402344 679.167969 1254.703125 C 668.738281 1256.769531 658.992188 1257.796875 649.960938 1257.796875 Z M 649.960938 1257.796875 " fill-opacity="1" fill-rule="nonzero"/></svg>