<svg xmlns="http://www.w3.org/2000/svg" xmlns:xlink="http://www.w3.org/1999/xlink" width="1920" zoomAndPan="magnify" viewBox="0 0 1440 1439.999935" height="1920" preserveAspectRatio="xMidYMid meet" version="1.0"><path fill="#fffcf6" d="M 1171.160156 727.4375 C 1197.472656 745.925781 1224.742188 763.511719 1247.328125 786.402344 C 1269.914062 809.289062 1287.789062 838.503906 1290.265625 870.5625 C 1292.742188 902.621094 1276.949219 937.207031 1247.644531 950.445312 C 1291.988281 999.96875 1336.332031 1049.492188 1380.675781 1099.011719 C 1390.863281 1110.390625 1401.164062 1121.929688 1408.136719 1135.515625 C 1415.109375 1149.101562 1418.492188 1165.191406 1414.0625 1179.804688 C 1407.503906 1201.445312 1385.664062 1214.933594 1363.96875 1221.320312 C 1322.855469 1233.421875 1276.507812 1226.304688 1240.921875 1202.417969 C 1217.945312 1186.996094 1199.867188 1165.46875 1182.121094 1144.238281 C 1140.230469 1161.65625 1097.933594 1171.25 1055.148438 1174.507812 C 1059.277344 1202.96875 1045.339844 1232.046875 1023.144531 1248.679688 C 1000.949219 1265.308594 972.007812 1270.863281 944.304688 1269.503906 C 916.601562 1268.140625 889.65625 1260.433594 863 1252.773438 C 775.988281 1229.898438 695.605469 1182.976562 636.648438 1115.894531 C 577.691406 1048.816406 541.109375 961.28125 540.101562 871.988281 C 539.09375 782.691406 574.941406 692.5625 644.929688 628.476562 C 794.769531 605.671875 948.964844 611.84375 1096.503906 646.550781 C 1128.550781 654.089844 1161.042969 663.308594 1171.160156 727.4375 Z M 1171.160156 727.4375 " fill-opacity="1" fill-rule="nonzero"/><path fill="#fffcf6" d="M 1285.546875 643.363281 C 1235.191406 735.90625 1187.328125 743.683594 1158.375 764.125 C 1100.863281 804.726562 1153.570312 1352.085938 751.542969 1247.65625 C 491.617188 1199.617188 377.9375 1129.816406 303.960938 1025.144531 C 259.804688 962.660156 162.085938 805.964844 305.007812 495.371094 C 329.917969 443.210938 430.511719 292.085938 474.128906 251.851562 C 455.191406 220.375 455.59375 178.261719 475.132812 147.15625 C 494.671875 116.050781 532.4375 97.394531 569.015625 100.78125 C 605.59375 104.171875 631.5 135.292969 644.992188 169.460938 C 676.921875 159.332031 717.933594 154.792969 751.285156 151.644531 C 827.316406 138.828125 905.667969 147.058594 935.601562 156.238281 C 1036.828125 187.285156 1049 161.171875 1169.355469 359.792969 C 1254.910156 500.992188 1289.066406 546.875 1285.546875 643.363281 Z M 1285.546875 643.363281 " fill-opacity="1" fill-rule="nonzero"/><path fill="#fffcf6" d="M 1073.734375 218.167969 C 1085.765625 194.039062 1083.792969 163.515625 1068.753906 141.136719 C 1053.71875 118.753906 1026.203125 105.390625 999.3125 107.40625 C 972.421875 109.425781 947.210938 126.742188 935.679688 151.117188 C 983.339844 167.417969 1029.011719 189.53125 1073.734375 218.167969 Z M 1073.734375 218.167969 " fill-opacity="1" fill-rule="nonzero"/><path fill="#f09a61" d="M 1244.921875 480.007812 C 1247.816406 504.574219 1226.503906 526.867188 1202.957031 532.191406 C 1179.414062 537.519531 1154.949219 529.871094 1132.847656 519.980469 C 1110.75 510.085938 1089.316406 497.757812 1065.65625 492.996094 C 1012.660156 482.339844 960.414062 511.140625 914.339844 540.054688 C 868.265625 568.96875 818.367188 600.242188 764.605469 595.007812 C 720.941406 590.757812 683.285156 563.003906 642.222656 547.1875 C 573.539062 520.734375 110.289062 661.828125 460.242188 1157.828125 C 0.0351562 900.078125 347.027344 358.84375 486.257812 249.730469 C 457.753906 230.609375 446.191406 190.683594 458.078125 158.488281 C 469.964844 126.292969 503.074219 103.804688 537.367188 102.375 C 571.660156 100.945312 605.550781 119.515625 624.789062 147.9375 C 629.578125 155.011719 633.898438 163 641.394531 167.101562 C 650.875 172.292969 662.523438 169.769531 673.078125 167.433594 C 758.875 148.46875 847.78125 151.085938 936.730469 153.273438 C 934.988281 137.800781 946.796875 123.796875 960.230469 115.925781 C 989.113281 99 1028.675781 102.8125 1053.796875 124.941406 C 1078.917969 147.074219 1087.679688 185.835938 1074.667969 215.972656 C 1141.578125 298.191406 1176.355469 402.820312 1244.921875 480.007812 Z M 1244.921875 480.007812 " fill-opacity="1" fill-rule="nonzero"/><path fill="#552d2d" d="M 824.453125 506.207031 C 811.164062 514.601562 797.144531 523.828125 790.894531 538.246094 C 788.710938 543.273438 787.664062 549.289062 790.261719 554.117188 C 792.980469 559.167969 799.113281 561.617188 804.84375 561.507812 C 810.578125 561.402344 816.039062 559.195312 821.308594 556.933594 C 832.820312 551.992188 844.1875 546.632812 854.84375 540.050781 C 860.992188 536.25 867.039062 531.898438 870.976562 525.835938 C 874.910156 519.773438 876.359375 511.644531 872.972656 505.261719 C 869.257812 498.265625 860.648438 495.027344 852.738281 495.398438 C 844.828125 495.773438 836.941406 498.320312 824.453125 506.207031 Z M 824.453125 506.207031 " fill-opacity="1" fill-rule="nonzero"/><path fill="#552d2d" d="M 1180.46875 457.535156 C 1194.550781 464.511719 1209.453125 472.242188 1217.15625 485.933594 C 1219.84375 490.714844 1221.507812 496.589844 1219.421875 501.660156 C 1217.242188 506.960938 1211.394531 510.03125 1205.679688 510.515625 C 1199.96875 511.003906 1194.304688 509.367188 1188.832031 507.664062 C 1176.871094 503.941406 1165.011719 499.78125 1153.734375 494.332031 C 1147.226562 491.1875 1140.761719 487.484375 1136.21875 481.859375 C 1131.679688 476.234375 1129.398438 468.300781 1132.113281 461.601562 C 1135.082031 454.261719 1143.308594 450.148438 1151.21875 449.703125 C 1159.125 449.257812 1167.234375 450.976562 1180.46875 457.535156 Z M 1180.46875 457.535156 " fill-opacity="1" fill-rule="nonzero"/><path fill="#f8c7d0" d="M 524.964844 152.109375 C 558.519531 154.367188 590.398438 174.207031 607.246094 203.3125 C 612.402344 212.226562 616.179688 223.464844 611.40625 232.589844 C 606.929688 241.148438 596.519531 244.6875 586.921875 245.78125 C 560.070312 248.84375 532.011719 238.015625 514.175781 217.714844 C 505.039062 207.3125 498.367188 193.832031 499.601562 180.042969 C 500.832031 166.257812 511.84375 151.226562 524.964844 152.109375 Z M 524.964844 152.109375 " fill-opacity="1" fill-rule="nonzero"/><path fill="#f8c7d0" d="M 783.507812 600.066406 C 783.507812 601.484375 783.441406 602.898438 783.300781 604.308594 C 783.164062 605.722656 782.953125 607.121094 782.675781 608.511719 C 782.402344 609.902344 782.058594 611.277344 781.644531 612.632812 C 781.234375 613.992188 780.757812 615.324219 780.214844 616.632812 C 779.671875 617.945312 779.066406 619.222656 778.398438 620.476562 C 777.730469 621.726562 777 622.941406 776.210938 624.117188 C 775.425781 625.296875 774.582031 626.433594 773.679688 627.53125 C 772.78125 628.628906 771.832031 629.675781 770.828125 630.679688 C 769.824219 631.683594 768.777344 632.632812 767.679688 633.53125 C 766.582031 634.433594 765.445312 635.277344 764.265625 636.0625 C 763.085938 636.851562 761.871094 637.578125 760.621094 638.246094 C 759.371094 638.917969 758.089844 639.523438 756.78125 640.0625 C 755.46875 640.605469 754.136719 641.085938 752.78125 641.496094 C 751.421875 641.90625 750.050781 642.25 748.660156 642.527344 C 747.265625 642.804688 745.867188 643.011719 744.457031 643.152344 C 743.042969 643.289062 741.628906 643.359375 740.210938 643.359375 C 738.792969 643.359375 737.378906 643.289062 735.96875 643.152344 C 734.554688 643.011719 733.15625 642.804688 731.765625 642.527344 C 730.375 642.25 729 641.90625 727.640625 641.496094 C 726.285156 641.085938 724.953125 640.605469 723.640625 640.0625 C 722.332031 639.523438 721.050781 638.917969 719.800781 638.246094 C 718.550781 637.578125 717.335938 636.851562 716.15625 636.0625 C 714.976562 635.277344 713.839844 634.433594 712.742188 633.53125 C 711.648438 632.632812 710.597656 631.683594 709.59375 630.679688 C 708.59375 629.675781 707.640625 628.628906 706.742188 627.53125 C 705.839844 626.433594 704.996094 625.296875 704.210938 624.117188 C 703.421875 622.941406 702.695312 621.726562 702.023438 620.476562 C 701.355469 619.222656 700.75 617.945312 700.207031 616.632812 C 699.664062 615.324219 699.1875 613.992188 698.777344 612.632812 C 698.367188 611.277344 698.019531 609.902344 697.746094 608.511719 C 697.46875 607.121094 697.261719 605.722656 697.121094 604.308594 C 696.980469 602.898438 696.914062 601.484375 696.914062 600.066406 C 696.914062 598.648438 696.980469 597.234375 697.121094 595.824219 C 697.261719 594.410156 697.46875 593.011719 697.746094 591.621094 C 698.019531 590.230469 698.367188 588.855469 698.777344 587.5 C 699.1875 586.140625 699.664062 584.808594 700.207031 583.5 C 700.75 582.1875 701.355469 580.910156 702.027344 579.65625 C 702.695312 578.40625 703.421875 577.191406 704.210938 576.011719 C 704.996094 574.835938 705.839844 573.695312 706.742188 572.601562 C 707.640625 571.503906 708.59375 570.457031 709.59375 569.453125 C 710.597656 568.449219 711.648438 567.5 712.742188 566.601562 C 713.839844 565.699219 714.976562 564.855469 716.15625 564.070312 C 717.335938 563.28125 718.550781 562.554688 719.800781 561.882812 C 721.050781 561.214844 722.332031 560.609375 723.640625 560.066406 C 724.953125 559.527344 726.285156 559.046875 727.640625 558.636719 C 729 558.226562 730.375 557.882812 731.765625 557.605469 C 733.15625 557.328125 734.554688 557.121094 735.96875 556.980469 C 737.378906 556.84375 738.792969 556.773438 740.210938 556.773438 C 741.628906 556.773438 743.042969 556.84375 744.457031 556.980469 C 745.867188 557.121094 747.265625 557.328125 748.660156 557.605469 C 750.050781 557.882812 751.421875 558.226562 752.78125 558.636719 C 754.136719 559.046875 755.46875 559.527344 756.78125 560.066406 C 758.089844 560.609375 759.371094 561.214844 760.621094 561.882812 C 761.871094 562.554688 763.085938 563.28125 764.265625 564.070312 C 765.445312 564.855469 766.582031 565.699219 767.679688 566.601562 C 768.777344 567.5 769.824219 568.449219 770.828125 569.453125 C 771.832031 570.457031 772.78125 571.503906 773.679688 572.601562 C 774.582031 573.695312 775.425781 574.835938 776.210938 576.011719 C 777 577.191406 777.730469 578.40625 778.398438 579.65625 C 779.066406 580.910156 779.671875 582.1875 780.214844 583.5 C 780.757812 584.808594 781.234375 586.140625 781.644531 587.5 C 782.058594 588.855469 782.402344 590.230469 782.675781 591.621094 C 782.953125 593.011719 783.164062 594.410156 783.300781 595.824219 C 783.441406 597.234375 783.507812 598.648438 783.507812 600.066406 Z M 783.507812 600.066406 " fill-opacity="1" fill-rule="nonzero"/><path fill="#f8c7d0" d="M 1059.269531 491.371094 C 1046.671875 483.832031 1031.539062 480.613281 1016.964844 482.378906 C 1002.386719 484.140625 988.460938 490.871094 978.023438 501.199219 C 985.316406 509.101562 992.738281 517.113281 1001.921875 522.707031 C 1011.109375 528.304688 1022.453125 531.265625 1032.765625 528.210938 C 1047.605469 523.820312 1056.261719 508.835938 1059.269531 491.371094 Z M 1059.269531 491.371094 " fill-opacity="1" fill-rule="nonzero"/><path fill="#ffbd91" d="M 789.535156 255.179688 C 787.203125 255.179688 784.886719 254.175781 783.285156 252.238281 C 768.628906 234.476562 751.527344 219.371094 732.457031 207.347656 C 728.671875 204.96875 727.539062 199.964844 729.925781 196.183594 C 732.304688 192.398438 737.300781 191.261719 741.089844 193.65625 C 761.621094 206.597656 780.019531 222.839844 795.777344 241.929688 C 798.621094 245.386719 798.132812 250.484375 794.679688 253.328125 C 793.175781 254.570312 791.347656 255.179688 789.535156 255.179688 Z M 789.535156 255.179688 " fill-opacity="1" fill-rule="nonzero"/><path fill="#ffbd91" d="M 885.867188 226.886719 C 884.210938 226.886719 882.542969 226.382812 881.097656 225.332031 L 842.1875 196.921875 C 838.578125 194.28125 837.789062 189.222656 840.425781 185.609375 C 843.066406 182.003906 848.113281 181.207031 851.738281 183.847656 L 890.648438 212.257812 C 894.257812 214.894531 895.046875 219.957031 892.410156 223.566406 C 890.828125 225.734375 888.363281 226.886719 885.867188 226.886719 Z M 885.867188 226.886719 " fill-opacity="1" fill-rule="nonzero"/><path fill="#ffbd91" d="M 871.753906 328.140625 C 869.335938 328.140625 866.945312 327.058594 865.347656 325.003906 L 839.636719 291.769531 C 836.902344 288.230469 837.550781 283.148438 841.089844 280.410156 C 844.621094 277.683594 849.710938 278.332031 852.445312 281.859375 L 878.152344 315.089844 C 880.890625 318.632812 880.242188 323.714844 876.703125 326.449219 C 875.230469 327.589844 873.484375 328.140625 871.753906 328.140625 Z M 871.753906 328.140625 " fill-opacity="1" fill-rule="nonzero"/><path fill="#ffbd91" d="M 995.226562 274.871094 C 992.402344 274.871094 989.664062 273.390625 988.175781 270.769531 C 980.03125 256.382812 969.363281 244.683594 956.46875 235.988281 C 952.761719 233.488281 951.785156 228.453125 954.28125 224.746094 C 956.785156 221.046875 961.820312 220.066406 965.519531 222.5625 C 980.507812 232.675781 992.875 246.207031 1002.261719 262.785156 C 1004.464844 266.679688 1003.097656 271.613281 999.207031 273.820312 C 997.945312 274.53125 996.578125 274.871094 995.226562 274.871094 Z M 995.226562 274.871094 " fill-opacity="1" fill-rule="nonzero"/><path fill="#ffbd91" d="M 950.746094 371.972656 C 946.953125 371.972656 943.566406 369.300781 942.808594 365.4375 C 939.136719 346.734375 932.246094 330.402344 922.339844 316.910156 C 919.695312 313.304688 920.46875 308.238281 924.074219 305.589844 C 927.675781 302.957031 932.742188 303.722656 935.390625 307.328125 C 946.714844 322.757812 954.558594 341.261719 958.699219 362.320312 C 959.558594 366.707031 956.703125 370.960938 952.3125 371.824219 C 951.789062 371.925781 951.261719 371.972656 950.746094 371.972656 Z M 950.746094 371.972656 " fill-opacity="1" fill-rule="nonzero"/><path fill="#ffbd91" d="M 1383.3125 1102.558594 C 1325.941406 1116.910156 1275.25 1156.132812 1246.957031 1208.058594 C 1277.210938 1221.207031 1310.945312 1226.246094 1343.722656 1222.519531 C 1358.878906 1220.796875 1374.105469 1217.117188 1387.066406 1209.074219 C 1400.027344 1201.035156 1410.535156 1188.164062 1413.164062 1173.144531 C 1417.625 1147.660156 1399.605469 1124.253906 1383.3125 1102.558594 Z M 1383.3125 1102.558594 " fill-opacity="1" fill-rule="nonzero"/><path fill="#552d2d" d="M 1072.417969 229.226562 C 1071.34375 229.226562 1070.25 229.015625 1069.199219 228.554688 C 1065.097656 226.777344 1063.214844 222.011719 1064.992188 217.917969 C 1077.816406 188.351562 1073.230469 158.09375 1052.71875 136.960938 C 1032.117188 115.734375 1001.246094 109.015625 974.105469 119.84375 C 956.402344 126.90625 943.230469 139.535156 934.960938 157.378906 C 933.078125 161.445312 928.261719 163.183594 924.210938 161.320312 C 920.15625 159.445312 918.390625 154.628906 920.273438 150.574219 C 930.335938 128.851562 946.433594 113.453125 968.105469 104.808594 C 1001.371094 91.527344 1039.148438 99.738281 1064.335938 125.6875 C 1089.578125 151.683594 1095.371094 188.566406 1079.847656 224.351562 C 1078.523438 227.410156 1075.542969 229.226562 1072.417969 229.226562 Z M 1072.417969 229.226562 " fill-opacity="1" fill-rule="nonzero"/><path fill="#552d2d" d="M 576.660156 298.988281 C 576.226562 298.988281 575.785156 298.957031 575.339844 298.886719 C 535.710938 292.394531 504.117188 278.839844 481.445312 258.585938 C 452.675781 232.878906 439.023438 195.007812 446.664062 162.105469 C 454.066406 130.210938 481.800781 103.34375 515.667969 95.238281 C 546.539062 87.859375 581.65625 95.53125 609.609375 115.785156 C 634.207031 133.605469 653.84375 161.332031 664.90625 193.855469 C 666.34375 198.089844 664.078125 202.683594 659.84375 204.121094 C 655.613281 205.59375 651.015625 203.300781 649.574219 199.070312 C 639.585938 169.6875 622.015625 144.769531 600.105469 128.890625 C 575.929688 111.378906 545.757812 104.664062 519.441406 110.984375 C 491.394531 117.691406 468.488281 139.710938 462.4375 165.761719 C 456.109375 192.992188 467.808594 224.691406 492.234375 246.507812 C 512.574219 264.679688 541.414062 276.925781 577.957031 282.902344 C 582.371094 283.628906 585.363281 287.785156 584.636719 292.199219 C 583.988281 296.167969 580.554688 298.988281 576.660156 298.988281 Z M 576.660156 298.988281 " fill-opacity="1" fill-rule="nonzero"/><path fill="#552d2d" d="M 615.699219 226.484375 C 612.378906 226.484375 609.265625 224.429688 608.078125 221.117188 C 595.320312 185.507812 558.683594 159.757812 520.855469 159.757812 C 520.695312 159.757812 520.503906 159.769531 520.382812 159.757812 C 515.933594 159.757812 512.3125 156.160156 512.289062 151.703125 C 512.265625 147.234375 515.871094 143.589844 520.339844 143.566406 C 564.765625 143.457031 608.273438 173.652344 623.320312 215.664062 C 624.828125 219.867188 622.640625 224.5 618.429688 226.011719 C 617.53125 226.335938 616.605469 226.484375 615.699219 226.484375 Z M 615.699219 226.484375 " fill-opacity="1" fill-rule="nonzero"/><path fill="#552d2d" d="M 1166.65625 761.144531 C 1163.296875 761.144531 1160.160156 759.042969 1159 755.683594 C 1157.546875 751.460938 1159.796875 746.851562 1164.019531 745.398438 C 1225.300781 724.308594 1270.570312 673.480469 1276.667969 618.914062 C 1280.398438 585.523438 1270.671875 547.976562 1247.765625 507.3125 C 1237.128906 488.425781 1224.5625 470.089844 1212.414062 452.359375 C 1201.929688 437.054688 1191.085938 421.238281 1181.375 404.929688 C 1170.597656 386.851562 1160.96875 367.785156 1151.652344 349.34375 C 1134.59375 315.554688 1116.945312 280.625 1092.167969 252.007812 C 1045.605469 198.257812 971.40625 164.273438 883.234375 156.324219 C 806.789062 149.421875 729.410156 162.558594 654.589844 175.269531 L 646.34375 176.667969 C 641.886719 177.363281 637.753906 174.4375 637.011719 170.035156 C 636.261719 165.628906 639.230469 161.453125 643.640625 160.703125 L 651.878906 159.304688 C 727.722656 146.429688 806.167969 133.125 884.6875 140.199219 C 977.058594 148.527344 1055.089844 184.46875 1104.402344 241.417969 C 1130.496094 271.542969 1148.597656 307.382812 1166.109375 342.046875 C 1175.292969 360.234375 1184.796875 379.046875 1195.28125 396.644531 C 1204.734375 412.507812 1215.429688 428.113281 1225.773438 443.210938 C 1238.117188 461.226562 1250.886719 479.867188 1261.871094 499.359375 C 1286.480469 543.050781 1296.871094 583.878906 1292.757812 620.714844 C 1285.984375 681.359375 1236.367188 737.621094 1169.292969 760.703125 C 1168.421875 761.003906 1167.53125 761.144531 1166.65625 761.144531 Z M 1166.65625 761.144531 " fill-opacity="1" fill-rule="nonzero"/><path fill="#552d2d" d="M 1026.433594 536.378906 C 1010.3125 536.378906 992.988281 526.125 977.699219 515.582031 C 974.019531 513.042969 973.09375 508 975.632812 504.316406 C 978.179688 500.648438 983.21875 499.722656 986.894531 502.253906 C 1001.1875 512.109375 1019.171875 522.964844 1031.332031 519.550781 C 1035.78125 518.292969 1040.171875 514.789062 1043.691406 509.691406 C 1047.292969 504.484375 1049.816406 498.054688 1052.257812 491.84375 C 1053.894531 487.675781 1058.605469 485.644531 1062.75 487.265625 C 1066.910156 488.902344 1068.960938 493.597656 1067.328125 497.753906 C 1064.550781 504.832031 1061.675781 512.140625 1057.011719 518.894531 C 1053.011719 524.6875 1046.074219 532.203125 1035.738281 535.121094 C 1032.699219 535.984375 1029.589844 536.378906 1026.433594 536.378906 Z M 1026.433594 536.378906 " fill-opacity="1" fill-rule="nonzero"/><path fill="#552d2d" d="M 1015.21875 583.476562 C 1013.078125 583.476562 1010.941406 582.628906 1009.347656 580.953125 C 1006.269531 577.714844 1006.402344 572.589844 1009.644531 569.515625 C 1018.386719 561.207031 1022.261719 547.4375 1021.164062 528.578125 C 1020.90625 524.117188 1024.316406 520.292969 1028.777344 520.03125 C 1033.21875 519.816406 1037.070312 523.175781 1037.332031 527.644531 C 1038.714844 551.476562 1033.152344 569.515625 1020.792969 581.246094 C 1019.226562 582.742188 1017.222656 583.476562 1015.21875 583.476562 Z M 1015.21875 583.476562 " fill-opacity="1" fill-rule="nonzero"/><path fill="#fffcf6" d="M 1293.652344 874.417969 C 1297.394531 861.964844 1289.097656 848.296875 1277.628906 842.164062 C 1266.160156 836.027344 1252.457031 835.871094 1239.511719 837.164062 C 1219.445312 839.164062 1199.691406 844.304688 1181.191406 852.335938 C 1165.21875 859.269531 1149.769531 868.730469 1139.574219 882.839844 C 1129.375 896.953125 1125.335938 916.425781 1132.828125 932.144531 C 1140.128906 947.464844 1156.683594 956.433594 1173.238281 960.167969 C 1201.660156 966.585938 1232.757812 959.941406 1256.078125 942.476562 C 1279.398438 925.011719 1287.136719 896.09375 1293.652344 874.417969 Z M 1293.652344 874.417969 " fill-opacity="1" fill-rule="nonzero"/><path fill="#ffbd91" d="M 1166.515625 855.675781 C 1197.464844 882.066406 1219.859375 918.332031 1229.59375 957.820312 C 1208.300781 962.0625 1186.097656 961.6875 1164.957031 956.730469 C 1150.792969 953.40625 1135.777344 946.839844 1129.832031 933.558594 C 1125.617188 924.136719 1126.882812 913.214844 1129.183594 903.152344 C 1131.726562 892.042969 1135.550781 880.976562 1142.546875 871.980469 C 1149.542969 862.984375 1160.125 856.265625 1166.515625 855.675781 Z M 1166.515625 855.675781 " fill-opacity="1" fill-rule="nonzero"/><path fill="#552d2d" d="M 1189.46875 969.976562 C 1158.113281 969.976562 1135.09375 959.816406 1124.511719 941.25 C 1111 917.558594 1121.941406 888.230469 1139.730469 871.511719 C 1157.453125 854.855469 1180.96875 847.332031 1201.710938 840.699219 C 1205.941406 839.339844 1210.527344 841.679688 1211.890625 845.941406 C 1213.25 850.199219 1210.902344 854.753906 1206.644531 856.113281 C 1187.53125 862.230469 1165.875 869.15625 1150.824219 883.304688 C 1137.972656 895.386719 1129.316406 916.988281 1138.578125 933.234375 C 1149.046875 951.605469 1176.046875 953.945312 1191.34375 953.769531 C 1221.847656 953.335938 1245.316406 945.738281 1261.089844 931.210938 C 1280.925781 912.933594 1288.953125 880.648438 1281.0625 850.871094 C 1272.242188 817.578125 1247.898438 793.347656 1229.027344 778.890625 C 1214.25 767.554688 1201.316406 760.332031 1183.976562 751.667969 C 1179.976562 749.667969 1178.351562 744.804688 1180.351562 740.804688 C 1182.34375 736.8125 1187.195312 735.195312 1191.210938 737.183594 C 1208.972656 746.054688 1223.140625 753.976562 1238.875 766.039062 C 1259.746094 782.039062 1286.726562 809.023438 1296.714844 846.730469 C 1306.246094 882.699219 1296.574219 920.53125 1272.066406 943.113281 C 1253.269531 960.425781 1226.1875 969.460938 1191.574219 969.960938 C 1190.867188 969.96875 1190.164062 969.976562 1189.46875 969.976562 Z M 1189.46875 969.976562 " fill-opacity="1" fill-rule="nonzero"/><path fill="#fffcf6" d="M 906.503906 1043.671875 C 906.503906 1043.671875 717.148438 1062.6875 735.882812 1244.699219 C 735.882812 1244.699219 916.632812 1282.742188 1007.640625 1258.070312 C 1098.644531 1233.398438 1017.984375 1124.726562 1017.984375 1124.726562 Z M 906.503906 1043.671875 " fill-opacity="1" fill-rule="nonzero"/><path fill="#ffbd91" d="M 984.335938 1101.417969 C 932.535156 1135.097656 896.917969 1192.574219 889.816406 1253.945312 C 919.972656 1261.972656 951.378906 1269.054688 982.160156 1263.917969 C 1012.9375 1258.785156 1043.175781 1238.625 1051.199219 1208.472656 C 1057.460938 1184.933594 1049.136719 1159.246094 1034.039062 1140.128906 C 1018.941406 1121.015625 997.796875 1107.609375 984.335938 1101.417969 Z M 984.335938 1101.417969 " fill-opacity="1" fill-rule="nonzero"/><path fill="#552d2d" d="M 956.800781 1273.554688 C 950.421875 1273.554688 944.066406 1273.363281 937.839844 1273.101562 C 735.519531 1264.777344 573.203125 1228.226562 455.394531 1164.449219 C 351.859375 1108.398438 282.058594 1031.277344 247.929688 935.234375 C 197.472656 793.222656 235.371094 642.621094 276.050781 541.28125 C 322.402344 425.828125 397.753906 312.949219 472.714844 246.707031 C 476.058594 243.75 481.183594 244.058594 484.136719 247.410156 C 487.101562 250.761719 486.785156 255.875 483.433594 258.832031 C 340.773438 384.921875 180.257812 696.414062 263.1875 929.8125 C 333.796875 1128.546875 567.320312 1241.65625 938.503906 1256.929688 C 971.84375 1258.289062 1009.09375 1257.765625 1028.890625 1233.808594 C 1053.589844 1203.917969 1037.207031 1154.523438 1007.867188 1125.898438 C 991.945312 1110.363281 973.4375 1098.351562 953.84375 1085.632812 C 935.96875 1074.027344 917.480469 1062.019531 901.328125 1047.175781 C 898.035156 1044.144531 897.824219 1039.023438 900.847656 1035.734375 C 903.875 1032.445312 909 1032.226562 912.285156 1035.253906 C 927.4375 1049.183594 945.34375 1060.808594 962.664062 1072.050781 C 982.054688 1084.644531 1002.109375 1097.664062 1019.171875 1114.308594 C 1054.40625 1148.6875 1072.34375 1206.636719 1041.375 1244.117188 C 1020.957031 1268.824219 988.566406 1273.554688 956.800781 1273.554688 Z M 956.800781 1273.554688 " fill-opacity="1" fill-rule="nonzero"/><path fill="#552d2d" d="M 1325.757812 1234.992188 C 1271.421875 1235 1216.652344 1207.191406 1186.785156 1160.039062 C 1185.390625 1157.839844 1182.414062 1157.042969 1179.707031 1158.164062 C 1140.917969 1174.085938 1093.265625 1182.511719 1048.941406 1181.523438 C 1044.476562 1181.414062 1040.9375 1177.707031 1041.046875 1173.234375 C 1041.160156 1168.765625 1044.941406 1165.589844 1049.335938 1165.335938 C 1091.457031 1166.472656 1136.769531 1158.292969 1173.554688 1143.195312 C 1183.535156 1139.089844 1194.855469 1142.523438 1200.464844 1151.382812 C 1236.605469 1208.433594 1313.179688 1234.035156 1374.800781 1209.683594 C 1384.394531 1205.886719 1392.347656 1200.226562 1397.792969 1193.3125 C 1417.167969 1168.726562 1402.761719 1141.496094 1384.308594 1115.734375 C 1343.390625 1058.621094 1287.015625 1000.0625 1242.46875 955.421875 C 1239.3125 952.261719 1239.320312 947.136719 1242.480469 943.976562 C 1245.652344 940.820312 1250.777344 940.820312 1253.933594 943.992188 C 1298.910156 989.058594 1355.875 1048.242188 1397.472656 1106.308594 C 1411.304688 1125.621094 1440.085938 1165.800781 1410.515625 1203.335938 C 1403.296875 1212.488281 1393.007812 1219.894531 1380.753906 1224.734375 C 1363.167969 1231.6875 1344.484375 1234.992188 1325.757812 1234.992188 Z M 1325.757812 1234.992188 " fill-opacity="1" fill-rule="nonzero"/><path fill="#fffcf6" d="M 768.792969 835.21875 C 758.863281 878.894531 764.257812 925.894531 783.828125 966.1875 C 787.265625 973.265625 791.574219 980.578125 798.710938 983.898438 C 806.058594 987.316406 814.679688 985.714844 822.523438 983.675781 C 846.109375 977.535156 868.796875 967.972656 889.660156 955.378906 C 901.886719 948 913.675781 939.402344 922.253906 927.988281 C 930.835938 916.570312 935.9375 901.964844 933.5625 887.882812 C 930.859375 871.835938 918.800781 858.539062 904.558594 850.65625 C 890.320312 842.777344 874.015625 839.5625 857.917969 837.15625 C 827.382812 832.589844 796.472656 830.539062 768.792969 835.21875 Z M 768.792969 835.21875 " fill-opacity="1" fill-rule="nonzero"/><path fill="#ffbd91" d="M 836.230469 830.535156 C 811.28125 872.433594 816.679688 930.183594 848.960938 966.738281 C 869.039062 959.792969 889.601562 952.585938 905.933594 939 C 922.265625 925.414062 933.714844 903.863281 929.363281 883.070312 C 925.527344 864.734375 910.175781 850.511719 892.992188 843.054688 C 875.804688 835.597656 856.78125 833.804688 836.230469 830.535156 Z M 836.230469 830.535156 " fill-opacity="1" fill-rule="nonzero"/><path fill="#552d2d" d="M 787.082031 993.335938 C 783.085938 993.335938 779.613281 990.378906 779.066406 986.316406 C 778.476562 981.886719 781.585938 977.808594 786.015625 977.214844 C 818.242188 972.898438 849.386719 963.445312 878.582031 949.121094 C 889.714844 943.652344 903.773438 935.921875 913.664062 924.5625 C 923.164062 913.652344 927.605469 900.238281 925.535156 888.664062 C 923.632812 878.027344 916.125 867.789062 904.9375 860.597656 C 893.230469 853.070312 879.0625 849.570312 868.027344 847.363281 C 833.089844 840.359375 796.15625 840.273438 761.1875 847.085938 C 756.792969 847.933594 752.550781 845.078125 751.695312 840.691406 C 750.835938 836.304688 753.703125 832.050781 758.089844 831.199219 C 795.113281 823.980469 834.226562 824.074219 871.199219 831.488281 C 883.632812 833.972656 899.707031 837.980469 913.699219 846.984375 C 928.65625 856.605469 938.777344 870.753906 941.476562 885.820312 C 944.394531 902.167969 938.5625 920.625 925.871094 935.203125 C 914.082031 948.734375 898.21875 957.515625 885.714844 963.652344 C 854.945312 978.75 822.125 988.710938 788.167969 993.261719 C 787.804688 993.308594 787.441406 993.335938 787.082031 993.335938 Z M 787.082031 993.335938 " fill-opacity="1" fill-rule="nonzero"/></svg>