<svg xmlns="http://www.w3.org/2000/svg" xmlns:xlink="http://www.w3.org/1999/xlink" width="1920" zoomAndPan="magnify" viewBox="0 0 1440 1439.999935" height="1920" preserveAspectRatio="xMidYMid meet" version="1.0"><path fill="#bfcef5" d="M 1379.707031 720.023438 C 1349.167969 629.019531 1292.5625 546.925781 1218.359375 486.03125 C 1238.515625 547.003906 1259.089844 608.660156 1277.980469 674.761719 C 1283.886719 673.972656 1289.953125 673.1875 1295.746094 674.574219 C 1301.542969 675.957031 1307.09375 680.011719 1308.472656 685.808594 C 1309.828125 691.511719 1306.984375 697.28125 1304.230469 702.449219 C 1290.03125 729.105469 1275.832031 755.761719 1261.632812 782.414062 C 1281.179688 783.675781 1298.359375 798.0625 1306.425781 815.910156 C 1314.496094 833.761719 1314.460938 854.429688 1310.097656 873.523438 C 1305.734375 892.621094 1297.3125 910.507812 1288.949219 928.21875 C 1329.785156 926.460938 1375.082031 926.179688 1405.792969 953.148438 C 1406.78125 882.707031 1409.785156 809.65625 1379.707031 720.023438 Z M 1379.707031 720.023438 " fill-opacity="1" fill-rule="nonzero"/><path fill="#8093c2" d="M 321.316406 1096.097656 C 634.710938 1121.785156 927.355469 1115.582031 1265.46875 1118.058594 C 1301.785156 1118.324219 1339.460938 1118.984375 1372.628906 1101.371094 C 1405.800781 1083.761719 1433.027344 1041.972656 1426.121094 999.527344 C 1417.816406 948.496094 1367.027344 923.871094 1323.367188 924.804688 C 1279.707031 925.734375 1236.417969 942.976562 1193.070312 936.71875 C 1168.414062 933.160156 1144.816406 922.089844 1120.109375 919.058594 C 1057.863281 911.421875 1025.90625 946.117188 960.496094 947.59375 C 932.800781 955.355469 903.242188 943.164062 879.820312 926.472656 C 856.394531 909.785156 836.320312 888.425781 811.457031 873.964844 C 751.109375 838.867188 675.574219 850.472656 607.007812 863.589844 C 545.917969 875.273438 483.527344 887.8125 430.0625 919.597656 C 376.601562 951.378906 332.882812 1006.589844 321.316406 1096.097656 Z M 321.316406 1096.097656 " fill-opacity="1" fill-rule="nonzero"/><path fill="#552d2d" d="M 1281.144531 1124.09375 C 1276.640625 1124.09375 1272.152344 1124.058594 1267.679688 1124.023438 L 1265.425781 1124.007812 C 1193.628906 1123.484375 1123.421875 1123.347656 1055.527344 1123.21875 C 804.757812 1122.734375 567.898438 1122.28125 320.832031 1102.03125 C 317.554688 1101.761719 315.117188 1098.886719 315.386719 1095.609375 C 315.65625 1092.335938 318.535156 1089.871094 321.800781 1090.167969 C 568.394531 1110.378906 805.027344 1110.832031 1055.550781 1111.316406 C 1123.460938 1111.445312 1193.679688 1111.578125 1265.511719 1112.105469 L 1267.769531 1112.121094 C 1302.644531 1112.382812 1338.683594 1112.65625 1369.839844 1096.117188 C 1399.273438 1080.484375 1426.945312 1041.65625 1420.25 1000.484375 C 1412.605469 953.515625 1365.792969 929.941406 1323.496094 930.753906 C 1306.019531 931.125 1288.101562 934.265625 1270.773438 937.308594 C 1245.175781 941.796875 1218.707031 946.433594 1192.21875 942.613281 C 1179.875 940.828125 1167.800781 937.234375 1156.125 933.757812 C 1143.542969 930.011719 1131.65625 926.472656 1119.382812 924.964844 C 1085.75 920.839844 1061.070312 929.679688 1034.945312 939.042969 C 1013.816406 946.609375 991.96875 954.4375 963.847656 956.386719 C 960.609375 956.621094 957.726562 954.144531 957.5 950.863281 C 957.273438 947.582031 959.746094 944.738281 963.023438 944.511719 C 989.503906 942.675781 1010.5625 935.128906 1030.929688 927.835938 C 1058.421875 917.984375 1084.398438 908.679688 1120.832031 913.152344 C 1134.097656 914.777344 1147.023438 918.625 1159.523438 922.347656 C 1170.789062 925.703125 1182.4375 929.171875 1193.921875 930.828125 C 1218.523438 934.378906 1242.90625 930.109375 1268.714844 925.582031 C 1286.484375 922.464844 1304.859375 919.242188 1323.238281 918.851562 C 1370.722656 917.796875 1423.261719 944.898438 1431.996094 998.570312 C 1439.585938 1045.21875 1408.511719 1089.058594 1375.421875 1106.628906 C 1345.769531 1122.371094 1313.214844 1124.09375 1281.144531 1124.09375 Z M 1281.144531 1124.09375 " fill-opacity="1" fill-rule="nonzero"/><path fill="#552d2d" d="M 1400.898438 958.65625 C 1400.671875 958.65625 1400.449219 958.644531 1400.226562 958.617188 C 1396.957031 958.253906 1394.609375 955.308594 1394.972656 952.039062 C 1414.761719 775.699219 1340.402344 592.914062 1196.0625 463.089844 C 1193.617188 460.890625 1193.421875 457.128906 1195.617188 454.683594 C 1197.816406 452.242188 1201.578125 452.039062 1204.027344 454.238281 C 1351.214844 586.628906 1427.019531 773.21875 1406.800781 953.367188 C 1406.460938 956.410156 1403.882812 958.65625 1400.898438 958.65625 Z M 1400.898438 958.65625 " fill-opacity="1" fill-rule="nonzero"/><path fill="#fffcf6" d="M 923.253906 670.425781 C 901.214844 683.492188 874.710938 685.714844 850.933594 695.066406 C 826.09375 704.828125 804.65625 722.28125 787.015625 742.652344 C 769.375 763.023438 755.289062 786.320312 742.109375 809.957031 C 721.082031 847.28125 555.902344 849.382812 558.085938 892.457031 C 559.539062 921.105469 639.777344 990.574219 684.984375 1012.796875 C 703.570312 1021.929688 817.242188 1061.957031 837.804688 1063.402344 C 887.277344 1066.878906 926.644531 1067.664062 980.9375 1067.664062 C 1001.503906 1086.492188 1028.019531 1099.699219 1054.898438 1097.714844 C 1081.777344 1095.730469 1107.855469 1076.363281 1113.792969 1049.488281 C 1136.707031 1084.214844 1184.304688 1102.058594 1223.847656 1088.523438 C 1246.246094 1080.859375 1265.0625 1064.644531 1280 1045.941406 C 1307.71875 1011.238281 1323.535156 966.792969 1324.117188 921.996094 C 1324.699219 877.195312 1310.039062 832.339844 1285.160156 799.480469 C 1167.261719 747.230469 1049.363281 694.976562 923.253906 670.425781 Z M 923.253906 670.425781 " fill-opacity="1" fill-rule="nonzero"/><path fill="#fffcf6" d="M 1393 770.574219 C 1338.820312 826.210938 1303.253906 822.285156 1278.613281 831.058594 C 1229.667969 848.484375 542.546875 1210.507812 542.546875 806.058594 C 550.125 644.488281 659.347656 551.355469 681.339844 515.941406 C 715.316406 461.238281 744.542969 441.085938 775.175781 412.75 C 803.246094 380.710938 859.746094 353.328125 898.746094 333.425781 C 891.539062 307.394531 892.003906 270.835938 912.070312 252.648438 C 932.140625 234.464844 952.191406 231.621094 977.515625 241.230469 C 1002.84375 250.84375 1029.269531 281.144531 1032.070312 308.007812 C 1056.777344 307.128906 1086.671875 312.550781 1111 316.894531 C 1167.585938 322.800781 1221.640625 344.078125 1241.089844 356.484375 C 1306.867188 398.4375 1320.707031 382.332031 1366.773438 546.777344 C 1399.523438 663.671875 1414.679688 702.914062 1393 770.574219 Z M 1393 770.574219 " fill-opacity="1" fill-rule="nonzero"/><path fill="#fffcf6" d="M 1326.960938 427.589844 C 1340.304688 412.867188 1344.96875 390.855469 1338.730469 372.035156 C 1332.488281 353.214844 1315.589844 338.324219 1296.078125 334.449219 C 1276.566406 330.578125 1255.203125 337.875 1242.164062 352.871094 C 1272.796875 373.816406 1300.863281 398.484375 1326.960938 427.589844 Z M 1326.960938 427.589844 " fill-opacity="1" fill-rule="nonzero"/><path fill="#f09a61" d="M 1396.59375 646.835938 C 1393.765625 664.8125 1374.1875 676.402344 1356.394531 675.535156 C 1338.601562 674.667969 1322.734375 664.425781 1308.992188 653.0625 C 1295.25 641.695312 1282.46875 628.734375 1266.597656 620.699219 C 1231.050781 602.699219 1188.191406 612.804688 1149.699219 624.207031 C 1111.207031 635.609375 1069.527344 647.925781 1032.355469 633.621094 C 1002.167969 622 980.921875 594.914062 954.878906 575.613281 C 911.320312 543.332031 597.585938 482.457031 547.230469 857.292969 C 542.546875 527.316406 781.484375 377.097656 903.144531 334.132812 C 886.6875 314.96875 886.402344 284.402344 901.25 263.9375 C 916.097656 243.472656 944.097656 234.066406 968.753906 239.816406 C 993.414062 245.566406 1013.808594 265.402344 1021.832031 289.328125 C 1023.832031 295.285156 1025.3125 301.796875 1029.828125 306.179688 C 1035.535156 311.726562 1044.3125 312.234375 1052.28125 312.660156 C 1117.027344 316.140625 1179.695312 335.519531 1242.484375 354.605469 C 1244.320312 343.300781 1255.492188 335.707031 1266.605469 332.777344 C 1290.5 326.480469 1317.859375 336.984375 1331.316406 357.613281 C 1344.773438 378.242188 1343.296875 407.433594 1328.0625 426.21875 C 1359.273438 497.65625 1363.199219 578.636719 1396.59375 646.835938 Z M 1396.59375 646.835938 " fill-opacity="1" fill-rule="nonzero"/><path fill="#552d2d" d="M 1092.539062 582.507812 C 1081.429688 585.832031 1069.628906 589.605469 1062.324219 598.585938 C 1059.773438 601.722656 1057.832031 605.777344 1058.71875 609.710938 C 1059.644531 613.820312 1063.519531 616.765625 1067.613281 617.820312 C 1071.710938 618.875 1076.03125 618.386719 1080.226562 617.824219 C 1089.390625 616.59375 1098.53125 615.039062 1107.414062 612.472656 C 1112.539062 610.992188 1117.703125 609.101562 1121.707031 605.582031 C 1125.707031 602.0625 1128.355469 596.59375 1127.214844 591.402344 C 1125.964844 585.714844 1120.492188 581.722656 1114.792969 580.425781 C 1109.097656 579.132812 1102.984375 579.382812 1092.539062 582.507812 Z M 1092.539062 582.507812 " fill-opacity="1" fill-rule="nonzero"/><path fill="#552d2d" d="M 1355.25 618.210938 C 1363.871094 625.929688 1372.925781 634.34375 1375.679688 645.5625 C 1376.640625 649.480469 1376.65625 653.96875 1374.164062 657.148438 C 1371.5625 660.476562 1366.796875 661.496094 1362.636719 660.714844 C 1358.480469 659.933594 1354.78125 657.660156 1351.230469 655.371094 C 1343.46875 650.378906 1335.867188 645.09375 1328.933594 639.007812 C 1324.933594 635.5 1321.074219 631.597656 1318.964844 626.71875 C 1316.855469 621.839844 1316.8125 615.769531 1320.070312 611.558594 C 1323.640625 606.945312 1330.304688 605.652344 1336.015625 606.894531 C 1341.722656 608.140625 1347.144531 610.957031 1355.25 618.210938 Z M 1355.25 618.210938 " fill-opacity="1" fill-rule="nonzero"/><path fill="#f8c7d0" d="M 950.054688 272.605469 C 973.457031 280.820312 992.171875 301.160156 998.359375 325.101562 C 1000.253906 332.433594 1000.707031 341.136719 995.496094 346.664062 C 990.613281 351.84375 982.515625 352.296875 975.476562 351.183594 C 955.785156 348.054688 937.992188 334.855469 929.347656 316.957031 C 924.921875 307.785156 922.859375 296.917969 926.476562 287.394531 C 930.09375 277.871094 940.90625 269.390625 950.054688 272.605469 Z M 950.054688 272.605469 " fill-opacity="1" fill-rule="nonzero"/><path fill="#f8c7d0" d="M 1045.578125 627.371094 C 1045.742188 628.398438 1045.851562 629.433594 1045.914062 630.476562 C 1045.976562 631.515625 1045.984375 632.558594 1045.941406 633.597656 C 1045.902344 634.640625 1045.808594 635.679688 1045.664062 636.710938 C 1045.519531 637.746094 1045.324219 638.769531 1045.078125 639.78125 C 1044.835938 640.796875 1044.539062 641.796875 1044.195312 642.78125 C 1043.851562 643.765625 1043.460938 644.730469 1043.023438 645.679688 C 1042.585938 646.625 1042.101562 647.550781 1041.570312 648.449219 C 1041.039062 649.347656 1040.46875 650.222656 1039.851562 651.066406 C 1039.234375 651.910156 1038.582031 652.722656 1037.882812 653.5 C 1037.1875 654.28125 1036.457031 655.023438 1035.6875 655.730469 C 1034.917969 656.441406 1034.117188 657.109375 1033.28125 657.738281 C 1032.445312 658.367188 1031.582031 658.957031 1030.691406 659.5 C 1029.796875 660.046875 1028.878906 660.546875 1027.9375 661.003906 C 1026.996094 661.457031 1026.035156 661.867188 1025.050781 662.226562 C 1024.070312 662.589844 1023.074219 662.902344 1022.058594 663.164062 C 1021.046875 663.429688 1020.023438 663.640625 1018.988281 663.804688 C 1017.957031 663.96875 1016.917969 664.082031 1015.871094 664.144531 C 1014.828125 664.207031 1013.78125 664.21875 1012.738281 664.175781 C 1011.691406 664.136719 1010.648438 664.042969 1009.613281 663.902344 C 1008.578125 663.761719 1007.550781 663.566406 1006.53125 663.324219 C 1005.515625 663.082031 1004.511719 662.789062 1003.523438 662.449219 C 1002.535156 662.105469 1001.566406 661.71875 1000.617188 661.28125 C 999.664062 660.847656 998.738281 660.363281 997.835938 659.835938 C 996.933594 659.3125 996.058594 658.742188 995.214844 658.128906 C 994.367188 657.515625 993.554688 656.863281 992.773438 656.171875 C 991.988281 655.480469 991.242188 654.75 990.535156 653.984375 C 989.824219 653.21875 989.152344 652.421875 988.523438 651.589844 C 987.890625 650.761719 987.304688 649.898438 986.757812 649.011719 C 986.210938 648.121094 985.710938 647.210938 985.253906 646.269531 C 984.796875 645.332031 984.390625 644.375 984.027344 643.398438 C 983.667969 642.417969 983.355469 641.425781 983.089844 640.417969 C 982.828125 639.410156 982.613281 638.390625 982.449219 637.359375 C 982.289062 636.328125 982.175781 635.292969 982.113281 634.253906 C 982.054688 633.210938 982.042969 632.171875 982.085938 631.128906 C 982.128906 630.085938 982.222656 629.050781 982.367188 628.015625 C 982.507812 626.984375 982.703125 625.960938 982.949219 624.945312 C 983.195312 623.933594 983.488281 622.933594 983.832031 621.949219 C 984.175781 620.960938 984.566406 619.996094 985.003906 619.050781 C 985.445312 618.101562 985.929688 617.179688 986.457031 616.277344 C 986.988281 615.378906 987.5625 614.507812 988.175781 613.664062 C 988.792969 612.820312 989.449219 612.007812 990.144531 611.226562 C 990.839844 610.449219 991.570312 609.703125 992.339844 608.996094 C 993.109375 608.289062 993.914062 607.621094 994.746094 606.988281 C 995.582031 606.359375 996.445312 605.773438 997.339844 605.226562 C 998.230469 604.683594 999.148438 604.183594 1000.089844 603.726562 C 1001.03125 603.269531 1001.996094 602.863281 1002.976562 602.5 C 1003.957031 602.140625 1004.957031 601.828125 1005.96875 601.5625 C 1006.980469 601.300781 1008.003906 601.085938 1009.039062 600.921875 C 1010.074219 600.757812 1011.113281 600.644531 1012.15625 600.585938 C 1013.203125 600.523438 1014.246094 600.511719 1015.292969 600.550781 C 1016.339844 600.59375 1017.378906 600.683594 1018.414062 600.828125 C 1019.453125 600.96875 1020.480469 601.160156 1021.496094 601.40625 C 1022.515625 601.648438 1023.515625 601.9375 1024.503906 602.28125 C 1025.492188 602.621094 1026.464844 603.011719 1027.414062 603.445312 C 1028.363281 603.882812 1029.289062 604.363281 1030.191406 604.890625 C 1031.09375 605.417969 1031.96875 605.988281 1032.816406 606.601562 C 1033.660156 607.210938 1034.476562 607.863281 1035.257812 608.558594 C 1036.039062 609.25 1036.785156 609.976562 1037.496094 610.742188 C 1038.203125 611.507812 1038.875 612.304688 1039.503906 613.136719 C 1040.136719 613.96875 1040.726562 614.828125 1041.273438 615.71875 C 1041.816406 616.605469 1042.320312 617.519531 1042.773438 618.457031 C 1043.230469 619.394531 1043.640625 620.351562 1044 621.332031 C 1044.363281 622.308594 1044.675781 623.304688 1044.9375 624.3125 C 1045.203125 625.320312 1045.414062 626.339844 1045.578125 627.371094 Z M 1045.578125 627.371094 " fill-opacity="1" fill-rule="nonzero"/><path fill="#f8c7d0" d="M 1262.382812 618.289062 C 1254.929688 610.464844 1244.8125 605.203125 1234.101562 603.578125 C 1223.390625 601.953125 1212.15625 603.976562 1202.683594 609.234375 C 1206.296875 616.269531 1209.980469 623.410156 1215.398438 629.183594 C 1220.8125 634.957031 1228.289062 639.292969 1236.226562 639.164062 C 1247.644531 638.976562 1256.773438 630.070312 1262.382812 618.289062 Z M 1262.382812 618.289062 " fill-opacity="1" fill-rule="nonzero"/><path fill="#ffbd91" d="M 1119.21875 398 C 1116.941406 398 1114.765625 396.683594 1113.777344 394.46875 C 1106.894531 378.996094 1097.742188 364.925781 1086.578125 352.652344 C 1084.363281 350.21875 1084.542969 346.457031 1086.972656 344.242188 C 1089.40625 342.027344 1093.171875 342.210938 1095.382812 344.640625 C 1107.402344 357.859375 1117.25 372.996094 1124.652344 389.628906 C 1125.992188 392.632812 1124.640625 396.148438 1121.636719 397.484375 C 1120.847656 397.835938 1120.027344 398 1119.21875 398 Z M 1119.21875 398 " fill-opacity="1" fill-rule="nonzero"/><path fill="#ffbd91" d="M 1193.320312 396.949219 C 1191.5625 396.949219 1189.824219 396.175781 1188.648438 394.691406 L 1166.636719 366.890625 C 1164.597656 364.3125 1165.03125 360.570312 1167.609375 358.53125 C 1170.179688 356.492188 1173.921875 356.921875 1175.972656 359.5 L 1197.984375 387.300781 C 1200.023438 389.878906 1199.589844 393.625 1197.011719 395.664062 C 1195.917969 396.53125 1194.617188 396.949219 1193.320312 396.949219 Z M 1193.320312 396.949219 " fill-opacity="1" fill-rule="nonzero"/><path fill="#ffbd91" d="M 1163.160156 465.902344 C 1160.808594 465.902344 1158.585938 464.503906 1157.644531 462.195312 L 1145.976562 433.578125 C 1144.734375 430.535156 1146.199219 427.0625 1149.242188 425.820312 C 1152.28125 424.578125 1155.757812 426.039062 1157 429.085938 L 1168.664062 457.699219 C 1169.90625 460.742188 1168.449219 464.21875 1165.402344 465.460938 C 1164.667969 465.757812 1163.90625 465.902344 1163.160156 465.902344 Z M 1163.160156 465.902344 " fill-opacity="1" fill-rule="nonzero"/><path fill="#ffbd91" d="M 1261.488281 452.503906 C 1258.816406 452.503906 1256.390625 450.691406 1255.714844 447.984375 C 1252.792969 436.199219 1247.539062 425.808594 1240.097656 417.097656 C 1237.960938 414.597656 1238.257812 410.839844 1240.757812 408.707031 C 1243.261719 406.570312 1247.011719 406.867188 1249.148438 409.367188 C 1257.800781 419.496094 1263.898438 431.523438 1267.269531 445.117188 C 1268.0625 448.308594 1266.117188 451.535156 1262.925781 452.328125 C 1262.445312 452.445312 1261.964844 452.503906 1261.488281 452.503906 Z M 1261.488281 452.503906 " fill-opacity="1" fill-rule="nonzero"/><path fill="#ffbd91" d="M 1210.597656 512.527344 C 1210.441406 512.527344 1210.28125 512.519531 1210.121094 512.507812 C 1206.84375 512.246094 1204.398438 509.378906 1204.65625 506.101562 C 1205.765625 492.136719 1204.117188 479.214844 1199.757812 467.695312 C 1198.589844 464.621094 1200.140625 461.183594 1203.214844 460.019531 C 1206.296875 458.863281 1209.722656 460.40625 1210.886719 463.480469 C 1215.878906 476.65625 1217.773438 491.3125 1216.527344 507.042969 C 1216.277344 510.160156 1213.671875 512.527344 1210.597656 512.527344 Z M 1210.597656 512.527344 " fill-opacity="1" fill-rule="nonzero"/><path fill="#fffcf6" d="M 1202.703125 936.261719 C 1202.703125 936.261719 1093.355469 996.230469 1121.527344 1055.804688 C 1149.699219 1115.382812 1230.292969 1089.222656 1250.636719 1072.800781 C 1270.980469 1056.378906 1299.253906 1035.339844 1300.960938 1020.246094 C 1302.667969 1005.15625 1267.800781 917.421875 1202.703125 936.261719 Z M 1202.703125 936.261719 " fill-opacity="1" fill-rule="nonzero"/><path fill="#ffbd91" d="M 1135.765625 989.792969 C 1179.371094 1003.203125 1214.769531 1041.476562 1225.433594 1086.738281 C 1209.828125 1089.847656 1193.699219 1090.171875 1177.988281 1087.691406 C 1164.328125 1085.535156 1150.683594 1081.101562 1139.816406 1072.371094 C 1127.34375 1062.351562 1119.261719 1046.816406 1118.109375 1030.644531 C 1116.957031 1014.46875 1122.75 997.902344 1135.765625 989.792969 Z M 1135.765625 989.792969 " fill-opacity="1" fill-rule="nonzero"/><path fill="#552d2d" d="M 1188.914062 1097.054688 C 1177.558594 1097.054688 1166.332031 1095.222656 1155.59375 1091.371094 C 1143.769531 1087.128906 1122.691406 1076.664062 1114.417969 1054.25 C 1104.253906 1026.703125 1119.199219 995.992188 1138.523438 977.777344 C 1148.957031 967.9375 1160.816406 960.285156 1172.285156 952.878906 C 1181.414062 946.984375 1190.859375 940.886719 1199.253906 933.847656 C 1201.769531 931.730469 1205.527344 932.066406 1207.636719 934.582031 C 1209.75 937.101562 1209.421875 940.851562 1206.902344 942.964844 C 1197.941406 950.484375 1188.179688 956.785156 1178.738281 962.882812 C 1167.214844 970.320312 1156.332031 977.347656 1146.691406 986.4375 C 1130.214844 1001.96875 1117.300781 1027.683594 1125.582031 1050.128906 C 1132.1875 1068.011719 1149.742188 1076.625 1159.617188 1080.167969 C 1210.359375 1098.367188 1273.808594 1065.632812 1301.023438 1007.160156 C 1330.582031 943.667969 1314.328125 874.792969 1295.488281 828.191406 C 1294.253906 825.144531 1295.730469 821.675781 1298.773438 820.445312 C 1301.839844 819.210938 1305.289062 820.683594 1306.527344 823.730469 C 1326.25 872.515625 1343.179688 944.816406 1311.816406 1012.1875 C 1287.738281 1063.917969 1237.210938 1097.050781 1188.914062 1097.054688 Z M 1188.914062 1097.054688 " fill-opacity="1" fill-rule="nonzero"/><path fill="#fffcf6" d="M 1076.585938 960.164062 C 1076.585938 960.164062 1167.992188 1086.550781 1053.257812 1094.78125 C 1053.257812 1094.78125 985.839844 1095.765625 956.242188 1027.472656 C 926.640625 959.179688 1050.648438 935.839844 1076.585938 960.164062 Z M 1076.585938 960.164062 " fill-opacity="1" fill-rule="nonzero"/><path fill="#ffbd91" d="M 1104.265625 1003.941406 C 1081.855469 1000.941406 1059.019531 1010.367188 1041.949219 1025.511719 C 1024.882812 1040.65625 1012.992188 1061.03125 1003.847656 1082.160156 C 1018.351562 1087.660156 1033.515625 1091.320312 1048.894531 1093.039062 C 1058.542969 1094.117188 1068.6875 1094.355469 1077.535156 1090.265625 C 1084.75 1086.933594 1096.5 1078.535156 1101.546875 1072.296875 C 1108.429688 1063.789062 1108.410156 1056.804688 1111.746094 1046.300781 C 1115.082031 1035.800781 1115.613281 1024.140625 1104.265625 1003.941406 Z M 1104.265625 1003.941406 " fill-opacity="1" fill-rule="nonzero"/><path fill="#552d2d" d="M 1049.578125 1100.777344 C 1021.609375 1100.78125 982.980469 1088.238281 951.054688 1031.667969 C 949.441406 1028.804688 950.453125 1025.175781 953.3125 1023.558594 C 956.1875 1021.945312 959.808594 1022.957031 961.425781 1025.816406 C 996.121094 1087.300781 1037.742188 1093.089844 1066.550781 1087.121094 C 1080.304688 1084.273438 1089.597656 1079.765625 1095.796875 1072.941406 C 1109.101562 1058.285156 1107.46875 1033.957031 1102.027344 1017.582031 C 1097.816406 1004.898438 1091.351562 993.488281 1084.507812 981.410156 C 1080.820312 974.910156 1077.011719 968.1875 1073.613281 961.285156 C 1072.160156 958.335938 1073.375 954.769531 1076.324219 953.316406 C 1079.28125 951.859375 1082.84375 953.082031 1084.292969 956.027344 C 1087.539062 962.617188 1091.261719 969.1875 1094.863281 975.539062 C 1101.6875 987.585938 1108.75 1000.042969 1113.328125 1013.828125 C 1119.78125 1033.253906 1121.367188 1062.484375 1104.605469 1080.941406 C 1094.132812 1092.480469 1079.25 1096.648438 1068.96875 1098.777344 C 1063.4375 1099.925781 1056.867188 1100.777344 1049.578125 1100.777344 Z M 1049.578125 1100.777344 " fill-opacity="1" fill-rule="nonzero"/><path fill="#552d2d" d="M 1325.433594 435.382812 C 1324.109375 435.382812 1322.78125 434.945312 1321.679688 434.050781 C 1319.128906 431.972656 1318.746094 428.226562 1320.820312 425.675781 C 1335.777344 407.300781 1338.550781 384.996094 1328.242188 366.015625 C 1317.832031 346.851562 1297.195312 335.964844 1275.691406 338.292969 C 1261.695312 339.804688 1249.820312 346.160156 1240.386719 357.179688 C 1238.25 359.675781 1234.492188 359.972656 1231.992188 357.832031 C 1229.496094 355.691406 1229.207031 351.933594 1231.339844 349.4375 C 1242.8125 336.039062 1257.304688 328.304688 1274.410156 326.457031 C 1300.796875 323.597656 1325.980469 336.910156 1338.699219 360.332031 C 1351.394531 383.703125 1348.164062 410.941406 1330.050781 433.191406 C 1328.878906 434.632812 1327.164062 435.382812 1325.433594 435.382812 Z M 1325.433594 435.382812 " fill-opacity="1" fill-rule="nonzero"/><path fill="#552d2d" d="M 933.753906 1075.550781 C 833.546875 1075.554688 733.140625 1050.035156 657.769531 1004.402344 C 614.734375 978.34375 584.433594 950.519531 565.136719 919.339844 C 530.054688 862.660156 533.585938 795.445312 542.726562 749.042969 C 579.316406 563.332031 727.378906 386.695312 894.785156 329.046875 C 897.894531 327.972656 901.285156 329.628906 902.351562 332.734375 C 903.421875 335.84375 901.769531 339.230469 898.664062 340.300781 C 735.007812 396.660156 590.226562 569.527344 554.40625 751.34375 C 545.679688 795.65625 542.210938 859.683594 575.253906 913.074219 C 593.539062 942.613281 622.546875 969.160156 663.9375 994.21875 C 749.222656 1045.855469 867.535156 1071.09375 980.445312 1061.730469 C 983.699219 1061.4375 986.597656 1063.898438 986.871094 1067.171875 C 987.140625 1070.449219 984.703125 1073.324219 981.429688 1073.59375 C 965.617188 1074.90625 949.679688 1075.550781 933.753906 1075.550781 Z M 933.753906 1075.550781 " fill-opacity="1" fill-rule="nonzero"/><path fill="#552d2d" d="M 959.207031 387.066406 C 958.371094 387.066406 957.523438 386.890625 956.71875 386.519531 C 929.84375 374.117188 910.085938 358.285156 897.992188 339.460938 C 882.644531 315.570312 880.46875 286.042969 892.441406 264.234375 C 904.035156 243.113281 928.953125 229.53125 954.742188 230.480469 C 978.140625 231.335938 1001.566406 243.699219 1017.40625 263.550781 C 1031.347656 281.027344 1039.796875 304.542969 1041.199219 329.773438 C 1041.382812 333.054688 1038.867188 335.863281 1035.582031 336.046875 C 1032.367188 336.234375 1029.496094 333.710938 1029.3125 330.429688 C 1028.046875 307.652344 1020.515625 286.535156 1008.097656 270.976562 C 994.398438 253.796875 974.289062 243.105469 954.308594 242.378906 C 932.992188 241.621094 912.355469 252.6875 902.875 269.964844 C 892.976562 288.003906 894.984375 312.757812 908.007812 333.027344 C 918.855469 349.910156 936.921875 364.273438 961.703125 375.710938 C 964.6875 377.089844 965.992188 380.625 964.617188 383.609375 C 963.609375 385.785156 961.457031 387.066406 959.207031 387.066406 Z M 959.207031 387.066406 " fill-opacity="1" fill-rule="nonzero"/><path fill="#552d2d" d="M 1001.367188 343.398438 C 998.277344 343.398438 995.664062 341.007812 995.4375 337.875 C 993.4375 310.027344 972.363281 284.480469 945.328125 277.128906 C 942.15625 276.265625 940.28125 272.996094 941.144531 269.824219 C 942.011719 266.652344 945.28125 264.789062 948.449219 265.640625 C 980.207031 274.273438 1004.957031 304.292969 1007.3125 337.019531 C 1007.546875 340.300781 1005.082031 343.148438 1001.800781 343.382812 C 1001.65625 343.394531 1001.511719 343.398438 1001.367188 343.398438 Z M 1001.367188 343.398438 " fill-opacity="1" fill-rule="nonzero"/><path fill="#552d2d" d="M 1286.699219 830.796875 C 1283.574219 830.796875 1280.953125 828.359375 1280.765625 825.199219 C 1280.566406 821.917969 1283.066406 819.097656 1286.351562 818.902344 C 1334.109375 816.039062 1376.394531 788.949219 1391.574219 751.492188 C 1400.859375 728.570312 1401.410156 700.054688 1393.210938 666.742188 C 1389.402344 651.269531 1384.117188 635.808594 1379.007812 620.855469 C 1374.597656 607.941406 1370.035156 594.589844 1366.371094 581.117188 C 1362.304688 566.183594 1359.25 550.777344 1356.292969 535.875 C 1350.878906 508.582031 1345.28125 480.355469 1333.355469 455.203125 C 1310.953125 407.941406 1264.964844 369.238281 1203.875 346.222656 C 1150.910156 326.265625 1093.308594 320.316406 1037.605469 314.566406 L 1031.457031 313.929688 C 1028.1875 313.589844 1025.808594 310.664062 1026.148438 307.394531 C 1026.488281 304.128906 1029.390625 301.746094 1032.683594 302.089844 L 1038.828125 302.722656 C 1095.285156 308.554688 1153.667969 314.585938 1208.070312 335.082031 C 1272.066406 359.191406 1320.378906 400.042969 1344.113281 450.101562 C 1356.667969 476.589844 1362.414062 505.550781 1367.96875 533.558594 C 1370.886719 548.257812 1373.902344 563.460938 1377.855469 577.992188 C 1381.421875 591.101562 1385.925781 604.269531 1390.273438 617.007812 C 1395.46875 632.203125 1400.839844 647.917969 1404.769531 663.894531 C 1413.578125 699.695312 1412.851562 730.667969 1402.605469 755.960938 C 1385.738281 797.585938 1339.304688 827.65625 1287.058594 830.785156 C 1286.941406 830.792969 1286.816406 830.796875 1286.699219 830.796875 Z M 1286.699219 830.796875 " fill-opacity="1" fill-rule="nonzero"/><path fill="#552d2d" d="M 1236.867188 644.648438 C 1222.679688 644.648438 1210.078125 631.871094 1199.621094 619.367188 C 1197.511719 616.84375 1197.851562 613.089844 1200.371094 610.980469 C 1202.898438 608.871094 1206.648438 609.210938 1208.753906 611.726562 C 1216.9375 621.515625 1227.527344 632.742188 1236.867188 632.742188 C 1236.886719 632.742188 1236.902344 632.742188 1236.921875 632.742188 C 1240.34375 632.730469 1244.167969 631.113281 1247.6875 628.1875 C 1251.285156 625.207031 1254.21875 621.328125 1257.332031 617.226562 C 1259.308594 614.605469 1263.039062 614.085938 1265.667969 616.074219 C 1268.289062 618.058594 1268.800781 621.792969 1266.816406 624.414062 C 1263.4375 628.875 1259.941406 633.488281 1255.292969 637.351562 C 1251.300781 640.660156 1244.886719 644.613281 1236.972656 644.648438 C 1236.9375 644.648438 1236.902344 644.648438 1236.867188 644.648438 Z M 1236.867188 644.648438 " fill-opacity="1" fill-rule="nonzero"/><path fill="#552d2d" d="M 1214.386719 675.070312 C 1212.25 675.070312 1210.1875 673.917969 1209.117188 671.898438 C 1207.582031 668.996094 1208.691406 665.390625 1211.597656 663.855469 C 1219.464844 659.699219 1224.960938 650.707031 1227.929688 637.125 C 1228.632812 633.914062 1231.789062 631.875 1235.019531 632.585938 C 1238.230469 633.285156 1240.261719 636.460938 1239.558594 639.671875 C 1235.800781 656.832031 1228.269531 668.507812 1217.160156 674.378906 C 1216.277344 674.847656 1215.324219 675.070312 1214.386719 675.070312 Z M 1214.386719 675.070312 " fill-opacity="1" fill-rule="nonzero"/><path fill="#bfcef5" d="M 385.253906 1067.675781 C 347.335938 1097.210938 298.039062 1111.738281 250.164062 1107.496094 C 224.589844 1105.230469 199.777344 1097.882812 175.167969 1090.574219 C 147.023438 1082.214844 118.710938 1073.789062 92.429688 1060.703125 C 66.148438 1047.613281 41.738281 1029.480469 25.4375 1005.058594 C 6.203125 958.777344 18.007812 906.132812 45.019531 867.679688 C 72.03125 829.226562 111.910156 802.074219 151.207031 776.308594 C 184.648438 754.386719 218.453125 732.75 248.828125 706.742188 C 279.203125 680.738281 306.261719 649.988281 323.105469 613.722656 C 359.414062 555.792969 393.777344 498.390625 442.183594 453.855469 C 490.589844 409.324219 555.6875 378.671875 621.0625 385.941406 C 696.671875 325.949219 803.980469 309.765625 898.425781 342.328125 C 837.332031 353.828125 780.988281 388.90625 743.699219 438.648438 C 716.035156 475.550781 699.117188 519.167969 681.300781 561.707031 C 633.019531 676.992188 575.957031 788.359375 519.132812 900.867188 C 490.550781 965.21875 443.953125 1021.960938 385.253906 1067.675781 Z M 385.253906 1067.675781 " fill-opacity="1" fill-rule="nonzero"/><path fill="#552d2d" d="M 498.546875 623.226562 C 498.054688 623.226562 497.550781 623.167969 497.046875 623.035156 C 493.867188 622.210938 491.957031 618.960938 492.785156 615.777344 C 519.113281 514.40625 562.644531 433.210938 618.679688 380.972656 C 680 323.804688 826.65625 300.835938 903.996094 336.296875 C 906.984375 337.664062 908.296875 341.199219 906.929688 344.1875 C 905.554688 347.171875 902.007812 348.480469 899.039062 347.113281 C 825.210938 313.277344 685.285156 335.152344 626.800781 389.679688 C 572.421875 440.375 530.0625 519.59375 504.304688 618.773438 C 503.609375 621.453125 501.195312 623.226562 498.546875 623.226562 Z M 498.546875 623.226562 " fill-opacity="1" fill-rule="nonzero"/><path fill="#552d2d" d="M 265.699219 1110.375 C 226.09375 1110.375 187.359375 1099.367188 149.722656 1088.667969 C 122.875 1081.039062 95.113281 1073.152344 70.023438 1056.882812 C 41.449219 1038.351562 21.714844 1011.507812 14.453125 981.292969 C 0.472656 923.09375 33.605469 865.671875 69.273438 831.339844 C 97.273438 804.390625 129.667969 784.53125 161 765.328125 C 189.683594 747.746094 219.34375 729.566406 245.117188 706.132812 C 283.832031 670.929688 314.304688 623.527344 343.773438 577.683594 C 358.101562 555.394531 372.914062 532.347656 388.578125 510.824219 C 436.125 445.46875 505.78125 371.464844 623.140625 379.386719 C 626.417969 379.609375 628.898438 382.449219 628.675781 385.726562 C 628.457031 389.003906 625.632812 391.5 622.339844 391.265625 C 510.804688 383.738281 443.953125 454.949219 398.203125 517.828125 C 382.742188 539.074219 368.023438 561.972656 353.785156 584.121094 C 323.902344 630.613281 293 678.683594 253.125 714.941406 C 226.523438 739.128906 196.375 757.609375 167.21875 775.480469 C 136.433594 794.351562 104.597656 813.863281 77.527344 839.917969 C 44.234375 871.964844 13.222656 925.203125 26.027344 978.511719 C 34.859375 1015.261719 61.441406 1037.128906 76.496094 1046.894531 C 100.085938 1062.191406 126.976562 1069.832031 152.976562 1077.21875 C 195.667969 1089.351562 239.820312 1101.894531 283.9375 1097.601562 C 394.183594 1086.882812 472.09375 975.566406 508.71875 910.167969 C 511.714844 904.820312 515.113281 898.839844 518.851562 892.261719 C 550.316406 836.863281 602.984375 744.144531 647.269531 625.046875 C 715.464844 441.660156 785.527344 360.761719 897.160156 336.511719 C 900.390625 335.824219 903.546875 337.851562 904.238281 341.0625 C 904.9375 344.277344 902.898438 347.445312 899.6875 348.144531 C 791.242188 371.699219 725.855469 447.875 658.429688 629.195312 C 613.804688 749.191406 560.84375 842.433594 529.199219 898.140625 C 525.476562 904.699219 522.089844 910.65625 519.105469 915.988281 C 481.34375 983.410156 400.722656 1098.203125 285.089844 1109.453125 C 278.605469 1110.082031 272.140625 1110.375 265.699219 1110.375 Z M 265.699219 1110.375 " fill-opacity="1" fill-rule="nonzero"/></svg>