<svg xmlns="http://www.w3.org/2000/svg" xmlns:xlink="http://www.w3.org/1999/xlink" width="1920" zoomAndPan="magnify" viewBox="0 0 1440 1439.999935" height="1920" preserveAspectRatio="xMidYMid meet" version="1.0"><path fill="#fffcf6" d="M 1125.625 767.011719 C 1156.417969 788.644531 1188.332031 809.222656 1214.761719 836.003906 C 1241.195312 862.789062 1262.113281 896.972656 1265.011719 934.484375 C 1267.910156 971.996094 1249.429688 1012.46875 1215.132812 1027.957031 C 1267.027344 1085.90625 1318.925781 1143.851562 1370.820312 1201.796875 C 1382.742188 1215.109375 1394.796875 1228.613281 1402.957031 1244.507812 C 1411.117188 1260.40625 1415.078125 1279.230469 1409.894531 1296.332031 C 1402.214844 1321.65625 1376.660156 1337.433594 1351.269531 1344.910156 C 1303.152344 1359.070312 1248.910156 1350.742188 1207.265625 1322.792969 C 1180.375 1304.746094 1159.21875 1279.558594 1138.449219 1254.714844 C 1089.421875 1275.097656 1039.921875 1286.324219 989.851562 1290.132812 C 994.683594 1323.4375 978.375 1357.460938 952.398438 1376.921875 C 926.421875 1396.382812 892.550781 1402.878906 860.132812 1401.289062 C 827.710938 1399.695312 796.175781 1390.675781 764.976562 1381.714844 C 663.148438 1354.949219 569.074219 1300.042969 500.074219 1221.550781 C 431.078125 1143.058594 388.265625 1040.636719 387.085938 936.152344 C 385.90625 831.664062 427.859375 726.203125 509.769531 651.214844 C 685.128906 624.535156 865.585938 631.753906 1038.25 672.363281 C 1075.753906 681.1875 1113.78125 691.976562 1125.625 767.011719 Z M 1125.625 767.011719 " fill-opacity="1" fill-rule="nonzero"/><path fill="#fffcf6" d="M 1259.492188 668.632812 C 1200.558594 776.921875 1144.542969 786.023438 1110.65625 809.941406 C 1043.351562 857.449219 1105.035156 1497.921875 634.539062 1375.726562 C 330.34375 1319.511719 197.304688 1237.839844 110.730469 1115.359375 C 59.050781 1042.25 -55.3125 858.898438 111.949219 495.46875 C 141.105469 434.4375 258.832031 257.601562 309.878906 210.523438 C 287.714844 173.695312 288.1875 124.414062 311.054688 88.015625 C 333.917969 51.621094 378.113281 29.792969 420.925781 33.757812 C 463.734375 37.71875 494.050781 74.136719 509.839844 114.117188 C 547.210938 102.265625 595.207031 96.957031 634.234375 93.269531 C 723.214844 78.273438 814.914062 87.902344 849.941406 98.644531 C 968.410156 134.976562 982.65625 104.417969 1123.507812 336.828125 C 1223.636719 502.042969 1263.609375 555.734375 1259.492188 668.632812 Z M 1259.492188 668.632812 " fill-opacity="1" fill-rule="nonzero"/><path fill="#fffcf6" d="M 1011.601562 171.109375 C 1025.683594 142.875 1023.375 107.160156 1005.777344 80.972656 C 988.179688 54.785156 955.976562 39.148438 924.507812 41.507812 C 893.039062 43.867188 863.53125 64.132812 850.035156 92.652344 C 905.8125 111.726562 959.261719 137.601562 1011.601562 171.109375 Z M 1011.601562 171.109375 " fill-opacity="1" fill-rule="nonzero"/><path fill="#f09a61" d="M 1211.945312 477.488281 C 1215.332031 506.234375 1190.390625 532.320312 1162.835938 538.554688 C 1135.28125 544.785156 1106.648438 535.839844 1080.785156 524.261719 C 1054.921875 512.6875 1029.839844 498.257812 1002.148438 492.691406 C 940.128906 480.21875 878.984375 513.921875 825.0625 547.753906 C 771.140625 581.585938 712.742188 618.179688 649.824219 612.058594 C 598.722656 607.082031 554.65625 574.609375 506.597656 556.101562 C 426.21875 525.144531 -115.925781 690.242188 293.625 1270.617188 C -244.960938 969.019531 161.128906 335.714844 324.070312 208.042969 C 290.714844 185.667969 277.179688 138.949219 291.09375 101.277344 C 305.003906 63.605469 343.753906 37.292969 383.886719 35.621094 C 424.019531 33.949219 463.679688 55.675781 486.195312 88.933594 C 491.800781 97.210938 496.855469 106.558594 505.628906 111.355469 C 516.726562 117.429688 530.355469 114.476562 542.710938 111.746094 C 643.121094 89.554688 747.164062 92.617188 851.265625 95.175781 C 849.226562 77.074219 863.046875 60.683594 878.765625 51.472656 C 912.570312 31.667969 958.871094 36.128906 988.269531 62.027344 C 1017.667969 87.921875 1027.925781 133.28125 1012.699219 168.539062 C 1091 264.746094 1131.703125 387.171875 1211.945312 477.488281 Z M 1211.945312 477.488281 " fill-opacity="1" fill-rule="nonzero"/><path fill="#552d2d" d="M 719.863281 508.148438 C 704.316406 517.96875 687.90625 528.765625 680.589844 545.636719 C 678.039062 551.523438 676.8125 558.558594 679.851562 564.210938 C 683.03125 570.117188 690.210938 572.980469 696.917969 572.859375 C 703.628906 572.734375 710.019531 570.148438 716.1875 567.503906 C 729.660156 561.722656 742.960938 555.453125 755.429688 547.746094 C 762.628906 543.300781 769.707031 538.207031 774.3125 531.113281 C 778.917969 524.019531 780.613281 514.511719 776.648438 507.042969 C 772.300781 498.855469 762.226562 495.066406 752.96875 495.5 C 743.710938 495.9375 734.480469 498.917969 719.863281 508.148438 Z M 719.863281 508.148438 " fill-opacity="1" fill-rule="nonzero"/><path fill="#552d2d" d="M 1136.515625 451.195312 C 1152.996094 459.359375 1170.433594 468.402344 1179.453125 484.429688 C 1182.597656 490.019531 1184.542969 496.894531 1182.105469 502.828125 C 1179.550781 509.03125 1172.707031 512.621094 1166.023438 513.191406 C 1159.335938 513.757812 1152.710938 511.847656 1146.304688 509.851562 C 1132.304688 505.496094 1118.429688 500.628906 1105.230469 494.253906 C 1097.613281 490.574219 1090.042969 486.238281 1084.730469 479.65625 C 1079.417969 473.078125 1076.75 463.792969 1079.921875 455.953125 C 1083.402344 447.367188 1093.027344 442.554688 1102.28125 442.03125 C 1111.539062 441.511719 1121.027344 443.523438 1136.515625 451.195312 Z M 1136.515625 451.195312 " fill-opacity="1" fill-rule="nonzero"/><path fill="#f8c7d0" d="M 369.371094 93.8125 C 408.640625 96.457031 445.949219 119.667969 465.664062 153.726562 C 471.703125 164.160156 476.121094 177.304688 470.535156 187.984375 C 465.292969 198 453.113281 202.140625 441.882812 203.421875 C 410.457031 207.003906 377.617188 194.335938 356.746094 170.578125 C 346.050781 158.410156 338.246094 142.632812 339.6875 126.5 C 341.128906 110.367188 354.015625 92.777344 369.371094 93.8125 Z M 369.371094 93.8125 " fill-opacity="1" fill-rule="nonzero"/><path fill="#f8c7d0" d="M 671.949219 617.972656 C 671.949219 619.632812 671.867188 621.289062 671.707031 622.9375 C 671.542969 624.589844 671.300781 626.230469 670.976562 627.855469 C 670.652344 629.484375 670.25 631.089844 669.769531 632.679688 C 669.285156 634.265625 668.726562 635.828125 668.09375 637.359375 C 667.457031 638.894531 666.75 640.390625 665.964844 641.855469 C 665.183594 643.316406 664.332031 644.738281 663.410156 646.117188 C 662.488281 647.496094 661.5 648.828125 660.449219 650.109375 C 659.394531 651.394531 658.28125 652.621094 657.109375 653.792969 C 655.933594 654.96875 654.707031 656.082031 653.421875 657.132812 C 652.140625 658.1875 650.808594 659.171875 649.429688 660.09375 C 648.050781 661.015625 646.628906 661.867188 645.164062 662.648438 C 643.699219 663.433594 642.203125 664.140625 640.667969 664.777344 C 639.136719 665.410156 637.574219 665.96875 635.988281 666.449219 C 634.398438 666.933594 632.789062 667.335938 631.164062 667.660156 C 629.535156 667.980469 627.894531 668.226562 626.242188 668.386719 C 624.59375 668.550781 622.9375 668.632812 621.277344 668.632812 C 619.617188 668.632812 617.960938 668.550781 616.308594 668.386719 C 614.660156 668.226562 613.019531 667.980469 611.390625 667.660156 C 609.761719 667.335938 608.15625 666.933594 606.566406 666.449219 C 604.980469 665.96875 603.417969 665.410156 601.886719 664.777344 C 600.351562 664.140625 598.855469 663.433594 597.390625 662.648438 C 595.925781 661.867188 594.503906 661.015625 593.125 660.09375 C 591.746094 659.171875 590.414062 658.1875 589.128906 657.132812 C 587.847656 656.082031 586.621094 654.96875 585.445312 653.792969 C 584.273438 652.621094 583.160156 651.394531 582.105469 650.109375 C 581.054688 648.828125 580.066406 647.496094 579.144531 646.117188 C 578.222656 644.738281 577.371094 643.316406 576.585938 641.855469 C 575.804688 640.390625 575.097656 638.894531 574.460938 637.359375 C 573.828125 635.828125 573.269531 634.265625 572.785156 632.679688 C 572.304688 631.089844 571.902344 629.484375 571.578125 627.855469 C 571.253906 626.230469 571.011719 624.589844 570.847656 622.9375 C 570.6875 621.289062 570.605469 619.632812 570.605469 617.972656 C 570.605469 616.316406 570.6875 614.660156 570.847656 613.007812 C 571.011719 611.355469 571.253906 609.71875 571.578125 608.089844 C 571.902344 606.464844 572.304688 604.855469 572.785156 603.269531 C 573.269531 601.679688 573.828125 600.121094 574.460938 598.585938 C 575.097656 597.054688 575.804688 595.554688 576.585938 594.09375 C 577.371094 592.628906 578.222656 591.207031 579.144531 589.828125 C 580.066406 588.449219 581.054688 587.117188 582.105469 585.835938 C 583.160156 584.554688 584.273438 583.324219 585.445312 582.152344 C 586.621094 580.980469 587.847656 579.867188 589.128906 578.8125 C 590.414062 577.761719 591.746094 576.773438 593.125 575.851562 C 594.503906 574.929688 595.925781 574.078125 597.390625 573.296875 C 598.855469 572.515625 600.351562 571.804688 601.886719 571.171875 C 603.417969 570.535156 604.980469 569.976562 606.566406 569.496094 C 608.15625 569.015625 609.761719 568.613281 611.390625 568.289062 C 613.019531 567.964844 614.660156 567.722656 616.308594 567.558594 C 617.960938 567.398438 619.617188 567.316406 621.277344 567.316406 C 622.9375 567.316406 624.59375 567.398438 626.242188 567.558594 C 627.894531 567.722656 629.535156 567.964844 631.164062 568.289062 C 632.789062 568.613281 634.398438 569.015625 635.988281 569.496094 C 637.574219 569.976562 639.136719 570.535156 640.667969 571.171875 C 642.203125 571.804688 643.699219 572.515625 645.164062 573.296875 C 646.628906 574.078125 648.050781 574.929688 649.429688 575.851562 C 650.808594 576.773438 652.140625 577.761719 653.421875 578.8125 C 654.707031 579.867188 655.933594 580.980469 657.109375 582.152344 C 658.28125 583.324219 659.394531 584.554688 660.449219 585.835938 C 661.5 587.117188 662.488281 588.449219 663.410156 589.828125 C 664.332031 591.207031 665.183594 592.628906 665.964844 594.09375 C 666.75 595.554688 667.457031 597.054688 668.09375 598.585938 C 668.726562 600.121094 669.285156 601.679688 669.769531 603.269531 C 670.25 604.855469 670.652344 606.464844 670.976562 608.089844 C 671.300781 609.71875 671.542969 611.355469 671.707031 613.007812 C 671.867188 614.660156 671.949219 616.316406 671.949219 617.972656 Z M 671.949219 617.972656 " fill-opacity="1" fill-rule="nonzero"/><path fill="#f8c7d0" d="M 994.675781 490.789062 C 979.933594 481.96875 962.222656 478.203125 945.164062 480.265625 C 928.105469 482.328125 911.804688 490.207031 899.589844 502.289062 C 908.125 511.535156 916.8125 520.910156 927.5625 527.457031 C 938.3125 534.003906 951.589844 537.46875 963.660156 533.898438 C 981.023438 528.753906 991.15625 511.222656 994.675781 490.789062 Z M 994.675781 490.789062 " fill-opacity="1" fill-rule="nonzero"/><path fill="#ffbd91" d="M 679 214.417969 C 676.273438 214.417969 673.5625 213.242188 671.6875 210.976562 C 654.535156 190.191406 634.519531 172.515625 612.199219 158.449219 C 607.773438 155.664062 606.445312 149.808594 609.238281 145.386719 C 612.023438 140.957031 617.871094 139.625 622.304688 142.429688 C 646.332031 157.570312 667.867188 176.578125 686.304688 198.914062 C 689.636719 202.957031 689.0625 208.921875 685.023438 212.253906 C 683.261719 213.707031 681.125 214.417969 679 214.417969 Z M 679 214.417969 " fill-opacity="1" fill-rule="nonzero"/><path fill="#ffbd91" d="M 791.738281 181.3125 C 789.800781 181.3125 787.847656 180.722656 786.160156 179.492188 L 740.621094 146.25 C 736.398438 143.160156 735.472656 137.238281 738.558594 133.011719 C 741.648438 128.792969 747.554688 127.859375 751.796875 130.949219 L 797.335938 164.191406 C 801.558594 167.28125 802.484375 173.203125 799.398438 177.429688 C 797.542969 179.964844 794.664062 181.3125 791.738281 181.3125 Z M 791.738281 181.3125 " fill-opacity="1" fill-rule="nonzero"/><path fill="#ffbd91" d="M 775.222656 299.789062 C 772.394531 299.789062 769.59375 298.523438 767.726562 296.117188 L 737.636719 257.234375 C 734.433594 253.089844 735.195312 247.140625 739.335938 243.941406 C 743.46875 240.75 749.425781 241.507812 752.625 245.632812 L 782.714844 284.519531 C 785.914062 288.664062 785.15625 294.609375 781.015625 297.8125 C 779.289062 299.144531 777.25 299.789062 775.222656 299.789062 Z M 775.222656 299.789062 " fill-opacity="1" fill-rule="nonzero"/><path fill="#ffbd91" d="M 919.722656 237.457031 C 916.421875 237.457031 913.214844 235.726562 911.472656 232.65625 C 901.941406 215.824219 889.457031 202.132812 874.367188 191.960938 C 870.027344 189.035156 868.882812 183.144531 871.808594 178.808594 C 874.734375 174.476562 880.628906 173.332031 884.960938 176.253906 C 902.5 188.085938 916.972656 203.917969 927.957031 223.316406 C 930.535156 227.875 928.933594 233.648438 924.382812 236.226562 C 922.90625 237.058594 921.304688 237.457031 919.722656 237.457031 Z M 919.722656 237.457031 " fill-opacity="1" fill-rule="nonzero"/><path fill="#ffbd91" d="M 867.667969 351.078125 C 863.230469 351.078125 859.265625 347.953125 858.378906 343.429688 C 854.078125 321.546875 846.015625 302.4375 834.425781 286.648438 C 831.328125 282.429688 832.234375 276.5 836.453125 273.402344 C 840.667969 270.320312 846.601562 271.21875 849.699219 275.4375 C 862.953125 293.492188 872.132812 315.144531 876.976562 339.785156 C 877.984375 344.917969 874.636719 349.894531 869.503906 350.902344 C 868.886719 351.023438 868.273438 351.078125 867.667969 351.078125 Z M 867.667969 351.078125 " fill-opacity="1" fill-rule="nonzero"/><path fill="#ffbd91" d="M 1373.910156 1205.945312 C 1306.765625 1222.742188 1247.441406 1268.632812 1214.332031 1329.394531 C 1249.738281 1344.777344 1289.214844 1350.675781 1327.574219 1346.316406 C 1345.308594 1344.296875 1363.132812 1339.992188 1378.300781 1330.582031 C 1393.46875 1321.175781 1405.765625 1306.117188 1408.84375 1288.539062 C 1414.0625 1258.71875 1392.976562 1231.335938 1373.910156 1205.945312 Z M 1373.910156 1205.945312 " fill-opacity="1" fill-rule="nonzero"/><path fill="#552d2d" d="M 1010.0625 184.050781 C 1008.804688 184.050781 1007.527344 183.800781 1006.296875 183.265625 C 1001.496094 181.183594 999.292969 175.605469 1001.375 170.816406 C 1016.382812 136.222656 1011.015625 100.816406 987.011719 76.089844 C 962.898438 51.25 926.769531 43.390625 895.007812 56.0625 C 874.285156 64.324219 858.871094 79.101562 849.195312 99.980469 C 846.992188 104.738281 841.355469 106.769531 836.617188 104.59375 C 831.871094 102.394531 829.800781 96.761719 832.003906 92.019531 C 843.78125 66.601562 862.621094 48.582031 887.984375 38.46875 C 926.917969 22.925781 971.128906 32.535156 1000.605469 62.894531 C 1030.144531 93.316406 1036.925781 136.472656 1018.757812 178.34375 C 1017.210938 181.925781 1013.722656 184.050781 1010.0625 184.050781 Z M 1010.0625 184.050781 " fill-opacity="1" fill-rule="nonzero"/><path fill="#552d2d" d="M 429.871094 265.679688 C 429.363281 265.679688 428.84375 265.640625 428.328125 265.558594 C 381.945312 257.964844 344.976562 242.101562 318.441406 218.402344 C 284.769531 188.324219 268.792969 144.011719 277.734375 105.507812 C 286.398438 68.191406 318.855469 36.753906 358.492188 27.265625 C 394.621094 18.632812 435.71875 27.613281 468.429688 51.3125 C 497.21875 72.164062 520.203125 104.605469 533.144531 142.660156 C 534.828125 147.617188 532.179688 152.992188 527.222656 154.675781 C 522.269531 156.394531 516.890625 153.710938 515.207031 148.765625 C 503.515625 114.382812 482.953125 85.222656 457.308594 66.648438 C 429.015625 46.152344 393.707031 38.296875 362.90625 45.691406 C 330.082031 53.539062 303.273438 79.304688 296.191406 109.789062 C 288.789062 141.652344 302.480469 178.742188 331.070312 204.269531 C 354.871094 225.535156 388.621094 239.863281 431.390625 246.855469 C 436.550781 247.707031 440.054688 252.570312 439.207031 257.734375 C 438.449219 262.375 434.429688 265.679688 429.871094 265.679688 Z M 429.871094 265.679688 " fill-opacity="1" fill-rule="nonzero"/><path fill="#552d2d" d="M 475.558594 180.839844 C 471.675781 180.839844 468.027344 178.4375 466.640625 174.5625 C 451.707031 132.890625 408.832031 102.761719 364.5625 102.761719 C 364.375 102.761719 364.148438 102.777344 364.011719 102.761719 C 358.800781 102.761719 354.566406 98.554688 354.535156 93.339844 C 354.507812 88.109375 358.726562 83.847656 363.960938 83.820312 C 415.953125 83.6875 466.867188 119.023438 484.480469 168.179688 C 486.242188 173.101562 483.683594 178.519531 478.757812 180.285156 C 477.703125 180.664062 476.621094 180.839844 475.558594 180.839844 Z M 475.558594 180.839844 " fill-opacity="1" fill-rule="nonzero"/><path fill="#552d2d" d="M 1120.351562 806.453125 C 1116.421875 806.453125 1112.746094 803.992188 1111.390625 800.0625 C 1109.691406 795.125 1112.320312 789.730469 1117.265625 788.027344 C 1188.984375 763.351562 1241.964844 703.875 1249.101562 640.027344 C 1253.464844 600.957031 1242.082031 557.019531 1215.273438 509.441406 C 1202.828125 487.34375 1188.121094 465.886719 1173.902344 445.136719 C 1161.632812 427.230469 1148.941406 408.722656 1137.574219 389.640625 C 1124.964844 368.488281 1113.695312 346.175781 1102.792969 324.597656 C 1082.824219 285.066406 1062.175781 244.191406 1033.175781 210.707031 C 978.683594 147.8125 891.847656 108.046875 788.65625 98.746094 C 699.195312 90.667969 608.636719 106.039062 521.070312 120.914062 L 511.421875 122.550781 C 506.207031 123.363281 501.367188 119.941406 500.5 114.789062 C 499.625 109.632812 503.097656 104.746094 508.257812 103.871094 L 517.902344 102.234375 C 606.664062 87.167969 698.46875 71.601562 790.359375 79.878906 C 898.460938 89.621094 989.78125 131.679688 1047.496094 198.3125 C 1078.035156 233.5625 1099.214844 275.5 1119.710938 316.0625 C 1130.460938 337.34375 1141.582031 359.359375 1153.851562 379.949219 C 1164.914062 398.511719 1177.429688 416.769531 1189.535156 434.4375 C 1203.984375 455.515625 1218.925781 477.328125 1231.78125 500.136719 C 1260.582031 551.257812 1272.746094 599.03125 1267.929688 642.136719 C 1260 713.097656 1201.933594 778.925781 1123.4375 805.9375 C 1122.417969 806.289062 1121.375 806.453125 1120.351562 806.453125 Z M 1120.351562 806.453125 " fill-opacity="1" fill-rule="nonzero"/><path fill="#552d2d" d="M 956.246094 543.453125 C 937.382812 543.453125 917.105469 531.457031 899.210938 519.117188 C 894.90625 516.148438 893.824219 510.246094 896.792969 505.9375 C 899.777344 501.644531 905.671875 500.5625 909.972656 503.523438 C 926.699219 515.054688 947.75 527.753906 961.980469 523.757812 C 967.1875 522.289062 972.324219 518.191406 976.445312 512.226562 C 980.660156 506.128906 983.609375 498.609375 986.46875 491.339844 C 988.382812 486.464844 993.898438 484.089844 998.746094 485.984375 C 1003.617188 487.898438 1006.019531 493.394531 1004.105469 498.257812 C 1000.855469 506.535156 997.492188 515.09375 992.035156 522.992188 C 987.351562 529.773438 979.234375 538.566406 967.136719 541.980469 C 963.578125 542.988281 959.9375 543.453125 956.246094 543.453125 Z M 956.246094 543.453125 " fill-opacity="1" fill-rule="nonzero"/><path fill="#552d2d" d="M 943.121094 598.5625 C 940.617188 598.5625 938.117188 597.570312 936.253906 595.609375 C 932.648438 591.816406 932.800781 585.824219 936.601562 582.226562 C 946.828125 572.503906 951.367188 556.390625 950.082031 534.324219 C 949.78125 529.105469 953.765625 524.628906 958.992188 524.324219 C 964.183594 524.074219 968.695312 528.003906 969 533.230469 C 970.621094 561.117188 964.113281 582.226562 949.644531 595.953125 C 947.8125 597.699219 945.46875 598.5625 943.121094 598.5625 Z M 943.121094 598.5625 " fill-opacity="1" fill-rule="nonzero"/><path fill="#fffcf6" d="M 1268.976562 938.996094 C 1273.359375 924.421875 1263.644531 908.433594 1250.222656 901.253906 C 1236.800781 894.074219 1220.765625 893.894531 1205.617188 895.402344 C 1182.128906 897.746094 1159.011719 903.757812 1137.363281 913.15625 C 1118.671875 921.269531 1100.589844 932.339844 1088.65625 948.851562 C 1076.71875 965.363281 1071.992188 988.152344 1080.761719 1006.542969 C 1089.304688 1024.46875 1108.679688 1034.960938 1128.054688 1039.335938 C 1161.316406 1046.839844 1197.710938 1039.066406 1225.003906 1018.632812 C 1252.292969 998.195312 1261.347656 964.359375 1268.976562 938.996094 Z M 1268.976562 938.996094 " fill-opacity="1" fill-rule="nonzero"/><path fill="#ffbd91" d="M 1120.1875 917.066406 C 1156.40625 947.945312 1182.617188 990.378906 1194.007812 1036.585938 C 1169.085938 1041.550781 1143.101562 1041.113281 1118.363281 1035.308594 C 1101.785156 1031.421875 1084.210938 1023.734375 1077.257812 1008.199219 C 1072.324219 997.171875 1073.804688 984.390625 1076.496094 972.617188 C 1079.472656 959.621094 1083.945312 946.671875 1092.132812 936.144531 C 1100.324219 925.621094 1112.707031 917.753906 1120.1875 917.066406 Z M 1120.1875 917.066406 " fill-opacity="1" fill-rule="nonzero"/><path fill="#552d2d" d="M 1147.050781 1050.808594 C 1110.351562 1050.808594 1083.414062 1038.921875 1071.03125 1017.195312 C 1055.21875 989.472656 1068.023438 955.160156 1088.839844 935.597656 C 1109.578125 916.105469 1137.097656 907.300781 1161.375 899.542969 C 1166.328125 897.949219 1171.691406 900.6875 1173.289062 905.671875 C 1174.878906 910.660156 1172.132812 915.988281 1167.148438 917.578125 C 1144.78125 924.738281 1119.4375 932.839844 1101.820312 949.394531 C 1086.78125 963.53125 1076.648438 988.808594 1087.488281 1007.816406 C 1099.742188 1029.3125 1131.339844 1032.050781 1149.242188 1031.847656 C 1184.941406 1031.339844 1212.40625 1022.449219 1230.871094 1005.449219 C 1254.082031 984.0625 1263.476562 946.289062 1254.242188 911.445312 C 1243.921875 872.488281 1215.429688 844.136719 1193.34375 827.21875 C 1176.050781 813.957031 1160.914062 805.5 1140.621094 795.363281 C 1135.9375 793.023438 1134.035156 787.335938 1136.378906 782.65625 C 1138.710938 777.984375 1144.390625 776.085938 1149.085938 778.417969 C 1169.875 788.796875 1186.457031 798.0625 1204.871094 812.179688 C 1229.296875 830.898438 1260.871094 862.476562 1272.558594 906.597656 C 1283.714844 948.683594 1272.394531 992.953125 1243.710938 1019.378906 C 1221.714844 1039.636719 1190.023438 1050.207031 1149.511719 1050.789062 C 1148.6875 1050.800781 1147.863281 1050.808594 1147.050781 1050.808594 Z M 1147.050781 1050.808594 " fill-opacity="1" fill-rule="nonzero"/><path fill="#fffcf6" d="M 815.894531 1137.042969 C 815.894531 1137.042969 594.285156 1159.289062 616.210938 1372.265625 C 616.210938 1372.265625 827.746094 1416.78125 934.25 1387.914062 C 1040.757812 1359.046875 946.355469 1231.886719 946.355469 1231.886719 Z M 815.894531 1137.042969 " fill-opacity="1" fill-rule="nonzero"/><path fill="#ffbd91" d="M 906.976562 1204.613281 C 846.355469 1244.019531 804.671875 1311.273438 796.359375 1383.085938 C 831.652344 1392.476562 868.40625 1400.765625 904.429688 1394.753906 C 940.453125 1388.746094 975.839844 1365.160156 985.230469 1329.875 C 992.558594 1302.332031 982.816406 1272.273438 965.148438 1249.910156 C 947.480469 1227.542969 922.730469 1211.859375 906.976562 1204.613281 Z M 906.976562 1204.613281 " fill-opacity="1" fill-rule="nonzero"/><path fill="#552d2d" d="M 874.753906 1406.027344 C 867.289062 1406.027344 859.851562 1405.804688 852.5625 1405.5 C 615.785156 1395.761719 425.824219 1352.992188 287.953125 1278.367188 C 166.78125 1212.777344 85.09375 1122.539062 45.152344 1010.15625 C -13.898438 843.988281 30.457031 667.765625 78.0625 549.1875 C 132.308594 414.097656 220.496094 282.011719 308.21875 204.503906 C 312.132812 201.042969 318.132812 201.402344 321.589844 205.324219 C 325.058594 209.246094 324.6875 215.230469 320.765625 218.691406 C 153.8125 366.230469 -34.046875 730.710938 63.011719 1003.8125 C 145.644531 1236.355469 418.941406 1368.707031 853.339844 1386.578125 C 892.359375 1388.167969 935.953125 1387.558594 959.125 1359.523438 C 988.027344 1324.550781 968.851562 1266.75 934.519531 1233.257812 C 915.882812 1215.082031 894.226562 1201.019531 871.292969 1186.136719 C 850.375 1172.558594 828.738281 1158.511719 809.835938 1141.140625 C 805.980469 1137.597656 805.734375 1131.601562 809.273438 1127.753906 C 812.816406 1123.90625 818.8125 1123.648438 822.660156 1127.191406 C 840.390625 1143.488281 861.347656 1157.09375 881.613281 1170.246094 C 904.308594 1184.984375 927.777344 1200.214844 947.75 1219.695312 C 988.984375 1259.921875 1009.972656 1327.730469 973.734375 1371.582031 C 949.835938 1400.496094 911.929688 1406.027344 874.753906 1406.027344 Z M 874.753906 1406.027344 " fill-opacity="1" fill-rule="nonzero"/><path fill="#552d2d" d="M 1306.546875 1360.910156 C 1242.957031 1360.917969 1178.863281 1328.378906 1143.910156 1273.203125 C 1142.277344 1270.632812 1138.792969 1269.699219 1135.625 1271.011719 C 1090.226562 1289.640625 1034.460938 1299.5 982.589844 1298.34375 C 977.359375 1298.214844 973.21875 1293.878906 973.351562 1288.640625 C 973.480469 1283.417969 977.90625 1279.699219 983.050781 1279.402344 C 1032.347656 1280.734375 1085.375 1271.160156 1128.425781 1253.492188 C 1140.105469 1248.691406 1153.355469 1252.707031 1159.917969 1263.078125 C 1202.210938 1329.832031 1291.828125 1359.789062 1363.945312 1331.292969 C 1375.171875 1326.851562 1384.480469 1320.230469 1390.855469 1312.136719 C 1413.527344 1283.371094 1396.667969 1251.503906 1375.074219 1221.359375 C 1327.183594 1154.53125 1261.207031 1086.011719 1209.078125 1033.78125 C 1205.378906 1030.082031 1205.390625 1024.085938 1209.089844 1020.386719 C 1212.800781 1016.695312 1218.800781 1016.695312 1222.492188 1020.40625 C 1275.128906 1073.136719 1341.792969 1142.386719 1390.480469 1210.335938 C 1406.664062 1232.933594 1440.347656 1279.949219 1405.742188 1323.863281 C 1397.292969 1334.574219 1385.25 1343.242188 1370.910156 1348.902344 C 1350.328125 1357.042969 1328.464844 1360.910156 1306.546875 1360.910156 Z M 1306.546875 1360.910156 " fill-opacity="1" fill-rule="nonzero"/><path fill="#fffcf6" d="M 654.726562 893.128906 C 643.105469 944.234375 649.421875 999.230469 672.320312 1046.375 C 676.34375 1054.660156 681.390625 1063.214844 689.742188 1067.101562 C 698.339844 1071.101562 708.429688 1069.226562 717.609375 1066.839844 C 745.210938 1059.65625 771.761719 1048.464844 796.179688 1033.730469 C 810.488281 1025.09375 824.28125 1015.035156 834.324219 1001.679688 C 844.367188 988.320312 850.335938 971.226562 847.558594 954.75 C 844.394531 935.972656 830.28125 920.417969 813.617188 911.195312 C 796.953125 901.972656 777.867188 898.210938 759.03125 895.394531 C 723.292969 890.054688 687.121094 887.652344 654.726562 893.128906 Z M 654.726562 893.128906 " fill-opacity="1" fill-rule="nonzero"/><path fill="#ffbd91" d="M 733.648438 887.648438 C 704.453125 936.675781 710.769531 1004.25 748.546875 1047.019531 C 772.046875 1038.894531 796.109375 1030.460938 815.222656 1014.5625 C 834.335938 998.664062 847.738281 973.449219 842.644531 949.121094 C 838.152344 927.664062 820.191406 911.023438 800.078125 902.300781 C 779.964844 893.574219 757.699219 891.476562 733.648438 887.648438 Z M 733.648438 887.648438 " fill-opacity="1" fill-rule="nonzero"/><path fill="#552d2d" d="M 676.128906 1078.140625 C 671.457031 1078.140625 667.390625 1074.683594 666.75 1069.925781 C 666.058594 1064.746094 669.699219 1059.976562 674.882812 1059.28125 C 712.597656 1054.230469 749.042969 1043.167969 783.214844 1026.40625 C 796.246094 1020.007812 812.695312 1010.960938 824.269531 997.667969 C 835.390625 984.90625 840.585938 969.207031 838.167969 955.667969 C 835.9375 943.21875 827.152344 931.238281 814.058594 922.824219 C 800.355469 914.015625 783.777344 909.917969 770.863281 907.339844 C 729.976562 899.144531 686.75 899.042969 645.828125 907.015625 C 640.683594 908.003906 635.71875 904.664062 634.714844 899.53125 C 633.710938 894.398438 637.066406 889.421875 642.199219 888.421875 C 685.527344 879.976562 731.304688 880.089844 774.578125 888.765625 C 789.125 891.667969 807.933594 896.359375 824.3125 906.894531 C 841.816406 918.152344 853.664062 934.707031 856.820312 952.335938 C 860.238281 971.464844 853.410156 993.0625 838.554688 1010.121094 C 824.761719 1025.953125 806.195312 1036.230469 791.5625 1043.410156 C 755.554688 1061.074219 717.144531 1072.730469 677.402344 1078.058594 C 676.976562 1078.113281 676.550781 1078.140625 676.128906 1078.140625 Z M 676.128906 1078.140625 " fill-opacity="1" fill-rule="nonzero"/></svg>