<svg xmlns="http://www.w3.org/2000/svg" xmlns:xlink="http://www.w3.org/1999/xlink" width="1920" zoomAndPan="magnify" viewBox="0 0 1440 1439.999935" height="1920" preserveAspectRatio="xMidYMid meet" version="1.0"><path fill="#fffcf6" d="M 869.445312 770.710938 C 836.378906 810.882812 809.074219 825.394531 787.027344 833.503906 C 795.898438 887.363281 804.007812 941.539062 805.082031 996.097656 C 805.464844 1018.148438 804.703125 1040.644531 797.480469 1061.492188 C 790.195312 1082.335938 775.625 1101.535156 755.226562 1109.773438 C 734.765625 1118.011719 708.347656 1112.878906 694.285156 1095.582031 C 686.621094 1114.464844 669.070312 1129.039062 649.054688 1133.03125 C 630.300781 1136.769531 610.03125 1131.128906 595.777344 1118.457031 C 587.605469 1131.761719 574.492188 1141.457031 560.492188 1148.492188 C 533.378906 1162.050781 502.398438 1166.421875 472.054688 1165.535156 C 441.773438 1164.648438 411.871094 1158.691406 382.164062 1152.546875 C 340.351562 1143.800781 298.097656 1134.359375 259.707031 1116.175781 C 207.570312 1103.945312 153.40625 1075.558594 98.167969 1024.992188 C -68.441406 844.40625 71.6875 603.808594 91.894531 564.269531 C 123 503.183594 152.203125 479.171875 182.167969 446.410156 C 209.089844 409.851562 261.609375 376.011719 301.203125 351.429688 C 291.191406 324.433594 297.71875 292.117188 317.417969 271.019531 C 337.058594 249.917969 368.921875 241.046875 396.667969 248.96875 C 424.351562 256.949219 441.140625 288.125 446.527344 316.386719 C 472.625 313.21875 503.601562 312.203125 529.765625 314.675781 C 590.328125 315.878906 649.558594 333.621094 671.289062 345.027344 C 744.773438 383.617188 758.015625 365.304688 821.617188 535.628906 C 866.785156 656.71875 886.359375 697.019531 869.445312 770.710938 Z M 869.445312 770.710938 " fill-opacity="1" fill-rule="nonzero"/><path fill="#fffcf6" d="M 768.703125 412.761719 C 781.542969 395.949219 784.519531 372.179688 776.21875 352.773438 C 767.917969 333.367188 748.660156 319.082031 727.621094 316.71875 C 706.582031 314.355469 684.578125 324.011719 672.089844 341.082031 C 706.453125 360.5625 738.425781 384.21875 768.703125 412.761719 Z M 768.703125 412.761719 " fill-opacity="1" fill-rule="nonzero"/><path fill="#f09a61" d="M 862.164062 639.117188 C 860.773438 658.4375 841.046875 672.488281 822.097656 673.160156 C 803.148438 673.828125 785.40625 664.382812 769.8125 653.558594 C 754.222656 642.730469 739.507812 630.125 721.957031 623.019531 C 682.644531 607.105469 638.097656 621.660156 598.292969 637.195312 C 558.488281 652.734375 515.382812 669.53125 474.679688 657.679688 C 441.621094 648.054688 418.925781 616.914062 387.320312 603.078125 C 266.765625 550.300781 -50.378906 716.207031 98.144531 1024.992188 C -130.375 737.625 187.363281 415.210938 310.855469 351.53125 C 291.6875 332.671875 288.652344 300.273438 302.566406 277.234375 C 316.484375 254.195312 345.339844 241.714844 372.007812 245.609375 C 398.671875 249.5 422.078125 268.71875 432.726562 293.382812 C 435.378906 299.523438 437.535156 306.296875 442.710938 310.546875 C 449.261719 315.917969 458.617188 315.671875 467.105469 315.414062 C 536.085938 313.3125 604.285156 328.265625 672.582031 342.894531 C 673.519531 330.738281 684.691406 321.683594 696.214844 317.582031 C 720.992188 308.765625 750.953125 317.457031 767.066406 338.136719 C 783.183594 358.820312 784.230469 389.917969 769.75 411.207031 C 809.242188 484.199219 820.648438 569.753906 862.164062 639.117188 Z M 862.164062 639.117188 " fill-opacity="1" fill-rule="nonzero"/><path fill="#fffcf6" d="M 912.769531 1006.613281 C 918.210938 1021.882812 916.773438 1035.289062 909.175781 1059.851562 C 901.578125 1084.414062 883.355469 1099 821.695312 1100.988281 C 805.15625 1098.953125 801.71875 1098.046875 790.234375 1092.183594 C 804.199219 1067.492188 809.722656 1038.746094 810.378906 1010.382812 C 811.035156 982.023438 807.046875 953.78125 803.070312 925.695312 C 814.386719 923.800781 826.050781 927.835938 835.535156 934.296875 C 845.015625 940.757812 901.914062 980.167969 912.769531 1006.613281 Z M 912.769531 1006.613281 " fill-opacity="1" fill-rule="nonzero"/><path fill="#552d2d" d="M 533.9375 598.074219 C 522.453125 602.597656 510.273438 607.652344 503.328125 617.835938 C 500.90625 621.386719 499.210938 625.863281 500.5 629.957031 C 501.851562 634.234375 506.222656 637.011719 510.660156 637.765625 C 515.101562 638.515625 519.640625 637.613281 524.039062 636.640625 C 533.644531 634.515625 543.203125 632.046875 552.394531 628.53125 C 557.699219 626.503906 563.007812 624.035156 566.9375 619.945312 C 570.863281 615.851562 573.179688 609.8125 571.507812 604.40625 C 569.671875 598.484375 563.511719 594.738281 557.355469 593.875 C 551.195312 593.011719 544.734375 593.824219 533.9375 598.074219 Z M 533.9375 598.074219 " fill-opacity="1" fill-rule="nonzero"/><path fill="#552d2d" d="M 815.757812 612.449219 C 825.589844 619.863281 835.945312 627.980469 839.871094 639.636719 C 841.238281 643.707031 841.65625 648.464844 839.300781 652.066406 C 836.835938 655.828125 831.875 657.335938 827.394531 656.878906 C 822.914062 656.421875 818.789062 654.339844 814.816406 652.230469 C 806.140625 647.625 797.605469 642.699219 789.707031 636.867188 C 785.152344 633.5 780.707031 629.707031 778.035156 624.722656 C 775.363281 619.734375 774.773438 613.296875 777.851562 608.539062 C 781.226562 603.324219 788.179688 601.359375 794.34375 602.167969 C 800.511719 602.972656 806.511719 605.476562 815.757812 612.449219 Z M 815.757812 612.449219 " fill-opacity="1" fill-rule="nonzero"/><path fill="#f8c7d0" d="M 355.105469 282.0625 C 380.660156 288.683594 402.328125 308.589844 411.03125 333.433594 C 413.695312 341.042969 414.953125 350.234375 409.925781 356.5625 C 405.210938 362.492188 396.660156 363.703125 389.09375 363.148438 C 367.929688 361.59375 347.878906 349.179688 337.113281 330.964844 C 331.597656 321.636719 328.4375 310.292969 331.421875 299.863281 C 334.40625 289.433594 345.113281 279.472656 355.105469 282.0625 Z M 355.105469 282.0625 " fill-opacity="1" fill-rule="nonzero"/><path fill="#ffbd91" d="M 861.945312 961.257812 C 843.953125 975.960938 801.621094 1047.808594 821.433594 1102.140625 C 822.738281 1105.722656 829.367188 1099.4375 832.664062 1101.351562 C 834.78125 1102.578125 862.15625 1103.972656 876.777344 1097.027344 C 887.3125 1092.019531 895.65625 1083.183594 901.902344 1073.328125 C 908.152344 1063.476562 912.492188 1052.554688 916.796875 1041.710938 C 919.71875 1034.34375 919.441406 1032.914062 919.214844 1024.992188 C 918.886719 1013.335938 913.453125 1001.664062 906.625 992.210938 C 901.253906 984.769531 894.207031 979.523438 887.074219 973.75 C 879.21875 967.390625 871.054688 953.8125 861.945312 961.257812 Z M 861.945312 961.257812 " fill-opacity="1" fill-rule="nonzero"/><path fill="#f8c7d0" d="M 488.136719 649.921875 C 488.402344 651 488.613281 652.089844 488.769531 653.1875 C 488.925781 654.285156 489.03125 655.390625 489.078125 656.5 C 489.128906 657.609375 489.121094 658.71875 489.0625 659.824219 C 489 660.933594 488.886719 662.039062 488.714844 663.136719 C 488.546875 664.234375 488.324219 665.320312 488.046875 666.394531 C 487.773438 667.472656 487.445312 668.53125 487.0625 669.574219 C 486.683594 670.621094 486.25 671.640625 485.769531 672.644531 C 485.289062 673.644531 484.757812 674.621094 484.179688 675.574219 C 483.601562 676.523438 482.980469 677.441406 482.3125 678.332031 C 481.644531 679.222656 480.933594 680.074219 480.179688 680.894531 C 479.429688 681.714844 478.636719 682.496094 477.808594 683.238281 C 476.980469 683.984375 476.117188 684.683594 475.21875 685.339844 C 474.320312 686 473.390625 686.613281 472.433594 687.179688 C 471.476562 687.746094 470.492188 688.265625 469.480469 688.738281 C 468.472656 689.207031 467.441406 689.628906 466.390625 690 C 465.339844 690.371094 464.273438 690.6875 463.191406 690.953125 C 462.113281 691.21875 461.019531 691.433594 459.917969 691.589844 C 458.8125 691.75 457.707031 691.855469 456.59375 691.90625 C 455.480469 691.957031 454.367188 691.953125 453.257812 691.894531 C 452.144531 691.835938 451.039062 691.722656 449.9375 691.554688 C 448.835938 691.390625 447.746094 691.167969 446.667969 690.894531 C 445.589844 690.621094 444.527344 690.296875 443.480469 689.917969 C 442.433594 689.542969 441.40625 689.113281 440.402344 688.636719 C 439.398438 688.15625 438.421875 687.632812 437.46875 687.058594 C 436.515625 686.484375 435.59375 685.863281 434.703125 685.199219 C 433.8125 684.535156 432.957031 683.828125 432.136719 683.078125 C 431.3125 682.332031 430.53125 681.542969 429.789062 680.71875 C 429.042969 679.894531 428.34375 679.035156 427.683594 678.140625 C 427.027344 677.246094 426.414062 676.324219 425.84375 675.367188 C 425.277344 674.414062 424.757812 673.433594 424.289062 672.429688 C 423.816406 671.425781 423.398438 670.398438 423.027344 669.351562 C 422.65625 668.304688 422.339844 667.242188 422.074219 666.164062 C 421.808594 665.085938 421.597656 664 421.441406 662.898438 C 421.285156 661.800781 421.179688 660.695312 421.132812 659.589844 C 421.082031 658.480469 421.089844 657.371094 421.148438 656.261719 C 421.210938 655.152344 421.324219 654.050781 421.496094 652.953125 C 421.664062 651.855469 421.886719 650.769531 422.164062 649.691406 C 422.441406 648.617188 422.769531 647.554688 423.148438 646.511719 C 423.53125 645.46875 423.960938 644.445312 424.441406 643.441406 C 424.921875 642.441406 425.453125 641.464844 426.03125 640.515625 C 426.609375 639.566406 427.230469 638.644531 427.898438 637.753906 C 428.566406 636.867188 429.277344 636.011719 430.03125 635.191406 C 430.78125 634.371094 431.574219 633.589844 432.402344 632.847656 C 433.230469 632.105469 434.09375 631.40625 434.992188 630.746094 C 435.890625 630.089844 436.820312 629.476562 437.777344 628.90625 C 438.738281 628.339844 439.71875 627.820312 440.730469 627.351562 C 441.738281 626.878906 442.769531 626.457031 443.820312 626.085938 C 444.871094 625.71875 445.9375 625.398438 447.019531 625.132812 C 448.101562 624.867188 449.191406 624.65625 450.292969 624.496094 C 451.398438 624.335938 452.503906 624.230469 453.617188 624.179688 C 454.730469 624.128906 455.84375 624.132812 456.953125 624.191406 C 458.066406 624.25 459.171875 624.363281 460.273438 624.53125 C 461.375 624.699219 462.464844 624.917969 463.542969 625.191406 C 464.621094 625.464844 465.683594 625.789062 466.730469 626.167969 C 467.777344 626.546875 468.804688 626.972656 469.808594 627.453125 C 470.8125 627.929688 471.789062 628.457031 472.742188 629.03125 C 473.695312 629.605469 474.617188 630.222656 475.507812 630.886719 C 476.398438 631.550781 477.253906 632.257812 478.078125 633.007812 C 478.898438 633.753906 479.679688 634.542969 480.421875 635.367188 C 481.167969 636.191406 481.867188 637.050781 482.527344 637.945312 C 483.183594 638.839844 483.796875 639.765625 484.367188 640.71875 C 484.933594 641.671875 485.453125 642.652344 485.921875 643.660156 C 486.394531 644.664062 486.816406 645.6875 487.183594 646.734375 C 487.554688 647.78125 487.871094 648.84375 488.136719 649.921875 Z M 488.136719 649.921875 " fill-opacity="1" fill-rule="nonzero"/><path fill="#f8c7d0" d="M 717.273438 620.839844 C 708.664062 613.203125 697.464844 608.527344 685.960938 607.761719 C 674.457031 606.996094 662.71875 610.148438 653.144531 616.574219 C 657.609375 623.714844 662.152344 630.957031 668.414062 636.601562 C 674.671875 642.242188 682.988281 646.171875 691.394531 645.324219 C 703.488281 644.101562 712.375 633.835938 717.273438 620.839844 Z M 717.273438 620.839844 " fill-opacity="1" fill-rule="nonzero"/><path fill="#ffbd91" d="M 545.203125 399.980469 C 542.96875 399.980469 540.800781 398.792969 539.644531 396.695312 C 530.960938 380.898438 519.992188 366.789062 507.054688 354.765625 C 504.492188 352.382812 504.34375 348.375 506.726562 345.8125 C 509.105469 343.25 513.109375 343.101562 515.679688 345.480469 C 529.609375 358.425781 541.40625 373.601562 550.746094 390.589844 C 552.433594 393.65625 551.316406 397.507812 548.25 399.195312 C 547.28125 399.726562 546.234375 399.980469 545.203125 399.980469 Z M 545.203125 399.980469 " fill-opacity="1" fill-rule="nonzero"/><path fill="#ffbd91" d="M 623.691406 392.234375 C 622.003906 392.234375 620.320312 391.5625 619.074219 390.234375 L 593.242188 362.714844 C 590.847656 360.164062 590.972656 356.152344 593.523438 353.757812 C 596.070312 351.367188 600.082031 351.484375 602.476562 354.039062 L 628.308594 381.5625 C 630.703125 384.113281 630.578125 388.125 628.023438 390.519531 C 626.804688 391.667969 625.246094 392.234375 623.691406 392.234375 Z M 623.691406 392.234375 " fill-opacity="1" fill-rule="nonzero"/><path fill="#ffbd91" d="M 597.878906 468.078125 C 595.570312 468.078125 593.347656 466.816406 592.226562 464.617188 L 577.289062 435.304688 C 575.703125 432.1875 576.941406 428.371094 580.058594 426.785156 C 583.175781 425.191406 586.988281 426.433594 588.578125 429.550781 L 603.515625 458.863281 C 605.105469 461.980469 603.867188 465.796875 600.75 467.386719 C 599.828125 467.855469 598.847656 468.078125 597.878906 468.078125 Z M 597.878906 468.078125 " fill-opacity="1" fill-rule="nonzero"/><path fill="#ffbd91" d="M 700.96875 445.070312 C 698.332031 445.070312 695.867188 443.40625 694.972656 440.769531 C 690.816406 428.53125 684.308594 417.976562 675.640625 409.402344 C 673.15625 406.9375 673.132812 402.929688 675.59375 400.441406 C 678.046875 397.953125 682.0625 397.929688 684.550781 400.390625 C 694.632812 410.359375 702.171875 422.574219 706.96875 436.691406 C 708.09375 440.007812 706.320312 443.605469 703.007812 444.730469 C 702.332031 444.960938 701.644531 445.070312 700.96875 445.070312 Z M 700.96875 445.070312 " fill-opacity="1" fill-rule="nonzero"/><path fill="#ffbd91" d="M 652.351562 513.296875 C 648.867188 513.296875 646.035156 510.480469 646.015625 506.992188 C 645.9375 492.070312 643.035156 478.507812 637.382812 466.683594 C 635.871094 463.527344 637.207031 459.742188 640.367188 458.234375 C 643.507812 456.722656 647.300781 458.058594 648.8125 461.21875 C 655.277344 474.742188 658.597656 490.121094 658.683594 506.929688 C 658.703125 510.429688 655.882812 513.277344 652.378906 513.296875 C 652.371094 513.296875 652.359375 513.296875 652.351562 513.296875 Z M 652.351562 513.296875 " fill-opacity="1" fill-rule="nonzero"/><path fill="#552d2d" d="M 767.25 421.191406 C 766.015625 421.191406 764.777344 420.832031 763.683594 420.085938 C 760.792969 418.113281 760.050781 414.171875 762.023438 411.28125 C 776.242188 390.449219 777.191406 366.539062 764.554688 347.324219 C 751.800781 327.925781 728.933594 318.226562 706.34375 322.617188 C 691.636719 325.476562 679.609375 333.277344 670.585938 345.8125 C 668.550781 348.652344 664.59375 349.300781 661.746094 347.253906 C 658.90625 345.207031 658.261719 341.25 660.304688 338.40625 C 671.269531 323.167969 685.949219 313.671875 703.929688 310.175781 C 731.605469 304.808594 759.550781 316.652344 775.140625 340.363281 C 790.695312 364.019531 789.703125 393.203125 772.484375 418.425781 C 771.261719 420.222656 769.269531 421.191406 767.25 421.191406 Z M 767.25 421.191406 " fill-opacity="1" fill-rule="nonzero"/><path fill="#fffcf6" d="M 800.234375 911.609375 C 800.234375 911.609375 836.683594 1075.082031 762.828125 1111.214844 C 762.828125 1111.214844 726.9375 1122.730469 694.558594 1096.871094 C 694.558594 1096.871094 720.964844 1069.796875 704.082031 990.332031 C 687.203125 910.871094 800.234375 911.609375 800.234375 911.609375 Z M 800.234375 911.609375 " fill-opacity="1" fill-rule="nonzero"/><path fill="#ffbd91" d="M 710.550781 1057.152344 C 737.363281 1047.851562 765.511719 1042.394531 793.859375 1041.011719 C 797.703125 1040.824219 802.269531 1041.0625 804.347656 1044.300781 C 805.511719 1046.113281 805.539062 1048.40625 805.425781 1050.550781 C 804.167969 1074.550781 788.890625 1097.300781 767.15625 1107.539062 C 745.421875 1117.777344 718.15625 1115.070312 698.859375 1100.753906 C 704.335938 1085.496094 708.21875 1069.664062 710.550781 1057.152344 Z M 710.550781 1057.152344 " fill-opacity="1" fill-rule="nonzero"/><path fill="#552d2d" d="M 746.148438 1120.371094 C 730.464844 1120.371094 714.71875 1114.449219 698.714844 1107.730469 C 695.488281 1106.378906 693.96875 1102.664062 695.320312 1099.4375 C 696.671875 1096.210938 700.386719 1094.695312 703.613281 1096.046875 C 723.378906 1104.335938 741.105469 1110.816406 757.925781 1106.136719 C 772.722656 1102.019531 785.515625 1088.675781 792.144531 1070.4375 C 798.410156 1053.195312 798.996094 1034.1875 799.558594 1015.800781 C 801.582031 949.757812 791.785156 889.734375 780.894531 834.710938 C 780.214844 831.277344 782.449219 827.945312 785.878906 827.265625 C 789.328125 826.585938 792.648438 828.816406 793.324219 832.25 C 803.828125 885.335938 814.289062 948.703125 812.222656 1016.191406 C 811.65625 1034.671875 811.011719 1055.617188 804.050781 1074.769531 C 796.023438 1096.84375 780.050781 1113.136719 761.320312 1118.347656 C 756.265625 1119.753906 751.210938 1120.371094 746.148438 1120.371094 Z M 746.148438 1120.371094 " fill-opacity="1" fill-rule="nonzero"/><path fill="#552d2d" d="M 374.519531 402.695312 C 373.800781 402.695312 373.070312 402.570312 372.355469 402.3125 C 342.742188 391.558594 320.371094 376.527344 305.867188 357.644531 C 287.457031 333.675781 282.507812 302.546875 293.253906 278.339844 C 303.664062 254.890625 329.003906 238.261719 356.308594 236.960938 C 381.253906 235.777344 407.152344 246.789062 425.726562 266.433594 C 442.078125 283.726562 453.144531 307.917969 456.882812 334.554688 C 457.367188 338.019531 454.957031 341.226562 451.492188 341.710938 C 448.011719 342.203125 444.824219 339.785156 444.335938 336.320312 C 440.957031 312.265625 431.078125 290.539062 416.523438 275.140625 C 400.453125 258.148438 378.1875 248.644531 356.914062 249.617188 C 334.277344 250.699219 313.347656 264.308594 304.835938 283.480469 C 295.945312 303.507812 300.292969 329.585938 315.914062 349.921875 C 328.925781 366.863281 349.371094 380.480469 376.679688 390.398438 C 379.96875 391.59375 381.667969 395.230469 380.472656 398.519531 C 379.539062 401.09375 377.109375 402.695312 374.519531 402.695312 Z M 374.519531 402.695312 " fill-opacity="1" fill-rule="nonzero"/><path fill="#552d2d" d="M 415.320312 352.601562 C 412.257812 352.601562 409.5625 350.367188 409.074219 347.246094 C 404.460938 317.878906 379.828125 292.664062 350.496094 287.285156 C 347.054688 286.65625 344.777344 283.351562 345.410156 279.910156 C 346.039062 276.472656 349.320312 274.1875 352.78125 274.820312 C 387.230469 281.136719 416.171875 310.769531 421.589844 345.28125 C 422.132812 348.734375 419.769531 351.976562 416.316406 352.519531 C 415.980469 352.574219 415.648438 352.601562 415.320312 352.601562 Z M 415.320312 352.601562 " fill-opacity="1" fill-rule="nonzero"/><path fill="#552d2d" d="M 761.527344 844.121094 C 758.433594 844.121094 755.726562 841.847656 755.269531 838.695312 C 754.765625 835.230469 757.167969 832.015625 760.628906 831.511719 C 811.027344 824.207031 853.449219 791.683594 866.199219 750.585938 C 874 725.441406 872.035156 695.144531 860.359375 660.535156 C 854.933594 644.460938 847.949219 628.527344 841.1875 613.117188 C 835.355469 599.816406 829.324219 586.066406 824.230469 572.105469 C 818.582031 556.625 813.964844 540.550781 809.5 525.007812 C 801.316406 496.535156 792.855469 467.097656 777.960938 441.480469 C 749.96875 393.351562 697.738281 356.410156 630.886719 337.457031 C 572.925781 321.023438 511.296875 319.863281 451.699219 318.742188 L 445.132812 318.621094 C 441.636719 318.554688 438.855469 315.664062 438.921875 312.164062 C 438.988281 308.664062 442.070312 305.757812 445.375 305.949219 L 451.9375 306.074219 C 512.339844 307.210938 574.804688 308.382812 634.339844 325.261719 C 704.367188 345.117188 759.261719 384.125 788.910156 435.113281 C 804.597656 462.085938 813.277344 492.292969 821.671875 521.503906 C 826.082031 536.839844 830.636719 552.695312 836.132812 567.761719 C 841.085938 581.34375 847.039062 594.90625 852.792969 608.027344 C 859.660156 623.6875 866.761719 639.882812 872.363281 656.484375 C 884.910156 693.671875 886.90625 726.597656 878.300781 754.34375 C 864.132812 800.011719 817.574219 836.0625 762.449219 844.054688 C 762.136719 844.101562 761.832031 844.121094 761.527344 844.121094 Z M 761.527344 844.121094 " fill-opacity="1" fill-rule="nonzero"/><path fill="#552d2d" d="M 690.429688 651.171875 C 676.152344 651.171875 662.4375 639.339844 650.804688 627.597656 C 648.339844 625.109375 648.359375 621.097656 650.847656 618.636719 C 653.332031 616.175781 657.34375 616.191406 659.804688 618.675781 C 669.382812 628.347656 681.664062 639.335938 691.558594 638.449219 C 695.1875 638.128906 699.097656 636.070312 702.570312 632.65625 C 706.117188 629.167969 709.015625 624.589844 711.8125 620.160156 C 713.6875 617.207031 717.59375 616.324219 720.554688 618.195312 C 723.511719 620.066406 724.390625 623.980469 722.523438 626.9375 C 719.335938 631.972656 716.042969 637.179688 711.457031 641.691406 C 707.519531 645.5625 701.070312 650.328125 692.679688 651.074219 C 691.929688 651.140625 691.175781 651.171875 690.429688 651.171875 Z M 690.429688 651.171875 " fill-opacity="1" fill-rule="nonzero"/><path fill="#552d2d" d="M 670.914062 685.390625 C 668.828125 685.390625 666.78125 684.363281 665.574219 682.476562 C 663.683594 679.53125 664.539062 675.609375 667.484375 673.722656 C 675.457031 668.605469 680.480469 658.574219 682.417969 643.90625 C 682.875 640.433594 686.089844 638.003906 689.523438 638.453125 C 692.992188 638.910156 695.433594 642.09375 694.976562 645.5625 C 692.53125 664.101562 685.585938 677.164062 674.328125 684.386719 C 673.269531 685.066406 672.085938 685.390625 670.914062 685.390625 Z M 670.914062 685.390625 " fill-opacity="1" fill-rule="nonzero"/><path fill="#552d2d" d="M 835.820312 1109.523438 C 820.527344 1109.523438 803.945312 1106.109375 784.546875 1099.285156 C 781.25 1098.125 779.511719 1094.507812 780.671875 1091.207031 C 781.832031 1087.90625 785.453125 1086.164062 788.75 1087.332031 C 824.253906 1099.820312 849.070312 1099.902344 874.398438 1087.609375 C 896.738281 1076.765625 917.507812 1050.484375 912 1023.136719 C 909.507812 1010.769531 901.839844 998.464844 888.566406 985.53125 C 863.144531 960.765625 828.800781 942.457031 798.605469 927.238281 C 795.480469 925.664062 794.222656 921.855469 795.796875 918.730469 C 797.371094 915.605469 801.167969 914.34375 804.308594 915.921875 C 835.34375 931.5625 870.695312 950.433594 897.40625 976.453125 C 912.566406 991.226562 921.40625 1005.679688 924.421875 1020.632812 C 931.261719 1054.589844 907.214844 1085.761719 879.929688 1099.011719 C 865.484375 1106.019531 851.3125 1109.523438 835.820312 1109.523438 Z M 835.820312 1109.523438 " fill-opacity="1" fill-rule="nonzero"/><path fill="#fffcf6" d="M 697.5 984.835938 C 697.5 984.835938 731.839844 1092.863281 668.28125 1126.765625 C 668.28125 1126.765625 628.792969 1150.648438 592.945312 1115.769531 C 592.945312 1115.769531 624.03125 1077.5 590.507812 1028.679688 C 556.984375 979.855469 676.847656 955.464844 697.5 984.835938 Z M 697.5 984.835938 " fill-opacity="1" fill-rule="nonzero"/><path fill="#ffbd91" d="M 706.433594 1064.132812 C 701.558594 1089.542969 687.824219 1114.40625 665.214844 1126.976562 C 642.605469 1139.550781 610.679688 1136.4375 594.816406 1115.996094 C 599.859375 1097.179688 601.886719 1077.558594 600.804688 1058.109375 C 618.734375 1052.238281 636.9375 1046.316406 655.789062 1045.480469 C 674.636719 1044.648438 694.542969 1049.527344 706.433594 1064.132812 Z M 706.433594 1064.132812 " fill-opacity="1" fill-rule="nonzero"/><path fill="#552d2d" d="M 637.476562 1141.203125 C 619.785156 1141.203125 602.628906 1134.453125 591.589844 1121.683594 C 589.300781 1119.035156 589.589844 1115.035156 592.234375 1112.746094 C 594.886719 1110.457031 598.882812 1110.746094 601.171875 1113.394531 C 615.628906 1130.109375 643.71875 1133.574219 665.125 1121.273438 C 684.484375 1110.152344 698.285156 1087.761719 702.046875 1061.378906 C 705.066406 1040.179688 702.261719 1016.441406 693.222656 986.675781 C 692.210938 983.328125 694.097656 979.789062 697.445312 978.773438 C 700.78125 977.75 704.328125 979.644531 705.351562 982.992188 C 714.945312 1014.59375 717.878906 1040.066406 714.589844 1063.167969 C 710.28125 1093.382812 694.148438 1119.210938 671.4375 1132.261719 C 660.9375 1138.292969 649.089844 1141.203125 637.476562 1141.203125 Z M 637.476562 1141.203125 " fill-opacity="1" fill-rule="nonzero"/><path fill="#fffcf6" d="M 494.382812 954.109375 C 494.382812 954.109375 601.679688 998.113281 602.898438 1068.914062 C 604.121094 1139.714844 556.105469 1151.554688 543.703125 1154.796875 C 531.296875 1158.039062 454.382812 1168.917969 429.289062 1159.40625 C 404.195312 1149.890625 312.332031 985.921875 494.382812 954.109375 Z M 494.382812 954.109375 " fill-opacity="1" fill-rule="nonzero"/><path fill="#ffbd91" d="M 531.976562 980.167969 C 495.523438 1032.527344 484.679688 1101.882812 503.40625 1162.875 C 527.710938 1160.011719 553.273438 1156.425781 572.660156 1141.484375 C 598.527344 1121.546875 607.117188 1084.222656 598.222656 1052.792969 C 589.332031 1021.359375 565.519531 995.757812 531.976562 980.167969 Z M 531.976562 980.167969 " fill-opacity="1" fill-rule="nonzero"/><path fill="#552d2d" d="M 486.09375 1168.421875 C 483.25 1168.421875 480.453125 1168.390625 477.710938 1168.34375 C 331.644531 1165.78125 191.5 1117.078125 102.824219 1038.058594 C -9.757812 937.742188 -2.171875 774.449219 42.464844 655.082031 C 89.667969 524.460938 176.613281 420.863281 300.867188 347.226562 C 303.871094 345.445312 307.757812 346.441406 309.546875 349.449219 C 311.332031 352.460938 310.335938 356.347656 307.324219 358.128906 C 185.667969 430.226562 100.558594 531.609375 54.355469 659.453125 C 11.167969 774.957031 3.449219 932.535156 111.25 1028.597656 C 197.730469 1105.65625 334.808594 1153.164062 477.933594 1155.675781 C 500.21875 1156.0625 526.144531 1155.238281 549.199219 1146.144531 C 572.964844 1136.773438 590.46875 1119.09375 596.027344 1098.855469 C 603.164062 1072.859375 590.335938 1046.292969 582.054688 1032.777344 C 561.757812 999.632812 528.8125 974.09375 491.664062 962.703125 C 488.316406 961.679688 486.433594 958.136719 487.460938 954.789062 C 488.488281 951.445312 492.03125 949.5625 495.375 950.589844 C 535.441406 962.871094 570.96875 990.417969 592.859375 1026.15625 C 609.007812 1052.519531 614.46875 1079.527344 608.242188 1102.210938 C 601.640625 1126.277344 581.300781 1147.105469 553.847656 1157.9375 C 531.652344 1166.691406 507.628906 1168.421875 486.09375 1168.421875 Z M 486.09375 1168.421875 " fill-opacity="1" fill-rule="nonzero"/><path fill="#7a726c" d="M 460.429688 1121.542969 C 605.140625 1101.65625 696.074219 1084.59375 836.945312 1069.277344 C 857.890625 1062.25 885.472656 1057.164062 898.25 1075.1875 C 910.535156 1092.519531 897.597656 1116.984375 880.984375 1130.222656 C 837.097656 1165.1875 775.09375 1162.191406 719.183594 1157.464844 C 631.121094 1150.027344 543.058594 1142.585938 460.429688 1121.542969 Z M 460.429688 1121.542969 " fill-opacity="1" fill-rule="nonzero"/><path fill="#928c88" d="M 912.960938 868.429688 C 861.726562 967.894531 828.507812 1076.617188 815.429688 1187.738281 C 814.761719 1193.40625 819.34375 1198.394531 825.046875 1198.265625 C 986.527344 1194.679688 1145.789062 1179.898438 1303.621094 1156.117188 C 1317.816406 1153.980469 1329.976562 1144.5625 1335.464844 1131.292969 C 1374.839844 1036.113281 1405.039062 938.503906 1424.949219 840.640625 C 1428.855469 821.433594 1413.105469 803.894531 1393.597656 805.804688 C 1243.675781 820.492188 1093.65625 835.109375 942.472656 848.804688 C 929.960938 849.9375 918.714844 857.257812 912.960938 868.429688 Z M 912.960938 868.429688 " fill-opacity="1" fill-rule="nonzero"/><path fill="#928c88" d="M 825.046875 1198.265625 C 728.546875 1190.738281 571.117188 1171.644531 460.34375 1162.3125 C 448.117188 1161.28125 438.582031 1150.074219 441.015625 1138.042969 C 441.0625 1137.816406 441.113281 1137.585938 441.164062 1137.359375 C 443.433594 1127.144531 453.46875 1120.601562 463.875 1121.652344 C 606.53125 1136.050781 678.128906 1140.71875 820.429688 1153.542969 C 835.414062 1157.347656 850.941406 1159.007812 866.394531 1158.453125 C 857.328125 1172.890625 845.832031 1185.796875 825.046875 1198.265625 Z M 825.046875 1198.265625 " fill-opacity="1" fill-rule="nonzero"/><path fill="#552d2d" d="M 824.839844 1204.605469 C 820.394531 1204.605469 816.148438 1202.722656 813.136719 1199.410156 C 810.066406 1196.03125 808.605469 1191.503906 809.136719 1186.996094 C 822.382812 1074.46875 855.417969 966.308594 907.328125 865.527344 C 914.0625 852.457031 926.984375 843.847656 941.902344 842.496094 C 1091.566406 828.9375 1240.671875 814.417969 1392.980469 799.5 C 1404.28125 798.382812 1415.125 802.59375 1422.730469 811.03125 C 1430.355469 819.488281 1433.429688 830.742188 1431.15625 841.90625 C 1411.328125 939.367188 1381.101562 1037.546875 1341.316406 1133.714844 C 1335.023438 1148.933594 1320.941406 1159.917969 1304.5625 1162.382812 C 1141.484375 1186.953125 980.199219 1201.15625 825.1875 1204.601562 C 825.074219 1204.605469 824.957031 1204.605469 824.839844 1204.605469 Z M 1396.5 812 C 1395.742188 812 1394.984375 812.035156 1394.21875 812.109375 C 1241.886719 827.035156 1092.753906 841.550781 943.046875 855.113281 C 932.628906 856.058594 923.257812 862.273438 918.59375 871.332031 C 867.378906 970.757812 834.785156 1077.464844 821.71875 1188.480469 C 821.582031 1189.664062 822.15625 1190.496094 822.511719 1190.886719 C 822.878906 1191.289062 823.847656 1191.949219 824.90625 1191.929688 C 979.382812 1188.5 1140.128906 1174.339844 1302.675781 1149.851562 C 1314.683594 1148.042969 1325.003906 1140.003906 1329.613281 1128.871094 C 1369.085938 1033.445312 1399.074219 936.046875 1418.738281 839.378906 C 1420.203125 832.195312 1418.226562 824.957031 1413.320312 819.515625 C 1408.953125 814.671875 1402.917969 812 1396.5 812 Z M 912.960938 868.429688 L 913.023438 868.429688 Z M 912.960938 868.429688 " fill-opacity="1" fill-rule="nonzero"/><path fill="#552d2d" d="M 460.421875 1127.882812 C 457.304688 1127.882812 454.589844 1125.582031 454.15625 1122.40625 C 453.679688 1118.9375 456.101562 1115.742188 459.566406 1115.265625 C 532.164062 1105.289062 592.09375 1095.886719 650.050781 1086.792969 C 707.328125 1077.804688 766.5625 1068.511719 837.433594 1058.773438 C 840.910156 1058.300781 844.097656 1060.71875 844.574219 1064.1875 C 845.050781 1067.65625 842.625 1070.851562 839.160156 1071.328125 C 768.40625 1081.050781 709.234375 1090.335938 652.011719 1099.3125 C 594 1108.414062 534.011719 1117.828125 461.292969 1127.820312 C 461 1127.859375 460.707031 1127.882812 460.421875 1127.882812 Z M 460.421875 1127.882812 " fill-opacity="1" fill-rule="nonzero"/><path fill="#7a726c" d="M 1148.785156 1074.789062 C 1150.726562 1075.488281 1152.953125 1075.265625 1154.730469 1074.226562 C 1175.925781 1061.804688 1193.578125 1043.394531 1205.0625 1021.667969 C 1212.742188 1007.144531 1217.558594 989.144531 1209.972656 974.582031 C 1208.953125 972.625 1207.527344 970.808594 1205.96875 969.246094 C 1183.664062 946.851562 1159.496094 960.351562 1148.90625 980.851562 C 1148.382812 981.867188 1147.042969 981.839844 1146.527344 980.816406 C 1141.023438 969.902344 1129.410156 962.222656 1117.167969 961.667969 C 1103.988281 961.074219 1090.789062 968.773438 1084.820312 980.542969 C 1078.402344 993.1875 1080.4375 1008.859375 1086.984375 1021.4375 C 1093.527344 1034.015625 1104.042969 1044.03125 1114.828125 1053.234375 C 1124.851562 1061.785156 1135.355469 1069.9375 1148.785156 1074.789062 Z M 1148.785156 1074.789062 " fill-opacity="1" fill-rule="nonzero"/><path fill="#552d2d" d="M 825.054688 1204.601562 C 824.890625 1204.601562 824.722656 1204.597656 824.558594 1204.585938 C 774.777344 1200.699219 710.050781 1193.875 641.527344 1186.648438 C 578.574219 1180.011719 513.476562 1173.148438 459.8125 1168.628906 C 451.789062 1167.949219 444.421875 1163.875 439.59375 1157.441406 C 435.042969 1151.371094 433.34375 1144.035156 434.808594 1136.789062 L 434.972656 1136.011719 C 437.90625 1122.8125 450.589844 1113.9375 464.511719 1115.347656 C 534.996094 1122.460938 588.863281 1127.265625 640.957031 1131.910156 C 693.972656 1136.636719 748.789062 1141.523438 820.5 1148.804688 C 823.980469 1149.160156 826.515625 1152.269531 826.164062 1155.75 C 825.808594 1159.230469 822.683594 1161.761719 819.222656 1161.414062 C 747.589844 1154.140625 692.808594 1149.257812 639.835938 1144.53125 C 587.703125 1139.882812 533.796875 1135.078125 463.238281 1127.957031 C 455.855469 1127.230469 448.855469 1131.949219 447.347656 1138.734375 C 446.484375 1142.957031 447.378906 1146.695312 449.730469 1149.835938 C 452.386719 1153.378906 456.449219 1155.625 460.875 1155.996094 C 514.671875 1160.53125 579.839844 1167.402344 642.855469 1174.046875 C 711.292969 1181.261719 775.933594 1188.078125 825.539062 1191.949219 C 829.03125 1192.21875 831.636719 1195.269531 831.363281 1198.757812 C 831.105469 1202.078125 828.332031 1204.601562 825.054688 1204.601562 Z M 825.054688 1204.601562 " fill-opacity="1" fill-rule="nonzero"/></svg>