<svg xmlns="http://www.w3.org/2000/svg" xmlns:xlink="http://www.w3.org/1999/xlink" width="1920" zoomAndPan="magnify" viewBox="0 0 1440 1439.999935" height="1920" preserveAspectRatio="xMidYMid meet" version="1.0"><path fill="#fffcf6" d="M 206.757812 783.96875 C 132.769531 886.730469 118.363281 979.441406 142.722656 1086.679688 C 199.417969 1336.265625 440.585938 1366.417969 509.265625 1376.140625 C 634.941406 1393.929688 763.859375 1402.464844 888.445312 1378.601562 C 1013.03125 1354.734375 1133.851562 1295.59375 1210.617188 1198.214844 C 1287.382812 1100.832031 1308.398438 971.953125 1239.625 839.527344 C 1240.078125 802.472656 1212.835938 769.578125 1180.046875 752.332031 C 1147.261719 735.082031 1109.527344 730.441406 1072.742188 726.082031 C 1012.015625 718.886719 951.082031 711.683594 889.9375 712.488281 C 778.703125 713.953125 668.644531 742.148438 567.238281 787.894531 C 520.875 808.808594 470.632812 834.019531 421.59375 820.527344 C 387.074219 811.03125 360.539062 783.917969 328.960938 767.039062 C 297.386719 750.164062 240.328125 737.335938 206.757812 783.96875 Z M 206.757812 783.96875 " fill-opacity="1" fill-rule="nonzero"/><path fill="#f09a61" d="M 1241.800781 848.4375 C 1221.941406 857.824219 1202.082031 867.210938 1181.316406 876.886719 C 1215.972656 907.527344 1223.449219 958.6875 1221.199219 1004.898438 C 1215.222656 1127.671875 1153.976562 1246.699219 1057.566406 1322.910156 C 1143.84375 1287.714844 1214.925781 1216.828125 1250.371094 1130.632812 C 1285.820312 1044.4375 1285.179688 944.035156 1241.800781 848.4375 Z M 1241.800781 848.4375 " fill-opacity="1" fill-rule="nonzero"/><path fill="#f09a61" d="M 256.054688 845.753906 C 195.511719 920.527344 177.648438 1025.667969 202.386719 1118.652344 C 227.121094 1211.640625 291.765625 1291.738281 373.246094 1342.882812 C 265.597656 1306.28125 178.089844 1215.125 145.894531 1106.050781 C 113.699219 996.976562 137.675781 872.890625 208.1875 783.675781 C 216.675781 810.855469 233.929688 835.226562 256.054688 845.753906 Z M 256.054688 845.753906 " fill-opacity="1" fill-rule="nonzero"/><path fill="#f09a61" d="M 1167.664062 880.65625 C 1237.367188 859.128906 1301.421875 797.964844 1315.035156 718.203125 C 1323.894531 666.296875 1311.050781 612.898438 1291.355469 565.457031 C 1271.65625 518.015625 1245.199219 474.59375 1224.472656 427.722656 C 1194.15625 359.15625 1175.914062 282.914062 1135.28125 221.597656 C 1080.355469 138.710938 989.953125 93.050781 898.632812 77.234375 C 807.308594 61.417969 689.941406 61.417969 598.621094 77.234375 C 507.296875 93.050781 416.898438 138.710938 361.972656 221.597656 C 321.339844 282.914062 303.097656 359.15625 272.777344 427.722656 C 252.054688 474.59375 225.597656 518.015625 205.898438 565.457031 C 186.203125 612.898438 173.355469 666.296875 182.21875 718.203125 C 195.832031 797.964844 259.886719 859.128906 337.003906 887.851562 C 605.917969 936.964844 883.820312 968.324219 1167.664062 880.65625 Z M 1167.664062 880.65625 " fill-opacity="1" fill-rule="nonzero"/><path fill="#fffcf6" d="M 1291.734375 704.207031 C 1269.273438 659.714844 1211.503906 644.484375 1160.480469 643.679688 C 1109.457031 642.878906 1056.523438 651.238281 1008.664062 634.046875 C 957.632812 615.71875 911.246094 568.554688 866.679688 538.207031 C 742.347656 453.546875 688.53125 476.011719 615.296875 536.691406 C 574.003906 570.90625 539.050781 615.71875 488.023438 634.046875 C 440.160156 651.238281 387.226562 642.878906 336.203125 643.679688 C 285.179688 644.484375 227.410156 659.714844 204.953125 704.207031 C 185.863281 742.023438 200.210938 789.5625 229.304688 820.796875 C 258.390625 852.027344 297.101562 897.894531 337.820312 912.386719 C 467.824219 958.65625 610.1875 950.179688 748.34375 941.324219 C 886.496094 950.179688 1026.535156 930.75 1156.539062 884.480469 C 1197.257812 869.988281 1238.292969 852.027344 1267.382812 820.796875 C 1296.472656 789.5625 1310.820312 742.019531 1291.734375 704.207031 Z M 1291.734375 704.207031 " fill-opacity="1" fill-rule="nonzero"/><path fill="#f8c7d0" d="M 791.023438 494.515625 C 776.585938 481.910156 757.890625 474.269531 738.753906 473.160156 C 719.621094 472.046875 695.195312 477.222656 684.210938 495.164062 C 691.75 507.011719 699.589844 512.1875 710.09375 521.507812 C 720.597656 530.824219 734.484375 537.261719 748.441406 535.722656 C 768.523438 533.515625 783.113281 516.265625 791.023438 494.515625 Z M 791.023438 494.515625 " fill-opacity="1" fill-rule="nonzero"/><path fill="#f8c7d0" d="M 394.367188 626.707031 C 394.367188 628.152344 394.296875 629.59375 394.15625 631.03125 C 394.011719 632.472656 393.800781 633.898438 393.519531 635.316406 C 393.238281 636.734375 392.886719 638.132812 392.46875 639.515625 C 392.046875 640.898438 391.5625 642.257812 391.007812 643.59375 C 390.457031 644.925781 389.839844 646.230469 389.160156 647.507812 C 388.476562 648.78125 387.734375 650.019531 386.933594 651.21875 C 386.128906 652.421875 385.269531 653.582031 384.355469 654.699219 C 383.4375 655.816406 382.46875 656.882812 381.449219 657.90625 C 380.425781 658.929688 379.359375 659.898438 378.242188 660.8125 C 377.125 661.730469 375.964844 662.589844 374.765625 663.394531 C 373.5625 664.195312 372.324219 664.9375 371.050781 665.621094 C 369.777344 666.300781 368.472656 666.917969 367.136719 667.46875 C 365.804688 668.023438 364.445312 668.511719 363.0625 668.929688 C 361.679688 669.347656 360.28125 669.699219 358.863281 669.980469 C 357.449219 670.261719 356.019531 670.476562 354.582031 670.617188 C 353.144531 670.757812 351.703125 670.828125 350.257812 670.828125 C 348.816406 670.828125 347.375 670.757812 345.9375 670.617188 C 344.5 670.476562 343.070312 670.261719 341.65625 669.980469 C 340.238281 669.699219 338.839844 669.347656 337.457031 668.929688 C 336.074219 668.511719 334.714844 668.023438 333.378906 667.46875 C 332.046875 666.917969 330.742188 666.300781 329.46875 665.621094 C 328.191406 664.9375 326.957031 664.195312 325.753906 663.394531 C 324.554688 662.589844 323.394531 661.730469 322.277344 660.8125 C 321.160156 659.898438 320.09375 658.929688 319.070312 657.90625 C 318.050781 656.882812 317.082031 655.816406 316.164062 654.699219 C 315.246094 653.582031 314.386719 652.421875 313.585938 651.21875 C 312.78125 650.019531 312.039062 648.78125 311.359375 647.507812 C 310.679688 646.230469 310.0625 644.925781 309.507812 643.59375 C 308.957031 642.257812 308.46875 640.898438 308.050781 639.515625 C 307.632812 638.132812 307.28125 636.734375 307 635.316406 C 306.71875 633.898438 306.503906 632.472656 306.363281 631.03125 C 306.222656 629.59375 306.152344 628.152344 306.152344 626.707031 C 306.152344 625.261719 306.222656 623.820312 306.363281 622.382812 C 306.503906 620.945312 306.71875 619.519531 307 618.101562 C 307.28125 616.683594 307.632812 615.285156 308.050781 613.902344 C 308.46875 612.519531 308.957031 611.160156 309.507812 609.824219 C 310.0625 608.488281 310.679688 607.183594 311.359375 605.910156 C 312.039062 604.636719 312.78125 603.398438 313.585938 602.195312 C 314.386719 600.996094 315.246094 599.835938 316.164062 598.71875 C 317.082031 597.601562 318.050781 596.53125 319.070312 595.511719 C 320.09375 594.488281 321.160156 593.519531 322.277344 592.601562 C 323.394531 591.6875 324.554688 590.828125 325.753906 590.023438 C 326.957031 589.21875 328.191406 588.480469 329.46875 587.796875 C 330.742188 587.117188 332.046875 586.5 333.378906 585.945312 C 334.714844 585.394531 336.074219 584.90625 337.457031 584.488281 C 338.839844 584.066406 340.238281 583.71875 341.65625 583.433594 C 343.070312 583.152344 344.5 582.941406 345.9375 582.800781 C 347.375 582.660156 348.816406 582.585938 350.257812 582.585938 C 351.703125 582.585938 353.144531 582.660156 354.582031 582.800781 C 356.019531 582.941406 357.449219 583.152344 358.863281 583.433594 C 360.28125 583.71875 361.679688 584.066406 363.0625 584.488281 C 364.445312 584.90625 365.804688 585.394531 367.136719 585.945312 C 368.472656 586.5 369.777344 587.117188 371.050781 587.796875 C 372.324219 588.476562 373.5625 589.21875 374.765625 590.023438 C 375.964844 590.824219 377.125 591.6875 378.242188 592.601562 C 379.359375 593.519531 380.425781 594.488281 381.449219 595.511719 C 382.46875 596.53125 383.4375 597.601562 384.355469 598.71875 C 385.269531 599.835938 386.128906 600.996094 386.933594 602.195312 C 387.734375 603.398438 388.476562 604.636719 389.160156 605.910156 C 389.839844 607.183594 390.457031 608.488281 391.007812 609.824219 C 391.5625 611.160156 392.046875 612.519531 392.46875 613.902344 C 392.886719 615.285156 393.238281 616.683594 393.519531 618.101562 C 393.800781 619.519531 394.011719 620.945312 394.15625 622.382812 C 394.296875 623.820312 394.367188 625.261719 394.367188 626.707031 Z M 394.367188 626.707031 " fill-opacity="1" fill-rule="nonzero"/><path fill="#f8c7d0" d="M 1180.054688 626.707031 C 1180.054688 628.152344 1179.984375 629.59375 1179.839844 631.03125 C 1179.699219 632.472656 1179.488281 633.898438 1179.207031 635.316406 C 1178.925781 636.734375 1178.574219 638.132812 1178.15625 639.515625 C 1177.734375 640.898438 1177.25 642.257812 1176.695312 643.59375 C 1176.144531 644.925781 1175.527344 646.230469 1174.84375 647.507812 C 1174.164062 648.78125 1173.421875 650.019531 1172.621094 651.21875 C 1171.816406 652.421875 1170.957031 653.582031 1170.042969 654.699219 C 1169.125 655.816406 1168.15625 656.882812 1167.136719 657.90625 C 1166.113281 658.929688 1165.042969 659.898438 1163.929688 660.8125 C 1162.8125 661.730469 1161.652344 662.589844 1160.449219 663.394531 C 1159.25 664.195312 1158.011719 664.9375 1156.738281 665.621094 C 1155.464844 666.300781 1154.160156 666.917969 1152.824219 667.46875 C 1151.492188 668.023438 1150.132812 668.511719 1148.75 668.929688 C 1147.367188 669.347656 1145.96875 669.699219 1144.550781 669.980469 C 1143.132812 670.261719 1141.707031 670.476562 1140.269531 670.617188 C 1138.832031 670.757812 1137.390625 670.828125 1135.945312 670.828125 C 1134.5 670.828125 1133.0625 670.757812 1131.621094 670.617188 C 1130.183594 670.476562 1128.757812 670.261719 1127.339844 669.980469 C 1125.925781 669.699219 1124.523438 669.347656 1123.140625 668.929688 C 1121.761719 668.511719 1120.402344 668.023438 1119.066406 667.46875 C 1117.730469 666.917969 1116.429688 666.300781 1115.152344 665.621094 C 1113.878906 664.9375 1112.640625 664.195312 1111.441406 663.394531 C 1110.242188 662.589844 1109.082031 661.730469 1107.964844 660.8125 C 1106.847656 659.898438 1105.777344 658.929688 1104.757812 657.90625 C 1103.734375 656.882812 1102.765625 655.816406 1101.851562 654.699219 C 1100.933594 653.582031 1100.074219 652.421875 1099.273438 651.21875 C 1098.46875 650.019531 1097.726562 648.78125 1097.046875 647.507812 C 1096.367188 646.230469 1095.75 644.925781 1095.195312 643.59375 C 1094.644531 642.257812 1094.15625 640.898438 1093.738281 639.515625 C 1093.320312 638.132812 1092.96875 636.734375 1092.6875 635.316406 C 1092.40625 633.898438 1092.191406 632.472656 1092.050781 631.03125 C 1091.910156 629.59375 1091.839844 628.152344 1091.839844 626.707031 C 1091.839844 625.261719 1091.910156 623.820312 1092.050781 622.382812 C 1092.191406 620.945312 1092.40625 619.519531 1092.6875 618.101562 C 1092.96875 616.683594 1093.320312 615.285156 1093.738281 613.902344 C 1094.15625 612.519531 1094.644531 611.160156 1095.195312 609.824219 C 1095.75 608.488281 1096.367188 607.183594 1097.046875 605.910156 C 1097.726562 604.636719 1098.46875 603.398438 1099.273438 602.195312 C 1100.074219 600.996094 1100.933594 599.835938 1101.851562 598.71875 C 1102.765625 597.601562 1103.734375 596.53125 1104.757812 595.511719 C 1105.777344 594.488281 1106.847656 593.519531 1107.964844 592.601562 C 1109.082031 591.6875 1110.242188 590.828125 1111.441406 590.023438 C 1112.640625 589.21875 1113.878906 588.480469 1115.152344 587.796875 C 1116.429688 587.117188 1117.730469 586.5 1119.066406 585.945312 C 1120.402344 585.394531 1121.761719 584.90625 1123.140625 584.488281 C 1124.523438 584.066406 1125.925781 583.71875 1127.339844 583.433594 C 1128.757812 583.152344 1130.183594 582.941406 1131.625 582.800781 C 1133.0625 582.660156 1134.5 582.585938 1135.945312 582.585938 C 1137.390625 582.585938 1138.832031 582.660156 1140.269531 582.800781 C 1141.707031 582.941406 1143.132812 583.152344 1144.550781 583.433594 C 1145.96875 583.71875 1147.367188 584.066406 1148.75 584.488281 C 1150.132812 584.90625 1151.492188 585.394531 1152.824219 585.945312 C 1154.160156 586.5 1155.464844 587.117188 1156.738281 587.796875 C 1158.011719 588.476562 1159.25 589.21875 1160.449219 590.023438 C 1161.652344 590.824219 1162.8125 591.6875 1163.929688 592.601562 C 1165.042969 593.519531 1166.113281 594.488281 1167.136719 595.511719 C 1168.15625 596.53125 1169.125 597.601562 1170.042969 598.71875 C 1170.957031 599.835938 1171.816406 600.996094 1172.621094 602.195312 C 1173.421875 603.398438 1174.164062 604.636719 1174.84375 605.910156 C 1175.527344 607.183594 1176.144531 608.488281 1176.695312 609.824219 C 1177.25 611.160156 1177.734375 612.519531 1178.15625 613.902344 C 1178.574219 615.285156 1178.925781 616.683594 1179.207031 618.101562 C 1179.488281 619.519531 1179.699219 620.945312 1179.839844 622.382812 C 1179.984375 623.820312 1180.054688 625.261719 1180.054688 626.707031 Z M 1180.054688 626.707031 " fill-opacity="1" fill-rule="nonzero"/><path fill="#552d2d" d="M 485.8125 508.886719 C 467.972656 516.320312 449.066406 524.617188 438.515625 540.8125 C 434.832031 546.464844 432.320312 553.542969 434.472656 559.9375 C 436.722656 566.621094 443.65625 570.855469 450.628906 571.914062 C 457.601562 572.96875 464.679688 571.414062 471.535156 569.761719 C 486.507812 566.148438 501.394531 561.992188 515.671875 556.207031 C 523.910156 552.867188 532.144531 548.835938 538.167969 542.296875 C 544.1875 535.753906 547.625 526.199219 544.832031 517.753906 C 541.773438 508.503906 532.007812 502.796875 522.339844 501.617188 C 512.667969 500.4375 502.582031 501.898438 485.8125 508.886719 Z M 485.8125 508.886719 " fill-opacity="1" fill-rule="nonzero"/><path fill="#552d2d" d="M 1016.269531 508.894531 C 1033.964844 516.671875 1052.707031 525.335938 1062.941406 541.730469 C 1066.515625 547.453125 1068.886719 554.578125 1066.613281 560.929688 C 1064.234375 567.570312 1057.222656 571.667969 1050.230469 572.589844 C 1043.238281 573.507812 1036.191406 571.820312 1029.371094 570.03125 C 1014.46875 566.128906 999.664062 561.6875 985.5 555.628906 C 977.328125 552.128906 969.175781 547.941406 963.28125 541.285156 C 957.386719 534.628906 954.136719 525.003906 957.09375 516.621094 C 960.328125 507.429688 970.203125 501.910156 979.894531 500.917969 C 989.582031 499.925781 999.640625 501.582031 1016.269531 508.894531 Z M 1016.269531 508.894531 " fill-opacity="1" fill-rule="nonzero"/><path fill="#f09a61" d="M 1011.183594 130.476562 C 1021.085938 96.570312 1039.925781 64.710938 1067.59375 42.757812 C 1095.261719 20.808594 1132.148438 9.597656 1166.820312 16.3125 C 1201.488281 23.03125 1232.691406 48.960938 1242.167969 82.992188 C 1252.339844 119.515625 1236.679688 159.871094 1209.542969 186.34375 C 1182.402344 212.8125 1145.5 227.117188 1108.082031 236.839844 C 1066.109375 227.359375 1030.058594 194.992188 1011.183594 130.476562 Z M 1011.183594 130.476562 " fill-opacity="1" fill-rule="nonzero"/><path fill="#f8c7d0" d="M 1160.765625 72.9375 C 1122.371094 77.210938 1086.777344 101.582031 1068.902344 135.84375 C 1063.425781 146.335938 1059.65625 159.425781 1065.59375 169.664062 C 1071.160156 179.265625 1083.28125 182.808594 1094.347656 183.585938 C 1125.316406 185.753906 1156.976562 171.921875 1176.429688 147.71875 C 1186.394531 135.324219 1193.375 119.511719 1191.273438 103.742188 C 1189.167969 87.972656 1175.78125 71.269531 1160.765625 72.9375 Z M 1160.765625 72.9375 " fill-opacity="1" fill-rule="nonzero"/><path fill="#f09a61" d="M 486.070312 130.476562 C 476.164062 96.570312 457.324219 64.710938 429.660156 42.757812 C 401.992188 20.808594 365.101562 9.597656 330.433594 16.3125 C 295.765625 23.03125 264.5625 48.960938 255.085938 82.992188 C 244.910156 119.515625 260.570312 159.871094 287.710938 186.34375 C 314.847656 212.8125 351.753906 227.117188 389.171875 236.839844 C 431.144531 227.359375 467.191406 194.992188 486.070312 130.476562 Z M 486.070312 130.476562 " fill-opacity="1" fill-rule="nonzero"/><path fill="#f8c7d0" d="M 336.484375 72.9375 C 374.882812 77.210938 410.476562 101.582031 428.351562 135.84375 C 433.824219 146.335938 437.597656 159.425781 431.660156 169.664062 C 426.09375 179.265625 413.972656 182.808594 402.90625 183.585938 C 371.9375 185.753906 340.273438 171.921875 320.820312 147.71875 C 310.855469 135.324219 303.875 119.511719 305.980469 103.742188 C 308.082031 87.972656 321.472656 71.269531 336.484375 72.9375 Z M 336.484375 72.9375 " fill-opacity="1" fill-rule="nonzero"/><path fill="#ffbd91" d="M 634.96875 198.714844 C 631.070312 198.714844 627.441406 196.25 626.144531 192.351562 C 619.25 171.664062 609.011719 152.886719 595.71875 136.542969 C 592.480469 132.554688 593.078125 126.695312 597.0625 123.453125 C 601.046875 120.210938 606.902344 120.808594 610.148438 124.800781 C 624.863281 142.894531 636.179688 163.640625 643.789062 186.464844 C 645.414062 191.339844 642.78125 196.609375 637.910156 198.234375 C 636.933594 198.5625 635.9375 198.714844 634.96875 198.714844 Z M 634.96875 198.714844 " fill-opacity="1" fill-rule="nonzero"/><path fill="#ffbd91" d="M 748.625 171.375 C 744.808594 171.375 741.230469 169.011719 739.871094 165.207031 L 721.183594 113.09375 C 719.449219 108.261719 721.964844 102.933594 726.800781 101.195312 C 731.613281 99.449219 736.953125 101.96875 738.695312 106.816406 L 757.378906 158.929688 C 759.113281 163.769531 756.597656 169.089844 751.761719 170.828125 C 750.726562 171.199219 749.664062 171.375 748.625 171.375 Z M 748.625 171.375 " fill-opacity="1" fill-rule="nonzero"/><path fill="#ffbd91" d="M 690.789062 236.496094 C 685.910156 236.496094 681.8125 232.691406 681.519531 227.746094 L 678.632812 179.542969 C 678.324219 174.414062 682.230469 170.007812 687.355469 169.707031 C 692.523438 169.347656 696.886719 173.300781 697.195312 178.433594 L 700.082031 226.640625 C 700.390625 231.769531 696.484375 236.171875 691.359375 236.476562 C 691.167969 236.492188 690.976562 236.496094 690.789062 236.496094 Z M 690.789062 236.496094 " fill-opacity="1" fill-rule="nonzero"/><path fill="#ffbd91" d="M 827.105469 240.664062 C 822.074219 240.664062 817.9375 236.648438 817.816406 231.589844 C 817.351562 212.617188 812.875 194.980469 804.511719 179.171875 C 802.109375 174.628906 803.839844 169 808.378906 166.597656 C 812.921875 164.191406 818.554688 165.933594 820.949219 170.46875 C 830.675781 188.851562 835.875 209.261719 836.40625 231.136719 C 836.53125 236.273438 832.472656 240.539062 827.335938 240.660156 C 827.261719 240.664062 827.183594 240.664062 827.105469 240.664062 Z M 827.105469 240.664062 " fill-opacity="1" fill-rule="nonzero"/><path fill="#ffbd91" d="M 869.554688 173.964844 C 869.449219 173.964844 869.339844 173.964844 869.230469 173.960938 C 864.097656 173.785156 860.078125 169.476562 860.257812 164.339844 C 860.914062 145.367188 857.492188 127.496094 850.082031 111.222656 C 847.953125 106.542969 850.019531 101.03125 854.691406 98.898438 C 859.359375 96.777344 864.871094 98.835938 867.007812 103.507812 C 875.617188 122.425781 879.605469 143.113281 878.847656 164.984375 C 878.667969 170.007812 874.546875 173.964844 869.554688 173.964844 Z M 869.554688 173.964844 " fill-opacity="1" fill-rule="nonzero"/><path fill="#ffbd91" d="M 753.140625 320.792969 C 752.71875 320.792969 752.292969 320.765625 751.867188 320.707031 C 746.777344 320.007812 743.214844 315.3125 743.914062 310.226562 C 746.890625 288.519531 745.492188 268.199219 739.746094 249.835938 C 738.21875 244.933594 740.945312 239.714844 745.851562 238.179688 C 750.730469 236.660156 755.972656 239.378906 757.5 244.285156 C 764.0625 265.277344 765.691406 288.316406 762.34375 312.753906 C 761.703125 317.414062 757.714844 320.792969 753.140625 320.792969 Z M 753.140625 320.792969 " fill-opacity="1" fill-rule="nonzero"/><path fill="#552d2d" d="M 827.554688 1397.046875 C 822.882812 1397.046875 818.855469 1393.527344 818.324219 1388.773438 C 817.761719 1383.667969 821.4375 1379.066406 826.542969 1378.5 C 847.03125 1376.226562 867.273438 1373.183594 886.699219 1369.464844 C 1021.195312 1343.699219 1133.640625 1280.835938 1203.316406 1192.453125 C 1283.75 1090.417969 1294.039062 964.808594 1231.542969 847.835938 C 1229.125 843.308594 1230.832031 837.671875 1235.363281 835.25 C 1239.890625 832.835938 1245.519531 834.535156 1247.945312 839.070312 C 1314.085938 962.859375 1303.140625 1095.863281 1217.917969 1203.96875 C 1145.476562 1295.871094 1029.089844 1361.128906 890.195312 1387.734375 C 870.292969 1391.546875 849.570312 1394.664062 828.59375 1396.992188 C 828.246094 1397.03125 827.898438 1397.046875 827.554688 1397.046875 Z M 827.554688 1397.046875 " fill-opacity="1" fill-rule="nonzero"/><path fill="#552d2d" d="M 714.894531 1402.527344 C 714.875 1402.527344 714.847656 1402.527344 714.824219 1402.527344 C 676.300781 1402.21875 636.292969 1399.964844 592.507812 1395.625 C 587.398438 1395.121094 583.667969 1390.566406 584.171875 1385.453125 C 584.679688 1380.34375 589.140625 1376.617188 594.339844 1377.113281 C 637.558594 1381.390625 677.019531 1383.617188 714.96875 1383.921875 C 720.105469 1383.960938 724.238281 1388.160156 724.195312 1393.296875 C 724.15625 1398.410156 720 1402.527344 714.894531 1402.527344 Z M 714.894531 1402.527344 " fill-opacity="1" fill-rule="nonzero"/><path fill="#552d2d" d="M 461.386719 1377.800781 C 460.808594 1377.800781 460.222656 1377.746094 459.632812 1377.636719 C 281.578125 1343.609375 168.855469 1243.714844 133.65625 1088.742188 C 107.484375 973.53125 127.699219 877.855469 199.210938 778.53125 C 202.207031 774.363281 208.023438 773.410156 212.191406 776.417969 C 216.363281 779.421875 217.304688 785.234375 214.304688 789.402344 C 145.261719 885.296875 126.570312 973.582031 151.792969 1084.617188 C 185.230469 1231.828125 292.886719 1326.832031 463.121094 1359.359375 C 468.164062 1360.324219 471.476562 1365.195312 470.511719 1370.242188 C 469.660156 1374.695312 465.761719 1377.800781 461.386719 1377.800781 Z M 461.386719 1377.800781 " fill-opacity="1" fill-rule="nonzero"/><path fill="#fffcf6" d="M 398.355469 1242.675781 C 398.355469 1242.675781 467.746094 1451.636719 557.164062 1413.628906 C 646.582031 1375.617188 597.816406 1256.960938 597.816406 1256.960938 C 597.816406 1256.960938 586.832031 1184.886719 398.355469 1242.675781 Z M 398.355469 1242.675781 " fill-opacity="1" fill-rule="nonzero"/><path fill="#ffbd91" d="M 604.128906 1348.03125 C 565.417969 1309.308594 485.910156 1316.382812 457.855469 1358.621094 C 468.203125 1379.554688 480.035156 1401.972656 502.160156 1412.511719 C 523.78125 1422.8125 551.398438 1418.675781 570.992188 1405.347656 C 590.582031 1392.015625 602.683594 1370.78125 604.128906 1348.03125 Z M 604.128906 1348.03125 " fill-opacity="1" fill-rule="nonzero"/><path fill="#552d2d" d="M 532.214844 1428.589844 C 526.046875 1428.589844 519.792969 1427.695312 513.554688 1425.730469 C 494.128906 1419.621094 480.320312 1404.796875 468.296875 1389.679688 C 433.695312 1346.203125 406.222656 1298.355469 386.640625 1247.46875 C 384.792969 1242.671875 387.1875 1237.289062 391.976562 1235.445312 C 396.765625 1233.597656 402.152344 1235.992188 403.996094 1240.785156 C 422.898438 1289.902344 449.425781 1336.097656 482.84375 1378.097656 C 492.335938 1390.023438 503.746094 1403.144531 519.128906 1407.980469 C 543.921875 1415.789062 571.523438 1399.058594 583.851562 1378.386719 C 597.613281 1355.292969 598.839844 1326.378906 599.921875 1300.871094 C 600.140625 1295.742188 604.375 1291.90625 609.605469 1291.972656 C 614.738281 1292.191406 618.71875 1296.527344 618.503906 1301.660156 C 617.328125 1329.371094 615.996094 1360.78125 599.828125 1387.914062 C 586.847656 1409.679688 560.511719 1428.589844 532.214844 1428.589844 Z M 532.214844 1428.589844 " fill-opacity="1" fill-rule="nonzero"/><path fill="#fffcf6" d="M 696.550781 1296.949219 C 696.550781 1296.949219 688.207031 1427.234375 779.480469 1418.289062 C 779.480469 1418.289062 845.382812 1411.652344 905.019531 1242.238281 C 905.019531 1242.238281 718.402344 1161.15625 696.550781 1296.949219 Z M 696.550781 1296.949219 " fill-opacity="1" fill-rule="nonzero"/><path fill="#ffbd91" d="M 858.648438 1344.765625 C 783.722656 1298.417969 704.460938 1336.90625 698.386719 1348.699219 C 694.03125 1357.15625 698.148438 1367.183594 703.132812 1375.335938 C 711.820312 1389.550781 723.523438 1402.5625 738.761719 1410.800781 C 754.003906 1419.042969 773.085938 1422.03125 789.664062 1416.417969 C 808.9375 1409.886719 821.914062 1393.285156 832.035156 1376.761719 C 842.15625 1360.242188 851.066406 1342.410156 858.648438 1344.765625 Z M 858.648438 1344.765625 " fill-opacity="1" fill-rule="nonzero"/><path fill="#552d2d" d="M 770.957031 1428.589844 C 742.652344 1428.589844 716.328125 1409.683594 703.347656 1387.914062 C 687.171875 1360.769531 685.84375 1329.367188 684.671875 1301.65625 C 684.457031 1296.523438 688.4375 1292.191406 693.574219 1291.972656 C 698.804688 1291.90625 703.046875 1295.742188 703.253906 1300.875 C 704.332031 1326.378906 705.550781 1355.285156 719.324219 1378.386719 C 731.648438 1399.058594 759.226562 1415.792969 784.042969 1407.980469 C 799.425781 1403.144531 810.835938 1390.023438 820.328125 1378.097656 C 853.746094 1336.097656 880.273438 1289.902344 899.175781 1240.785156 C 901.019531 1235.992188 906.417969 1233.601562 911.195312 1235.445312 C 915.984375 1237.289062 918.378906 1242.671875 916.53125 1247.46875 C 896.949219 1298.355469 869.476562 1346.203125 834.875 1389.679688 C 822.851562 1404.796875 809.042969 1419.621094 789.617188 1425.730469 C 783.382812 1427.6875 777.121094 1428.589844 770.957031 1428.589844 Z M 770.957031 1428.589844 " fill-opacity="1" fill-rule="nonzero"/><path fill="#552d2d" d="M 746.539062 544.230469 C 723.378906 544.230469 700.765625 524.976562 681.519531 505.835938 C 677.875 502.214844 677.859375 496.324219 681.480469 492.679688 C 685.105469 489.046875 690.988281 489.019531 694.632812 492.644531 C 710.902344 508.820312 731.820312 527.15625 748.722656 525.519531 C 755.03125 524.902344 761.757812 521.292969 767.664062 515.351562 C 773.59375 509.386719 778.367188 501.648438 782.984375 494.15625 C 785.679688 489.777344 791.414062 488.421875 795.78125 491.125 C 800.152344 493.816406 801.507812 499.546875 798.8125 503.921875 C 793.640625 512.3125 788.296875 520.988281 780.847656 528.472656 C 774.515625 534.839844 764.117188 542.710938 750.535156 544.035156 C 749.199219 544.164062 747.871094 544.230469 746.539062 544.230469 Z M 746.539062 544.230469 " fill-opacity="1" fill-rule="nonzero"/><path fill="#552d2d" d="M 742.8125 602.890625 C 742.664062 602.890625 742.515625 602.882812 742.367188 602.878906 C 737.238281 602.640625 733.273438 598.285156 733.511719 593.152344 C 733.871094 585.566406 733.898438 577.945312 733.929688 569.625 C 733.96875 559.484375 734.011719 548 734.652344 534.34375 C 734.898438 529.21875 739.324219 525.351562 744.378906 525.488281 C 749.511719 525.730469 753.472656 530.085938 753.234375 535.21875 C 752.609375 548.472656 752.566406 559.746094 752.53125 569.691406 C 752.492188 578.304688 752.460938 586.183594 752.09375 594.023438 C 751.859375 599.003906 747.742188 602.890625 742.8125 602.890625 Z M 742.8125 602.890625 " fill-opacity="1" fill-rule="nonzero"/><path fill="#552d2d" d="M 1167.660156 889.964844 C 1163.691406 889.964844 1160.015625 887.398438 1158.78125 883.402344 C 1157.261719 878.496094 1160.015625 873.285156 1164.921875 871.769531 C 1225.070312 853.191406 1291.976562 798.015625 1305.867188 716.636719 C 1313.253906 673.390625 1305.480469 623.726562 1282.765625 569.027344 C 1272.265625 543.738281 1259.523438 519.035156 1247.195312 495.136719 C 1236.585938 474.558594 1225.605469 453.277344 1215.96875 431.484375 C 1205.289062 407.332031 1195.996094 381.96875 1187.003906 357.445312 C 1171.390625 314.835938 1155.238281 270.773438 1131.699219 233.203125 C 1128.96875 228.847656 1130.285156 223.105469 1134.636719 220.378906 C 1138.996094 217.640625 1144.730469 218.972656 1147.453125 223.320312 C 1172.027344 262.542969 1188.519531 307.535156 1204.46875 351.042969 C 1213.355469 375.289062 1222.542969 400.359375 1232.980469 423.964844 C 1242.386719 445.242188 1253.234375 466.269531 1263.722656 486.609375 C 1276.222656 510.835938 1289.148438 535.894531 1299.941406 561.886719 C 1324.023438 619.886719 1332.183594 673.003906 1324.199219 719.769531 C 1311.023438 796.976562 1249.222656 865.203125 1170.410156 889.546875 C 1169.496094 889.828125 1168.570312 889.964844 1167.660156 889.964844 Z M 1167.660156 889.964844 " fill-opacity="1" fill-rule="nonzero"/><path fill="#552d2d" d="M 483.085938 124.589844 C 479.707031 124.589844 476.445312 122.746094 474.804688 119.535156 C 472.460938 114.960938 474.261719 109.355469 478.832031 107.011719 C 514.886719 88.511719 554.65625 75.414062 597.035156 68.074219 C 689.128906 52.125 808.140625 52.125 900.214844 68.074219 C 942.417969 75.378906 982.042969 88.40625 1017.992188 106.789062 C 1022.5625 109.128906 1024.375 114.734375 1022.042969 119.304688 C 1019.699219 123.878906 1014.101562 125.6875 1009.527344 123.359375 C 975.242188 105.820312 937.398438 93.390625 897.046875 86.402344 C 806.894531 70.792969 690.382812 70.792969 600.203125 86.402344 C 559.683594 93.421875 521.699219 105.925781 487.320312 123.5625 C 485.964844 124.261719 484.511719 124.589844 483.085938 124.589844 Z M 483.085938 124.589844 " fill-opacity="1" fill-rule="nonzero"/><path fill="#552d2d" d="M 329.59375 889.964844 C 328.683594 889.964844 327.757812 889.828125 326.84375 889.546875 C 248.039062 865.207031 186.230469 796.976562 173.046875 719.769531 C 165.066406 673 173.230469 619.886719 197.3125 561.886719 C 208.109375 535.886719 221.039062 510.820312 233.539062 486.585938 C 244.023438 466.253906 254.867188 445.234375 264.273438 423.960938 C 274.714844 400.359375 283.898438 375.285156 292.785156 351.042969 C 308.75 307.492188 325.257812 262.460938 349.867188 223.210938 C 352.601562 218.859375 358.34375 217.550781 362.683594 220.273438 C 367.035156 223 368.351562 228.742188 365.621094 233.09375 C 342.042969 270.699219 325.882812 314.796875 310.25 357.445312 C 301.257812 381.96875 291.964844 407.332031 281.285156 431.484375 C 271.648438 453.269531 260.679688 474.539062 250.066406 495.117188 C 237.738281 519.015625 224.988281 543.730469 214.484375 569.027344 C 191.773438 623.722656 184 673.390625 191.382812 716.636719 C 205.277344 798.019531 272.183594 853.191406 332.332031 871.769531 C 337.238281 873.285156 339.992188 878.492188 338.472656 883.402344 C 337.238281 887.398438 333.5625 889.964844 329.59375 889.964844 Z M 329.59375 889.964844 " fill-opacity="1" fill-rule="nonzero"/><path fill="#552d2d" d="M 1108.386719 244.164062 C 1104.074219 244.164062 1100.210938 241.152344 1099.292969 236.757812 C 1098.242188 231.730469 1101.46875 226.804688 1106.496094 225.753906 C 1148.132812 217.066406 1180.621094 201.5625 1203.046875 179.683594 C 1229.984375 153.402344 1241.828125 116.429688 1233.210938 85.492188 C 1224.964844 55.871094 1197.574219 31.746094 1165.054688 25.449219 C 1134.523438 19.535156 1100.246094 28.734375 1073.375 50.050781 C 1049.027344 69.367188 1030.109375 98.855469 1020.105469 133.085938 C 1018.660156 138.015625 1013.507812 140.855469 1008.570312 139.40625 C 1003.640625 137.960938 1000.8125 132.796875 1002.253906 127.863281 C 1013.328125 89.972656 1034.476562 57.164062 1061.8125 35.46875 C 1092.875 10.820312 1132.789062 0.25 1168.585938 7.179688 C 1207.863281 14.789062 1241.035156 44.25 1251.128906 80.496094 C 1261.539062 117.890625 1247.761719 162.050781 1216.03125 193 C 1191.027344 217.390625 1155.457031 234.542969 1110.292969 243.96875 C 1109.652344 244.097656 1109.011719 244.164062 1108.386719 244.164062 Z M 1108.386719 244.164062 " fill-opacity="1" fill-rule="nonzero"/><path fill="#552d2d" d="M 1059.957031 162.878906 C 1059.042969 162.878906 1058.117188 162.742188 1057.199219 162.457031 C 1052.292969 160.933594 1049.550781 155.726562 1051.070312 150.820312 C 1066.242188 101.847656 1114.421875 64.871094 1165.640625 62.902344 C 1170.980469 62.628906 1175.09375 66.710938 1175.289062 71.835938 C 1175.488281 76.976562 1171.488281 81.292969 1166.359375 81.488281 C 1122.757812 83.167969 1081.746094 114.640625 1068.832031 156.324219 C 1067.597656 160.316406 1063.925781 162.878906 1059.957031 162.878906 Z M 1059.957031 162.878906 " fill-opacity="1" fill-rule="nonzero"/><path fill="#552d2d" d="M 388.867188 244.164062 C 388.234375 244.164062 387.597656 244.097656 386.960938 243.96875 C 341.800781 234.542969 306.226562 217.398438 281.214844 193 C 249.484375 162.046875 235.714844 117.890625 246.125 80.496094 C 256.21875 44.25 289.390625 14.789062 328.667969 7.179688 C 364.457031 0.25 404.371094 10.820312 435.441406 35.46875 C 462.78125 57.164062 483.929688 89.976562 494.996094 127.867188 C 496.433594 132.796875 493.605469 137.964844 488.675781 139.40625 C 483.769531 140.847656 478.578125 138.011719 477.140625 133.082031 C 467.148438 98.859375 448.230469 69.367188 423.878906 50.050781 C 397.011719 28.730469 362.757812 19.523438 332.199219 25.449219 C 299.679688 31.746094 272.289062 55.871094 264.042969 85.492188 C 255.425781 116.429688 267.261719 153.402344 294.203125 179.683594 C 316.632812 201.5625 349.121094 217.066406 390.753906 225.753906 C 395.785156 226.804688 399.011719 231.730469 397.960938 236.757812 C 397.042969 241.148438 393.175781 244.164062 388.867188 244.164062 Z M 388.867188 244.164062 " fill-opacity="1" fill-rule="nonzero"/><path fill="#552d2d" d="M 437.296875 162.878906 C 433.328125 162.878906 429.65625 160.316406 428.421875 156.324219 C 415.503906 114.640625 374.492188 83.171875 330.894531 81.488281 C 325.765625 81.292969 321.765625 76.976562 321.964844 71.835938 C 322.164062 66.710938 326.425781 62.644531 331.613281 62.902344 C 382.828125 64.871094 431.007812 101.847656 446.183594 150.820312 C 447.703125 155.726562 444.960938 160.933594 440.054688 162.457031 C 439.136719 162.742188 438.210938 162.878906 437.296875 162.878906 Z M 437.296875 162.878906 " fill-opacity="1" fill-rule="nonzero"/></svg>