<svg xmlns="http://www.w3.org/2000/svg" xmlns:xlink="http://www.w3.org/1999/xlink" width="1920" zoomAndPan="magnify" viewBox="0 0 1440 1439.999935" height="1920" preserveAspectRatio="xMidYMid meet" version="1.0"><path fill="#fffcf6" d="M 1005.695312 733.488281 C 1038.476562 756.53125 1072.457031 778.449219 1100.597656 806.976562 C 1128.742188 835.503906 1151.015625 871.914062 1154.101562 911.867188 C 1157.1875 951.824219 1137.507812 994.929688 1100.992188 1011.429688 C 1156.246094 1073.148438 1211.5 1134.867188 1266.753906 1196.585938 C 1279.449219 1210.765625 1292.28125 1225.148438 1300.972656 1242.078125 C 1309.65625 1259.011719 1313.875 1279.0625 1308.355469 1297.277344 C 1300.183594 1324.25 1272.972656 1341.058594 1245.9375 1349.015625 C 1194.710938 1364.101562 1136.957031 1355.230469 1092.617188 1325.460938 C 1063.988281 1306.242188 1041.464844 1279.410156 1019.347656 1252.953125 C 967.152344 1274.660156 905.523438 1284.285156 852.214844 1288.34375 C 860.699219 1335.320312 848.917969 1362.390625 821.261719 1383.117188 C 793.605469 1403.84375 757.542969 1410.761719 723.023438 1409.066406 C 688.507812 1407.371094 654.929688 1397.765625 621.714844 1388.21875 C 513.296875 1359.710938 413.132812 1301.230469 339.671875 1217.628906 C 266.210938 1134.023438 220.628906 1024.933594 219.375 913.644531 C 218.117188 802.355469 262.785156 690.027344 349.992188 610.15625 C 536.699219 581.738281 728.832031 589.429688 912.667969 632.683594 C 952.597656 642.078125 993.085938 653.570312 1005.695312 733.488281 Z M 1005.695312 733.488281 " fill-opacity="1" fill-rule="nonzero"/><path fill="#ffbd91" d="M 1270.042969 1201.003906 C 1198.554688 1218.894531 1135.394531 1267.773438 1100.140625 1332.492188 C 1137.835938 1348.875 1179.867188 1355.160156 1220.710938 1350.515625 C 1239.59375 1348.367188 1258.566406 1343.777344 1274.71875 1333.757812 C 1290.867188 1323.738281 1303.960938 1307.699219 1307.238281 1288.972656 C 1312.792969 1257.214844 1290.34375 1228.046875 1270.042969 1201.003906 Z M 1270.042969 1201.003906 " fill-opacity="1" fill-rule="nonzero"/><path fill="#fffcf6" d="M 185.710938 291.425781 C 166.070312 269.753906 159.207031 237.355469 168.390625 209.65625 C 177.574219 181.957031 202.445312 160.039062 231.160156 154.339844 C 259.875 148.640625 291.316406 159.382812 310.503906 181.449219 C 265.421875 212.277344 224.117188 248.585938 185.710938 291.425781 Z M 185.710938 291.425781 " fill-opacity="1" fill-rule="nonzero"/><path fill="#fffcf6" d="M 88.519531 796.242188 C 168.257812 878.128906 220.597656 872.351562 256.863281 885.265625 C 328.894531 910.914062 956.753906 1339.503906 1192.039062 1104.914062 C 1381.316406 784.203125 1163.308594 483.339844 1130.941406 431.214844 C 1080.941406 350.699219 1036.261719 317.636719 991.175781 275.929688 C 949.867188 228.773438 869.570312 182.125 812.179688 152.828125 C 822.78125 114.515625 825.289062 60.320312 795.753906 33.550781 C 766.222656 6.785156 728.257812 6.890625 690.984375 21.035156 C 653.714844 35.183594 622.941406 79.746094 618.820312 119.285156 C 582.460938 117.992188 539.335938 122.105469 503.53125 128.5 C 420.257812 137.195312 340.707031 168.511719 312.085938 186.769531 C 215.285156 248.515625 194.914062 224.816406 127.117188 466.847656 C 78.921875 638.898438 56.617188 696.65625 88.519531 796.242188 Z M 88.519531 796.242188 " fill-opacity="1" fill-rule="nonzero"/><path fill="#f09a61" d="M 83.234375 614.121094 C 87.394531 640.574219 116.207031 657.636719 142.390625 656.359375 C 168.578125 655.082031 191.929688 640.007812 212.152344 623.28125 C 232.375 606.554688 251.1875 587.476562 274.542969 575.652344 C 326.859375 549.160156 389.929688 564.03125 446.578125 580.8125 C 503.226562 597.59375 564.570312 615.722656 619.273438 594.667969 C 663.703125 577.566406 694.972656 537.699219 733.296875 509.292969 C 797.398438 461.777344 1264.5 338.382812 1240.082031 1001.332031 C 1376.550781 573.078125 986.976562 227.246094 809.433594 153.871094 C 833.652344 125.664062 834.074219 80.675781 812.222656 50.554688 C 790.371094 20.433594 749.160156 6.59375 712.875 15.054688 C 676.585938 23.515625 646.570312 52.710938 634.761719 87.925781 C 631.820312 96.695312 629.636719 106.277344 622.996094 112.726562 C 614.59375 120.890625 601.675781 121.640625 589.953125 122.269531 C 494.664062 127.390625 402.4375 155.914062 310.035156 184.003906 C 307.332031 167.367188 290.886719 156.1875 274.535156 151.878906 C 239.371094 142.609375 199.101562 158.066406 179.300781 188.429688 C 159.5 218.796875 161.667969 261.761719 184.09375 289.40625 C 138.15625 394.550781 132.378906 513.742188 83.234375 614.121094 Z M 83.234375 614.121094 " fill-opacity="1" fill-rule="nonzero"/><path fill="#552d2d" d="M 530.703125 519.4375 C 547.054688 524.332031 564.421875 529.886719 575.171875 543.105469 C 578.925781 547.71875 581.78125 553.6875 580.476562 559.476562 C 579.113281 565.527344 573.410156 569.859375 567.382812 571.414062 C 561.355469 572.964844 554.996094 572.246094 548.824219 571.417969 C 535.339844 569.609375 521.882812 567.316406 508.8125 563.542969 C 501.269531 561.363281 493.667969 558.582031 487.777344 553.402344 C 481.890625 548.222656 477.996094 540.167969 479.675781 532.527344 C 481.515625 524.15625 489.570312 518.28125 497.953125 516.375 C 506.335938 514.46875 515.332031 514.835938 530.703125 519.4375 Z M 530.703125 519.4375 " fill-opacity="1" fill-rule="nonzero"/><path fill="#552d2d" d="M 144.078125 571.988281 C 131.390625 583.347656 118.066406 595.730469 114.011719 612.246094 C 112.597656 618.007812 112.578125 624.617188 116.242188 629.300781 C 120.070312 634.195312 127.085938 635.699219 133.203125 634.546875 C 139.324219 633.398438 144.765625 630.050781 149.992188 626.683594 C 161.414062 619.332031 172.601562 611.554688 182.804688 602.601562 C 188.691406 597.433594 194.375 591.691406 197.476562 584.511719 C 200.582031 577.328125 200.644531 568.394531 195.851562 562.195312 C 190.59375 555.40625 180.785156 553.503906 172.386719 555.332031 C 163.984375 557.164062 156.003906 561.308594 144.078125 571.988281 Z M 144.078125 571.988281 " fill-opacity="1" fill-rule="nonzero"/><path fill="#f8c7d0" d="M 740.394531 63.3125 C 705.957031 75.402344 678.414062 105.339844 669.304688 140.578125 C 666.515625 151.371094 665.855469 164.183594 673.515625 172.3125 C 680.703125 179.9375 692.625 180.609375 702.984375 178.964844 C 731.964844 174.363281 758.148438 154.933594 770.867188 128.589844 C 777.382812 115.09375 780.414062 99.101562 775.09375 85.082031 C 769.773438 71.0625 753.859375 58.582031 740.394531 63.3125 Z M 740.394531 63.3125 " fill-opacity="1" fill-rule="nonzero"/><path fill="#f8c7d0" d="M 653.597656 546.617188 C 655.117188 546.859375 656.625 547.171875 658.113281 547.5625 C 659.605469 547.949219 661.070312 548.410156 662.515625 548.941406 C 663.960938 549.472656 665.378906 550.074219 666.765625 550.742188 C 668.152344 551.414062 669.5 552.152344 670.8125 552.953125 C 672.128906 553.753906 673.398438 554.621094 674.628906 555.546875 C 675.855469 556.472656 677.035156 557.457031 678.167969 558.5 C 679.300781 559.542969 680.378906 560.636719 681.402344 561.785156 C 682.425781 562.933594 683.390625 564.128906 684.296875 565.371094 C 685.203125 566.613281 686.046875 567.894531 686.824219 569.21875 C 687.605469 570.542969 688.320312 571.902344 688.964844 573.296875 C 689.609375 574.691406 690.1875 576.113281 690.691406 577.5625 C 691.195312 579.011719 691.628906 580.484375 691.992188 581.976562 C 692.351562 583.46875 692.636719 584.976562 692.851562 586.496094 C 693.0625 588.015625 693.199219 589.542969 693.261719 591.078125 C 693.324219 592.609375 693.308594 594.144531 693.21875 595.675781 C 693.128906 597.207031 692.964844 598.730469 692.726562 600.246094 C 692.484375 601.761719 692.171875 603.261719 691.785156 604.746094 C 691.394531 606.230469 690.9375 607.695312 690.402344 609.132812 C 689.871094 610.574219 689.269531 611.984375 688.597656 613.363281 C 687.925781 614.746094 687.191406 616.089844 686.386719 617.398438 C 685.582031 618.703125 684.714844 619.96875 683.789062 621.195312 C 682.859375 622.417969 681.871094 623.589844 680.828125 624.71875 C 679.785156 625.84375 678.6875 626.917969 677.535156 627.9375 C 676.386719 628.953125 675.1875 629.914062 673.941406 630.816406 C 672.695312 631.71875 671.410156 632.554688 670.082031 633.332031 C 668.753906 634.105469 667.390625 634.816406 665.992188 635.457031 C 664.59375 636.101562 663.167969 636.671875 661.710938 637.175781 C 660.257812 637.675781 658.78125 638.105469 657.285156 638.464844 C 655.785156 638.820312 654.277344 639.105469 652.75 639.3125 C 651.226562 639.523438 649.691406 639.65625 648.152344 639.71875 C 646.613281 639.777344 645.078125 639.761719 643.539062 639.671875 C 642 639.578125 640.472656 639.414062 638.949219 639.171875 C 637.429688 638.933594 635.921875 638.617188 634.433594 638.230469 C 632.941406 637.839844 631.472656 637.382812 630.027344 636.847656 C 628.582031 636.316406 627.167969 635.714844 625.78125 635.046875 C 624.394531 634.375 623.046875 633.640625 621.730469 632.835938 C 620.417969 632.035156 619.148438 631.167969 617.917969 630.242188 C 616.691406 629.316406 615.507812 628.332031 614.378906 627.289062 C 613.246094 626.246094 612.167969 625.152344 611.144531 624.003906 C 610.121094 622.855469 609.15625 621.660156 608.25 620.421875 C 607.34375 619.179688 606.5 617.894531 605.71875 616.570312 C 604.941406 615.246094 604.226562 613.886719 603.582031 612.492188 C 602.9375 611.097656 602.359375 609.675781 601.855469 608.226562 C 601.347656 606.777344 600.917969 605.304688 600.554688 603.8125 C 600.195312 602.320312 599.910156 600.8125 599.695312 599.292969 C 599.484375 597.773438 599.347656 596.246094 599.285156 594.714844 C 599.222656 593.179688 599.238281 591.648438 599.328125 590.113281 C 599.417969 588.582031 599.582031 587.058594 599.820312 585.542969 C 600.0625 584.027344 600.375 582.527344 600.761719 581.042969 C 601.152344 579.558594 601.609375 578.09375 602.144531 576.65625 C 602.675781 575.214844 603.277344 573.808594 603.949219 572.425781 C 604.617188 571.046875 605.355469 569.703125 606.160156 568.394531 C 606.964844 567.085938 607.828125 565.820312 608.757812 564.597656 C 609.6875 563.375 610.675781 562.199219 611.71875 561.070312 C 612.761719 559.945312 613.859375 558.871094 615.011719 557.855469 C 616.160156 556.835938 617.359375 555.875 618.605469 554.972656 C 619.851562 554.070312 621.136719 553.234375 622.464844 552.457031 C 623.792969 551.683594 625.15625 550.972656 626.554688 550.332031 C 627.953125 549.691406 629.378906 549.117188 630.835938 548.617188 C 632.289062 548.113281 633.765625 547.683594 635.261719 547.328125 C 636.757812 546.96875 638.269531 546.6875 639.796875 546.476562 C 641.320312 546.265625 642.855469 546.132812 644.394531 546.074219 C 645.933594 546.011719 647.46875 546.027344 649.007812 546.121094 C 650.546875 546.210938 652.074219 546.375 653.597656 546.617188 Z M 653.597656 546.617188 " fill-opacity="1" fill-rule="nonzero"/><path fill="#f8c7d0" d="M 280.746094 572.101562 C 291.71875 560.585938 306.605469 552.839844 322.367188 550.449219 C 338.128906 548.058594 354.667969 551.035156 368.605469 558.773438 C 363.289062 569.132812 357.867188 579.636719 349.898438 588.136719 C 341.925781 596.636719 330.925781 603.019531 319.246094 602.828125 C 302.4375 602.550781 289 589.441406 280.746094 572.101562 Z M 280.746094 572.101562 " fill-opacity="1" fill-rule="nonzero"/><path fill="#ffbd91" d="M 491.441406 247.878906 C 490.25 247.878906 489.039062 247.632812 487.882812 247.117188 C 483.464844 245.152344 481.472656 239.976562 483.441406 235.554688 C 494.339844 211.0625 508.828125 188.785156 526.519531 169.339844 C 529.773438 165.761719 535.316406 165.492188 538.894531 168.753906 C 542.472656 172.007812 542.734375 177.550781 539.480469 181.128906 C 523.050781 199.1875 509.582031 219.898438 499.445312 242.675781 C 497.996094 245.941406 494.792969 247.878906 491.441406 247.878906 Z M 491.441406 247.878906 " fill-opacity="1" fill-rule="nonzero"/><path fill="#ffbd91" d="M 382.386719 246.328125 C 380.480469 246.328125 378.5625 245.710938 376.957031 244.433594 C 373.164062 241.433594 372.519531 235.921875 375.523438 232.128906 L 407.917969 191.210938 C 410.929688 187.414062 416.433594 186.78125 420.222656 189.78125 C 424.015625 192.785156 424.65625 198.292969 421.65625 202.085938 L 389.261719 243.007812 C 387.527344 245.191406 384.972656 246.328125 382.386719 246.328125 Z M 382.386719 246.328125 " fill-opacity="1" fill-rule="nonzero"/><path fill="#ffbd91" d="M 426.773438 347.8125 C 425.675781 347.8125 424.554688 347.601562 423.472656 347.164062 C 418.992188 345.335938 416.84375 340.222656 418.671875 335.742188 L 435.839844 293.625 C 437.664062 289.144531 442.765625 286.992188 447.257812 288.820312 C 451.734375 290.648438 453.886719 295.757812 452.0625 300.238281 L 434.886719 342.355469 C 433.507812 345.753906 430.230469 347.8125 426.773438 347.8125 Z M 426.773438 347.8125 " fill-opacity="1" fill-rule="nonzero"/><path fill="#ffbd91" d="M 282.066406 328.09375 C 281.363281 328.09375 280.65625 328.011719 279.949219 327.832031 C 275.253906 326.667969 272.390625 321.917969 273.554688 317.21875 C 278.519531 297.214844 287.492188 279.511719 300.226562 264.601562 C 303.367188 260.921875 308.890625 260.488281 312.574219 263.628906 C 316.253906 266.773438 316.6875 272.300781 313.542969 275.980469 C 302.59375 288.804688 294.863281 304.097656 290.558594 321.441406 C 289.566406 325.429688 285.996094 328.09375 282.066406 328.09375 Z M 282.066406 328.09375 " fill-opacity="1" fill-rule="nonzero"/><path fill="#ffbd91" d="M 356.960938 416.4375 C 352.4375 416.4375 348.601562 412.957031 348.234375 408.371094 C 346.402344 385.207031 349.191406 363.636719 356.53125 344.25 C 358.246094 339.722656 363.304688 337.453125 367.820312 339.15625 C 372.347656 340.871094 374.625 345.925781 372.910156 350.453125 C 366.496094 367.402344 364.070312 386.421875 365.703125 406.984375 C 366.085938 411.804688 362.488281 416.027344 357.664062 416.410156 C 357.425781 416.429688 357.191406 416.4375 356.960938 416.4375 Z M 356.960938 416.4375 " fill-opacity="1" fill-rule="nonzero"/><path fill="#552d2d" d="M 187.957031 302.898438 C 185.414062 302.898438 182.890625 301.792969 181.164062 299.667969 C 154.507812 266.917969 149.75 226.832031 168.433594 192.433594 C 187.160156 157.957031 224.289062 138.367188 263.042969 142.574219 C 288.21875 145.296875 309.550781 156.671875 326.433594 176.398438 C 329.574219 180.074219 329.148438 185.605469 325.472656 188.75 C 321.796875 191.898438 316.265625 191.464844 313.121094 187.792969 C 299.238281 171.570312 281.757812 162.21875 261.160156 159.992188 C 229.523438 156.574219 199.152344 172.589844 183.828125 200.796875 C 168.65625 228.734375 172.738281 261.5625 194.746094 288.605469 C 197.800781 292.359375 197.234375 297.878906 193.484375 300.929688 C 191.859375 302.253906 189.90625 302.898438 187.957031 302.898438 Z M 187.957031 302.898438 " fill-opacity="1" fill-rule="nonzero"/><path fill="#552d2d" d="M 1192.03125 1113.679688 C 1190.601562 1113.679688 1189.152344 1113.328125 1187.808594 1112.585938 C 1183.574219 1110.25 1182.03125 1104.925781 1184.367188 1100.6875 C 1265.242188 953.953125 1281.304688 801.183594 1232.121094 646.613281 C 1154.78125 403.597656 935.265625 220.734375 815.066406 162.554688 C 810.710938 160.445312 808.890625 155.207031 811 150.851562 C 813.101562 146.492188 818.367188 144.679688 822.695312 146.78125 C 945.519531 206.230469 1169.8125 393.054688 1248.8125 641.296875 C 1299.515625 800.628906 1282.996094 958.035156 1199.710938 1109.144531 C 1198.113281 1112.039062 1195.117188 1113.679688 1192.03125 1113.679688 Z M 1192.03125 1113.679688 " fill-opacity="1" fill-rule="nonzero"/><path fill="#552d2d" d="M 726.925781 231.785156 C 723.613281 231.785156 720.445312 229.898438 718.964844 226.691406 C 716.941406 222.296875 718.859375 217.09375 723.25 215.066406 C 759.726562 198.230469 786.316406 177.09375 802.277344 152.242188 C 821.4375 122.410156 824.398438 85.976562 809.828125 59.425781 C 795.867188 34 765.421875 17.742188 734.136719 18.824219 C 704.730469 19.894531 675.136719 35.628906 654.972656 60.914062 C 636.699219 83.820312 625.613281 114.898438 623.753906 148.425781 C 623.484375 153.253906 619.300781 156.957031 614.523438 156.6875 C 609.691406 156.417969 605.992188 152.285156 606.261719 147.453125 C 608.324219 110.324219 620.757812 75.710938 641.277344 49.988281 C 664.585938 20.765625 699.058594 2.570312 733.496094 1.316406 C 771.203125 -0.0625 808.113281 19.902344 825.179688 50.992188 C 842.800781 83.09375 839.597656 126.554688 817.015625 161.714844 C 799.21875 189.417969 770.144531 212.71875 730.589844 230.976562 C 729.402344 231.523438 728.152344 231.785156 726.925781 231.785156 Z M 726.925781 231.785156 " fill-opacity="1" fill-rule="nonzero"/><path fill="#552d2d" d="M 664.878906 167.511719 C 664.667969 167.511719 664.453125 167.503906 664.242188 167.488281 C 659.414062 167.140625 655.785156 162.949219 656.132812 158.121094 C 659.59375 109.953125 696.023438 65.769531 742.753906 53.0625 C 747.398438 51.789062 752.234375 54.550781 753.503906 59.21875 C 754.773438 63.886719 752.019531 68.699219 747.347656 69.96875 C 707.566406 80.789062 676.550781 118.390625 673.605469 159.378906 C 673.273438 163.988281 669.429688 167.511719 664.878906 167.511719 Z M 664.878906 167.511719 " fill-opacity="1" fill-rule="nonzero"/><path fill="#552d2d" d="M 244.960938 884.878906 C 244.789062 884.878906 244.609375 884.871094 244.433594 884.863281 C 167.542969 880.253906 99.210938 836 74.386719 774.734375 C 59.304688 737.515625 58.234375 691.925781 71.199219 639.226562 C 76.988281 615.710938 84.890625 592.582031 92.535156 570.214844 C 98.9375 551.46875 105.5625 532.085938 110.808594 512.796875 C 116.628906 491.402344 121.066406 469.03125 125.359375 447.394531 C 133.535156 406.171875 141.988281 363.546875 160.464844 324.5625 C 195.394531 250.878906 266.496094 190.757812 360.679688 155.269531 C 440.742188 125.101562 526.660156 116.226562 609.75 107.644531 L 618.792969 106.707031 C 623.675781 106.199219 627.910156 109.707031 628.40625 114.519531 C 628.90625 119.332031 625.410156 123.636719 620.597656 124.132812 L 611.550781 125.070312 C 529.570312 133.539062 444.796875 142.292969 366.855469 171.667969 C 276.945312 205.542969 209.269531 262.507812 176.300781 332.066406 C 158.75 369.085938 150.507812 410.628906 142.539062 450.804688 C 138.191406 472.734375 133.695312 495.414062 127.710938 517.394531 C 122.320312 537.222656 115.605469 556.875 109.113281 575.878906 C 101.59375 597.886719 93.816406 620.644531 88.214844 643.414062 C 76.144531 692.453125 76.957031 734.421875 90.621094 768.15625 C 112.960938 823.289062 175.191406 863.160156 245.476562 867.371094 C 250.308594 867.664062 253.988281 871.8125 253.695312 876.640625 C 253.417969 881.292969 249.558594 884.878906 244.960938 884.878906 Z M 244.960938 884.878906 " fill-opacity="1" fill-rule="nonzero"/><path fill="#552d2d" d="M 318.296875 610.898438 C 318.246094 610.898438 318.195312 610.898438 318.144531 610.898438 C 306.496094 610.847656 297.058594 605.027344 291.183594 600.15625 C 284.339844 594.476562 279.195312 587.6875 274.222656 581.117188 C 271.300781 577.257812 272.058594 571.765625 275.910156 568.84375 C 279.769531 565.914062 285.265625 566.679688 288.183594 570.539062 C 292.761719 576.578125 297.082031 582.285156 302.375 586.675781 C 307.550781 590.976562 313.179688 593.355469 318.21875 593.378906 C 318.246094 593.378906 318.269531 593.378906 318.296875 593.378906 C 332.046875 593.378906 347.628906 576.851562 359.671875 562.449219 C 362.777344 558.738281 368.296875 558.242188 372.011719 561.347656 C 375.71875 564.449219 376.214844 569.976562 373.109375 573.6875 C 357.722656 592.09375 339.179688 610.898438 318.296875 610.898438 Z M 318.296875 610.898438 " fill-opacity="1" fill-rule="nonzero"/><path fill="#552d2d" d="M 351.382812 655.675781 C 350.003906 655.675781 348.605469 655.347656 347.300781 654.660156 C 330.949219 646.015625 319.859375 628.824219 314.335938 603.574219 C 313.304688 598.847656 316.300781 594.175781 321.027344 593.144531 C 325.730469 592.097656 330.414062 595.105469 331.453125 599.828125 C 335.820312 619.8125 343.90625 633.046875 355.484375 639.167969 C 359.761719 641.429688 361.398438 646.730469 359.136719 651.007812 C 357.5625 653.980469 354.527344 655.675781 351.382812 655.675781 Z M 351.382812 655.675781 " fill-opacity="1" fill-rule="nonzero"/><path fill="#552d2d" d="M 1198.300781 1364.738281 C 1131.046875 1364.738281 1063.253906 1330.3125 1026.28125 1271.925781 C 1024.195312 1268.644531 1019.792969 1267.445312 1015.839844 1269.078125 C 967.667969 1288.855469 908.5 1299.429688 853.433594 1298.09375 C 848.601562 1297.976562 844.773438 1293.960938 844.894531 1289.125 C 845.011719 1284.289062 849.046875 1280.460938 853.863281 1280.578125 C 906.507812 1281.867188 963.179688 1271.761719 1009.183594 1252.871094 C 1021.039062 1248.003906 1034.449219 1252.078125 1041.082031 1262.554688 C 1086.449219 1334.191406 1182.570312 1366.34375 1259.925781 1335.742188 C 1272.097656 1330.925781 1282.195312 1323.730469 1289.128906 1314.929688 C 1313.8125 1283.605469 1295.660156 1249.1875 1272.363281 1216.65625 C 1244.121094 1177.222656 1207.484375 1133.660156 1160.355469 1083.480469 C 1157.042969 1079.953125 1157.214844 1074.410156 1160.746094 1071.097656 C 1164.265625 1067.789062 1169.8125 1067.953125 1173.125 1071.488281 C 1220.789062 1122.238281 1257.90625 1166.382812 1286.605469 1206.457031 C 1303.652344 1230.261719 1339.121094 1279.792969 1302.890625 1325.773438 C 1294.042969 1337 1281.410156 1346.082031 1266.367188 1352.035156 C 1244.601562 1360.648438 1221.480469 1364.738281 1198.300781 1364.738281 Z M 1198.300781 1364.738281 " fill-opacity="1" fill-rule="nonzero"/><path fill="#fffcf6" d="M 947.089844 753.925781 C 987.570312 792.355469 1014.464844 844.828125 1022.023438 900.136719 C 1023.351562 909.855469 1023.9375 920.414062 1018.835938 928.792969 C 1013.578125 937.417969 1003.535156 941.714844 993.988281 945.019531 C 965.292969 954.953125 935.160156 960.71875 904.828125 962.078125 C 887.050781 962.875 868.886719 962.109375 852.101562 956.199219 C 835.3125 950.292969 819.925781 938.671875 812.65625 922.425781 C 804.367188 903.914062 807.679688 881.792969 816.996094 863.777344 C 826.3125 845.761719 841 831.160156 856.023438 817.539062 C 884.527344 791.699219 915.15625 768.207031 947.089844 753.925781 Z M 947.089844 753.925781 " fill-opacity="1" fill-rule="nonzero"/><path fill="#ffbd91" d="M 873.933594 795.679688 C 928.757812 821.890625 963.078125 885.507812 954.875 945.726562 C 929.257812 952.40625 902.957031 959.140625 876.632812 956.339844 C 850.308594 953.539062 823.542969 939.101562 813.683594 914.53125 C 804.988281 892.867188 811.074219 867.511719 823.738281 847.898438 C 836.402344 828.285156 854.886719 813.277344 873.933594 795.679688 Z M 873.933594 795.679688 " fill-opacity="1" fill-rule="nonzero"/><path fill="#552d2d" d="M 885.429688 968.785156 C 875.113281 968.785156 864.28125 967.785156 853.683594 964.894531 C 830.839844 958.664062 812.355469 943.832031 804.246094 925.222656 C 796.773438 908.082031 797.488281 886.789062 806.199219 866.808594 C 814.386719 848.035156 828.175781 832.882812 839.269531 821.777344 C 872.382812 788.65625 912.714844 761.621094 955.917969 743.582031 C 960.390625 741.71875 965.515625 743.828125 967.375 748.292969 C 969.238281 752.757812 967.132812 757.886719 962.667969 759.75 C 921.554688 776.914062 883.167969 802.648438 851.660156 834.164062 C 841.65625 844.175781 829.269531 857.730469 822.253906 873.8125 C 815.484375 889.34375 814.769531 905.53125 820.300781 918.222656 C 826.3125 932.015625 840.515625 943.144531 858.292969 947.988281 C 876.632812 952.996094 896.714844 951.289062 912.160156 949.238281 C 952.464844 943.90625 991.429688 932.144531 1027.96875 914.28125 C 1032.3125 912.15625 1037.5625 913.960938 1039.683594 918.304688 C 1041.808594 922.652344 1040.007812 927.898438 1035.65625 930.023438 C 997.421875 948.714844 956.644531 961.027344 914.460938 966.609375 C 905.855469 967.75 895.910156 968.785156 885.429688 968.785156 Z M 885.429688 968.785156 " fill-opacity="1" fill-rule="nonzero"/><path fill="#fd4734" d="M 715.324219 707.835938 L 787.582031 1364.101562 C 790.097656 1386.941406 807.605469 1405.300781 830.316406 1408.765625 C 907.910156 1420.597656 1089.097656 1439.910156 1248.042969 1394.597656 C 1261.21875 1390.84375 1270.808594 1379.449219 1272.421875 1365.839844 C 1272.421875 1365.839844 1350.390625 707.835938 1359.398438 694.941406 C 1264.613281 650.226562 1156.605469 641.480469 1051.941406 646.828125 C 947.273438 652.171875 843.695312 670.828125 715.324219 707.835938 Z M 715.324219 707.835938 " fill-opacity="1" fill-rule="nonzero"/><path fill="#ffffff" d="M 1014.21875 751.300781 C 1114.070312 751.96875 1213.972656 745.160156 1312.808594 730.945312 C 1328.894531 728.628906 1345.917969 725.6875 1358.097656 714.921875 C 1368.90625 705.371094 1374.261719 690.824219 1375.558594 676.460938 C 1376.859375 662.09375 1374.523438 647.675781 1372.195312 633.4375 C 1348.183594 623.085938 1324.171875 612.734375 1300.160156 602.382812 C 1298.082031 584.9375 1309.65625 555.621094 1293.078125 541.570312 C 1287.476562 536.820312 1279.925781 535.25 1272.71875 533.835938 C 1228.996094 525.269531 1185.273438 516.699219 1141.554688 508.128906 C 1097.824219 506.621094 1055.40625 508.375 1012.984375 510.125 C 1004.742188 510.464844 993.171875 507.367188 994.5 499.222656 C 995.355469 493.964844 1001.820312 490.929688 1002.457031 485.640625 C 1003.398438 477.855469 992.410156 475.199219 984.582031 475.632812 C 968.433594 476.53125 952.289062 477.433594 936.140625 478.332031 C 926.253906 478.882812 915.882812 479.578125 907.503906 484.855469 C 899.121094 490.128906 893.757812 501.605469 898.585938 510.253906 C 868.128906 512.039062 836.8125 514.035156 809.210938 527.03125 C 781.605469 540.023438 758.230469 566.800781 758.636719 597.3125 C 736.078125 600.132812 715.390625 615.003906 705.527344 635.484375 C 695.664062 655.96875 696.933594 681.417969 707.410156 698.546875 C 720.898438 702.726562 734.386719 706.90625 743.984375 712.339844 C 821.078125 750.21875 908.421875 750.589844 1014.21875 751.300781 Z M 1014.21875 751.300781 " fill-opacity="1" fill-rule="nonzero"/><path fill="#ffffff" d="M 1033.09375 975.882812 C 950.125 973.332031 868.75 953.894531 786.847656 940.394531 C 768.371094 937.351562 745.277344 936.574219 735.519531 952.554688 C 747.160156 1044.863281 762.144531 1142.996094 780.425781 1240.515625 C 815.09375 1247.203125 831.316406 1250.855469 846.980469 1253.855469 C 992.851562 1281.796875 1144.789062 1277.621094 1288.90625 1241.710938 C 1290.011719 1140.757812 1306.800781 1032.3125 1330.097656 936.089844 C 1233.128906 948.039062 1131.980469 978.921875 1033.09375 975.882812 Z M 1033.09375 975.882812 " fill-opacity="1" fill-rule="nonzero"/><path fill="#552d2d" d="M 1036.203125 623.761719 C 938.742188 623.761719 754.425781 610.507812 754.425781 560.351562 C 754.425781 528.277344 831.105469 512.378906 895.425781 504.695312 C 900.207031 504.125 904.589844 507.550781 905.164062 512.351562 C 905.738281 517.15625 902.308594 521.519531 897.503906 522.089844 C 795.011719 534.339844 771.945312 554.316406 771.945312 560.351562 C 771.945312 576.367188 862.703125 606.238281 1036.203125 606.238281 C 1209.699219 606.238281 1300.457031 576.367188 1300.457031 560.351562 C 1300.457031 544.335938 1209.699219 514.460938 1036.203125 514.460938 C 1023.199219 514.460938 1010.40625 514.644531 997.890625 515 C 993.085938 515.066406 989.019531 511.328125 988.890625 506.492188 C 988.753906 501.65625 992.558594 497.625 997.394531 497.488281 C 1010.074219 497.128906 1023.027344 496.941406 1036.203125 496.941406 C 1133.664062 496.941406 1317.976562 510.191406 1317.976562 560.351562 C 1317.976562 610.507812 1133.664062 623.761719 1036.203125 623.761719 Z M 1036.203125 623.761719 " fill-opacity="1" fill-rule="nonzero"/><path fill="#552d2d" d="M 1036.203125 665.21875 C 938.742188 665.21875 754.425781 651.964844 754.425781 601.808594 L 754.425781 558.585938 C 754.425781 553.75 758.347656 549.824219 763.1875 549.824219 C 768.023438 549.824219 771.945312 553.75 771.945312 558.585938 L 771.945312 601.808594 C 771.945312 617.824219 862.703125 647.695312 1036.203125 647.695312 C 1179.523438 647.695312 1277.742188 626.464844 1297.390625 606.484375 C 1299.0625 604.78125 1299.980469 603.226562 1299.957031 602.113281 C 1299.953125 601.78125 1299.964844 601.449219 1300 601.117188 C 1301.050781 590.285156 1300.824219 578.824219 1300.601562 567.738281 L 1300.457031 559.726562 C 1300.394531 554.886719 1304.261719 550.914062 1309.097656 550.847656 C 1313.546875 550.773438 1317.910156 554.644531 1317.976562 559.484375 L 1318.117188 567.386719 C 1318.34375 578.835938 1318.585938 590.667969 1317.476562 602.382812 C 1317.414062 608.195312 1314.863281 613.707031 1309.878906 618.769531 C 1282.992188 646.117188 1170.449219 665.21875 1036.203125 665.21875 Z M 1036.203125 665.21875 " fill-opacity="1" fill-rule="nonzero"/><path fill="#552d2d" d="M 1036.203125 719.863281 C 863.652344 719.863281 688.976562 692.582031 688.976562 640.4375 C 688.976562 620.441406 712.371094 604.050781 760.5 590.320312 C 765.160156 588.984375 770.003906 591.6875 771.324219 596.339844 C 772.65625 600.992188 769.957031 605.839844 765.308594 607.167969 C 721.894531 619.550781 706.492188 632.828125 706.492188 640.4375 C 706.492188 666.285156 831.925781 702.34375 1036.203125 702.34375 C 1240.476562 702.34375 1365.910156 666.285156 1365.910156 640.4375 C 1365.910156 632.59375 1350.855469 619.851562 1308.605469 607.601562 C 1303.957031 606.253906 1301.285156 601.394531 1302.632812 596.75 C 1303.976562 592.101562 1308.851562 589.433594 1313.480469 590.773438 C 1360.550781 604.417969 1383.429688 620.664062 1383.429688 640.4375 C 1383.429688 692.582031 1208.75 719.863281 1036.203125 719.863281 Z M 1036.203125 719.863281 " fill-opacity="1" fill-rule="nonzero"/><path fill="#552d2d" d="M 1036.203125 765.089844 C 863.8125 765.089844 689.082031 737.855469 688.664062 685.804688 C 688.144531 668.828125 688.609375 652.957031 689.132812 638.175781 C 689.304688 633.34375 693.554688 629.5625 698.195312 629.730469 C 703.03125 629.902344 706.8125 633.960938 706.644531 638.792969 C 706.128906 653.289062 705.671875 668.828125 706.175781 685.46875 C 706.386719 711.515625 832.035156 747.570312 1036.203125 747.570312 C 1212.945312 747.570312 1335.445312 720.007812 1360.972656 694.074219 C 1363.886719 691.117188 1365.339844 688.402344 1365.300781 686.011719 C 1365.910156 672.019531 1365.910156 660.710938 1365.910156 641.980469 L 1365.910156 640.4375 C 1365.910156 635.601562 1369.832031 631.679688 1374.667969 631.679688 C 1379.507812 631.679688 1383.429688 635.601562 1383.429688 640.4375 L 1383.429688 641.980469 C 1383.429688 660.953125 1383.429688 672.40625 1382.8125 686.261719 C 1382.933594 692.996094 1379.785156 699.9375 1373.457031 706.363281 C 1339.421875 740.941406 1200.738281 765.089844 1036.203125 765.089844 Z M 1036.203125 765.089844 " fill-opacity="1" fill-rule="nonzero"/><path fill="#552d2d" d="M 1020.011719 1435.0625 C 938.71875 1435.0625 868.839844 1426.535156 830.558594 1420.695312 C 803.996094 1416.644531 783.390625 1395.109375 780.4375 1368.328125 L 708.183594 712.0625 C 707.652344 707.253906 711.125 702.925781 715.933594 702.398438 C 720.746094 701.867188 725.0625 705.332031 725.597656 710.144531 L 797.855469 1366.410156 C 799.933594 1385.316406 814.472656 1400.515625 833.199219 1403.375 C 904.730469 1414.285156 1088.246094 1434.757812 1247.207031 1389.445312 C 1256.980469 1386.660156 1264.078125 1378.269531 1265.285156 1368.078125 L 1343.257812 710.074219 C 1343.832031 705.265625 1348.199219 701.851562 1352.988281 702.402344 C 1357.792969 702.976562 1361.226562 707.332031 1360.65625 712.136719 L 1282.683594 1370.140625 C 1280.636719 1387.375 1268.601562 1401.5625 1252.011719 1406.292969 C 1175.230469 1428.183594 1093.015625 1435.0625 1020.011719 1435.0625 Z M 1020.011719 1435.0625 " fill-opacity="1" fill-rule="nonzero"/><path fill="#552d2d" d="M 1047.117188 981.023438 C 880.390625 981.023438 744.234375 941.800781 742.136719 941.183594 C 737.496094 939.820312 734.839844 934.949219 736.207031 930.308594 C 737.578125 925.664062 742.453125 923.015625 747.082031 924.378906 C 750.261719 925.3125 1068.546875 1016.890625 1324.605469 916.851562 C 1329.125 915.089844 1334.195312 917.320312 1335.953125 921.820312 C 1337.710938 926.332031 1335.488281 931.410156 1330.980469 933.171875 C 1238.492188 969.304688 1138.238281 981.023438 1047.117188 981.023438 Z M 1047.117188 981.023438 " fill-opacity="1" fill-rule="nonzero"/><path fill="#552d2d" d="M 1046.234375 1282.96875 C 928.820312 1282.96875 826.625 1263.261719 774.097656 1250.898438 C 769.386719 1249.789062 766.464844 1245.074219 767.574219 1240.363281 C 768.679688 1235.648438 773.402344 1232.734375 778.109375 1233.84375 C 864.320312 1254.136719 1086.402344 1294.554688 1286.273438 1231.824219 C 1290.859375 1230.378906 1295.800781 1232.9375 1297.253906 1237.558594 C 1298.703125 1242.175781 1296.132812 1247.09375 1291.519531 1248.539062 C 1209.835938 1274.179688 1124.636719 1282.96875 1046.234375 1282.96875 Z M 1046.234375 1282.96875 " fill-opacity="1" fill-rule="nonzero"/><path fill="#552d2d" d="M 898.652344 542.398438 C 893.859375 542.398438 889.949219 538.542969 889.894531 533.742188 L 889.382812 489.3125 C 889.269531 479.398438 896.9375 471.269531 906.84375 470.804688 L 985.828125 467.097656 C 990.925781 466.820312 995.820312 468.710938 999.460938 472.171875 C 1003.105469 475.628906 1005.214844 480.496094 1005.238281 485.519531 L 1005.46875 528.195312 C 1005.496094 533.03125 1001.59375 536.976562 996.757812 537 C 996.742188 537 996.722656 537 996.710938 537 C 991.894531 537 987.976562 533.113281 987.953125 528.289062 L 987.722656 485.613281 L 986.648438 484.597656 L 907.664062 488.304688 C 907.230469 488.324219 906.898438 488.679688 906.902344 489.109375 L 907.410156 533.539062 C 907.464844 538.375 903.585938 542.34375 898.75 542.398438 C 898.71875 542.398438 898.683594 542.398438 898.652344 542.398438 Z M 898.652344 542.398438 " fill-opacity="1" fill-rule="nonzero"/><path fill="#fffcf6" d="M 681.199219 1121.605469 C 681.199219 1121.605469 891.085938 1258.339844 853.648438 1335.730469 C 816.210938 1413.125 765.855469 1426.328125 628.398438 1390.136719 C 490.941406 1353.941406 471.492188 1301.933594 471.492188 1301.933594 C 471.492188 1301.933594 502.324219 1109.449219 681.199219 1121.605469 Z M 681.199219 1121.605469 " fill-opacity="1" fill-rule="nonzero"/><path fill="#ffbd91" d="M 772.902344 1199.585938 C 708.355469 1241.558594 663.976562 1313.191406 655.128906 1389.679688 C 692.703125 1399.683594 731.835938 1408.507812 770.191406 1402.109375 C 808.542969 1395.710938 846.21875 1370.585938 856.214844 1333.003906 C 864.019531 1303.667969 853.648438 1271.652344 834.835938 1247.832031 C 816.023438 1224.007812 789.675781 1207.300781 772.902344 1199.585938 Z M 772.902344 1199.585938 " fill-opacity="1" fill-rule="nonzero"/><path fill="#552d2d" d="M 743.671875 1413.648438 C 734.503906 1413.648438 724.8125 1413.164062 714.558594 1412.203125 C 532.253906 1395.074219 364.652344 1294.957031 277.160156 1150.921875 C 224.738281 1064.621094 200.316406 965.816406 208.398438 872.710938 C 208.8125 867.890625 213.070312 864.347656 217.878906 864.738281 C 222.699219 865.15625 226.269531 869.40625 225.847656 874.222656 C 218.089844 963.648438 241.625 1058.683594 292.128906 1141.824219 C 376.804688 1281.21875 539.300781 1378.136719 716.203125 1394.757812 C 771.78125 1399.980469 808.824219 1390.382812 829.445312 1365.425781 C 860.691406 1327.597656 840.125 1265.230469 803.148438 1229.144531 C 783.214844 1209.691406 759.015625 1193.976562 735.617188 1178.78125 C 713.390625 1164.347656 690.414062 1149.421875 670.375 1131 C 666.8125 1127.726562 666.578125 1122.1875 669.851562 1118.621094 C 673.128906 1115.070312 678.664062 1114.828125 682.230469 1118.101562 C 701.191406 1135.53125 723.542969 1150.046875 745.15625 1164.085938 C 769.269531 1179.746094 794.207031 1195.941406 815.382812 1216.605469 C 858.855469 1259.027344 881.046875 1330.464844 842.953125 1376.585938 C 822.433594 1401.421875 789.800781 1413.644531 743.671875 1413.648438 Z M 743.671875 1413.648438 " fill-opacity="1" fill-rule="nonzero"/><path fill="#fffcf6" d="M 611.554688 830.4375 C 599.183594 884.867188 605.90625 943.449219 630.289062 993.660156 C 634.574219 1002.484375 639.945312 1011.597656 648.835938 1015.734375 C 657.992188 1020 668.734375 1018.003906 678.507812 1015.457031 C 707.894531 1007.808594 736.164062 995.890625 762.160156 980.195312 C 777.394531 970.996094 792.082031 960.28125 802.773438 946.054688 C 813.464844 931.828125 819.824219 913.621094 816.863281 896.070312 C 813.496094 876.070312 798.46875 859.5 780.726562 849.679688 C 762.984375 839.855469 742.664062 835.851562 722.609375 832.851562 C 684.558594 827.164062 646.046875 824.605469 611.554688 830.4375 Z M 611.554688 830.4375 " fill-opacity="1" fill-rule="nonzero"/><path fill="#ffbd91" d="M 695.582031 824.597656 C 664.5 876.820312 671.226562 948.792969 711.445312 994.347656 C 736.464844 985.695312 762.085938 976.710938 782.4375 959.777344 C 802.785156 942.84375 817.054688 915.988281 811.632812 890.074219 C 806.851562 867.222656 787.726562 849.5 766.3125 840.203125 C 744.894531 830.910156 721.191406 828.675781 695.582031 824.597656 Z M 695.582031 824.597656 " fill-opacity="1" fill-rule="nonzero"/><path fill="#552d2d" d="M 634.34375 1026.171875 C 630.023438 1026.171875 626.265625 1022.976562 625.675781 1018.574219 C 625.03125 1013.78125 628.398438 1009.371094 633.195312 1008.726562 C 673.496094 1003.324219 712.4375 991.503906 748.933594 973.582031 C 762.925781 966.714844 780.578125 956.996094 793.070312 942.660156 C 805.171875 928.761719 810.820312 911.625 808.171875 896.816406 C 805.730469 883.183594 796.160156 870.109375 781.914062 860.945312 C 767.164062 851.453125 749.335938 847.046875 735.457031 844.265625 C 691.757812 835.515625 645.550781 835.398438 601.824219 843.921875 C 597.085938 844.851562 592.472656 841.746094 591.550781 837 C 590.625 832.25 593.726562 827.652344 598.472656 826.726562 C 644.425781 817.769531 692.988281 817.894531 738.894531 827.089844 C 754.289062 830.171875 774.167969 835.128906 791.390625 846.210938 C 809.71875 857.996094 822.117188 875.320312 825.417969 893.730469 C 828.988281 913.714844 821.832031 936.304688 806.277344 954.167969 C 791.734375 970.863281 772.121094 981.71875 756.65625 989.308594 C 718.457031 1008.066406 677.699219 1020.4375 635.519531 1026.09375 C 635.125 1026.144531 634.734375 1026.171875 634.34375 1026.171875 Z M 634.34375 1026.171875 " fill-opacity="1" fill-rule="nonzero"/></svg>