<svg xmlns="http://www.w3.org/2000/svg" xmlns:xlink="http://www.w3.org/1999/xlink" width="1920" zoomAndPan="magnify" viewBox="0 0 1440 1439.999935" height="1920" preserveAspectRatio="xMidYMid meet" version="1.0"><defs><clipPath id="b51537bd2b"><path d="M 539 820 L 1285 820 L 1285 1253.550781 L 539 1253.550781 Z M 539 820 " clip-rule="nonzero"/></clipPath></defs><path fill="#97744a" d="M 845.386719 223.730469 C 574.777344 193.042969 305.527344 197.351562 22.210938 236.867188 C 13.019531 238.15625 6.449219 246.199219 6.917969 255.566406 C 16.933594 447.683594 19.730469 656.027344 15.460938 892.472656 C 15.390625 897.351562 17.21875 901.949219 20.628906 905.429688 C 23.96875 908.839844 28.457031 910.707031 33.230469 910.707031 L 33.265625 910.707031 C 296.480469 910.488281 568.675781 910.273438 843.878906 890.535156 C 853.140625 889.851562 860.425781 881.992188 860.425781 872.625 L 861.183594 241.601562 C 861.21875 232.453125 854.398438 224.769531 845.386719 223.730469 Z M 805.652344 823.347656 C 805.652344 827.976562 802.027344 831.855469 797.394531 832.179688 C 764.121094 834.546875 730.847656 836.59375 697.679688 838.351562 C 695.277344 838.492188 692.90625 838.601562 690.5 838.746094 C 626.679688 842.082031 563.109375 844.378906 499.863281 845.960938 C 497.457031 846.03125 495.089844 846.066406 492.683594 846.136719 C 474.664062 846.570312 456.679688 846.964844 438.734375 847.289062 C 320.28125 849.511719 203.082031 849.621094 87.859375 849.691406 C 85.457031 849.691406 83.230469 848.757812 81.542969 847.070312 C 79.855469 845.347656 78.957031 843.085938 79.03125 840.683594 C 82.726562 635.28125 80.285156 454.289062 71.527344 287.328125 C 71.277344 282.699219 74.542969 278.75 79.136719 278.101562 C 218.304688 258.867188 353.589844 249.246094 487.371094 249.246094 C 591.609375 249.246094 694.917969 255.0625 798.472656 266.726562 C 802.960938 267.230469 806.335938 271.035156 806.335938 275.554688 Z M 805.652344 823.347656 " fill-opacity="1" fill-rule="nonzero"/><path fill="#552d2d" d="M 33.566406 917.015625 C 26.722656 917.015625 20.644531 914.46875 16.117188 909.839844 C 11.527344 905.160156 9.050781 898.957031 9.148438 892.378906 C 13.417969 656.15625 10.625 447.964844 0.617188 255.894531 C -0.0195312 243.226562 8.886719 232.363281 21.332031 230.617188 C 305.207031 191.023438 574.992188 186.71875 846.101562 217.460938 C 846.101562 217.460938 846.105469 217.460938 846.113281 217.460938 C 858.351562 218.871094 867.542969 229.261719 867.492188 241.628906 L 866.738281 872.632812 C 866.738281 885.269531 856.902344 895.902344 844.347656 896.828125 C 569.007812 916.578125 296.804688 916.800781 33.566406 917.015625 Z M 489.394531 209.878906 C 336.574219 209.878906 182.058594 220.941406 23.082031 243.117188 C 17.160156 243.949219 12.917969 249.164062 13.222656 255.25 C 23.246094 447.609375 26.042969 656.085938 21.773438 892.589844 C 21.722656 895.753906 22.917969 898.746094 25.136719 901.007812 C 27.273438 903.195312 30.144531 904.394531 33.230469 904.394531 C 296.574219 904.179688 568.546875 903.957031 843.429688 884.242188 C 849.417969 883.800781 854.117188 878.699219 854.117188 872.628906 L 854.871094 241.597656 C 854.894531 235.65625 850.511719 230.679688 844.675781 230 C 726.433594 216.59375 608.425781 209.878906 489.394531 209.878906 Z M 87.863281 856.003906 C 83.796875 856.003906 79.972656 854.417969 77.082031 851.535156 C 74.132812 848.523438 72.597656 844.617188 72.722656 840.5 C 76.417969 635.144531 73.96875 454.285156 65.226562 287.660156 C 64.796875 279.761719 70.398438 272.960938 78.257812 271.855469 C 219.035156 252.398438 352.851562 242.9375 487.371094 242.9375 C 591.074219 242.9375 695.980469 248.832031 799.179688 260.457031 C 806.855469 261.316406 812.644531 267.804688 812.644531 275.554688 L 811.964844 823.359375 C 811.960938 831.277344 805.757812 837.917969 797.839844 838.472656 C 765.410156 840.777344 731.820312 842.859375 698.011719 844.652344 L 690.882812 845.042969 C 630.28125 848.214844 567.867188 850.574219 500.023438 852.265625 L 492.871094 852.445312 C 474.804688 852.878906 456.808594 853.273438 438.847656 853.597656 C 318.539062 855.855469 195.992188 855.933594 87.863281 856.003906 Z M 487.371094 255.558594 C 353.4375 255.558594 220.183594 264.976562 80 284.355469 C 78.65625 284.542969 77.757812 285.628906 77.832031 286.984375 C 86.589844 453.921875 89.046875 635.070312 85.34375 840.796875 C 85.320312 841.550781 85.5625 842.152344 86.054688 842.660156 C 86.519531 843.121094 87.144531 843.382812 87.859375 843.382812 C 195.929688 843.3125 318.417969 843.234375 438.617188 840.976562 C 456.554688 840.652344 474.527344 840.257812 492.535156 839.832031 L 499.679688 839.652344 C 567.4375 837.960938 629.738281 835.601562 690.171875 832.445312 L 697.304688 832.054688 C 731.074219 830.257812 764.585938 828.1875 796.949219 825.882812 C 798.269531 825.792969 799.339844 824.65625 799.339844 823.347656 C 799.339844 823.34375 799.339844 823.34375 799.339844 823.339844 L 800.023438 275.546875 C 800.023438 274.242188 799.054688 273.144531 797.769531 272.996094 C 695.035156 261.425781 590.601562 255.558594 487.371094 255.558594 Z M 487.371094 255.558594 " fill-opacity="1" fill-rule="nonzero"/><path fill="#373e37" d="M 806.335938 275.554688 L 805.652344 823.347656 C 805.652344 827.976562 802.027344 831.855469 797.394531 832.179688 C 764.121094 834.546875 730.847656 836.59375 697.679688 838.351562 L 696.386719 817.496094 C 696.171875 814.304688 693.625 811.757812 690.464844 811.574219 C 628.4375 808.203125 563.792969 809.566406 498.285156 815.667969 C 496.09375 815.882812 494.046875 816.996094 492.683594 818.71875 C 491.285156 820.441406 490.675781 822.703125 490.996094 824.855469 C 492.074219 832.535156 492.398438 839.460938 492.683594 846.136719 C 474.664062 846.570312 456.679688 846.964844 438.734375 847.289062 C 320.28125 849.511719 203.082031 849.621094 87.859375 849.691406 C 85.457031 849.691406 83.230469 848.757812 81.542969 847.070312 C 79.855469 845.347656 78.957031 843.085938 79.03125 840.683594 C 82.726562 635.28125 80.285156 454.289062 71.527344 287.328125 C 71.277344 282.699219 74.542969 278.75 79.136719 278.101562 C 218.304688 258.867188 353.589844 249.246094 487.371094 249.246094 C 591.609375 249.246094 694.917969 255.0625 798.472656 266.726562 C 802.960938 267.230469 806.335938 271.035156 806.335938 275.554688 Z M 806.335938 275.554688 " fill-opacity="1" fill-rule="nonzero"/><path fill="#552d2d" d="M 87.863281 856.003906 C 83.796875 856.003906 79.972656 854.417969 77.082031 851.535156 C 74.132812 848.523438 72.597656 844.617188 72.722656 840.5 C 76.417969 635.144531 73.96875 454.285156 65.226562 287.660156 C 64.796875 279.761719 70.398438 272.960938 78.257812 271.855469 C 219.035156 252.398438 352.851562 242.9375 487.371094 242.9375 C 591.074219 242.9375 695.980469 248.832031 799.179688 260.457031 C 806.855469 261.316406 812.644531 267.804688 812.644531 275.554688 C 812.644531 275.558594 812.644531 275.5625 812.644531 275.566406 L 811.964844 823.359375 C 811.964844 831.269531 805.761719 837.917969 797.839844 838.472656 C 765.410156 840.777344 731.820312 842.859375 698.011719 844.652344 C 694.710938 844.851562 691.59375 842.199219 691.378906 838.742188 L 690.089844 817.886719 C 628.308594 814.511719 563.964844 815.882812 498.871094 821.949219 C 498.417969 821.996094 497.933594 822.257812 497.632812 822.632812 C 497.308594 823.039062 497.179688 823.507812 497.238281 823.925781 C 498.40625 832.230469 498.726562 839.789062 498.988281 845.867188 C 499.0625 847.5625 498.449219 849.210938 497.296875 850.449219 C 496.136719 851.6875 494.53125 852.40625 492.835938 852.445312 C 474.804688 852.875 456.808594 853.273438 438.847656 853.597656 C 318.539062 855.855469 195.992188 855.933594 87.863281 856.003906 Z M 487.371094 255.558594 C 353.4375 255.558594 220.183594 264.976562 80 284.355469 C 78.65625 284.542969 77.757812 285.628906 77.832031 286.984375 C 86.589844 453.921875 89.046875 635.070312 85.34375 840.796875 C 85.320312 841.550781 85.5625 842.152344 86.054688 842.660156 C 86.519531 843.121094 87.144531 843.382812 87.859375 843.382812 C 195.925781 843.3125 318.417969 843.234375 438.617188 840.976562 C 454.410156 840.691406 470.226562 840.355469 486.070312 839.980469 C 485.804688 835.191406 485.4375 830.675781 484.746094 825.734375 C 484.167969 821.855469 485.273438 817.832031 487.785156 814.742188 C 490.15625 811.742188 493.773438 809.769531 497.664062 809.386719 C 563.40625 803.265625 628.378906 801.875 690.808594 805.273438 C 697.160156 805.640625 702.253906 810.710938 702.683594 817.070312 L 703.59375 831.714844 C 735.210938 830.003906 766.585938 828.042969 796.949219 825.882812 C 798.269531 825.792969 799.339844 824.65625 799.339844 823.347656 L 800.023438 275.550781 C 800.023438 274.238281 799.054688 273.144531 797.769531 272.996094 C 695.035156 261.425781 590.601562 255.558594 487.371094 255.558594 Z M 806.332031 275.554688 L 806.394531 275.554688 Z M 806.332031 275.554688 " fill-opacity="1" fill-rule="nonzero"/><path fill="#ffffff" d="M 187.382812 672.679688 C 187.03125 672.679688 186.671875 672.652344 186.3125 672.589844 C 182.875 672 180.566406 668.738281 181.15625 665.300781 L 181.378906 664.007812 C 193.359375 594.101562 205.746094 521.804688 218.765625 458.199219 C 219.882812 452.488281 224.476562 448.222656 230.1875 447.636719 C 235.945312 447.089844 241.085938 450.246094 243.359375 455.652344 C 262.042969 500.324219 278.523438 547.03125 292.332031 594.484375 C 292.367188 594.597656 292.425781 594.816406 292.480469 595.050781 C 297.75 613.003906 302.699219 631.507812 307.609375 651.613281 C 308.4375 655 306.363281 658.414062 302.976562 659.238281 C 299.609375 660.074219 296.175781 657.996094 295.351562 654.605469 C 290.480469 634.691406 285.582031 616.371094 280.371094 598.597656 C 280.289062 598.316406 280.226562 598.03125 280.183594 597.742188 C 266.535156 551.011719 250.214844 504.757812 231.71875 460.535156 C 218.152344 524.140625 205.78125 596.328125 193.820312 666.140625 L 193.597656 667.433594 C 193.070312 670.511719 190.402344 672.679688 187.382812 672.679688 Z M 187.382812 672.679688 " fill-opacity="1" fill-rule="nonzero"/><path fill="#ffffff" d="M 250.980469 601.839844 C 236.332031 601.839844 220.984375 601.179688 205.539062 599.867188 L 202.382812 599.589844 C 198.910156 599.28125 196.347656 596.214844 196.660156 592.742188 C 196.96875 589.273438 200.046875 586.734375 203.511719 587.019531 L 206.617188 587.292969 C 231.972656 589.445312 257.027344 589.796875 279.082031 588.316406 C 280.289062 588.253906 281.378906 588.175781 282.46875 588.097656 L 283.238281 594.367188 L 283.691406 600.664062 C 282.191406 600.769531 281.003906 600.855469 279.820312 600.914062 C 270.664062 601.53125 260.984375 601.839844 250.980469 601.839844 Z M 250.980469 601.839844 " fill-opacity="1" fill-rule="nonzero"/><path fill="#ffffff" d="M 384.621094 662.335938 C 381.40625 662.335938 378.660156 659.894531 378.347656 656.632812 C 371.5 585.960938 361.53125 514.585938 348.710938 444.488281 C 348.085938 441.0625 350.355469 437.773438 353.785156 437.144531 C 357.214844 436.550781 360.503906 438.792969 361.128906 442.21875 C 374.007812 512.664062 384.03125 584.394531 390.910156 655.417969 C 391.246094 658.882812 388.703125 661.96875 385.234375 662.304688 C 385.027344 662.324219 384.824219 662.335938 384.621094 662.335938 Z M 384.621094 662.335938 " fill-opacity="1" fill-rule="nonzero"/><path fill="#ffffff" d="M 420.707031 652.929688 C 411.933594 652.929688 403.453125 651.253906 395.5 647.953125 C 392.28125 646.617188 390.753906 642.925781 392.089844 639.707031 C 393.425781 636.488281 397.109375 634.96875 400.339844 636.296875 C 406.75 638.957031 413.605469 640.308594 420.707031 640.308594 C 437.847656 640.308594 454.066406 632.457031 464.09375 619.304688 C 474.882812 605.152344 478.472656 586.039062 473.695312 568.175781 C 469.535156 552.578125 459.496094 540.410156 446.152344 534.796875 C 439.175781 531.859375 431.160156 530.277344 422.324219 530.089844 C 418.175781 530.003906 414.546875 527.308594 413.304688 523.378906 C 412.0625 519.4375 413.425781 515.304688 416.78125 512.84375 C 421.40625 509.460938 425.414062 505.75 428.703125 501.8125 C 438.246094 490.445312 444.972656 470.96875 437.21875 455.035156 C 431.523438 443.347656 418.160156 436.089844 403.507812 436.523438 C 389.710938 436.964844 375.875 443.417969 363.671875 449.117188 L 360.835938 443.472656 L 358.335938 437.679688 C 371.636719 431.46875 386.71875 424.433594 403.117188 423.90625 C 422.894531 423.429688 440.707031 433.371094 448.566406 449.511719 C 458.789062 470.507812 450.449219 495.539062 438.382812 509.914062 C 436.039062 512.71875 433.40625 515.417969 430.507812 517.980469 C 437.902344 518.792969 444.785156 520.527344 451.046875 523.164062 C 468.015625 530.304688 480.714844 545.523438 485.890625 564.917969 C 491.667969 586.527344 487.269531 609.71875 474.132812 626.957031 C 461.734375 643.21875 441.761719 652.929688 420.707031 652.929688 Z M 360.835938 443.472656 L 360.898438 443.472656 Z M 360.835938 443.472656 " fill-opacity="1" fill-rule="nonzero"/><path fill="#ffffff" d="M 609.28125 649.042969 C 607.195312 649.042969 605.109375 648.941406 602.988281 648.699219 C 573.585938 645.421875 546.539062 620.347656 535.6875 586.300781 C 526.621094 557.898438 528.074219 523.921875 539.78125 490.625 C 547.347656 469.179688 557.574219 452.59375 570.175781 441.324219 C 586.648438 426.566406 607.367188 421.046875 625.617188 426.574219 C 646.179688 432.804688 661.558594 454.738281 660.617188 476.519531 C 660.472656 480.003906 657.554688 482.675781 654.042969 482.550781 C 650.558594 482.398438 647.859375 479.457031 648.007812 475.976562 C 648.699219 459.957031 637.011719 443.210938 621.957031 438.652344 C 607.988281 434.421875 591.765625 438.929688 578.597656 450.722656 C 567.589844 460.570312 558.539062 475.40625 551.6875 494.816406 C 540.886719 525.53125 539.472656 556.660156 547.710938 582.464844 C 557.074219 611.84375 579.851562 633.421875 604.394531 636.160156 C 631.714844 639.179688 657.207031 617.203125 660.523438 589.90625 C 660.945312 586.441406 664.105469 583.988281 667.550781 584.402344 C 671.011719 584.824219 673.472656 587.96875 673.054688 591.429688 C 669.195312 623.195312 640.585938 649.042969 609.28125 649.042969 Z M 609.28125 649.042969 " fill-opacity="1" fill-rule="nonzero"/><path fill="#ffffff" d="M 697.679688 838.351562 C 695.277344 838.492188 692.90625 838.601562 690.5 838.746094 C 626.679688 842.082031 563.109375 844.378906 499.863281 845.960938 C 497.457031 846.03125 495.089844 846.066406 492.683594 846.136719 C 492.398438 839.460938 492.074219 832.535156 490.996094 824.855469 C 490.675781 822.703125 491.285156 820.441406 492.683594 818.71875 C 494.046875 816.996094 496.09375 815.882812 498.285156 815.667969 C 563.792969 809.566406 628.4375 808.203125 690.464844 811.574219 C 693.625 811.757812 696.171875 814.304688 696.386719 817.496094 Z M 697.679688 838.351562 " fill-opacity="1" fill-rule="nonzero"/><path fill="#552d2d" d="M 492.679688 852.449219 C 489.3125 852.449219 486.523438 849.796875 486.378906 846.410156 C 486.0625 839.027344 485.742188 832.816406 484.746094 825.734375 C 484.167969 821.855469 485.273438 817.832031 487.785156 814.742188 C 490.15625 811.746094 493.777344 809.769531 497.664062 809.386719 C 563.40625 803.265625 628.378906 801.875 690.808594 805.273438 C 697.160156 805.640625 702.253906 810.710938 702.683594 817.070312 L 703.976562 837.960938 C 704.082031 839.636719 703.515625 841.28125 702.402344 842.535156 C 701.292969 843.789062 699.726562 844.550781 698.050781 844.648438 L 690.882812 845.042969 C 630.28125 848.214844 567.867188 850.574219 500.023438 852.265625 L 492.871094 852.445312 C 492.808594 852.449219 492.742188 852.449219 492.679688 852.449219 Z M 623.199219 816.089844 C 582.390625 816.089844 540.785156 818.046875 498.871094 821.949219 C 498.417969 821.996094 497.933594 822.257812 497.632812 822.632812 C 497.308594 823.039062 497.175781 823.507812 497.238281 823.925781 C 498.035156 829.601562 498.4375 834.929688 498.699219 839.675781 L 499.679688 839.652344 C 567.4375 837.960938 629.742188 835.601562 690.171875 832.445312 L 690.984375 832.398438 L 690.089844 817.886719 C 668.09375 816.6875 645.765625 816.089844 623.199219 816.089844 Z M 623.199219 816.089844 " fill-opacity="1" fill-rule="nonzero"/><path fill="#fffcf6" d="M 612.058594 803.332031 C 612.910156 836.027344 602.304688 868.90625 582.503906 894.941406 C 577.371094 901.695312 571.007812 908.367188 562.664062 909.914062 C 553.570312 911.59375 544.652344 906.773438 536.761719 901.953125 C 517.289062 890.0625 497.75 876.304688 487.003906 856.179688 C 476.257812 836.050781 477.195312 807.976562 494.84375 793.515625 C 510.667969 780.546875 533.882812 782.3125 553.527344 788.039062 C 573.171875 793.765625 592.457031 802.828125 612.058594 803.332031 Z M 612.058594 803.332031 " fill-opacity="1" fill-rule="nonzero"/><path fill="#ffbd91" d="M 569.957031 792.640625 C 564.152344 829.492188 546.574219 864.402344 520.425781 891.015625 C 499.457031 876.222656 484.902344 852.648438 481.066406 827.277344 C 479.917969 819.6875 479.75 811.628906 482.949219 804.652344 C 486.507812 796.890625 493.886719 791.386719 501.878906 788.382812 C 509.867188 785.382812 518.503906 784.601562 527.027344 784.125 C 539.304688 783.433594 552.078125 783.402344 569.957031 792.640625 Z M 569.957031 792.640625 " fill-opacity="1" fill-rule="nonzero"/><path fill="#552d2d" d="M 567.058594 916.566406 C 566.6875 916.566406 566.3125 916.535156 565.9375 916.46875 C 533.355469 910.613281 503.804688 891.902344 486.890625 866.414062 C 473.324219 845.960938 466.460938 816.167969 481.707031 795.707031 C 496.445312 775.933594 535.535156 771.851562 564.789062 779.324219 C 568.167969 780.1875 570.203125 783.621094 569.34375 787 C 568.484375 790.375 565.0625 792.417969 561.664062 791.550781 C 536.875 785.210938 502.886719 788.398438 491.828125 803.246094 C 480.246094 818.792969 486.285156 842.667969 497.410156 859.4375 C 512.457031 882.113281 538.90625 898.789062 568.167969 904.042969 C 571.597656 904.660156 573.882812 907.941406 573.265625 911.371094 C 572.714844 914.425781 570.058594 916.566406 567.058594 916.566406 Z M 567.058594 916.566406 " fill-opacity="1" fill-rule="nonzero"/><path fill="#d3d7d8" d="M 401.160156 978.785156 L 398.535156 932.054688 C 400.367188 931.070312 402.230469 930.128906 404.105469 929.253906 C 438.667969 912.8125 480.007812 910.804688 520 923.617188 C 521.972656 924.226562 523.914062 924.894531 525.898438 925.570312 C 527.253906 942.769531 528.675781 960.0625 530.195312 977.25 C 529.34375 971.773438 526.683594 966.59375 523.179688 962.777344 C 523.121094 962.746094 523.089844 962.699219 523.054688 962.65625 C 515.652344 954.777344 504.867188 951.433594 497.375 949.578125 C 475.523438 944.195312 452.460938 944.378906 430.695312 950.105469 C 423.03125 952.132812 416.8125 954.878906 412.101562 958.328125 C 409.703125 960.085938 407.683594 962.023438 406.0625 964.167969 C 404.421875 966.289062 403.1875 968.578125 402.351562 971.070312 C 401.523438 973.519531 401.140625 976.140625 401.160156 978.785156 Z M 401.160156 978.785156 " fill-opacity="1" fill-rule="nonzero"/><path fill="#552d2d" d="M 401.15625 985.097656 C 397.824219 985.097656 395.046875 982.496094 394.859375 979.140625 L 392.234375 932.410156 C 392.097656 929.96875 393.382812 927.667969 395.535156 926.503906 C 397.472656 925.457031 399.445312 924.46875 401.433594 923.535156 C 437.488281 906.378906 480.285156 904.273438 521.921875 917.609375 C 523.679688 918.152344 525.472656 918.757812 527.289062 919.378906 L 527.929688 919.597656 C 530.320312 920.40625 531.992188 922.5625 532.191406 925.074219 C 533.546875 942.253906 534.964844 959.53125 536.484375 976.691406 C 536.785156 980.085938 534.34375 983.101562 530.960938 983.515625 C 527.554688 983.914062 524.488281 981.578125 523.960938 978.222656 C 523.339844 974.246094 521.402344 970.222656 518.636719 967.160156 C 518.574219 967.101562 518.515625 967.035156 518.457031 966.972656 L 518.453125 966.972656 C 512.222656 960.34375 502.574219 957.363281 495.859375 955.703125 C 475.039062 950.574219 453.0625 950.746094 432.300781 956.207031 C 425.421875 958.027344 419.878906 960.457031 415.828125 963.421875 C 413.914062 964.824219 412.320312 966.359375 411.097656 967.976562 C 409.835938 969.609375 408.945312 971.261719 408.339844 973.074219 C 407.742188 974.824219 407.457031 976.726562 407.472656 978.734375 C 407.5 982.160156 404.789062 984.984375 401.363281 985.09375 C 401.292969 985.097656 401.226562 985.097656 401.15625 985.097656 Z M 405.066406 935.789062 L 406.144531 954.992188 C 406.855469 954.390625 407.597656 953.804688 408.371094 953.238281 C 413.699219 949.339844 420.664062 946.234375 429.078125 944.003906 C 451.875 938.007812 476.011719 937.816406 498.886719 943.449219 C 505.394531 945.058594 514.199219 947.738281 521.804688 953.222656 C 521.164062 945.550781 520.542969 937.878906 519.9375 930.21875 C 519.339844 930.023438 518.738281 929.832031 518.136719 929.648438 C 479.511719 917.269531 440.003906 919.164062 406.820312 934.949219 C 406.230469 935.226562 405.644531 935.507812 405.066406 935.789062 Z M 405.066406 935.789062 " fill-opacity="1" fill-rule="nonzero"/><path fill="#552d2d" d="M 504.007812 703.4375 C 504.5 703.042969 505.007812 702.671875 505.457031 702.269531 C 505.453125 702.308594 505.460938 702.371094 505.480469 702.394531 C 505.019531 702.734375 504.53125 703.089844 504.007812 703.4375 Z M 504.007812 703.4375 " fill-opacity="1" fill-rule="nonzero"/><path fill="#f8b3c8" d="M 401.242188 980.492188 L 401.191406 979.355469 L 401.15625 978.777344 C 401.136719 976.132812 401.519531 973.511719 402.351562 971.0625 C 403.1875 968.570312 404.417969 966.285156 406.058594 964.164062 C 407.679688 962.015625 409.699219 960.078125 412.101562 958.320312 C 416.808594 954.871094 423.027344 952.125 430.691406 950.097656 C 452.457031 944.371094 475.519531 944.1875 497.371094 949.570312 C 504.867188 951.421875 515.652344 954.769531 523.050781 962.648438 C 523.085938 962.691406 523.121094 962.738281 523.175781 962.769531 C 526.683594 966.585938 529.34375 971.765625 530.195312 977.238281 C 530.28125 978.277344 530.363281 979.3125 530.472656 980.332031 C 530.488281 980.640625 530.476562 980.96875 530.46875 981.296875 C 530.496094 981.382812 530.476562 981.5 530.457031 981.621094 C 530.328125 984.980469 529.445312 988.320312 527.554688 991.40625 C 523.199219 998.390625 515.144531 1001.628906 507.800781 1003.851562 C 487.066406 1010.167969 465.578125 1012.886719 443.9375 1011.960938 C 433.28125 1011.5 425.886719 1009.679688 420.425781 1007.117188 C 414.988281 1004.539062 411.507812 1001.238281 408.632812 997.84375 C 404.257812 992.644531 401.703125 986.5 401.242188 980.492188 Z M 401.242188 980.492188 " fill-opacity="1" fill-rule="nonzero"/><path fill="#552d2d" d="M 452.191406 1018.445312 C 449.355469 1018.445312 446.515625 1018.386719 443.667969 1018.265625 C 433.035156 1017.800781 424.558594 1016.027344 417.742188 1012.832031 C 410.792969 1009.53125 406.648438 1005.269531 403.816406 1001.925781 C 398.660156 995.796875 395.515625 988.363281 394.949219 980.976562 C 394.941406 980.902344 394.9375 980.835938 394.9375 980.765625 L 394.886719 979.632812 C 394.882812 979.558594 394.847656 978.90625 394.847656 978.832031 C 394.820312 975.410156 395.332031 972.117188 396.371094 969.039062 C 397.417969 965.917969 398.996094 962.972656 401.066406 960.300781 C 402.984375 957.757812 405.460938 955.355469 408.378906 953.226562 C 413.683594 949.335938 420.652344 946.226562 429.070312 943.996094 C 451.875 938.003906 476.007812 937.8125 498.882812 943.441406 C 507.109375 945.476562 519.003906 949.214844 527.523438 958.191406 C 527.628906 958.289062 527.730469 958.394531 527.828125 958.5 C 532.359375 963.4375 535.414062 969.746094 536.433594 976.269531 C 536.453125 976.417969 536.5 976.886719 536.511719 977.039062 C 536.582031 977.914062 536.65625 978.789062 536.75 979.652344 C 536.800781 980.527344 536.792969 981 536.777344 981.472656 L 536.773438 981.472656 C 536.773438 981.605469 536.769531 981.734375 536.765625 981.867188 C 536.585938 986.523438 535.296875 990.839844 532.9375 994.703125 C 527.390625 1003.597656 517.570312 1007.488281 509.628906 1009.890625 C 490.960938 1015.578125 471.675781 1018.445312 452.191406 1018.445312 Z M 407.539062 980.074219 C 407.917969 984.828125 410.019531 989.695312 413.460938 993.785156 C 415.585938 996.292969 418.414062 999.179688 423.132812 1001.417969 C 428.375 1003.878906 435.28125 1005.269531 444.210938 1005.65625 C 465.144531 1006.546875 485.933594 1003.914062 505.960938 997.816406 C 512.160156 995.9375 518.925781 993.320312 522.199219 988.066406 C 523.390625 986.121094 524.058594 983.851562 524.15625 981.378906 C 524.15625 981.34375 524.15625 981.3125 524.15625 981.28125 C 524.15625 981.226562 524.15625 981.171875 524.160156 981.117188 C 524.097656 980.046875 524.011719 979.066406 523.933594 978.082031 C 523.339844 974.242188 521.410156 970.234375 518.652344 967.175781 C 518.585938 967.105469 518.519531 967.035156 518.453125 966.96875 L 518.449219 966.96875 C 512.214844 960.328125 502.566406 957.355469 495.859375 955.695312 C 475.039062 950.574219 453.054688 950.742188 432.296875 956.203125 C 425.414062 958.023438 419.875 960.449219 415.832031 963.410156 C 413.90625 964.816406 412.316406 966.347656 411.097656 967.964844 C 409.832031 969.597656 408.945312 971.246094 408.335938 973.066406 C 407.742188 974.820312 407.453125 976.714844 407.46875 978.726562 Z M 407.539062 980.074219 " fill-opacity="1" fill-rule="nonzero"/><path fill="#552d2d" d="M 530.503906 980.808594 C 530.519531 980.976562 530.515625 981.117188 530.46875 981.296875 C 530.476562 980.96875 530.488281 980.644531 530.472656 980.332031 C 530.488281 980.5 530.488281 980.644531 530.503906 980.808594 Z M 530.503906 980.808594 " fill-opacity="1" fill-rule="nonzero"/><path fill="#f9f9f9" d="M 510.402344 698.222656 C 509.707031 698.875 509.039062 699.507812 508.285156 700.125 C 509.039062 699.507812 510.402344 698.222656 510.402344 698.222656 Z M 510.402344 698.222656 " fill-opacity="1" fill-rule="nonzero"/><path fill="#552d2d" d="M 508.289062 706.4375 C 506.476562 706.4375 504.679688 705.660156 503.433594 704.160156 C 502.453125 702.984375 501.976562 701.554688 501.976562 700.132812 C 501.976562 698.320312 502.75 696.523438 504.253906 695.273438 C 504.257812 695.269531 504.257812 695.269531 504.257812 695.269531 C 504.761719 694.847656 505.570312 694.101562 505.917969 693.777344 C 505.957031 693.738281 506 693.699219 506.039062 693.660156 C 506.066406 693.636719 506.078125 693.625 506.082031 693.621094 L 514.71875 702.828125 C 514.710938 702.832031 514.695312 702.84375 514.675781 702.867188 C 513.90625 703.585938 513.160156 704.285156 512.328125 704.972656 C 512.328125 704.976562 512.324219 704.976562 512.320312 704.980469 C 511.144531 705.960938 509.714844 706.4375 508.289062 706.4375 Z M 514.71875 702.828125 L 510.402344 698.222656 L 514.722656 702.824219 C 514.722656 702.824219 514.722656 702.824219 514.71875 702.828125 Z M 514.71875 702.828125 " fill-opacity="1" fill-rule="nonzero"/><path fill="#f9f9f9" d="M 385.878906 707.132812 C 385.878906 707.132812 385.878906 707.132812 385.882812 707.09375 C 386.023438 706.992188 387.726562 708.542969 388.804688 709.386719 C 387.8125 708.65625 386.820312 707.933594 385.878906 707.132812 Z M 385.878906 707.132812 " fill-opacity="1" fill-rule="nonzero"/><path fill="#552d2d" d="M 388.800781 715.695312 C 387.507812 715.695312 386.207031 715.300781 385.082031 714.484375 C 383.960938 713.660156 382.84375 712.835938 381.785156 711.933594 C 380.121094 710.515625 379.308594 708.332031 379.640625 706.171875 L 379.648438 706.132812 C 379.898438 704.476562 380.804688 702.992188 382.152344 702 C 386.234375 699.007812 389.996094 702.15625 391.597656 703.511719 L 392.695312 704.417969 C 395.410156 706.539062 395.917969 710.445312 393.839844 713.195312 C 392.601562 714.832031 390.714844 715.695312 388.800781 715.695312 Z M 392.121094 708.050781 L 392.1875 708.050781 Z M 392.121094 708.050781 " fill-opacity="1" fill-rule="nonzero"/><path fill="#fbf9e4" d="M 385.878906 707.132812 C 385.878906 707.132812 385.878906 707.132812 385.882812 707.09375 C 385.871094 706.640625 385.859375 703.136719 385.929688 702.941406 C 385.9375 702.902344 385.945312 702.863281 385.964844 702.847656 C 386.238281 702.007812 386.527344 701.195312 386.800781 700.355469 C 394.976562 676.214844 403.78125 653.417969 412.59375 631.363281 C 413.023438 631.753906 413.460938 632.109375 413.9375 632.46875 C 414.414062 632.832031 414.875 633.167969 415.375 633.511719 C 416.027344 633.917969 416.699219 634.351562 417.421875 634.707031 C 425.703125 639.28125 437.066406 640.996094 448.578125 639.234375 C 456.339844 638.019531 463.277344 635.386719 468.898438 631.625 C 471.628906 629.839844 474.015625 627.769531 476.070312 625.488281 C 476.386719 625.148438 476.6875 624.785156 476.96875 624.441406 C 487.074219 645.160156 496.902344 666.476562 508.003906 690.441406 L 508.925781 692.425781 L 510.628906 696.109375 C 510.828125 696.730469 509.039062 699.507812 508.285156 700.128906 C 508.1875 700.234375 508.066406 700.359375 507.949219 700.445312 C 507.152344 701.097656 506.332031 701.769531 505.480469 702.394531 C 505.460938 702.371094 505.453125 702.308594 505.457031 702.269531 C 505.007812 702.671875 504.5 703.042969 504.007812 703.4375 L 503.984375 703.453125 C 482.894531 718.4375 445.402344 727.339844 414.503906 720.355469 C 405.222656 718.289062 396.550781 714.777344 389.082031 709.570312 C 388.992188 709.496094 388.917969 709.445312 388.804688 709.386719 C 387.8125 708.65625 386.820312 707.933594 385.878906 707.132812 Z M 385.878906 707.132812 " fill-opacity="1" fill-rule="nonzero"/><path fill="#552d2d" d="M 437.320312 729.105469 C 429.1875 729.105469 421.03125 728.300781 413.113281 726.511719 C 402.617188 724.171875 393.316406 720.214844 385.472656 714.746094 L 385.476562 714.746094 C 385.339844 714.660156 385.210938 714.574219 385.082031 714.484375 C 383.957031 713.660156 382.84375 712.835938 381.785156 711.933594 C 380.328125 710.691406 379.527344 708.871094 379.566406 706.992188 C 379.453125 702.289062 379.730469 701.519531 380.003906 700.78125 C 380.011719 700.753906 380.019531 700.734375 380.03125 700.710938 L 380.792969 698.414062 C 389.566406 672.507812 398.828125 648.804688 406.734375 629.019531 C 407.503906 627.097656 409.167969 625.675781 411.1875 625.210938 C 413.222656 624.742188 415.324219 625.308594 416.851562 626.707031 C 417.136719 626.964844 417.425781 627.195312 417.742188 627.433594 C 418.140625 627.734375 418.523438 628.019531 418.941406 628.304688 C 419.328125 628.539062 419.757812 628.824219 420.222656 629.054688 C 427.648438 633.148438 437.546875 634.546875 447.625 633 C 454.347656 631.941406 460.496094 629.65625 465.386719 626.382812 C 467.644531 624.902344 469.644531 623.195312 471.378906 621.265625 C 471.671875 620.949219 471.867188 620.710938 472.050781 620.484375 C 473.402344 618.800781 475.539062 617.925781 477.671875 618.167969 C 479.820312 618.410156 481.695312 619.730469 482.640625 621.671875 C 492.046875 640.960938 500.992188 660.28125 511.351562 682.652344 L 516.355469 693.460938 C 516.460938 693.6875 516.550781 693.914062 516.625 694.148438 C 518.011719 698.398438 514.417969 702.792969 512.929688 704.371094 L 512.945312 704.386719 C 512.683594 704.667969 512.066406 705.246094 511.761719 705.476562 C 511.046875 706.066406 510.144531 706.796875 509.210938 707.484375 C 508.972656 707.65625 508.730469 707.8125 508.480469 707.949219 C 508.4375 707.980469 508.394531 708.011719 508.351562 708.046875 C 508.277344 708.105469 507.71875 708.546875 507.640625 708.601562 C 491.574219 720.011719 464.628906 729.105469 437.320312 729.105469 Z M 392.425781 704.214844 C 392.652344 704.363281 392.867188 704.519531 393.023438 704.644531 C 399.179688 708.917969 406.980469 712.214844 415.875 714.195312 C 446.484375 721.121094 482.222656 711.171875 500.332031 698.308594 L 501.277344 697.542969 C 501.699219 697.167969 502.164062 696.859375 502.652344 696.617188 C 502.960938 696.371094 503.265625 696.125 503.566406 695.878906 L 499.894531 687.957031 C 490.960938 668.65625 483.078125 651.632812 475.0625 634.980469 C 474.1875 635.652344 473.285156 636.296875 472.355469 636.90625 C 466.003906 641.15625 458.101562 644.128906 449.554688 645.46875 C 437.296875 647.351562 425.027344 645.675781 415.59375 640.882812 C 408.429688 658.964844 400.398438 679.882812 392.777344 702.378906 L 392.214844 704.0625 C 392.285156 704.113281 392.355469 704.164062 392.425781 704.214844 Z M 504.648438 694.433594 C 504.648438 694.433594 504.648438 694.433594 504.648438 694.4375 C 504.648438 694.433594 504.648438 694.433594 504.648438 694.433594 Z M 504.648438 694.433594 " fill-opacity="1" fill-rule="nonzero"/><path fill="#eacafb" d="M 508.925781 692.425781 L 510.628906 696.109375 C 510.914062 697.707031 509.039062 699.507812 508.285156 700.125 " fill-opacity="1" fill-rule="nonzero"/><path fill="#552d2d" d="M 508.289062 706.4375 C 506.476562 706.4375 504.679688 705.660156 503.433594 704.160156 C 501.40625 701.722656 501.527344 698.207031 503.585938 695.914062 L 503.195312 695.074219 C 501.734375 691.910156 503.113281 688.160156 506.277344 686.699219 C 509.441406 685.246094 513.195312 686.617188 514.652344 689.78125 L 516.355469 693.460938 C 516.582031 693.953125 516.742188 694.46875 516.839844 694.996094 C 517.457031 698.441406 515.808594 702.082031 512.320312 704.980469 C 511.144531 705.960938 509.714844 706.4375 508.289062 706.4375 Z M 508.289062 706.4375 " fill-opacity="1" fill-rule="nonzero"/><path fill="#a5dbd3" d="M 398.535156 932.054688 L 398.253906 926.976562 C 398.238281 926.808594 398.226562 926.644531 398.234375 926.460938 L 398.152344 924.996094 L 396.222656 891.371094 L 396.035156 887.820312 L 395.835938 884.207031 L 385.878906 707.132812 C 386.820312 707.933594 387.8125 708.65625 388.804688 709.386719 C 388.917969 709.441406 388.992188 709.496094 389.082031 709.570312 C 396.550781 714.777344 405.222656 718.289062 414.503906 720.355469 C 445.402344 727.339844 482.894531 718.4375 503.984375 703.453125 L 504.007812 703.4375 C 504.53125 703.089844 505.019531 702.734375 505.480469 702.394531 C 506.332031 701.769531 507.152344 701.097656 507.949219 700.445312 C 508.066406 700.359375 508.1875 700.234375 508.285156 700.125 C 509.039062 699.503906 510.582031 699.859375 510.414062 698.390625 C 510.414062 698.390625 517.707031 814.4375 522.140625 875.839844 C 522.140625 875.839844 522.140625 875.839844 522.15625 875.863281 C 522.335938 878.140625 522.476562 880.414062 522.632812 882.710938 C 523.515625 894.621094 524.40625 906.628906 525.347656 918.667969 C 525.523438 920.988281 525.71875 923.289062 525.898438 925.570312 C 523.914062 924.894531 521.972656 924.226562 520 923.613281 C 480.007812 910.804688 438.667969 912.808594 404.105469 929.25 C 402.230469 930.128906 400.367188 931.070312 398.535156 932.054688 Z M 398.535156 932.054688 " fill-opacity="1" fill-rule="nonzero"/><path fill="#552d2d" d="M 398.535156 938.367188 C 397.472656 938.367188 396.414062 938.097656 395.453125 937.5625 C 393.566406 936.507812 392.355469 934.5625 392.234375 932.40625 L 391.953125 927.324219 C 391.945312 927.222656 391.941406 927.019531 391.933594 926.804688 L 391.929688 926.804688 L 379.578125 707.484375 C 379.433594 704.964844 380.8125 702.601562 383.074219 701.476562 C 385.332031 700.351562 388.042969 700.691406 389.976562 702.328125 C 390.761719 703 391.59375 703.605469 392.425781 704.214844 C 392.652344 704.363281 392.867188 704.519531 393.027344 704.644531 C 399.179688 708.917969 406.980469 712.214844 415.875 714.195312 C 446.484375 721.121094 482.222656 711.171875 500.332031 698.308594 C 500.964844 697.882812 501.363281 697.589844 501.746094 697.304688 C 502.503906 696.753906 503.222656 696.160156 503.925781 695.582031 C 504.46875 695.121094 504.980469 694.769531 505.445312 694.5 C 506.484375 693.175781 508.046875 692.265625 509.851562 692.105469 C 513.238281 691.789062 516.289062 694.269531 516.683594 697.667969 C 516.703125 697.847656 516.71875 698.027344 516.726562 698.214844 C 517.085938 703.914062 524.113281 815.433594 528.40625 874.957031 C 528.421875 875.09375 528.4375 875.230469 528.449219 875.371094 L 529.003906 883.28125 C 529.863281 894.835938 530.726562 906.492188 531.640625 918.175781 L 532.191406 925.078125 C 532.359375 927.195312 531.449219 929.25 529.773438 930.554688 C 528.09375 931.851562 525.875 932.222656 523.867188 931.542969 L 523.222656 931.324219 C 521.515625 930.742188 519.835938 930.171875 518.136719 929.648438 C 479.511719 917.269531 440.003906 919.164062 406.820312 934.949219 C 405.015625 935.792969 403.261719 936.679688 401.539062 937.609375 C 400.601562 938.113281 399.566406 938.367188 398.535156 938.367188 Z M 392.878906 719.238281 L 404.3125 922.203125 C 438.867188 906.683594 479.304688 904.71875 518.859375 916.652344 C 518.015625 905.804688 517.214844 894.96875 516.417969 884.214844 L 515.894531 876.742188 C 515.871094 876.59375 515.855469 876.445312 515.84375 876.292969 C 512.285156 826.96875 506.816406 741.4375 504.851562 710.429688 C 482.964844 724.433594 445.9375 733.925781 413.113281 726.511719 C 405.753906 724.875 398.976562 722.4375 392.878906 719.238281 Z M 392.878906 719.238281 " fill-opacity="1" fill-rule="nonzero"/><path fill="#8c878b" d="M 412.589844 631.351562 C 413.363281 629.40625 414.136719 627.457031 414.921875 625.53125 C 417.0625 620.171875 419.1875 614.890625 421.332031 609.632812 C 426.996094 595.625 432.363281 582.371094 437.289062 569.582031 C 437.730469 568.441406 438.449219 567.488281 439.375 566.8125 C 440.296875 566.136719 441.382812 565.730469 442.582031 565.667969 C 445.003906 565.492188 447.210938 566.710938 448.378906 568.835938 C 457.597656 585.738281 465.847656 601.792969 473.871094 618.078125 C 474.421875 619.167969 474.945312 620.269531 475.496094 621.359375 C 475.558594 621.492188 475.617188 621.625 475.679688 621.753906 C 476.117188 622.640625 476.550781 623.527344 476.988281 624.414062 L 476.964844 624.429688 C 476.6875 624.777344 476.386719 625.140625 476.066406 625.480469 C 474.015625 627.761719 471.628906 629.828125 468.894531 631.617188 C 463.277344 635.378906 456.339844 638.011719 448.574219 639.226562 C 437.0625 640.988281 425.699219 639.273438 417.417969 634.699219 C 416.695312 634.339844 416.023438 633.910156 415.371094 633.503906 C 414.871094 633.160156 414.410156 632.824219 413.933594 632.460938 C 413.457031 632.101562 413.023438 631.746094 412.589844 631.351562 Z M 412.589844 631.351562 " fill-opacity="1" fill-rule="nonzero"/><path fill="#552d2d" d="M 439.714844 646.214844 C 430.367188 646.214844 421.472656 644.148438 414.363281 640.21875 C 413.785156 639.945312 413 639.460938 412.246094 638.992188 C 411.207031 638.296875 410.679688 637.914062 410.132812 637.5 C 409.492188 637.015625 408.910156 636.539062 408.332031 636.007812 C 406.398438 634.238281 405.757812 631.460938 406.726562 629.023438 L 409.085938 623.140625 C 411.207031 617.820312 413.335938 612.527344 415.484375 607.253906 C 421.277344 592.941406 426.550781 579.902344 431.398438 567.3125 C 432.289062 565.027344 433.757812 563.097656 435.652344 561.714844 C 437.589844 560.300781 439.875 559.488281 442.257812 559.367188 C 447.03125 558.996094 451.539062 561.476562 453.910156 565.800781 C 462.605469 581.734375 470.746094 597.457031 479.535156 615.289062 L 482.652344 621.632812 C 483.792969 623.953125 483.390625 626.707031 481.707031 628.601562 C 481.375 629.007812 481.023438 629.421875 480.652344 629.816406 C 478.304688 632.429688 475.476562 634.851562 472.347656 636.898438 C 466 641.148438 458.097656 644.117188 449.554688 645.457031 C 446.257812 645.964844 442.957031 646.214844 439.714844 646.214844 Z M 420.296875 629.089844 C 427.71875 633.152344 437.582031 634.523438 447.621094 632.988281 C 454.34375 631.933594 460.492188 629.644531 465.382812 626.375 C 466.828125 625.425781 468.167969 624.390625 469.394531 623.265625 L 468.230469 620.90625 C 459.503906 603.195312 451.4375 587.621094 442.835938 571.859375 C 438.308594 584.5 433.003906 597.601562 427.40625 611.441406 C 425.042969 617.257812 422.917969 622.523438 420.785156 627.871094 Z M 420.296875 629.089844 " fill-opacity="1" fill-rule="nonzero"/><path fill="#552d2d" d="M 504.007812 703.4375 C 504.5 703.042969 505.007812 702.671875 505.457031 702.269531 C 505.453125 702.308594 505.460938 702.371094 505.480469 702.394531 C 505.019531 702.734375 504.53125 703.089844 504.007812 703.4375 Z M 504.007812 703.4375 " fill-opacity="1" fill-rule="nonzero"/><path fill="#552d2d" d="M 481.644531 919.90625 C 478.285156 919.90625 475.492188 917.257812 475.347656 913.863281 C 474 882.289062 472.269531 848.949219 470.59375 816.703125 C 468.914062 784.425781 467.175781 751.046875 465.832031 719.40625 C 465.683594 715.925781 468.386719 712.984375 471.867188 712.835938 C 475.191406 712.738281 478.292969 715.386719 478.441406 718.871094 C 479.789062 750.449219 481.519531 783.796875 483.195312 816.046875 C 484.875 848.320312 486.609375 881.691406 487.957031 913.328125 C 488.105469 916.808594 485.402344 919.753906 481.921875 919.902344 C 481.832031 919.902344 481.738281 919.90625 481.644531 919.90625 Z M 481.644531 919.90625 " fill-opacity="1" fill-rule="nonzero"/><path fill="#552d2d" d="M 437.917969 922.742188 C 434.632812 922.742188 431.859375 920.195312 431.628906 916.863281 C 427.710938 859.683594 423.71875 792.03125 423.84375 723.835938 C 423.847656 720.355469 426.675781 717.535156 430.152344 717.535156 C 430.15625 717.535156 430.160156 717.535156 430.164062 717.535156 C 433.652344 717.542969 436.472656 720.375 436.464844 723.859375 C 436.367188 778.515625 438.613281 834.183594 444.222656 916 C 444.460938 919.476562 441.832031 922.488281 438.355469 922.726562 C 438.210938 922.734375 438.0625 922.742188 437.917969 922.742188 Z M 437.917969 922.742188 " fill-opacity="1" fill-rule="nonzero"/><path fill="#fffcf6" d="M 624.425781 801.957031 C 566.332031 894.164062 528.863281 980.074219 553.261719 1062.226562 C 568.089844 1112.15625 606.257812 1154.445312 652.773438 1183.175781 C 699.289062 1211.910156 753.75 1228.023438 808.769531 1237.234375 C 883.597656 1249.757812 960.796875 1250.046875 1035.730469 1238.078125 C 1100.777344 1227.691406 1166.601562 1206.691406 1212.890625 1163.113281 C 1259.3125 1119.410156 1281.238281 1055.988281 1277.371094 994.789062 C 1273.503906 933.589844 1249.597656 855.039062 1211.910156 804.867188 C 1054.023438 779.785156 891.820312 819.214844 733.15625 799.621094 C 691.34375 794.457031 640.101562 777.070312 624.425781 801.957031 Z M 624.425781 801.957031 " fill-opacity="1" fill-rule="nonzero"/><path fill="#f09a61" d="M 1207.039062 838.464844 C 1254.347656 823.859375 1297.820312 782.367188 1307.058594 728.257812 C 1313.074219 693.042969 1304.355469 656.816406 1290.988281 624.632812 C 1277.617188 592.449219 1259.664062 562.992188 1245.597656 531.195312 C 1225.019531 484.679688 1212.640625 432.957031 1185.0625 391.359375 C 1147.785156 335.128906 1086.429688 304.15625 1024.453125 293.425781 C 962.472656 282.699219 882.816406 282.699219 820.835938 293.425781 C 758.859375 304.15625 697.503906 335.128906 660.226562 391.359375 C 632.648438 432.957031 620.269531 484.679688 599.691406 531.195312 C 585.625 562.992188 567.671875 592.449219 554.300781 624.632812 C 540.933594 656.816406 532.214844 693.042969 538.230469 728.257812 C 547.46875 782.367188 612.667969 818.980469 665.007812 838.464844 C 847.515625 871.785156 1014.398438 897.9375 1207.039062 838.464844 Z M 1207.039062 838.464844 " fill-opacity="1" fill-rule="nonzero"/><path fill="#fffcf6" d="M 1291.242188 718.761719 C 1276 688.578125 1236.796875 678.246094 1202.164062 677.699219 C 1167.535156 677.15625 1131.609375 682.828125 1099.128906 671.164062 C 1064.496094 658.730469 1033.011719 626.734375 1002.765625 606.144531 C 918.382812 548.714844 881.859375 563.953125 832.15625 605.117188 C 804.128906 628.328125 780.410156 658.730469 745.773438 671.164062 C 713.292969 682.828125 677.367188 677.15625 642.738281 677.699219 C 608.109375 678.242188 568.902344 688.578125 553.660156 718.761719 C 540.703125 744.414062 550.441406 776.664062 570.1875 797.851562 C 589.929688 819.042969 622.445312 834.742188 650.082031 844.570312 C 738.316406 875.960938 828.6875 885.625 922.453125 879.617188 C 1016.214844 885.625 1111.257812 872.445312 1199.492188 841.058594 C 1227.125 831.226562 1254.972656 819.042969 1274.714844 797.851562 C 1294.460938 776.664062 1304.199219 744.414062 1291.242188 718.761719 Z M 1291.242188 718.761719 " fill-opacity="1" fill-rule="nonzero"/><path fill="#f8c7d0" d="M 951.417969 576.507812 C 941.621094 567.953125 928.929688 562.773438 915.945312 562.019531 C 902.960938 561.265625 886.382812 564.773438 878.925781 576.949219 C 884.042969 584.984375 889.363281 588.496094 896.492188 594.816406 C 903.621094 601.140625 913.046875 605.503906 922.519531 604.464844 C 936.148438 602.964844 946.050781 591.261719 951.417969 576.507812 Z M 951.417969 576.507812 " fill-opacity="1" fill-rule="nonzero"/><path fill="#f8c7d0" d="M 682.210938 666.1875 C 682.210938 667.167969 682.164062 668.144531 682.070312 669.121094 C 681.972656 670.09375 681.828125 671.0625 681.636719 672.027344 C 681.445312 672.988281 681.207031 673.9375 680.921875 674.875 C 680.640625 675.8125 680.308594 676.734375 679.933594 677.640625 C 679.558594 678.546875 679.140625 679.429688 678.679688 680.296875 C 678.214844 681.160156 677.710938 682 677.167969 682.816406 C 676.625 683.628906 676.039062 684.417969 675.417969 685.175781 C 674.796875 685.933594 674.136719 686.65625 673.445312 687.351562 C 672.75 688.042969 672.027344 688.703125 671.269531 689.324219 C 670.511719 689.945312 669.722656 690.527344 668.910156 691.074219 C 668.09375 691.617188 667.253906 692.121094 666.390625 692.582031 C 665.523438 693.046875 664.640625 693.464844 663.734375 693.839844 C 662.828125 694.214844 661.90625 694.542969 660.96875 694.828125 C 660.027344 695.113281 659.078125 695.351562 658.117188 695.542969 C 657.15625 695.734375 656.1875 695.878906 655.210938 695.972656 C 654.234375 696.070312 653.257812 696.117188 652.277344 696.117188 C 651.296875 696.117188 650.320312 696.070312 649.34375 695.972656 C 648.367188 695.878906 647.398438 695.734375 646.4375 695.542969 C 645.476562 695.351562 644.527344 695.113281 643.589844 694.828125 C 642.648438 694.542969 641.726562 694.214844 640.820312 693.839844 C 639.917969 693.464844 639.03125 693.046875 638.167969 692.582031 C 637.300781 692.121094 636.460938 691.617188 635.648438 691.074219 C 634.832031 690.527344 634.046875 689.945312 633.285156 689.324219 C 632.527344 688.703125 631.804688 688.042969 631.109375 687.351562 C 630.417969 686.65625 629.757812 685.933594 629.136719 685.175781 C 628.515625 684.417969 627.933594 683.628906 627.386719 682.816406 C 626.84375 682 626.339844 681.160156 625.878906 680.296875 C 625.414062 679.429688 624.996094 678.546875 624.621094 677.640625 C 624.246094 676.734375 623.917969 675.8125 623.632812 674.875 C 623.347656 673.9375 623.109375 672.988281 622.917969 672.027344 C 622.726562 671.0625 622.582031 670.09375 622.488281 669.121094 C 622.390625 668.144531 622.34375 667.167969 622.34375 666.1875 C 622.34375 665.207031 622.390625 664.226562 622.488281 663.253906 C 622.582031 662.277344 622.726562 661.308594 622.917969 660.347656 C 623.109375 659.386719 623.347656 658.4375 623.632812 657.496094 C 623.917969 656.558594 624.246094 655.636719 624.621094 654.730469 C 624.996094 653.828125 625.414062 652.941406 625.878906 652.078125 C 626.339844 651.210938 626.84375 650.371094 627.386719 649.558594 C 627.933594 648.742188 628.515625 647.957031 629.136719 647.199219 C 629.757812 646.441406 630.417969 645.714844 631.109375 645.023438 C 631.804688 644.328125 632.527344 643.671875 633.285156 643.050781 C 634.046875 642.425781 634.832031 641.84375 635.648438 641.300781 C 636.460938 640.753906 637.300781 640.25 638.167969 639.789062 C 639.03125 639.328125 639.917969 638.910156 640.820312 638.535156 C 641.726562 638.160156 642.648438 637.828125 643.589844 637.542969 C 644.527344 637.257812 645.476562 637.023438 646.4375 636.832031 C 647.398438 636.640625 648.367188 636.496094 649.34375 636.398438 C 650.320312 636.304688 651.296875 636.253906 652.277344 636.253906 C 653.257812 636.253906 654.234375 636.304688 655.210938 636.398438 C 656.1875 636.496094 657.15625 636.640625 658.117188 636.832031 C 659.078125 637.023438 660.027344 637.257812 660.96875 637.542969 C 661.90625 637.828125 662.828125 638.160156 663.734375 638.535156 C 664.640625 638.910156 665.523438 639.328125 666.390625 639.789062 C 667.253906 640.25 668.09375 640.753906 668.910156 641.300781 C 669.722656 641.84375 670.511719 642.425781 671.269531 643.050781 C 672.027344 643.671875 672.75 644.328125 673.445312 645.023438 C 674.136719 645.714844 674.796875 646.441406 675.417969 647.199219 C 676.039062 647.957031 676.625 648.742188 677.167969 649.558594 C 677.710938 650.371094 678.214844 651.210938 678.679688 652.078125 C 679.140625 652.941406 679.558594 653.828125 679.933594 654.730469 C 680.308594 655.636719 680.640625 656.558594 680.921875 657.496094 C 681.207031 658.4375 681.445312 659.386719 681.636719 660.347656 C 681.828125 661.308594 681.972656 662.277344 682.070312 663.253906 C 682.164062 664.226562 682.210938 665.207031 682.210938 666.1875 Z M 682.210938 666.1875 " fill-opacity="1" fill-rule="nonzero"/><path fill="#f8c7d0" d="M 1215.449219 666.1875 C 1215.449219 667.167969 1215.402344 668.144531 1215.304688 669.121094 C 1215.207031 670.09375 1215.066406 671.0625 1214.875 672.027344 C 1214.683594 672.988281 1214.445312 673.9375 1214.160156 674.875 C 1213.875 675.8125 1213.546875 676.734375 1213.171875 677.640625 C 1212.796875 678.546875 1212.375 679.429688 1211.914062 680.296875 C 1211.453125 681.160156 1210.949219 682 1210.402344 682.816406 C 1209.859375 683.628906 1209.277344 684.417969 1208.652344 685.175781 C 1208.03125 685.933594 1207.375 686.65625 1206.679688 687.351562 C 1205.988281 688.042969 1205.261719 688.703125 1204.503906 689.324219 C 1203.746094 689.945312 1202.960938 690.527344 1202.144531 691.074219 C 1201.328125 691.617188 1200.488281 692.121094 1199.625 692.582031 C 1198.761719 693.046875 1197.875 693.464844 1196.96875 693.839844 C 1196.0625 694.214844 1195.140625 694.542969 1194.203125 694.828125 C 1193.265625 695.113281 1192.316406 695.351562 1191.355469 695.542969 C 1190.390625 695.734375 1189.425781 695.878906 1188.449219 695.972656 C 1187.472656 696.070312 1186.496094 696.117188 1185.515625 696.117188 C 1184.535156 696.117188 1183.554688 696.070312 1182.578125 695.972656 C 1181.605469 695.878906 1180.636719 695.734375 1179.675781 695.542969 C 1178.710938 695.351562 1177.761719 695.113281 1176.824219 694.828125 C 1175.886719 694.542969 1174.964844 694.214844 1174.058594 693.839844 C 1173.152344 693.464844 1172.265625 693.046875 1171.402344 692.582031 C 1170.539062 692.121094 1169.699219 691.617188 1168.882812 691.074219 C 1168.066406 690.527344 1167.28125 689.945312 1166.523438 689.324219 C 1165.765625 688.703125 1165.039062 688.042969 1164.347656 687.351562 C 1163.652344 686.65625 1162.996094 685.933594 1162.375 685.175781 C 1161.75 684.417969 1161.167969 683.628906 1160.625 682.816406 C 1160.078125 682 1159.574219 681.160156 1159.113281 680.296875 C 1158.652344 679.429688 1158.234375 678.546875 1157.855469 677.640625 C 1157.480469 676.734375 1157.152344 675.8125 1156.867188 674.875 C 1156.582031 673.9375 1156.34375 672.988281 1156.152344 672.027344 C 1155.960938 671.0625 1155.820312 670.09375 1155.722656 669.121094 C 1155.625 668.144531 1155.578125 667.167969 1155.578125 666.1875 C 1155.578125 665.207031 1155.625 664.226562 1155.722656 663.253906 C 1155.820312 662.277344 1155.960938 661.308594 1156.152344 660.347656 C 1156.34375 659.386719 1156.582031 658.4375 1156.867188 657.496094 C 1157.152344 656.558594 1157.480469 655.636719 1157.859375 654.730469 C 1158.234375 653.828125 1158.652344 652.941406 1159.113281 652.078125 C 1159.574219 651.210938 1160.078125 650.371094 1160.625 649.558594 C 1161.167969 648.742188 1161.75 647.957031 1162.375 647.199219 C 1162.996094 646.441406 1163.652344 645.714844 1164.347656 645.023438 C 1165.039062 644.328125 1165.765625 643.671875 1166.523438 643.050781 C 1167.28125 642.425781 1168.066406 641.84375 1168.882812 641.300781 C 1169.699219 640.753906 1170.539062 640.25 1171.402344 639.789062 C 1172.265625 639.328125 1173.152344 638.910156 1174.058594 638.535156 C 1174.964844 638.160156 1175.886719 637.828125 1176.824219 637.542969 C 1177.761719 637.257812 1178.710938 637.023438 1179.675781 636.832031 C 1180.636719 636.640625 1181.605469 636.496094 1182.578125 636.398438 C 1183.554688 636.304688 1184.535156 636.253906 1185.515625 636.253906 C 1186.496094 636.253906 1187.472656 636.304688 1188.449219 636.398438 C 1189.425781 636.496094 1190.390625 636.640625 1191.355469 636.832031 C 1192.316406 637.023438 1193.265625 637.257812 1194.203125 637.542969 C 1195.140625 637.828125 1196.0625 638.160156 1196.96875 638.535156 C 1197.875 638.910156 1198.761719 639.328125 1199.625 639.789062 C 1200.488281 640.25 1201.328125 640.753906 1202.144531 641.300781 C 1202.960938 641.84375 1203.746094 642.425781 1204.503906 643.050781 C 1205.261719 643.671875 1205.988281 644.328125 1206.679688 645.023438 C 1207.375 645.714844 1208.03125 646.441406 1208.652344 647.199219 C 1209.277344 647.957031 1209.859375 648.742188 1210.402344 649.558594 C 1210.949219 650.371094 1211.453125 651.210938 1211.914062 652.078125 C 1212.375 652.941406 1212.796875 653.828125 1213.171875 654.730469 C 1213.546875 655.636719 1213.875 656.558594 1214.160156 657.496094 C 1214.445312 658.4375 1214.683594 659.386719 1214.875 660.347656 C 1215.066406 661.308594 1215.207031 662.277344 1215.304688 663.253906 C 1215.402344 664.226562 1215.449219 665.207031 1215.449219 666.1875 Z M 1215.449219 666.1875 " fill-opacity="1" fill-rule="nonzero"/><path fill="#552d2d" d="M 744.277344 586.257812 C 732.167969 591.300781 719.335938 596.929688 712.175781 607.917969 C 709.675781 611.75 707.972656 616.550781 709.433594 620.890625 C 710.960938 625.425781 715.664062 628.296875 720.398438 629.011719 C 725.128906 629.726562 729.933594 628.675781 734.585938 627.554688 C 744.75 625.101562 754.851562 622.285156 764.542969 618.359375 C 770.132812 616.09375 775.71875 613.359375 779.808594 608.921875 C 783.894531 604.484375 786.226562 598 784.332031 592.273438 C 782.253906 585.996094 775.628906 582.125 769.066406 581.324219 C 762.503906 580.523438 755.65625 581.515625 744.277344 586.257812 Z M 744.277344 586.257812 " fill-opacity="1" fill-rule="nonzero"/><path fill="#552d2d" d="M 1104.292969 586.261719 C 1116.300781 591.539062 1129.019531 597.414062 1135.96875 608.539062 C 1138.390625 612.417969 1140.003906 617.253906 1138.457031 621.5625 C 1136.84375 626.066406 1132.085938 628.847656 1127.339844 629.472656 C 1122.59375 630.09375 1117.8125 628.949219 1113.183594 627.738281 C 1103.066406 625.089844 1093.019531 622.078125 1083.410156 617.964844 C 1077.863281 615.589844 1072.328125 612.75 1068.328125 608.234375 C 1064.328125 603.71875 1062.121094 597.191406 1064.128906 591.503906 C 1066.324219 585.269531 1073.027344 581.523438 1079.601562 580.851562 C 1086.179688 580.175781 1093.003906 581.300781 1104.292969 586.261719 Z M 1104.292969 586.261719 " fill-opacity="1" fill-rule="nonzero"/><path fill="#f09a61" d="M 1100.839844 329.546875 C 1107.558594 306.542969 1120.347656 284.929688 1139.125 270.039062 C 1157.902344 255.148438 1182.9375 247.542969 1206.46875 252.097656 C 1229.996094 256.65625 1251.171875 274.246094 1257.605469 297.332031 C 1264.507812 322.109375 1253.878906 349.488281 1235.460938 367.445312 C 1217.042969 385.402344 1191.996094 395.105469 1166.601562 401.703125 C 1138.117188 395.269531 1113.652344 373.3125 1100.839844 329.546875 Z M 1100.839844 329.546875 " fill-opacity="1" fill-rule="nonzero"/><path fill="#f8c7d0" d="M 1202.359375 290.511719 C 1176.300781 293.410156 1152.144531 309.945312 1140.011719 333.183594 C 1136.296875 340.304688 1133.738281 349.183594 1137.765625 356.128906 C 1141.542969 362.644531 1149.769531 365.046875 1157.28125 365.574219 C 1178.300781 367.046875 1199.789062 357.660156 1212.988281 341.242188 C 1219.753906 332.832031 1224.492188 322.105469 1223.0625 311.410156 C 1221.636719 300.710938 1212.550781 289.378906 1202.359375 290.511719 Z M 1202.359375 290.511719 " fill-opacity="1" fill-rule="nonzero"/><path fill="#f09a61" d="M 744.449219 329.546875 C 737.730469 306.542969 724.941406 284.929688 706.164062 270.039062 C 687.386719 255.144531 662.351562 247.542969 638.820312 252.097656 C 615.292969 256.65625 594.117188 274.246094 587.683594 297.332031 C 580.78125 322.109375 591.410156 349.488281 609.828125 367.445312 C 628.246094 385.402344 653.292969 395.105469 678.6875 401.703125 C 707.171875 395.269531 731.640625 373.3125 744.449219 329.546875 Z M 744.449219 329.546875 " fill-opacity="1" fill-rule="nonzero"/><path fill="#f8c7d0" d="M 642.929688 290.511719 C 668.988281 293.410156 693.144531 309.945312 705.277344 333.183594 C 708.992188 340.304688 711.550781 349.183594 707.523438 356.128906 C 703.746094 362.644531 695.519531 365.046875 688.007812 365.574219 C 666.988281 367.046875 645.5 357.660156 632.300781 341.242188 C 625.535156 332.832031 620.796875 322.105469 622.226562 311.410156 C 623.652344 300.710938 632.738281 289.378906 642.929688 290.511719 Z M 642.929688 290.511719 " fill-opacity="1" fill-rule="nonzero"/><path fill="#ffbd91" d="M 845.503906 375.839844 C 842.863281 375.839844 840.398438 374.167969 839.519531 371.523438 C 834.832031 357.484375 827.886719 344.742188 818.867188 333.65625 C 816.667969 330.953125 817.078125 326.980469 819.78125 324.777344 C 822.480469 322.578125 826.460938 322.988281 828.660156 325.695312 C 838.644531 337.964844 846.324219 352.039062 851.492188 367.527344 C 852.597656 370.835938 850.808594 374.410156 847.503906 375.511719 C 846.839844 375.730469 846.167969 375.839844 845.503906 375.839844 Z M 845.503906 375.839844 " fill-opacity="1" fill-rule="nonzero"/><path fill="#ffbd91" d="M 922.644531 357.292969 C 920.054688 357.292969 917.625 355.6875 916.703125 353.109375 L 904.019531 317.753906 C 902.84375 314.476562 904.550781 310.859375 907.832031 309.683594 C 911.097656 308.496094 914.726562 310.207031 915.902344 313.496094 L 928.585938 348.851562 C 929.761719 352.128906 928.054688 355.742188 924.773438 356.921875 C 924.070312 357.171875 923.351562 357.292969 922.644531 357.292969 Z M 922.644531 357.292969 " fill-opacity="1" fill-rule="nonzero"/><path fill="#ffbd91" d="M 883.390625 401.464844 C 880.078125 401.464844 877.300781 398.882812 877.097656 395.535156 L 875.140625 362.835938 C 874.933594 359.355469 877.582031 356.367188 881.0625 356.160156 C 884.542969 355.894531 887.53125 358.597656 887.738281 362.078125 L 889.695312 394.777344 C 889.90625 398.257812 887.257812 401.246094 883.777344 401.453125 C 883.648438 401.464844 883.519531 401.464844 883.390625 401.464844 Z M 883.390625 401.464844 " fill-opacity="1" fill-rule="nonzero"/><path fill="#ffbd91" d="M 975.90625 404.296875 C 972.492188 404.296875 969.6875 401.574219 969.601562 398.140625 C 969.289062 385.269531 966.25 373.304688 960.574219 362.582031 C 958.941406 359.5 960.117188 355.679688 963.199219 354.050781 C 966.277344 352.425781 970.101562 353.601562 971.730469 356.675781 C 978.328125 369.148438 981.859375 382.996094 982.21875 397.832031 C 982.304688 401.320312 979.550781 404.210938 976.066406 404.296875 C 976.011719 404.296875 975.960938 404.296875 975.90625 404.296875 Z M 975.90625 404.296875 " fill-opacity="1" fill-rule="nonzero"/><path fill="#ffbd91" d="M 1004.714844 359.046875 C 1004.640625 359.046875 1004.566406 359.046875 1004.492188 359.042969 C 1001.007812 358.917969 998.285156 356 998.402344 352.515625 C 998.855469 339.648438 996.53125 327.523438 991.5 316.480469 C 990.054688 313.308594 991.457031 309.566406 994.628906 308.121094 C 997.789062 306.671875 1001.542969 308.074219 1002.988281 311.25 C 1008.835938 324.085938 1011.539062 338.117188 1011.019531 352.953125 C 1010.902344 356.363281 1008.097656 359.046875 1004.714844 359.046875 Z M 1004.714844 359.046875 " fill-opacity="1" fill-rule="nonzero"/><path fill="#ffbd91" d="M 925.710938 458.65625 C 925.421875 458.65625 925.132812 458.636719 924.84375 458.597656 C 921.390625 458.121094 918.972656 454.9375 919.449219 451.488281 C 921.464844 436.757812 920.515625 422.976562 916.617188 410.519531 C 915.582031 407.195312 917.433594 403.652344 920.761719 402.613281 C 924.082031 401.585938 927.625 403.425781 928.667969 406.753906 C 933.121094 420.996094 934.226562 436.625 931.953125 453.203125 C 931.519531 456.363281 928.8125 458.65625 925.710938 458.65625 Z M 925.710938 458.65625 " fill-opacity="1" fill-rule="nonzero"/><path fill="#fffcf6" d="M 1228.789062 808.226562 C 1227.507812 840.90625 1237.679688 873.921875 1257.132812 900.214844 C 1262.175781 907.035156 1261.753906 918.878906 1270.074219 920.535156 C 1279.148438 922.335938 1294.824219 912.546875 1302.78125 907.832031 C 1322.40625 896.199219 1342.125 882.699219 1353.136719 862.714844 C 1364.144531 842.730469 1363.578125 814.648438 1346.125 799.953125 C 1330.472656 786.777344 1307.234375 788.238281 1287.515625 793.703125 C 1267.800781 799.171875 1248.394531 807.976562 1228.789062 808.226562 Z M 1228.789062 808.226562 " fill-opacity="1" fill-rule="nonzero"/><path fill="#ffbd91" d="M 1271.027344 798.089844 C 1276.347656 835.015625 1293.460938 870.152344 1319.257812 897.109375 C 1340.417969 882.59375 1355.285156 859.214844 1359.457031 833.894531 C 1360.703125 826.320312 1360.976562 818.265625 1357.871094 811.246094 C 1354.414062 803.4375 1347.109375 797.839844 1339.15625 794.730469 C 1331.207031 791.625 1322.582031 790.730469 1314.066406 790.140625 C 1301.800781 789.285156 1289.027344 789.085938 1271.027344 798.089844 Z M 1271.027344 798.089844 " fill-opacity="1" fill-rule="nonzero"/><path fill="#552d2d" d="M 1264.753906 927.722656 C 1261.644531 927.722656 1258.9375 925.425781 1258.507812 922.261719 C 1258.039062 918.808594 1260.460938 915.625 1263.914062 915.160156 C 1292.707031 911.265625 1325.835938 890.519531 1342.6875 865.832031 C 1354.03125 849.214844 1360.382812 825.421875 1349.007812 809.726562 C 1339.152344 796.125 1313.472656 786.433594 1273.554688 803.871094 C 1270.363281 805.261719 1266.636719 803.804688 1265.242188 800.613281 C 1263.847656 797.417969 1265.308594 793.699219 1268.5 792.304688 C 1315.265625 771.894531 1346.027344 784.097656 1359.226562 802.320312 C 1374.207031 822.980469 1366.949219 852.679688 1353.113281 872.949219 C 1334.125 900.765625 1298.144531 923.265625 1265.609375 927.667969 C 1265.324219 927.707031 1265.035156 927.722656 1264.753906 927.722656 Z M 1264.753906 927.722656 " fill-opacity="1" fill-rule="nonzero"/><g clip-path="url(#b51537bd2b)"><path fill="#552d2d" d="M 924.824219 1253.207031 C 885.6875 1253.207031 846.566406 1249.957031 807.730469 1243.457031 C 743.699219 1232.742188 691.929688 1214.777344 649.457031 1188.542969 C 597.914062 1156.707031 561.605469 1112.484375 547.210938 1064.023438 C 521.753906 978.304688 564.121094 890.414062 603.878906 823.417969 C 605.652344 820.425781 609.527344 819.429688 612.527344 821.214844 C 615.523438 822.992188 616.511719 826.859375 614.730469 829.859375 C 557.628906 926.09375 540.535156 997.203125 559.3125 1060.433594 C 572.820312 1105.914062 607.191406 1147.601562 656.089844 1177.808594 C 697.144531 1203.164062 747.425781 1220.566406 809.8125 1231.011719 C 884.382812 1243.492188 960.066406 1243.777344 1034.734375 1231.847656 C 1112.484375 1219.429688 1169.34375 1195.445312 1208.5625 1158.515625 C 1251.605469 1117.996094 1274.976562 1056.933594 1271.074219 995.1875 C 1267.566406 939.757812 1248.566406 878.703125 1221.484375 835.855469 C 1219.621094 832.910156 1220.503906 829.011719 1223.449219 827.152344 C 1226.386719 825.285156 1230.292969 826.164062 1232.15625 829.113281 C 1260.300781 873.644531 1280.039062 936.972656 1283.671875 994.390625 C 1287.808594 1059.84375 1262.964844 1124.632812 1217.21875 1167.703125 C 1176.09375 1206.425781 1117.054688 1231.480469 1036.726562 1244.308594 C 999.585938 1250.238281 962.199219 1253.207031 924.824219 1253.207031 Z M 924.824219 1253.207031 " fill-opacity="1" fill-rule="nonzero"/></g><path fill="#ffbd91" d="M 1032.558594 1069.347656 C 1031.449219 1095.96875 1045.304688 1124.128906 1069.800781 1134.617188 C 1094.109375 1145.03125 1123.097656 1136.285156 1144.027344 1120.117188 C 1155.285156 1111.421875 1165.0625 1100.496094 1170.910156 1087.527344 C 1176.753906 1074.558594 1178.417969 1059.4375 1173.910156 1045.949219 C 1168.417969 1029.519531 1154.621094 1014.660156 1139.910156 1005.515625 C 1126.691406 997.300781 1112.019531 992.234375 1096.453125 992.234375 C 1048.960938 992.234375 1033.667969 1042.730469 1032.558594 1069.347656 Z M 1032.558594 1069.347656 " fill-opacity="1" fill-rule="nonzero"/><path fill="#552d2d" d="M 1092.554688 1145.492188 C 1084.132812 1145.492188 1075.605469 1143.96875 1067.316406 1140.417969 C 1041.84375 1129.511719 1024.957031 1100.179688 1026.253906 1069.085938 C 1027.644531 1035.660156 1047.492188 985.921875 1096.453125 985.921875 C 1112.304688 985.921875 1128.046875 990.710938 1143.242188 1000.160156 C 1160.644531 1010.972656 1174.34375 1027.34375 1179.894531 1043.949219 C 1184.652344 1058.179688 1183.476562 1075.011719 1176.660156 1090.121094 C 1170.808594 1103.113281 1161.125 1114.886719 1147.886719 1125.113281 C 1133.601562 1136.148438 1113.40625 1145.492188 1092.554688 1145.492188 Z M 1096.453125 998.542969 C 1053.242188 998.542969 1039.890625 1045.03125 1038.863281 1069.613281 C 1037.78125 1095.582031 1051.527344 1119.929688 1072.285156 1128.816406 C 1096.074219 1139.015625 1122.949219 1128.429688 1140.167969 1115.121094 C 1151.75 1106.175781 1160.15625 1096.019531 1165.15625 1084.933594 C 1170.675781 1072.683594 1171.683594 1059.203125 1167.925781 1047.945312 C 1163.347656 1034.25 1151.335938 1020.050781 1136.578125 1010.875 C 1123.410156 1002.695312 1109.914062 998.542969 1096.453125 998.542969 Z M 1096.453125 998.542969 " fill-opacity="1" fill-rule="nonzero"/><path fill="#ffbd91" d="M 818.496094 1060.605469 C 819.605469 1087.226562 805.75 1115.386719 781.253906 1125.875 C 756.945312 1136.285156 727.957031 1127.542969 707.027344 1111.375 C 695.769531 1102.679688 685.992188 1091.75 680.144531 1078.785156 C 674.300781 1065.816406 672.636719 1050.695312 677.144531 1037.203125 C 682.636719 1020.773438 696.433594 1005.917969 711.144531 996.773438 C 724.363281 988.558594 739.035156 983.488281 754.601562 983.488281 C 802.09375 983.488281 817.386719 1033.988281 818.496094 1060.605469 Z M 818.496094 1060.605469 " fill-opacity="1" fill-rule="nonzero"/><path fill="#552d2d" d="M 758.507812 1136.75 C 737.652344 1136.75 717.457031 1127.40625 703.171875 1116.371094 C 689.925781 1106.136719 680.246094 1094.363281 674.394531 1081.375 C 667.582031 1066.269531 666.402344 1049.4375 671.160156 1035.203125 C 676.707031 1018.601562 690.410156 1002.230469 707.816406 991.414062 C 723.011719 981.96875 738.753906 977.179688 754.601562 977.179688 C 803.5625 977.179688 823.410156 1026.914062 824.800781 1060.34375 C 826.101562 1091.433594 809.210938 1120.765625 783.738281 1131.679688 C 775.453125 1135.226562 766.925781 1136.75 758.507812 1136.75 Z M 754.601562 989.800781 C 741.144531 989.800781 727.644531 993.949219 714.476562 1002.132812 C 699.71875 1011.304688 687.707031 1025.507812 683.128906 1039.203125 C 679.371094 1050.460938 680.378906 1063.941406 685.902344 1076.191406 C 690.894531 1087.269531 699.300781 1097.429688 710.886719 1106.382812 C 728.101562 1119.683594 754.972656 1130.273438 778.769531 1120.074219 C 799.53125 1111.183594 813.273438 1086.839844 812.191406 1060.867188 C 811.167969 1036.289062 797.8125 989.800781 754.601562 989.800781 Z M 754.601562 989.800781 " fill-opacity="1" fill-rule="nonzero"/><path fill="#552d2d" d="M 921.238281 610.234375 C 905.515625 610.234375 890.164062 597.171875 877.097656 584.191406 C 874.628906 581.730469 874.613281 577.738281 877.070312 575.265625 C 879.535156 572.800781 883.527344 572.785156 886 575.234375 C 897.042969 586.210938 911.1875 598.652344 922.714844 597.542969 C 926.992188 597.121094 931.554688 594.671875 935.5625 590.640625 C 939.605469 586.578125 942.835938 581.335938 945.960938 576.265625 C 947.789062 573.300781 951.6875 572.378906 954.644531 574.199219 C 957.613281 576.03125 958.535156 579.917969 956.707031 582.882812 C 953.367188 588.304688 949.582031 594.441406 944.515625 599.539062 C 940.222656 603.859375 933.167969 609.199219 923.945312 610.101562 C 923.042969 610.191406 922.136719 610.234375 921.238281 610.234375 Z M 921.238281 610.234375 " fill-opacity="1" fill-rule="nonzero"/><path fill="#552d2d" d="M 918.699219 650.027344 C 918.597656 650.027344 918.5 650.027344 918.398438 650.023438 C 914.914062 649.859375 912.222656 646.902344 912.386719 643.421875 C 912.632812 638.277344 912.648438 633.105469 912.671875 627.457031 C 912.695312 620.582031 912.726562 612.789062 913.160156 603.527344 C 913.328125 600.042969 916.378906 597.433594 919.761719 597.515625 C 923.246094 597.679688 925.933594 600.636719 925.773438 604.117188 C 925.347656 613.109375 925.320312 620.757812 925.292969 627.507812 C 925.269531 633.351562 925.246094 638.695312 924.996094 644.015625 C 924.835938 647.394531 922.046875 650.027344 918.699219 650.027344 Z M 918.699219 650.027344 " fill-opacity="1" fill-rule="nonzero"/><path fill="#552d2d" d="M 1207.039062 844.777344 C 1204.34375 844.777344 1201.847656 843.035156 1201.011719 840.324219 C 1199.980469 836.992188 1201.847656 833.460938 1205.179688 832.433594 C 1246 819.832031 1291.410156 782.402344 1300.835938 727.195312 C 1305.847656 697.855469 1300.574219 664.164062 1285.160156 627.054688 C 1278.035156 609.902344 1269.386719 593.144531 1261.023438 576.9375 C 1253.816406 562.972656 1246.363281 548.535156 1239.824219 533.746094 C 1232.570312 517.355469 1226.257812 500.144531 1220.15625 483.5 C 1209.578125 454.648438 1198.636719 424.816406 1182.710938 399.363281 C 1180.863281 396.40625 1181.757812 392.515625 1184.714844 390.667969 C 1187.667969 388.820312 1191.566406 389.722656 1193.410156 392.667969 C 1210.035156 419.238281 1221.207031 449.699219 1232.007812 479.15625 C 1238.042969 495.609375 1244.28125 512.625 1251.367188 528.640625 C 1257.757812 543.082031 1265.121094 557.351562 1272.242188 571.152344 C 1280.722656 587.582031 1289.492188 604.578125 1296.816406 622.210938 C 1313.160156 661.558594 1318.699219 697.59375 1313.28125 729.320312 C 1304.335938 781.695312 1262.390625 827.980469 1208.902344 844.492188 C 1208.285156 844.683594 1207.65625 844.777344 1207.039062 844.777344 Z M 1207.039062 844.777344 " fill-opacity="1" fill-rule="nonzero"/><path fill="#552d2d" d="M 1102.980469 325.609375 C 1102.007812 325.609375 1101.023438 325.390625 1100.101562 324.914062 C 1076.742188 312.917969 1050.925781 304.414062 1023.371094 299.644531 C 962.183594 289.046875 883.105469 289.054688 821.910156 299.644531 C 794.496094 304.394531 768.789062 312.839844 745.507812 324.75 C 742.402344 326.339844 738.605469 325.109375 737.015625 322.007812 C 735.425781 318.902344 736.652344 315.101562 739.757812 313.515625 C 764.171875 301.023438 791.089844 292.171875 819.761719 287.210938 C 882.265625 276.390625 963.035156 276.390625 1025.527344 287.210938 C 1054.339844 292.199219 1081.371094 301.109375 1105.871094 313.6875 C 1108.96875 315.28125 1110.191406 319.082031 1108.601562 322.183594 C 1107.480469 324.359375 1105.269531 325.609375 1102.980469 325.609375 Z M 1102.980469 325.609375 " fill-opacity="1" fill-rule="nonzero"/><path fill="#552d2d" d="M 638.25 844.777344 C 637.636719 844.777344 637.007812 844.683594 636.386719 844.492188 C 582.902344 827.984375 540.953125 781.699219 532.007812 729.320312 C 526.59375 697.59375 532.128906 661.558594 548.476562 622.210938 C 555.800781 604.574219 564.574219 587.574219 573.054688 571.136719 C 580.175781 557.339844 587.535156 543.078125 593.921875 528.640625 C 601.007812 512.628906 607.242188 495.617188 613.277344 479.167969 C 624.085938 449.695312 635.257812 419.21875 651.902344 392.632812 C 653.75 389.683594 657.640625 388.789062 660.601562 390.632812 C 663.550781 392.480469 664.449219 396.375 662.601562 399.332031 C 646.660156 424.796875 635.710938 454.648438 625.125 483.511719 C 619.023438 500.152344 612.71875 517.355469 605.464844 533.746094 C 598.925781 548.527344 591.476562 562.964844 584.273438 576.921875 C 575.910156 593.132812 567.257812 609.894531 560.128906 627.054688 C 544.714844 664.164062 539.441406 697.855469 544.449219 727.195312 C 553.882812 782.402344 599.289062 819.832031 640.109375 832.433594 C 643.441406 833.460938 645.308594 836.992188 644.28125 840.324219 C 643.441406 843.035156 640.945312 844.777344 638.25 844.777344 Z M 638.25 844.777344 " fill-opacity="1" fill-rule="nonzero"/><path fill="#552d2d" d="M 1166.808594 406.671875 C 1163.882812 406.671875 1161.257812 404.628906 1160.632812 401.652344 C 1159.921875 398.238281 1162.109375 394.894531 1165.523438 394.183594 C 1193.785156 388.285156 1215.832031 377.769531 1231.054688 362.929688 C 1249.339844 345.101562 1257.375 320.019531 1251.527344 299.027344 C 1245.929688 278.9375 1227.339844 262.566406 1205.269531 258.292969 C 1184.523438 254.277344 1161.277344 260.519531 1143.046875 274.980469 C 1126.523438 288.085938 1113.683594 308.09375 1106.894531 331.316406 C 1105.914062 334.660156 1102.410156 336.585938 1099.066406 335.605469 C 1095.722656 334.625 1093.800781 331.121094 1094.777344 327.773438 C 1102.292969 302.066406 1116.648438 279.808594 1135.199219 265.089844 C 1156.285156 248.367188 1183.375 241.199219 1207.667969 245.902344 C 1234.324219 251.066406 1256.835938 271.054688 1263.6875 295.636719 C 1270.753906 321.007812 1261.402344 350.96875 1239.867188 371.960938 C 1222.898438 388.507812 1198.75 400.136719 1168.105469 406.539062 C 1167.667969 406.628906 1167.234375 406.671875 1166.808594 406.671875 Z M 1166.808594 406.671875 " fill-opacity="1" fill-rule="nonzero"/><path fill="#552d2d" d="M 1133.941406 351.527344 C 1133.320312 351.527344 1132.691406 351.433594 1132.070312 351.242188 C 1128.738281 350.210938 1126.878906 346.675781 1127.910156 343.347656 C 1138.207031 310.125 1170.90625 285.039062 1205.667969 283.707031 C 1209.335938 283.472656 1212.082031 286.289062 1212.214844 289.765625 C 1212.351562 293.25 1209.636719 296.183594 1206.152344 296.3125 C 1176.5625 297.453125 1148.730469 318.804688 1139.964844 347.082031 C 1139.128906 349.789062 1136.632812 351.527344 1133.941406 351.527344 Z M 1133.941406 351.527344 " fill-opacity="1" fill-rule="nonzero"/><path fill="#552d2d" d="M 678.480469 406.671875 C 678.050781 406.671875 677.621094 406.628906 677.183594 406.539062 C 646.535156 400.136719 622.390625 388.507812 605.417969 371.964844 C 583.882812 350.96875 574.539062 321.007812 581.605469 295.636719 C 588.453125 271.054688 610.964844 251.066406 637.625 245.902344 C 661.902344 241.207031 689 248.371094 710.089844 265.089844 C 728.640625 279.808594 742.996094 302.070312 750.507812 327.777344 C 751.484375 331.121094 749.566406 334.625 746.21875 335.605469 C 742.878906 336.582031 739.367188 334.65625 738.390625 331.316406 C 731.605469 308.09375 718.769531 288.085938 702.242188 274.980469 C 684.007812 260.519531 660.765625 254.28125 640.019531 258.292969 C 617.949219 262.566406 599.359375 278.9375 593.765625 299.027344 C 587.914062 320.019531 595.949219 345.101562 614.234375 362.929688 C 629.457031 377.769531 651.503906 388.285156 679.765625 394.183594 C 683.175781 394.894531 685.363281 398.238281 684.652344 401.652344 C 684.03125 404.628906 681.40625 406.671875 678.480469 406.671875 Z M 678.480469 406.671875 " fill-opacity="1" fill-rule="nonzero"/><path fill="#552d2d" d="M 711.351562 351.527344 C 708.65625 351.527344 706.164062 349.789062 705.324219 347.082031 C 696.558594 318.804688 668.722656 297.453125 639.136719 296.3125 C 635.652344 296.183594 632.9375 293.25 633.074219 289.765625 C 633.207031 286.289062 636.015625 283.480469 639.621094 283.707031 C 674.382812 285.039062 707.082031 310.125 717.378906 343.347656 C 718.414062 346.675781 716.550781 350.210938 713.21875 351.242188 C 712.597656 351.433594 711.96875 351.527344 711.351562 351.527344 Z M 711.351562 351.527344 " fill-opacity="1" fill-rule="nonzero"/><path fill="#f7b4c6" d="M 1415.679688 961.402344 C 1415.304688 965.699219 1413.265625 969.664062 1410.238281 972.019531 C 1391.035156 987.042969 1368.140625 994.609375 1348.851562 992.34375 L 1348.335938 992.28125 C 1326.695312 989.550781 1309.003906 979.441406 1295.734375 962.3125 C 1293.613281 959.570312 1292.625 955.519531 1293.125 951.457031 C 1300.300781 892.238281 1305.675781 846.105469 1311.929688 792.722656 L 1315.785156 759.507812 C 1315.96875 757.957031 1316.277344 756.449219 1316.648438 754.945312 C 1316.714844 754.761719 1316.761719 754.550781 1316.804688 754.367188 C 1316.738281 754.574219 1316.691406 754.789062 1316.664062 755.003906 C 1316.644531 755.1875 1316.644531 755.351562 1316.644531 755.542969 C 1316.664062 755.761719 1316.707031 755.957031 1316.765625 756.179688 C 1317.496094 758.707031 1318.476562 760.9375 1319.75 762.929688 C 1322.332031 766.953125 1326.066406 769.914062 1331.210938 772.007812 C 1337.457031 774.589844 1344.667969 773.78125 1351.289062 769.8125 C 1354.980469 776.484375 1361.042969 780.804688 1367.675781 781.582031 C 1368.710938 781.703125 1369.753906 781.746094 1370.808594 781.679688 C 1377.464844 781.320312 1384.566406 777.164062 1390.691406 770.152344 C 1394.941406 778.03125 1402.769531 782.558594 1410.679688 781.371094 C 1416.410156 780.523438 1423.683594 775.65625 1428.570312 769.175781 C 1430.871094 766.136719 1432.644531 762.738281 1433.46875 759.253906 C 1433.519531 759.015625 1433.542969 758.800781 1433.546875 758.585938 C 1433.582031 759.765625 1433.601562 761.65625 1433.460938 763.214844 Z M 1415.679688 961.402344 " fill-opacity="1" fill-rule="nonzero"/><path fill="#552d2d" d="M 1355.671875 999.042969 C 1353.109375 999.042969 1350.585938 998.898438 1348.113281 998.609375 C 1324.203125 995.597656 1305.09375 984.707031 1290.746094 966.175781 C 1287.574219 962.074219 1286.15625 956.429688 1286.859375 950.6875 C 1293.441406 896.382812 1298.507812 853.078125 1304.125 805.085938 L 1309.515625 758.78125 C 1309.730469 756.957031 1310.085938 755.191406 1310.519531 753.4375 C 1310.539062 753.359375 1310.558594 753.28125 1310.582031 753.207031 C 1310.644531 752.945312 1310.714844 752.683594 1310.800781 752.425781 C 1311.84375 749.207031 1315.253906 747.386719 1318.496094 748.289062 C 1321.554688 749.136719 1323.472656 752.105469 1323.066406 755.191406 C 1323.582031 756.808594 1324.246094 758.246094 1325.070312 759.539062 C 1326.941406 762.445312 1329.652344 764.558594 1333.589844 766.164062 C 1337.992188 767.976562 1343.121094 767.355469 1348.042969 764.398438 C 1349.507812 763.523438 1351.273438 763.269531 1352.929688 763.714844 C 1354.582031 764.160156 1355.984375 765.257812 1356.8125 766.753906 C 1359.480469 771.578125 1363.816406 774.773438 1368.410156 775.3125 C 1369.082031 775.390625 1369.75 775.421875 1370.417969 775.382812 C 1375.320312 775.117188 1380.960938 771.699219 1385.941406 766.003906 C 1387.300781 764.445312 1389.359375 763.65625 1391.394531 763.882812 C 1393.453125 764.113281 1395.265625 765.335938 1396.25 767.15625 C 1399.28125 772.773438 1404.601562 775.890625 1409.742188 775.132812 C 1413.257812 774.613281 1419.277344 771.019531 1423.53125 765.378906 C 1425.441406 762.851562 1426.75 760.234375 1427.328125 757.804688 C 1427.375 754.371094 1430.113281 751.953125 1433.546875 751.929688 C 1437.195312 752.078125 1439.757812 754.976562 1439.855469 758.402344 C 1439.894531 759.769531 1439.910156 761.96875 1439.75 763.773438 L 1421.964844 961.960938 C 1421.441406 967.960938 1418.507812 973.582031 1414.121094 977 C 1396.097656 991.09375 1374.78125 999.042969 1355.671875 999.042969 Z M 1320.558594 773.113281 L 1316.664062 806.550781 C 1311.042969 854.5625 1305.972656 897.882812 1299.390625 952.214844 C 1299.101562 954.582031 1299.625 957.027344 1300.726562 958.449219 C 1312.949219 974.234375 1329.234375 983.511719 1349.125 986.023438 C 1367.226562 988.148438 1388.464844 981.039062 1406.351562 967.050781 C 1408.011719 965.757812 1409.171875 963.386719 1409.390625 960.855469 C 1409.390625 960.847656 1409.390625 960.839844 1409.390625 960.835938 L 1425.515625 781.148438 C 1421.035156 784.605469 1416.113281 786.949219 1411.605469 787.613281 C 1403.613281 788.792969 1395.710938 785.8125 1389.921875 779.757812 C 1383.96875 784.769531 1377.476562 787.640625 1371.144531 787.980469 C 1369.757812 788.066406 1368.339844 788.015625 1366.929688 787.847656 C 1360.15625 787.054688 1353.8125 783.421875 1349.160156 777.835938 C 1342.332031 780.417969 1335.148438 780.460938 1328.800781 777.839844 C 1325.664062 776.5625 1322.925781 774.996094 1320.558594 773.113281 Z M 1320.558594 773.113281 " fill-opacity="1" fill-rule="nonzero"/><path fill="#11080b" d="M 1316.648438 754.945312 C 1316.648438 754.972656 1316.648438 754.972656 1316.664062 755.003906 C 1316.691406 754.789062 1316.738281 754.574219 1316.804688 754.367188 C 1316.761719 754.550781 1316.714844 754.761719 1316.648438 754.945312 Z M 1433.519531 757.902344 C 1433.503906 757.847656 1433.488281 757.789062 1433.46875 757.761719 C 1433.496094 757.902344 1433.527344 758.011719 1433.53125 758.148438 C 1433.519531 758.066406 1433.53125 757.984375 1433.519531 757.902344 Z M 1433.519531 757.902344 " fill-opacity="1" fill-rule="nonzero"/><path fill="#8b898a" d="M 1409.339844 672.925781 C 1408.511719 674.046875 1407.355469 675.539062 1406.558594 676.558594 C 1406.453125 676.707031 1406.351562 676.832031 1406.25 676.957031 C 1406.144531 677.105469 1406.042969 677.230469 1405.964844 677.328125 C 1399.511719 685.792969 1391.808594 690.421875 1384.445312 690.128906 C 1383.835938 690.109375 1383.25 690.070312 1382.671875 690 C 1374.875 689.085938 1367.664062 684.140625 1363.046875 676.628906 C 1362.972656 676.511719 1362.882812 676.363281 1362.75 676.160156 C 1362.132812 675.300781 1360.984375 673.726562 1360.183594 672.546875 C 1360.574219 671.835938 1360.984375 671.148438 1361.371094 670.4375 C 1366.246094 661.851562 1374.34375 647.996094 1380.980469 636.695312 C 1385.214844 629.480469 1395.984375 630.699219 1398.519531 638.671875 C 1402.058594 649.789062 1406.199219 662.859375 1408.738281 671.007812 C 1408.769531 671.09375 1408.800781 671.207031 1408.835938 671.292969 C 1409.011719 671.828125 1409.164062 672.386719 1409.339844 672.925781 Z M 1409.339844 672.925781 " fill-opacity="1" fill-rule="nonzero"/><path fill="#552d2d" d="M 1385.125 696.453125 C 1384.816406 696.453125 1384.503906 696.445312 1384.191406 696.433594 C 1383.449219 696.410156 1382.671875 696.355469 1381.902344 696.261719 C 1372.191406 695.125 1363.34375 689.171875 1357.667969 679.933594 C 1356.652344 678.496094 1355.675781 677.140625 1354.964844 676.089844 C 1353.636719 674.140625 1353.515625 671.609375 1354.640625 669.539062 L 1355.839844 667.40625 C 1360.773438 658.714844 1368.882812 644.832031 1375.535156 633.5 C 1378.773438 627.992188 1384.707031 624.996094 1391.082031 625.71875 C 1397.4375 626.429688 1402.59375 630.660156 1404.535156 636.761719 C 1408.078125 647.886719 1412.222656 660.976562 1414.761719 669.132812 L 1415.332031 670.941406 C 1415.980469 672.890625 1415.636719 675.035156 1414.414062 676.683594 C 1413.550781 677.84375 1412.355469 679.382812 1411.535156 680.4375 C 1411.5 680.484375 1411.15625 680.929688 1411.117188 680.972656 L 1410.964844 681.179688 C 1403.4375 691.054688 1394.292969 696.453125 1385.125 696.453125 Z M 1367.652344 672.167969 C 1367.789062 672.359375 1368.023438 672.691406 1368.074219 672.773438 C 1368.09375 672.800781 1368.40625 673.296875 1368.425781 673.328125 C 1372.0625 679.25 1377.523438 683.042969 1383.40625 683.730469 C 1383.828125 683.785156 1384.222656 683.808594 1384.636719 683.820312 C 1389.851562 684.042969 1395.789062 680.269531 1400.945312 673.503906 C 1400.996094 673.441406 1401.332031 673.003906 1401.378906 672.941406 C 1401.691406 672.539062 1402.019531 672.117188 1402.347656 671.691406 C 1399.683594 663.175781 1395.828125 651.019531 1392.503906 640.585938 C 1391.90625 638.703125 1390.324219 638.332031 1389.675781 638.257812 C 1389.007812 638.167969 1387.410156 638.199219 1386.421875 639.890625 C 1380.144531 650.578125 1372.566406 663.550781 1367.652344 672.167969 Z M 1367.652344 672.167969 " fill-opacity="1" fill-rule="nonzero"/><path fill="#fbf9e4" d="M 1433.546875 758.585938 C 1433.542969 758.800781 1433.519531 759.015625 1433.46875 759.253906 C 1432.644531 762.738281 1430.871094 766.136719 1428.570312 769.175781 C 1423.683594 775.65625 1416.410156 780.523438 1410.679688 781.371094 C 1402.769531 782.558594 1394.941406 778.03125 1390.691406 770.152344 C 1384.566406 777.164062 1377.464844 781.320312 1370.808594 781.679688 C 1369.753906 781.746094 1368.710938 781.703125 1367.675781 781.582031 C 1361.042969 780.804688 1354.980469 776.484375 1351.289062 769.8125 C 1344.667969 773.78125 1337.457031 774.585938 1331.210938 772.007812 C 1326.066406 769.914062 1322.332031 766.953125 1319.75 762.929688 C 1318.476562 760.9375 1317.496094 758.707031 1316.765625 756.179688 C 1316.707031 755.957031 1316.664062 755.761719 1316.644531 755.542969 C 1316.644531 755.351562 1316.644531 755.1875 1316.664062 755 C 1316.691406 754.789062 1316.738281 754.574219 1316.804688 754.367188 C 1316.839844 754.261719 1316.847656 754.183594 1316.882812 754.078125 C 1317.578125 751.5 1318.503906 749.003906 1319.714844 746.707031 C 1333.996094 719.710938 1347.15625 695.566406 1360.183594 672.546875 C 1360.984375 673.726562 1362.132812 675.300781 1362.75 676.160156 C 1362.882812 676.363281 1362.972656 676.511719 1363.046875 676.628906 C 1367.664062 684.140625 1374.875 689.085938 1382.671875 690 C 1383.25 690.070312 1383.835938 690.109375 1384.445312 690.128906 C 1391.808594 690.421875 1399.511719 685.792969 1405.964844 677.328125 C 1406.042969 677.230469 1406.144531 677.105469 1406.25 676.957031 C 1406.351562 676.832031 1406.453125 676.707031 1406.558594 676.558594 C 1407.355469 675.539062 1408.511719 674.046875 1409.339844 672.925781 C 1417.1875 698.097656 1424.96875 723.859375 1432.347656 750.414062 C 1433.027344 752.800781 1433.699219 754.871094 1433.519531 757.902344 C 1433.503906 757.847656 1433.488281 757.789062 1433.46875 757.761719 C 1433.496094 757.902344 1433.527344 758.011719 1433.53125 758.148438 C 1433.550781 758.179688 1433.546875 758.230469 1433.542969 758.257812 C 1433.550781 758.367188 1433.558594 758.476562 1433.546875 758.585938 Z M 1433.546875 758.585938 " fill-opacity="1" fill-rule="nonzero"/><path fill="#552d2d" d="M 1369.804688 788.019531 C 1368.851562 788.019531 1367.886719 787.960938 1366.929688 787.847656 C 1360.15625 787.054688 1353.8125 783.421875 1349.160156 777.835938 C 1342.332031 780.417969 1335.148438 780.460938 1328.800781 777.839844 C 1322.460938 775.257812 1317.75 771.492188 1314.4375 766.34375 C 1312.824219 763.8125 1311.605469 761.066406 1310.703125 757.921875 C 1310.515625 757.246094 1310.40625 756.6875 1310.355469 756.070312 C 1310.320312 755.65625 1310.347656 754.695312 1310.390625 754.285156 C 1310.464844 753.652344 1310.601562 753.039062 1310.800781 752.425781 C 1311.648438 749.265625 1312.773438 746.347656 1314.128906 743.765625 C 1328.628906 716.351562 1341.898438 692.046875 1354.695312 669.441406 C 1355.769531 667.542969 1357.75 666.332031 1359.929688 666.246094 C 1362.179688 666.144531 1364.1875 667.199219 1365.410156 669.007812 C 1366.058594 669.964844 1366.949219 671.195312 1367.5625 672.042969 C 1367.632812 672.144531 1368.007812 672.671875 1368.074219 672.773438 C 1368.09375 672.800781 1368.40625 673.296875 1368.425781 673.328125 C 1372.0625 679.25 1377.523438 683.042969 1383.40625 683.730469 C 1383.828125 683.785156 1384.222656 683.808594 1384.636719 683.820312 C 1389.917969 684.042969 1395.789062 680.269531 1400.945312 673.503906 C 1400.996094 673.441406 1401.332031 673.003906 1401.378906 672.941406 C 1402.347656 671.695312 1403.46875 670.25 1404.273438 669.167969 C 1405.6875 667.261719 1408.039062 666.292969 1410.398438 666.703125 C 1412.742188 667.101562 1414.660156 668.78125 1415.367188 671.050781 C 1424.632812 700.765625 1431.960938 725.445312 1438.429688 748.726562 C 1439.222656 751.488281 1439.992188 754.15625 1439.84375 757.84375 C 1439.84375 757.863281 1439.84375 757.878906 1439.84375 757.898438 C 1439.863281 758.179688 1439.878906 758.535156 1439.847656 758.957031 C 1439.828125 759.46875 1439.765625 759.980469 1439.648438 760.539062 C 1438.636719 764.832031 1436.558594 769.078125 1433.601562 772.984375 C 1427.742188 780.757812 1419.101562 786.503906 1411.605469 787.613281 C 1403.613281 788.796875 1395.710938 785.8125 1389.921875 779.757812 C 1383.96875 784.769531 1377.476562 787.644531 1371.144531 787.980469 C 1370.703125 788.007812 1370.253906 788.019531 1369.804688 788.019531 Z M 1351.289062 763.5 C 1351.839844 763.5 1352.390625 763.570312 1352.929688 763.714844 C 1354.582031 764.160156 1355.984375 765.257812 1356.8125 766.753906 C 1359.480469 771.578125 1363.816406 774.773438 1368.410156 775.3125 C 1369.082031 775.390625 1369.75 775.421875 1370.417969 775.382812 C 1375.320312 775.117188 1380.960938 771.699219 1385.941406 766.003906 C 1387.300781 764.445312 1389.359375 763.65625 1391.394531 763.882812 C 1393.453125 764.113281 1395.265625 765.335938 1396.25 767.15625 C 1399.277344 772.777344 1404.601562 775.894531 1409.742188 775.132812 C 1413.257812 774.613281 1419.277344 771.019531 1423.527344 765.375 C 1425.308594 763.023438 1426.570312 760.59375 1427.199219 758.308594 C 1427.171875 757.890625 1427.183594 757.46875 1427.234375 757.058594 C 1427.261719 755.554688 1426.933594 754.417969 1426.417969 752.636719 C 1420.683594 732.011719 1414.414062 710.722656 1406.796875 686.023438 C 1399.90625 693.082031 1392.023438 696.742188 1384.191406 696.433594 C 1383.449219 696.410156 1382.671875 696.355469 1381.902344 696.261719 C 1373.828125 695.3125 1366.351562 691.039062 1360.800781 684.320312 C 1349.566406 704.359375 1337.898438 725.832031 1325.292969 749.660156 C 1324.417969 751.324219 1323.664062 753.253906 1323.066406 755.394531 C 1323.53125 756.695312 1324.214844 758.195312 1325.070312 759.539062 C 1326.941406 762.445312 1329.652344 764.558594 1333.589844 766.164062 C 1337.992188 767.976562 1343.121094 767.355469 1348.042969 764.398438 C 1349.035156 763.804688 1350.15625 763.5 1351.289062 763.5 Z M 1351.289062 763.5 " fill-opacity="1" fill-rule="nonzero"/><path fill="#11080b" d="M 1433.53125 758.148438 C 1433.527344 758.011719 1433.496094 757.902344 1433.46875 757.761719 C 1433.488281 757.789062 1433.503906 757.847656 1433.519531 757.902344 C 1433.53125 757.984375 1433.519531 758.066406 1433.53125 758.148438 Z M 1433.53125 758.148438 " fill-opacity="1" fill-rule="nonzero"/><path fill="#11080b" d="M 1316.804688 754.367188 C 1316.738281 754.574219 1316.691406 754.789062 1316.664062 755.003906 C 1316.648438 754.972656 1316.648438 754.972656 1316.648438 754.945312 C 1316.714844 754.761719 1316.761719 754.550781 1316.804688 754.367188 Z M 1316.804688 754.367188 " fill-opacity="1" fill-rule="nonzero"/><path fill="#552d2d" d="M 1326.453125 992.757812 C 1326.207031 992.757812 1325.957031 992.746094 1325.707031 992.714844 C 1322.246094 992.308594 1319.769531 989.171875 1320.175781 985.710938 C 1322.3125 967.535156 1324.640625 945.414062 1327.167969 921.378906 C 1332.335938 872.21875 1338.195312 816.5 1345.042969 768.910156 C 1345.539062 765.460938 1348.785156 763.085938 1352.191406 763.566406 C 1355.636719 764.0625 1358.03125 767.257812 1357.535156 770.710938 C 1350.726562 818.058594 1344.875 873.652344 1339.722656 922.699219 C 1337.183594 946.792969 1334.855469 968.964844 1332.714844 987.183594 C 1332.335938 990.394531 1329.609375 992.757812 1326.453125 992.757812 Z M 1326.453125 992.757812 " fill-opacity="1" fill-rule="nonzero"/><path fill="#552d2d" d="M 1366.363281 998.203125 C 1366.191406 998.203125 1366.015625 998.195312 1365.835938 998.179688 C 1362.363281 997.894531 1359.78125 994.84375 1360.066406 991.371094 C 1364.9375 932.589844 1371.171875 880.460938 1378.394531 820.097656 C 1380.324219 804.011719 1382.332031 787.222656 1384.425781 769.417969 C 1384.832031 765.957031 1387.992188 763.457031 1391.429688 763.886719 C 1394.890625 764.292969 1397.367188 767.429688 1396.960938 770.890625 C 1394.867188 788.707031 1392.859375 805.5 1390.929688 821.597656 C 1383.722656 881.835938 1377.496094 933.859375 1372.644531 992.414062 C 1372.371094 995.710938 1369.613281 998.203125 1366.363281 998.203125 Z M 1366.363281 998.203125 " fill-opacity="1" fill-rule="nonzero"/></svg>