<svg xmlns="http://www.w3.org/2000/svg" xmlns:xlink="http://www.w3.org/1999/xlink" width="1920" zoomAndPan="magnify" viewBox="0 0 1440 1439.999935" height="1920" preserveAspectRatio="xMidYMid meet" version="1.0"><path fill="#fffcf6" d="M 465.613281 1011.625 C 410.472656 1099.191406 374.910156 1180.78125 398.066406 1258.796875 C 412.144531 1306.214844 448.367188 1346.371094 492.519531 1373.660156 C 536.671875 1400.945312 588.363281 1416.25 640.585938 1424.996094 C 711.609375 1436.890625 784.882812 1437.164062 856.007812 1425.800781 C 917.746094 1415.933594 980.226562 1395.992188 1024.164062 1354.605469 C 1068.222656 1313.101562 1089.035156 1252.871094 1085.363281 1194.753906 C 1081.691406 1136.632812 1059 1062.035156 1023.234375 1014.386719 C 873.371094 990.570312 719.414062 1028.015625 568.816406 1009.40625 C 529.128906 1004.503906 480.496094 987.992188 465.613281 1011.625 Z M 465.613281 1011.625 " fill-opacity="1" fill-rule="nonzero"/><path fill="#f09a61" d="M 1018.609375 1046.292969 C 1063.507812 1032.425781 1104.773438 993.019531 1113.542969 941.632812 C 1119.25 908.191406 1110.976562 873.789062 1098.289062 843.226562 C 1085.597656 812.660156 1068.554688 784.6875 1055.203125 754.492188 C 1035.671875 710.316406 1023.921875 661.195312 997.75 621.691406 C 962.367188 568.292969 904.128906 538.878906 845.300781 528.6875 C 786.472656 518.5 710.867188 518.5 652.039062 528.6875 C 593.210938 538.878906 534.976562 568.292969 499.59375 621.691406 C 473.417969 661.195312 461.667969 710.316406 442.136719 754.492188 C 428.785156 784.6875 411.742188 812.660156 399.054688 843.226562 C 386.367188 873.789062 378.089844 908.191406 383.800781 941.632812 C 392.570312 993.019531 454.453125 1027.792969 504.132812 1046.292969 C 677.363281 1077.9375 835.761719 1102.773438 1018.609375 1046.292969 Z M 1018.609375 1046.292969 " fill-opacity="1" fill-rule="nonzero"/><path fill="#fffcf6" d="M 1098.53125 932.617188 C 1084.0625 903.949219 1046.851562 894.140625 1013.980469 893.621094 C 981.113281 893.105469 947.011719 898.492188 916.183594 887.414062 C 883.308594 875.605469 853.429688 845.21875 824.71875 825.667969 C 744.628906 771.128906 709.960938 785.601562 662.78125 824.691406 C 636.183594 846.734375 613.667969 875.605469 580.792969 887.414062 C 549.964844 898.492188 515.863281 893.105469 482.996094 893.621094 C 450.125 894.140625 412.914062 903.949219 398.445312 932.617188 C 386.148438 956.976562 395.390625 987.605469 414.132812 1007.726562 C 432.871094 1027.851562 463.734375 1042.757812 489.964844 1052.097656 C 573.714844 1081.90625 659.492188 1091.085938 748.488281 1085.378906 C 837.484375 1091.085938 927.695312 1078.566406 1011.441406 1048.757812 C 1037.671875 1039.421875 1064.105469 1027.851562 1082.84375 1007.726562 C 1101.585938 987.605469 1110.828125 956.976562 1098.53125 932.617188 Z M 1098.53125 932.617188 " fill-opacity="1" fill-rule="nonzero"/><path fill="#f8c7d0" d="M 775.980469 797.523438 C 766.679688 789.398438 754.636719 784.476562 742.3125 783.761719 C 729.988281 783.046875 714.25 786.378906 707.175781 797.941406 C 712.03125 805.574219 717.082031 808.90625 723.847656 814.910156 C 730.613281 820.914062 739.5625 825.058594 748.550781 824.070312 C 761.488281 822.648438 770.886719 811.535156 775.980469 797.523438 Z M 775.980469 797.523438 " fill-opacity="1" fill-rule="nonzero"/><path fill="#f8c7d0" d="M 520.464844 882.6875 C 520.464844 883.617188 520.417969 884.546875 520.328125 885.472656 C 520.234375 886.398438 520.097656 887.320312 519.917969 888.230469 C 519.734375 889.144531 519.511719 890.046875 519.238281 890.9375 C 518.96875 891.828125 518.65625 892.703125 518.300781 893.566406 C 517.945312 894.425781 517.546875 895.265625 517.109375 896.085938 C 516.667969 896.90625 516.191406 897.703125 515.675781 898.480469 C 515.15625 899.253906 514.605469 900 514.011719 900.71875 C 513.421875 901.4375 512.800781 902.128906 512.140625 902.785156 C 511.484375 903.445312 510.792969 904.070312 510.074219 904.660156 C 509.355469 905.25 508.609375 905.804688 507.835938 906.320312 C 507.0625 906.839844 506.265625 907.316406 505.445312 907.753906 C 504.621094 908.195312 503.78125 908.59375 502.921875 908.949219 C 502.0625 909.304688 501.1875 909.617188 500.296875 909.886719 C 499.40625 910.160156 498.503906 910.382812 497.59375 910.566406 C 496.679688 910.746094 495.761719 910.882812 494.835938 910.976562 C 493.910156 911.066406 492.980469 911.113281 492.050781 911.113281 C 491.117188 911.113281 490.191406 911.066406 489.265625 910.976562 C 488.339844 910.882812 487.417969 910.746094 486.507812 910.566406 C 485.59375 910.382812 484.691406 910.160156 483.800781 909.886719 C 482.910156 909.617188 482.035156 909.304688 481.175781 908.949219 C 480.316406 908.59375 479.476562 908.195312 478.65625 907.753906 C 477.835938 907.316406 477.039062 906.839844 476.265625 906.320312 C 475.488281 905.804688 474.742188 905.25 474.023438 904.660156 C 473.304688 904.070312 472.617188 903.445312 471.957031 902.785156 C 471.300781 902.128906 470.675781 901.4375 470.085938 900.71875 C 469.496094 900 468.941406 899.253906 468.425781 898.480469 C 467.90625 897.703125 467.429688 896.90625 466.992188 896.085938 C 466.550781 895.265625 466.15625 894.425781 465.800781 893.566406 C 465.441406 892.703125 465.128906 891.828125 464.859375 890.9375 C 464.589844 890.046875 464.363281 889.144531 464.183594 888.230469 C 464 887.320312 463.863281 886.398438 463.773438 885.472656 C 463.683594 884.546875 463.636719 883.617188 463.636719 882.6875 C 463.636719 881.757812 463.683594 880.828125 463.773438 879.902344 C 463.863281 878.972656 464 878.054688 464.183594 877.140625 C 464.363281 876.226562 464.589844 875.328125 464.859375 874.4375 C 465.128906 873.542969 465.441406 872.667969 465.800781 871.808594 C 466.15625 870.949219 466.550781 870.109375 466.992188 869.289062 C 467.429688 868.464844 467.90625 867.667969 468.425781 866.894531 C 468.941406 866.121094 469.496094 865.375 470.085938 864.652344 C 470.675781 863.933594 471.300781 863.246094 471.957031 862.585938 C 472.617188 861.929688 473.304688 861.304688 474.023438 860.714844 C 474.742188 860.125 475.488281 859.570312 476.265625 859.050781 C 477.039062 858.535156 477.835938 858.058594 478.65625 857.617188 C 479.476562 857.179688 480.316406 856.78125 481.175781 856.425781 C 482.035156 856.070312 482.910156 855.757812 483.800781 855.484375 C 484.691406 855.214844 485.59375 854.988281 486.507812 854.808594 C 487.417969 854.625 488.339844 854.488281 489.265625 854.398438 C 490.191406 854.308594 491.117188 854.261719 492.050781 854.261719 C 492.980469 854.261719 493.910156 854.308594 494.835938 854.398438 C 495.761719 854.488281 496.679688 854.625 497.59375 854.808594 C 498.503906 854.988281 499.40625 855.214844 500.296875 855.484375 C 501.1875 855.757812 502.0625 856.070312 502.921875 856.425781 C 503.78125 856.78125 504.621094 857.179688 505.445312 857.617188 C 506.265625 858.058594 507.0625 858.535156 507.835938 859.050781 C 508.609375 859.570312 509.355469 860.125 510.074219 860.714844 C 510.792969 861.304688 511.484375 861.929688 512.140625 862.585938 C 512.800781 863.246094 513.421875 863.933594 514.011719 864.652344 C 514.605469 865.375 515.15625 866.121094 515.675781 866.894531 C 516.191406 867.667969 516.667969 868.464844 517.109375 869.289062 C 517.546875 870.109375 517.945312 870.949219 518.300781 871.808594 C 518.65625 872.667969 518.96875 873.542969 519.238281 874.433594 C 519.511719 875.328125 519.734375 876.226562 519.917969 877.140625 C 520.097656 878.054688 520.234375 878.972656 520.328125 879.902344 C 520.417969 880.828125 520.464844 881.757812 520.464844 882.6875 Z M 520.464844 882.6875 " fill-opacity="1" fill-rule="nonzero"/><path fill="#f8c7d0" d="M 1026.589844 882.6875 C 1026.589844 883.617188 1026.542969 884.546875 1026.453125 885.472656 C 1026.363281 886.398438 1026.226562 887.320312 1026.042969 888.230469 C 1025.863281 889.144531 1025.636719 890.046875 1025.367188 890.9375 C 1025.097656 891.828125 1024.785156 892.703125 1024.425781 893.566406 C 1024.070312 894.425781 1023.671875 895.265625 1023.234375 896.085938 C 1022.796875 896.90625 1022.320312 897.703125 1021.800781 898.480469 C 1021.285156 899.253906 1020.730469 900 1020.140625 900.71875 C 1019.550781 901.4375 1018.925781 902.128906 1018.269531 902.785156 C 1017.609375 903.445312 1016.921875 904.070312 1016.203125 904.660156 C 1015.484375 905.25 1014.734375 905.804688 1013.960938 906.320312 C 1013.1875 906.839844 1012.390625 907.316406 1011.570312 907.753906 C 1010.75 908.195312 1009.910156 908.59375 1009.050781 908.949219 C 1008.191406 909.304688 1007.316406 909.617188 1006.425781 909.886719 C 1005.535156 910.160156 1004.632812 910.382812 1003.71875 910.566406 C 1002.808594 910.746094 1001.886719 910.882812 1000.960938 910.976562 C 1000.035156 911.066406 999.105469 911.113281 998.175781 911.113281 C 997.246094 911.113281 996.316406 911.066406 995.390625 910.976562 C 994.464844 910.882812 993.546875 910.746094 992.632812 910.566406 C 991.71875 910.382812 990.820312 910.160156 989.929688 909.886719 C 989.039062 909.617188 988.164062 909.304688 987.304688 908.949219 C 986.445312 908.59375 985.601562 908.195312 984.78125 907.753906 C 983.960938 907.316406 983.164062 906.839844 982.390625 906.320312 C 981.617188 905.804688 980.871094 905.25 980.152344 904.660156 C 979.433594 904.070312 978.742188 903.445312 978.085938 902.785156 C 977.425781 902.128906 976.804688 901.4375 976.210938 900.71875 C 975.621094 900 975.070312 899.253906 974.550781 898.480469 C 974.035156 897.703125 973.558594 896.90625 973.117188 896.085938 C 972.679688 895.265625 972.28125 894.425781 971.925781 893.566406 C 971.570312 892.703125 971.257812 891.828125 970.988281 890.9375 C 970.714844 890.046875 970.492188 889.144531 970.308594 888.230469 C 970.128906 887.320312 969.992188 886.398438 969.898438 885.472656 C 969.808594 884.546875 969.761719 883.617188 969.761719 882.6875 C 969.761719 881.757812 969.808594 880.828125 969.898438 879.902344 C 969.992188 878.972656 970.128906 878.054688 970.308594 877.140625 C 970.492188 876.226562 970.714844 875.328125 970.988281 874.4375 C 971.257812 873.542969 971.570312 872.667969 971.925781 871.808594 C 972.28125 870.949219 972.679688 870.109375 973.117188 869.289062 C 973.558594 868.464844 974.035156 867.667969 974.550781 866.894531 C 975.070312 866.121094 975.621094 865.375 976.210938 864.652344 C 976.804688 863.933594 977.425781 863.246094 978.085938 862.585938 C 978.742188 861.929688 979.433594 861.304688 980.152344 860.714844 C 980.871094 860.125 981.617188 859.570312 982.390625 859.050781 C 983.164062 858.535156 983.960938 858.058594 984.78125 857.617188 C 985.601562 857.179688 986.445312 856.78125 987.304688 856.425781 C 988.164062 856.070312 989.039062 855.757812 989.929688 855.484375 C 990.820312 855.214844 991.71875 854.988281 992.632812 854.808594 C 993.546875 854.625 994.464844 854.488281 995.390625 854.398438 C 996.316406 854.308594 997.246094 854.261719 998.175781 854.261719 C 999.105469 854.261719 1000.035156 854.308594 1000.960938 854.398438 C 1001.886719 854.488281 1002.808594 854.625 1003.71875 854.808594 C 1004.632812 854.988281 1005.535156 855.214844 1006.425781 855.484375 C 1007.316406 855.757812 1008.191406 856.070312 1009.050781 856.425781 C 1009.910156 856.78125 1010.75 857.179688 1011.570312 857.617188 C 1012.390625 858.058594 1013.1875 858.535156 1013.960938 859.050781 C 1014.734375 859.570312 1015.484375 860.125 1016.203125 860.714844 C 1016.921875 861.304688 1017.609375 861.929688 1018.269531 862.585938 C 1018.925781 863.246094 1019.550781 863.933594 1020.140625 864.652344 C 1020.730469 865.375 1021.285156 866.121094 1021.800781 866.894531 C 1022.320312 867.667969 1022.796875 868.464844 1023.234375 869.289062 C 1023.671875 870.109375 1024.070312 870.949219 1024.425781 871.808594 C 1024.785156 872.667969 1025.097656 873.542969 1025.367188 874.433594 C 1025.636719 875.328125 1025.863281 876.226562 1026.042969 877.140625 C 1026.226562 878.054688 1026.363281 878.972656 1026.453125 879.902344 C 1026.542969 880.828125 1026.589844 881.757812 1026.589844 882.6875 Z M 1026.589844 882.6875 " fill-opacity="1" fill-rule="nonzero"/><path fill="#552d2d" d="M 579.371094 806.78125 C 567.878906 811.570312 555.699219 816.914062 548.902344 827.351562 C 546.53125 830.992188 544.914062 835.550781 546.300781 839.671875 C 547.75 843.976562 552.214844 846.703125 556.707031 847.382812 C 561.195312 848.0625 565.757812 847.0625 570.171875 846 C 579.820312 843.671875 589.410156 840.992188 598.605469 837.265625 C 603.914062 835.113281 609.21875 832.519531 613.097656 828.304688 C 616.976562 824.089844 619.1875 817.933594 617.390625 812.492188 C 615.417969 806.535156 609.128906 802.855469 602.898438 802.097656 C 596.671875 801.335938 590.171875 802.277344 579.371094 806.78125 Z M 579.371094 806.78125 " fill-opacity="1" fill-rule="nonzero"/><path fill="#552d2d" d="M 921.085938 806.785156 C 932.480469 811.796875 944.554688 817.378906 951.148438 827.941406 C 953.449219 831.628906 954.980469 836.21875 953.511719 840.308594 C 951.980469 844.585938 947.464844 847.226562 942.960938 847.820312 C 938.457031 848.414062 933.917969 847.324219 929.523438 846.175781 C 919.921875 843.660156 910.386719 840.796875 901.261719 836.894531 C 895.996094 834.640625 890.746094 831.941406 886.949219 827.652344 C 883.152344 823.363281 881.058594 817.164062 882.960938 811.761719 C 885.046875 805.84375 891.40625 802.285156 897.648438 801.648438 C 903.890625 801.007812 910.371094 802.074219 921.085938 806.785156 Z M 921.085938 806.785156 " fill-opacity="1" fill-rule="nonzero"/><path fill="#ffbd91" d="M 675.453125 606.949219 C 672.945312 606.949219 670.605469 605.363281 669.769531 602.851562 C 665.328125 589.523438 658.734375 577.425781 650.167969 566.894531 C 648.082031 564.328125 648.46875 560.550781 651.039062 558.464844 C 653.601562 556.375 657.375 556.765625 659.464844 559.332031 C 668.945312 570.988281 676.234375 584.355469 681.136719 599.058594 C 682.183594 602.199219 680.488281 605.59375 677.347656 606.640625 C 676.71875 606.851562 676.078125 606.949219 675.453125 606.949219 Z M 675.453125 606.949219 " fill-opacity="1" fill-rule="nonzero"/><path fill="#ffbd91" d="M 748.671875 589.339844 C 746.214844 589.339844 743.910156 587.8125 743.03125 585.367188 L 730.992188 551.789062 C 729.875 548.675781 731.496094 545.242188 734.613281 544.128906 C 737.710938 543.007812 741.15625 544.625 742.273438 547.742188 L 754.3125 581.320312 C 755.429688 584.4375 753.808594 587.867188 750.695312 588.984375 C 750.027344 589.222656 749.34375 589.339844 748.671875 589.339844 Z M 748.671875 589.339844 " fill-opacity="1" fill-rule="nonzero"/><path fill="#ffbd91" d="M 711.414062 631.292969 C 708.269531 631.292969 705.628906 628.839844 705.441406 625.65625 L 703.582031 594.601562 C 703.382812 591.300781 705.898438 588.460938 709.203125 588.261719 C 712.535156 588.035156 715.34375 590.582031 715.539062 593.886719 L 717.398438 624.941406 C 717.597656 628.246094 715.082031 631.082031 711.777344 631.28125 C 711.65625 631.289062 711.535156 631.292969 711.414062 631.292969 Z M 711.414062 631.292969 " fill-opacity="1" fill-rule="nonzero"/><path fill="#ffbd91" d="M 799.226562 633.976562 C 795.984375 633.976562 793.320312 631.390625 793.242188 628.132812 C 792.941406 615.910156 790.058594 604.546875 784.675781 594.359375 C 783.125 591.433594 784.242188 587.808594 787.164062 586.257812 C 790.101562 584.710938 793.71875 585.832031 795.261719 588.753906 C 801.523438 600.597656 804.875 613.746094 805.214844 627.839844 C 805.296875 631.148438 802.683594 633.894531 799.375 633.976562 C 799.324219 633.976562 799.277344 633.976562 799.226562 633.976562 Z M 799.226562 633.976562 " fill-opacity="1" fill-rule="nonzero"/><path fill="#ffbd91" d="M 826.570312 591.003906 C 826.5 591.003906 826.429688 591.003906 826.359375 591.003906 C 823.054688 590.886719 820.46875 588.109375 820.582031 584.804688 C 821.007812 572.585938 818.804688 561.074219 814.027344 550.582031 C 812.65625 547.570312 813.984375 544.015625 816.996094 542.644531 C 820 541.273438 823.554688 542.601562 824.929688 545.613281 C 830.480469 557.808594 833.046875 571.132812 832.554688 585.222656 C 832.441406 588.457031 829.785156 591.003906 826.570312 591.003906 Z M 826.570312 591.003906 " fill-opacity="1" fill-rule="nonzero"/><path fill="#ffbd91" d="M 751.578125 685.601562 C 751.308594 685.601562 751.03125 685.582031 750.753906 685.542969 C 747.480469 685.09375 745.1875 682.070312 745.636719 678.792969 C 747.554688 664.816406 746.652344 651.726562 742.953125 639.886719 C 741.96875 636.726562 743.730469 633.367188 746.886719 632.378906 C 750.03125 631.394531 753.402344 633.152344 754.390625 636.3125 C 758.617188 649.84375 759.664062 664.6875 757.507812 680.421875 C 757.09375 683.425781 754.527344 685.601562 751.578125 685.601562 Z M 751.578125 685.601562 " fill-opacity="1" fill-rule="nonzero"/><path fill="#fffcf6" d="M 1039.25 1017.578125 C 1038.035156 1048.613281 1047.691406 1079.96875 1066.152344 1104.9375 C 1070.941406 1111.414062 1070.539062 1122.664062 1078.4375 1124.234375 C 1087.050781 1125.945312 1101.929688 1116.648438 1109.480469 1112.171875 C 1128.113281 1101.121094 1146.828125 1088.300781 1157.277344 1069.324219 C 1167.726562 1050.347656 1167.191406 1023.675781 1150.621094 1009.722656 C 1135.765625 997.210938 1113.710938 998.597656 1094.996094 1003.789062 C 1076.277344 1008.980469 1057.863281 1017.34375 1039.25 1017.578125 Z M 1039.25 1017.578125 " fill-opacity="1" fill-rule="nonzero"/><path fill="#ffbd91" d="M 1079.34375 1007.953125 C 1084.394531 1043.019531 1100.636719 1076.386719 1125.121094 1101.988281 C 1145.207031 1088.203125 1159.316406 1066 1163.277344 1041.957031 C 1164.460938 1034.761719 1164.71875 1027.113281 1161.769531 1020.445312 C 1158.492188 1013.03125 1151.554688 1007.714844 1144.007812 1004.761719 C 1136.464844 1001.8125 1128.277344 1000.964844 1120.195312 1000.402344 C 1108.550781 999.59375 1096.429688 999.402344 1079.34375 1007.953125 Z M 1079.34375 1007.953125 " fill-opacity="1" fill-rule="nonzero"/><path fill="#552d2d" d="M 1073.390625 1131.066406 C 1070.4375 1131.066406 1067.871094 1128.882812 1067.464844 1125.875 C 1067.019531 1122.597656 1069.316406 1119.578125 1072.59375 1119.132812 C 1099.921875 1115.433594 1131.363281 1095.730469 1147.359375 1072.289062 C 1158.128906 1056.503906 1164.160156 1033.910156 1153.363281 1019 C 1144.003906 1006.089844 1119.632812 996.886719 1081.742188 1013.445312 C 1078.710938 1014.769531 1075.175781 1013.386719 1073.851562 1010.347656 C 1072.527344 1007.316406 1073.914062 1003.785156 1076.941406 1002.457031 C 1121.320312 983.074219 1150.523438 994.660156 1163.0625 1011.96875 C 1177.277344 1031.589844 1170.386719 1059.796875 1157.253906 1079.042969 C 1139.230469 1105.460938 1105.078125 1126.828125 1074.203125 1131.011719 C 1073.929688 1131.046875 1073.660156 1131.066406 1073.390625 1131.066406 Z M 1073.390625 1131.066406 " fill-opacity="1" fill-rule="nonzero"/><path fill="#fffcf6" d="M 453.875 1012.933594 C 454.683594 1043.980469 444.617188 1075.207031 425.824219 1099.929688 C 420.953125 1106.34375 414.910156 1112.683594 406.992188 1114.148438 C 398.359375 1115.746094 389.898438 1111.167969 382.40625 1106.589844 C 363.921875 1095.296875 345.378906 1082.230469 335.179688 1063.117188 C 324.980469 1044.003906 325.867188 1017.34375 342.617188 1003.609375 C 357.636719 991.292969 379.671875 992.972656 398.320312 998.410156 C 416.964844 1003.847656 435.269531 1012.453125 453.875 1012.933594 Z M 453.875 1012.933594 " fill-opacity="1" fill-rule="nonzero"/><path fill="#ffbd91" d="M 413.914062 1002.777344 C 408.402344 1037.777344 391.71875 1070.929688 366.902344 1096.203125 C 347 1082.152344 333.183594 1059.765625 329.539062 1035.671875 C 328.453125 1028.460938 328.292969 1020.8125 331.328125 1014.183594 C 334.707031 1006.816406 341.710938 1001.585938 349.296875 998.734375 C 356.878906 995.886719 365.074219 995.144531 373.164062 994.691406 C 384.816406 994.035156 396.945312 994.003906 413.914062 1002.777344 Z M 413.914062 1002.777344 " fill-opacity="1" fill-rule="nonzero"/><path fill="#552d2d" d="M 411.164062 1120.46875 C 410.8125 1120.46875 410.457031 1120.433594 410.101562 1120.371094 C 379.171875 1114.8125 351.121094 1097.042969 335.074219 1072.835938 C 322.195312 1053.417969 315.679688 1025.125 330.148438 1005.691406 C 344.132812 986.90625 381.226562 983.03125 409.011719 990.128906 C 412.21875 990.945312 414.152344 994.210938 413.332031 997.417969 C 412.511719 1000.621094 409.269531 1002.550781 406.046875 1001.742188 C 382.515625 995.730469 350.253906 998.753906 339.757812 1012.851562 C 328.765625 1027.613281 334.5 1050.289062 345.058594 1066.210938 C 359.335938 1087.746094 384.441406 1103.585938 412.21875 1108.574219 C 415.472656 1109.160156 417.640625 1112.277344 417.054688 1115.53125 C 416.535156 1118.433594 414.011719 1120.46875 411.164062 1120.46875 Z M 411.164062 1120.46875 " fill-opacity="1" fill-rule="nonzero"/><path fill="#552d2d" d="M 750.738281 1440.167969 C 713.585938 1440.167969 676.457031 1437.078125 639.597656 1430.90625 C 578.820312 1420.726562 529.679688 1403.667969 489.375 1378.757812 C 440.453125 1348.527344 405.992188 1306.527344 392.328125 1260.503906 C 368.164062 1179.101562 408.378906 1095.632812 446.109375 1032.007812 C 447.792969 1029.164062 451.46875 1028.222656 454.316406 1029.914062 C 457.164062 1031.601562 458.101562 1035.277344 456.410156 1038.125 C 402.210938 1129.519531 385.988281 1197.050781 403.8125 1257.089844 C 416.632812 1300.289062 449.257812 1339.878906 495.667969 1368.558594 C 534.628906 1392.640625 582.355469 1409.167969 641.574219 1419.085938 C 712.351562 1430.9375 784.171875 1431.203125 855.0625 1419.882812 C 928.855469 1408.09375 982.824219 1385.3125 1020.058594 1350.242188 C 1060.910156 1311.757812 1083.089844 1253.773438 1079.386719 1195.128906 C 1076.058594 1142.492188 1058.027344 1084.511719 1032.320312 1043.816406 C 1030.550781 1041.019531 1031.386719 1037.320312 1034.183594 1035.550781 C 1036.96875 1033.78125 1040.679688 1034.617188 1042.445312 1037.414062 C 1069.164062 1079.707031 1087.898438 1139.847656 1091.34375 1194.375 C 1095.269531 1256.539062 1071.691406 1318.066406 1028.269531 1358.96875 C 989.230469 1395.742188 933.191406 1419.535156 856.953125 1431.71875 C 821.699219 1437.351562 786.210938 1440.164062 750.738281 1440.167969 Z M 750.738281 1440.167969 " fill-opacity="1" fill-rule="nonzero"/><path fill="#ffbd91" d="M 852.996094 1265.5625 C 851.945312 1290.839844 865.097656 1317.585938 888.34375 1327.546875 C 911.421875 1337.433594 938.933594 1329.128906 958.800781 1313.773438 C 969.484375 1305.515625 978.765625 1295.140625 984.3125 1282.824219 C 989.863281 1270.507812 991.441406 1256.148438 987.160156 1243.335938 C 981.949219 1227.734375 968.855469 1213.625 954.890625 1204.941406 C 942.34375 1197.140625 928.417969 1192.324219 913.644531 1192.324219 C 868.566406 1192.324219 854.050781 1240.28125 852.996094 1265.5625 Z M 852.996094 1265.5625 " fill-opacity="1" fill-rule="nonzero"/><path fill="#552d2d" d="M 909.9375 1337.871094 C 901.945312 1337.871094 893.855469 1336.425781 885.988281 1333.054688 C 861.808594 1322.695312 845.78125 1294.835938 847.011719 1265.3125 C 848.335938 1233.566406 867.171875 1186.332031 913.644531 1186.332031 C 928.6875 1186.332031 943.628906 1190.882812 958.050781 1199.851562 C 974.570312 1210.121094 987.574219 1225.667969 992.84375 1241.4375 C 997.359375 1254.953125 996.242188 1270.9375 989.773438 1285.285156 C 984.21875 1297.621094 975.027344 1308.800781 962.460938 1318.515625 C 948.902344 1328.996094 929.730469 1337.871094 909.9375 1337.871094 Z M 913.644531 1198.320312 C 872.628906 1198.320312 859.957031 1242.464844 858.980469 1265.8125 C 857.953125 1290.472656 871 1313.59375 890.703125 1322.039062 C 913.285156 1331.714844 938.792969 1321.664062 955.136719 1309.035156 C 966.132812 1300.53125 974.109375 1290.886719 978.851562 1280.363281 C 984.09375 1268.726562 985.050781 1255.925781 981.480469 1245.234375 C 977.136719 1232.230469 965.734375 1218.742188 951.726562 1210.03125 C 939.234375 1202.257812 926.417969 1198.320312 913.644531 1198.320312 Z M 913.644531 1198.320312 " fill-opacity="1" fill-rule="nonzero"/><path fill="#ffbd91" d="M 649.816406 1257.257812 C 650.871094 1282.539062 637.71875 1309.28125 614.46875 1319.242188 C 591.394531 1329.128906 563.878906 1320.824219 544.015625 1305.472656 C 533.332031 1297.210938 524.046875 1286.835938 518.5 1274.519531 C 512.953125 1262.203125 511.375 1247.84375 515.652344 1235.035156 C 520.863281 1219.429688 533.957031 1205.320312 547.925781 1196.636719 C 560.46875 1188.835938 574.398438 1184.023438 589.171875 1184.023438 C 634.25 1184.023438 648.765625 1231.976562 649.816406 1257.257812 Z M 649.816406 1257.257812 " fill-opacity="1" fill-rule="nonzero"/><path fill="#552d2d" d="M 592.875 1329.570312 C 573.078125 1329.570312 553.910156 1320.695312 540.355469 1310.210938 C 527.785156 1300.5 518.59375 1289.320312 513.039062 1276.980469 C 506.574219 1262.632812 505.457031 1246.652344 509.972656 1233.132812 C 515.242188 1217.363281 528.246094 1201.816406 544.761719 1191.546875 C 559.1875 1182.578125 574.128906 1178.03125 589.171875 1178.03125 C 635.644531 1178.03125 654.480469 1225.261719 655.800781 1257.007812 C 657.035156 1286.535156 641.003906 1314.390625 616.828125 1324.75 C 608.960938 1328.121094 600.863281 1329.570312 592.875 1329.570312 Z M 589.171875 1190.015625 C 576.398438 1190.015625 563.585938 1193.957031 551.085938 1201.726562 C 537.078125 1210.4375 525.679688 1223.925781 521.332031 1236.933594 C 517.765625 1247.621094 518.722656 1260.425781 523.960938 1272.058594 C 528.703125 1282.582031 536.683594 1292.230469 547.679688 1300.730469 C 564.019531 1313.359375 589.53125 1323.402344 612.113281 1313.734375 C 631.816406 1305.289062 644.859375 1282.167969 643.832031 1257.507812 C 642.859375 1234.164062 630.183594 1190.015625 589.171875 1190.015625 Z M 589.171875 1190.015625 " fill-opacity="1" fill-rule="nonzero"/><path fill="#552d2d" d="M 747.335938 829.550781 C 732.410156 829.550781 717.84375 817.148438 705.441406 804.816406 C 703.09375 802.480469 703.082031 798.6875 705.414062 796.339844 C 707.75 793.996094 711.539062 793.984375 713.886719 796.316406 C 724.371094 806.738281 737.792969 818.582031 748.738281 817.496094 C 752.796875 817.097656 757.128906 814.773438 760.933594 810.945312 C 764.757812 807.101562 767.832031 802.113281 770.804688 797.289062 C 772.539062 794.472656 776.230469 793.597656 779.046875 795.335938 C 781.863281 797.074219 782.738281 800.765625 781 803.582031 C 777.671875 808.984375 774.230469 814.570312 769.429688 819.398438 C 765.351562 823.5 758.652344 828.566406 749.90625 829.425781 C 749.050781 829.511719 748.191406 829.550781 747.335938 829.550781 Z M 747.335938 829.550781 " fill-opacity="1" fill-rule="nonzero"/><path fill="#552d2d" d="M 744.925781 867.34375 C 744.828125 867.34375 744.734375 867.339844 744.640625 867.335938 C 741.332031 867.179688 738.78125 864.375 738.933594 861.066406 C 739.167969 856.1875 739.183594 851.285156 739.203125 845.925781 C 739.226562 839.390625 739.257812 831.984375 739.671875 823.179688 C 739.832031 819.871094 742.703125 817.269531 745.941406 817.476562 C 749.242188 817.632812 751.796875 820.4375 751.640625 823.742188 C 751.238281 832.292969 751.207031 839.558594 751.183594 845.972656 C 751.160156 851.511719 751.140625 856.582031 750.90625 861.628906 C 750.753906 864.839844 748.101562 867.34375 744.925781 867.34375 Z M 744.925781 867.34375 " fill-opacity="1" fill-rule="nonzero"/><path fill="#552d2d" d="M 1018.605469 1052.289062 C 1016.050781 1052.289062 1013.679688 1050.636719 1012.886719 1048.0625 C 1011.90625 1044.902344 1013.679688 1041.546875 1016.84375 1040.570312 C 1055.585938 1028.601562 1098.6875 993.054688 1107.636719 940.625 C 1112.394531 912.761719 1107.386719 880.765625 1092.753906 845.523438 C 1085.988281 829.230469 1077.78125 813.3125 1069.839844 797.917969 C 1063.003906 784.660156 1055.933594 770.953125 1049.726562 756.914062 C 1042.84375 741.351562 1036.855469 725.011719 1031.0625 709.210938 C 1021.023438 681.808594 1010.636719 653.472656 995.515625 629.289062 C 993.761719 626.484375 994.613281 622.785156 997.417969 621.03125 C 1000.214844 619.277344 1003.917969 620.128906 1005.671875 622.933594 C 1021.457031 648.171875 1032.058594 677.105469 1042.3125 705.085938 C 1048.039062 720.707031 1053.957031 736.859375 1060.683594 752.066406 C 1066.742188 765.777344 1073.730469 779.324219 1080.488281 792.421875 C 1088.539062 808.03125 1096.867188 824.175781 1103.816406 840.925781 C 1119.332031 878.292969 1124.589844 912.515625 1119.449219 942.640625 C 1110.957031 992.382812 1071.144531 1036.339844 1020.375 1052.023438 C 1019.789062 1052.203125 1019.191406 1052.289062 1018.605469 1052.289062 Z M 1018.605469 1052.289062 " fill-opacity="1" fill-rule="nonzero"/><path fill="#552d2d" d="M 919.835938 559.253906 C 918.914062 559.253906 917.980469 559.039062 917.105469 558.589844 C 894.929688 547.195312 870.429688 539.125 844.28125 534.59375 C 786.195312 524.53125 711.136719 524.53125 653.0625 534.59375 C 627.042969 539.101562 602.644531 547.121094 580.542969 558.433594 C 577.597656 559.941406 573.988281 558.777344 572.480469 555.828125 C 570.972656 552.882812 572.136719 549.269531 575.082031 547.765625 C 598.261719 535.898438 623.808594 527.496094 651.019531 522.78125 C 710.335938 512.507812 786.996094 512.507812 846.324219 522.78125 C 873.667969 527.519531 899.324219 535.980469 922.582031 547.929688 C 925.523438 549.441406 926.683594 553.054688 925.171875 555.996094 C 924.109375 558.066406 922.011719 559.253906 919.835938 559.253906 Z M 919.835938 559.253906 " fill-opacity="1" fill-rule="nonzero"/><path fill="#552d2d" d="M 478.734375 1052.289062 C 478.152344 1052.289062 477.554688 1052.203125 476.964844 1052.023438 C 426.195312 1036.335938 386.382812 992.382812 377.894531 942.640625 C 372.753906 912.515625 378.007812 878.292969 393.523438 840.925781 C 400.472656 824.179688 408.796875 808.042969 416.847656 792.4375 C 423.609375 779.332031 430.59375 765.78125 436.660156 752.066406 C 443.382812 736.859375 449.304688 720.707031 455.027344 705.085938 C 465.285156 677.089844 475.894531 648.148438 491.691406 622.902344 C 493.449219 620.097656 497.140625 619.246094 499.949219 621 C 502.75 622.757812 503.601562 626.457031 501.847656 629.261719 C 486.714844 653.449219 476.324219 681.796875 466.277344 709.210938 C 460.488281 725.011719 454.5 741.351562 447.617188 756.914062 C 441.40625 770.957031 434.332031 784.671875 427.496094 797.933594 C 419.554688 813.324219 411.347656 829.238281 404.585938 845.523438 C 389.957031 880.765625 384.949219 912.765625 389.707031 940.625 C 398.652344 993.054688 441.753906 1028.597656 480.5 1040.566406 C 483.660156 1041.546875 485.433594 1044.902344 484.457031 1048.0625 C 483.660156 1050.636719 481.292969 1052.289062 478.734375 1052.289062 Z M 478.734375 1052.289062 " fill-opacity="1" fill-rule="nonzero"/><path fill="#ed2027" d="M 401.339844 1063.707031 C 401.339844 1066.621094 401.265625 1069.53125 401.125 1072.4375 C 400.980469 1075.347656 400.769531 1078.25 400.484375 1081.148438 C 400.195312 1084.042969 399.839844 1086.933594 399.414062 1089.8125 C 398.988281 1092.695312 398.488281 1095.5625 397.921875 1098.417969 C 397.355469 1101.273438 396.714844 1104.113281 396.007812 1106.9375 C 395.300781 1109.761719 394.527344 1112.566406 393.679688 1115.355469 C 392.835938 1118.140625 391.921875 1120.90625 390.941406 1123.644531 C 389.960938 1126.386719 388.914062 1129.101562 387.800781 1131.792969 C 386.6875 1134.484375 385.507812 1137.144531 384.265625 1139.777344 C 383.019531 1142.410156 381.710938 1145.007812 380.339844 1147.578125 C 378.96875 1150.144531 377.53125 1152.675781 376.035156 1155.175781 C 374.539062 1157.671875 372.984375 1160.132812 371.367188 1162.550781 C 369.75 1164.972656 368.074219 1167.351562 366.339844 1169.691406 C 364.605469 1172.03125 362.816406 1174.324219 360.96875 1176.578125 C 359.125 1178.828125 357.222656 1181.03125 355.269531 1183.1875 C 353.3125 1185.347656 351.308594 1187.453125 349.25 1189.511719 C 347.191406 1191.574219 345.085938 1193.578125 342.929688 1195.535156 C 340.769531 1197.488281 338.566406 1199.390625 336.316406 1201.238281 C 334.070312 1203.085938 331.773438 1204.875 329.4375 1206.609375 C 327.097656 1208.34375 324.71875 1210.023438 322.300781 1211.640625 C 319.878906 1213.257812 317.421875 1214.8125 314.925781 1216.3125 C 312.429688 1217.808594 309.898438 1219.242188 307.332031 1220.617188 C 304.765625 1221.988281 302.164062 1223.296875 299.535156 1224.542969 C 296.902344 1225.785156 294.242188 1226.964844 291.554688 1228.082031 C 288.863281 1229.195312 286.148438 1230.242188 283.410156 1231.222656 C 280.667969 1232.203125 277.90625 1233.117188 275.121094 1233.960938 C 272.335938 1234.808594 269.53125 1235.585938 266.707031 1236.292969 C 263.886719 1237 261.046875 1237.636719 258.191406 1238.203125 C 255.335938 1238.773438 252.46875 1239.269531 249.589844 1239.699219 C 246.710938 1240.125 243.824219 1240.480469 240.929688 1240.765625 C 238.03125 1241.050781 235.128906 1241.265625 232.222656 1241.410156 C 229.316406 1241.550781 226.40625 1241.625 223.496094 1241.625 C 220.585938 1241.625 217.675781 1241.550781 214.769531 1241.410156 C 211.863281 1241.265625 208.960938 1241.050781 206.066406 1240.765625 C 203.167969 1240.480469 200.28125 1240.125 197.402344 1239.699219 C 194.523438 1239.269531 191.65625 1238.773438 188.800781 1238.203125 C 185.945312 1237.636719 183.105469 1237 180.285156 1236.292969 C 177.460938 1235.585938 174.65625 1234.808594 171.871094 1233.960938 C 169.085938 1233.117188 166.324219 1232.203125 163.582031 1231.222656 C 160.84375 1230.242188 158.128906 1229.195312 155.4375 1228.082031 C 152.75 1226.964844 150.089844 1225.785156 147.457031 1224.542969 C 144.828125 1223.296875 142.230469 1221.988281 139.660156 1220.617188 C 137.09375 1219.242188 134.5625 1217.808594 132.066406 1216.3125 C 129.570312 1214.8125 127.113281 1213.257812 124.691406 1211.640625 C 122.273438 1210.023438 119.894531 1208.34375 117.554688 1206.609375 C 115.21875 1204.875 112.921875 1203.085938 110.675781 1201.238281 C 108.425781 1199.390625 106.222656 1197.488281 104.0625 1195.535156 C 101.90625 1193.578125 99.800781 1191.574219 97.742188 1189.511719 C 95.683594 1187.453125 93.679688 1185.347656 91.722656 1183.1875 C 89.769531 1181.03125 87.867188 1178.828125 86.023438 1176.578125 C 84.175781 1174.324219 82.386719 1172.03125 80.652344 1169.691406 C 78.917969 1167.351562 77.242188 1164.972656 75.625 1162.550781 C 74.007812 1160.132812 72.453125 1157.671875 70.957031 1155.175781 C 69.460938 1152.675781 68.023438 1150.144531 66.652344 1147.578125 C 65.28125 1145.007812 63.972656 1142.410156 62.726562 1139.777344 C 61.484375 1137.144531 60.304688 1134.484375 59.191406 1131.792969 C 58.078125 1129.101562 57.03125 1126.386719 56.050781 1123.644531 C 55.070312 1120.90625 54.15625 1118.140625 53.3125 1115.355469 C 52.464844 1112.566406 51.691406 1109.761719 50.984375 1106.9375 C 50.277344 1104.113281 49.636719 1101.273438 49.070312 1098.417969 C 48.503906 1095.5625 48.003906 1092.695312 47.578125 1089.8125 C 47.152344 1086.933594 46.796875 1084.042969 46.511719 1081.148438 C 46.222656 1078.25 46.011719 1075.347656 45.867188 1072.4375 C 45.726562 1069.53125 45.652344 1066.621094 45.652344 1063.707031 C 45.652344 1060.796875 45.726562 1057.886719 45.867188 1054.976562 C 46.011719 1052.070312 46.222656 1049.167969 46.511719 1046.269531 C 46.796875 1043.371094 47.152344 1040.484375 47.578125 1037.601562 C 48.003906 1034.722656 48.503906 1031.855469 49.070312 1029 C 49.636719 1026.144531 50.277344 1023.304688 50.984375 1020.476562 C 51.691406 1017.652344 52.464844 1014.847656 53.3125 1012.0625 C 54.15625 1009.277344 55.070312 1006.511719 56.050781 1003.769531 C 57.03125 1001.027344 58.078125 998.3125 59.191406 995.625 C 60.304688 992.933594 61.484375 990.273438 62.726562 987.640625 C 63.972656 985.007812 65.28125 982.40625 66.652344 979.839844 C 68.023438 977.273438 69.460938 974.738281 70.957031 972.242188 C 72.453125 969.742188 74.007812 967.285156 75.625 964.863281 C 77.242188 962.441406 78.917969 960.0625 80.652344 957.722656 C 82.386719 955.386719 84.175781 953.089844 86.023438 950.839844 C 87.867188 948.589844 89.769531 946.386719 91.722656 944.226562 C 93.679688 942.070312 95.683594 939.960938 97.742188 937.902344 C 99.800781 935.84375 101.90625 933.835938 104.0625 931.882812 C 106.222656 929.925781 108.425781 928.023438 110.675781 926.179688 C 112.921875 924.332031 115.21875 922.539062 117.554688 920.804688 C 119.894531 919.070312 122.273438 917.394531 124.691406 915.777344 C 127.113281 914.160156 129.570312 912.601562 132.066406 911.105469 C 134.5625 909.609375 137.09375 908.171875 139.660156 906.800781 C 142.230469 905.429688 144.828125 904.121094 147.457031 902.875 C 150.089844 901.628906 152.75 900.449219 155.4375 899.335938 C 158.128906 898.222656 160.84375 897.175781 163.582031 896.195312 C 166.324219 895.210938 169.085938 894.300781 171.871094 893.453125 C 174.65625 892.609375 177.460938 891.832031 180.285156 891.125 C 183.105469 890.417969 185.945312 889.78125 188.800781 889.210938 C 191.65625 888.644531 194.523438 888.144531 197.402344 887.71875 C 200.28125 887.292969 203.167969 886.933594 206.066406 886.648438 C 208.960938 886.363281 211.863281 886.148438 214.769531 886.007812 C 217.675781 885.863281 220.585938 885.792969 223.496094 885.792969 C 226.40625 885.792969 229.316406 885.863281 232.222656 886.007812 C 235.128906 886.152344 238.03125 886.363281 240.929688 886.648438 C 243.824219 886.933594 246.710938 887.292969 249.589844 887.71875 C 252.46875 888.144531 255.335938 888.644531 258.191406 889.210938 C 261.046875 889.78125 263.886719 890.417969 266.707031 891.125 C 269.53125 891.832031 272.335938 892.609375 275.121094 893.453125 C 277.90625 894.300781 280.667969 895.210938 283.410156 896.195312 C 286.148438 897.175781 288.863281 898.222656 291.554688 899.335938 C 294.242188 900.449219 296.902344 901.628906 299.535156 902.875 C 302.164062 904.121094 304.765625 905.429688 307.332031 906.800781 C 309.898438 908.171875 312.429688 909.609375 314.925781 911.105469 C 317.421875 912.601562 319.878906 914.160156 322.300781 915.777344 C 324.71875 917.394531 327.097656 919.070312 329.4375 920.804688 C 331.773438 922.539062 334.070312 924.332031 336.316406 926.179688 C 338.566406 928.023438 340.769531 929.925781 342.929688 931.882812 C 345.085938 933.835938 347.191406 935.84375 349.25 937.902344 C 351.308594 939.960938 353.3125 942.070312 355.269531 944.226562 C 357.222656 946.386719 359.125 948.589844 360.96875 950.839844 C 362.816406 953.089844 364.605469 955.386719 366.339844 957.722656 C 368.074219 960.0625 369.75 962.441406 371.367188 964.863281 C 372.984375 967.285156 374.539062 969.742188 376.035156 972.242188 C 377.53125 974.738281 378.96875 977.273438 380.339844 979.839844 C 381.710938 982.40625 383.019531 985.007812 384.265625 987.640625 C 385.507812 990.273438 386.6875 992.933594 387.800781 995.625 C 388.914062 998.3125 389.960938 1001.027344 390.941406 1003.769531 C 391.921875 1006.511719 392.835938 1009.277344 393.679688 1012.0625 C 394.527344 1014.847656 395.300781 1017.652344 396.007812 1020.476562 C 396.714844 1023.304688 397.355469 1026.144531 397.921875 1029 C 398.488281 1031.855469 398.988281 1034.722656 399.414062 1037.601562 C 399.839844 1040.484375 400.195312 1043.371094 400.480469 1046.269531 C 400.769531 1049.167969 400.980469 1052.070312 401.125 1054.980469 C 401.265625 1057.886719 401.339844 1060.796875 401.339844 1063.707031 Z M 401.339844 1063.707031 " fill-opacity="1" fill-rule="nonzero"/><path fill="#552d2d" d="M 223.394531 1247.621094 C 125.925781 1247.621094 44.449219 1170.671875 39.859375 1072.273438 C 35.144531 970.972656 113.679688 884.722656 214.9375 880 C 316.175781 875.296875 402.410156 953.847656 407.132812 1055.144531 C 411.847656 1156.441406 333.3125 1242.695312 232.054688 1247.417969 C 229.15625 1247.550781 226.265625 1247.621094 223.394531 1247.621094 Z M 51.832031 1071.714844 C 56.242188 1166.40625 136.789062 1239.882812 231.5 1235.445312 C 326.15625 1231.03125 399.574219 1150.398438 395.160156 1055.703125 C 390.746094 961.007812 310.167969 887.503906 215.492188 891.972656 C 120.84375 896.386719 47.429688 977.027344 51.832031 1071.714844 Z M 51.832031 1071.714844 " fill-opacity="1" fill-rule="nonzero"/><path fill="#fefefe" d="M 287.890625 841.367188 L 138.707031 848.324219 C 121.808594 849.113281 108.75 863.457031 109.539062 880.359375 L 110.683594 904.945312 C 111.109375 914.113281 118.191406 921.988281 127.355469 922.433594 C 133.960938 922.753906 139.742188 919.472656 143.007812 914.4375 C 144.511719 912.117188 147.746094 911.773438 149.4375 913.964844 C 152.820312 918.355469 158.21875 921.078125 164.175781 920.800781 C 170.132812 920.523438 175.261719 917.300781 178.222656 912.609375 C 179.648438 910.347656 182.886719 910.199219 184.515625 912.316406 C 187.898438 916.714844 193.304688 919.441406 199.265625 919.164062 C 205.226562 918.886719 210.355469 915.667969 213.3125 910.972656 C 214.738281 908.710938 217.976562 908.5625 219.609375 910.679688 C 222.992188 915.078125 228.394531 917.804688 234.355469 917.527344 C 240.320312 917.25 245.421875 914.019531 248.359375 909.320312 C 249.734375 907.125 252.992188 906.972656 254.5625 909.03125 C 257.925781 913.4375 263.308594 916.175781 269.273438 915.898438 C 275.226562 915.621094 280.347656 912.410156 283.308594 907.722656 C 284.789062 905.382812 288.039062 905.425781 289.753906 907.59375 C 293.472656 912.300781 299.535156 915.035156 306.082031 914.101562 C 315.164062 912.804688 321.484375 904.324219 321.054688 895.15625 L 320.011719 872.75 C 319.121094 853.640625 304.785156 840.582031 287.890625 841.367188 Z M 287.890625 841.367188 " fill-opacity="1" fill-rule="nonzero"/><path fill="#fefefe" d="M 287.484375 841.105469 C 293.863281 818.535156 289.082031 793.089844 274.949219 774.378906 C 271.761719 770.160156 268.136719 766.273438 264.164062 762.789062 C 248.929688 749.417969 228.449219 742.195312 208.203125 743.054688 C 191.003906 743.785156 174.101562 750.269531 160.804688 761.203125 C 147.503906 772.140625 137.871094 787.457031 133.746094 804.179688 C 130.09375 818.957031 130.984375 835.550781 139.578125 848.117188 C 147.871094 847.722656 156.164062 847.328125 164.453125 846.9375 C 159 843.144531 156.117188 836.464844 155.40625 829.859375 C 154.691406 823.253906 155.871094 816.605469 157.046875 810.066406 C 158.652344 801.152344 160.40625 791.878906 165.84375 784.640625 C 169.976562 779.144531 175.929688 775.277344 182.15625 772.363281 C 195.773438 765.980469 211.457031 763.714844 226.128906 767.019531 C 240.796875 770.324219 254.28125 779.398438 262.007812 792.300781 C 269.734375 805.207031 271.285156 821.867188 265.15625 835.605469 C 264.441406 837.207031 263.738281 839.375 265.101562 840.480469 C 265.75 841.007812 266.652344 841.058594 267.484375 841.085938 C 274.296875 841.304688 281.105469 841.523438 287.484375 841.105469 Z M 287.484375 841.105469 " fill-opacity="1" fill-rule="nonzero"/><path fill="#552d2d" d="M 128.265625 928.449219 C 127.863281 928.449219 127.464844 928.441406 127.0625 928.417969 C 115.101562 927.839844 105.28125 917.652344 104.699219 905.226562 L 103.554688 880.636719 C 103.101562 870.863281 106.476562 861.496094 113.0625 854.261719 C 119.648438 847.03125 128.65625 842.796875 138.429688 842.339844 L 287.609375 835.382812 C 297.5625 834.945312 306.949219 838.433594 314.09375 845.265625 C 321.273438 852.132812 325.5 861.796875 325.996094 872.472656 L 327.039062 894.875 C 327.617188 907.289062 318.785156 918.339844 306.929688 920.03125 C 299.363281 921.109375 291.964844 918.582031 286.726562 913.214844 C 282.523438 918.382812 276.28125 921.570312 269.550781 921.886719 C 262.878906 922.167969 256.378906 919.617188 251.730469 914.886719 C 247.542969 920.027344 241.339844 923.199219 234.632812 923.511719 C 227.871094 923.820312 221.390625 921.230469 216.722656 916.476562 C 212.519531 921.644531 206.28125 924.835938 199.542969 925.152344 C 192.816406 925.4375 186.304688 922.867188 181.632812 918.113281 C 177.429688 923.28125 171.1875 926.472656 164.453125 926.785156 C 157.667969 927.09375 151.210938 924.503906 146.542969 919.75 C 142.078125 925.28125 135.453125 928.449219 128.265625 928.449219 Z M 288.167969 847.355469 L 138.984375 854.3125 C 132.410156 854.617188 126.351562 857.46875 121.917969 862.335938 C 117.488281 867.203125 115.214844 873.503906 115.523438 880.078125 L 116.667969 904.667969 C 116.960938 910.988281 121.785156 916.164062 127.644531 916.449219 C 131.882812 916.632812 135.707031 914.679688 137.980469 911.175781 C 139.792969 908.386719 142.820312 906.640625 146.082031 906.511719 C 149.257812 906.414062 152.226562 907.769531 154.179688 910.308594 C 156.488281 913.304688 160.144531 914.988281 163.898438 914.8125 C 167.671875 914.636719 171.132812 912.617188 173.152344 909.414062 C 174.871094 906.691406 177.8125 904.980469 181.015625 904.835938 C 184.230469 904.675781 187.304688 906.117188 189.261719 908.660156 C 191.578125 911.664062 195.15625 913.378906 198.988281 913.175781 C 202.765625 913 206.226562 910.980469 208.246094 907.777344 C 209.960938 905.058594 212.898438 903.347656 216.109375 903.195312 C 219.367188 903.039062 222.398438 904.480469 224.355469 907.023438 C 226.664062 910.027344 230.277344 911.71875 234.078125 911.539062 C 237.839844 911.367188 241.277344 909.347656 243.277344 906.144531 C 244.972656 903.441406 247.898438 901.742188 251.113281 901.59375 C 254.355469 901.433594 257.394531 902.863281 259.324219 905.394531 C 261.621094 908.394531 265.164062 910.089844 268.992188 909.910156 C 272.761719 909.738281 276.222656 907.722656 278.246094 904.519531 C 279.960938 901.808594 282.773438 900.15625 285.960938 899.988281 C 289.226562 899.8125 292.394531 901.269531 294.453125 903.878906 C 297.042969 907.15625 301.070312 908.761719 305.238281 908.167969 C 311.046875 907.339844 315.367188 901.746094 315.070312 895.433594 L 314.027344 873.03125 C 313.675781 865.441406 310.757812 858.660156 305.8125 853.929688 C 301.058594 849.382812 294.863281 847.023438 288.167969 847.355469 Z M 287.890625 841.367188 L 287.949219 841.367188 Z M 287.890625 841.367188 " fill-opacity="1" fill-rule="nonzero"/><path fill="#552d2d" d="M 139.753906 854.210938 C 137.492188 854.210938 135.328125 852.925781 134.316406 850.738281 C 130.09375 841.628906 127.71875 831.921875 127.25 821.886719 C 125.179688 777.460938 161.535156 739.546875 208.289062 737.363281 C 230.835938 736.324219 252.515625 743.660156 269.222656 758.054688 C 286.023438 772.535156 295.832031 792.394531 296.835938 813.976562 C 297.285156 823.589844 295.957031 833.074219 292.898438 842.171875 C 291.839844 845.304688 288.4375 847 285.308594 845.941406 C 282.171875 844.882812 280.484375 841.484375 281.542969 838.347656 C 284.128906 830.667969 285.246094 822.65625 284.867188 814.535156 C 284.015625 796.277344 275.683594 779.445312 261.402344 767.136719 C 247.027344 754.75 228.453125 748.433594 208.847656 749.339844 C 168.691406 751.210938 137.453125 783.503906 139.21875 821.328125 C 139.613281 829.804688 141.621094 838.003906 145.183594 845.695312 C 146.578125 848.699219 145.273438 852.261719 142.269531 853.65625 C 141.457031 854.035156 140.597656 854.210938 139.753906 854.210938 Z M 139.753906 854.210938 " fill-opacity="1" fill-rule="nonzero"/><path fill="#4db748" d="M 230.523438 1176.269531 C 189.050781 1185.910156 146.855469 1192.429688 104.410156 1195.757812 C 90.351562 1187.097656 82.097656 1171.492188 74.363281 1156.257812 C 83.753906 1155.964844 93.144531 1155.671875 102.535156 1155.378906 C 111.433594 1155.101562 120.367188 1154.820312 129.144531 1153.332031 C 136.5625 1152.070312 143.800781 1149.957031 151.085938 1148.074219 C 173.746094 1142.214844 196.921875 1138.546875 219.625 1132.855469 C 242.324219 1127.164062 264.835938 1119.285156 282.6875 1106.519531 C 303.667969 1101.035156 323.230469 1091.140625 341.957031 1080.207031 C 362.25 1068.355469 381.78125 1055.195312 400.386719 1040.835938 C 402.722656 1055.851562 402.914062 1071.195312 400.957031 1086.265625 C 400.429688 1090.300781 399.714844 1094.421875 397.628906 1097.914062 C 395.265625 1101.863281 391.382812 1104.628906 387.519531 1107.125 C 376.636719 1114.15625 365.027344 1119.980469 353.363281 1125.625 C 315.855469 1143.777344 278.894531 1165.023438 230.523438 1176.269531 Z M 230.523438 1176.269531 " fill-opacity="1" fill-rule="nonzero"/><path fill="#552d2d" d="M 164.027344 852.636719 C 162.125 852.636719 160.253906 851.730469 159.09375 850.046875 C 153.285156 841.628906 150.203125 832.074219 149.679688 820.839844 C 148.15625 788.121094 174.890625 760.195312 209.277344 758.589844 C 225.890625 757.835938 241.777344 763.21875 254.0625 773.804688 C 266.441406 784.472656 273.667969 799.109375 274.40625 815.023438 C 274.871094 824.949219 272.699219 834.894531 268.132812 843.789062 C 266.621094 846.730469 263.003906 847.898438 260.066406 846.382812 C 257.125 844.867188 255.960938 841.253906 257.476562 838.3125 C 261.089844 831.277344 262.804688 823.417969 262.4375 815.582031 C 261.851562 802.992188 256.101562 791.382812 246.242188 782.886719 C 236.292969 774.3125 223.433594 769.933594 209.835938 770.5625 C 182.050781 771.859375 160.429688 794.164062 161.648438 820.28125 C 162.070312 829.335938 164.390625 836.628906 168.953125 843.238281 C 170.832031 845.960938 170.148438 849.695312 167.425781 851.574219 C 166.386719 852.292969 165.203125 852.636719 164.027344 852.636719 Z M 164.027344 852.636719 " fill-opacity="1" fill-rule="nonzero"/><path fill="#f9b234" d="M 167.546875 1064.304688 C 196.335938 1057.753906 224.355469 1047.839844 250.855469 1034.820312 C 294.011719 1015.445312 334.578125 992.746094 373.113281 967 C 364.109375 953.269531 354.308594 941.71875 342.480469 933.21875 C 310.375 956 275.929688 975.472656 240.25 992.988281 C 211.203125 1006.566406 180.804688 1017.253906 149.03125 1025.726562 C 116.195312 1034.0625 82.664062 1039.660156 48.902344 1042.445312 C 46.824219 1053.335938 46.121094 1064.492188 46.816406 1075.5625 C 46.890625 1076.773438 46.996094 1078.027344 47.605469 1079.078125 C 49.015625 1081.515625 52.359375 1081.808594 55.175781 1081.769531 C 93.015625 1081.261719 130.277344 1072.78125 167.546875 1064.304688 Z M 167.546875 1064.304688 " fill-opacity="1" fill-rule="nonzero"/><path fill="#552d2d" d="M 47.683594 1046.96875 C 44.578125 1046.96875 41.953125 1044.574219 41.714844 1041.425781 C 41.46875 1038.125 43.9375 1035.25 47.238281 1035 C 151.601562 1027.125 255.34375 988.863281 339.34375 927.253906 C 342.015625 925.296875 345.757812 925.878906 347.71875 928.542969 C 349.671875 931.214844 349.09375 934.964844 346.429688 936.921875 C 260.644531 999.835938 154.710938 1038.914062 48.140625 1046.949219 C 47.988281 1046.960938 47.832031 1046.96875 47.683594 1046.96875 Z M 47.683594 1046.96875 " fill-opacity="1" fill-rule="nonzero"/><path fill="#552d2d" d="M 46.472656 1086.792969 C 43.261719 1086.792969 40.601562 1084.242188 40.488281 1081.003906 C 40.375 1077.699219 42.964844 1074.925781 46.273438 1074.808594 C 161.773438 1070.847656 275.980469 1030.308594 367.851562 960.664062 C 370.492188 958.660156 374.246094 959.183594 376.242188 961.820312 C 378.242188 964.457031 377.722656 968.214844 375.085938 970.214844 C 281.265625 1041.34375 164.632812 1082.742188 46.683594 1086.789062 C 46.613281 1086.792969 46.542969 1086.792969 46.472656 1086.792969 Z M 46.472656 1086.792969 " fill-opacity="1" fill-rule="nonzero"/><path fill="#552d2d" d="M 72.371094 1162.519531 C 69.148438 1162.519531 66.488281 1159.957031 66.386719 1156.714844 C 66.285156 1153.40625 68.882812 1150.640625 72.1875 1150.539062 C 188.625 1146.921875 303.695312 1106.1875 396.207031 1035.832031 C 398.847656 1033.828125 402.601562 1034.347656 404.601562 1036.976562 C 406.605469 1039.613281 406.09375 1043.375 403.457031 1045.375 C 308.980469 1117.222656 191.464844 1158.824219 72.5625 1162.515625 C 72.5 1162.519531 72.433594 1162.519531 72.371094 1162.519531 Z M 72.371094 1162.519531 " fill-opacity="1" fill-rule="nonzero"/><path fill="#552d2d" d="M 103.347656 1200.867188 C 100.164062 1200.867188 97.511719 1198.359375 97.367188 1195.144531 C 97.21875 1191.839844 99.773438 1189.039062 103.078125 1188.886719 C 208.363281 1184.089844 309.304688 1150.34375 394.984375 1091.292969 C 397.710938 1089.410156 401.4375 1090.105469 403.316406 1092.828125 C 405.191406 1095.554688 404.503906 1099.285156 401.78125 1101.164062 C 314.25 1161.488281 211.152344 1195.960938 103.625 1200.859375 C 103.53125 1200.867188 103.441406 1200.867188 103.347656 1200.867188 Z M 103.347656 1200.867188 " fill-opacity="1" fill-rule="nonzero"/><path fill="#552d2d" d="M 46.472656 1086.792969 C 43.421875 1086.792969 40.816406 1084.480469 40.515625 1081.382812 C 40.210938 1078.253906 40.011719 1075.445312 39.859375 1072.273438 C 39.347656 1061.25 39.765625 1050.769531 41.136719 1040.230469 C 41.558594 1036.949219 44.59375 1034.632812 47.847656 1035.0625 C 51.132812 1035.488281 53.445312 1038.496094 53.019531 1041.777344 C 51.738281 1051.609375 51.351562 1061.402344 51.832031 1071.714844 C 51.96875 1074.675781 52.15625 1077.296875 52.4375 1080.214844 C 52.761719 1083.511719 50.351562 1086.441406 47.058594 1086.765625 C 46.863281 1086.785156 46.664062 1086.792969 46.472656 1086.792969 Z M 46.472656 1086.792969 " fill-opacity="1" fill-rule="nonzero"/><path fill="#552d2d" d="M 103.347656 1200.867188 C 101.9375 1200.867188 100.515625 1200.371094 99.375 1199.355469 C 86.992188 1188.359375 77.007812 1176.300781 66.996094 1160.253906 C 65.246094 1157.445312 66.097656 1153.75 68.90625 1151.996094 C 71.710938 1150.242188 75.410156 1151.101562 77.15625 1153.90625 C 86.535156 1168.9375 95.839844 1180.191406 107.328125 1190.394531 C 109.800781 1192.589844 110.027344 1196.375 107.832031 1198.851562 C 106.648438 1200.1875 105 1200.867188 103.347656 1200.867188 Z M 103.347656 1200.867188 " fill-opacity="1" fill-rule="nonzero"/><path fill="#552d2d" d="M 398.386719 1102.222656 C 398.027344 1102.222656 397.660156 1102.1875 397.292969 1102.121094 C 394.039062 1101.519531 391.890625 1098.390625 392.492188 1095.136719 C 394.882812 1082.21875 395.777344 1068.953125 395.160156 1055.703125 C 394.949219 1051.144531 394.554688 1046.5625 393.996094 1042.089844 C 393.582031 1038.808594 395.910156 1035.8125 399.191406 1035.398438 C 402.425781 1034.976562 405.46875 1037.316406 405.882812 1040.597656 C 406.480469 1045.378906 406.902344 1050.273438 407.132812 1055.144531 C 407.789062 1069.3125 406.828125 1083.5 404.273438 1097.320312 C 403.738281 1100.203125 401.21875 1102.222656 398.386719 1102.222656 Z M 398.386719 1102.222656 " fill-opacity="1" fill-rule="nonzero"/><path fill="#552d2d" d="M 371.71875 971.332031 C 369.78125 971.332031 367.878906 970.390625 366.726562 968.65625 C 358.695312 956.570312 349.664062 946.058594 339.121094 936.519531 C 336.667969 934.300781 336.476562 930.511719 338.695312 928.054688 C 340.910156 925.605469 344.703125 925.410156 347.160156 927.628906 C 358.449219 937.847656 368.113281 949.09375 376.703125 962.019531 C 378.535156 964.777344 377.789062 968.496094 375.03125 970.328125 C 374.011719 971.007812 372.859375 971.332031 371.71875 971.332031 Z M 371.71875 971.332031 " fill-opacity="1" fill-rule="nonzero"/><path fill="#f9b234" d="M 1301.96875 1136.304688 C 1242.261719 1144.683594 1181.144531 1142.890625 1122.035156 1131.027344 C 1111.960938 1116.6875 1105.515625 1101.574219 1105.359375 1086.296875 C 1105.199219 1071.023438 1111.328125 1055.777344 1122.011719 1044.863281 C 1116.421875 1030.359375 1116.054688 1012.496094 1121.824219 996.796875 C 1127.589844 981.101562 1139.433594 967.726562 1155.746094 961.351562 C 1210.335938 947.464844 1267.074219 942.0625 1322.652344 946.5 C 1332.476562 940.734375 1345.054688 942.695312 1355.613281 946.96875 C 1370.910156 953.160156 1384.652344 964.285156 1391.609375 979.257812 C 1398.5625 994.226562 1397.800781 1013.148438 1387.648438 1026.164062 C 1381.394531 1034.183594 1371.890625 1039.589844 1362.03125 1041.613281 C 1366.628906 1050.910156 1368.519531 1061.527344 1367.414062 1071.839844 C 1366.039062 1084.691406 1360.023438 1096.890625 1351.144531 1106.28125 C 1342.265625 1115.667969 1330.621094 1122.28125 1318.179688 1125.761719 C 1312.832031 1127.257812 1306.625 1128.710938 1301.96875 1136.304688 Z M 1301.96875 1136.304688 " fill-opacity="1" fill-rule="nonzero"/><path fill="#f9b234" d="M 1246.410156 980.433594 C 1234.515625 980.980469 1219.132812 976.324219 1207.617188 973.296875 C 1196.097656 970.265625 1184.582031 966.863281 1172.707031 965.953125 C 1160.832031 965.042969 1148.355469 966.828125 1138.445312 973.433594 C 1134.050781 963.726562 1134.765625 951.871094 1140.292969 942.761719 C 1145.824219 933.65625 1156.011719 927.554688 1166.648438 926.980469 C 1180.25 900.773438 1208.378906 886.082031 1235.035156 890.632812 C 1236.503906 888.984375 1239.042969 889.03125 1241.242188 889.203125 C 1271.675781 891.613281 1303.199219 894.34375 1329.824219 909.28125 C 1339.894531 914.933594 1349.609375 923.113281 1352.257812 934.355469 C 1354.472656 943.765625 1351.164062 953.941406 1344.957031 961.355469 C 1338.753906 968.765625 1329.949219 973.640625 1320.757812 976.617188 C 1311.5625 979.59375 1301.90625 980.816406 1292.316406 981.984375 C 1285.15625 982.855469 1256.550781 979.964844 1246.410156 980.433594 Z M 1246.410156 980.433594 " fill-opacity="1" fill-rule="nonzero"/><path fill="#552d2d" d="M 1303.238281 926.074219 C 1281.800781 926.074219 1260.285156 921.128906 1241.125 911.628906 C 1234.328125 908.257812 1225.003906 902.605469 1222.515625 892.507812 C 1220.941406 886.113281 1222.605469 879.957031 1224.640625 874.253906 C 1227.601562 865.929688 1231.933594 857.445312 1238.265625 847.546875 C 1242.222656 841.371094 1249.421875 838.113281 1256.640625 839.238281 C 1284.542969 843.609375 1310.230469 849.835938 1335.175781 858.277344 C 1341.414062 860.386719 1346.003906 865.996094 1346.875 872.5625 C 1347.964844 880.765625 1348.613281 886.847656 1349.253906 892.902344 C 1349.765625 897.753906 1350.375 903.492188 1348.121094 909.054688 C 1344.671875 917.546875 1335.980469 922.824219 1322.292969 924.75 C 1315.992188 925.636719 1309.617188 926.074219 1303.238281 926.074219 Z M 1253.808594 851.003906 C 1251.636719 851.003906 1249.570312 852.121094 1248.359375 854.011719 C 1242.527344 863.121094 1238.574219 870.832031 1235.925781 878.277344 C 1234.519531 882.21875 1233.332031 886.320312 1234.152344 889.640625 C 1235.132812 893.644531 1239.042969 897.21875 1246.445312 900.886719 C 1269.171875 912.15625 1295.519531 916.414062 1320.625 912.882812 C 1326.917969 911.996094 1334.871094 909.832031 1337.019531 904.542969 C 1338.144531 901.769531 1337.730469 897.855469 1337.363281 894.402344 C 1336.707031 888.207031 1336.070312 882.21875 1335 874.140625 C 1334.71875 872.058594 1333.285156 870.289062 1331.335938 869.628906 C 1307.046875 861.410156 1282.003906 855.34375 1254.789062 851.082031 C 1254.460938 851.03125 1254.132812 851.003906 1253.808594 851.003906 Z M 1253.808594 851.003906 " fill-opacity="1" fill-rule="nonzero"/><path fill="#552d2d" d="M 1310.234375 862.433594 C 1308.726562 862.433594 1307.214844 861.867188 1306.050781 860.730469 C 1303.683594 858.417969 1303.640625 854.625 1305.949219 852.253906 C 1311.28125 846.789062 1315.515625 841.605469 1318.835938 834.046875 C 1321.140625 828.8125 1322.304688 820.753906 1318.019531 815.269531 C 1315.949219 812.617188 1312.515625 810.585938 1308.363281 809.554688 C 1305.855469 808.925781 1302.152344 808.4375 1298.738281 809.648438 C 1292.820312 811.753906 1289.339844 818.652344 1288.511719 824.558594 C 1287.476562 831.996094 1289.769531 842.070312 1291.449219 849.425781 C 1292.183594 852.652344 1290.167969 855.863281 1286.941406 856.601562 C 1283.714844 857.339844 1280.507812 855.316406 1279.769531 852.089844 C 1277.882812 843.828125 1275.304688 832.515625 1276.648438 822.902344 C 1278.265625 811.320312 1285.359375 801.683594 1294.722656 798.355469 C 1299.644531 796.605469 1305.359375 796.453125 1311.253906 797.921875 C 1316.019531 799.105469 1322.699219 801.796875 1327.460938 807.886719 C 1333.765625 815.957031 1334.660156 827.828125 1329.804688 838.871094 C 1326.339844 846.753906 1321.910156 853.058594 1314.519531 860.628906 C 1313.347656 861.832031 1311.789062 862.433594 1310.234375 862.433594 Z M 1310.234375 862.433594 " fill-opacity="1" fill-rule="nonzero"/><path fill="#552d2d" d="M 1138.863281 979.074219 C 1137.027344 979.074219 1135.222656 978.238281 1134.046875 976.652344 C 1123.125 961.929688 1130.164062 940.40625 1143.3125 930.296875 C 1154.210938 921.917969 1169.425781 918.40625 1188.519531 919.855469 C 1196.578125 920.464844 1204.558594 921.777344 1212.277344 923.042969 C 1220.609375 924.410156 1228.480469 925.699219 1236.515625 926.210938 C 1252.332031 927.230469 1268.617188 922.511719 1278.964844 913.921875 C 1281.511719 911.8125 1285.289062 912.164062 1287.398438 914.710938 C 1289.511719 917.257812 1289.160156 921.035156 1286.613281 923.148438 C 1273.816406 933.765625 1254.824219 939.367188 1235.753906 938.175781 C 1227.125 937.625 1218.589844 936.226562 1210.339844 934.871094 C 1202.871094 933.644531 1195.148438 932.378906 1187.613281 931.804688 C 1171.542969 930.582031 1159.09375 933.277344 1150.613281 939.800781 C 1141.898438 946.5 1137.078125 960.628906 1143.667969 969.511719 C 1145.640625 972.167969 1145.085938 975.921875 1142.429688 977.894531 C 1141.355469 978.691406 1140.101562 979.074219 1138.863281 979.074219 Z M 1138.863281 979.074219 " fill-opacity="1" fill-rule="nonzero"/><path fill="#552d2d" d="M 1122.675781 1049.160156 C 1120.253906 1049.160156 1117.976562 1047.679688 1117.070312 1045.28125 C 1110.933594 1029 1110.066406 1011.984375 1114.625 997.375 C 1119.863281 980.585938 1132.65625 967.007812 1148.007812 961.933594 C 1164.601562 956.453125 1182 960.695312 1197.351562 964.445312 C 1233.941406 973.378906 1272.675781 981.382812 1308.695312 972.847656 C 1319.605469 970.265625 1327.953125 966.578125 1334.214844 961.578125 C 1341.507812 955.746094 1346.074219 947.628906 1346.433594 939.863281 C 1346.8125 931.726562 1342.03125 923.699219 1335.320312 921.191406 C 1332.222656 920.03125 1330.648438 916.578125 1331.808594 913.480469 C 1332.960938 910.378906 1336.414062 908.8125 1339.515625 909.964844 C 1351.078125 914.289062 1359.023438 927.09375 1358.402344 940.417969 C 1357.878906 951.746094 1351.789062 962.871094 1341.691406 970.941406 C 1334.015625 977.074219 1324.125 981.511719 1311.453125 984.511719 C 1272.839844 993.65625 1232.515625 985.367188 1194.511719 976.089844 C 1180.730469 972.726562 1165.109375 968.90625 1151.765625 973.316406 C 1140.019531 977.195312 1130.167969 987.785156 1126.0625 1000.945312 C 1122.296875 1013.015625 1123.082031 1027.261719 1128.28125 1041.050781 C 1129.445312 1044.148438 1127.886719 1047.605469 1124.789062 1048.773438 C 1124.09375 1049.035156 1123.378906 1049.160156 1122.675781 1049.160156 Z M 1122.675781 1049.160156 " fill-opacity="1" fill-rule="nonzero"/><path fill="#f9b234" d="M 1316.109375 1124.980469 C 1320.292969 1140.597656 1318.414062 1157.832031 1310.601562 1171.988281 C 1302.792969 1186.144531 1289.0625 1196.992188 1273.386719 1200.929688 C 1263.125 1203.503906 1252.144531 1203.160156 1242.066406 1199.941406 C 1224.984375 1223.417969 1203.292969 1242.585938 1178.644531 1256.574219 C 1170.046875 1261.457031 1160.886719 1265.777344 1151.070312 1266.941406 C 1141.25 1268.105469 1130.605469 1265.703125 1123.628906 1258.695312 C 1119.53125 1254.582031 1116.957031 1249.214844 1114.792969 1243.832031 C 1104.949219 1219.328125 1102.140625 1192.472656 1102.824219 1166.070312 C 1103.082031 1156.222656 1103.847656 1146.207031 1107.410156 1137.019531 C 1110.976562 1127.832031 1117.71875 1119.46875 1126.582031 1117.914062 C 1138.203125 1109.652344 1153.511719 1109.351562 1167.761719 1109.652344 C 1216.953125 1110.695312 1266.066406 1115.207031 1316.109375 1124.980469 Z M 1316.109375 1124.980469 " fill-opacity="1" fill-rule="nonzero"/><path fill="#fefefe" d="M 1333.257812 863.953125 C 1307.472656 855.230469 1281.6875 849.226562 1255.714844 845.160156 C 1250.847656 844.398438 1245.972656 846.628906 1243.3125 850.78125 C 1238.144531 858.855469 1233.507812 867.210938 1230.28125 876.265625 C 1228.585938 881.023438 1227.125 886.167969 1228.332031 891.074219 C 1230.117188 898.324219 1237.101562 902.941406 1243.785156 906.257812 C 1267.640625 918.085938 1295.09375 922.523438 1321.457031 918.816406 C 1329.867188 917.632812 1339.371094 914.671875 1342.566406 906.800781 C 1344.222656 902.726562 1343.785156 898.144531 1343.320312 893.769531 C 1342.675781 887.683594 1342.03125 881.597656 1340.9375 873.351562 C 1340.363281 869.03125 1337.382812 865.351562 1333.257812 863.953125 Z M 1333.257812 863.953125 " fill-opacity="1" fill-rule="nonzero"/><path fill="#552d2d" d="M 1166.019531 932.21875 C 1165.070312 932.21875 1164.109375 931.992188 1163.210938 931.515625 C 1160.292969 929.964844 1159.183594 926.335938 1160.738281 923.414062 C 1172.742188 900.832031 1199.660156 884.738281 1227.722656 883.355469 C 1231.023438 883.1875 1233.839844 885.742188 1234.003906 889.046875 C 1234.164062 892.351562 1231.617188 895.164062 1228.3125 895.328125 C 1204.3125 896.507812 1181.40625 910.054688 1171.3125 929.042969 C 1170.238281 931.066406 1168.164062 932.21875 1166.019531 932.21875 Z M 1166.019531 932.21875 " fill-opacity="1" fill-rule="nonzero"/><path fill="#552d2d" d="M 1303.238281 926.074219 C 1281.800781 926.074219 1260.285156 921.128906 1241.125 911.628906 C 1234.328125 908.257812 1225.003906 902.605469 1222.515625 892.507812 C 1220.941406 886.113281 1222.605469 879.957031 1224.640625 874.253906 C 1227.601562 865.929688 1231.933594 857.445312 1238.265625 847.546875 C 1242.222656 841.371094 1249.421875 838.113281 1256.640625 839.238281 C 1284.542969 843.609375 1310.230469 849.835938 1335.175781 858.277344 C 1341.414062 860.386719 1346.003906 865.996094 1346.875 872.5625 C 1347.964844 880.765625 1348.613281 886.847656 1349.253906 892.902344 C 1349.765625 897.753906 1350.375 903.492188 1348.121094 909.054688 C 1344.671875 917.546875 1335.980469 922.824219 1322.292969 924.75 C 1315.992188 925.636719 1309.617188 926.074219 1303.238281 926.074219 Z M 1253.808594 851.003906 C 1251.636719 851.003906 1249.570312 852.121094 1248.359375 854.011719 C 1242.527344 863.121094 1238.574219 870.832031 1235.925781 878.277344 C 1234.519531 882.21875 1233.332031 886.320312 1234.152344 889.640625 C 1235.132812 893.644531 1239.042969 897.21875 1246.445312 900.886719 C 1269.171875 912.15625 1295.519531 916.414062 1320.625 912.882812 C 1326.917969 911.996094 1334.871094 909.832031 1337.019531 904.542969 C 1338.144531 901.769531 1337.730469 897.855469 1337.363281 894.402344 C 1336.707031 888.207031 1336.070312 882.21875 1335 874.140625 C 1334.71875 872.058594 1333.285156 870.289062 1331.335938 869.628906 C 1307.046875 861.410156 1282.003906 855.34375 1254.789062 851.082031 C 1254.460938 851.03125 1254.132812 851.003906 1253.808594 851.003906 Z M 1253.808594 851.003906 " fill-opacity="1" fill-rule="nonzero"/><path fill="#552d2d" d="M 1322.695312 907.371094 C 1319.792969 907.371094 1317.246094 905.257812 1316.785156 902.300781 L 1313.457031 880.867188 C 1312.949219 877.597656 1315.1875 874.535156 1318.457031 874.027344 C 1321.699219 873.5 1324.785156 875.753906 1325.296875 879.03125 L 1328.625 900.457031 C 1329.132812 903.726562 1326.894531 906.789062 1323.625 907.300781 C 1323.3125 907.347656 1323.003906 907.371094 1322.695312 907.371094 Z M 1322.695312 907.371094 " fill-opacity="1" fill-rule="nonzero"/><path fill="#552d2d" d="M 1282.589844 902.121094 C 1281.941406 902.121094 1281.28125 902.015625 1280.636719 901.792969 C 1277.507812 900.710938 1275.847656 897.300781 1276.925781 894.171875 L 1285.578125 869.121094 C 1286.660156 865.996094 1290.0625 864.332031 1293.195312 865.417969 C 1296.324219 866.496094 1297.980469 869.910156 1296.902344 873.039062 L 1288.253906 898.082031 C 1287.394531 900.5625 1285.074219 902.121094 1282.589844 902.121094 Z M 1282.589844 902.121094 " fill-opacity="1" fill-rule="nonzero"/><path fill="#552d2d" d="M 1251.503906 891.980469 C 1250.167969 891.980469 1248.820312 891.539062 1247.707031 890.621094 C 1245.148438 888.523438 1244.777344 884.746094 1246.875 882.1875 L 1262.992188 862.527344 C 1265.089844 859.972656 1268.867188 859.597656 1271.421875 861.695312 C 1273.980469 863.796875 1274.355469 867.570312 1272.253906 870.128906 L 1256.136719 889.789062 C 1254.953125 891.234375 1253.234375 891.980469 1251.503906 891.980469 Z M 1251.503906 891.980469 " fill-opacity="1" fill-rule="nonzero"/><path fill="#552d2d" d="M 1245.429688 1205.628906 C 1244.742188 1205.628906 1244.042969 1205.507812 1243.355469 1205.257812 C 1209.886719 1192.910156 1174.40625 1180.703125 1140.953125 1178.894531 C 1134.652344 1178.546875 1127.363281 1178.519531 1121.148438 1180.902344 C 1116.894531 1182.53125 1111.863281 1185.734375 1110.757812 1196.085938 C 1110.40625 1199.371094 1107.480469 1201.757812 1104.164062 1201.40625 C 1100.871094 1201.054688 1098.492188 1198.097656 1098.847656 1194.808594 C 1100.191406 1182.21875 1106.253906 1173.773438 1116.859375 1169.710938 C 1125.179688 1166.523438 1134.046875 1166.515625 1141.605469 1166.925781 C 1176.714844 1168.828125 1213.171875 1181.347656 1247.5 1194.011719 C 1250.609375 1195.15625 1252.195312 1198.605469 1251.054688 1201.707031 C 1250.15625 1204.128906 1247.867188 1205.628906 1245.429688 1205.628906 Z M 1245.429688 1205.628906 " fill-opacity="1" fill-rule="nonzero"/><path fill="#552d2d" d="M 1316.273438 1129.824219 C 1313.40625 1129.824219 1310.871094 1127.761719 1310.371094 1124.839844 C 1309.816406 1121.578125 1312.007812 1118.480469 1315.269531 1117.921875 C 1331.191406 1115.199219 1347.5625 1103.699219 1355.085938 1089.957031 C 1362.050781 1077.238281 1363.410156 1061.339844 1358.902344 1047.53125 C 1304.734375 1050.34375 1251.699219 1047.933594 1201.199219 1040.371094 L 1198.179688 1039.914062 C 1177.917969 1036.855469 1156.964844 1033.691406 1139.351562 1041.546875 C 1125.699219 1047.636719 1115.234375 1060.492188 1112.039062 1075.101562 C 1108.84375 1089.707031 1112.980469 1105.761719 1122.84375 1117 C 1125.023438 1119.488281 1124.777344 1123.273438 1122.292969 1125.457031 C 1119.804688 1127.644531 1116.023438 1127.394531 1113.839844 1124.90625 C 1101.515625 1110.859375 1096.34375 1090.792969 1100.335938 1072.539062 C 1104.332031 1054.28125 1117.410156 1038.210938 1134.472656 1030.601562 C 1155.289062 1021.316406 1178.003906 1024.746094 1199.96875 1028.066406 L 1202.972656 1028.515625 C 1254.03125 1036.164062 1307.753906 1038.457031 1362.625 1035.324219 C 1365.214844 1035.179688 1367.5 1036.644531 1368.488281 1038.980469 C 1376.164062 1057.175781 1375.082031 1078.386719 1365.59375 1095.714844 C 1356.289062 1112.714844 1336.875 1126.386719 1317.285156 1129.734375 C 1316.945312 1129.796875 1316.605469 1129.824219 1316.273438 1129.824219 Z M 1316.273438 1129.824219 " fill-opacity="1" fill-rule="nonzero"/><path fill="#552d2d" d="M 1146.6875 1272.707031 C 1137.222656 1272.707031 1128.472656 1269.882812 1121.855469 1264.542969 C 1111.789062 1256.421875 1107.664062 1243.539062 1104.960938 1232.011719 C 1098.625 1205.042969 1096.136719 1177.066406 1097.75 1151.074219 C 1096.402344 1131.824219 1111.367188 1116.058594 1125.960938 1109.515625 C 1141.285156 1102.644531 1158.257812 1102.496094 1174.34375 1102.9375 C 1218.859375 1104.15625 1265.617188 1109.058594 1317.289062 1117.921875 C 1319.5 1118.300781 1321.3125 1119.882812 1321.988281 1122.015625 C 1329.027344 1144.21875 1323.304688 1169.554688 1307.402344 1186.566406 C 1292.367188 1202.652344 1269.289062 1210.144531 1247.710938 1206.246094 C 1230.152344 1226.910156 1208.667969 1245.207031 1185.390625 1259.308594 C 1176.992188 1264.394531 1166.875 1269.871094 1155.515625 1271.910156 C 1152.535156 1272.441406 1149.578125 1272.707031 1146.6875 1272.707031 Z M 1165.238281 1114.777344 C 1153.308594 1114.777344 1141.308594 1115.765625 1130.863281 1120.453125 C 1119.882812 1125.375 1108.585938 1136.890625 1109.726562 1150.535156 C 1109.75 1150.828125 1109.753906 1151.125 1109.734375 1151.417969 C 1108.140625 1176.367188 1110.523438 1203.289062 1116.625 1229.273438 C 1118.976562 1239.300781 1122.148438 1249.382812 1129.378906 1255.214844 C 1135.226562 1259.929688 1144.214844 1261.757812 1153.402344 1260.109375 C 1162.832031 1258.417969 1171.726562 1253.574219 1179.183594 1249.054688 C 1202.371094 1235.011719 1223.679688 1216.605469 1240.808594 1195.824219 C 1242.269531 1194.046875 1244.613281 1193.269531 1246.855469 1193.8125 C 1265.039062 1198.273438 1285.859375 1192.066406 1298.652344 1178.378906 C 1310.625 1165.570312 1315.585938 1146.175781 1311.523438 1129.101562 C 1261.902344 1120.734375 1216.878906 1116.089844 1174.015625 1114.917969 C 1171.113281 1114.839844 1168.175781 1114.777344 1165.238281 1114.777344 Z M 1165.238281 1114.777344 " fill-opacity="1" fill-rule="nonzero"/><path fill="#552d2d" d="M 1353.464844 1047.789062 C 1350.25 1047.789062 1347.59375 1045.242188 1347.480469 1042.003906 C 1347.367188 1038.695312 1349.953125 1035.921875 1353.257812 1035.808594 C 1373.425781 1035.109375 1384.304688 1023.664062 1387.761719 1013.1875 C 1392.074219 1000.121094 1390.414062 986.191406 1383.316406 975.925781 C 1376.210938 965.640625 1364.863281 957.039062 1350.5 951.050781 C 1347.445312 949.777344 1346.003906 946.269531 1347.277344 943.214844 C 1348.546875 940.160156 1352.046875 938.71875 1355.109375 939.988281 C 1371.597656 946.863281 1384.757812 956.929688 1393.175781 969.109375 C 1402.390625 982.449219 1404.621094 1000.332031 1399.140625 1016.945312 C 1393.203125 1034.929688 1375.359375 1047.035156 1353.675781 1047.789062 C 1353.605469 1047.789062 1353.535156 1047.789062 1353.464844 1047.789062 Z M 1353.464844 1047.789062 " fill-opacity="1" fill-rule="nonzero"/><path fill="#f09a61" d="M 917.804688 562.988281 C 924.1875 541.144531 936.320312 520.617188 954.144531 506.476562 C 971.96875 492.332031 995.730469 485.113281 1018.066406 489.4375 C 1040.398438 493.765625 1060.5 510.472656 1066.601562 532.394531 C 1073.15625 555.925781 1063.066406 581.925781 1045.585938 598.980469 C 1028.105469 616.035156 1004.332031 625.25 980.226562 631.511719 C 953.1875 625.40625 929.964844 604.550781 917.804688 562.988281 Z M 917.804688 562.988281 " fill-opacity="1" fill-rule="nonzero"/><path fill="#f8c7d0" d="M 1014.164062 525.917969 C 989.429688 528.671875 966.503906 544.375 954.988281 566.445312 C 951.460938 573.207031 949.03125 581.640625 952.855469 588.234375 C 956.441406 594.421875 964.25 596.703125 971.378906 597.203125 C 991.328125 598.601562 1011.726562 589.691406 1024.257812 574.097656 C 1030.675781 566.109375 1035.171875 555.921875 1033.816406 545.765625 C 1032.460938 535.605469 1023.835938 524.84375 1014.164062 525.917969 Z M 1014.164062 525.917969 " fill-opacity="1" fill-rule="nonzero"/><path fill="#552d2d" d="M 980.421875 636.234375 C 977.648438 636.234375 975.15625 634.289062 974.5625 631.464844 C 973.886719 628.222656 975.964844 625.050781 979.207031 624.371094 C 1006.027344 618.769531 1026.953125 608.785156 1041.402344 594.6875 C 1058.757812 577.761719 1066.382812 553.941406 1060.832031 534.003906 C 1055.519531 514.925781 1037.875 499.378906 1016.925781 495.320312 C 997.234375 491.511719 975.175781 497.4375 957.867188 511.171875 C 942.179688 523.617188 930 542.617188 923.558594 564.671875 C 922.628906 567.847656 919.289062 569.675781 916.128906 568.742188 C 912.949219 567.8125 911.128906 564.488281 912.054688 561.308594 C 919.1875 536.894531 932.8125 515.753906 950.421875 501.78125 C 970.4375 485.902344 996.152344 479.089844 1019.203125 483.554688 C 1044.503906 488.457031 1065.871094 507.4375 1072.375 530.789062 C 1079.082031 554.878906 1070.210938 583.332031 1049.769531 603.273438 C 1033.660156 618.984375 1010.742188 630.03125 981.652344 636.105469 C 981.238281 636.191406 980.828125 636.234375 980.421875 636.234375 Z M 980.421875 636.234375 " fill-opacity="1" fill-rule="nonzero"/><path fill="#552d2d" d="M 949.222656 583.863281 C 948.636719 583.863281 948.039062 583.777344 947.449219 583.59375 C 944.285156 582.613281 942.519531 579.257812 943.5 576.09375 C 953.277344 544.542969 984.316406 520.722656 1017.304688 519.453125 C 1020.738281 519.363281 1023.394531 521.90625 1023.519531 525.210938 C 1023.648438 528.519531 1021.070312 531.304688 1017.765625 531.429688 C 989.683594 532.511719 963.265625 552.789062 954.941406 579.644531 C 954.148438 582.214844 951.777344 583.863281 949.222656 583.863281 Z M 949.222656 583.863281 " fill-opacity="1" fill-rule="nonzero"/><path fill="#f09a61" d="M 579.535156 562.988281 C 573.15625 541.144531 561.019531 520.617188 543.199219 506.476562 C 525.375 492.332031 501.613281 485.113281 479.277344 489.4375 C 456.945312 493.765625 436.84375 510.472656 430.738281 532.394531 C 424.1875 555.925781 434.273438 581.925781 451.757812 598.980469 C 469.238281 616.035156 493.011719 625.25 517.117188 631.511719 C 544.152344 625.40625 567.375 604.550781 579.535156 562.988281 Z M 579.535156 562.988281 " fill-opacity="1" fill-rule="nonzero"/><path fill="#f8c7d0" d="M 483.175781 525.917969 C 507.910156 528.671875 530.839844 544.375 542.355469 566.445312 C 545.882812 573.207031 548.3125 581.640625 544.488281 588.234375 C 540.902344 594.421875 533.09375 596.703125 525.964844 597.203125 C 506.015625 598.601562 485.617188 589.691406 473.085938 574.097656 C 466.667969 566.109375 462.171875 555.921875 463.527344 545.765625 C 464.882812 535.605469 473.503906 524.84375 483.175781 525.917969 Z M 483.175781 525.917969 " fill-opacity="1" fill-rule="nonzero"/><path fill="#552d2d" d="M 516.917969 636.234375 C 516.511719 636.234375 516.101562 636.191406 515.691406 636.105469 C 486.597656 630.03125 463.679688 618.984375 447.574219 603.269531 C 427.136719 583.332031 418.261719 554.882812 424.96875 530.789062 C 431.46875 507.4375 452.835938 488.457031 478.140625 483.554688 C 501.183594 479.082031 526.910156 485.902344 546.921875 501.78125 C 564.53125 515.753906 578.15625 536.894531 585.289062 561.308594 C 586.214844 564.484375 584.394531 567.8125 581.21875 568.742188 C 578.039062 569.675781 574.722656 567.847656 573.789062 564.671875 C 567.34375 542.617188 555.160156 523.617188 539.472656 511.171875 C 522.164062 497.4375 500.082031 491.511719 480.414062 495.320312 C 459.464844 499.378906 441.820312 514.925781 436.511719 534.003906 C 430.957031 553.941406 438.585938 577.761719 455.941406 594.6875 C 470.386719 608.785156 491.3125 618.769531 518.136719 624.371094 C 521.378906 625.046875 523.453125 628.222656 522.777344 631.464844 C 522.1875 634.289062 519.695312 636.234375 516.917969 636.234375 Z M 516.917969 636.234375 " fill-opacity="1" fill-rule="nonzero"/><path fill="#552d2d" d="M 548.117188 583.863281 C 545.5625 583.863281 543.195312 582.214844 542.398438 579.644531 C 534.082031 552.789062 507.660156 532.511719 479.574219 531.429688 C 476.269531 531.304688 473.691406 528.519531 473.820312 525.210938 C 473.949219 521.90625 476.6875 519.367188 480.039062 519.453125 C 513.03125 520.722656 544.070312 544.542969 553.84375 576.097656 C 554.820312 579.257812 553.054688 582.613281 549.894531 583.59375 C 549.300781 583.777344 548.707031 583.863281 548.117188 583.863281 Z M 548.117188 583.863281 " fill-opacity="1" fill-rule="nonzero"/><path fill="#ed2027" d="M 529.066406 524.410156 C 530.550781 474.078125 551.628906 426.226562 578.003906 383.339844 C 604.382812 340.453125 636.289062 301.179688 662.789062 258.371094 C 691.820312 211.460938 714.214844 160.445312 728.597656 107.1875 C 754.953125 125.644531 784.285156 139.839844 815.113281 149.058594 C 824.320312 151.8125 834.703125 154.933594 839.117188 163.472656 C 842.007812 169.066406 841.847656 176.316406 846.347656 180.722656 C 849.308594 183.621094 853.714844 184.621094 856.777344 187.414062 C 859.835938 190.210938 860.164062 196.621094 857.527344 198.324219 C 853.351562 229.648438 862.148438 262.503906 880.789062 290.144531 C 911.304688 334.789062 936.214844 383.265625 954.738281 434.074219 C 963.820312 458.980469 971.460938 485.222656 975.835938 518.257812 C 925.195312 549.4375 872.875 578.945312 816.105469 596.644531 C 759.335938 614.34375 697.335938 619.652344 640.476562 602.234375 C 583.621094 584.820312 528.519531 542.882812 529.066406 524.410156 Z M 529.066406 524.410156 " fill-opacity="1" fill-rule="nonzero"/><path fill="#552d2d" d="M 528.746094 502.832031 C 528.386719 502.832031 528.023438 502.800781 527.652344 502.734375 C 524.402344 502.132812 522.25 499.011719 522.847656 495.753906 C 535.507812 426.914062 573.382812 373.945312 613.472656 317.867188 C 655.777344 258.703125 685.902344 205.988281 711.398438 146.621094 C 712.710938 143.582031 716.234375 142.171875 719.265625 143.480469 C 722.308594 144.789062 723.714844 148.3125 722.410156 151.351562 C 696.558594 211.542969 666.039062 264.949219 623.453125 324.515625 C 583.925781 379.800781 546.808594 431.714844 534.628906 497.921875 C 534.101562 500.8125 531.578125 502.832031 528.746094 502.832031 Z M 528.746094 502.832031 " fill-opacity="1" fill-rule="nonzero"/><path fill="#552d2d" d="M 968 492.488281 C 965.007812 492.488281 962.421875 490.246094 962.058594 487.199219 C 956.199219 437.890625 931.828125 392.230469 908.257812 348.074219 L 903.257812 338.695312 C 896.449219 325.886719 889.65625 315.144531 883.082031 304.75 C 865.714844 277.285156 850.710938 253.558594 851.140625 212.207031 C 851.175781 208.898438 853.914062 206.359375 857.195312 206.277344 C 860.503906 206.3125 863.160156 209.023438 863.125 212.332031 C 862.730469 250.144531 876.179688 271.414062 893.210938 298.34375 C 899.585938 308.429688 906.816406 319.863281 913.835938 333.066406 L 918.824219 342.425781 C 942.917969 387.5625 967.832031 434.238281 973.957031 485.789062 C 974.347656 489.074219 972 492.054688 968.71875 492.445312 C 968.476562 492.472656 968.238281 492.488281 968 492.488281 Z M 968 492.488281 " fill-opacity="1" fill-rule="nonzero"/><path fill="#fefefe" d="M 902.496094 134.609375 C 897.515625 127.96875 898.972656 118.746094 905.660156 113.835938 C 912.375 108.902344 918.175781 102.820312 922.292969 95.597656 C 929.15625 83.546875 930.757812 68.109375 924.566406 55.699219 C 920.4375 47.429688 913.242188 41.015625 905.300781 36.292969 C 892.605469 28.746094 877.296875 25.101562 862.78125 27.828125 C 852.851562 29.691406 843.421875 34.742188 836.628906 41.984375 C 832.75 46.121094 825.929688 44.777344 823.5 39.65625 C 820.78125 33.925781 817.5625 28.476562 813.433594 23.679688 C 806.101562 15.164062 795.382812 8.902344 784.15625 9.429688 C 773.03125 9.949219 762.917969 17.171875 757.003906 26.613281 C 753.203125 32.6875 750.964844 39.570312 750.523438 47.160156 C 750.132812 53.847656 744.90625 59.097656 738.234375 59.648438 C 725.605469 60.6875 713.339844 66.695312 705.140625 76.402344 C 694.070312 89.511719 690.882812 108.808594 697.148438 124.78125 C 702.226562 137.730469 713.34375 148.054688 726.164062 154.6875 C 731.257812 157.320312 734.117188 162.648438 733.613281 168.363281 C 732.335938 182.898438 736.925781 197.960938 746.402344 209.089844 C 758.007812 222.710938 776.597656 230.03125 794.371094 227.980469 C 806.289062 226.601562 817.601562 221.035156 826.867188 213.691406 C 833.578125 208.371094 842.824219 206.625 850.644531 210.117188 C 860.917969 214.707031 873.25 214.988281 883.75 210.695312 C 898.75 204.5625 909.613281 190.027344 912.71875 174.117188 C 915.136719 161.742188 913.121094 148.761719 902.496094 134.609375 Z M 902.496094 134.609375 " fill-opacity="1" fill-rule="nonzero"/><path fill="#552d2d" d="M 788.3125 234.320312 C 770.683594 234.320312 753.347656 226.476562 741.84375 212.976562 C 731.378906 200.691406 726.207031 184.238281 727.648438 167.839844 C 727.941406 164.511719 726.316406 161.511719 723.414062 160.011719 C 708.132812 152.109375 696.824219 140.375 691.570312 126.972656 C 684.449219 108.808594 687.976562 87.441406 700.566406 72.535156 C 709.679688 61.742188 723.226562 54.867188 737.742188 53.675781 C 741.46875 53.367188 744.324219 50.480469 744.539062 46.8125 C 745.035156 38.34375 747.519531 30.476562 751.929688 23.433594 C 759.285156 11.683594 771.527344 4.023438 783.878906 3.441406 C 795.9375 2.855469 808.683594 8.980469 817.972656 19.769531 C 822.050781 24.503906 825.628906 30.171875 828.910156 37.085938 C 829.410156 38.136719 830.378906 38.363281 830.664062 38.410156 C 831.3125 38.503906 831.84375 38.332031 832.257812 37.886719 C 839.910156 29.726562 850.359375 24.058594 861.675781 21.9375 C 876.976562 19.070312 893.550781 22.335938 908.363281 31.140625 C 918.40625 37.117188 925.660156 44.476562 929.925781 53.019531 C 936.695312 66.59375 935.765625 84.046875 927.496094 98.566406 C 923.164062 106.167969 917.011719 112.929688 909.203125 118.664062 C 907.234375 120.109375 905.960938 122.199219 905.613281 124.539062 C 905.277344 126.824219 905.871094 129.121094 907.289062 131.007812 C 917.945312 145.207031 921.644531 159.683594 918.597656 175.265625 C 914.976562 193.804688 902.492188 209.507812 886.015625 216.242188 C 874.128906 221.105469 859.992188 220.859375 848.199219 215.589844 C 842.722656 213.144531 835.816406 214.242188 830.585938 218.386719 C 822.882812 224.496094 810.464844 232.152344 795.058594 233.933594 C 792.8125 234.191406 790.558594 234.320312 788.3125 234.320312 Z M 785.453125 15.390625 C 785.113281 15.390625 784.777344 15.398438 784.441406 15.414062 C 775.953125 15.8125 767.386719 21.324219 762.082031 29.796875 C 758.753906 35.113281 756.878906 41.074219 756.503906 47.511719 C 755.9375 57.203125 748.460938 64.820312 738.726562 65.617188 C 727.363281 66.554688 716.789062 71.894531 709.71875 80.269531 C 700.082031 91.679688 697.269531 108.6875 702.726562 122.59375 C 706.921875 133.289062 716.21875 142.796875 728.917969 149.363281 C 736.113281 153.082031 740.296875 160.75 739.582031 168.890625 C 738.433594 181.914062 742.691406 195.492188 750.964844 205.203125 C 761.21875 217.234375 777.988281 223.835938 793.683594 222.027344 C 806.289062 220.570312 816.664062 214.136719 823.148438 208.996094 C 831.835938 202.105469 843.597656 200.402344 853.085938 204.644531 C 861.949219 208.609375 872.5625 208.792969 881.484375 205.144531 C 894.074219 200 904.027344 187.367188 906.839844 172.96875 C 909.230469 160.738281 906.328125 149.691406 897.707031 138.207031 C 894.355469 133.738281 892.957031 128.265625 893.761719 122.789062 C 894.578125 117.253906 897.546875 112.359375 902.113281 109.003906 C 908.558594 104.273438 913.59375 98.765625 917.085938 92.632812 C 923.402344 81.539062 924.214844 68.414062 919.207031 58.375 C 916.03125 52.011719 910.164062 46.15625 902.238281 41.445312 C 890.117188 34.238281 876.152344 31.414062 863.882812 33.71875 C 855.179688 35.351562 846.835938 39.859375 841 46.085938 C 837.890625 49.402344 833.320312 50.957031 828.816406 50.25 C 824.136719 49.519531 820.121094 46.519531 818.085938 42.226562 C 815.273438 36.289062 812.265625 31.503906 808.894531 27.59375 C 802.265625 19.894531 793.574219 15.390625 785.453125 15.390625 Z M 785.453125 15.390625 " fill-opacity="1" fill-rule="nonzero"/><path fill="#fefefe" d="M 925.925781 670.726562 C 922.449219 668.667969 918.03125 670.5 916.867188 674.371094 C 909.992188 697.171875 888.988281 715.476562 865.207031 718.21875 C 841.699219 720.929688 817.378906 708.222656 805.34375 687.996094 C 803.160156 684.324219 798.203125 683.761719 795.316406 686.914062 C 781.226562 702.285156 760.75 713.109375 739.882812 711.800781 C 720.460938 710.578125 701.992188 697.671875 694.398438 680.105469 C 692.472656 675.652344 686.605469 674.765625 683.675781 678.632812 C 669.964844 696.75 648.746094 707.792969 627.578125 706.554688 C 604.816406 705.222656 583.65625 689.78125 574.742188 668.90625 C 573.230469 665.367188 568.9375 663.953125 565.714844 666.054688 C 549.746094 676.476562 530.929688 680.242188 514.144531 675.582031 C 495.054688 670.28125 479.320312 654.277344 474.339844 635.089844 C 469.65625 617.046875 474.652344 596.828125 486.992188 582.902344 C 488.449219 581.261719 489.015625 579.085938 488.4375 576.972656 C 484.03125 560.804688 483.09375 541.25 490.734375 526.136719 C 498.914062 509.953125 515.679688 499.011719 533.503906 495.71875 C 549.085938 492.839844 565.300781 495.378906 580.054688 501.292969 C 583.304688 502.597656 586.917969 500.75 588.09375 497.453125 C 595.378906 477.023438 618.214844 462.496094 641.089844 464.019531 C 659.957031 465.277344 677.351562 477.351562 686.394531 493.835938 C 688.898438 498.398438 695.371094 498.160156 697.566406 493.445312 C 703.714844 480.234375 714.539062 470.132812 727.488281 464.792969 C 745.953125 457.183594 768.175781 459.496094 784.679688 470.75 C 794.78125 477.636719 802.550781 487.738281 806.984375 499.125 C 808.9375 504.136719 815.636719 504.894531 818.300781 500.21875 C 826.671875 485.535156 841.246094 474.292969 857.742188 472.023438 C 878.667969 469.140625 900.511719 480.992188 908.902344 499.863281 C 910.574219 503.632812 915.488281 504.398438 918.644531 501.746094 C 933.433594 489.3125 953.746094 483.378906 972.671875 487.226562 C 994.789062 491.71875 1013.8125 509.960938 1018.046875 532.136719 C 1021.609375 550.789062 1013.960938 571.144531 1001.25 583.582031 C 998.367188 586.40625 998.921875 591.328125 1002.441406 593.296875 C 1018.039062 602.027344 1027.402344 621.515625 1024.535156 639.492188 C 1021.15625 660.675781 1002.828125 677.929688 981.863281 682.4375 C 963.429688 686.402344 943.765625 681.265625 925.925781 670.726562 Z M 925.925781 670.726562 " fill-opacity="1" fill-rule="nonzero"/><path fill="#552d2d" d="M 858.996094 724.566406 C 835.78125 724.566406 812.332031 711.457031 800.195312 691.0625 C 783.125 709.078125 760.617188 719.105469 739.507812 717.78125 C 717.777344 716.417969 697.4375 702.230469 688.898438 682.484375 C 673.308594 702.257812 649.839844 713.859375 627.226562 712.539062 C 602.460938 711.085938 579.15625 694.5 569.234375 671.261719 C 551.257812 682.648438 530.683594 686.390625 512.542969 681.355469 C 491.34375 675.46875 474.074219 657.902344 468.542969 636.597656 C 463.351562 616.601562 468.707031 594.503906 482.511719 578.925781 C 477.0625 558.023438 478.058594 537.933594 485.386719 523.429688 C 494.09375 506.21875 511.671875 493.65625 532.414062 489.824219 C 548.160156 486.914062 565.398438 488.960938 582.285156 495.730469 C 590.660156 472.425781 616.035156 456.363281 641.488281 458.039062 C 661.730469 459.390625 681.417969 472.308594 691.644531 490.953125 C 698.832031 476.527344 710.578125 465.285156 725.203125 459.253906 C 745.675781 450.816406 769.761719 453.328125 788.050781 465.796875 C 798.921875 473.207031 807.625 484.269531 812.5625 496.949219 C 812.746094 497.414062 813.050781 497.339844 813.054688 497.339844 C 822.832031 480.175781 839.21875 468.523438 856.929688 466.085938 C 880.71875 462.820312 904.847656 476 914.371094 497.429688 C 931.464844 483.132812 953.546875 477.226562 973.867188 481.355469 C 998.726562 486.40625 1019.3125 506.824219 1023.933594 531.011719 C 1027.660156 550.546875 1020.230469 573.398438 1005.4375 587.867188 C 1023.152344 598.023438 1033.703125 620.046875 1030.449219 640.4375 C 1026.789062 663.414062 1007.324219 683.09375 983.121094 688.296875 C 964.3125 692.34375 943.472656 688.050781 922.882812 675.886719 C 922.855469 675.871094 922.839844 675.867188 922.835938 675.863281 C 914.964844 701.433594 891.644531 721.203125 865.894531 724.171875 C 863.605469 724.433594 861.300781 724.566406 858.996094 724.566406 Z M 799.894531 678.863281 C 800.316406 678.863281 800.742188 678.886719 801.167969 678.929688 C 805.0625 679.332031 808.464844 681.519531 810.492188 684.933594 C 821.496094 703.429688 843.746094 714.65625 864.519531 712.265625 C 885.667969 709.824219 904.832031 693.53125 911.128906 672.636719 C 912.230469 668.980469 914.894531 666.09375 918.429688 664.710938 C 921.910156 663.355469 925.753906 663.664062 928.972656 665.5625 C 941.488281 672.960938 960.589844 680.886719 980.605469 676.578125 C 999.773438 672.457031 1015.761719 656.464844 1018.621094 638.550781 C 1021.066406 623.199219 1012.855469 605.992188 999.515625 598.527344 C 996.207031 596.675781 994.023438 593.433594 993.515625 589.632812 C 993.007812 585.828125 994.335938 581.964844 997.0625 579.300781 C 1009.101562 567.519531 1015.171875 549.019531 1012.164062 533.261719 C 1008.429688 513.722656 991.703125 497.207031 971.480469 493.097656 C 954.730469 489.695312 936.402344 494.640625 922.5 506.332031 C 919.472656 508.878906 915.386719 509.871094 911.574219 508.992188 C 907.910156 508.144531 904.941406 505.707031 903.425781 502.300781 C 896.140625 485.90625 876.855469 475.4375 858.558594 477.960938 C 844.515625 479.894531 831.410156 489.324219 823.507812 503.1875 C 821.164062 507.300781 816.753906 509.648438 812.121094 509.296875 C 807.292969 508.945312 803.1875 505.878906 801.402344 501.300781 C 797.332031 490.855469 790.195312 481.761719 781.308594 475.703125 C 766.53125 465.632812 746.304688 463.519531 729.769531 470.335938 C 717.929688 475.21875 708.421875 484.324219 703 495.972656 C 701.019531 500.222656 696.910156 502.957031 692.273438 503.109375 C 687.660156 503.246094 683.386719 500.8125 681.144531 496.71875 C 672.832031 481.570312 656.957031 471.082031 640.691406 470 C 620.628906 468.660156 600.097656 481.617188 593.734375 499.46875 C 592.597656 502.652344 590.195312 505.265625 587.140625 506.644531 C 584.15625 507.988281 580.84375 508.0625 577.828125 506.855469 C 563.042969 500.929688 548.097656 499.121094 534.59375 501.613281 C 517.757812 504.722656 503 515.15625 496.082031 528.839844 C 490.070312 540.726562 489.390625 557.699219 494.21875 575.398438 C 495.3125 579.414062 494.289062 583.707031 491.476562 586.878906 C 480.453125 599.316406 476 617.648438 480.136719 633.585938 C 484.617188 650.824219 498.589844 665.042969 515.75 669.808594 C 530.578125 673.921875 547.597656 670.726562 562.441406 661.035156 C 565.433594 659.085938 569.109375 658.566406 572.519531 659.601562 C 575.996094 660.65625 578.8125 663.1875 580.25 666.550781 C 588.429688 685.710938 607.59375 699.382812 627.925781 700.570312 C 646.640625 701.6875 666.144531 691.875 678.902344 675.015625 C 681.539062 671.535156 685.671875 669.761719 690 670.28125 C 694.414062 670.8125 698.113281 673.597656 699.898438 677.726562 C 706.585938 693.195312 723.179688 704.746094 740.257812 705.820312 C 757.824219 706.90625 776.714844 698.335938 790.902344 682.863281 C 793.265625 680.28125 796.492188 678.863281 799.894531 678.863281 Z M 799.894531 678.863281 " fill-opacity="1" fill-rule="nonzero"/></svg>