<svg xmlns="http://www.w3.org/2000/svg" xmlns:xlink="http://www.w3.org/1999/xlink" width="1920" zoomAndPan="magnify" viewBox="0 0 1440 1439.999935" height="1920" preserveAspectRatio="xMidYMid meet" version="1.0"><path fill="#fffcf6" d="M 976.082031 820.824219 C 1005.375 841.410156 1035.734375 860.996094 1060.882812 886.488281 C 1086.027344 911.980469 1105.929688 944.511719 1108.6875 980.214844 C 1111.445312 1015.914062 1093.863281 1054.433594 1061.234375 1069.175781 C 1110.605469 1124.324219 1159.976562 1179.472656 1209.347656 1234.621094 C 1220.6875 1247.292969 1232.160156 1260.144531 1239.921875 1275.273438 C 1247.683594 1290.402344 1251.453125 1308.320312 1246.519531 1324.59375 C 1239.214844 1348.695312 1214.902344 1363.714844 1190.746094 1370.828125 C 1144.972656 1384.304688 1093.371094 1376.375 1053.75 1349.777344 C 1028.167969 1332.601562 1008.042969 1308.628906 988.28125 1284.988281 C 941.640625 1304.386719 886.574219 1312.988281 838.941406 1316.613281 C 846.519531 1358.585938 835.992188 1382.773438 811.28125 1401.296875 C 786.570312 1419.816406 754.347656 1426 723.503906 1424.484375 C 692.660156 1422.96875 662.660156 1414.382812 632.980469 1405.855469 C 536.105469 1380.382812 446.605469 1328.125 380.964844 1253.421875 C 315.324219 1178.71875 274.59375 1081.242188 273.472656 981.800781 C 272.351562 882.355469 312.261719 781.988281 390.1875 710.617188 C 557.015625 685.222656 728.691406 692.097656 892.957031 730.746094 C 928.636719 739.140625 964.8125 749.410156 976.082031 820.824219 Z M 976.082031 820.824219 " fill-opacity="1" fill-rule="nonzero"/><path fill="#ffbd91" d="M 1212.285156 1238.570312 C 1148.410156 1254.554688 1091.972656 1298.230469 1060.472656 1356.0625 C 1094.15625 1370.703125 1131.710938 1376.316406 1168.203125 1372.164062 C 1185.078125 1370.246094 1202.03125 1366.144531 1216.464844 1357.191406 C 1230.894531 1348.238281 1242.59375 1333.90625 1245.519531 1317.175781 C 1250.484375 1288.796875 1230.425781 1262.734375 1212.285156 1238.570312 Z M 1212.285156 1238.570312 " fill-opacity="1" fill-rule="nonzero"/><path fill="#fffcf6" d="M 243.394531 425.816406 C 225.84375 406.453125 219.710938 377.503906 227.917969 352.75 C 236.125 328 258.347656 308.414062 284.007812 303.324219 C 309.664062 298.230469 337.757812 307.828125 354.902344 327.546875 C 314.617188 355.09375 277.710938 387.539062 243.394531 425.816406 Z M 243.394531 425.816406 " fill-opacity="1" fill-rule="nonzero"/><path fill="#fffcf6" d="M 156.550781 876.894531 C 227.800781 950.0625 274.566406 944.902344 306.96875 956.441406 C 371.332031 979.359375 932.347656 1362.324219 1142.585938 1152.710938 C 1311.710938 866.140625 1116.914062 597.300781 1087.992188 550.726562 C 1043.316406 478.78125 1003.390625 449.238281 963.109375 411.972656 C 926.195312 369.832031 854.449219 328.152344 803.167969 301.972656 C 812.640625 267.738281 814.882812 219.3125 788.492188 195.394531 C 762.101562 171.476562 728.179688 171.570312 694.875 184.210938 C 661.574219 196.851562 634.078125 236.671875 630.394531 272 C 597.90625 270.84375 559.375 274.519531 527.378906 280.234375 C 452.96875 288.003906 381.890625 315.988281 356.316406 332.300781 C 269.820312 387.472656 251.617188 366.296875 191.039062 582.5625 C 147.976562 736.300781 128.046875 787.910156 156.550781 876.894531 Z M 156.550781 876.894531 " fill-opacity="1" fill-rule="nonzero"/><path fill="#f09a61" d="M 151.828125 714.160156 C 155.546875 737.800781 181.289062 753.046875 204.6875 751.902344 C 228.085938 750.761719 248.953125 737.292969 267.023438 722.347656 C 285.089844 707.398438 301.898438 690.355469 322.769531 679.785156 C 369.515625 656.113281 425.875 669.402344 476.492188 684.398438 C 527.109375 699.394531 581.917969 715.59375 630.800781 696.777344 C 670.496094 681.496094 698.4375 645.875 732.683594 620.492188 C 789.960938 578.035156 1207.332031 467.777344 1185.515625 1060.152344 C 1307.453125 677.484375 959.355469 368.46875 800.714844 302.90625 C 822.355469 277.699219 822.730469 237.5 803.207031 210.585938 C 783.679688 183.671875 746.859375 171.304688 714.433594 178.863281 C 682.011719 186.425781 655.1875 212.511719 644.636719 243.980469 C 642.011719 251.816406 640.058594 260.375 634.125 266.140625 C 626.617188 273.433594 615.074219 274.105469 604.597656 274.667969 C 519.457031 279.242188 437.046875 304.730469 354.480469 329.832031 C 352.066406 314.964844 337.371094 304.976562 322.761719 301.125 C 291.339844 292.84375 255.359375 306.652344 237.664062 333.785156 C 219.972656 360.917969 221.910156 399.308594 241.945312 424.011719 C 200.902344 517.964844 195.742188 624.464844 151.828125 714.160156 Z M 151.828125 714.160156 " fill-opacity="1" fill-rule="nonzero"/><path fill="#552d2d" d="M 551.65625 629.558594 C 566.265625 633.929688 581.785156 638.894531 591.394531 650.703125 C 594.746094 654.828125 597.296875 660.160156 596.132812 665.332031 C 594.914062 670.742188 589.820312 674.609375 584.433594 676 C 579.046875 677.386719 573.363281 676.742188 567.847656 676.003906 C 555.800781 674.386719 543.777344 672.339844 532.097656 668.96875 C 525.355469 667.019531 518.566406 664.535156 513.304688 659.90625 C 508.042969 655.277344 504.5625 648.082031 506.0625 641.253906 C 507.707031 633.773438 514.902344 628.523438 522.394531 626.820312 C 529.886719 625.117188 537.925781 625.445312 551.65625 629.558594 Z M 551.65625 629.558594 " fill-opacity="1" fill-rule="nonzero"/><path fill="#552d2d" d="M 206.195312 676.511719 C 194.855469 686.664062 182.949219 697.730469 179.328125 712.484375 C 178.066406 717.636719 178.046875 723.539062 181.320312 727.722656 C 184.742188 732.101562 191.011719 733.441406 196.476562 732.414062 C 201.945312 731.386719 206.808594 728.394531 211.480469 725.386719 C 221.683594 718.816406 231.679688 711.867188 240.796875 703.867188 C 246.058594 699.25 251.132812 694.121094 253.90625 687.703125 C 256.679688 681.285156 256.738281 673.304688 252.453125 667.765625 C 247.757812 661.695312 238.996094 659.996094 231.488281 661.632812 C 223.980469 663.265625 216.851562 666.972656 206.195312 676.511719 Z M 206.195312 676.511719 " fill-opacity="1" fill-rule="nonzero"/><path fill="#f8c7d0" d="M 739.023438 221.984375 C 708.253906 232.789062 683.640625 259.539062 675.503906 291.027344 C 673.011719 300.671875 672.421875 312.117188 679.269531 319.382812 C 685.6875 326.195312 696.34375 326.796875 705.597656 325.328125 C 731.492188 321.21875 754.890625 303.855469 766.253906 280.316406 C 772.074219 268.257812 774.785156 253.964844 770.03125 241.4375 C 765.277344 228.910156 751.058594 217.761719 739.023438 221.984375 Z M 739.023438 221.984375 " fill-opacity="1" fill-rule="nonzero"/><path fill="#f8c7d0" d="M 661.464844 653.839844 C 662.824219 654.054688 664.171875 654.335938 665.503906 654.683594 C 666.835938 655.03125 668.148438 655.441406 669.4375 655.917969 C 670.730469 656.390625 671.996094 656.929688 673.234375 657.527344 C 674.472656 658.128906 675.679688 658.785156 676.851562 659.503906 C 678.027344 660.21875 679.160156 660.992188 680.257812 661.820312 C 681.359375 662.648438 682.410156 663.527344 683.421875 664.460938 C 684.433594 665.390625 685.398438 666.371094 686.3125 667.394531 C 687.226562 668.421875 688.089844 669.488281 688.898438 670.597656 C 689.710938 671.707031 690.460938 672.855469 691.160156 674.039062 C 691.855469 675.222656 692.492188 676.4375 693.070312 677.679688 C 693.648438 678.925781 694.160156 680.199219 694.613281 681.492188 C 695.066406 682.789062 695.453125 684.105469 695.773438 685.4375 C 696.097656 686.769531 696.351562 688.117188 696.542969 689.476562 C 696.730469 690.832031 696.855469 692.199219 696.910156 693.570312 C 696.964844 694.9375 696.953125 696.308594 696.871094 697.675781 C 696.792969 699.046875 696.644531 700.40625 696.429688 701.761719 C 696.214844 703.117188 695.933594 704.457031 695.589844 705.785156 C 695.242188 707.109375 694.832031 708.417969 694.355469 709.703125 C 693.878906 710.988281 693.34375 712.25 692.742188 713.484375 C 692.144531 714.714844 691.484375 715.917969 690.765625 717.085938 C 690.046875 718.253906 689.273438 719.386719 688.445312 720.480469 C 687.613281 721.574219 686.734375 722.621094 685.800781 723.628906 C 684.867188 724.636719 683.886719 725.59375 682.859375 726.503906 C 681.828125 727.414062 680.757812 728.273438 679.644531 729.078125 C 678.535156 729.882812 677.382812 730.632812 676.195312 731.324219 C 675.011719 732.019531 673.792969 732.652344 672.542969 733.226562 C 671.292969 733.800781 670.019531 734.308594 668.71875 734.757812 C 667.417969 735.207031 666.101562 735.589844 664.761719 735.910156 C 663.425781 736.230469 662.074219 736.484375 660.710938 736.671875 C 659.347656 736.859375 657.980469 736.980469 656.601562 737.03125 C 655.226562 737.085938 653.855469 737.070312 652.480469 736.988281 C 651.105469 736.910156 649.738281 736.761719 648.378906 736.542969 C 647.019531 736.328125 645.675781 736.046875 644.34375 735.703125 C 643.011719 735.355469 641.699219 734.945312 640.410156 734.46875 C 639.117188 733.992188 637.851562 733.457031 636.613281 732.859375 C 635.375 732.257812 634.167969 731.601562 632.996094 730.882812 C 631.820312 730.167969 630.683594 729.394531 629.585938 728.566406 C 628.488281 727.738281 627.433594 726.859375 626.421875 725.925781 C 625.410156 724.996094 624.449219 724.015625 623.535156 722.992188 C 622.617188 721.964844 621.757812 720.898438 620.945312 719.789062 C 620.136719 718.679688 619.382812 717.53125 618.6875 716.347656 C 617.992188 715.164062 617.351562 713.949219 616.777344 712.703125 C 616.199219 711.460938 615.683594 710.1875 615.234375 708.894531 C 614.78125 707.597656 614.394531 706.28125 614.070312 704.949219 C 613.75 703.613281 613.492188 702.269531 613.304688 700.910156 C 613.113281 699.550781 612.992188 698.1875 612.9375 696.816406 C 612.882812 695.449219 612.894531 694.078125 612.976562 692.707031 C 613.054688 691.339844 613.203125 689.976562 613.417969 688.625 C 613.628906 687.269531 613.910156 685.929688 614.257812 684.601562 C 614.605469 683.277344 615.015625 681.96875 615.492188 680.683594 C 615.964844 679.394531 616.503906 678.136719 617.101562 676.902344 C 617.703125 675.667969 618.363281 674.46875 619.078125 673.300781 C 619.796875 672.128906 620.570312 671 621.402344 669.90625 C 622.230469 668.8125 623.113281 667.761719 624.046875 666.757812 C 624.980469 665.75 625.960938 664.792969 626.988281 663.882812 C 628.015625 662.972656 629.085938 662.113281 630.199219 661.308594 C 631.3125 660.503906 632.460938 659.753906 633.648438 659.058594 C 634.835938 658.367188 636.054688 657.734375 637.304688 657.160156 C 638.554688 656.585938 639.828125 656.074219 641.128906 655.628906 C 642.425781 655.179688 643.746094 654.792969 645.085938 654.476562 C 646.421875 654.15625 647.773438 653.902344 649.136719 653.714844 C 650.5 653.527344 651.867188 653.40625 653.242188 653.355469 C 654.617188 653.300781 655.992188 653.316406 657.367188 653.394531 C 658.742188 653.476562 660.105469 653.625 661.464844 653.839844 Z M 661.464844 653.839844 " fill-opacity="1" fill-rule="nonzero"/><path fill="#f8c7d0" d="M 328.3125 676.617188 C 338.117188 666.324219 351.417969 659.402344 365.503906 657.265625 C 379.585938 655.128906 394.363281 657.792969 406.816406 664.707031 C 402.066406 673.960938 397.222656 683.347656 390.101562 690.945312 C 382.976562 698.539062 373.148438 704.238281 362.710938 704.070312 C 347.695312 703.824219 335.6875 692.109375 328.3125 676.617188 Z M 328.3125 676.617188 " fill-opacity="1" fill-rule="nonzero"/><path fill="#ffbd91" d="M 516.574219 386.902344 C 515.511719 386.902344 514.433594 386.683594 513.394531 386.222656 C 509.449219 384.464844 507.671875 379.839844 509.429688 375.890625 C 519.167969 354.003906 532.117188 334.101562 547.921875 316.726562 C 550.828125 313.53125 555.78125 313.292969 558.976562 316.203125 C 562.175781 319.113281 562.410156 324.0625 559.5 327.261719 C 544.820312 343.398438 532.789062 361.902344 523.730469 382.253906 C 522.433594 385.171875 519.570312 386.902344 516.574219 386.902344 Z M 516.574219 386.902344 " fill-opacity="1" fill-rule="nonzero"/><path fill="#ffbd91" d="M 419.128906 385.519531 C 417.425781 385.519531 415.714844 384.96875 414.277344 383.828125 C 410.886719 381.144531 410.3125 376.222656 412.996094 372.832031 L 441.945312 336.269531 C 444.636719 332.875 449.558594 332.3125 452.941406 334.992188 C 456.332031 337.675781 456.902344 342.597656 454.222656 345.988281 L 425.273438 382.550781 C 423.722656 384.503906 421.4375 385.519531 419.128906 385.519531 Z M 419.128906 385.519531 " fill-opacity="1" fill-rule="nonzero"/><path fill="#ffbd91" d="M 458.796875 476.203125 C 457.8125 476.203125 456.8125 476.015625 455.84375 475.621094 C 451.839844 473.988281 449.921875 469.417969 451.554688 465.417969 L 466.898438 427.78125 C 468.53125 423.777344 473.082031 421.855469 477.101562 423.488281 C 481.101562 425.121094 483.023438 429.691406 481.390625 433.695312 L 466.046875 471.328125 C 464.8125 474.363281 461.882812 476.203125 458.796875 476.203125 Z M 458.796875 476.203125 " fill-opacity="1" fill-rule="nonzero"/><path fill="#ffbd91" d="M 329.492188 458.578125 C 328.867188 458.578125 328.234375 458.503906 327.601562 458.347656 C 323.40625 457.308594 320.847656 453.0625 321.886719 448.867188 C 326.320312 430.996094 334.339844 415.175781 345.71875 401.847656 C 348.523438 398.5625 353.464844 398.171875 356.753906 400.980469 C 360.039062 403.789062 360.429688 408.730469 357.621094 412.015625 C 347.832031 423.480469 340.921875 437.144531 337.082031 452.632812 C 336.199219 456.195312 333.003906 458.578125 329.492188 458.578125 Z M 329.492188 458.578125 " fill-opacity="1" fill-rule="nonzero"/><path fill="#ffbd91" d="M 396.410156 537.519531 C 392.367188 537.519531 388.9375 534.410156 388.613281 530.308594 C 386.980469 509.613281 389.46875 490.335938 396.027344 473.019531 C 397.558594 468.972656 402.066406 466.941406 406.117188 468.46875 C 410.160156 470 412.199219 474.515625 410.664062 478.558594 C 404.9375 493.703125 402.765625 510.699219 404.222656 529.074219 C 404.5625 533.386719 401.34375 537.15625 397.039062 537.496094 C 396.828125 537.511719 396.617188 537.519531 396.410156 537.519531 Z M 396.410156 537.519531 " fill-opacity="1" fill-rule="nonzero"/><path fill="#552d2d" d="M 245.398438 436.066406 C 243.125 436.066406 240.871094 435.082031 239.328125 433.179688 C 215.511719 403.917969 211.261719 368.097656 227.957031 337.359375 C 244.683594 306.558594 277.847656 289.050781 312.492188 292.8125 C 334.996094 295.242188 354.050781 305.410156 369.132812 323.035156 C 371.941406 326.320312 371.558594 331.261719 368.273438 334.070312 C 364.992188 336.886719 360.046875 336.5 357.238281 333.214844 C 344.835938 318.71875 329.21875 310.363281 310.8125 308.375 C 282.546875 305.3125 255.40625 319.628906 241.710938 344.835938 C 228.152344 369.800781 231.800781 399.132812 251.464844 423.296875 C 254.195312 426.652344 253.691406 431.582031 250.335938 434.3125 C 248.886719 435.492188 247.140625 436.066406 245.398438 436.066406 Z M 245.398438 436.066406 " fill-opacity="1" fill-rule="nonzero"/><path fill="#552d2d" d="M 1142.578125 1160.539062 C 1141.300781 1160.539062 1140.003906 1160.226562 1138.804688 1159.566406 C 1135.019531 1157.476562 1133.640625 1152.71875 1135.730469 1148.933594 C 1207.996094 1017.816406 1222.351562 881.304688 1178.394531 743.1875 C 1109.292969 526.042969 913.144531 362.648438 805.746094 310.664062 C 801.855469 308.777344 800.226562 304.097656 802.109375 300.207031 C 803.988281 296.3125 808.675781 294.683594 812.5625 296.570312 C 922.304688 349.691406 1122.722656 516.625 1193.3125 738.441406 C 1238.621094 880.8125 1223.859375 1021.464844 1149.441406 1156.488281 C 1148.011719 1159.074219 1145.335938 1160.539062 1142.578125 1160.539062 Z M 1142.578125 1160.539062 " fill-opacity="1" fill-rule="nonzero"/><path fill="#552d2d" d="M 726.992188 372.523438 C 724.03125 372.523438 721.199219 370.839844 719.882812 367.976562 C 718.070312 364.050781 719.78125 359.398438 723.707031 357.585938 C 756.304688 342.539062 780.058594 323.648438 794.316406 301.449219 C 811.4375 274.792969 814.085938 242.238281 801.066406 218.511719 C 788.59375 195.792969 761.355469 181.253906 733.429688 182.234375 C 707.160156 183.191406 680.71875 197.25 662.695312 219.84375 C 646.367188 240.308594 636.460938 268.078125 634.800781 298.039062 C 634.558594 302.351562 630.875 305.632812 626.554688 305.421875 C 622.234375 305.179688 618.929688 301.488281 619.167969 297.171875 C 621.011719 263.992188 632.121094 233.0625 650.457031 210.078125 C 671.289062 183.96875 702.09375 167.710938 732.855469 166.589844 C 766.578125 165.320312 799.542969 183.199219 814.785156 210.980469 C 830.53125 239.660156 827.664062 278.492188 807.488281 309.910156 C 791.59375 334.660156 765.613281 355.484375 730.265625 371.800781 C 729.203125 372.289062 728.089844 372.523438 726.992188 372.523438 Z M 726.992188 372.523438 " fill-opacity="1" fill-rule="nonzero"/><path fill="#552d2d" d="M 671.550781 315.09375 C 671.363281 315.09375 671.171875 315.085938 670.980469 315.070312 C 666.667969 314.765625 663.425781 311.015625 663.734375 306.703125 C 666.824219 263.664062 699.375 224.183594 741.136719 212.828125 C 745.320312 211.699219 749.605469 214.15625 750.738281 218.328125 C 751.875 222.5 749.414062 226.800781 745.238281 227.933594 C 709.691406 237.601562 681.980469 271.199219 679.351562 307.824219 C 679.050781 311.945312 675.617188 315.09375 671.550781 315.09375 Z M 671.550781 315.09375 " fill-opacity="1" fill-rule="nonzero"/><path fill="#552d2d" d="M 296.339844 956.09375 C 296.183594 956.09375 296.023438 956.089844 295.867188 956.082031 C 227.160156 951.964844 166.101562 912.417969 143.921875 857.675781 C 130.449219 824.417969 129.492188 783.683594 141.074219 736.59375 C 146.25 715.574219 153.3125 694.902344 160.140625 674.910156 C 165.863281 658.164062 171.777344 640.851562 176.46875 623.617188 C 181.667969 604.503906 185.632812 584.515625 189.46875 565.179688 C 196.773438 528.347656 204.328125 490.257812 220.839844 455.425781 C 252.050781 389.585938 315.582031 335.863281 399.730469 304.15625 C 471.277344 277.199219 548.046875 269.265625 622.292969 261.597656 L 630.371094 260.761719 C 634.757812 260.320312 638.515625 263.441406 638.960938 267.742188 C 639.410156 272.042969 636.28125 275.890625 631.984375 276.335938 L 623.902344 277.171875 C 550.644531 284.738281 474.898438 292.5625 405.25 318.804688 C 324.914062 349.078125 264.449219 399.980469 234.984375 462.132812 C 219.304688 495.210938 211.941406 532.332031 204.820312 568.226562 C 200.933594 587.824219 196.917969 608.089844 191.570312 627.730469 C 186.753906 645.441406 180.757812 662.996094 174.953125 679.972656 C 168.234375 699.644531 161.285156 719.984375 156.277344 740.335938 C 145.492188 784.15625 146.21875 821.65625 158.429688 851.796875 C 178.386719 901.0625 233.996094 936.691406 296.796875 940.453125 C 301.117188 940.710938 304.402344 944.421875 304.144531 948.734375 C 303.894531 952.890625 300.449219 956.09375 296.339844 956.09375 Z M 296.339844 956.09375 " fill-opacity="1" fill-rule="nonzero"/><path fill="#552d2d" d="M 361.867188 711.28125 C 361.820312 711.28125 361.773438 711.28125 361.730469 711.28125 C 351.320312 711.234375 342.886719 706.035156 337.640625 701.683594 C 331.507812 696.59375 326.710938 690.257812 322.480469 684.667969 C 319.871094 681.21875 320.550781 676.308594 323.996094 673.703125 C 327.449219 671.085938 332.351562 671.773438 334.960938 675.21875 C 338.863281 680.371094 342.894531 685.699219 347.636719 689.636719 C 352.265625 693.480469 357.296875 695.605469 361.796875 695.625 C 361.820312 695.625 361.84375 695.625 361.867188 695.625 C 374.144531 695.625 388.070312 680.859375 398.835938 667.988281 C 401.613281 664.664062 406.550781 664.234375 409.863281 667.003906 C 413.179688 669.78125 413.621094 674.714844 410.84375 678.03125 C 397.085938 694.480469 380.515625 711.28125 361.867188 711.28125 Z M 361.867188 711.28125 " fill-opacity="1" fill-rule="nonzero"/><path fill="#552d2d" d="M 391.429688 751.292969 C 390.195312 751.292969 388.945312 751 387.78125 750.382812 C 373.171875 742.660156 363.261719 727.300781 358.328125 704.734375 C 357.40625 700.511719 360.082031 696.339844 364.304688 695.417969 C 368.515625 694.480469 372.695312 697.167969 373.621094 701.390625 C 377.523438 719.246094 384.75 731.070312 395.097656 736.542969 C 398.917969 738.5625 400.378906 743.300781 398.359375 747.121094 C 396.953125 749.777344 394.238281 751.292969 391.429688 751.292969 Z M 391.429688 751.292969 " fill-opacity="1" fill-rule="nonzero"/><path fill="#552d2d" d="M 1148.179688 1384.875 C 1088.089844 1384.875 1027.511719 1354.113281 994.480469 1301.941406 C 992.621094 1299.011719 988.695312 1297.933594 985.140625 1299.398438 C 942.105469 1317.070312 889.273438 1326.511719 840.03125 1325.324219 C 835.714844 1325.222656 832.292969 1321.632812 832.402344 1317.3125 C 832.503906 1312.988281 836.269531 1309.648438 840.414062 1309.675781 C 887.511719 1310.824219 938.089844 1301.792969 979.195312 1284.917969 C 989.789062 1280.570312 1001.777344 1284.203125 1007.703125 1293.566406 C 1048.242188 1357.578125 1134.121094 1386.308594 1203.242188 1358.964844 C 1214.121094 1354.660156 1223.148438 1348.230469 1229.339844 1340.367188 C 1251.398438 1312.378906 1235.171875 1281.625 1214.355469 1252.554688 C 1189.125 1217.320312 1156.386719 1178.398438 1114.277344 1133.558594 C 1111.320312 1130.40625 1111.472656 1125.453125 1114.625 1122.492188 C 1117.769531 1119.539062 1122.726562 1119.683594 1125.6875 1122.839844 C 1168.277344 1168.191406 1201.445312 1207.636719 1227.082031 1243.441406 C 1242.316406 1264.710938 1274.015625 1308.96875 1241.640625 1350.058594 C 1233.734375 1360.089844 1222.445312 1368.203125 1209 1373.523438 C 1189.550781 1381.21875 1168.894531 1384.875 1148.179688 1384.875 Z M 1148.179688 1384.875 " fill-opacity="1" fill-rule="nonzero"/><path fill="#4db748" d="M 336.039062 245.25 L 1065.648438 384.316406 L 1045.335938 490.921875 L 317.816406 352.253906 Z M 336.039062 245.25 " fill-opacity="1" fill-rule="nonzero"/><path fill="#4db748" d="M 971.179688 230.445312 L 1066.585938 379.410156 L 337.964844 240.527344 L 375.53125 212.402344 L 484.203125 135.632812 Z M 971.179688 230.445312 " fill-opacity="1" fill-rule="nonzero"/><path fill="#552d2d" d="M 1040.75 497.710938 C 1039.6875 497.710938 1038.613281 497.609375 1037.542969 497.40625 L 322.972656 359.753906 C 318.394531 358.878906 314.421875 356.269531 311.789062 352.402344 C 309.160156 348.539062 308.199219 343.878906 309.074219 339.289062 L 327.3125 239.121094 C 328.082031 234.871094 332.148438 232.039062 336.414062 232.820312 C 340.667969 233.59375 343.484375 237.671875 342.710938 241.925781 L 324.464844 342.160156 C 324.332031 342.839844 324.539062 343.316406 324.734375 343.601562 C 324.933594 343.890625 325.296875 344.257812 325.914062 344.375 L 1040.484375 482.03125 C 1041.058594 482.121094 1041.898438 481.589844 1042.015625 480.976562 L 1061.527344 378.445312 C 1062.332031 374.199219 1066.398438 371.410156 1070.679688 372.21875 C 1074.925781 373.027344 1077.710938 377.125 1076.90625 381.375 L 1057.394531 483.902344 C 1056.546875 488.359375 1054.015625 492.214844 1050.265625 494.765625 C 1047.417969 496.707031 1044.121094 497.710938 1040.75 497.710938 Z M 1040.75 497.710938 " fill-opacity="1" fill-rule="nonzero"/><path fill="#ed2027" d="M 683.789062 171.554688 L 624.476562 295.734375 C 623.964844 296.804688 624.605469 298.074219 625.773438 298.296875 L 778.453125 327.398438 C 779.09375 327.519531 779.675781 326.988281 779.609375 326.339844 L 765.5 187.839844 C 765.457031 187.410156 765.136719 187.0625 764.710938 186.980469 Z M 683.789062 171.554688 " fill-opacity="1" fill-rule="nonzero"/><path fill="#ed2027" d="M 623.457031 297.832031 L 779.730469 327.617188 L 759.285156 434.921875 L 603.007812 405.136719 Z M 623.457031 297.832031 " fill-opacity="1" fill-rule="nonzero"/><path fill="#552d2d" d="M 1066.410156 390.058594 C 1065.742188 390.058594 1065.070312 389.996094 1064.394531 389.867188 L 335.878906 251.007812 C 331.667969 250.203125 328.347656 246.980469 327.417969 242.792969 C 326.488281 238.609375 328.140625 234.285156 331.613281 231.777344 L 471.746094 130.859375 C 477.109375 126.992188 483.921875 125.492188 490.40625 126.726562 L 962.769531 216.761719 C 971.578125 218.441406 979.402344 223.730469 984.238281 231.277344 L 1075.429688 373.550781 C 1077.746094 377.167969 1077.683594 381.796875 1075.28125 385.347656 C 1073.261719 388.328125 1069.921875 390.058594 1066.410156 390.058594 Z M 350.074219 237.777344 L 1056.0625 372.34375 L 971.058594 239.726562 C 968.535156 235.78125 964.445312 233.019531 959.839844 232.140625 L 487.476562 142.105469 C 485.175781 141.660156 482.785156 142.203125 480.898438 143.558594 C 480.898438 143.5625 480.898438 143.5625 480.898438 143.5625 Z M 476.320312 137.210938 L 476.398438 137.210938 Z M 476.320312 137.210938 " fill-opacity="1" fill-rule="nonzero"/><path fill="#552d2d" d="M 758.730469 443.554688 C 758.242188 443.554688 757.742188 443.503906 757.242188 443.410156 L 601.433594 413.394531 C 597.195312 412.578125 594.417969 408.484375 595.222656 404.242188 L 615.777344 296.390625 C 616.585938 292.144531 620.695312 289.359375 624.929688 290.164062 L 781.207031 319.953125 C 783.25 320.34375 785.058594 321.53125 786.222656 323.253906 C 787.390625 324.976562 787.820312 327.09375 787.421875 329.136719 L 766.402344 437.21875 C 765.679688 440.957031 762.402344 443.554688 758.730469 443.554688 Z M 612.0625 399.5 L 752.53125 426.558594 L 770.558594 333.859375 L 629.6875 307.007812 Z M 612.0625 399.5 " fill-opacity="1" fill-rule="nonzero"/><path fill="#552d2d" d="M 778.621094 335.242188 C 778.074219 335.242188 777.527344 335.191406 776.988281 335.089844 L 624.308594 305.984375 C 621.34375 305.417969 618.867188 303.550781 617.511719 300.863281 C 616.152344 298.171875 616.121094 295.074219 617.414062 292.359375 L 676.726562 168.179688 C 678.261719 164.972656 681.769531 163.191406 685.253906 163.867188 L 766.175781 179.289062 C 770.023438 180.035156 772.871094 183.136719 773.28125 187.011719 L 787.390625 325.546875 C 787.671875 328.3125 786.617188 331.066406 784.578125 332.933594 C 782.949219 334.425781 780.804688 335.242188 778.621094 335.242188 Z M 634.902344 292.066406 L 770.890625 317.988281 L 758.234375 193.714844 L 688.25 180.375 Z M 634.902344 292.066406 " fill-opacity="1" fill-rule="nonzero"/><path fill="#ed2027" d="M 746.445312 237.089844 C 740.890625 317.738281 766.046875 417.160156 786.769531 465.851562 C 787.546875 467.6875 788.453125 469.644531 790.195312 470.613281 C 791.9375 471.578125 794.703125 470.816406 794.933594 468.835938 C 806.261719 441.5625 821.558594 415.5625 840.460938 392.515625 C 860.582031 405.121094 880.484375 418.855469 899.707031 433.488281 C 890.582031 401.765625 889.101562 369.660156 894.738281 338.828125 C 907.71875 331.941406 925.585938 331.242188 937.476562 320.414062 C 943.683594 314.761719 947.492188 306.941406 950.253906 299.011719 C 957.835938 277.242188 958.519531 253.792969 960.621094 230.839844 C 961.867188 217.234375 963.695312 203.46875 969.074219 190.910156 C 976.207031 174.257812 989.648438 159.101562 988.84375 141.003906 C 988.320312 129.1875 981.398438 118.269531 972.109375 110.945312 C 962.820312 103.617188 951.367188 99.523438 939.816406 96.980469 C 912.242188 90.917969 883.175781 93.179688 856.136719 101.296875 C 829.09375 109.414062 803.988281 123.238281 781.226562 139.941406 C 771.660156 130.125 759.414062 123.078125 746.238281 120.34375 C 733.058594 117.613281 719.023438 119.207031 706.792969 124.828125 C 704.53125 111.496094 699.714844 99.0625 692.207031 88.535156 C 686.816406 80.976562 680.128906 74.457031 673.476562 67.980469 C 657.132812 52.0625 640.546875 35.964844 620.675781 24.761719 C 600.800781 13.558594 576.929688 7.625 554.902344 13.554688 C 545.457031 13.507812 537.003906 20.011719 532.71875 28.175781 C 528.433594 36.34375 527.648438 45.894531 527.886719 55.113281 C 528.125 64.335938 529.296875 73.558594 528.589844 82.757812 C 526.828125 105.710938 513.726562 125.941406 503.210938 146.417969 C 492.691406 166.894531 484.417969 191.09375 492.746094 212.554688 C 498.582031 227.589844 511.550781 238.496094 526.804688 248.632812 C 511.898438 277.246094 494.972656 304.808594 477.191406 331.6875 C 500.34375 335.78125 523.695312 319.683594 546.730469 324.363281 C 546.472656 357.640625 551.253906 385.355469 551.0625 410.097656 C 548.1875 425.179688 603.074219 406 699.734375 228.988281 C 712.453125 241.730469 725.453125 241.324219 746.445312 237.089844 Z M 746.445312 237.089844 " fill-opacity="1" fill-rule="nonzero"/><path fill="#552d2d" d="M 732.9375 246.636719 C 729.101562 246.636719 725.222656 246.28125 721.332031 245.539062 C 686.121094 238.828125 663.222656 203.179688 670.292969 166.070312 C 677.371094 128.960938 711.796875 104.238281 746.980469 110.949219 C 782.191406 117.660156 805.089844 153.308594 798.019531 190.417969 C 791.726562 223.425781 763.808594 246.636719 732.9375 246.636719 Z M 685.671875 169.003906 C 680.21875 197.628906 697.53125 225.0625 724.261719 230.160156 C 751.027344 235.25 777.1875 216.113281 782.640625 187.484375 C 788.097656 158.859375 770.785156 131.425781 744.050781 126.328125 C 717.300781 121.234375 691.125 140.375 685.671875 169.003906 Z M 685.671875 169.003906 " fill-opacity="1" fill-rule="nonzero"/><path fill="#552d2d" d="M 883.761719 346.660156 C 882.527344 346.660156 881.296875 346.636719 880.054688 346.585938 C 847.1875 345.234375 818.015625 327.6875 798.929688 314.609375 C 777.347656 299.816406 763.621094 272.125 756.96875 229.945312 C 756.296875 225.675781 759.210938 221.667969 763.480469 220.996094 C 767.730469 220.328125 771.757812 223.234375 772.429688 227.507812 C 778.378906 265.199219 789.941406 289.464844 807.78125 301.695312 C 835.582031 320.746094 858.746094 330.042969 880.695312 330.941406 C 903.582031 331.929688 932.027344 321.460938 943.988281 296.066406 C 951.234375 280.695312 951.226562 262.925781 951.222656 244.113281 C 951.214844 224.597656 951.207031 204.417969 959.679688 185.992188 C 962.359375 180.160156 965.773438 174.761719 969.074219 169.539062 C 974.957031 160.238281 980.515625 151.453125 980.75 141.980469 C 980.96875 133.351562 976.4375 124.402344 968.625 118.042969 C 962.050781 112.683594 953.558594 109.003906 941.09375 106.105469 C 888.847656 93.957031 830.667969 109.632812 789.300781 147.015625 C 786.089844 149.914062 781.148438 149.664062 778.242188 146.457031 C 775.347656 143.25 775.597656 138.300781 778.804688 135.398438 C 823.917969 94.632812 887.46875 77.570312 944.640625 90.855469 C 953.890625 93.007812 967.472656 96.90625 978.515625 105.902344 C 990.054688 115.304688 996.742188 128.941406 996.398438 142.378906 C 996.054688 156.167969 989.0625 167.21875 982.304688 177.90625 C 979.136719 182.914062 976.144531 187.648438 973.902344 192.53125 C 966.863281 207.84375 966.867188 225.457031 966.875 244.105469 C 966.882812 263.816406 966.890625 284.195312 958.152344 302.738281 C 945.621094 329.332031 916.039062 346.660156 883.761719 346.660156 Z M 883.761719 346.660156 " fill-opacity="1" fill-rule="nonzero"/><path fill="#552d2d" d="M 789.785156 478.441406 C 785.113281 478.441406 781.007812 475.777344 779.039062 471.460938 C 750.839844 409.671875 734.222656 313.109375 738.632812 236.640625 C 738.878906 232.320312 742.613281 229.011719 746.898438 229.277344 C 751.210938 229.523438 754.511719 233.226562 754.261719 237.542969 C 750.15625 308.613281 764.714844 397.433594 789.910156 457.269531 C 800.40625 433.921875 813.289062 411.734375 828.269531 391.210938 C 830.460938 388.210938 833.660156 386.257812 837.289062 385.714844 C 840.878906 385.175781 844.417969 386.078125 847.300781 388.238281 L 889.796875 420.027344 C 882.441406 387.199219 881.816406 361.425781 882.34375 338.371094 C 882.4375 334.046875 885.957031 330.601562 890.34375 330.722656 C 894.667969 330.824219 898.085938 334.40625 897.988281 338.730469 C 897.421875 363.5 898.246094 391.535156 908 428.605469 C 909.21875 433.234375 907.390625 438.132812 903.445312 440.789062 C 899.605469 443.378906 894.730469 443.265625 891.015625 440.488281 L 839.703125 402.105469 C 824.367188 423.386719 811.371094 446.503906 801.058594 470.855469 C 799.132812 475.402344 794.773438 478.378906 789.949219 478.441406 C 789.894531 478.441406 789.84375 478.441406 789.785156 478.441406 Z M 793.28125 464.964844 L 793.363281 464.964844 Z M 793.28125 464.964844 " fill-opacity="1" fill-rule="nonzero"/><path fill="#d51b27" d="M 803.703125 173.972656 C 815.925781 167.296875 835.390625 161.921875 848.882812 159.480469 C 851.558594 158.992188 854.328125 158.6875 856.949219 159.335938 C 859.574219 159.988281 862.058594 161.746094 863.03125 164.390625 C 864.417969 168.152344 862.335938 172.644531 859.171875 175.03125 C 856.003906 177.421875 852.03125 178.160156 848.195312 178.632812 C 838.898438 179.773438 822.507812 178.320312 803.703125 173.972656 Z M 803.703125 173.972656 " fill-opacity="1" fill-rule="nonzero"/><path fill="#d51b27" d="M 800.523438 210.394531 C 810.121094 222.0625 820.519531 232.992188 831.613281 243.070312 C 834.804688 245.96875 839.347656 248.914062 842.960938 246.460938 C 845.308594 244.867188 846.078125 241.457031 845.410156 238.644531 C 844.742188 235.828125 842.933594 233.503906 841.03125 231.429688 C 832.988281 222.648438 822.34375 216.566406 800.523438 210.394531 Z M 800.523438 210.394531 " fill-opacity="1" fill-rule="nonzero"/><path fill="#552d2d" d="M 590.03125 274.015625 C 571.34375 274.015625 550.269531 271.402344 530.984375 261.992188 C 500.632812 247.179688 481.109375 216.71875 482.40625 186.195312 C 483.273438 165.664062 492.722656 147.671875 501.855469 130.269531 C 510.496094 113.8125 518.65625 98.269531 519.53125 81.398438 C 519.808594 76.015625 519.359375 70.414062 518.878906 64.480469 C 517.859375 51.828125 516.804688 38.746094 522.890625 26.398438 C 528.828125 14.339844 541.078125 5.460938 555.664062 2.652344 C 569.578125 -0.0351562 583.394531 2.992188 592.5625 5.5 C 649.910156 21.195312 696.515625 64.484375 717.222656 121.300781 C 718.707031 125.363281 716.609375 129.855469 712.546875 131.335938 C 708.503906 132.816406 703.996094 130.722656 702.515625 126.664062 C 683.542969 74.605469 640.894531 34.957031 588.425781 20.601562 C 576.09375 17.226562 566.90625 16.429688 558.625 18.023438 C 548.828125 19.910156 540.71875 25.628906 536.929688 33.316406 C 532.757812 41.792969 533.59375 52.203125 534.480469 63.226562 C 534.976562 69.402344 535.492188 75.789062 535.160156 82.207031 C 534.109375 102.507812 524.757812 120.320312 515.714844 137.546875 C 507 154.152344 498.765625 169.835938 498.042969 186.859375 C 496.847656 215.039062 517.175781 237.832031 537.847656 247.925781 C 557.648438 257.585938 582.40625 260.414062 615.753906 256.835938 C 637.128906 254.542969 658.542969 238.644531 681.214844 208.234375 C 683.796875 204.769531 688.707031 204.046875 692.167969 206.636719 C 695.632812 209.21875 696.347656 214.125 693.765625 217.589844 C 668.34375 251.6875 643.371094 269.617188 617.417969 272.402344 C 609.417969 273.261719 600.070312 274.015625 590.03125 274.015625 Z M 590.03125 274.015625 " fill-opacity="1" fill-rule="nonzero"/><path fill="#552d2d" d="M 555.210938 422.828125 C 553.292969 422.828125 551.363281 422.347656 549.585938 421.378906 C 545.339844 419.066406 542.859375 414.386719 543.261719 409.457031 C 545.433594 382.984375 544.65625 356.339844 540.953125 330.222656 L 477.839844 339.671875 C 473.300781 340.34375 468.933594 338.15625 466.765625 334.0625 C 464.535156 329.871094 465.203125 324.699219 468.425781 321.183594 C 494.191406 293.113281 507.894531 268.761719 518.863281 246.625 C 520.777344 242.757812 525.472656 241.167969 529.347656 243.089844 C 533.222656 245.007812 534.804688 249.703125 532.886719 253.578125 C 522.65625 274.222656 510.144531 296.730469 488.375 322.261719 L 540.792969 314.414062 C 544.316406 313.894531 547.863281 314.769531 550.75 316.910156 C 553.699219 319.097656 555.621094 322.324219 556.160156 326.003906 C 559.890625 351.285156 560.988281 377.054688 559.4375 402.726562 C 609.367188 361.910156 663.320312 290.449219 692.601562 225.761719 C 694.386719 221.820312 699.03125 220.066406 702.964844 221.859375 C 706.898438 223.640625 708.648438 228.277344 706.867188 232.214844 C 675.347656 301.84375 615.953125 379.199219 562.429688 420.332031 C 560.273438 421.988281 557.746094 422.828125 555.210938 422.828125 Z M 555.210938 422.828125 " fill-opacity="1" fill-rule="nonzero"/><path fill="#d51b27" d="M 668.800781 145.992188 C 661.097656 134.273438 653.214844 122.355469 642.433594 113.773438 C 640.292969 112.070312 637.992188 110.480469 635.375 109.804688 C 632.757812 109.128906 629.753906 109.496094 627.667969 111.367188 C 624.699219 114.03125 624.460938 118.988281 626.148438 122.605469 C 627.839844 126.21875 631.003906 128.765625 634.171875 131.007812 C 641.851562 136.445312 650.183594 140.871094 668.800781 145.992188 Z M 668.800781 145.992188 " fill-opacity="1" fill-rule="nonzero"/><path fill="#d51b27" d="M 667.082031 175.667969 C 653.207031 181.398438 638.964844 186.09375 624.503906 189.707031 C 620.34375 190.746094 614.972656 191.183594 612.914062 187.296875 C 611.582031 184.773438 612.480469 181.394531 614.375 179.226562 C 616.265625 177.0625 618.941406 175.871094 621.578125 174.945312 C 632.746094 171.027344 644.960938 170.726562 667.082031 175.667969 Z M 667.082031 175.667969 " fill-opacity="1" fill-rule="nonzero"/><path fill="#552d2d" d="M 758.730469 443.554688 C 758.242188 443.554688 757.738281 443.503906 757.242188 443.410156 L 601.433594 413.394531 C 597.195312 412.578125 594.417969 408.484375 595.222656 404.242188 L 603.277344 361.96875 C 604.085938 357.722656 608.1875 354.945312 612.429688 355.742188 C 616.679688 356.554688 619.46875 360.652344 618.65625 364.898438 L 612.0625 399.5 L 760.203125 428.035156 C 764.445312 428.855469 767.226562 432.957031 766.40625 437.203125 C 765.683594 440.949219 762.40625 443.554688 758.730469 443.554688 Z M 758.730469 443.554688 " fill-opacity="1" fill-rule="nonzero"/><path fill="#fefefe" d="M 753.695312 414.445312 C 698.78125 443.769531 661.449219 499.640625 643.613281 559.289062 C 625.773438 618.9375 625.554688 682.445312 630.351562 744.519531 C 643.742188 917.757812 695.605469 1087.914062 781.109375 1239.167969 C 810.960938 1291.972656 846.078125 1343.769531 895.96875 1378.261719 C 920.171875 1394.992188 952.949219 1407.140625 978.230469 1392.085938 C 995.671875 1381.699219 1004.4375 1360.539062 1005.03125 1340.25 C 1005.625 1319.957031 999.296875 1300.15625 992.617188 1280.988281 C 954.175781 1170.683594 901.777344 1065.828125 857.902344 957.570312 C 814.023438 849.316406 778.328125 735.695312 775.84375 618.910156 C 775.152344 586.300781 780.183594 548.144531 808.3125 531.644531 C 835.949219 515.433594 873.65625 530.4375 892.144531 556.605469 C 910.632812 582.773438 914.234375 616.472656 914.738281 648.511719 C 915.242188 680.550781 913.335938 713.324219 922.894531 743.910156 C 930.253906 767.472656 945.734375 789.949219 968.765625 798.828125 C 996.628906 809.566406 1029.621094 797.359375 1049.621094 775.179688 C 1069.617188 753 1078.484375 722.820312 1081.855469 693.144531 C 1091.3125 609.945312 1059.871094 523.0625 999.355469 465.1875 C 938.84375 407.316406 844.527344 365.9375 753.695312 414.445312 Z M 753.695312 414.445312 " fill-opacity="1" fill-rule="nonzero"/><path fill="#ed2027" d="M 911.125 607.640625 C 912.847656 633.621094 914.570312 659.605469 916.792969 688.367188 C 943.515625 676.765625 975.082031 678.855469 1001.644531 690.816406 C 1028.207031 702.773438 1049.976562 723.90625 1065.886719 748.308594 C 1091.152344 692.917969 1090.949219 626.496094 1065.34375 571.261719 C 1064.113281 568.605469 1062.78125 565.917969 1060.667969 563.894531 C 1057.046875 560.425781 1051.75 559.472656 1046.769531 558.914062 C 997.164062 553.355469 945.386719 572.988281 911.125 607.640625 Z M 911.125 607.640625 " fill-opacity="1" fill-rule="nonzero"/><path fill="#ed2027" d="M 813.03125 529.191406 C 787.695312 511.960938 767.292969 487.558594 754.820312 459.570312 C 748.863281 446.199219 744.648438 431.242188 750.488281 417.941406 C 781.628906 400.855469 817.492188 392.488281 852.976562 394.023438 C 888.464844 395.558594 923.46875 406.996094 953.019531 426.707031 C 934.386719 433.902344 915.363281 441.324219 900.164062 454.277344 C 879.046875 472.277344 867.316406 499.828125 865.417969 527.515625 C 846.65625 526.265625 827.894531 525.019531 813.03125 529.191406 Z M 813.03125 529.191406 " fill-opacity="1" fill-rule="nonzero"/><path fill="#ed2027" d="M 658.957031 516.058594 C 678.726562 557.296875 717.1875 589.113281 761.398438 600.800781 C 766.136719 602.050781 771.363281 603.363281 774.199219 607.359375 C 776.234375 610.226562 776.597656 613.914062 776.898438 617.417969 C 779.496094 647.847656 782.097656 678.273438 784.695312 708.703125 C 736.378906 708.898438 688.125 693.441406 648.910156 665.207031 C 642.425781 660.539062 635.949219 655.242188 632.683594 647.941406 C 629.4375 640.679688 629.785156 632.371094 630.441406 624.441406 C 633.457031 587.953125 641.734375 551.902344 658.957031 516.058594 Z M 658.957031 516.058594 " fill-opacity="1" fill-rule="nonzero"/><path fill="#ed2027" d="M 637.378906 798.121094 C 644.1875 817.800781 644.113281 839.070312 645.605469 859.839844 C 647.101562 880.609375 650.640625 902.257812 663.230469 918.84375 C 673.78125 932.746094 689.570312 941.585938 705.285156 949.175781 C 730.085938 961.160156 756.140625 971.101562 783.371094 975.269531 C 810.601562 979.4375 839.171875 977.589844 864.5 966.761719 C 843.617188 921.28125 825.609375 874.480469 810.617188 826.734375 C 753.773438 840.261719 691.691406 830.175781 637.378906 798.121094 Z M 637.378906 798.121094 " fill-opacity="1" fill-rule="nonzero"/><path fill="#ed2027" d="M 710.351562 1084.304688 C 734.984375 1141.445312 761.488281 1197.773438 789.808594 1253.175781 C 818.734375 1261.234375 847.90625 1268.796875 877.710938 1272.441406 C 907.511719 1276.089844 938.097656 1275.738281 967.164062 1265.753906 C 973.652344 1263.25 980.140625 1260.746094 986.625 1258.242188 C 964.398438 1212.230469 944.363281 1165.160156 926.609375 1117.242188 C 895.785156 1129.324219 863.320312 1140.296875 830.3125 1137.710938 C 786.742188 1134.296875 748.792969 1108 710.351562 1084.304688 Z M 710.351562 1084.304688 " fill-opacity="1" fill-rule="nonzero"/><path fill="#552d2d" d="M 952.304688 1406.816406 C 927.023438 1406.816406 902.917969 1392.582031 891.523438 1384.699219 C 837.8125 1347.574219 802.121094 1292.246094 774.296875 1243.019531 C 688.464844 1091.1875 635.988281 919.019531 622.546875 745.125 C 618.46875 692.324219 616.320312 623.230469 636.113281 557.046875 C 656.171875 489.976562 697.683594 435.484375 750.007812 407.539062 C 844.832031 356.898438 943.777344 401.199219 1004.761719 459.53125 C 1066.808594 518.871094 1099.328125 608.726562 1089.632812 694.03125 C 1085.449219 730.824219 1073.941406 759.890625 1055.429688 780.421875 C 1031.71875 806.722656 994.941406 817.304688 965.945312 806.132812 C 942.960938 797.273438 924.546875 775.445312 915.421875 746.246094 C 907.171875 719.835938 907.097656 692.085938 907.027344 665.25 C 907.015625 659.703125 907 654.15625 906.910156 648.632812 C 906.453125 619.519531 903.582031 586.359375 885.75 561.125 C 869.875 538.648438 836.558594 524.160156 812.273438 538.394531 C 792.40625 550.046875 782.785156 577.078125 783.671875 618.746094 C 786.351562 744.882812 828.625 864.507812 865.152344 954.632812 C 881.769531 995.628906 899.933594 1036.863281 917.5 1076.742188 C 946.289062 1142.105469 976.058594 1209.695312 1000.003906 1278.410156 C 1007.132812 1298.859375 1013.480469 1318.992188 1012.855469 1340.480469 C 1012.121094 1365.652344 1000.386719 1388.003906 982.234375 1398.8125 C 972.554688 1404.574219 962.335938 1406.816406 952.304688 1406.816406 Z M 753.695312 414.445312 L 757.382812 421.347656 C 708.710938 447.339844 669.980469 498.433594 651.109375 561.53125 C 632.058594 625.246094 634.179688 692.46875 638.15625 743.917969 C 651.421875 915.542969 703.210938 1085.464844 787.925781 1235.3125 C 814.875 1282.992188 849.320312 1336.496094 900.417969 1371.824219 C 910.898438 1379.066406 947.199219 1401.453125 974.222656 1385.359375 C 990.476562 1375.683594 996.753906 1355.59375 997.207031 1340.019531 C 997.757812 1321.199219 991.851562 1302.574219 985.222656 1283.566406 C 961.484375 1215.433594 931.835938 1148.136719 903.171875 1083.050781 C 885.5625 1043.070312 867.351562 1001.722656 850.644531 960.511719 C 813.613281 869.148438 770.757812 747.769531 768.015625 619.078125 C 767.003906 571.316406 779.230469 539.625 804.351562 524.890625 C 837.09375 505.6875 878.730469 524.058594 898.539062 552.089844 C 918.824219 580.804688 922.070312 616.882812 922.566406 648.390625 C 922.652344 653.980469 922.664062 659.589844 922.679688 665.210938 C 922.75 690.878906 922.816406 717.425781 930.367188 741.574219 C 938.054688 766.1875 953.074219 784.390625 971.574219 791.523438 C 994.632812 800.410156 1024.335938 791.53125 1043.804688 769.9375 C 1060.089844 751.878906 1070.273438 725.746094 1074.078125 692.261719 C 1083.234375 611.714844 1052.53125 526.875 993.949219 470.84375 C 966.269531 444.378906 867.425781 362.585938 757.386719 421.347656 Z M 753.695312 414.445312 " fill-opacity="1" fill-rule="nonzero"/><path fill="#552d2d" d="M 777.722656 718.394531 C 724.03125 718.394531 669.511719 694.667969 623.457031 651.097656 C 620.316406 648.125 620.179688 643.171875 623.148438 640.03125 C 626.121094 636.890625 631.070312 636.753906 634.210938 639.722656 C 678.492188 681.609375 733.0625 704.578125 783.960938 702.621094 C 788.324219 702.46875 791.914062 705.832031 792.078125 710.148438 C 792.238281 714.46875 788.867188 718.101562 784.550781 718.265625 C 782.277344 718.351562 779.996094 718.394531 777.722656 718.394531 Z M 777.722656 718.394531 " fill-opacity="1" fill-rule="nonzero"/><path fill="#552d2d" d="M 757.824219 841.652344 C 718.199219 841.652344 676.300781 827.835938 631.054688 800.015625 C 627.375 797.75 626.222656 792.929688 628.488281 789.246094 C 630.753906 785.5625 635.570312 784.410156 639.257812 786.679688 C 701.875 825.1875 757.089844 835.242188 808.066406 817.414062 C 812.171875 815.980469 816.613281 818.136719 818.039062 822.21875 C 819.46875 826.296875 817.316406 830.761719 813.234375 832.1875 C 795.210938 838.492188 776.777344 841.652344 757.824219 841.652344 Z M 757.824219 841.652344 " fill-opacity="1" fill-rule="nonzero"/><path fill="#552d2d" d="M 816.792969 985.929688 C 760.296875 985.929688 692.0625 957.617188 651.167969 921.75 C 647.917969 918.898438 647.589844 913.953125 650.441406 910.703125 C 653.289062 907.453125 658.238281 907.128906 661.488281 909.980469 C 711.742188 954.050781 807.128906 985.808594 859.570312 962.339844 C 863.507812 960.574219 868.144531 962.339844 869.910156 966.285156 C 871.675781 970.234375 869.910156 974.863281 865.964844 976.628906 C 851.613281 983.050781 834.792969 985.929688 816.792969 985.929688 Z M 816.792969 985.929688 " fill-opacity="1" fill-rule="nonzero"/><path fill="#552d2d" d="M 849.160156 1141.46875 C 801.339844 1141.46875 752.96875 1122.957031 701.226562 1085.457031 C 697.722656 1082.917969 696.945312 1078.023438 699.480469 1074.523438 C 702.011719 1071.027344 706.90625 1070.238281 710.414062 1072.777344 C 786.289062 1127.777344 854 1139.492188 923.488281 1109.664062 C 927.464844 1107.957031 932.0625 1109.796875 933.765625 1113.773438 C 935.472656 1117.742188 933.632812 1122.347656 929.664062 1124.050781 C 902.675781 1135.632812 876.003906 1141.46875 849.160156 1141.46875 Z M 849.160156 1141.46875 " fill-opacity="1" fill-rule="nonzero"/><path fill="#552d2d" d="M 899.058594 1286.007812 C 860.988281 1286.007812 821.988281 1276.578125 784.300781 1257.824219 C 780.429688 1255.898438 778.855469 1251.199219 780.777344 1247.328125 C 782.703125 1243.460938 787.390625 1241.875 791.273438 1243.808594 C 855.207031 1275.621094 922.972656 1278.929688 982.085938 1253.117188 C 986.03125 1251.390625 990.660156 1253.195312 992.386719 1257.15625 C 994.117188 1261.121094 992.308594 1265.734375 988.34375 1267.464844 C 959.996094 1279.84375 929.828125 1286.007812 899.058594 1286.007812 Z M 899.058594 1286.007812 " fill-opacity="1" fill-rule="nonzero"/><path fill="#552d2d" d="M 775.929688 613.609375 C 775.472656 613.609375 775.007812 613.566406 774.539062 613.480469 C 737.015625 606.734375 685.179688 579.402344 652.257812 522.914062 C 650.078125 519.179688 651.339844 514.386719 655.078125 512.207031 C 658.8125 510.027344 663.605469 511.296875 665.777344 515.027344 C 696.023438 566.914062 743.222656 591.945312 777.308594 598.074219 C 781.566406 598.839844 784.394531 602.90625 783.628906 607.164062 C 782.949219 610.949219 779.648438 613.609375 775.929688 613.609375 Z M 775.929688 613.609375 " fill-opacity="1" fill-rule="nonzero"/><path fill="#552d2d" d="M 814.636719 536.382812 C 813.230469 536.382812 811.808594 536.003906 810.523438 535.207031 C 770.804688 510.609375 747.417969 472.78125 739.027344 419.5625 C 738.355469 415.289062 741.273438 411.28125 745.542969 410.609375 C 749.820312 409.933594 753.820312 412.851562 754.492188 417.121094 C 762.132812 465.570312 783.152344 499.84375 818.765625 521.898438 C 822.441406 524.175781 823.578125 529 821.296875 532.675781 C 819.820312 535.066406 817.257812 536.382812 814.636719 536.382812 Z M 814.636719 536.382812 " fill-opacity="1" fill-rule="nonzero"/><path fill="#552d2d" d="M 863.457031 540.089844 C 863.382812 540.089844 863.3125 540.089844 863.238281 540.085938 C 858.917969 539.96875 855.511719 536.371094 855.628906 532.050781 C 856.882812 485.878906 887.394531 433.945312 952.726562 421.992188 C 957.019531 421.210938 961.058594 424.03125 961.835938 428.285156 C 962.613281 432.535156 959.796875 436.613281 955.546875 437.390625 C 905.679688 446.515625 872.597656 483.835938 871.273438 532.472656 C 871.160156 536.722656 867.679688 540.089844 863.457031 540.089844 Z M 863.457031 540.089844 " fill-opacity="1" fill-rule="nonzero"/><path fill="#552d2d" d="M 912.675781 623.53125 C 911.601562 623.53125 910.511719 623.308594 909.46875 622.839844 C 905.523438 621.066406 903.765625 616.433594 905.539062 612.488281 C 922.101562 575.675781 1011.695312 532.101562 1067.320312 555.652344 C 1071.300781 557.335938 1073.164062 561.929688 1071.476562 565.910156 C 1069.792969 569.890625 1065.191406 571.757812 1061.21875 570.066406 C 1015.039062 550.527344 933.746094 587.957031 919.816406 618.914062 C 918.511719 621.8125 915.660156 623.53125 912.675781 623.53125 Z M 912.675781 623.53125 " fill-opacity="1" fill-rule="nonzero"/><path fill="#552d2d" d="M 1067.816406 754.925781 C 1065.136719 754.925781 1062.527344 753.546875 1061.066406 751.074219 C 1019.695312 680.941406 946.5 689.695312 916.945312 696.71875 C 912.75 697.710938 908.515625 695.121094 907.519531 690.914062 C 906.523438 686.707031 909.121094 682.488281 913.328125 681.488281 C 939.011719 675.382812 1026.5625 661.789062 1074.550781 743.117188 C 1076.75 746.839844 1075.511719 751.640625 1071.789062 753.835938 C 1070.539062 754.574219 1069.167969 754.925781 1067.816406 754.925781 Z M 1067.816406 754.925781 " fill-opacity="1" fill-rule="nonzero"/><path fill="#552d2d" d="M 787.792969 1258.644531 C 785.117188 1258.644531 782.511719 1257.273438 781.050781 1254.804688 C 778.605469 1250.675781 777.71875 1249.09375 776.054688 1246.136719 L 774.296875 1243.019531 C 745.949219 1192.875 720.976562 1140.039062 700.066406 1085.976562 C 698.507812 1081.941406 700.511719 1077.410156 704.542969 1075.851562 C 708.582031 1074.296875 713.105469 1076.292969 714.664062 1080.328125 C 735.304688 1133.683594 759.949219 1185.828125 787.925781 1235.3125 L 789.691406 1238.457031 C 791.300781 1241.316406 792.160156 1242.84375 794.519531 1246.828125 C 796.726562 1250.546875 795.496094 1255.347656 791.773438 1257.550781 C 790.523438 1258.292969 789.152344 1258.644531 787.792969 1258.644531 Z M 787.792969 1258.644531 " fill-opacity="1" fill-rule="nonzero"/><path fill="#552d2d" d="M 656.320312 923.695312 C 652.753906 923.695312 649.527344 921.238281 648.699219 917.613281 C 639.339844 876.75 632.582031 837.71875 627.445312 794.777344 C 626.925781 790.484375 629.988281 786.585938 634.28125 786.074219 C 638.546875 785.554688 642.46875 788.617188 642.984375 792.914062 C 648.058594 835.292969 654.722656 873.804688 663.957031 914.117188 C 664.921875 918.332031 662.289062 922.527344 658.074219 923.496094 C 657.484375 923.628906 656.902344 923.695312 656.320312 923.695312 Z M 656.320312 923.695312 " fill-opacity="1" fill-rule="nonzero"/><path fill="#552d2d" d="M 628.933594 651.753906 C 628.769531 651.753906 628.605469 651.75 628.4375 651.738281 C 624.121094 651.46875 620.84375 647.753906 621.113281 643.4375 C 623.808594 600.3125 633.898438 557.917969 651.097656 517.425781 C 652.785156 513.449219 657.367188 511.59375 661.359375 513.285156 C 665.339844 514.976562 667.191406 519.570312 665.503906 523.550781 C 649 562.402344 639.320312 603.0625 636.738281 644.417969 C 636.476562 648.5625 633.035156 651.753906 628.933594 651.753906 Z M 628.933594 651.753906 " fill-opacity="1" fill-rule="nonzero"/><path fill="#552d2d" d="M 951.878906 436.097656 C 950.488281 436.097656 949.082031 435.726562 947.804688 434.945312 C 910.207031 411.972656 835.460938 379.65625 757.382812 421.347656 C 755.007812 422.617188 753.066406 423.699219 750.757812 425.070312 C 747.039062 427.277344 742.234375 426.058594 740.03125 422.339844 C 737.824219 418.621094 739.042969 413.820312 742.761719 411.613281 C 745.285156 410.113281 747.410156 408.925781 750.011719 407.539062 C 834.953125 362.179688 915.507812 396.871094 955.96875 421.585938 C 959.65625 423.839844 960.816406 428.65625 958.566406 432.347656 C 957.089844 434.761719 954.515625 436.097656 951.878906 436.097656 Z M 951.878906 436.097656 " fill-opacity="1" fill-rule="nonzero"/><path fill="#552d2d" d="M 1067.714844 755.128906 C 1066.617188 755.128906 1065.5 754.898438 1064.4375 754.40625 C 1060.511719 752.597656 1058.800781 747.949219 1060.609375 744.023438 C 1067.292969 729.535156 1071.820312 712.117188 1074.078125 692.261719 C 1078.855469 650.25 1073.152344 608.660156 1056.644531 565.117188 C 1055.113281 561.074219 1057.148438 556.554688 1061.191406 555.023438 C 1065.222656 553.5 1069.75 555.519531 1071.28125 559.566406 C 1088.695312 605.496094 1094.699219 649.480469 1089.632812 694.03125 C 1087.1875 715.542969 1082.207031 734.570312 1074.824219 750.578125 C 1073.503906 753.441406 1070.671875 755.128906 1067.714844 755.128906 Z M 1067.714844 755.128906 " fill-opacity="1" fill-rule="nonzero"/><path fill="#552d2d" d="M 915.085938 695.550781 C 910.863281 695.550781 907.386719 692.183594 907.269531 687.9375 C 907.050781 680.140625 907.035156 672.585938 907.019531 665.003906 C 907.007812 659.59375 907 654.171875 906.914062 648.632812 L 906.84375 643.726562 C 906.726562 634.195312 906.675781 630.246094 905.066406 617.804688 C 904.511719 613.519531 907.539062 609.59375 911.824219 609.039062 C 916.0625 608.476562 920.035156 611.503906 920.589844 615.796875 C 922.3125 629.140625 922.375 633.949219 922.496094 643.53125 L 922.566406 648.386719 C 922.652344 654.003906 922.660156 659.496094 922.671875 664.972656 C 922.6875 672.421875 922.699219 679.84375 922.914062 687.503906 C 923.035156 691.824219 919.628906 695.425781 915.308594 695.546875 C 915.234375 695.546875 915.160156 695.550781 915.085938 695.550781 Z M 915.085938 695.550781 " fill-opacity="1" fill-rule="nonzero"/><path fill="#552d2d" d="M 862.699219 539.722656 C 861.554688 539.722656 860.398438 539.472656 859.300781 538.941406 C 848.792969 533.867188 833.054688 529.1875 817.808594 535.695312 C 813.839844 537.398438 809.238281 535.546875 807.535156 531.570312 C 805.839844 527.597656 807.691406 522.996094 811.664062 521.300781 C 828.019531 514.316406 846.84375 515.546875 866.105469 524.84375 C 870 526.722656 871.628906 531.402344 869.75 535.292969 C 868.402344 538.09375 865.605469 539.722656 862.699219 539.722656 Z M 862.699219 539.722656 " fill-opacity="1" fill-rule="nonzero"/><path fill="#552d2d" d="M 783.984375 716.636719 C 780.195312 716.636719 776.867188 713.875 776.265625 710.015625 C 771.417969 679.015625 768.644531 648.421875 768.015625 619.078125 C 767.929688 614.871094 767.933594 610.574219 768.0625 606.242188 C 768.191406 601.917969 771.890625 598.546875 776.121094 598.652344 C 780.441406 598.78125 783.839844 602.390625 783.707031 606.710938 C 783.585938 610.773438 783.582031 614.796875 783.671875 618.742188 C 784.277344 647.390625 786.988281 677.285156 791.726562 707.597656 C 792.394531 711.867188 789.476562 715.871094 785.203125 716.539062 C 784.792969 716.601562 784.390625 716.636719 783.984375 716.636719 Z M 783.984375 716.636719 " fill-opacity="1" fill-rule="nonzero"/><path fill="#552d2d" d="M 862.480469 976.605469 C 859.40625 976.605469 856.484375 974.78125 855.238281 971.757812 L 850.644531 960.515625 C 829.777344 909.023438 815.769531 869.753906 803.796875 829.207031 C 802.574219 825.058594 804.9375 820.703125 809.085938 819.480469 C 813.222656 818.253906 817.585938 820.621094 818.808594 824.773438 C 830.628906 864.804688 844.488281 903.640625 865.152344 954.632812 L 869.714844 965.796875 C 871.359375 969.792969 869.457031 974.367188 865.457031 976.015625 C 864.484375 976.414062 863.476562 976.605469 862.480469 976.605469 Z M 862.480469 976.605469 " fill-opacity="1" fill-rule="nonzero"/><path fill="#552d2d" d="M 984.5625 1266.324219 C 981.375 1266.324219 978.378906 1264.359375 977.214844 1261.191406 C 959.140625 1211.960938 938.765625 1164.277344 919.441406 1120.078125 C 917.703125 1116.117188 919.511719 1111.503906 923.472656 1109.769531 C 927.429688 1108.042969 932.050781 1109.84375 933.777344 1113.804688 C 953.203125 1158.230469 973.691406 1206.179688 991.90625 1255.796875 C 993.398438 1259.855469 991.316406 1264.351562 987.257812 1265.839844 C 986.367188 1266.167969 985.460938 1266.324219 984.5625 1266.324219 Z M 984.5625 1266.324219 " fill-opacity="1" fill-rule="nonzero"/><path fill="#fffcf6" d="M 686.132812 1167.621094 C 686.132812 1167.621094 873.675781 1289.800781 840.222656 1358.957031 C 806.769531 1428.113281 761.773438 1439.910156 638.953125 1407.570312 C 516.128906 1375.226562 498.75 1328.753906 498.75 1328.753906 C 498.75 1328.753906 526.296875 1156.757812 686.132812 1167.621094 Z M 686.132812 1167.621094 " fill-opacity="1" fill-rule="nonzero"/><path fill="#ffbd91" d="M 768.070312 1237.300781 C 710.398438 1274.808594 670.742188 1338.816406 662.835938 1407.160156 C 696.410156 1416.097656 731.378906 1423.984375 765.648438 1418.265625 C 799.917969 1412.546875 833.582031 1390.097656 842.515625 1356.519531 C 849.488281 1330.304688 840.222656 1301.699219 823.410156 1280.410156 C 806.601562 1259.125 783.058594 1244.199219 768.070312 1237.300781 Z M 768.070312 1237.300781 " fill-opacity="1" fill-rule="nonzero"/><path fill="#552d2d" d="M 741.953125 1428.578125 C 733.757812 1428.578125 725.097656 1428.144531 715.9375 1427.285156 C 553.042969 1411.980469 403.28125 1322.523438 325.105469 1193.820312 C 278.261719 1116.703125 256.441406 1028.414062 263.667969 945.222656 C 264.039062 940.917969 267.84375 937.738281 272.140625 938.101562 C 276.449219 938.476562 279.636719 942.269531 279.261719 946.574219 C 272.324219 1026.480469 293.355469 1111.398438 338.480469 1185.691406 C 414.144531 1310.246094 559.335938 1396.847656 717.40625 1411.699219 C 767.078125 1416.367188 800.171875 1407.789062 818.597656 1385.488281 C 846.519531 1351.6875 828.140625 1295.960938 795.101562 1263.71875 C 777.289062 1246.332031 755.664062 1232.292969 734.757812 1218.714844 C 714.898438 1205.816406 694.367188 1192.480469 676.460938 1176.019531 C 673.277344 1173.09375 673.070312 1168.140625 675.996094 1164.957031 C 678.921875 1161.78125 683.863281 1161.5625 687.054688 1164.492188 C 703.996094 1180.066406 723.96875 1193.039062 743.28125 1205.582031 C 764.828125 1219.578125 787.109375 1234.046875 806.03125 1252.511719 C 844.875 1290.417969 864.707031 1354.25 830.664062 1395.460938 C 812.332031 1417.652344 783.171875 1428.574219 741.953125 1428.578125 Z M 741.953125 1428.578125 " fill-opacity="1" fill-rule="nonzero"/><path fill="#fffcf6" d="M 551.375 929.800781 C 540.320312 978.4375 546.328125 1030.78125 568.113281 1075.648438 C 571.941406 1083.535156 576.742188 1091.675781 584.6875 1095.375 C 592.867188 1099.183594 602.464844 1097.398438 611.199219 1095.125 C 637.457031 1088.289062 662.71875 1077.640625 685.945312 1063.617188 C 699.558594 1055.398438 712.683594 1045.824219 722.234375 1033.109375 C 731.789062 1020.398438 737.46875 1004.128906 734.828125 988.449219 C 731.8125 970.578125 718.390625 955.769531 702.535156 946.992188 C 686.679688 938.21875 668.527344 934.636719 650.605469 931.957031 C 616.605469 926.875 582.191406 924.589844 551.375 929.800781 Z M 551.375 929.800781 " fill-opacity="1" fill-rule="nonzero"/><path fill="#ffbd91" d="M 626.457031 924.582031 C 598.683594 971.246094 604.691406 1035.558594 640.632812 1076.261719 C 662.988281 1068.53125 685.878906 1060.503906 704.0625 1045.371094 C 722.246094 1030.242188 734.996094 1006.242188 730.152344 983.089844 C 725.878906 962.667969 708.789062 946.832031 689.65625 938.527344 C 670.519531 930.222656 649.339844 928.226562 626.457031 924.582031 Z M 626.457031 924.582031 " fill-opacity="1" fill-rule="nonzero"/><path fill="#552d2d" d="M 571.738281 1104.699219 C 567.878906 1104.699219 564.519531 1101.84375 563.992188 1097.910156 C 563.417969 1093.625 566.425781 1089.6875 570.710938 1089.113281 C 606.71875 1084.285156 641.515625 1073.71875 674.132812 1057.707031 C 686.625 1051.574219 702.402344 1042.886719 713.566406 1030.074219 C 724.375 1017.660156 729.421875 1002.347656 727.054688 989.113281 C 724.878906 976.933594 716.328125 965.25 703.597656 957.0625 C 690.410156 948.578125 674.484375 944.640625 662.085938 942.15625 C 623.046875 934.335938 581.757812 934.230469 542.683594 941.851562 C 538.449219 942.6875 534.324219 939.90625 533.503906 935.664062 C 532.671875 931.421875 535.445312 927.308594 539.6875 926.484375 C 580.753906 918.476562 624.136719 918.589844 665.160156 926.808594 C 678.910156 929.5625 696.667969 933.992188 712.066406 943.894531 C 728.441406 954.433594 739.527344 969.910156 742.464844 986.359375 C 745.65625 1004.214844 739.265625 1024.402344 725.367188 1040.359375 C 712.363281 1055.28125 694.84375 1064.980469 681.027344 1071.761719 C 646.890625 1088.515625 610.476562 1099.578125 572.789062 1104.628906 C 572.4375 1104.675781 572.085938 1104.699219 571.738281 1104.699219 Z M 571.738281 1104.699219 " fill-opacity="1" fill-rule="nonzero"/><path fill="#fffcf6" d="M 923.714844 839.082031 C 959.886719 873.421875 983.917969 920.308594 990.671875 969.730469 C 991.859375 978.414062 992.382812 987.851562 987.820312 995.335938 C 983.125 1003.042969 974.148438 1006.882812 965.621094 1009.835938 C 939.980469 1018.710938 913.058594 1023.863281 885.953125 1025.078125 C 870.066406 1025.789062 853.835938 1025.105469 838.839844 1019.824219 C 823.839844 1014.546875 810.089844 1004.160156 803.59375 989.648438 C 796.1875 973.105469 799.148438 953.339844 807.472656 937.242188 C 815.796875 921.144531 828.917969 908.09375 842.34375 895.921875 C 867.8125 872.835938 895.183594 851.84375 923.714844 839.082031 Z M 923.714844 839.082031 " fill-opacity="1" fill-rule="nonzero"/><path fill="#ffbd91" d="M 858.347656 876.394531 C 907.335938 899.8125 938 956.660156 930.671875 1010.464844 C 907.78125 1016.433594 884.28125 1022.453125 860.757812 1019.949219 C 837.238281 1017.445312 813.320312 1004.546875 804.511719 982.59375 C 796.742188 963.234375 802.179688 940.578125 813.496094 923.050781 C 824.8125 905.527344 841.328125 892.117188 858.347656 876.394531 Z M 858.347656 876.394531 " fill-opacity="1" fill-rule="nonzero"/><path fill="#552d2d" d="M 868.613281 1031.070312 C 859.398438 1031.070312 849.71875 1030.175781 840.25 1027.59375 C 819.835938 1022.023438 803.320312 1008.773438 796.074219 992.144531 C 789.402344 976.824219 790.039062 957.800781 797.820312 939.949219 C 805.144531 923.160156 817.464844 909.628906 827.378906 899.710938 C 856.957031 870.121094 892.992188 845.960938 931.601562 829.839844 C 935.597656 828.179688 940.171875 830.0625 941.839844 834.050781 C 943.503906 838.039062 941.621094 842.621094 937.632812 844.289062 C 900.890625 859.628906 866.59375 882.621094 838.445312 910.78125 C 829.507812 919.722656 818.445312 931.828125 812.167969 946.207031 C 806.121094 960.082031 805.484375 974.546875 810.425781 985.890625 C 815.796875 998.210938 828.484375 1008.15625 844.371094 1012.488281 C 860.757812 1016.960938 878.703125 1015.4375 892.503906 1013.605469 C 928.523438 1008.839844 963.339844 998.328125 995.980469 982.371094 C 999.867188 980.46875 1004.550781 982.085938 1006.449219 985.964844 C 1008.347656 989.847656 1006.738281 994.535156 1002.851562 996.433594 C 968.695312 1013.136719 932.257812 1024.136719 894.5625 1029.128906 C 886.867188 1030.144531 877.980469 1031.070312 868.613281 1031.070312 Z M 868.613281 1031.070312 " fill-opacity="1" fill-rule="nonzero"/></svg>