<svg xmlns="http://www.w3.org/2000/svg" xmlns:xlink="http://www.w3.org/1999/xlink" width="1920" zoomAndPan="magnify" viewBox="0 0 1440 1439.999935" height="1920" preserveAspectRatio="xMidYMid meet" version="1.0"><defs><clipPath id="7156713c63"><path d="M 717 1030 L 1440 1030 L 1440 1406.550781 L 717 1406.550781 Z M 717 1030 " clip-rule="nonzero"/></clipPath><clipPath id="d705d062ff"><path d="M 514 872 L 734 872 L 734 1406.550781 L 514 1406.550781 Z M 514 872 " clip-rule="nonzero"/></clipPath></defs><path fill="#fffcf6" d="M 879.058594 551.960938 C 950.441406 571.972656 1084.058594 512.9375 1133.777344 566.269531 C 1183.492188 619.605469 1218.40625 748.945312 1231.511719 819.5625 C 1231.511719 913.578125 1222.941406 1014.371094 1161.640625 1107.8125 C 1152.078125 1122.390625 1118.800781 1163.359375 1107.703125 1177.019531 C 1080.871094 1210.050781 1029.585938 1221.953125 990.128906 1204.304688 C 982.207031 1227.535156 960.125 1244.199219 936.128906 1248.164062 C 912.132812 1252.128906 887.003906 1244.480469 867.507812 1230.40625 C 848.007812 1216.335938 833.761719 1196.316406 823.800781 1174.878906 C 808.652344 1182.234375 791.699219 1186.089844 774.746094 1186.039062 C 767.640625 1212.023438 758.074219 1240.628906 739.046875 1263.417969 C 720.023438 1286.207031 689.117188 1302.199219 659.523438 1295.820312 C 638.40625 1291.265625 621.382812 1276.394531 607.0625 1260.738281 C 576.691406 1227.546875 553.628906 1188.15625 539.828125 1145.925781 C 524.453125 1148.121094 501.921875 1146.402344 482.695312 1137.683594 C 482.292969 1162.078125 481.8125 1186.925781 473.796875 1210.066406 C 465.78125 1233.203125 448.890625 1254.792969 424.960938 1262.660156 C 398.675781 1271.304688 368.746094 1261.613281 347.765625 1244.058594 C 326.785156 1226.5 313.273438 1202.171875 301.875 1177.734375 C 260.011719 1087.976562 225.941406 912.03125 235.777344 813.992188 C 455.078125 687.632812 694.117188 646 879.058594 551.960938 Z M 879.058594 551.960938 " fill-opacity="1" fill-rule="nonzero"/><path fill="#ffbd91" d="M 954.40625 1165.742188 C 1004.863281 1115.472656 1079.007812 1077.648438 1166.957031 1095.148438 C 1157.222656 1124.339844 1130.8125 1150.191406 1111.652344 1174.65625 C 1092.492188 1199.121094 1062.53125 1217.8125 1030.808594 1216.070312 C 999.4375 1214.347656 970.679688 1190.929688 954.40625 1165.742188 Z M 954.40625 1165.742188 " fill-opacity="1" fill-rule="nonzero"/><path fill="#ffbd91" d="M 846.914062 1214.300781 C 872.121094 1193.316406 902.058594 1177.65625 934.035156 1168.726562 C 943.1875 1166.171875 953.359375 1164.234375 961.960938 1168.1875 C 977.246094 1175.214844 979.886719 1196.890625 994.804688 1204.613281 C 977.347656 1226.765625 953.125 1245.304688 924.75 1250.273438 C 896.378906 1255.242188 864.003906 1243.945312 846.914062 1214.300781 Z M 846.914062 1214.300781 " fill-opacity="1" fill-rule="nonzero"/><path fill="#ffbd91" d="M 308.769531 1182.078125 C 365.765625 1174.703125 424.484375 1179.996094 479.078125 1197.433594 C 471.070312 1220.8125 459.925781 1245.027344 438.394531 1258.234375 C 413.964844 1273.21875 380.398438 1269.835938 356.539062 1254.019531 C 332.679688 1238.203125 317.875 1211.871094 308.769531 1182.078125 Z M 308.769531 1182.078125 " fill-opacity="1" fill-rule="nonzero"/><path fill="#ffbd91" d="M 577.53125 1223.519531 C 635.300781 1205.71875 699.058594 1206.5625 756.304688 1225.890625 C 755.949219 1254.441406 735.570312 1281.214844 708.25 1292.171875 C 680.929688 1303.128906 648.207031 1298.816406 623.503906 1283.101562 C 598.804688 1267.386719 582.132812 1241.1875 577.53125 1223.519531 Z M 577.53125 1223.519531 " fill-opacity="1" fill-rule="nonzero"/><path fill="#fffcf6" d="M 206.328125 301.324219 C 188.261719 281.402344 181.953125 251.609375 190.398438 226.140625 C 198.84375 200.675781 221.714844 180.519531 248.125 175.28125 C 274.53125 170.039062 303.445312 179.917969 321.089844 200.207031 C 279.628906 228.554688 241.644531 261.9375 206.328125 301.324219 Z M 206.328125 301.324219 " fill-opacity="1" fill-rule="nonzero"/><path fill="#fffcf6" d="M 116.945312 765.480469 C 190.277344 840.769531 238.410156 835.457031 271.757812 847.332031 C 338.003906 870.914062 851.707031 847.960938 1068.085938 632.269531 C 1205.339844 546.945312 1109.886719 468.8125 1080.121094 420.890625 C 1034.136719 346.859375 994.582031 319.589844 953.121094 281.242188 C 915.128906 237.882812 836.625 198.359375 783.847656 171.425781 C 808.542969 118.863281 790.703125 85.972656 763.542969 61.359375 C 736.382812 36.75 700.328125 42.261719 666.050781 55.269531 C 631.777344 68.277344 604.914062 108.269531 601.125 144.625 C 567.683594 143.433594 531.535156 145.644531 498.609375 151.523438 C 422.023438 159.519531 348.867188 188.3125 322.542969 205.097656 C 233.523438 261.871094 214.789062 240.082031 152.441406 462.617188 C 108.121094 620.8125 87.605469 673.914062 116.945312 765.480469 Z M 116.945312 765.480469 " fill-opacity="1" fill-rule="nonzero"/><path fill="#f09a61" d="M 112.085938 598.027344 C 115.910156 622.351562 142.40625 638.039062 166.488281 636.863281 C 190.570312 635.691406 212.046875 621.832031 230.644531 606.453125 C 249.242188 591.070312 266.542969 573.53125 288.019531 562.65625 C 336.132812 538.296875 394.136719 551.972656 446.230469 567.402344 C 498.328125 582.832031 554.742188 599.503906 605.050781 580.140625 C 645.90625 564.417969 674.664062 527.761719 709.910156 501.644531 C 768.859375 457.957031 1132.148438 358.363281 1231.609375 838.921875 C 1231.609375 467.734375 943.207031 242.316406 779.929688 174.851562 C 802.203125 148.914062 802.585938 107.550781 782.492188 79.855469 C 762.398438 52.160156 724.5 39.4375 691.128906 47.214844 C 657.757812 54.992188 630.152344 81.835938 619.292969 114.21875 C 616.585938 122.28125 614.582031 131.089844 608.472656 137.023438 C 600.746094 144.527344 588.863281 145.214844 578.082031 145.792969 C 490.453125 150.503906 405.636719 176.726562 320.660156 202.558594 C 318.175781 187.257812 303.050781 176.980469 288.011719 173.019531 C 255.671875 164.496094 218.640625 178.707031 200.429688 206.628906 C 182.21875 234.546875 184.214844 274.050781 204.835938 299.46875 C 162.589844 396.144531 157.28125 505.734375 112.085938 598.027344 Z M 112.085938 598.027344 " fill-opacity="1" fill-rule="nonzero"/><path fill="#552d2d" d="M 523.59375 510.972656 C 538.632812 515.472656 554.601562 520.578125 564.492188 532.734375 C 567.941406 536.972656 570.566406 542.460938 569.367188 547.785156 C 568.113281 553.347656 562.871094 557.332031 557.328125 558.761719 C 551.785156 560.1875 545.9375 559.527344 540.261719 558.765625 C 527.859375 557.101562 515.484375 554.996094 503.464844 551.523438 C 496.527344 549.523438 489.535156 546.964844 484.121094 542.199219 C 478.703125 537.4375 475.125 530.03125 476.667969 523.007812 C 478.359375 515.3125 485.765625 509.90625 493.476562 508.15625 C 501.1875 506.402344 509.460938 506.742188 523.59375 510.972656 Z M 523.59375 510.972656 " fill-opacity="1" fill-rule="nonzero"/><path fill="#552d2d" d="M 168.039062 559.289062 C 156.371094 569.730469 144.117188 581.121094 140.386719 596.304688 C 139.085938 601.605469 139.066406 607.679688 142.4375 611.984375 C 145.960938 616.488281 152.410156 617.867188 158.039062 616.808594 C 163.664062 615.75 168.671875 612.675781 173.480469 609.578125 C 183.980469 602.820312 194.269531 595.667969 203.652344 587.433594 C 209.066406 582.683594 214.292969 577.40625 217.148438 570.804688 C 220 564.199219 220.0625 555.984375 215.648438 550.285156 C 210.816406 544.042969 201.796875 542.292969 194.070312 543.976562 C 186.34375 545.660156 179.007812 549.472656 168.039062 559.289062 Z M 168.039062 559.289062 " fill-opacity="1" fill-rule="nonzero"/><path fill="#f8c7d0" d="M 716.4375 91.585938 C 684.765625 102.703125 659.433594 130.226562 651.0625 162.628906 C 648.496094 172.550781 647.886719 184.332031 654.933594 191.808594 C 661.542969 198.816406 672.507812 199.433594 682.03125 197.921875 C 708.683594 193.695312 732.765625 175.828125 744.460938 151.605469 C 750.453125 139.199219 753.242188 124.492188 748.347656 111.601562 C 743.453125 98.710938 728.820312 87.238281 716.4375 91.585938 Z M 716.4375 91.585938 " fill-opacity="1" fill-rule="nonzero"/><path fill="#f8c7d0" d="M 636.613281 535.957031 C 638.011719 536.179688 639.398438 536.46875 640.769531 536.824219 C 642.136719 537.179688 643.488281 537.605469 644.816406 538.09375 C 646.148438 538.582031 647.449219 539.132812 648.722656 539.75 C 650 540.367188 651.238281 541.042969 652.449219 541.78125 C 653.65625 542.519531 654.824219 543.316406 655.957031 544.167969 C 657.085938 545.019531 658.171875 545.925781 659.210938 546.882812 C 660.253906 547.839844 661.242188 548.847656 662.183594 549.902344 C 663.125 550.957031 664.015625 552.058594 664.847656 553.199219 C 665.679688 554.339844 666.457031 555.519531 667.171875 556.738281 C 667.890625 557.957031 668.546875 559.207031 669.140625 560.488281 C 669.734375 561.769531 670.261719 563.078125 670.726562 564.410156 C 671.191406 565.742188 671.589844 567.097656 671.921875 568.46875 C 672.253906 569.839844 672.519531 571.226562 672.714844 572.625 C 672.910156 574.023438 673.035156 575.425781 673.089844 576.835938 C 673.148438 578.246094 673.136719 579.65625 673.050781 581.0625 C 672.96875 582.472656 672.820312 583.875 672.597656 585.265625 C 672.378906 586.660156 672.089844 588.039062 671.734375 589.40625 C 671.375 590.769531 670.953125 592.113281 670.464844 593.4375 C 669.972656 594.761719 669.421875 596.058594 668.804688 597.328125 C 668.1875 598.597656 667.507812 599.832031 666.769531 601.035156 C 666.03125 602.238281 665.234375 603.402344 664.378906 604.527344 C 663.523438 605.652344 662.617188 606.730469 661.65625 607.769531 C 660.695312 608.804688 659.6875 609.789062 658.628906 610.726562 C 657.570312 611.664062 656.46875 612.546875 655.324219 613.375 C 654.179688 614.203125 652.996094 614.976562 651.773438 615.6875 C 650.550781 616.402344 649.300781 617.050781 648.011719 617.640625 C 646.726562 618.230469 645.414062 618.757812 644.078125 619.21875 C 642.738281 619.683594 641.382812 620.078125 640.003906 620.40625 C 638.628906 620.734375 637.238281 620.996094 635.835938 621.1875 C 634.433594 621.378906 633.023438 621.503906 631.609375 621.558594 C 630.191406 621.613281 628.777344 621.597656 627.363281 621.515625 C 625.949219 621.433594 624.542969 621.277344 623.144531 621.058594 C 621.746094 620.835938 620.359375 620.546875 618.988281 620.191406 C 617.617188 619.832031 616.269531 619.410156 614.941406 618.921875 C 613.609375 618.433594 612.308594 617.878906 611.035156 617.265625 C 609.757812 616.648438 608.515625 615.96875 607.308594 615.230469 C 606.101562 614.496094 604.933594 613.699219 603.800781 612.847656 C 602.671875 611.996094 601.585938 611.089844 600.546875 610.132812 C 599.503906 609.171875 598.515625 608.167969 597.570312 607.109375 C 596.628906 606.054688 595.742188 604.957031 594.910156 603.816406 C 594.078125 602.671875 593.300781 601.492188 592.585938 600.277344 C 591.867188 599.058594 591.210938 597.808594 590.617188 596.527344 C 590.023438 595.246094 589.496094 593.9375 589.027344 592.605469 C 588.5625 591.269531 588.164062 589.917969 587.835938 588.546875 C 587.503906 587.171875 587.238281 585.789062 587.042969 584.390625 C 586.847656 582.992188 586.722656 581.589844 586.667969 580.179688 C 586.609375 578.769531 586.621094 577.359375 586.703125 575.953125 C 586.789062 574.542969 586.9375 573.140625 587.160156 571.746094 C 587.378906 570.355469 587.667969 568.976562 588.023438 567.609375 C 588.382812 566.246094 588.804688 564.898438 589.292969 563.578125 C 589.78125 562.253906 590.335938 560.957031 590.953125 559.6875 C 591.570312 558.417969 592.25 557.183594 592.988281 555.980469 C 593.726562 554.777344 594.523438 553.613281 595.378906 552.488281 C 596.230469 551.363281 597.140625 550.28125 598.101562 549.246094 C 599.0625 548.210938 600.070312 547.226562 601.128906 546.289062 C 602.1875 545.351562 603.289062 544.46875 604.433594 543.640625 C 605.578125 542.8125 606.761719 542.039062 607.984375 541.328125 C 609.203125 540.613281 610.457031 539.960938 611.746094 539.371094 C 613.03125 538.78125 614.34375 538.257812 615.679688 537.792969 C 617.019531 537.332031 618.375 536.9375 619.753906 536.609375 C 621.128906 536.28125 622.519531 536.019531 623.921875 535.828125 C 625.324219 535.632812 626.734375 535.511719 628.148438 535.457031 C 629.566406 535.402344 630.980469 535.414062 632.394531 535.5 C 633.808594 535.582031 635.214844 535.734375 636.613281 535.957031 Z M 636.613281 535.957031 " fill-opacity="1" fill-rule="nonzero"/><path fill="#f8c7d0" d="M 293.726562 559.394531 C 303.816406 548.804688 317.507812 541.683594 332 539.484375 C 346.496094 537.285156 361.707031 540.023438 374.523438 547.140625 C 369.632812 556.664062 364.648438 566.324219 357.316406 574.136719 C 349.988281 581.953125 339.871094 587.820312 329.128906 587.644531 C 313.671875 587.390625 301.316406 575.335938 293.726562 559.394531 Z M 293.726562 559.394531 " fill-opacity="1" fill-rule="nonzero"/><path fill="#ffbd91" d="M 487.488281 261.285156 C 486.394531 261.285156 485.28125 261.0625 484.214844 260.585938 C 480.152344 258.78125 478.324219 254.019531 480.132812 249.953125 C 490.152344 227.433594 503.480469 206.953125 519.75 189.074219 C 522.742188 185.785156 527.839844 185.539062 531.128906 188.535156 C 534.417969 191.527344 534.660156 196.621094 531.667969 199.910156 C 516.558594 216.515625 504.171875 235.558594 494.851562 256.503906 C 493.515625 259.503906 490.570312 261.285156 487.488281 261.285156 Z M 487.488281 261.285156 " fill-opacity="1" fill-rule="nonzero"/><path fill="#ffbd91" d="M 387.199219 259.859375 C 385.445312 259.859375 383.683594 259.292969 382.203125 258.117188 C 378.714844 255.359375 378.125 250.292969 380.886719 246.804688 L 410.675781 209.179688 C 413.445312 205.691406 418.511719 205.109375 421.992188 207.867188 C 425.480469 210.628906 426.070312 215.695312 423.308594 219.183594 L 393.519531 256.804688 C 391.925781 258.8125 389.574219 259.859375 387.199219 259.859375 Z M 387.199219 259.859375 " fill-opacity="1" fill-rule="nonzero"/><path fill="#ffbd91" d="M 428.019531 353.171875 C 427.007812 353.171875 425.976562 352.980469 424.980469 352.574219 C 420.863281 350.894531 418.886719 346.195312 420.566406 342.074219 L 436.359375 303.347656 C 438.027344 299.226562 442.722656 297.25 446.855469 298.929688 C 450.972656 300.609375 452.953125 305.308594 451.277344 309.429688 L 435.484375 348.15625 C 434.210938 351.28125 431.195312 353.171875 428.019531 353.171875 Z M 428.019531 353.171875 " fill-opacity="1" fill-rule="nonzero"/><path fill="#ffbd91" d="M 294.9375 335.039062 C 294.292969 335.039062 293.640625 334.960938 292.992188 334.800781 C 288.671875 333.726562 286.039062 329.359375 287.109375 325.042969 C 291.675781 306.648438 299.929688 290.371094 311.640625 276.664062 C 314.53125 273.28125 319.609375 272.878906 322.996094 275.769531 C 326.378906 278.65625 326.777344 283.742188 323.886719 287.125 C 313.816406 298.914062 306.707031 312.976562 302.75 328.925781 C 301.835938 332.589844 298.550781 335.039062 294.9375 335.039062 Z M 294.9375 335.039062 " fill-opacity="1" fill-rule="nonzero"/><path fill="#ffbd91" d="M 363.816406 416.265625 C 359.652344 416.265625 356.125 413.066406 355.789062 408.847656 C 354.101562 387.5625 356.667969 367.730469 363.414062 349.894531 C 364.988281 345.734375 369.640625 343.632812 373.800781 345.210938 C 377.964844 346.785156 380.058594 351.433594 378.484375 355.59375 C 372.585938 371.1875 370.351562 388.675781 371.855469 407.574219 C 372.203125 412.007812 368.898438 415.890625 364.460938 416.242188 C 364.242188 416.257812 364.027344 416.265625 363.816406 416.265625 Z M 363.816406 416.265625 " fill-opacity="1" fill-rule="nonzero"/><path fill="#552d2d" d="M 918.621094 1255.261719 C 914.542969 1255.261719 910.4375 1254.976562 906.304688 1254.402344 C 868.128906 1249.085938 834.472656 1219.382812 820.558594 1178.730469 C 819.117188 1174.523438 821.363281 1169.945312 825.574219 1168.503906 C 829.785156 1167.054688 834.363281 1169.308594 835.804688 1173.515625 C 847.765625 1208.472656 876.3125 1233.957031 908.527344 1238.445312 C 938.988281 1242.691406 967.460938 1228.160156 988.707031 1197.539062 C 991.242188 1193.882812 996.253906 1192.972656 999.914062 1195.511719 C 1003.574219 1198.046875 1004.476562 1203.066406 1001.945312 1206.722656 C 980.210938 1238.046875 950.359375 1255.261719 918.621094 1255.261719 Z M 918.621094 1255.261719 " fill-opacity="1" fill-rule="nonzero"/><path fill="#552d2d" d="M 403.242188 1277.144531 C 401.4375 1277.144531 399.621094 1277.070312 397.78125 1276.921875 C 360.457031 1273.851562 323.542969 1228.582031 307.609375 1202.316406 C 273.316406 1145.773438 227.722656 1046.253906 227.722656 835.746094 C 227.722656 831.296875 231.328125 827.691406 235.777344 827.691406 C 240.226562 827.691406 243.832031 831.296875 243.832031 835.746094 C 243.832031 1042.21875 288.09375 1139.070312 321.386719 1193.960938 C 339.988281 1224.636719 372.242188 1258.65625 399.105469 1260.867188 C 428.101562 1263.238281 452.652344 1240.183594 463.085938 1217.734375 C 474.867188 1192.363281 476.042969 1167.148438 476.359375 1136.828125 C 476.402344 1132.382812 479.832031 1128.773438 484.496094 1128.855469 C 488.945312 1128.902344 492.515625 1132.546875 492.46875 1136.996094 C 492.136719 1169.285156 490.832031 1196.230469 477.691406 1224.519531 C 465.621094 1250.511719 437.554688 1277.144531 403.242188 1277.144531 Z M 403.242188 1277.144531 " fill-opacity="1" fill-rule="nonzero"/><path fill="#552d2d" d="M 521.324219 1150.179688 C 481.285156 1150.179688 441.019531 1132.546875 410.253906 1100.75 C 407.160156 1097.550781 407.242188 1092.453125 410.441406 1089.359375 C 413.636719 1086.269531 418.730469 1086.347656 421.832031 1089.546875 C 454.601562 1123.40625 499.074219 1139.472656 540.785156 1132.460938 C 545.199219 1131.738281 549.332031 1134.691406 550.0625 1139.074219 C 550.796875 1143.460938 547.835938 1147.617188 543.449219 1148.351562 C 536.121094 1149.578125 528.722656 1150.179688 521.324219 1150.179688 Z M 521.324219 1150.179688 " fill-opacity="1" fill-rule="nonzero"/><path fill="#552d2d" d="M 208.390625 311.875 C 206.050781 311.875 203.730469 310.859375 202.140625 308.90625 C 177.628906 278.792969 173.257812 241.933594 190.4375 210.304688 C 207.65625 178.609375 241.785156 160.609375 277.441406 164.464844 C 300.597656 166.964844 320.214844 177.425781 335.738281 195.5625 C 338.628906 198.941406 338.234375 204.027344 334.859375 206.917969 C 331.476562 209.816406 326.390625 209.414062 323.496094 206.039062 C 310.730469 191.125 294.65625 182.527344 275.710938 180.480469 C 246.628906 177.328125 218.6875 192.058594 204.597656 217.996094 C 190.640625 243.683594 194.394531 273.867188 214.636719 298.734375 C 217.441406 302.183594 216.925781 307.257812 213.472656 310.066406 C 211.980469 311.28125 210.183594 311.875 208.390625 311.875 Z M 208.390625 311.875 " fill-opacity="1" fill-rule="nonzero"/><path fill="#552d2d" d="M 679.59375 1306.304688 C 658.628906 1306.304688 636.007812 1297.085938 613.609375 1279.320312 C 567.34375 1242.613281 537.101562 1186.257812 532.714844 1128.5625 C 532.378906 1124.128906 535.703125 1120.257812 540.140625 1119.921875 C 544.5625 1119.578125 548.441406 1122.90625 548.78125 1127.34375 C 552.832031 1180.636719 580.808594 1232.734375 623.625 1266.699219 C 638.960938 1278.863281 662.273438 1292.742188 686.101562 1289.796875 C 706.226562 1287.3125 725.304688 1272.785156 737.136719 1250.9375 C 743.636719 1238.933594 747.707031 1225.882812 752.011719 1212.066406 C 753.808594 1206.308594 755.613281 1200.519531 757.613281 1194.753906 C 761.054688 1184.828125 770.355469 1177.699219 781.296875 1176.597656 C 826.886719 1172.015625 872.171875 1156.082031 919.734375 1127.894531 C 927.773438 1123.140625 937.984375 1125.46875 942.96875 1133.238281 C 969.234375 1174.121094 1002.738281 1214.589844 1052.585938 1204.839844 L 1053.980469 1204.566406 C 1064.183594 1202.597656 1075.75 1200.363281 1096.210938 1179.902344 C 1199.242188 1076.886719 1244.542969 902.164062 1214.433594 723.929688 C 1175.464844 493.230469 1018.980469 296.011719 785.109375 182.832031 C 781.101562 180.894531 779.425781 176.078125 781.367188 172.074219 C 783.300781 168.0625 788.136719 166.398438 792.125 168.332031 C 1030.753906 283.808594 1190.46875 485.339844 1230.320312 721.246094 C 1261.277344 904.539062 1214.257812 1084.648438 1107.601562 1191.292969 C 1083.652344 1215.246094 1068.890625 1218.09375 1057.035156 1220.386719 L 1055.6875 1220.648438 C 996.105469 1232.320312 956.898438 1184.726562 929.414062 1141.941406 C 929.179688 1141.578125 928.5 1141.421875 927.945312 1141.753906 C 878.328125 1171.160156 830.882812 1187.804688 782.910156 1192.625 C 778.183594 1193.101562 774.230469 1196.007812 772.835938 1200.03125 C 770.890625 1205.632812 769.136719 1211.261719 767.394531 1216.859375 C 763.050781 1230.804688 758.554688 1245.222656 751.304688 1258.609375 C 737 1285.027344 713.363281 1302.660156 688.074219 1305.785156 C 685.285156 1306.128906 682.449219 1306.304688 679.59375 1306.304688 Z M 679.59375 1306.304688 " fill-opacity="1" fill-rule="nonzero"/><path fill="#552d2d" d="M 704.050781 246.488281 C 701.003906 246.488281 698.089844 244.753906 696.730469 241.804688 C 694.867188 237.765625 696.632812 232.980469 700.671875 231.117188 C 734.214844 215.636719 758.667969 196.203125 773.347656 173.355469 C 790.96875 145.925781 793.691406 112.425781 780.289062 88.011719 C 767.453125 64.632812 739.460938 49.675781 710.679688 50.683594 C 683.640625 51.667969 656.425781 66.136719 637.878906 89.382812 C 621.074219 110.441406 610.878906 139.015625 609.167969 169.84375 C 608.921875 174.28125 605.035156 177.652344 600.679688 177.4375 C 596.234375 177.191406 592.832031 173.390625 593.082031 168.949219 C 594.976562 134.8125 606.410156 102.984375 625.285156 79.335938 C 646.71875 52.46875 678.421875 35.738281 710.089844 34.585938 C 744.96875 33.289062 778.714844 51.675781 794.410156 80.257812 C 810.613281 109.773438 807.667969 149.734375 786.902344 182.0625 C 770.535156 207.535156 743.796875 228.957031 707.417969 245.746094 C 706.328125 246.25 705.179688 246.488281 704.050781 246.488281 Z M 704.050781 246.488281 " fill-opacity="1" fill-rule="nonzero"/><path fill="#552d2d" d="M 646.988281 187.390625 C 646.796875 187.390625 646.597656 187.386719 646.402344 187.371094 C 641.964844 187.050781 638.625 183.195312 638.945312 178.757812 C 642.128906 134.472656 675.632812 93.847656 718.605469 82.164062 C 722.882812 81 727.324219 83.527344 728.492188 87.820312 C 729.660156 92.113281 727.125 96.539062 722.832031 97.707031 C 686.246094 107.65625 657.722656 142.226562 655.015625 179.914062 C 654.710938 184.152344 651.171875 187.390625 646.988281 187.390625 Z M 646.988281 187.390625 " fill-opacity="1" fill-rule="nonzero"/><path fill="#552d2d" d="M 260.816406 846.976562 C 260.65625 846.976562 260.488281 846.972656 260.328125 846.960938 C 189.617188 842.726562 126.777344 802.035156 103.945312 745.703125 C 90.078125 711.480469 89.09375 669.5625 101.015625 621.113281 C 106.339844 599.492188 113.605469 578.230469 120.632812 557.664062 C 126.523438 540.425781 132.617188 522.601562 137.441406 504.863281 C 142.796875 485.195312 146.875 464.625 150.824219 444.730469 C 158.339844 406.828125 166.117188 367.636719 183.109375 331.792969 C 215.234375 264.042969 280.621094 208.765625 367.234375 176.136719 C 440.863281 148.398438 519.878906 140.238281 596.292969 132.34375 L 604.605469 131.488281 C 609.070312 131.035156 612.992188 134.246094 613.449219 138.667969 C 613.910156 143.09375 610.691406 147.050781 606.265625 147.507812 L 597.945312 148.371094 C 522.550781 156.15625 444.59375 164.207031 372.914062 191.210938 C 290.230469 222.359375 227.992188 274.734375 197.667969 338.695312 C 181.53125 372.730469 173.953125 410.925781 166.625 447.863281 C 162.625 468.03125 158.488281 488.882812 152.988281 509.09375 C 148.027344 527.328125 141.851562 545.398438 135.878906 562.875 C 128.960938 583.109375 121.8125 604.03125 116.664062 624.960938 C 105.5625 670.050781 106.308594 708.640625 118.878906 739.65625 C 139.421875 790.347656 196.652344 827.007812 261.289062 830.878906 C 265.734375 831.148438 269.117188 834.960938 268.847656 839.402344 C 268.59375 843.679688 265.042969 846.976562 260.816406 846.976562 Z M 260.816406 846.976562 " fill-opacity="1" fill-rule="nonzero"/><path fill="#552d2d" d="M 328.253906 595.066406 C 328.207031 595.066406 328.164062 595.066406 328.117188 595.066406 C 317.402344 595.015625 308.71875 589.667969 303.324219 585.1875 C 297.03125 579.964844 292.296875 573.722656 287.722656 567.679688 C 285.039062 564.136719 285.734375 559.082031 289.277344 556.398438 C 292.824219 553.707031 297.878906 554.410156 300.5625 557.953125 C 304.773438 563.507812 308.75 568.757812 313.613281 572.792969 C 318.378906 576.746094 323.554688 578.933594 328.1875 578.957031 C 328.210938 578.957031 328.234375 578.957031 328.257812 578.957031 C 340.902344 578.957031 355.234375 563.765625 366.308594 550.519531 C 369.160156 547.105469 374.234375 546.648438 377.65625 549.503906 C 381.066406 552.359375 381.523438 557.4375 378.667969 560.851562 C 364.515625 577.773438 347.460938 595.066406 328.253906 595.066406 Z M 328.253906 595.066406 " fill-opacity="1" fill-rule="nonzero"/><path fill="#552d2d" d="M 358.6875 636.238281 C 357.414062 636.238281 356.128906 635.9375 354.929688 635.300781 C 339.894531 627.351562 329.695312 611.550781 324.613281 588.332031 C 323.667969 583.984375 326.417969 579.691406 330.761719 578.742188 C 335.132812 577.78125 339.40625 580.539062 340.355469 584.886719 C 344.375 603.261719 351.8125 615.433594 362.457031 621.0625 C 366.390625 623.140625 367.894531 628.015625 365.8125 631.949219 C 364.371094 634.679688 361.578125 636.238281 358.6875 636.238281 Z M 358.6875 636.238281 " fill-opacity="1" fill-rule="nonzero"/><path fill="#d4904f" d="M 13.925781 1294.90625 L 8.226562 958.746094 C 8.128906 952.832031 13.132812 948.113281 19.03125 948.558594 L 399.207031 977.359375 C 403.421875 977.675781 406.675781 981.1875 406.675781 985.414062 L 406.675781 1325.519531 C 406.675781 1330.226562 402.667969 1333.933594 397.976562 1333.574219 L 23.199219 1304.746094 C 18.03125 1304.351562 14.015625 1300.085938 13.925781 1294.90625 Z M 13.925781 1294.90625 " fill-opacity="1" fill-rule="nonzero"/><path fill="#d4904f" d="M 404.269531 979.699219 L 518.007812 867.304688 C 519.097656 866.230469 520.945312 867 520.945312 868.53125 L 521.371094 1222.785156 C 521.371094 1223.269531 521.167969 1223.734375 520.804688 1224.0625 L 406.675781 1327.558594 " fill-opacity="1" fill-rule="nonzero"/><path fill="#d4904f" d="M 403.546875 979.046875 C 442.242188 941.761719 480.9375 904.476562 519.636719 867.195312 C 518.007812 867.304688 134.285156 846.039062 134.285156 846.039062 C 125.945312 845.578125 117.792969 848.613281 111.789062 854.417969 C 111.789062 854.417969 12.542969 950.363281 12.976562 948.160156 C 88.960938 955.800781 165.015625 963.445312 241.113281 965.0625 C 308.964844 971.882812 348.957031 980.222656 403.546875 979.046875 Z M 403.546875 979.046875 " fill-opacity="1" fill-rule="nonzero"/><path fill="#552d2d" d="M 398.582031 1341.652344 C 398.175781 1341.652344 397.765625 1341.636719 397.359375 1341.605469 L 22.582031 1312.777344 C 13.210938 1312.058594 6.03125 1304.429688 5.871094 1295.039062 L 0.171875 958.882812 C 0.0859375 953.804688 2.15625 948.894531 5.851562 945.410156 C 9.550781 941.921875 14.644531 940.152344 19.640625 940.53125 L 399.816406 969.328125 C 408.183594 969.960938 414.730469 977.03125 414.730469 985.414062 L 414.730469 1325.519531 C 414.730469 1329.996094 412.847656 1334.3125 409.558594 1337.355469 C 406.574219 1340.121094 402.628906 1341.652344 398.582031 1341.652344 Z M 18.253906 956.585938 C 17.621094 956.585938 17.171875 956.875 16.90625 957.128906 C 16.613281 957.402344 16.273438 957.882812 16.285156 958.605469 L 21.984375 1294.769531 C 22 1295.800781 22.789062 1296.636719 23.816406 1296.71875 L 398.59375 1325.542969 L 398.621094 985.414062 L 18.421875 956.59375 C 18.363281 956.589844 18.308594 956.585938 18.253906 956.585938 Z M 18.253906 956.585938 " fill-opacity="1" fill-rule="nonzero"/><path fill="#552d2d" d="M 406.679688 1335.613281 C 404.484375 1335.613281 402.296875 1334.722656 400.710938 1332.96875 C 397.71875 1329.675781 397.96875 1324.582031 401.265625 1321.59375 L 513.3125 1219.984375 L 512.90625 883.671875 L 409.933594 985.429688 C 406.761719 988.558594 401.667969 988.527344 398.539062 985.363281 C 395.410156 982.199219 395.441406 977.097656 398.605469 973.972656 L 512.34375 861.578125 C 515.15625 858.800781 519.339844 857.984375 522.984375 859.507812 C 526.640625 861.027344 529 864.570312 529 868.527344 L 529.429688 1222.777344 C 529.429688 1225.546875 528.253906 1228.195312 526.203125 1230.042969 L 412.089844 1333.523438 C 410.546875 1334.921875 408.609375 1335.613281 406.679688 1335.613281 Z M 515.394531 1218.097656 C 515.386719 1218.101562 515.382812 1218.109375 515.375 1218.117188 Z M 512.886719 868.539062 C 512.886719 868.542969 512.886719 868.550781 512.886719 868.554688 Z M 512.886719 868.539062 " fill-opacity="1" fill-rule="nonzero"/><path fill="#ed2027" d="M 267.882812 1018.472656 C 253.234375 1116.863281 266.882812 1224 251.855469 1322.335938 C 222.042969 1321.894531 191.484375 1315.285156 161.671875 1314.847656 C 162.785156 1279.800781 163.894531 1244.757812 165.003906 1209.714844 C 159.082031 1191.992188 161.925781 1172.21875 163.03125 1152.71875 C 164.890625 1119.945312 161.777344 1087.117188 160.78125 1054.308594 C 159.785156 1021.496094 161 988.09375 171.160156 956.878906 C 196.578125 921.472656 225.570312 886.664062 255.492188 853.070312 C 290.03125 853.480469 324.527344 856 358.875 859.695312 C 329.988281 897 299.085938 932.742188 267.238281 967.589844 C 267.863281 984.773438 270.3125 1002.164062 267.882812 1018.472656 Z M 267.882812 1018.472656 " fill-opacity="1" fill-rule="nonzero"/><path fill="#552d2d" d="M 12.539062 958.417969 C 10.429688 958.417969 8.328125 957.59375 6.75 955.960938 C 3.652344 952.761719 3.742188 947.664062 6.941406 944.570312 L 106.191406 848.628906 C 113.78125 841.289062 124.160156 837.433594 134.730469 837.996094 L 518.453125 859.261719 C 522.898438 859.507812 526.296875 863.308594 526.054688 867.753906 C 525.804688 872.191406 521.90625 875.578125 517.566406 875.347656 L 133.839844 854.082031 C 127.769531 853.730469 121.769531 855.976562 117.390625 860.207031 L 18.136719 956.152344 C 16.574219 957.664062 14.558594 958.417969 12.539062 958.417969 Z M 12.539062 958.417969 " fill-opacity="1" fill-rule="nonzero"/><path fill="#552d2d" d="M 360.164062 866.613281 C 360.015625 866.613281 359.863281 866.609375 359.710938 866.601562 L 252.4375 860.652344 C 247.992188 860.40625 244.59375 856.605469 244.839844 852.164062 C 245.085938 847.722656 248.929688 844.363281 253.328125 844.566406 L 360.601562 850.515625 C 365.046875 850.761719 368.445312 854.5625 368.199219 859.003906 C 367.960938 863.292969 364.410156 866.613281 360.164062 866.613281 Z M 360.164062 866.613281 " fill-opacity="1" fill-rule="nonzero"/><path fill="#552d2d" d="M 161.382812 1320.886719 C 161.34375 1320.886719 161.300781 1320.886719 161.265625 1320.886719 C 156.820312 1320.820312 153.261719 1317.167969 153.320312 1312.71875 L 158.203125 959.601562 C 158.230469 957.777344 158.871094 956.015625 160.03125 954.605469 L 249.441406 845.65625 C 252.269531 842.21875 257.339844 841.714844 260.777344 844.539062 C 264.21875 847.363281 264.71875 852.4375 261.894531 855.875 L 174.273438 962.644531 L 169.433594 1312.941406 C 169.371094 1317.351562 165.773438 1320.886719 161.382812 1320.886719 Z M 161.382812 1320.886719 " fill-opacity="1" fill-rule="nonzero"/><path fill="#552d2d" d="M 250.949219 1327.46875 C 250.824219 1327.46875 250.699219 1327.464844 250.578125 1327.460938 C 246.132812 1327.261719 242.691406 1323.496094 242.890625 1319.050781 L 258.695312 966.769531 C 258.777344 964.96875 259.460938 963.246094 260.636719 961.878906 L 354.046875 853.304688 C 356.953125 849.933594 362.035156 849.550781 365.410156 852.453125 C 368.78125 855.351562 369.164062 860.4375 366.265625 863.808594 L 274.664062 970.273438 L 258.988281 1319.777344 C 258.792969 1324.097656 255.226562 1327.46875 250.949219 1327.46875 Z M 250.949219 1327.46875 " fill-opacity="1" fill-rule="nonzero"/><path fill="#552d2d" d="M 267.808594 975.457031 C 267.605469 975.457031 267.402344 975.449219 267.191406 975.433594 L 166.476562 967.808594 C 162.039062 967.46875 158.714844 963.601562 159.050781 959.167969 C 159.386719 954.730469 163.183594 951.382812 167.695312 951.746094 L 268.410156 959.371094 C 272.847656 959.707031 276.171875 963.578125 275.832031 968.011719 C 275.515625 972.242188 271.984375 975.457031 267.808594 975.457031 Z M 267.808594 975.457031 " fill-opacity="1" fill-rule="nonzero"/><path fill="#552d2d" d="M 251.863281 1330.390625 C 251.65625 1330.390625 251.445312 1330.382812 251.238281 1330.363281 L 160.335938 1323.375 C 155.898438 1323.03125 152.578125 1319.160156 152.921875 1314.726562 C 153.261719 1310.289062 157.160156 1306.976562 161.570312 1307.3125 L 252.472656 1314.304688 C 256.910156 1314.644531 260.230469 1318.515625 259.886719 1322.953125 C 259.5625 1327.175781 256.035156 1330.390625 251.863281 1330.390625 Z M 251.863281 1330.390625 " fill-opacity="1" fill-rule="nonzero"/><path fill="#ed2027" d="M 206.128906 920.542969 L 206.128906 809.480469 C 206.128906 806.28125 208.71875 803.6875 211.917969 803.6875 L 304.144531 803.6875 C 307.34375 803.6875 309.9375 806.28125 309.9375 809.480469 L 309.9375 920.542969 C 309.9375 923.738281 307.34375 926.332031 304.144531 926.332031 L 211.917969 926.332031 C 208.71875 926.332031 206.128906 923.738281 206.128906 920.542969 Z M 206.128906 920.542969 " fill-opacity="1" fill-rule="nonzero"/><path fill="#ed2027" d="M 216.722656 916.707031 C 204.054688 933.367188 188.320312 950.019531 173.390625 966.683594 C 155.140625 987.050781 136.675781 1001.117188 116.011719 1005.964844 C 95.351562 1010.808594 71.988281 1004.769531 57.933594 987.1875 C 31.121094 953.644531 41.027344 910.984375 50.089844 885.929688 C 54.765625 873.007812 54.773438 858.820312 50.054688 845.914062 C 40.945312 820.992188 30.96875 776.5625 57.933594 742.832031 C 71.988281 725.25 95.351562 719.210938 116.011719 724.054688 C 136.675781 728.902344 155.140625 742.96875 173.390625 763.335938 C 188.320312 780 206.382812 796.046875 217.726562 814.960938 C 229.863281 828.089844 236.578125 846.085938 236.003906 863.957031 C 235.433594 881.824219 229.113281 900.414062 216.722656 916.707031 Z M 216.722656 916.707031 " fill-opacity="1" fill-rule="nonzero"/><path fill="#ed2027" d="M 302.179688 913.648438 C 312.746094 934.050781 328.714844 950.019531 343.644531 966.683594 C 361.894531 987.050781 380.359375 1001.117188 401.023438 1005.964844 C 421.683594 1010.808594 445.046875 1004.769531 459.101562 987.1875 C 485.914062 953.644531 476.007812 910.984375 466.945312 885.929688 C 462.273438 873.007812 462.265625 858.820312 466.980469 845.914062 C 476.09375 820.992188 486.066406 776.5625 459.101562 742.832031 C 445.046875 725.25 421.6875 719.210938 401.023438 724.054688 C 380.359375 728.902344 361.894531 742.96875 343.644531 763.335938 C 328.714844 780 313.207031 799.859375 301.714844 815.359375 C 288.425781 844.738281 285.398438 881.242188 302.179688 913.648438 Z M 302.179688 913.648438 " fill-opacity="1" fill-rule="nonzero"/><path fill="#552d2d" d="M 278.554688 934.382812 L 237.507812 934.382812 C 215.761719 934.382812 198.070312 916.695312 198.070312 894.953125 L 198.070312 835.066406 C 198.070312 813.324219 215.765625 795.632812 237.507812 795.632812 L 278.554688 795.632812 C 300.300781 795.632812 317.992188 813.324219 317.992188 835.066406 L 317.992188 894.953125 C 317.992188 916.695312 300.300781 934.382812 278.554688 934.382812 Z M 237.507812 811.742188 C 224.644531 811.742188 214.183594 822.207031 214.183594 835.066406 L 214.183594 894.953125 C 214.183594 907.8125 224.644531 918.273438 237.507812 918.273438 L 278.554688 918.273438 C 291.417969 918.273438 301.878906 907.8125 301.878906 894.953125 L 301.878906 835.066406 C 301.878906 822.207031 291.417969 811.742188 278.554688 811.742188 Z M 237.507812 811.742188 " fill-opacity="1" fill-rule="nonzero"/><path fill="#552d2d" d="M 415.019531 1015.644531 C 409.773438 1015.644531 404.457031 1015.042969 399.183594 1013.804688 C 378.335938 1008.914062 358.78125 995.648438 337.644531 972.054688 C 335.015625 969.125 332.375 966.25 329.753906 963.394531 C 317.507812 950.070312 304.847656 936.296875 295.660156 918.558594 C 293.617188 914.609375 295.164062 909.75 299.113281 907.707031 C 303.0625 905.660156 307.925781 907.207031 309.972656 911.15625 C 318.164062 926.980469 329.554688 939.371094 341.613281 952.492188 C 344.28125 955.398438 346.96875 958.324219 349.644531 961.308594 C 368.472656 982.324219 385.386719 994.023438 402.867188 998.121094 C 421.886719 1002.59375 441.5 996.316406 452.8125 982.15625 C 471.253906 959.082031 473.464844 927.628906 459.371094 888.667969 C 454.046875 873.953125 454.0625 857.789062 459.417969 843.144531 C 467.570312 820.847656 477.550781 778.8125 452.8125 747.859375 C 441.492188 733.703125 421.90625 727.4375 402.863281 731.898438 C 385.386719 735.996094 368.472656 747.695312 349.644531 768.710938 C 333.816406 786.378906 318.636719 806.03125 308.597656 819.277344 C 305.921875 822.816406 300.863281 823.523438 297.3125 820.835938 C 293.769531 818.144531 293.074219 813.09375 295.761719 809.550781 C 311.984375 788.136719 325.296875 771.746094 337.644531 757.960938 C 358.785156 734.367188 378.335938 721.101562 399.183594 716.214844 C 424.238281 710.347656 450.21875 718.816406 465.398438 737.800781 C 495.058594 774.910156 483.863281 823.199219 474.550781 848.675781 C 470.492188 859.769531 470.484375 872.027344 474.523438 883.1875 C 490.421875 927.152344 487.265625 964.851562 465.398438 992.214844 C 453.414062 1007.207031 434.691406 1015.644531 415.019531 1015.644531 Z M 415.019531 1015.644531 " fill-opacity="1" fill-rule="nonzero"/><path fill="#d51b27" d="M 322.078125 863.5 C 321.441406 863.300781 321.394531 862.28125 322.015625 862.023438 C 331.996094 857.894531 342.839844 856.382812 353.425781 857.667969 C 355.058594 857.863281 356.71875 858.140625 358.183594 858.976562 C 359.644531 859.8125 360.894531 861.304688 361.132812 863.121094 C 361.488281 865.816406 359.480469 868.335938 357.167969 869.214844 C 354.855469 870.09375 352.332031 869.738281 349.914062 869.375 C 341.019531 868.03125 332.125 866.691406 322.078125 863.5 Z M 322.078125 863.5 " fill-opacity="1" fill-rule="nonzero"/><path fill="#d51b27" d="M 319.769531 846.300781 C 319.132812 846.410156 318.710938 845.539062 319.152344 845.015625 C 324.582031 838.554688 331.71875 833.890625 339.4375 831.796875 C 340.816406 831.421875 342.605469 831.308594 343.320312 832.679688 C 344.175781 834.316406 342.625 836.191406 341.210938 837.238281 C 335.148438 841.703125 328.3125 844.851562 319.769531 846.300781 Z M 319.769531 846.300781 " fill-opacity="1" fill-rule="nonzero"/><path fill="#d51b27" d="M 318.898438 880.320312 C 318.515625 879.792969 318.90625 878.976562 319.511719 879.050781 C 328.878906 880.136719 337.980469 884 345.621094 890.152344 C 346.832031 891.125 348.035156 892.1875 348.8125 893.609375 C 349.59375 895.027344 349.886719 896.886719 349.210938 898.367188 C 348.449219 900.027344 346.652344 900.832031 344.984375 900.765625 C 343.316406 900.695312 341.746094 899.910156 340.253906 899.085938 C 332.171875 894.617188 324.890625 888.582031 318.898438 880.320312 Z M 318.898438 880.320312 " fill-opacity="1" fill-rule="nonzero"/><path fill="#552d2d" d="M 102.015625 1015.644531 C 82.339844 1015.644531 63.621094 1007.207031 51.640625 992.214844 C 29.773438 964.855469 26.613281 927.15625 42.515625 883.191406 C 46.550781 872.027344 46.542969 859.769531 42.488281 848.679688 C 33.175781 823.203125 21.972656 774.917969 51.640625 737.804688 C 66.820312 718.8125 92.796875 710.34375 117.855469 716.214844 C 138.695312 721.101562 158.25 734.367188 179.390625 757.960938 C 185.027344 764.253906 191.109375 770.4375 196.988281 776.417969 C 206.875 786.476562 216.210938 795.980469 223.84375 806.144531 C 226.511719 809.699219 225.792969 814.75 222.234375 817.421875 C 218.679688 820.097656 213.632812 819.367188 210.957031 815.8125 C 203.972656 806.507812 195 797.378906 185.496094 787.714844 C 179.492188 781.601562 173.277344 775.28125 167.390625 768.710938 C 148.558594 747.695312 131.648438 735.996094 114.171875 731.898438 C 95.15625 727.429688 75.542969 733.699219 64.226562 747.859375 C 39.484375 778.816406 49.464844 820.847656 57.621094 843.148438 C 62.972656 857.789062 62.988281 873.957031 57.667969 888.667969 C 43.574219 927.632812 45.78125 959.085938 64.226562 982.15625 C 75.542969 996.320312 95.160156 1002.582031 114.171875 998.121094 C 131.648438 994.023438 148.558594 982.324219 167.394531 961.308594 C 171.152344 957.113281 174.914062 952.992188 178.644531 948.902344 C 189.800781 936.6875 200.332031 925.144531 209.613281 912.949219 C 212.304688 909.40625 217.355469 908.714844 220.902344 911.414062 C 224.441406 914.105469 225.128906 919.160156 222.433594 922.699219 C 212.722656 935.472656 201.949219 947.269531 190.542969 959.765625 C 186.847656 963.816406 183.117188 967.902344 179.390625 972.058594 C 158.25 995.652344 138.699219 1008.917969 117.855469 1013.808594 C 112.582031 1015.042969 107.261719 1015.644531 102.015625 1015.644531 Z M 102.015625 1015.644531 " fill-opacity="1" fill-rule="nonzero"/><path fill="#d51b27" d="M 194.960938 863.5 C 195.59375 863.300781 195.640625 862.28125 195.023438 862.023438 C 185.042969 857.894531 174.195312 856.382812 163.613281 857.667969 C 161.980469 857.863281 160.316406 858.140625 158.855469 858.976562 C 157.390625 859.8125 156.144531 861.304688 155.902344 863.121094 C 155.550781 865.816406 157.558594 868.335938 159.867188 869.214844 C 162.179688 870.09375 164.703125 869.738281 167.125 869.375 C 176.015625 868.03125 184.910156 866.691406 194.960938 863.5 Z M 194.960938 863.5 " fill-opacity="1" fill-rule="nonzero"/><path fill="#d51b27" d="M 197.269531 846.300781 C 197.902344 846.410156 198.324219 845.539062 197.886719 845.015625 C 192.453125 838.554688 185.316406 833.890625 177.601562 831.796875 C 176.21875 831.421875 174.429688 831.308594 173.714844 832.679688 C 172.863281 834.316406 174.410156 836.191406 175.828125 837.238281 C 181.886719 841.703125 188.722656 844.851562 197.269531 846.300781 Z M 197.269531 846.300781 " fill-opacity="1" fill-rule="nonzero"/><path fill="#d51b27" d="M 198.136719 880.320312 C 198.519531 879.792969 198.128906 878.976562 197.527344 879.050781 C 188.15625 880.136719 179.054688 884 171.414062 890.152344 C 170.203125 891.125 169.003906 892.1875 168.222656 893.609375 C 167.441406 895.027344 167.148438 896.886719 167.828125 898.367188 C 168.585938 900.027344 170.382812 900.832031 172.050781 900.765625 C 173.71875 900.695312 175.289062 899.910156 176.785156 899.085938 C 184.863281 894.617188 192.148438 888.582031 198.136719 880.320312 Z M 198.136719 880.320312 " fill-opacity="1" fill-rule="nonzero"/><path fill="#f9b234" d="M 724.324219 1397.953125 C 683.945312 1370.960938 648.230469 1337.019531 619.21875 1298.070312 C 596.527344 1279.453125 574.105469 1259.066406 551.683594 1238.679688 C 541.765625 1229.660156 531.644531 1220.390625 525.375 1208.539062 C 519.066406 1101.140625 518.226562 992.582031 521.980469 884.515625 C 528.285156 882.5625 534.820312 881.476562 541.332031 880.394531 C 553.425781 878.386719 565.519531 876.375 577.613281 874.367188 C 593.730469 871.691406 609.867188 869.011719 626.136719 867.542969 C 641.226562 866.183594 656.382812 865.867188 671.503906 864.933594 C 693.625 863.5625 715.644531 860.871094 737.644531 858.179688 L 1135.207031 827.980469 L 1175.964844 824.425781 L 1424.546875 1038.382812 L 1433.214844 1043.234375 L 1427.5625 1342.886719 Z M 724.324219 1397.953125 " fill-opacity="1" fill-rule="nonzero"/><path fill="#ed2027" d="M 814.929688 856.074219 L 969.785156 841.890625 L 1043.816406 914.582031 L 1253.433594 891.207031 L 1326.402344 956.199219 L 1112.976562 981.347656 L 1186.445312 1056.800781 L 1189.496094 1113.339844 L 1192.640625 1360.976562 L 1008.980469 1378.09375 L 1009.753906 1074.140625 L 945.613281 1002.042969 L 668.40625 1035.359375 L 668.078125 1348.148438 L 608.335938 1292.023438 L 609.976562 967.089844 L 881.765625 934.265625 Z M 814.929688 856.074219 " fill-opacity="1" fill-rule="nonzero"/><g clip-path="url(#7156713c63)"><path fill="#552d2d" d="M 727.261719 1406.347656 C 724.691406 1406.347656 722.195312 1405.378906 720.300781 1403.628906 C 718.222656 1401.699219 717.03125 1398.972656 717.03125 1396.136719 L 717.03125 1097.761719 C 717.03125 1093.582031 720.230469 1090.09375 724.402344 1089.738281 L 1421.988281 1030.375 C 1426.628906 1029.972656 1431.203125 1031.554688 1434.609375 1034.683594 C 1438.023438 1037.816406 1439.976562 1042.265625 1439.976562 1046.898438 L 1439.976562 1335.488281 C 1439.976562 1344.089844 1433.261719 1351.351562 1424.679688 1352.023438 L 728.039062 1406.320312 C 727.777344 1406.339844 727.519531 1406.347656 727.261719 1406.347656 Z M 733.140625 1105.167969 L 733.140625 1389.765625 L 1423.429688 1335.960938 L 1423.867188 1046.898438 Z M 733.140625 1105.167969 " fill-opacity="1" fill-rule="nonzero"/></g><path fill="#552d2d" d="M 1009.914062 1384.324219 C 1005.75 1384.324219 1002.21875 1381.117188 1001.890625 1376.894531 C 1001.542969 1372.460938 1004.859375 1368.582031 1009.296875 1368.238281 L 1191.511719 1354.035156 C 1195.910156 1353.671875 1199.820312 1357.007812 1200.167969 1361.441406 C 1200.515625 1365.875 1197.199219 1369.75 1192.761719 1370.097656 L 1010.546875 1384.300781 C 1010.335938 1384.316406 1010.121094 1384.324219 1009.914062 1384.324219 Z M 1009.914062 1384.324219 " fill-opacity="1" fill-rule="nonzero"/><path fill="#552d2d" d="M 1009.34375 1081.628906 C 1005.203125 1081.628906 1001.679688 1078.453125 1001.324219 1074.253906 C 1000.949219 1069.820312 1004.238281 1065.921875 1008.671875 1065.546875 L 1189.8125 1050.183594 C 1194.21875 1049.792969 1198.144531 1053.09375 1198.523438 1057.527344 C 1198.894531 1061.960938 1195.605469 1065.859375 1191.175781 1066.234375 L 1010.03125 1081.597656 C 1009.800781 1081.617188 1009.570312 1081.628906 1009.34375 1081.628906 Z M 1009.34375 1081.628906 " fill-opacity="1" fill-rule="nonzero"/><g clip-path="url(#d705d062ff)"><path fill="#552d2d" d="M 721.273438 1406.519531 C 718.289062 1406.519531 715.347656 1405.390625 713.101562 1403.253906 L 522.996094 1222.675781 C 518.890625 1218.773438 516.511719 1213.285156 516.46875 1207.621094 L 514.070312 883.539062 C 514.03125 878.773438 516.878906 874.570312 521.316406 872.828125 C 525.757812 871.09375 530.703125 872.242188 533.917969 875.765625 L 730.050781 1091.25 C 732.046875 1093.449219 733.140625 1096.28125 733.140625 1099.238281 L 733.140625 1394.652344 C 733.140625 1399.402344 730.320312 1403.683594 725.953125 1405.554688 C 724.445312 1406.203125 722.851562 1406.519531 721.273438 1406.519531 Z M 530.269531 895.691406 L 532.578125 1207.496094 C 532.589844 1208.8125 533.140625 1210.089844 534.097656 1211 L 717.027344 1384.765625 L 717.027344 1100.878906 Z M 530.269531 895.691406 " fill-opacity="1" fill-rule="nonzero"/></g><path fill="#552d2d" d="M 669.84375 1359.109375 C 667.851562 1359.109375 665.855469 1358.375 664.292969 1356.894531 L 604.554688 1300.148438 C 601.328125 1297.085938 601.199219 1291.984375 604.265625 1288.761719 C 607.339844 1285.53125 612.429688 1285.414062 615.65625 1288.46875 L 675.394531 1345.214844 C 678.621094 1348.277344 678.75 1353.375 675.6875 1356.601562 C 674.101562 1358.269531 671.972656 1359.109375 669.84375 1359.109375 Z M 669.84375 1359.109375 " fill-opacity="1" fill-rule="nonzero"/><path fill="#552d2d" d="M 668.507812 1043.65625 C 666.316406 1043.65625 664.132812 1042.769531 662.542969 1041.023438 L 604.851562 977.632812 C 601.855469 974.34375 602.097656 969.25 605.390625 966.253906 C 608.675781 963.253906 613.777344 963.503906 616.769531 966.789062 L 674.460938 1030.179688 C 677.457031 1033.46875 677.214844 1038.5625 673.925781 1041.558594 C 672.382812 1042.964844 670.4375 1043.65625 668.507812 1043.65625 Z M 668.507812 1043.65625 " fill-opacity="1" fill-rule="nonzero"/><path fill="#552d2d" d="M 1429.785156 1049.449219 C 1427.941406 1049.449219 1426.089844 1048.820312 1424.574219 1047.535156 L 1173.15625 833.84375 L 525.105469 888.308594 C 520.601562 888.632812 516.773438 885.386719 516.402344 880.957031 C 516.027344 876.523438 519.320312 872.628906 523.753906 872.253906 L 1175.140625 817.511719 C 1177.300781 817.34375 1179.402344 818.011719 1181.035156 819.402344 L 1435.007812 1035.257812 C 1438.398438 1038.140625 1438.808594 1043.222656 1435.925781 1046.613281 C 1434.332031 1048.488281 1432.066406 1049.449219 1429.785156 1049.449219 Z M 1429.785156 1049.449219 " fill-opacity="1" fill-rule="nonzero"/><path fill="#552d2d" d="M 812.09375 864.160156 C 807.949219 864.160156 804.429688 860.984375 804.074219 856.78125 C 803.699219 852.347656 806.992188 848.453125 811.425781 848.078125 L 967.113281 834.996094 C 971.625 834.628906 975.445312 837.917969 975.820312 842.347656 C 976.195312 846.78125 972.902344 850.675781 968.46875 851.050781 L 812.777344 864.132812 C 812.546875 864.148438 812.320312 864.160156 812.09375 864.160156 Z M 812.09375 864.160156 " fill-opacity="1" fill-rule="nonzero"/><path fill="#552d2d" d="M 1331.148438 965.617188 C 1329.304688 965.617188 1327.453125 964.988281 1325.9375 963.699219 L 1249.777344 898.96875 C 1246.386719 896.089844 1245.972656 891.007812 1248.855469 887.617188 C 1251.738281 884.226562 1256.820312 883.816406 1260.207031 886.695312 L 1336.371094 951.425781 C 1339.761719 954.304688 1340.171875 959.386719 1337.289062 962.777344 C 1335.699219 964.652344 1333.433594 965.617188 1331.148438 965.617188 Z M 1331.148438 965.617188 " fill-opacity="1" fill-rule="nonzero"/><path fill="#552d2d" d="M 1009.351562 1383.390625 C 1009.34375 1383.390625 1009.339844 1383.390625 1009.332031 1383.390625 C 1004.882812 1383.378906 1001.285156 1379.761719 1001.296875 1375.316406 L 1002.046875 1074.953125 C 1002.058594 1070.507812 1005.660156 1066.917969 1010.101562 1066.917969 C 1010.109375 1066.917969 1010.113281 1066.917969 1010.121094 1066.917969 C 1014.570312 1066.929688 1018.171875 1070.542969 1018.160156 1074.992188 L 1017.40625 1375.355469 C 1017.394531 1379.796875 1013.792969 1383.390625 1009.351562 1383.390625 Z M 1009.351562 1383.390625 " fill-opacity="1" fill-rule="nonzero"/><path fill="#552d2d" d="M 1192.136719 1370.65625 C 1187.71875 1370.65625 1184.113281 1367.089844 1184.082031 1362.660156 L 1181.832031 1056.304688 C 1181.800781 1051.855469 1185.378906 1048.222656 1189.828125 1048.191406 C 1193.917969 1048.21875 1197.90625 1051.738281 1197.945312 1056.1875 L 1200.195312 1362.542969 C 1200.226562 1366.992188 1196.644531 1370.621094 1192.195312 1370.65625 C 1192.175781 1370.65625 1192.15625 1370.65625 1192.136719 1370.65625 Z M 1192.136719 1370.65625 " fill-opacity="1" fill-rule="nonzero"/><path fill="#552d2d" d="M 1189.886719 1066.265625 C 1187.867188 1066.265625 1185.847656 1065.507812 1184.28125 1063.996094 L 962.1875 848.808594 C 958.992188 845.710938 958.910156 840.613281 962.007812 837.417969 C 965.105469 834.222656 970.203125 834.148438 973.398438 837.238281 L 1195.492188 1052.425781 C 1198.6875 1055.519531 1198.769531 1060.621094 1195.675781 1063.8125 C 1194.09375 1065.445312 1191.992188 1066.265625 1189.886719 1066.265625 Z M 1189.886719 1066.265625 " fill-opacity="1" fill-rule="nonzero"/><path fill="#552d2d" d="M 1011.746094 1083.964844 C 1009.550781 1083.964844 1007.371094 1083.078125 1005.78125 1081.328125 L 806.140625 861.519531 C 803.144531 858.226562 803.394531 853.132812 806.6875 850.144531 C 809.980469 847.148438 815.082031 847.398438 818.066406 850.691406 L 1017.707031 1070.496094 C 1020.699219 1073.789062 1020.453125 1078.882812 1017.160156 1081.875 C 1015.617188 1083.277344 1013.679688 1083.964844 1011.746094 1083.964844 Z M 1011.746094 1083.964844 " fill-opacity="1" fill-rule="nonzero"/><path fill="#552d2d" d="M 669.84375 1359.109375 C 665.410156 1359.109375 661.808594 1355.527344 661.789062 1351.085938 L 660.449219 1033.808594 C 660.433594 1029.703125 663.503906 1026.242188 667.582031 1025.773438 L 1330.234375 949.558594 C 1334.601562 949.0625 1338.644531 952.21875 1339.160156 956.640625 C 1339.664062 961.058594 1336.496094 965.054688 1332.074219 965.5625 L 676.589844 1040.953125 L 677.898438 1351.019531 C 677.917969 1355.46875 674.328125 1359.089844 669.878906 1359.109375 C 669.867188 1359.109375 669.855469 1359.109375 669.84375 1359.109375 Z M 669.84375 1359.109375 " fill-opacity="1" fill-rule="nonzero"/><path fill="#552d2d" d="M 610.105469 1302.363281 C 610.101562 1302.363281 610.09375 1302.363281 610.089844 1302.363281 C 605.636719 1302.351562 602.042969 1298.738281 602.050781 1294.289062 L 602.769531 964.84375 C 602.777344 960.75 605.859375 957.3125 609.929688 956.859375 L 1254.097656 884.828125 C 1258.523438 884.324219 1262.5 887.515625 1262.996094 891.9375 C 1263.492188 896.359375 1260.3125 900.34375 1255.890625 900.839844 L 618.863281 972.066406 L 618.160156 1294.324219 C 618.152344 1298.769531 614.546875 1302.363281 610.105469 1302.363281 Z M 610.105469 1302.363281 " fill-opacity="1" fill-rule="nonzero"/><path fill="#ed2027" d="M 1000.875 943.03125 C 1044.921875 1039.226562 1131.96875 1131.644531 1184.59375 1173.289062 C 1186.574219 1174.855469 1188.769531 1176.488281 1191.296875 1176.507812 C 1193.824219 1176.527344 1196.445312 1174 1195.496094 1171.65625 C 1191.566406 1134.410156 1192.824219 1096.179688 1199.890625 1059.046875 C 1229.949219 1060.875 1260.453125 1064.089844 1290.738281 1068.71875 C 1261.328125 1038.9375 1240.195312 1004.082031 1227.765625 966.332031 C 1238.042969 950.785156 1257.519531 939.167969 1264.191406 919.898438 C 1267.679688 909.835938 1267.171875 898.816406 1265.4375 888.3125 C 1260.671875 859.472656 1247.203125 832.949219 1235.617188 806.109375 C 1228.753906 790.203125 1222.433594 773.769531 1220.804688 756.519531 C 1218.644531 733.652344 1224.414062 708.621094 1212.542969 688.957031 C 1204.789062 676.113281 1190.453125 668.160156 1175.664062 665.636719 C 1160.875 663.117188 1145.632812 665.503906 1131.222656 669.6875 C 1096.835938 679.667969 1065.839844 699.824219 1040.644531 725.269531 C 1015.453125 750.71875 995.878906 781.339844 980.664062 813.753906 C 964.054688 808.628906 946.140625 808.210938 929.804688 813.164062 C 913.472656 818.117188 898.804688 828.410156 888.597656 842.089844 C 877.984375 828.617188 865.078125 817.699219 850.328125 810.527344 C 839.742188 805.382812 828.332031 802.179688 816.996094 799.003906 C 789.136719 791.199219 760.894531 783.339844 731.964844 782.921875 C 703.035156 782.503906 672.847656 790.382812 651.914062 810.355469 C 641.363281 816.035156 635.894531 828.402344 636.078125 840.097656 C 636.261719 851.792969 641.179688 862.898438 647.039062 873.023438 C 652.898438 883.144531 659.804688 892.707031 664.597656 903.375 C 676.5625 930.003906 674.246094 960.480469 674.957031 989.664062 C 675.671875 1018.847656 681.136719 1050.808594 703.433594 1069.652344 C 719.054688 1082.851562 740.121094 1087.128906 763.257812 1089.160156 C 764.023438 1130.066406 757.460938 1171.832031 753.964844 1212.546875 C 782.234375 1203.0625 802.90625 1170.160156 831.402344 1161.390625 C 859.570312 1209.726562 871.679688 1225.796875 888.246094 1254.230469 C 881.703125 1292.636719 962.164062 1131.191406 943.9375 962.355469 C 965.832031 968.824219 985.160156 953.847656 1000.875 943.03125 Z M 1000.875 943.03125 " fill-opacity="1" fill-rule="nonzero"/><path fill="#552d2d" d="M 954.046875 969.566406 C 919.332031 969.566406 886.453125 946.039062 874.753906 909.589844 C 867.839844 888.054688 869.261719 865.246094 878.753906 845.363281 C 888.320312 825.3125 904.921875 810.636719 925.503906 804.03125 C 946.089844 797.425781 968.128906 799.703125 987.582031 810.4375 C 1006.871094 821.085938 1021.300781 838.804688 1028.210938 860.339844 C 1042.539062 904.964844 1019.769531 952.316406 977.464844 965.894531 C 969.714844 968.382812 961.832031 969.566406 954.046875 969.566406 Z M 890.09375 904.664062 C 901.703125 940.835938 938.699219 961.421875 972.539062 950.558594 C 1006.390625 939.691406 1024.484375 901.429688 1012.871094 865.261719 C 1007.21875 847.65625 995.472656 833.195312 979.792969 824.539062 C 964.269531 815.972656 946.742188 814.136719 930.429688 819.371094 C 914.117188 824.605469 900.929688 836.300781 893.289062 852.300781 C 885.578125 868.460938 884.441406 887.058594 890.09375 904.664062 Z M 890.09375 904.664062 " fill-opacity="1" fill-rule="nonzero"/><path fill="#552d2d" d="M 1140.152344 997.523438 C 1127.871094 997.523438 1116.414062 996.644531 1106.558594 995.636719 C 1074.078125 992.316406 1042.410156 970.042969 1009.746094 927.550781 C 1007.035156 924.023438 1007.695312 918.96875 1011.222656 916.253906 C 1014.75 913.550781 1019.800781 914.203125 1022.519531 917.734375 C 1052.339844 956.523438 1080.363281 976.765625 1108.195312 979.613281 C 1135.183594 982.371094 1174.910156 984.144531 1208.171875 967.753906 C 1234.78125 954.640625 1260.675781 925.117188 1258.542969 888.722656 C 1257.261719 866.792969 1246.375 846.828125 1234.847656 825.695312 C 1223.09375 804.148438 1210.941406 781.867188 1209.222656 756.621094 C 1208.679688 748.625 1209.199219 740.605469 1209.707031 732.851562 C 1210.632812 718.660156 1211.507812 705.253906 1205.785156 694.101562 C 1200.53125 683.851562 1189.554688 676.269531 1176.433594 673.816406 C 1165.5625 671.785156 1153.621094 672.847656 1137.683594 677.265625 C 1071.527344 695.609375 1015.773438 748.808594 992.1875 816.109375 C 990.714844 820.308594 986.113281 822.527344 981.921875 821.046875 C 977.71875 819.574219 975.507812 814.980469 976.980469 810.78125 C 1002.289062 738.582031 1062.214844 681.472656 1133.382812 661.742188 C 1144.8125 658.574219 1162.007812 654.734375 1179.390625 657.980469 C 1197.378906 661.339844 1212.605469 672.097656 1220.125 686.753906 C 1227.871094 701.859375 1226.8125 718.148438 1225.785156 733.898438 C 1225.292969 741.457031 1224.828125 748.601562 1225.296875 755.527344 C 1226.773438 777.253906 1237.566406 797.035156 1248.992188 817.984375 C 1260.863281 839.746094 1273.132812 862.25 1274.628906 887.78125 C 1277.1875 931.546875 1246.671875 966.742188 1215.289062 982.203125 C 1190.890625 994.226562 1163.96875 997.523438 1140.152344 997.523438 Z M 1140.152344 997.523438 " fill-opacity="1" fill-rule="nonzero"/><path fill="#552d2d" d="M 1188.472656 1185.4375 C 1185.6875 1185.4375 1182.90625 1184.527344 1180.515625 1182.734375 C 1111.824219 1131.199219 1034.957031 1034.046875 993.589844 946.46875 C 991.691406 942.449219 993.414062 937.644531 997.433594 935.746094 C 1001.460938 933.851562 1006.257812 935.566406 1008.160156 939.589844 C 1047.5 1022.875 1119.605469 1114.9375 1185.09375 1165.953125 C 1182.214844 1132.296875 1182.980469 1098.445312 1187.378906 1065.238281 C 1187.929688 1061.074219 1190.054688 1057.398438 1193.355469 1054.894531 C 1196.605469 1052.4375 1200.617188 1051.40625 1204.640625 1051.984375 L 1276.328125 1062.324219 C 1246.25 1028.8125 1229.222656 999.398438 1215.347656 972.488281 C 1213.308594 968.53125 1214.859375 963.675781 1218.816406 961.636719 C 1222.769531 959.601562 1227.632812 961.15625 1229.664062 965.105469 C 1244.128906 993.15625 1262.132812 1024.011719 1295.652344 1059.535156 C 1299.273438 1063.375 1300.085938 1069.074219 1297.671875 1073.71875 C 1295.335938 1078.222656 1290.5625 1080.667969 1285.585938 1079.9375 L 1203.257812 1068.0625 C 1198.84375 1101.792969 1198.3125 1136.210938 1201.679688 1170.375 C 1202.222656 1175.859375 1199.546875 1181.105469 1194.867188 1183.742188 C 1192.851562 1184.875 1190.660156 1185.4375 1188.472656 1185.4375 Z M 1202.34375 1067.929688 Z M 1202.34375 1067.929688 " fill-opacity="1" fill-rule="nonzero"/><path fill="#d51b27" d="M 1026.910156 834.96875 C 1036.476562 820.117188 1054.890625 802.324219 1068.433594 791.417969 C 1071.125 789.25 1074.019531 787.230469 1077.335938 786.359375 C 1080.652344 785.492188 1084.484375 785.945312 1087.175781 788.300781 C 1091.003906 791.648438 1091.40625 797.910156 1089.332031 802.492188 C 1087.253906 807.070312 1083.277344 810.308594 1079.292969 813.15625 C 1069.628906 820.070312 1050.492188 828.398438 1026.910156 834.96875 Z M 1026.910156 834.96875 " fill-opacity="1" fill-rule="nonzero"/><path fill="#d51b27" d="M 1035.757812 876.546875 C 1053.527344 883.714844 1071.738281 889.574219 1090.210938 894.066406 C 1095.523438 895.355469 1102.371094 895.878906 1104.90625 890.957031 C 1106.554688 887.757812 1105.34375 883.496094 1102.890625 880.765625 C 1100.4375 878.035156 1097.011719 876.546875 1093.640625 875.390625 C 1079.351562 870.496094 1063.804688 870.179688 1035.757812 876.546875 Z M 1035.757812 876.546875 " fill-opacity="1" fill-rule="nonzero"/><path fill="#552d2d" d="M 771.226562 1099.734375 C 737.082031 1099.734375 696.101562 1083.410156 677.605469 1045.753906 C 666.300781 1022.742188 665.902344 997.1875 665.523438 972.472656 C 665.152344 948.695312 664.804688 926.238281 655.367188 906.554688 C 652.355469 900.273438 648.417969 894.257812 644.253906 887.886719 C 635.582031 874.632812 626.617188 860.921875 625.921875 844 C 625.238281 827.554688 633.246094 810.800781 647.332031 799.195312 C 660.914062 788 677.84375 783.082031 689.398438 780.355469 C 761.394531 763.363281 838.699219 783.480469 896.207031 834.15625 C 899.546875 837.097656 899.867188 842.1875 896.929688 845.523438 C 893.984375 848.859375 888.890625 849.183594 885.558594 846.242188 C 831.949219 799.011719 760.007812 780.242188 693.09375 796.035156 C 677.011719 799.832031 666.058594 804.640625 657.582031 811.628906 C 647.363281 820.046875 641.542969 831.898438 642.015625 843.339844 C 642.53125 855.824219 649.917969 867.117188 657.738281 879.070312 C 662.003906 885.597656 666.421875 892.347656 669.894531 899.589844 C 680.863281 922.460938 681.25 947.757812 681.632812 972.222656 C 682.003906 996.21875 682.351562 1018.882812 692.0625 1038.652344 C 708.210938 1071.515625 745.378906 1084.851562 775.210938 1083.535156 C 812.355469 1081.863281 846.164062 1061.230469 868.363281 1045.859375 C 891.230469 1030.023438 905.691406 998.914062 912.570312 950.742188 C 913.195312 946.335938 917.285156 943.273438 921.683594 943.910156 C 926.085938 944.539062 929.144531 948.617188 928.515625 953.019531 C 920.96875 1005.875 904.296875 1040.570312 877.535156 1059.101562 C 853.699219 1075.609375 817.238281 1097.769531 775.933594 1099.628906 C 774.386719 1099.699219 772.8125 1099.734375 771.226562 1099.734375 Z M 771.226562 1099.734375 " fill-opacity="1" fill-rule="nonzero"/><path fill="#552d2d" d="M 893.449219 1265.816406 C 888.054688 1265.816406 883.121094 1262.550781 880.882812 1257.492188 C 866.9375 1226.007812 849.445312 1196.167969 828.898438 1168.792969 L 762.832031 1218.75 C 758.816406 1221.789062 753.476562 1221.945312 749.253906 1219.152344 C 744.894531 1216.273438 742.8125 1210.914062 744.082031 1205.820312 C 755.800781 1158.707031 756.285156 1123.117188 755.066406 1091.675781 C 754.890625 1087.230469 758.351562 1083.488281 762.796875 1083.3125 C 767.339844 1083.203125 770.992188 1086.609375 771.160156 1091.050781 C 772.335938 1121.265625 771.984375 1155.191406 762.238281 1199 L 819.882812 1155.414062 C 823.105469 1152.976562 827.101562 1151.957031 831.105469 1152.511719 C 835.21875 1153.085938 838.878906 1155.257812 841.410156 1158.625 C 861.679688 1185.550781 879.085938 1214.789062 893.195312 1245.605469 C 925.179688 1169.605469 942.675781 1054.578125 935.902344 962.949219 C 935.574219 958.511719 938.90625 954.648438 943.34375 954.320312 C 947.71875 954.027344 951.640625 957.320312 951.96875 961.761719 C 959.09375 1058.140625 939.953125 1179.945312 905.410156 1257.96875 C 903.261719 1262.8125 898.679688 1265.816406 893.449219 1265.816406 Z M 893.449219 1265.816406 " fill-opacity="1" fill-rule="nonzero"/><path fill="#d51b27" d="M 865.652344 887.761719 C 849.964844 879.390625 833.953125 870.902344 816.738281 867.886719 C 813.320312 867.285156 809.792969 866.914062 806.46875 867.75 C 803.144531 868.585938 800.019531 870.820312 798.832031 874.171875 C 797.144531 878.933594 799.882812 884.597656 803.960938 887.601562 C 808.035156 890.601562 813.105469 891.515625 817.992188 892.089844 C 829.847656 893.484375 841.8125 893.359375 865.652344 887.761719 Z M 865.652344 887.761719 " fill-opacity="1" fill-rule="nonzero"/><path fill="#d51b27" d="M 875.308594 927.140625 C 863.332031 941.9375 850.320312 955.808594 836.40625 968.605469 C 832.40625 972.285156 826.6875 976.035156 822.039062 972.953125 C 819.019531 970.953125 817.972656 966.644531 818.765625 963.082031 C 819.558594 959.523438 821.816406 956.578125 824.191406 953.945312 C 834.253906 942.804688 847.671875 935.058594 875.308594 927.140625 Z M 875.308594 927.140625 " fill-opacity="1" fill-rule="nonzero"/></svg>